<svg xmlns:xlink="http://www.w3.org/1999/xlink" xmlns="http://www.w3.org/2000/svg" version="1.1" viewBox="0 0 900.000 650.000" height="100%" width="100%" preserveAspectRatio="xMinYMin meet">
  <desc>Matlab Figure Converted by PLOT2SVG written by Juerg Schwizer</desc>
  <g id="topgroup">
  <rect stroke="none" fill="#ffffff" height="650.000" width="900.000" y="0" x="0"></rect>
  <g id="ID000000">
  <clipPath id="ID000001">
    <rect height="195.000" width="780.000" y="41.000" x="69.000"></rect>
  </clipPath>
      <polygon points="69.000,236.000 849.000,236.000 849.000,41.000 69.000,41.000" stroke-dasharray="none" stroke-opacity="1.00" stroke-width="0.5pt" stroke="none" fill-opacity="1.00" fill="#ffffff"></polygon>
      <polygon points="69.000,41.000 849.000,41.000 849.000,41.000 69.000,41.000" stroke-dasharray="none" stroke-opacity="1.00" stroke-width="0.5pt" stroke="none" fill-opacity="1.00" fill="#ffffff"></polygon>
      <polygon points="69.000,236.000 69.000,236.000 69.000,41.000 69.000,41.000" stroke-dasharray="none" stroke-opacity="1.00" stroke-width="0.5pt" stroke="none" fill-opacity="1.00" fill="#ffffff"></polygon>
      <polyline points="219.464,236.000 219.464,41.000" stroke-dasharray="2.0,2.0" stroke-width="0.5pt" stroke="#000000" fill="none"></polyline>
      <polyline points="369.928,236.000 369.928,41.000" stroke-dasharray="2.0,2.0" stroke-width="0.5pt" stroke="#000000" fill="none"></polyline>
      <polyline points="520.392,236.000 520.392,41.000" stroke-dasharray="2.0,2.0" stroke-width="0.5pt" stroke="#000000" fill="none"></polyline>
      <polyline points="670.856,236.000 670.856,41.000" stroke-dasharray="2.0,2.0" stroke-width="0.5pt" stroke="#000000" fill="none"></polyline>
      <polyline points="821.321,236.000 821.321,41.000" stroke-dasharray="2.0,2.0" stroke-width="0.5pt" stroke="#000000" fill="none"></polyline>
      <polyline points="69.000,233.796 849.000,233.796" stroke-dasharray="2.0,2.0" stroke-width="0.5pt" stroke="#000000" fill="none"></polyline>
      <polyline points="69.000,189.711 849.000,189.711" stroke-dasharray="2.0,2.0" stroke-width="0.5pt" stroke="#000000" fill="none"></polyline>
      <polyline points="69.000,145.626 849.000,145.626" stroke-dasharray="2.0,2.0" stroke-width="0.5pt" stroke="#000000" fill="none"></polyline>
      <polyline points="69.000,101.542 849.000,101.542" stroke-dasharray="2.0,2.0" stroke-width="0.5pt" stroke="#000000" fill="none"></polyline>
      <polyline points="69.000,57.457 849.000,57.457" stroke-dasharray="2.0,2.0" stroke-width="0.5pt" stroke="#000000" fill="none"></polyline>
      <polyline points="219.464,41.000 219.464,41.000" stroke-dasharray="2.0,2.0" stroke-width="0.5pt" stroke="#000000" fill="none"></polyline>
      <polyline points="369.928,41.000 369.928,41.000" stroke-dasharray="2.0,2.0" stroke-width="0.5pt" stroke="#000000" fill="none"></polyline>
      <polyline points="520.392,41.000 520.392,41.000" stroke-dasharray="2.0,2.0" stroke-width="0.5pt" stroke="#000000" fill="none"></polyline>
      <polyline points="670.856,41.000 670.856,41.000" stroke-dasharray="2.0,2.0" stroke-width="0.5pt" stroke="#000000" fill="none"></polyline>
      <polyline points="821.321,41.000 821.321,41.000" stroke-dasharray="2.0,2.0" stroke-width="0.5pt" stroke="#000000" fill="none"></polyline>
      <polyline points="69.000,41.000 849.000,41.000" stroke-dasharray="2.0,2.0" stroke-width="0.5pt" stroke="#000000" fill="none"></polyline>
      <polyline points="69.000,233.796 69.000,233.796" stroke-dasharray="2.0,2.0" stroke-width="0.5pt" stroke="#000000" fill="none"></polyline>
      <polyline points="69.000,189.711 69.000,189.711" stroke-dasharray="2.0,2.0" stroke-width="0.5pt" stroke="#000000" fill="none"></polyline>
      <polyline points="69.000,145.626 69.000,145.626" stroke-dasharray="2.0,2.0" stroke-width="0.5pt" stroke="#000000" fill="none"></polyline>
      <polyline points="69.000,101.542 69.000,101.542" stroke-dasharray="2.0,2.0" stroke-width="0.5pt" stroke="#000000" fill="none"></polyline>
      <polyline points="69.000,57.457 69.000,57.457" stroke-dasharray="2.0,2.0" stroke-width="0.5pt" stroke="#000000" fill="none"></polyline>
      <polyline points="69.000,236.000 69.000,41.000" stroke-dasharray="2.0,2.0" stroke-width="0.5pt" stroke="#000000" fill="none"></polyline>
    <g>
<g id="ID000002">
  <g transform="translate(458.500,26.500)">
    <g transform="rotate(-0.0)">
      <text fill="#000000" font-weight="bold" font-size="16pt" text-anchor="middle" font-family="Helvetica" y="0.000" x="0.000">Twiss functions - SI.V21.02-S05.03</text>
    </g>
  </g>
</g>
<g clip-path="url(#ID000001)" id="ID000003">
      <polyline points="69.000,233.796 69.000,233.796 69.000,233.796 71.881,233.796 74.763,233.796 77.644,233.796 80.526,233.796 83.407,233.796 86.288,233.796 89.170,233.796 92.051,233.796 94.932,233.796 97.814,233.796 100.695,233.796 103.577,233.796 106.458,233.796 109.339,233.796 112.221,233.796 115.102,233.796 117.984,233.796 120.865,233.796 123.746,233.796 126.628,233.796 129.637,233.796 132.646,233.796 135.656,233.796 138.665,233.796 140.470,233.796 140.470,233.796 143.480,233.796 143.480,233.796 146.489,233.796 149.197,233.796 151.906,233.796 154.614,233.796 157.322,233.796 160.031,233.796 162.997,233.796 165.964,233.796 168.930,233.796 171.897,233.796 174.864,233.796 174.864,233.796 176.895,233.796 178.926,233.796 181.183,233.796 183.440,233.796 185.697,233.796 187.954,233.796 190.963,233.796 193.972,233.796 196.199,233.796 199.209,233.796 201.195,233.796 203.452,233.796 205.709,233.796 207.966,233.796 210.223,233.796 212.329,233.796 214.436,233.796 216.452,233.796 218.468,233.796 218.468,233.796 219.973,233.791 221.176,233.777 222.380,233.732 222.862,233.694 222.862,233.694 223.885,233.522 225.389,233.014 228.399,231.059 230.656,228.767 232.913,225.755 234.116,223.849 234.417,223.340 234.568,223.080 234.718,222.817 234.869,222.551 234.959,222.389 235.019,222.281 235.019,222.281 235.019,222.281 235.079,222.172 235.170,222.008 235.320,221.732 235.470,221.452 235.621,221.169 235.922,220.593 237.126,218.152 239.383,212.985 241.640,207.031 244.649,197.821 246.153,192.652 247.177,188.917 247.177,188.917 247.658,187.105 248.862,182.518 250.066,177.895 251.570,172.105 251.570,172.105 254.423,161.116 257.276,150.127 260.129,139.139 262.981,128.150 265.834,117.161 268.091,108.468 270.348,99.774 272.906,89.922 275.464,80.069 278.473,70.690 281.482,65.890 283.514,64.233 285.545,62.576 285.545,62.576 287.426,61.042 289.307,59.508 291.564,57.667 293.820,55.826 296.128,53.944 298.435,52.063 300.742,50.181 303.751,51.717 306.760,61.131 309.318,72.390 311.876,83.648 314.133,93.582 316.390,103.517 318.722,113.782 321.054,124.047 321.054,124.047 322.890,132.127 322.890,132.127 323.868,136.429 324.831,140.659 325.734,144.613 326.336,147.234 326.787,149.182 326.787,149.182 327.088,150.464 327.690,152.976 330.323,163.094 332.956,171.837 335.589,179.255 338.222,185.392 338.523,186.013 338.824,186.618 338.975,186.915 338.975,186.915 339.125,187.207 339.276,187.496 339.426,187.780 339.727,188.337 341.382,191.113 343.263,193.685 345.144,195.648 345.144,195.648 345.144,195.648 347.025,197.008 348.905,197.768 350.561,197.941 350.861,197.923 351.012,197.908 351.162,197.889 351.313,197.866 351.313,197.866 351.463,197.840 351.764,197.776 352.065,197.696 354.698,196.344 357.331,193.813 359.965,190.086 362.598,185.144 363.199,183.841 363.500,183.166 363.500,183.166 363.952,182.134 364.554,180.736 365.456,178.617 366.419,176.346 367.397,174.033 367.397,174.033 369.925,168.048 372.453,162.063 374.981,156.078 377.509,150.093 379.766,144.750 382.023,139.406 384.580,133.350 387.138,127.294 390.148,121.926 393.157,120.169 395.464,120.229 397.771,120.288 400.078,120.347 402.335,120.406 404.592,120.464 407.200,120.531 409.808,120.598 412.416,120.665 415.426,122.958 418.435,129.594 421.444,138.327 424.453,147.061 426.710,153.612 428.967,160.162 431.856,168.546 434.745,176.931 437.754,185.665 439.410,190.468 441.065,195.272 441.065,195.272 443.322,201.822 444.375,204.866 444.856,206.245 445.278,207.439 445.278,207.439 445.639,208.446 448.046,214.542 450.454,219.554 450.454,219.554 452.861,223.514 455.268,226.446 455.268,226.446 457.194,228.118 457.194,228.118 457.495,228.329 457.796,228.520 458.097,228.687 458.398,228.821 458.549,228.873 458.699,228.912 458.850,228.938 459.000,228.946 459.000,228.946 459.000,228.946 459.150,228.938 459.301,228.912 459.451,228.873 459.602,228.821 459.903,228.687 460.204,228.520 460.505,228.329 460.806,228.118 460.806,228.118 462.732,226.446 462.732,226.446 465.139,223.514 467.546,219.554 467.546,219.554 469.954,214.542 472.361,208.446 472.722,207.439 472.722,207.439 473.144,206.245 473.625,204.866 474.678,201.822 477.368,194.016 480.057,186.210 482.747,178.405 485.437,170.599 488.126,162.793 490.816,154.987 493.505,147.181 496.195,139.376 497.880,134.485 499.565,129.594 502.574,122.958 505.584,120.665 507.585,120.614 509.586,120.562 509.586,120.562 511.497,120.513 513.408,120.464 515.665,120.406 517.922,120.348 519.366,120.310 522.375,120.233 524.843,120.169 527.852,121.926 530.862,127.294 533.420,133.350 535.977,139.406 538.234,144.750 540.491,150.094 543.250,156.625 546.008,163.156 548.767,169.687 548.767,169.687 550.603,174.033 550.603,174.033 551.581,176.346 552.544,178.617 553.446,180.736 554.048,182.134 554.500,183.166 554.500,183.166 554.801,183.841 555.402,185.144 558.035,190.086 560.669,193.813 563.302,196.344 565.935,197.696 566.236,197.776 566.537,197.840 566.687,197.866 566.687,197.866 566.838,197.889 566.988,197.908 567.139,197.923 567.439,197.941 569.095,197.768 570.975,197.008 572.856,195.648 572.856,195.648 572.856,195.648 574.737,193.685 576.618,191.113 578.273,188.337 578.574,187.780 578.724,187.496 578.875,187.207 579.025,186.915 579.025,186.915 579.176,186.618 579.477,186.013 579.778,185.392 582.411,179.255 585.044,171.837 587.677,163.094 590.310,152.976 590.912,150.464 591.213,149.182 591.213,149.182 591.664,147.234 592.266,144.613 593.169,140.659 594.132,136.429 595.110,132.127 595.110,132.127 597.277,122.590 599.443,113.053 601.610,103.517 603.867,93.582 606.124,83.648 608.682,72.389 611.240,61.131 614.249,51.716 617.258,50.181 619.565,52.063 621.872,53.944 624.180,55.826 626.436,57.667 628.693,59.508 630.574,61.042 632.455,62.576 632.455,62.576 634.486,64.233 636.518,65.890 639.527,70.690 642.536,80.069 645.094,89.922 647.652,99.774 649.909,108.468 652.166,117.161 655.019,128.150 657.871,139.139 660.724,150.127 663.577,161.116 666.430,172.105 666.430,172.105 667.934,177.895 669.138,182.518 670.342,187.105 670.823,188.917 670.823,188.917 671.847,192.652 673.351,197.821 676.360,207.031 678.617,212.985 680.874,218.152 682.078,220.593 682.379,221.169 682.530,221.452 682.680,221.732 682.830,222.008 682.921,222.172 682.981,222.281 682.981,222.281 682.981,222.281 683.041,222.389 683.131,222.551 683.282,222.817 683.432,223.080 683.583,223.340 683.884,223.849 685.087,225.755 687.344,228.767 689.601,231.059 692.611,233.014 694.115,233.522 695.138,233.694 695.138,233.694 695.620,233.732 696.824,233.777 698.027,233.791 699.532,233.796 699.532,233.796 701.548,233.796 703.564,233.796 705.671,233.796 707.777,233.796 710.034,233.796 712.291,233.796 714.548,233.796 716.805,233.796 719.213,233.796 721.620,233.796 724.028,233.796 727.037,233.796 730.046,233.796 733.055,233.796 735.312,233.796 737.569,233.796 739.826,233.796 742.083,233.796 743.317,233.796 746.326,233.796 747.650,233.796 749.757,233.796 751.863,233.796 753.970,233.796 756.076,233.796 756.076,233.796 759.086,233.796 762.095,233.796 765.104,233.796 768.113,233.796 771.123,233.796 774.099,233.796 777.075,233.796 780.051,233.796 783.028,233.796 786.004,233.796 788.980,233.796 791.956,233.796 794.932,233.796 797.908,233.796 800.885,233.796 803.861,233.796 806.870,233.796 809.879,233.796 812.889,233.796 815.898,233.796 818.907,233.796 818.907,233.796 821.916,233.796 824.926,233.796 827.935,233.796 830.944,233.796 833.954,233.796 836.963,233.796 839.972,233.796 842.981,233.796 845.991,233.796 849.000,233.796" stroke-dasharray="none" stroke-width="2.0pt" stroke="#00cc00" fill="none"></polyline>
<g>
</g>
</g>
<g id="ID000004">
  <g transform="translate(43.500,139.500)">
    <g transform="rotate(-90.0)">
      <text fill="#000000" font-size="16pt" text-anchor="middle" font-family="Helvetica" y="0.000" x="0.000"><tspan>η</tspan><tspan></tspan><tspan font-size="11pt" dy="6.4pt">x</tspan><tspan font-size="16pt" dy="-6.4pt"> [cm]</tspan></text>
    </g>
  </g>
</g>
<g id="ID000005">
</g>
    </g>
    <g>
      <polyline points="219.464,236.000 219.464,228.200" stroke-dasharray="none" stroke-width="0.5pt" stroke="#000000" fill="none"></polyline>
      <polyline points="369.928,236.000 369.928,228.200" stroke-dasharray="none" stroke-width="0.5pt" stroke="#000000" fill="none"></polyline>
      <polyline points="520.392,236.000 520.392,228.200" stroke-dasharray="none" stroke-width="0.5pt" stroke="#000000" fill="none"></polyline>
      <polyline points="670.856,236.000 670.856,228.200" stroke-dasharray="none" stroke-width="0.5pt" stroke="#000000" fill="none"></polyline>
      <polyline points="821.321,236.000 821.321,228.200" stroke-dasharray="none" stroke-width="0.5pt" stroke="#000000" fill="none"></polyline>
      <polyline points="69.000,236.000 849.000,236.000" stroke-dasharray="none" stroke-width="0.5pt" stroke="#000000" fill="none"></polyline>
      <polyline points="219.464,41.000 219.464,48.800" stroke-dasharray="none" stroke-width="0.5pt" stroke="#000000" fill="none"></polyline>
      <polyline points="369.928,41.000 369.928,48.800" stroke-dasharray="none" stroke-width="0.5pt" stroke="#000000" fill="none"></polyline>
      <polyline points="520.392,41.000 520.392,48.800" stroke-dasharray="none" stroke-width="0.5pt" stroke="#000000" fill="none"></polyline>
      <polyline points="670.856,41.000 670.856,48.800" stroke-dasharray="none" stroke-width="0.5pt" stroke="#000000" fill="none"></polyline>
      <polyline points="821.321,41.000 821.321,48.800" stroke-dasharray="none" stroke-width="0.5pt" stroke="#000000" fill="none"></polyline>
      <polyline points="69.000,41.000 849.000,41.000" stroke-dasharray="none" stroke-width="0.5pt" stroke="#000000" fill="none"></polyline>
      <polyline points="69.000,233.796 76.800,233.796" stroke-dasharray="none" stroke-width="0.5pt" stroke="#000000" fill="none"></polyline>
      <polyline points="69.000,189.711 76.800,189.711" stroke-dasharray="none" stroke-width="0.5pt" stroke="#000000" fill="none"></polyline>
      <polyline points="69.000,145.626 76.800,145.626" stroke-dasharray="none" stroke-width="0.5pt" stroke="#000000" fill="none"></polyline>
      <polyline points="69.000,101.542 76.800,101.542" stroke-dasharray="none" stroke-width="0.5pt" stroke="#000000" fill="none"></polyline>
      <polyline points="69.000,57.457 76.800,57.457" stroke-dasharray="none" stroke-width="0.5pt" stroke="#000000" fill="none"></polyline>
      <polyline points="69.000,236.000 69.000,41.000" stroke-dasharray="none" stroke-width="0.5pt" stroke="#000000" fill="none"></polyline>
      <polyline points="849.000,233.796 841.200,233.796" stroke-dasharray="none" stroke-width="0.5pt" stroke="#000000" fill="none"></polyline>
      <polyline points="849.000,189.711 841.200,189.711" stroke-dasharray="none" stroke-width="0.5pt" stroke="#000000" fill="none"></polyline>
      <polyline points="849.000,145.626 841.200,145.626" stroke-dasharray="none" stroke-width="0.5pt" stroke="#000000" fill="none"></polyline>
      <polyline points="849.000,101.542 841.200,101.542" stroke-dasharray="none" stroke-width="0.5pt" stroke="#000000" fill="none"></polyline>
      <polyline points="849.000,57.457 841.200,57.457" stroke-dasharray="none" stroke-width="0.5pt" stroke="#000000" fill="none"></polyline>
      <polyline points="849.000,236.000 849.000,41.000" stroke-dasharray="none" stroke-width="0.5pt" stroke="#000000" fill="none"></polyline>
  <g transform="translate(65.100,240.996)">
    <g transform="rotate(-0.0)">
      <text fill="#000000" font-size="16pt" text-anchor="end" font-family="Helvetica" y="0.000" x="0.000">0</text>
    </g>
  </g>
  <g transform="translate(65.100,196.911)">
    <g transform="rotate(-0.0)">
      <text fill="#000000" font-size="16pt" text-anchor="end" font-family="Helvetica" y="0.000" x="0.000">2</text>
    </g>
  </g>
  <g transform="translate(65.100,152.826)">
    <g transform="rotate(-0.0)">
      <text fill="#000000" font-size="16pt" text-anchor="end" font-family="Helvetica" y="0.000" x="0.000">4</text>
    </g>
  </g>
  <g transform="translate(65.100,108.742)">
    <g transform="rotate(-0.0)">
      <text fill="#000000" font-size="16pt" text-anchor="end" font-family="Helvetica" y="0.000" x="0.000">6</text>
    </g>
  </g>
  <g transform="translate(65.100,64.657)">
    <g transform="rotate(-0.0)">
      <text fill="#000000" font-size="16pt" text-anchor="end" font-family="Helvetica" y="0.000" x="0.000">8</text>
    </g>
  </g>
      <polyline points="69.000,236.000 69.000,234.050" stroke-dasharray="none" stroke-width="0.5pt" stroke="#000000" fill="none"></polyline>
      <polyline points="69.000,236.000 69.000,236.000" stroke-dasharray="none" stroke-width="0.5pt" stroke="#000000" fill="none"></polyline>
    </g>
  </g>
  <g id="ID000006">
  <clipPath id="ID000007">
    <rect height="20.000" width="780.000" y="251.000" x="69.000"></rect>
  </clipPath>
    <g>
<g clip-path="url(#ID000007)" id="ID000008">
      <polyline points="69.000,261.000 126.628,261.000" stroke-dasharray="none" stroke-width="0.5pt" stroke="#000000" fill="none"></polyline>
<g>
</g>
</g>
<g clip-path="url(#ID000007)" id="ID000009">
      <polyline points="138.665,261.000 140.470,261.000" stroke-dasharray="none" stroke-width="0.5pt" stroke="#000000" fill="none"></polyline>
<g>
</g>
</g>
<g clip-path="url(#ID000007)" id="ID000010">
      <polyline points="140.470,261.000 146.489,261.000" stroke-dasharray="none" stroke-width="0.5pt" stroke="#000000" fill="none"></polyline>
<g>
</g>
</g>
<g clip-path="url(#ID000007)" id="ID000011">
      <polyline points="160.031,261.000 174.864,261.000" stroke-dasharray="none" stroke-width="0.5pt" stroke="#000000" fill="none"></polyline>
<g>
</g>
</g>
<g clip-path="url(#ID000007)" id="ID000012">
      <polyline points="174.864,261.000 178.926,261.000" stroke-dasharray="none" stroke-width="0.5pt" stroke="#000000" fill="none"></polyline>
<g>
</g>
</g>
<g clip-path="url(#ID000007)" id="ID000013">
<rect stroke-dasharray="none" stroke-width="0.5pt" stroke="#899876" fill="#899876" ry="0.000" rx="0.000" height="20.000" width="4.514" y="251.000" x="178.926"></rect>
</g>
<g clip-path="url(#ID000007)" id="ID000014">
      <polyline points="183.440,261.000 187.954,261.000" stroke-dasharray="none" stroke-width="0.5pt" stroke="#000000" fill="none"></polyline>
<g>
</g>
</g>
<g clip-path="url(#ID000007)" id="ID000015">
<rect stroke-dasharray="none" stroke-width="0.5pt" stroke="#ea9b51" fill="#ea9b51" ry="0.000" rx="0.000" height="20.000" width="6.019" y="251.000" x="187.954"></rect>
</g>
<g clip-path="url(#ID000007)" id="ID000016">
      <polyline points="193.972,261.000 196.199,261.000" stroke-dasharray="none" stroke-width="0.5pt" stroke="#000000" fill="none"></polyline>
<g>
</g>
</g>
<g clip-path="url(#ID000007)" id="ID000017">
      <polyline points="199.209,261.000 201.195,261.000" stroke-dasharray="none" stroke-width="0.5pt" stroke="#000000" fill="none"></polyline>
<g>
</g>
</g>
<g clip-path="url(#ID000007)" id="ID000018">
<rect stroke-dasharray="none" stroke-width="0.5pt" stroke="#899876" fill="#899876" ry="0.000" rx="0.000" height="20.000" width="4.514" y="251.000" x="201.195"></rect>
</g>
<g clip-path="url(#ID000007)" id="ID000019">
      <polyline points="205.709,261.000 210.223,261.000" stroke-dasharray="none" stroke-width="0.5pt" stroke="#000000" fill="none"></polyline>
<g>
</g>
</g>
<g clip-path="url(#ID000007)" id="ID000020">
<rect stroke-dasharray="none" stroke-width="0.5pt" stroke="#ea9b51" fill="#ea9b51" ry="0.000" rx="0.000" height="20.000" width="4.213" y="251.000" x="210.223"></rect>
</g>
<g clip-path="url(#ID000007)" id="ID000021">
      <polyline points="214.436,261.000 218.468,261.000" stroke-dasharray="none" stroke-width="0.5pt" stroke="#000000" fill="none"></polyline>
<g>
</g>
</g>
<g clip-path="url(#ID000007)" id="ID000022">
<rect stroke-dasharray="none" stroke-width="0.5pt" stroke="#0088b5" fill="#0088b5" ry="0.000" rx="0.000" height="20.000" width="33.102" y="251.000" x="218.468"></rect>
</g>
<g clip-path="url(#ID000007)" id="ID000023">
      <polyline points="251.570,261.000 265.834,261.000" stroke-dasharray="none" stroke-width="0.5pt" stroke="#000000" fill="none"></polyline>
<g>
</g>
</g>
<g clip-path="url(#ID000007)" id="ID000024">
<rect stroke-dasharray="none" stroke-width="0.5pt" stroke="#899876" fill="#899876" ry="0.000" rx="0.000" height="20.000" width="4.514" y="251.000" x="265.834"></rect>
</g>
<g clip-path="url(#ID000007)" id="ID000025">
      <polyline points="270.348,261.000 275.464,261.000" stroke-dasharray="none" stroke-width="0.5pt" stroke="#000000" fill="none"></polyline>
<g>
</g>
</g>
<g clip-path="url(#ID000007)" id="ID000026">
<rect stroke-dasharray="none" stroke-width="0.5pt" stroke="#ea9b51" fill="#ea9b51" ry="0.000" rx="0.000" height="20.000" width="6.019" y="251.000" x="275.464"></rect>
</g>
<g clip-path="url(#ID000007)" id="ID000027">
      <polyline points="281.482,261.000 285.545,261.000" stroke-dasharray="none" stroke-width="0.5pt" stroke="#000000" fill="none"></polyline>
<g>
</g>
</g>
<g clip-path="url(#ID000007)" id="ID000028">
      <polyline points="285.545,261.000 289.307,261.000" stroke-dasharray="none" stroke-width="0.5pt" stroke="#000000" fill="none"></polyline>
<g>
</g>
</g>
<g clip-path="url(#ID000007)" id="ID000029">
<rect stroke-dasharray="none" stroke-width="0.5pt" stroke="#899876" fill="#899876" ry="0.000" rx="0.000" height="20.000" width="4.514" y="251.000" x="289.307"></rect>
</g>
<g clip-path="url(#ID000007)" id="ID000030">
      <polyline points="293.820,261.000 300.742,261.000" stroke-dasharray="none" stroke-width="0.5pt" stroke="#000000" fill="none"></polyline>
<g>
</g>
</g>
<g clip-path="url(#ID000007)" id="ID000031">
<rect stroke-dasharray="none" stroke-width="0.5pt" stroke="#ea9b51" fill="#ea9b51" ry="0.000" rx="0.000" height="20.000" width="6.019" y="251.000" x="300.742"></rect>
</g>
<g clip-path="url(#ID000007)" id="ID000032">
      <polyline points="306.760,261.000 311.876,261.000" stroke-dasharray="none" stroke-width="0.5pt" stroke="#000000" fill="none"></polyline>
<g>
</g>
</g>
<g clip-path="url(#ID000007)" id="ID000033">
<rect stroke-dasharray="none" stroke-width="0.5pt" stroke="#899876" fill="#899876" ry="0.000" rx="0.000" height="20.000" width="4.514" y="251.000" x="311.876"></rect>
</g>
<g clip-path="url(#ID000007)" id="ID000034">
      <polyline points="316.390,261.000 321.054,261.000" stroke-dasharray="none" stroke-width="0.5pt" stroke="#000000" fill="none"></polyline>
<g>
</g>
</g>
<g clip-path="url(#ID000007)" id="ID000035">
      <polyline points="321.054,261.000 322.890,261.000" stroke-dasharray="none" stroke-width="0.5pt" stroke="#000000" fill="none"></polyline>
<g>
</g>
</g>
<g clip-path="url(#ID000007)" id="ID000036">
<rect stroke-dasharray="none" stroke-width="0.5pt" stroke="#0088b5" fill="#0088b5" ry="0.000" rx="0.000" height="20.000" width="44.507" y="251.000" x="322.890"></rect>
</g>
<g clip-path="url(#ID000007)" id="ID000037">
      <polyline points="367.397,261.000 377.509,261.000" stroke-dasharray="none" stroke-width="0.5pt" stroke="#000000" fill="none"></polyline>
<g>
</g>
</g>
<g clip-path="url(#ID000007)" id="ID000038">
<rect stroke-dasharray="none" stroke-width="0.5pt" stroke="#899876" fill="#899876" ry="0.000" rx="0.000" height="20.000" width="4.514" y="251.000" x="377.509"></rect>
</g>
<g clip-path="url(#ID000007)" id="ID000039">
      <polyline points="382.023,261.000 387.138,261.000" stroke-dasharray="none" stroke-width="0.5pt" stroke="#000000" fill="none"></polyline>
<g>
</g>
</g>
<g clip-path="url(#ID000007)" id="ID000040">
<rect stroke-dasharray="none" stroke-width="0.5pt" stroke="#ea9b51" fill="#ea9b51" ry="0.000" rx="0.000" height="20.000" width="6.019" y="251.000" x="387.138"></rect>
</g>
<g clip-path="url(#ID000007)" id="ID000041">
      <polyline points="393.157,261.000 400.078,261.000" stroke-dasharray="none" stroke-width="0.5pt" stroke="#000000" fill="none"></polyline>
<g>
</g>
</g>
<g clip-path="url(#ID000007)" id="ID000042">
<rect stroke-dasharray="none" stroke-width="0.5pt" stroke="#899876" fill="#899876" ry="0.000" rx="0.000" height="20.000" width="4.514" y="251.000" x="400.078"></rect>
</g>
<g clip-path="url(#ID000007)" id="ID000043">
      <polyline points="404.592,261.000 412.416,261.000" stroke-dasharray="none" stroke-width="0.5pt" stroke="#000000" fill="none"></polyline>
<g>
</g>
</g>
<g clip-path="url(#ID000007)" id="ID000044">
<rect stroke-dasharray="none" stroke-width="0.5pt" stroke="#ea9b51" fill="#ea9b51" ry="0.000" rx="0.000" height="20.000" width="6.019" y="251.000" x="412.416"></rect>
</g>
<g clip-path="url(#ID000007)" id="ID000045">
      <polyline points="418.435,261.000 424.453,261.000" stroke-dasharray="none" stroke-width="0.5pt" stroke="#000000" fill="none"></polyline>
<g>
</g>
</g>
<g clip-path="url(#ID000007)" id="ID000046">
      <polyline points="424.453,261.000 428.967,261.000" stroke-dasharray="none" stroke-width="0.5pt" stroke="#000000" fill="none"></polyline>
<g>
</g>
</g>
<g clip-path="url(#ID000007)" id="ID000047">
      <polyline points="428.967,261.000 434.745,261.000" stroke-dasharray="none" stroke-width="0.5pt" stroke="#000000" fill="none"></polyline>
<g>
</g>
</g>
<g clip-path="url(#ID000007)" id="ID000048">
      <polyline points="437.754,261.000 441.065,261.000" stroke-dasharray="none" stroke-width="0.5pt" stroke="#000000" fill="none"></polyline>
<g>
</g>
</g>
<g clip-path="url(#ID000007)" id="ID000049">
      <polyline points="441.065,261.000 443.322,261.000" stroke-dasharray="none" stroke-width="0.5pt" stroke="#000000" fill="none"></polyline>
<g>
</g>
</g>
<g clip-path="url(#ID000007)" id="ID000050">
<rect stroke-dasharray="none" stroke-width="0.5pt" stroke="#0088b5" fill="#0088b5" ry="0.000" rx="0.000" height="20.000" width="31.357" y="251.000" x="443.322"></rect>
</g>
<g clip-path="url(#ID000007)" id="ID000051">
      <polyline points="474.678,261.000 496.195,261.000" stroke-dasharray="none" stroke-width="0.5pt" stroke="#000000" fill="none"></polyline>
<g>
</g>
</g>
<g clip-path="url(#ID000007)" id="ID000052">
      <polyline points="496.195,261.000 499.565,261.000" stroke-dasharray="none" stroke-width="0.5pt" stroke="#000000" fill="none"></polyline>
<g>
</g>
</g>
<g clip-path="url(#ID000007)" id="ID000053">
<rect stroke-dasharray="none" stroke-width="0.5pt" stroke="#ea9b51" fill="#ea9b51" ry="0.000" rx="0.000" height="20.000" width="6.019" y="251.000" x="499.565"></rect>
</g>
<g clip-path="url(#ID000007)" id="ID000054">
      <polyline points="505.584,261.000 509.586,261.000" stroke-dasharray="none" stroke-width="0.5pt" stroke="#000000" fill="none"></polyline>
<g>
</g>
</g>
<g clip-path="url(#ID000007)" id="ID000055">
      <polyline points="509.586,261.000 513.408,261.000" stroke-dasharray="none" stroke-width="0.5pt" stroke="#000000" fill="none"></polyline>
<g>
</g>
</g>
<g clip-path="url(#ID000007)" id="ID000056">
<rect stroke-dasharray="none" stroke-width="0.5pt" stroke="#899876" fill="#899876" ry="0.000" rx="0.000" height="20.000" width="4.514" y="251.000" x="513.408"></rect>
</g>
<g clip-path="url(#ID000007)" id="ID000057">
      <polyline points="517.922,261.000 519.366,261.000" stroke-dasharray="none" stroke-width="0.5pt" stroke="#000000" fill="none"></polyline>
<g>
</g>
</g>
<g clip-path="url(#ID000007)" id="ID000058">
      <polyline points="522.375,261.000 524.843,261.000" stroke-dasharray="none" stroke-width="0.5pt" stroke="#000000" fill="none"></polyline>
<g>
</g>
</g>
<g clip-path="url(#ID000007)" id="ID000059">
<rect stroke-dasharray="none" stroke-width="0.5pt" stroke="#ea9b51" fill="#ea9b51" ry="0.000" rx="0.000" height="20.000" width="6.019" y="251.000" x="524.843"></rect>
</g>
<g clip-path="url(#ID000007)" id="ID000060">
      <polyline points="530.862,261.000 535.977,261.000" stroke-dasharray="none" stroke-width="0.5pt" stroke="#000000" fill="none"></polyline>
<g>
</g>
</g>
<g clip-path="url(#ID000007)" id="ID000061">
<rect stroke-dasharray="none" stroke-width="0.5pt" stroke="#899876" fill="#899876" ry="0.000" rx="0.000" height="20.000" width="4.514" y="251.000" x="535.977"></rect>
</g>
<g clip-path="url(#ID000007)" id="ID000062">
      <polyline points="540.491,261.000 548.767,261.000" stroke-dasharray="none" stroke-width="0.5pt" stroke="#000000" fill="none"></polyline>
<g>
</g>
</g>
<g clip-path="url(#ID000007)" id="ID000063">
      <polyline points="548.767,261.000 550.603,261.000" stroke-dasharray="none" stroke-width="0.5pt" stroke="#000000" fill="none"></polyline>
<g>
</g>
</g>
<g clip-path="url(#ID000007)" id="ID000064">
<rect stroke-dasharray="none" stroke-width="0.5pt" stroke="#0088b5" fill="#0088b5" ry="0.000" rx="0.000" height="20.000" width="44.507" y="251.000" x="550.603"></rect>
</g>
<g clip-path="url(#ID000007)" id="ID000065">
      <polyline points="595.110,261.000 601.610,261.000" stroke-dasharray="none" stroke-width="0.5pt" stroke="#000000" fill="none"></polyline>
<g>
</g>
</g>
<g clip-path="url(#ID000007)" id="ID000066">
<rect stroke-dasharray="none" stroke-width="0.5pt" stroke="#899876" fill="#899876" ry="0.000" rx="0.000" height="20.000" width="4.514" y="251.000" x="601.610"></rect>
</g>
<g clip-path="url(#ID000007)" id="ID000067">
      <polyline points="606.124,261.000 611.240,261.000" stroke-dasharray="none" stroke-width="0.5pt" stroke="#000000" fill="none"></polyline>
<g>
</g>
</g>
<g clip-path="url(#ID000007)" id="ID000068">
<rect stroke-dasharray="none" stroke-width="0.5pt" stroke="#ea9b51" fill="#ea9b51" ry="0.000" rx="0.000" height="20.000" width="6.019" y="251.000" x="611.240"></rect>
</g>
<g clip-path="url(#ID000007)" id="ID000069">
      <polyline points="617.258,261.000 624.180,261.000" stroke-dasharray="none" stroke-width="0.5pt" stroke="#000000" fill="none"></polyline>
<g>
</g>
</g>
<g clip-path="url(#ID000007)" id="ID000070">
<rect stroke-dasharray="none" stroke-width="0.5pt" stroke="#899876" fill="#899876" ry="0.000" rx="0.000" height="20.000" width="4.514" y="251.000" x="624.180"></rect>
</g>
<g clip-path="url(#ID000007)" id="ID000071">
      <polyline points="628.693,261.000 632.455,261.000" stroke-dasharray="none" stroke-width="0.5pt" stroke="#000000" fill="none"></polyline>
<g>
</g>
</g>
<g clip-path="url(#ID000007)" id="ID000072">
      <polyline points="632.455,261.000 636.518,261.000" stroke-dasharray="none" stroke-width="0.5pt" stroke="#000000" fill="none"></polyline>
<g>
</g>
</g>
<g clip-path="url(#ID000007)" id="ID000073">
<rect stroke-dasharray="none" stroke-width="0.5pt" stroke="#ea9b51" fill="#ea9b51" ry="0.000" rx="0.000" height="20.000" width="6.019" y="251.000" x="636.518"></rect>
</g>
<g clip-path="url(#ID000007)" id="ID000074">
      <polyline points="642.536,261.000 647.652,261.000" stroke-dasharray="none" stroke-width="0.5pt" stroke="#000000" fill="none"></polyline>
<g>
</g>
</g>
<g clip-path="url(#ID000007)" id="ID000075">
<rect stroke-dasharray="none" stroke-width="0.5pt" stroke="#899876" fill="#899876" ry="0.000" rx="0.000" height="20.000" width="4.514" y="251.000" x="647.652"></rect>
</g>
<g clip-path="url(#ID000007)" id="ID000076">
      <polyline points="652.166,261.000 666.430,261.000" stroke-dasharray="none" stroke-width="0.5pt" stroke="#000000" fill="none"></polyline>
<g>
</g>
</g>
<g clip-path="url(#ID000007)" id="ID000077">
<rect stroke-dasharray="none" stroke-width="0.5pt" stroke="#0088b5" fill="#0088b5" ry="0.000" rx="0.000" height="20.000" width="33.102" y="251.000" x="666.430"></rect>
</g>
<g clip-path="url(#ID000007)" id="ID000078">
      <polyline points="699.532,261.000 703.564,261.000" stroke-dasharray="none" stroke-width="0.5pt" stroke="#000000" fill="none"></polyline>
<g>
</g>
</g>
<g clip-path="url(#ID000007)" id="ID000079">
<rect stroke-dasharray="none" stroke-width="0.5pt" stroke="#ea9b51" fill="#ea9b51" ry="0.000" rx="0.000" height="20.000" width="4.213" y="251.000" x="703.564"></rect>
</g>
<g clip-path="url(#ID000007)" id="ID000080">
      <polyline points="707.777,261.000 712.291,261.000" stroke-dasharray="none" stroke-width="0.5pt" stroke="#000000" fill="none"></polyline>
<g>
</g>
</g>
<g clip-path="url(#ID000007)" id="ID000081">
<rect stroke-dasharray="none" stroke-width="0.5pt" stroke="#899876" fill="#899876" ry="0.000" rx="0.000" height="20.000" width="4.514" y="251.000" x="712.291"></rect>
</g>
<g clip-path="url(#ID000007)" id="ID000082">
      <polyline points="716.805,261.000 724.028,261.000" stroke-dasharray="none" stroke-width="0.5pt" stroke="#000000" fill="none"></polyline>
<g>
</g>
</g>
<g clip-path="url(#ID000007)" id="ID000083">
<rect stroke-dasharray="none" stroke-width="0.5pt" stroke="#ea9b51" fill="#ea9b51" ry="0.000" rx="0.000" height="20.000" width="9.028" y="251.000" x="724.028"></rect>
</g>
<g clip-path="url(#ID000007)" id="ID000084">
      <polyline points="733.055,261.000 737.569,261.000" stroke-dasharray="none" stroke-width="0.5pt" stroke="#000000" fill="none"></polyline>
<g>
</g>
</g>
<g clip-path="url(#ID000007)" id="ID000085">
<rect stroke-dasharray="none" stroke-width="0.5pt" stroke="#899876" fill="#899876" ry="0.000" rx="0.000" height="20.000" width="4.514" y="251.000" x="737.569"></rect>
</g>
<g clip-path="url(#ID000007)" id="ID000086">
      <polyline points="742.083,261.000 743.317,261.000" stroke-dasharray="none" stroke-width="0.5pt" stroke="#000000" fill="none"></polyline>
<g>
</g>
</g>
<g clip-path="url(#ID000007)" id="ID000087">
      <polyline points="746.326,261.000 747.650,261.000" stroke-dasharray="none" stroke-width="0.5pt" stroke="#000000" fill="none"></polyline>
<g>
</g>
</g>
<g clip-path="url(#ID000007)" id="ID000088">
<rect stroke-dasharray="none" stroke-width="0.5pt" stroke="#ea9b51" fill="#ea9b51" ry="0.000" rx="0.000" height="20.000" width="4.213" y="251.000" x="747.650"></rect>
</g>
<g clip-path="url(#ID000007)" id="ID000089">
      <polyline points="751.863,261.000 756.076,261.000" stroke-dasharray="none" stroke-width="0.5pt" stroke="#000000" fill="none"></polyline>
<g>
</g>
</g>
<g clip-path="url(#ID000007)" id="ID000090">
      <polyline points="756.076,261.000 771.123,261.000" stroke-dasharray="none" stroke-width="0.5pt" stroke="#000000" fill="none"></polyline>
<g>
</g>
</g>
<g clip-path="url(#ID000007)" id="ID000091">
      <polyline points="771.123,261.000 803.861,261.000" stroke-dasharray="none" stroke-width="0.5pt" stroke="#000000" fill="none"></polyline>
<g>
</g>
</g>
<g clip-path="url(#ID000007)" id="ID000092">
      <polyline points="803.861,261.000 894.139,261.000" stroke-dasharray="none" stroke-width="0.5pt" stroke="#000000" fill="none"></polyline>
<g>
</g>
</g>
<g id="ID000093">
</g>
    </g>
  </g>
  <g id="ID000094">
  <clipPath id="ID000095">
    <rect height="295.000" width="780.000" y="286.000" x="69.000"></rect>
  </clipPath>
      <polygon points="69.000,581.000 849.000,581.000 849.000,286.000 69.000,286.000" stroke-dasharray="none" stroke-opacity="1.00" stroke-width="0.5pt" stroke="none" fill-opacity="1.00" fill="#ffffff"></polygon>
      <polygon points="69.000,286.000 849.000,286.000 849.000,286.000 69.000,286.000" stroke-dasharray="none" stroke-opacity="1.00" stroke-width="0.5pt" stroke="none" fill-opacity="1.00" fill="#ffffff"></polygon>
      <polygon points="69.000,581.000 69.000,581.000 69.000,286.000 69.000,286.000" stroke-dasharray="none" stroke-opacity="1.00" stroke-width="0.5pt" stroke="none" fill-opacity="1.00" fill="#ffffff"></polygon>
      <polyline points="219.464,581.000 219.464,286.000" stroke-dasharray="2.0,2.0" stroke-width="0.5pt" stroke="#000000" fill="none"></polyline>
      <polyline points="369.928,581.000 369.928,286.000" stroke-dasharray="2.0,2.0" stroke-width="0.5pt" stroke="#000000" fill="none"></polyline>
      <polyline points="520.392,581.000 520.392,286.000" stroke-dasharray="2.0,2.0" stroke-width="0.5pt" stroke="#000000" fill="none"></polyline>
      <polyline points="670.856,581.000 670.856,286.000" stroke-dasharray="2.0,2.0" stroke-width="0.5pt" stroke="#000000" fill="none"></polyline>
      <polyline points="821.321,581.000 821.321,286.000" stroke-dasharray="2.0,2.0" stroke-width="0.5pt" stroke="#000000" fill="none"></polyline>
      <polyline points="69.000,531.833 849.000,531.833" stroke-dasharray="2.0,2.0" stroke-width="0.5pt" stroke="#000000" fill="none"></polyline>
      <polyline points="69.000,482.667 849.000,482.667" stroke-dasharray="2.0,2.0" stroke-width="0.5pt" stroke="#000000" fill="none"></polyline>
      <polyline points="69.000,433.500 849.000,433.500" stroke-dasharray="2.0,2.0" stroke-width="0.5pt" stroke="#000000" fill="none"></polyline>
      <polyline points="69.000,384.333 849.000,384.333" stroke-dasharray="2.0,2.0" stroke-width="0.5pt" stroke="#000000" fill="none"></polyline>
      <polyline points="69.000,335.167 849.000,335.167" stroke-dasharray="2.0,2.0" stroke-width="0.5pt" stroke="#000000" fill="none"></polyline>
      <polyline points="219.464,286.000 219.464,286.000" stroke-dasharray="2.0,2.0" stroke-width="0.5pt" stroke="#000000" fill="none"></polyline>
      <polyline points="369.928,286.000 369.928,286.000" stroke-dasharray="2.0,2.0" stroke-width="0.5pt" stroke="#000000" fill="none"></polyline>
      <polyline points="520.392,286.000 520.392,286.000" stroke-dasharray="2.0,2.0" stroke-width="0.5pt" stroke="#000000" fill="none"></polyline>
      <polyline points="670.856,286.000 670.856,286.000" stroke-dasharray="2.0,2.0" stroke-width="0.5pt" stroke="#000000" fill="none"></polyline>
      <polyline points="821.321,286.000 821.321,286.000" stroke-dasharray="2.0,2.0" stroke-width="0.5pt" stroke="#000000" fill="none"></polyline>
      <polyline points="69.000,286.000 849.000,286.000" stroke-dasharray="2.0,2.0" stroke-width="0.5pt" stroke="#000000" fill="none"></polyline>
      <polyline points="69.000,531.833 69.000,531.833" stroke-dasharray="2.0,2.0" stroke-width="0.5pt" stroke="#000000" fill="none"></polyline>
      <polyline points="69.000,482.667 69.000,482.667" stroke-dasharray="2.0,2.0" stroke-width="0.5pt" stroke="#000000" fill="none"></polyline>
      <polyline points="69.000,433.500 69.000,433.500" stroke-dasharray="2.0,2.0" stroke-width="0.5pt" stroke="#000000" fill="none"></polyline>
      <polyline points="69.000,384.333 69.000,384.333" stroke-dasharray="2.0,2.0" stroke-width="0.5pt" stroke="#000000" fill="none"></polyline>
      <polyline points="69.000,335.167 69.000,335.167" stroke-dasharray="2.0,2.0" stroke-width="0.5pt" stroke="#000000" fill="none"></polyline>
      <polyline points="69.000,581.000 69.000,286.000" stroke-dasharray="2.0,2.0" stroke-width="0.5pt" stroke="#000000" fill="none"></polyline>
    <g>
<g clip-path="url(#ID000095)" id="ID000096">
      <polyline points="69.000,406.195 69.000,406.195 69.000,406.195 71.881,406.190 74.763,406.175 77.644,406.149 80.526,406.114 83.407,406.068 86.288,406.012 89.170,405.946 92.051,405.870 94.932,405.784 97.814,405.688 100.695,405.581 103.577,405.465 106.458,405.338 109.339,405.201 112.221,405.054 115.102,404.897 117.984,404.729 120.865,404.552 123.746,404.364 126.628,404.166 129.637,403.949 132.646,403.720 135.656,403.481 138.665,403.230 140.470,403.075 140.470,403.075 143.480,402.806 143.480,402.806 146.489,402.527 149.197,402.266 151.906,401.996 154.614,401.718 157.322,401.430 160.031,401.133 162.997,400.798 165.964,400.452 168.930,400.095 171.897,399.727 174.864,399.349 174.864,399.349 176.895,399.084 178.926,398.814 181.183,398.507 183.440,398.195 185.697,397.876 187.954,397.552 190.963,403.569 193.972,421.628 196.199,438.443 199.209,459.666 201.195,472.728 203.452,486.660 205.709,499.623 207.966,511.615 210.223,522.637 212.329,531.636 214.436,539.146 216.452,545.433 218.468,551.187 218.468,551.187 219.973,555.132 221.176,558.075 222.380,560.824 222.862,561.867 222.862,561.867 223.885,563.964 225.389,566.755 228.399,571.363 230.656,574.038 232.913,576.096 234.116,576.953 234.417,577.142 234.568,577.233 234.718,577.321 234.869,577.407 234.959,577.458 235.019,577.491 235.019,577.491 235.019,577.491 235.079,577.523 235.170,577.572 235.320,577.650 235.470,577.726 235.621,577.799 235.922,577.939 237.126,578.400 239.383,578.852 241.640,578.770 244.649,577.826 246.153,576.989 247.177,576.277 247.177,576.277 247.658,575.901 248.862,574.853 250.066,573.651 251.570,571.932 251.570,571.932 254.423,568.015 257.276,563.236 260.129,557.595 262.981,551.093 265.834,543.728 268.091,537.292 270.348,530.315 272.906,521.757 275.464,512.506 278.473,502.860 281.482,497.158 283.514,494.790 285.545,492.378 285.545,492.378 287.426,490.107 289.307,487.798 291.564,484.979 293.820,482.106 296.128,479.114 298.435,476.066 300.742,472.962 303.751,473.571 306.760,483.231 309.318,494.565 311.876,505.185 314.133,513.963 316.390,522.187 318.722,530.101 321.054,537.422 321.054,537.422 322.890,542.768 322.890,542.768 323.868,545.466 324.831,548.020 325.734,550.323 326.336,551.807 326.787,552.891 326.787,552.891 327.088,553.598 327.690,554.971 330.323,560.366 332.956,564.856 335.589,568.548 338.222,571.528 338.523,571.827 338.824,572.118 338.975,572.260 338.975,572.260 339.125,572.400 339.276,572.538 339.426,572.674 339.727,572.941 341.382,574.266 343.263,575.496 345.144,576.448 345.144,576.448 345.144,576.448 347.025,577.134 348.905,577.560 350.561,577.725 350.861,577.734 351.012,577.736 351.162,577.737 351.313,577.736 351.313,577.736 351.463,577.733 351.764,577.723 352.065,577.706 354.698,577.285 357.331,576.360 359.965,574.909 362.598,572.898 363.199,572.355 363.500,572.071 363.500,572.071 363.952,571.631 364.554,571.020 365.456,570.050 366.419,568.948 367.397,567.756 367.397,567.756 369.925,564.342 372.453,560.445 374.981,556.065 377.509,551.202 379.766,546.451 382.023,541.316 384.580,535.030 387.138,528.250 390.148,521.510 393.157,518.333 395.464,517.387 397.771,516.417 400.078,515.421 402.335,514.422 404.592,513.400 407.200,512.188 409.808,510.945 412.416,509.669 415.426,510.964 418.435,517.550 421.444,526.172 424.453,534.133 426.710,539.668 428.967,544.831 431.856,550.897 434.745,556.351 437.754,561.385 439.410,563.871 441.065,566.157 441.065,566.157 443.322,568.951 444.375,570.127 444.856,570.638 445.278,571.070 445.278,571.070 445.639,571.429 448.046,573.532 450.454,575.148 450.454,575.148 452.861,576.319 455.268,577.071 455.268,577.071 457.194,577.396 457.194,577.396 457.495,577.427 457.796,577.451 458.097,577.471 458.398,577.484 458.549,577.489 458.699,577.493 458.850,577.495 459.000,577.495 459.000,577.495 459.000,577.495 459.150,577.495 459.301,577.493 459.451,577.489 459.602,577.484 459.903,577.471 460.204,577.451 460.505,577.427 460.806,577.396 460.806,577.396 462.732,577.071 462.732,577.071 465.139,576.319 467.546,575.148 467.546,575.148 469.954,573.532 472.361,571.429 472.722,571.070 472.722,571.070 473.144,570.638 473.625,570.127 474.678,568.951 477.368,565.578 480.057,561.677 482.747,557.247 485.437,552.288 488.126,546.800 490.816,540.783 493.505,534.237 496.195,527.162 497.880,522.460 499.565,517.550 502.574,510.964 505.584,509.669 507.585,510.651 509.586,511.614 509.586,511.614 511.497,512.515 513.408,513.400 515.665,514.422 517.922,515.421 519.366,516.047 522.375,517.321 524.843,518.333 527.852,521.510 530.862,528.250 533.420,535.030 535.977,541.316 538.234,546.451 540.491,551.202 543.250,556.485 546.008,561.193 548.767,565.325 548.767,565.325 550.603,567.756 550.603,567.756 551.581,568.948 552.544,570.050 553.446,571.020 554.048,571.631 554.500,572.071 554.500,572.071 554.801,572.355 555.402,572.898 558.035,574.909 560.669,576.360 563.302,577.285 565.935,577.706 566.236,577.723 566.537,577.733 566.687,577.736 566.687,577.736 566.838,577.737 566.988,577.736 567.139,577.734 567.439,577.725 569.095,577.560 570.975,577.134 572.856,576.448 572.856,576.448 572.856,576.448 574.737,575.496 576.618,574.266 578.273,572.941 578.574,572.674 578.724,572.538 578.875,572.400 579.025,572.260 579.025,572.260 579.176,572.118 579.477,571.827 579.778,571.528 582.411,568.548 585.044,564.856 587.677,560.366 590.310,554.971 590.912,553.598 591.213,552.891 591.213,552.891 591.664,551.807 592.266,550.323 593.169,548.020 594.132,545.466 595.110,542.768 595.110,542.768 597.277,536.419 599.443,529.559 601.610,522.187 603.867,513.963 606.124,505.185 608.682,494.565 611.240,483.231 614.249,473.571 617.258,472.962 619.565,476.066 621.872,479.114 624.180,482.106 626.436,484.979 628.693,487.798 630.574,490.107 632.455,492.378 632.455,492.378 634.486,494.790 636.518,497.158 639.527,502.859 642.536,512.506 645.094,521.757 647.652,530.315 649.909,537.292 652.166,543.728 655.019,551.093 657.871,557.595 660.724,563.236 663.577,568.015 666.430,571.932 666.430,571.932 667.934,573.651 669.138,574.853 670.342,575.901 670.823,576.277 670.823,576.277 671.847,576.989 673.351,577.826 676.360,578.770 678.617,578.852 680.874,578.400 682.078,577.939 682.379,577.799 682.530,577.726 682.680,577.650 682.830,577.572 682.921,577.523 682.981,577.491 682.981,577.491 682.981,577.491 683.041,577.458 683.131,577.407 683.282,577.321 683.432,577.233 683.583,577.142 683.884,576.953 685.087,576.096 687.344,574.038 689.601,571.363 692.611,566.755 694.115,563.964 695.138,561.867 695.138,561.867 695.620,560.824 696.824,558.075 698.027,555.132 699.532,551.187 699.532,551.187 701.548,545.433 703.564,539.146 705.671,531.534 707.777,522.181 710.034,510.565 712.291,497.887 714.548,484.146 716.805,469.342 719.213,452.380 721.620,434.209 724.028,414.828 727.037,396.236 730.046,392.059 733.055,402.967 735.312,416.252 737.569,429.015 739.826,441.258 742.083,452.978 743.317,459.165 746.326,473.602 747.650,479.660 749.757,487.465 751.863,492.175 753.970,495.413 756.076,498.580 756.076,498.580 759.086,502.981 762.095,507.238 765.104,511.349 768.113,515.316 771.123,519.138 774.099,522.775 777.075,526.270 780.051,529.624 783.028,532.836 786.004,535.907 788.980,538.835 791.956,541.622 794.932,544.267 797.908,546.771 800.885,549.133 803.861,551.353 806.870,553.454 809.879,555.409 812.889,557.220 815.898,558.886 818.907,560.408 818.907,560.408 821.916,561.784 824.926,563.015 827.935,564.102 830.944,565.044 833.954,565.841 836.963,566.493 839.972,567.000 842.981,567.362 845.991,567.579 849.000,567.652" stroke-dasharray="none" stroke-width="2.0pt" stroke="#0000cc" fill="none"></polyline>
<g>
</g>
</g>
<g clip-path="url(#ID000095)" id="ID000097">
      <polyline points="69.000,546.048 69.000,546.048 69.000,546.048 71.881,546.023 74.763,545.947 77.644,545.820 80.526,545.642 83.407,545.414 86.288,545.135 89.170,544.805 92.051,544.425 94.932,543.994 97.814,543.512 100.695,542.979 103.577,542.396 106.458,541.762 109.339,541.077 112.221,540.341 115.102,539.555 117.984,538.718 120.865,537.830 123.746,536.892 126.628,535.903 129.637,534.815 132.646,533.673 135.656,532.475 138.665,531.222 140.470,530.443 140.470,530.443 143.480,529.102 143.480,529.102 146.489,527.704 149.197,526.400 151.906,525.050 154.614,523.656 157.322,522.217 160.031,520.733 162.997,519.056 165.964,517.325 168.930,515.541 171.897,513.703 174.864,511.811 174.864,511.811 176.895,510.484 178.926,509.133 181.183,507.601 183.440,506.039 185.697,504.445 187.954,502.820 190.963,497.738 193.972,486.239 196.199,474.673 199.209,457.968 201.195,446.267 203.452,432.316 205.709,417.671 207.966,402.331 210.223,386.296 212.329,372.326 214.436,361.277 216.452,352.123 218.468,342.779 218.468,342.779 219.973,335.682 221.176,329.930 222.380,324.145 222.862,321.852 222.862,321.852 223.885,317.238 225.389,311.249 228.399,302.268 230.656,298.286 232.913,296.744 234.116,296.931 234.417,297.088 234.568,297.183 234.718,297.288 234.869,297.405 234.959,297.480 235.019,297.532 235.019,297.532 235.019,297.532 235.079,297.586 235.170,297.671 235.320,297.819 235.470,297.979 235.621,298.150 235.922,298.524 237.126,300.452 239.383,305.903 241.640,313.662 244.649,327.360 246.153,335.529 247.177,341.546 247.177,341.546 247.658,344.476 248.862,351.814 250.066,359.065 251.570,367.965 251.570,367.965 254.423,384.335 257.276,400.041 260.129,415.085 262.981,429.467 265.834,443.185 268.091,453.568 270.348,463.537 272.906,474.333 275.464,484.597 278.473,493.469 281.482,497.129 283.514,497.957 285.545,498.770 285.545,498.770 287.426,499.510 289.307,500.237 291.564,501.093 293.820,501.932 296.128,502.770 298.435,503.589 300.742,504.389 303.751,502.059 306.760,492.534 309.318,480.621 311.876,467.940 314.133,456.114 316.390,443.691 318.722,430.226 321.054,416.124 321.054,416.124 322.890,404.575 322.890,404.575 323.868,398.261 324.831,391.935 325.734,385.910 326.336,381.851 326.787,378.802 326.787,378.802 327.088,376.780 327.690,372.799 330.323,356.529 332.956,342.393 335.589,330.727 338.222,321.806 338.523,320.971 338.824,320.175 338.975,319.792 338.975,319.792 339.125,319.418 339.276,319.054 339.426,318.700 339.727,318.022 341.382,315.009 343.263,313.085 345.144,312.778 345.144,312.778 345.144,312.778 347.025,314.092 348.905,317.012 350.561,320.882 350.861,321.713 351.012,322.144 351.162,322.584 351.313,323.033 351.313,323.033 351.463,323.492 351.764,324.437 352.065,325.421 354.698,335.594 357.331,348.397 359.965,363.526 362.598,380.624 363.199,384.769 363.500,386.869 363.500,386.869 363.952,390.033 364.554,394.238 365.456,400.471 366.419,407.007 367.397,413.521 367.397,413.521 369.925,429.777 372.453,445.194 374.981,459.773 377.509,473.514 379.766,485.074 382.023,495.966 384.580,507.502 387.138,518.180 390.148,527.844 393.157,533.462 395.464,536.376 397.771,539.173 400.078,541.854 402.335,544.363 404.592,546.760 407.200,549.391 409.808,551.873 412.416,554.205 415.426,555.711 418.435,555.122 421.444,553.417 424.453,551.586 426.710,550.129 428.967,548.601 431.856,546.541 434.745,544.365 437.754,541.973 439.410,540.604 441.065,539.196 441.065,539.196 443.322,537.214 444.375,536.266 444.856,535.828 445.278,535.443 445.278,535.443 445.639,535.116 448.046,533.195 450.454,531.791 450.454,531.791 452.861,530.933 455.268,530.639 455.268,530.639 457.194,530.638 457.194,530.638 457.495,530.639 457.796,530.640 458.097,530.641 458.398,530.641 458.549,530.641 458.699,530.641 458.850,530.642 459.000,530.642 459.000,530.642 459.000,530.642 459.150,530.642 459.301,530.641 459.451,530.641 459.602,530.641 459.903,530.641 460.204,530.640 460.505,530.639 460.806,530.638 460.806,530.638 462.732,530.639 462.732,530.639 465.139,530.933 467.546,531.791 467.546,531.791 469.954,533.195 472.361,535.116 472.722,535.443 472.722,535.443 473.144,535.828 473.625,536.266 474.678,537.214 477.368,539.568 480.057,541.819 482.747,543.970 485.437,546.019 488.126,547.967 490.816,549.814 493.505,551.560 496.195,553.204 497.880,554.183 499.565,555.122 502.574,555.711 505.584,554.205 507.585,552.429 509.586,550.565 509.586,550.565 511.497,548.703 513.408,546.760 515.665,544.363 517.922,541.854 519.366,540.189 522.375,536.574 524.843,533.462 527.852,527.844 530.862,518.181 533.420,507.502 535.977,495.966 538.234,485.074 540.491,473.514 543.250,458.477 546.008,442.442 548.767,425.409 548.767,425.409 550.603,413.522 550.603,413.522 551.581,407.007 552.544,400.471 553.446,394.238 554.048,390.033 554.500,386.870 554.500,386.870 554.801,384.770 555.402,380.625 558.035,363.527 560.669,348.397 563.302,335.594 565.935,325.422 566.236,324.438 566.537,323.492 566.687,323.033 566.687,323.033 566.838,322.584 566.988,322.144 567.139,321.714 567.439,320.882 569.095,317.013 570.975,314.093 572.856,312.778 572.856,312.778 572.856,312.778 574.737,313.085 576.618,315.009 578.273,318.022 578.574,318.701 578.724,319.055 578.875,319.419 579.025,319.792 579.025,319.792 579.176,320.176 579.477,320.971 579.778,321.806 582.411,330.727 585.044,342.394 587.677,356.529 590.310,372.799 590.912,376.780 591.213,378.802 591.213,378.802 591.664,381.852 592.266,385.911 593.169,391.935 594.132,398.261 595.110,404.575 595.110,404.575 597.277,418.164 599.443,431.203 601.610,443.691 603.867,456.114 606.124,467.940 608.682,480.621 611.240,492.534 614.249,502.059 617.258,504.389 619.565,503.589 621.872,502.770 624.180,501.932 626.436,501.094 628.693,500.237 630.574,499.510 632.455,498.770 632.455,498.770 634.486,497.957 636.518,497.129 639.527,493.470 642.536,484.597 645.094,474.334 647.652,463.537 649.909,453.569 652.166,443.185 655.019,429.467 657.871,415.086 660.724,400.042 663.577,384.335 666.430,367.966 666.430,367.966 667.934,359.065 669.138,351.814 670.342,344.477 670.823,341.546 670.823,341.546 671.847,335.530 673.351,327.360 676.360,313.663 678.617,305.903 680.874,300.453 682.078,298.524 682.379,298.150 682.530,297.980 682.680,297.820 682.830,297.671 682.921,297.587 682.981,297.533 682.981,297.533 682.981,297.533 683.041,297.481 683.131,297.406 683.282,297.289 683.432,297.183 683.583,297.088 683.884,296.932 685.087,296.744 687.344,298.286 689.601,302.268 692.611,311.249 694.115,317.239 695.138,321.852 695.138,321.852 695.620,324.145 696.824,329.931 698.027,335.682 699.532,342.779 699.532,342.779 701.548,352.123 703.564,361.277 705.671,372.787 707.777,388.053 710.034,405.784 712.291,422.654 714.548,438.664 716.805,453.814 719.213,469.026 721.620,483.258 724.028,496.512 727.037,508.653 730.046,514.292 733.055,514.356 735.312,512.349 737.569,510.296 739.826,508.197 742.083,506.052 743.317,504.860 746.326,501.896 747.650,500.565 749.757,499.664 751.863,501.228 753.970,503.975 756.076,506.662 756.076,506.662 759.086,510.397 762.095,514.008 765.104,517.497 768.113,520.862 771.123,524.105 774.099,527.191 777.075,530.157 780.051,533.002 783.028,535.728 786.004,538.333 788.980,540.818 791.956,543.182 794.932,545.427 797.908,547.551 800.885,549.555 803.861,551.439 806.870,553.221 809.879,554.881 812.889,556.417 815.898,557.831 818.907,559.122 818.907,559.122 821.916,560.289 824.926,561.334 827.935,562.256 830.944,563.055 833.954,563.731 836.963,564.284 839.972,564.715 842.981,565.022 845.991,565.206 849.000,565.268" stroke-dasharray="none" stroke-width="2.0pt" stroke="#ff0000" fill="none"></polyline>
<g>
</g>
</g>
<g id="ID000098">
  <g transform="translate(458.500,625.700)">
    <g transform="rotate(-0.0)">
      <text fill="#000000" font-size="16pt" text-anchor="middle" font-family="Helvetica" y="0.000" x="0.000">s [m]</text>
    </g>
  </g>
</g>
<g id="ID000099">
  <g transform="translate(32.500,434.500)">
    <g transform="rotate(-90.0)">
      <text fill="#000000" font-size="16pt" text-anchor="middle" font-family="Helvetica" y="0.000" x="0.000"><tspan>β</tspan><tspan> [m]</tspan></text>
    </g>
  </g>
</g>
<g id="ID000100">
</g>
<g id="ID000101">
</g>
<g id="ID000102">
</g>
    </g>
    <g>
      <polyline points="219.464,581.000 219.464,573.200" stroke-dasharray="none" stroke-width="0.5pt" stroke="#000000" fill="none"></polyline>
      <polyline points="369.928,581.000 369.928,573.200" stroke-dasharray="none" stroke-width="0.5pt" stroke="#000000" fill="none"></polyline>
      <polyline points="520.392,581.000 520.392,573.200" stroke-dasharray="none" stroke-width="0.5pt" stroke="#000000" fill="none"></polyline>
      <polyline points="670.856,581.000 670.856,573.200" stroke-dasharray="none" stroke-width="0.5pt" stroke="#000000" fill="none"></polyline>
      <polyline points="821.321,581.000 821.321,573.200" stroke-dasharray="none" stroke-width="0.5pt" stroke="#000000" fill="none"></polyline>
      <polyline points="69.000,581.000 849.000,581.000" stroke-dasharray="none" stroke-width="0.5pt" stroke="#000000" fill="none"></polyline>
      <polyline points="219.464,286.000 219.464,293.800" stroke-dasharray="none" stroke-width="0.5pt" stroke="#000000" fill="none"></polyline>
      <polyline points="369.928,286.000 369.928,293.800" stroke-dasharray="none" stroke-width="0.5pt" stroke="#000000" fill="none"></polyline>
      <polyline points="520.392,286.000 520.392,293.800" stroke-dasharray="none" stroke-width="0.5pt" stroke="#000000" fill="none"></polyline>
      <polyline points="670.856,286.000 670.856,293.800" stroke-dasharray="none" stroke-width="0.5pt" stroke="#000000" fill="none"></polyline>
      <polyline points="821.321,286.000 821.321,293.800" stroke-dasharray="none" stroke-width="0.5pt" stroke="#000000" fill="none"></polyline>
      <polyline points="69.000,286.000 849.000,286.000" stroke-dasharray="none" stroke-width="0.5pt" stroke="#000000" fill="none"></polyline>
  <g transform="translate(69.000,601.355)">
    <g transform="rotate(-0.0)">
      <text fill="#000000" font-size="16pt" text-anchor="middle" font-family="Helvetica" y="0.000" x="0.000">0</text>
    </g>
  </g>
  <g transform="translate(219.464,601.355)">
    <g transform="rotate(-0.0)">
      <text fill="#000000" font-size="16pt" text-anchor="middle" font-family="Helvetica" y="0.000" x="0.000">5</text>
    </g>
  </g>
  <g transform="translate(369.928,601.355)">
    <g transform="rotate(-0.0)">
      <text fill="#000000" font-size="16pt" text-anchor="middle" font-family="Helvetica" y="0.000" x="0.000">10</text>
    </g>
  </g>
  <g transform="translate(520.392,601.355)">
    <g transform="rotate(-0.0)">
      <text fill="#000000" font-size="16pt" text-anchor="middle" font-family="Helvetica" y="0.000" x="0.000">15</text>
    </g>
  </g>
  <g transform="translate(670.856,601.355)">
    <g transform="rotate(-0.0)">
      <text fill="#000000" font-size="16pt" text-anchor="middle" font-family="Helvetica" y="0.000" x="0.000">20</text>
    </g>
  </g>
  <g transform="translate(821.321,601.355)">
    <g transform="rotate(-0.0)">
      <text fill="#000000" font-size="16pt" text-anchor="middle" font-family="Helvetica" y="0.000" x="0.000">25</text>
    </g>
  </g>
      <polyline points="69.000,531.833 76.800,531.833" stroke-dasharray="none" stroke-width="0.5pt" stroke="#000000" fill="none"></polyline>
      <polyline points="69.000,482.667 76.800,482.667" stroke-dasharray="none" stroke-width="0.5pt" stroke="#000000" fill="none"></polyline>
      <polyline points="69.000,433.500 76.800,433.500" stroke-dasharray="none" stroke-width="0.5pt" stroke="#000000" fill="none"></polyline>
      <polyline points="69.000,384.333 76.800,384.333" stroke-dasharray="none" stroke-width="0.5pt" stroke="#000000" fill="none"></polyline>
      <polyline points="69.000,335.167 76.800,335.167" stroke-dasharray="none" stroke-width="0.5pt" stroke="#000000" fill="none"></polyline>
      <polyline points="69.000,581.000 69.000,286.000" stroke-dasharray="none" stroke-width="0.5pt" stroke="#000000" fill="none"></polyline>
      <polyline points="849.000,531.833 841.200,531.833" stroke-dasharray="none" stroke-width="0.5pt" stroke="#000000" fill="none"></polyline>
      <polyline points="849.000,482.667 841.200,482.667" stroke-dasharray="none" stroke-width="0.5pt" stroke="#000000" fill="none"></polyline>
      <polyline points="849.000,433.500 841.200,433.500" stroke-dasharray="none" stroke-width="0.5pt" stroke="#000000" fill="none"></polyline>
      <polyline points="849.000,384.333 841.200,384.333" stroke-dasharray="none" stroke-width="0.5pt" stroke="#000000" fill="none"></polyline>
      <polyline points="849.000,335.167 841.200,335.167" stroke-dasharray="none" stroke-width="0.5pt" stroke="#000000" fill="none"></polyline>
      <polyline points="849.000,581.000 849.000,286.000" stroke-dasharray="none" stroke-width="0.5pt" stroke="#000000" fill="none"></polyline>
  <g transform="translate(65.100,588.200)">
    <g transform="rotate(-0.0)">
      <text fill="#000000" font-size="16pt" text-anchor="end" font-family="Helvetica" y="0.000" x="0.000">0</text>
    </g>
  </g>
  <g transform="translate(65.100,539.033)">
    <g transform="rotate(-0.0)">
      <text fill="#000000" font-size="16pt" text-anchor="end" font-family="Helvetica" y="0.000" x="0.000">5</text>
    </g>
  </g>
  <g transform="translate(65.100,489.867)">
    <g transform="rotate(-0.0)">
      <text fill="#000000" font-size="16pt" text-anchor="end" font-family="Helvetica" y="0.000" x="0.000">10</text>
    </g>
  </g>
  <g transform="translate(65.100,440.700)">
    <g transform="rotate(-0.0)">
      <text fill="#000000" font-size="16pt" text-anchor="end" font-family="Helvetica" y="0.000" x="0.000">15</text>
    </g>
  </g>
  <g transform="translate(65.100,391.533)">
    <g transform="rotate(-0.0)">
      <text fill="#000000" font-size="16pt" text-anchor="end" font-family="Helvetica" y="0.000" x="0.000">20</text>
    </g>
  </g>
  <g transform="translate(65.100,342.367)">
    <g transform="rotate(-0.0)">
      <text fill="#000000" font-size="16pt" text-anchor="end" font-family="Helvetica" y="0.000" x="0.000">25</text>
    </g>
  </g>
  <g transform="translate(65.100,293.200)">
    <g transform="rotate(-0.0)">
      <text fill="#000000" font-size="16pt" text-anchor="end" font-family="Helvetica" y="0.000" x="0.000">30</text>
    </g>
  </g>
      <polyline points="69.000,581.000 69.000,578.050" stroke-dasharray="none" stroke-width="0.5pt" stroke="#000000" fill="none"></polyline>
      <polyline points="69.000,581.000 69.000,581.000" stroke-dasharray="none" stroke-width="0.5pt" stroke="#000000" fill="none"></polyline>
    </g>
  </g>
  <g id="ID000103">
  <clipPath id="ID000104">
    <rect height="77.625" width="73.500" y="292.750" x="770.750"></rect>
  </clipPath>
    <g>
<g id="ID000105">
  <g transform="translate(820.589,321.625)">
    <g transform="rotate(-0.0)">
      <text fill="#000000" font-size="16pt" text-anchor="start" font-family="Helvetica" y="0.000" x="0.000"><tspan>β</tspan><tspan></tspan><tspan font-size="11pt" dy="6.4pt">x</tspan><tspan font-size="16pt" dy="-6.4pt"></tspan></text>
    </g>
  </g>
</g>
<g clip-path="url(#ID000104)" id="ID000106">
      <polyline points="778.250,313.250 815.750,313.250" stroke-dasharray="none" stroke-width="2.0pt" stroke="#0000cc" fill="none"></polyline>
<g>
</g>
</g>
<g clip-path="url(#ID000104)" id="ID000107">
<g>
</g>
</g>
<g id="ID000108">
  <g transform="translate(820.589,357.917)">
    <g transform="rotate(-0.0)">
      <text fill="#000000" font-size="16pt" text-anchor="start" font-family="Helvetica" y="0.000" x="0.000"><tspan>β</tspan><tspan></tspan><tspan font-size="11pt" dy="6.4pt">y</tspan><tspan font-size="16pt" dy="-6.4pt"></tspan></text>
    </g>
  </g>
</g>
<g clip-path="url(#ID000104)" id="ID000109">
      <polyline points="778.250,349.875 815.750,349.875" stroke-dasharray="none" stroke-width="2.0pt" stroke="#ff0000" fill="none"></polyline>
<g>
</g>
</g>
<g clip-path="url(#ID000104)" id="ID000110">
<g>
</g>
</g>
    </g>
  </g>
  </g>
</svg>
