<svg xmlns:xlink="http://www.w3.org/1999/xlink" xmlns="http://www.w3.org/2000/svg" version="1.1" viewBox="0 0 1296.000 553.000" height="100%" width="100%" preserveAspectRatio="xMinYMin meet">
  <desc>Matlab Figure Converted by PLOT2SVG written by Juerg Schwizer</desc>
  <g id="topgroup">
  <rect stroke="none" fill="#ffffff" height="553.000" width="1296.000" y="0" x="0"></rect>
  <g id="ID000000">
  <clipPath id="ID000001">
    <rect height="442.400" width="1088.640" y="16.590" x="129.600"></rect>
  </clipPath>
      <polygon points="129.600,458.990 1218.240,458.990 1218.240,16.590 129.600,16.590" stroke-dasharray="none" stroke-opacity="1.00" stroke-width="0.5pt" stroke="none" fill-opacity="1.00" fill="#ffffff"></polygon>
      <polygon points="129.600,16.590 1218.240,16.590 1218.240,16.590 129.600,16.590" stroke-dasharray="none" stroke-opacity="1.00" stroke-width="0.5pt" stroke="none" fill-opacity="1.00" fill="#ffffff"></polygon>
      <polygon points="129.600,458.990 129.600,458.990 129.600,16.590 129.600,16.590" stroke-dasharray="none" stroke-opacity="1.00" stroke-width="0.5pt" stroke="none" fill-opacity="1.00" fill="#ffffff"></polygon>
      <polyline points="338.954,458.990 338.954,16.590" stroke-dasharray="2.0,2.0" stroke-width="0.5pt" stroke="#000000" fill="none"></polyline>
      <polyline points="548.308,458.990 548.308,16.590" stroke-dasharray="2.0,2.0" stroke-width="0.5pt" stroke="#000000" fill="none"></polyline>
      <polyline points="757.662,458.990 757.662,16.590" stroke-dasharray="2.0,2.0" stroke-width="0.5pt" stroke="#000000" fill="none"></polyline>
      <polyline points="967.015,458.990 967.015,16.590" stroke-dasharray="2.0,2.0" stroke-width="0.5pt" stroke="#000000" fill="none"></polyline>
      <polyline points="1176.369,458.990 1176.369,16.590" stroke-dasharray="2.0,2.0" stroke-width="0.5pt" stroke="#000000" fill="none"></polyline>
      <polyline points="129.600,446.469 1218.240,446.469" stroke-dasharray="2.0,2.0" stroke-width="0.5pt" stroke="#000000" fill="none"></polyline>
      <polyline points="129.600,342.130 1218.240,342.130" stroke-dasharray="2.0,2.0" stroke-width="0.5pt" stroke="#000000" fill="none"></polyline>
      <polyline points="129.600,237.790 1218.240,237.790" stroke-dasharray="2.0,2.0" stroke-width="0.5pt" stroke="#000000" fill="none"></polyline>
      <polyline points="129.600,133.450 1218.240,133.450" stroke-dasharray="2.0,2.0" stroke-width="0.5pt" stroke="#000000" fill="none"></polyline>
      <polyline points="129.600,29.111 1218.240,29.111" stroke-dasharray="2.0,2.0" stroke-width="0.5pt" stroke="#000000" fill="none"></polyline>
      <polyline points="338.954,16.590 338.954,16.590" stroke-dasharray="2.0,2.0" stroke-width="0.5pt" stroke="#000000" fill="none"></polyline>
      <polyline points="548.308,16.590 548.308,16.590" stroke-dasharray="2.0,2.0" stroke-width="0.5pt" stroke="#000000" fill="none"></polyline>
      <polyline points="757.662,16.590 757.662,16.590" stroke-dasharray="2.0,2.0" stroke-width="0.5pt" stroke="#000000" fill="none"></polyline>
      <polyline points="967.015,16.590 967.015,16.590" stroke-dasharray="2.0,2.0" stroke-width="0.5pt" stroke="#000000" fill="none"></polyline>
      <polyline points="1176.369,16.590 1176.369,16.590" stroke-dasharray="2.0,2.0" stroke-width="0.5pt" stroke="#000000" fill="none"></polyline>
      <polyline points="129.600,446.469 129.600,446.469" stroke-dasharray="2.0,2.0" stroke-width="0.5pt" stroke="#000000" fill="none"></polyline>
      <polyline points="129.600,342.130 129.600,342.130" stroke-dasharray="2.0,2.0" stroke-width="0.5pt" stroke="#000000" fill="none"></polyline>
      <polyline points="129.600,237.790 129.600,237.790" stroke-dasharray="2.0,2.0" stroke-width="0.5pt" stroke="#000000" fill="none"></polyline>
      <polyline points="129.600,133.450 129.600,133.450" stroke-dasharray="2.0,2.0" stroke-width="0.5pt" stroke="#000000" fill="none"></polyline>
      <polyline points="129.600,29.111 129.600,29.111" stroke-dasharray="2.0,2.0" stroke-width="0.5pt" stroke="#000000" fill="none"></polyline>
    <g>
<g id="ID000002">
  <g transform="translate(673.420,530.130)">
    <g transform="rotate(-0.0)">
      <text fill="#000000" font-size="28pt" text-anchor="middle" font-family="Helvetica" y="0.000" x="0.000">pos [m]</text>
    </g>
  </g>
</g>
<g id="ID000003">
  <g transform="translate(50.057,238.290)">
    <g transform="rotate(-90.0)">
      <text fill="#000000" font-size="28pt" text-anchor="middle" font-family="Helvetica" y="0.000" x="0.000"><tspan>δ</tspan><tspan> [%]</tspan></text>
    </g>
  </g>
</g>
<g clip-path="url(#ID000001)" id="ID000004">
      <polyline points="129.600,39.545 236.431,39.545 245.098,91.715 253.766,91.715 308.826,102.148 317.416,91.715 326.007,133.450 334.597,102.148 387.982,91.715 392.431,70.847 396.880,39.545 398.199,39.545 400.920,47.892 403.642,49.979 404.961,62.499 409.410,70.847 413.859,91.715 467.244,91.715 475.834,70.847 484.425,70.847 493.015,79.194 548.075,91.715 556.743,83.367 565.410,39.545 779.072,39.545 787.739,70.847 796.407,91.715 851.467,91.715 860.057,70.847 868.648,79.194 877.238,91.715 930.623,91.715 935.072,70.847 939.521,70.847 940.840,70.847 943.561,49.979 946.283,39.545 947.602,39.545 952.051,70.847 956.500,91.715 1009.885,104.235 1018.475,112.582 1027.066,91.715 1035.656,91.715 1090.716,91.715 1099.384,91.715 1108.051,41.632 1214.882,41.632" stroke-dasharray="none" stroke-width="0.5pt" stroke="#9999ff" fill="none"></polyline>
<g>
</g>
</g>
<g clip-path="url(#ID000001)" id="ID000005">
      <polyline points="129.600,41.632 236.431,37.458 245.098,91.715 253.766,91.715 308.826,102.148 317.416,83.367 326.007,112.582 334.597,91.715 387.982,91.715 392.431,58.326 396.880,47.892 398.199,47.892 400.920,49.979 403.642,70.847 404.961,70.847 409.410,70.847 413.859,70.847 467.244,70.847 475.834,70.847 484.425,70.847 493.015,91.715 548.075,91.715 556.743,70.847 565.410,37.458 779.072,41.632 787.739,70.847 796.407,83.367 851.467,91.715 860.057,70.847 868.648,70.847 877.238,70.847 930.623,70.847 935.072,70.847 939.521,70.847 940.840,49.979 943.561,49.979 946.283,49.979 947.602,49.979 952.051,70.847 956.500,102.148 1009.885,102.148 1018.475,112.582 1027.066,91.715 1035.656,91.715 1090.716,91.715 1099.384,91.715 1108.051,37.458 1214.882,39.545" stroke-dasharray="none" stroke-width="0.5pt" stroke="#9999ff" fill="none"></polyline>
<g>
</g>
</g>
<g clip-path="url(#ID000001)" id="ID000006">
      <polyline points="129.600,39.545 236.431,39.545 245.098,91.715 253.766,91.715 308.826,91.715 317.416,91.715 326.007,112.582 334.597,102.148 387.982,91.715 392.431,70.847 396.880,49.979 398.199,49.979 400.920,49.979 403.642,70.847 404.961,70.847 409.410,70.847 413.859,91.715 467.244,79.194 475.834,70.847 484.425,70.847 493.015,91.715 548.075,91.715 556.743,70.847 565.410,39.545 779.072,49.979 787.739,70.847 796.407,91.715 851.467,79.194 860.057,70.847 868.648,70.847 877.238,79.194 930.623,91.715 935.072,70.847 939.521,49.979 940.840,49.979 943.561,49.979 946.283,45.805 947.602,45.805 952.051,70.847 956.500,102.148 1009.885,102.148 1018.475,114.669 1027.066,91.715 1035.656,91.715 1090.716,91.715 1099.384,91.715 1108.051,41.632 1214.882,39.545" stroke-dasharray="none" stroke-width="0.5pt" stroke="#9999ff" fill="none"></polyline>
<g>
</g>
</g>
<g clip-path="url(#ID000001)" id="ID000007">
      <polyline points="129.600,49.979 236.431,39.545 245.098,91.715 253.766,91.715 308.826,91.715 317.416,91.715 326.007,112.582 334.597,91.715 387.982,91.715 392.431,70.847 396.880,49.979 398.199,49.979 400.920,49.979 403.642,70.847 404.961,70.847 409.410,70.847 413.859,91.715 467.244,91.715 475.834,91.715 484.425,70.847 493.015,91.715 548.075,91.715 556.743,91.715 565.410,37.458 779.072,39.545 787.739,70.847 796.407,91.715 851.467,91.715 860.057,91.715 868.648,91.715 877.238,91.715 930.623,70.847 935.072,49.979 939.521,70.847 940.840,70.847 943.561,49.979 946.283,49.979 947.602,49.979 952.051,70.847 956.500,102.148 1009.885,102.148 1018.475,112.582 1027.066,91.715 1035.656,91.715 1090.716,91.715 1099.384,91.715 1108.051,49.979 1214.882,49.979" stroke-dasharray="none" stroke-width="0.5pt" stroke="#9999ff" fill="none"></polyline>
<g>
</g>
</g>
<g clip-path="url(#ID000001)" id="ID000008">
      <polyline points="129.600,39.545 236.431,41.632 245.098,91.715 253.766,91.715 308.826,91.715 317.416,91.715 326.007,112.582 334.597,102.148 387.982,112.582 392.431,70.847 396.880,49.979 398.199,49.979 400.920,49.979 403.642,70.847 404.961,70.847 409.410,70.847 413.859,70.847 467.244,70.847 475.834,70.847 484.425,91.715 493.015,102.148 548.075,91.715 556.743,91.715 565.410,49.979 779.072,49.979 787.739,70.847 796.407,91.715 851.467,91.715 860.057,91.715 868.648,70.847 877.238,70.847 930.623,70.847 935.072,70.847 939.521,70.847 940.840,70.847 943.561,52.065 946.283,49.979 947.602,49.979 952.051,70.847 956.500,102.148 1009.885,102.148 1018.475,133.450 1027.066,91.715 1035.656,91.715 1090.716,91.715 1099.384,91.715 1108.051,39.545 1214.882,39.545" stroke-dasharray="none" stroke-width="0.5pt" stroke="#9999ff" fill="none"></polyline>
<g>
</g>
</g>
<g clip-path="url(#ID000001)" id="ID000009">
      <polyline points="129.600,37.458 236.431,39.545 245.098,91.715 253.766,102.148 308.826,102.148 317.416,91.715 326.007,112.582 334.597,91.715 387.982,91.715 392.431,49.979 396.880,39.545 398.199,39.545 400.920,41.632 403.642,49.979 404.961,49.979 409.410,70.847 413.859,70.847 467.244,70.847 475.834,70.847 484.425,91.715 493.015,91.715 548.075,91.715 556.743,70.847 565.410,37.458 779.072,39.545 787.739,70.847 796.407,91.715 851.467,91.715 860.057,70.847 868.648,70.847 877.238,83.367 930.623,70.847 935.072,70.847 939.521,49.979 940.840,49.979 943.561,49.979 946.283,49.979 947.602,39.545 952.051,70.847 956.500,102.148 1009.885,102.148 1018.475,112.582 1027.066,91.715 1035.656,102.148 1090.716,102.148 1099.384,91.715 1108.051,37.458 1214.882,39.545" stroke-dasharray="none" stroke-width="0.5pt" stroke="#9999ff" fill="none"></polyline>
<g>
</g>
</g>
<g clip-path="url(#ID000001)" id="ID000010">
      <polyline points="129.600,39.545 236.431,49.979 245.098,91.715 253.766,91.715 308.826,102.148 317.416,91.715 326.007,112.582 334.597,91.715 387.982,91.715 392.431,70.847 396.880,49.979 398.199,49.979 400.920,47.892 403.642,70.847 404.961,70.847 409.410,70.847 413.859,70.847 467.244,79.194 475.834,91.715 484.425,70.847 493.015,91.715 548.075,91.715 556.743,70.847 565.410,49.979 779.072,49.979 787.739,70.847 796.407,91.715 851.467,91.715 860.057,79.194 868.648,70.847 877.238,91.715 930.623,91.715 935.072,70.847 939.521,49.979 940.840,49.979 943.561,49.979 946.283,47.892 947.602,47.892 952.051,70.847 956.500,102.148 1009.885,102.148 1018.475,112.582 1027.066,91.715 1035.656,91.715 1090.716,91.715 1099.384,91.715 1108.051,39.545 1214.882,41.632" stroke-dasharray="none" stroke-width="0.5pt" stroke="#9999ff" fill="none"></polyline>
<g>
</g>
</g>
<g clip-path="url(#ID000001)" id="ID000011">
      <polyline points="129.600,39.545 236.431,39.545 245.098,91.715 253.766,91.715 308.826,102.148 317.416,91.715 326.007,120.930 334.597,91.715 387.982,100.062 392.431,49.979 396.880,49.979 398.199,49.979 400.920,49.979 403.642,49.979 404.961,49.979 409.410,70.847 413.859,91.715 467.244,91.715 475.834,70.847 484.425,91.715 493.015,91.715 548.075,91.715 556.743,91.715 565.410,39.545 779.072,39.545 787.739,70.847 796.407,91.715 851.467,91.715 860.057,91.715 868.648,91.715 877.238,91.715 930.623,91.715 935.072,70.847 939.521,49.979 940.840,49.979 943.561,49.979 946.283,49.979 947.602,49.979 952.051,70.847 956.500,102.148 1009.885,102.148 1018.475,112.582 1027.066,91.715 1035.656,91.715 1090.716,91.715 1099.384,91.715 1108.051,39.545 1214.882,39.545" stroke-dasharray="none" stroke-width="0.5pt" stroke="#9999ff" fill="none"></polyline>
<g>
</g>
</g>
<g clip-path="url(#ID000001)" id="ID000012">
      <polyline points="129.600,29.111 236.431,37.458 245.098,91.715 253.766,91.715 308.826,91.715 317.416,91.715 326.007,112.582 334.597,102.148 387.982,102.148 392.431,49.979 396.880,39.545 398.199,39.545 400.920,47.892 403.642,49.979 404.961,49.979 409.410,70.847 413.859,70.847 467.244,70.847 475.834,70.847 484.425,70.847 493.015,91.715 548.075,91.715 556.743,70.847 565.410,39.545 779.072,29.111 787.739,62.499 796.407,91.715 851.467,91.715 860.057,70.847 868.648,70.847 877.238,91.715 930.623,70.847 935.072,70.847 939.521,70.847 940.840,70.847 943.561,49.979 946.283,39.545 947.602,39.545 952.051,58.326 956.500,102.148 1009.885,102.148 1018.475,112.582 1027.066,91.715 1035.656,91.715 1090.716,91.715 1099.384,91.715 1108.051,41.632 1214.882,29.111" stroke-dasharray="none" stroke-width="0.5pt" stroke="#9999ff" fill="none"></polyline>
<g>
</g>
</g>
<g clip-path="url(#ID000001)" id="ID000013">
      <polyline points="129.600,39.545 236.431,39.545 245.098,91.715 253.766,91.715 308.826,102.148 317.416,91.715 326.007,133.450 334.597,102.148 387.982,91.715 392.431,70.847 396.880,49.979 398.199,49.979 400.920,39.545 403.642,70.847 404.961,70.847 409.410,70.847 413.859,70.847 467.244,70.847 475.834,70.847 484.425,70.847 493.015,91.715 548.075,83.367 556.743,70.847 565.410,29.111 779.072,39.545 787.739,70.847 796.407,91.715 851.467,91.715 860.057,70.847 868.648,70.847 877.238,70.847 930.623,70.847 935.072,70.847 939.521,70.847 940.840,70.847 943.561,47.892 946.283,49.979 947.602,49.979 952.051,70.847 956.500,91.715 1009.885,91.715 1018.475,112.582 1027.066,91.715 1035.656,104.235 1090.716,91.715 1099.384,91.715 1108.051,39.545 1214.882,39.545" stroke-dasharray="none" stroke-width="0.5pt" stroke="#9999ff" fill="none"></polyline>
<g>
</g>
</g>
<g clip-path="url(#ID000001)" id="ID000014">
      <polyline points="129.600,39.545 236.431,39.545 245.098,102.148 253.766,91.715 308.826,91.715 317.416,91.715 326.007,114.669 334.597,102.148 387.982,91.715 392.431,70.847 396.880,49.979 398.199,49.979 400.920,70.847 403.642,70.847 404.961,70.847 409.410,70.847 413.859,83.367 467.244,91.715 475.834,70.847 484.425,91.715 493.015,91.715 548.075,91.715 556.743,70.847 565.410,29.111 779.072,39.545 787.739,79.194 796.407,91.715 851.467,91.715 860.057,83.367 868.648,79.194 877.238,91.715 930.623,91.715 935.072,70.847 939.521,70.847 940.840,70.847 943.561,70.847 946.283,49.979 947.602,49.979 952.051,70.847 956.500,102.148 1009.885,102.148 1018.475,112.582 1027.066,91.715 1035.656,91.715 1090.716,102.148 1099.384,91.715 1108.051,37.458 1214.882,49.979" stroke-dasharray="none" stroke-width="0.5pt" stroke="#9999ff" fill="none"></polyline>
<g>
</g>
</g>
<g clip-path="url(#ID000001)" id="ID000015">
      <polyline points="129.600,29.111 236.431,29.111 245.098,102.148 253.766,91.715 308.826,91.715 317.416,91.715 326.007,112.582 334.597,91.715 387.982,102.148 392.431,49.979 396.880,39.545 398.199,39.545 400.920,29.111 403.642,49.979 404.961,52.065 409.410,49.979 413.859,70.847 467.244,70.847 475.834,70.847 484.425,70.847 493.015,91.715 548.075,70.847 556.743,70.847 565.410,29.111 779.072,39.545 787.739,70.847 796.407,91.715 851.467,91.715 860.057,70.847 868.648,70.847 877.238,70.847 930.623,70.847 935.072,70.847 939.521,49.979 940.840,49.979 943.561,39.545 946.283,29.111 947.602,29.111 952.051,70.847 956.500,102.148 1009.885,100.062 1018.475,112.582 1027.066,87.541 1035.656,91.715 1090.716,91.715 1099.384,91.715 1108.051,39.545 1214.882,39.545" stroke-dasharray="none" stroke-width="0.5pt" stroke="#9999ff" fill="none"></polyline>
<g>
</g>
</g>
<g clip-path="url(#ID000001)" id="ID000016">
      <polyline points="129.600,49.979 236.431,49.979 245.098,102.148 253.766,91.715 308.826,91.715 317.416,91.715 326.007,112.582 334.597,91.715 387.982,102.148 392.431,70.847 396.880,49.979 398.199,49.979 400.920,49.979 403.642,70.847 404.961,70.847 409.410,70.847 413.859,70.847 467.244,91.715 475.834,70.847 484.425,70.847 493.015,91.715 548.075,91.715 556.743,70.847 565.410,49.979 779.072,49.979 787.739,91.715 796.407,91.715 851.467,91.715 860.057,91.715 868.648,70.847 877.238,70.847 930.623,91.715 935.072,70.847 939.521,70.847 940.840,70.847 943.561,49.979 946.283,47.892 947.602,47.892 952.051,70.847 956.500,91.715 1009.885,91.715 1018.475,112.582 1027.066,91.715 1035.656,91.715 1090.716,91.715 1099.384,91.715 1108.051,49.979 1214.882,39.545" stroke-dasharray="none" stroke-width="0.5pt" stroke="#9999ff" fill="none"></polyline>
<g>
</g>
</g>
<g clip-path="url(#ID000001)" id="ID000017">
      <polyline points="129.600,29.111 236.431,39.545 245.098,91.715 253.766,91.715 308.826,102.148 317.416,91.715 326.007,112.582 334.597,91.715 387.982,102.148 392.431,70.847 396.880,49.979 398.199,49.979 400.920,49.979 403.642,70.847 404.961,49.979 409.410,70.847 413.859,91.715 467.244,91.715 475.834,83.367 484.425,70.847 493.015,91.715 548.075,91.715 556.743,70.847 565.410,39.545 779.072,39.545 787.739,70.847 796.407,91.715 851.467,79.194 860.057,70.847 868.648,70.847 877.238,91.715 930.623,91.715 935.072,70.847 939.521,70.847 940.840,70.847 943.561,49.979 946.283,45.805 947.602,45.805 952.051,70.847 956.500,102.148 1009.885,91.715 1018.475,112.582 1027.066,91.715 1035.656,91.715 1090.716,104.235 1099.384,91.715 1108.051,39.545 1214.882,39.545" stroke-dasharray="none" stroke-width="0.5pt" stroke="#9999ff" fill="none"></polyline>
<g>
</g>
</g>
<g clip-path="url(#ID000001)" id="ID000018">
      <polyline points="129.600,39.545 236.431,41.632 245.098,91.715 253.766,91.715 308.826,91.715 317.416,91.715 326.007,112.582 334.597,91.715 387.982,102.148 392.431,49.979 396.880,49.979 398.199,49.979 400.920,52.065 403.642,70.847 404.961,70.847 409.410,70.847 413.859,91.715 467.244,70.847 475.834,79.194 484.425,70.847 493.015,91.715 548.075,70.847 556.743,70.847 565.410,49.979 779.072,49.979 787.739,70.847 796.407,91.715 851.467,91.715 860.057,91.715 868.648,91.715 877.238,91.715 930.623,91.715 935.072,70.847 939.521,70.847 940.840,70.847 943.561,49.979 946.283,45.805 947.602,45.805 952.051,70.847 956.500,91.715 1009.885,102.148 1018.475,112.582 1027.066,91.715 1035.656,104.235 1090.716,91.715 1099.384,91.715 1108.051,39.545 1214.882,39.545" stroke-dasharray="none" stroke-width="0.5pt" stroke="#9999ff" fill="none"></polyline>
<g>
</g>
</g>
<g clip-path="url(#ID000001)" id="ID000019">
      <polyline points="129.600,39.545 236.431,49.979 245.098,91.715 253.766,91.715 308.826,91.715 317.416,91.715 326.007,112.582 334.597,91.715 387.982,102.148 392.431,70.847 396.880,49.979 398.199,49.979 400.920,49.979 403.642,49.979 404.961,49.979 409.410,70.847 413.859,70.847 467.244,91.715 475.834,70.847 484.425,70.847 493.015,91.715 548.075,70.847 556.743,70.847 565.410,39.545 779.072,49.979 787.739,70.847 796.407,91.715 851.467,91.715 860.057,70.847 868.648,70.847 877.238,70.847 930.623,70.847 935.072,70.847 939.521,52.065 940.840,52.065 943.561,49.979 946.283,49.979 947.602,49.979 952.051,70.847 956.500,91.715 1009.885,102.148 1018.475,118.843 1027.066,91.715 1035.656,91.715 1090.716,91.715 1099.384,91.715 1108.051,39.545 1214.882,29.111" stroke-dasharray="none" stroke-width="0.5pt" stroke="#9999ff" fill="none"></polyline>
<g>
</g>
</g>
<g clip-path="url(#ID000001)" id="ID000020">
      <polyline points="129.600,29.111 236.431,29.111 245.098,91.715 253.766,102.148 308.826,100.062 317.416,91.715 326.007,112.582 334.597,91.715 387.982,102.148 392.431,70.847 396.880,39.545 398.199,39.545 400.920,39.545 403.642,49.979 404.961,49.979 409.410,70.847 413.859,91.715 467.244,91.715 475.834,70.847 484.425,70.847 493.015,91.715 548.075,70.847 556.743,70.847 565.410,29.111 779.072,37.458 787.739,70.847 796.407,91.715 851.467,91.715 860.057,70.847 868.648,70.847 877.238,79.194 930.623,91.715 935.072,58.326 939.521,47.892 940.840,47.892 943.561,49.979 946.283,39.545 947.602,39.545 952.051,70.847 956.500,100.062 1009.885,102.148 1018.475,133.450 1027.066,91.715 1035.656,91.715 1090.716,102.148 1099.384,102.148 1108.051,29.111 1214.882,29.111" stroke-dasharray="none" stroke-width="0.5pt" stroke="#9999ff" fill="none"></polyline>
<g>
</g>
</g>
<g clip-path="url(#ID000001)" id="ID000021">
      <polyline points="129.600,39.545 236.431,39.545 245.098,91.715 253.766,91.715 308.826,91.715 317.416,91.715 326.007,112.582 334.597,102.148 387.982,91.715 392.431,70.847 396.880,49.979 398.199,47.892 400.920,49.979 403.642,70.847 404.961,70.847 409.410,70.847 413.859,79.194 467.244,70.847 475.834,91.715 484.425,70.847 493.015,91.715 548.075,91.715 556.743,70.847 565.410,41.632 779.072,39.545 787.739,70.847 796.407,91.715 851.467,91.715 860.057,70.847 868.648,70.847 877.238,70.847 930.623,70.847 935.072,70.847 939.521,70.847 940.840,70.847 943.561,49.979 946.283,45.805 947.602,49.979 952.051,70.847 956.500,91.715 1009.885,102.148 1018.475,112.582 1027.066,91.715 1035.656,91.715 1090.716,91.715 1099.384,91.715 1108.051,39.545 1214.882,39.545" stroke-dasharray="none" stroke-width="0.5pt" stroke="#9999ff" fill="none"></polyline>
<g>
</g>
</g>
<g clip-path="url(#ID000001)" id="ID000022">
      <polyline points="129.600,39.545 236.431,39.545 245.098,102.148 253.766,91.715 308.826,91.715 317.416,83.367 326.007,112.582 334.597,100.062 387.982,102.148 392.431,70.847 396.880,47.892 398.199,47.892 400.920,49.979 403.642,70.847 404.961,70.847 409.410,70.847 413.859,70.847 467.244,91.715 475.834,91.715 484.425,70.847 493.015,91.715 548.075,91.715 556.743,70.847 565.410,39.545 779.072,39.545 787.739,70.847 796.407,70.847 851.467,70.847 860.057,91.715 868.648,70.847 877.238,79.194 930.623,91.715 935.072,70.847 939.521,70.847 940.840,70.847 943.561,47.892 946.283,49.979 947.602,49.979 952.051,70.847 956.500,102.148 1009.885,91.715 1018.475,133.450 1027.066,70.847 1035.656,91.715 1090.716,91.715 1099.384,91.715 1108.051,37.458 1214.882,49.979" stroke-dasharray="none" stroke-width="0.5pt" stroke="#9999ff" fill="none"></polyline>
<g>
</g>
</g>
<g clip-path="url(#ID000001)" id="ID000023">
      <polyline points="129.600,49.979 236.431,49.979 245.098,91.715 253.766,91.715 308.826,102.148 317.416,91.715 326.007,112.582 334.597,91.715 387.982,91.715 392.431,70.847 396.880,49.979 398.199,49.979 400.920,49.979 403.642,70.847 404.961,70.847 409.410,62.499 413.859,70.847 467.244,91.715 475.834,70.847 484.425,70.847 493.015,91.715 548.075,91.715 556.743,79.194 565.410,39.545 779.072,49.979 787.739,70.847 796.407,91.715 851.467,91.715 860.057,70.847 868.648,70.847 877.238,91.715 930.623,70.847 935.072,70.847 939.521,70.847 940.840,70.847 943.561,49.979 946.283,49.979 947.602,49.979 952.051,70.847 956.500,102.148 1009.885,91.715 1018.475,112.582 1027.066,83.367 1035.656,91.715 1090.716,102.148 1099.384,91.715 1108.051,45.805 1214.882,37.458" stroke-dasharray="none" stroke-width="0.5pt" stroke="#9999ff" fill="none"></polyline>
<g>
</g>
</g>
<g clip-path="url(#ID000001)" id="ID000024">
      <polyline points="129.600,446.469 236.431,446.469 245.098,383.865 253.766,383.865 308.826,388.039 317.416,383.865 326.007,404.733 334.597,404.733 387.982,404.733 392.431,436.035 396.880,446.469 398.199,446.469 400.920,446.469 403.642,436.035 404.961,436.035 409.410,425.601 413.859,383.865 467.244,383.865 475.834,373.432 484.425,392.213 493.015,425.601 548.075,404.733 556.743,446.469 565.410,446.469 779.072,446.469 787.739,446.469 796.407,404.733 851.467,425.601 860.057,383.865 868.648,383.865 877.238,383.865 930.623,383.865 935.072,404.733 939.521,436.035 940.840,436.035 943.561,446.469 946.283,446.469 947.602,446.469 952.051,436.035 956.500,425.601 1009.885,417.254 1018.475,404.733 1027.066,404.733 1035.656,383.865 1090.716,388.039 1099.384,404.733 1108.051,446.469 1214.882,446.469" stroke-dasharray="none" stroke-width="0.5pt" stroke="#9999ff" fill="none"></polyline>
<g>
</g>
</g>
<g clip-path="url(#ID000001)" id="ID000025">
      <polyline points="129.600,446.469 236.431,446.469 245.098,404.733 253.766,383.865 308.826,383.865 317.416,383.865 326.007,404.733 334.597,436.035 387.982,425.601 392.431,436.035 396.880,436.035 398.199,436.035 400.920,446.469 403.642,436.035 404.961,436.035 409.410,425.601 413.859,383.865 467.244,383.865 475.834,383.865 484.425,383.865 493.015,404.733 548.075,425.601 556.743,446.469 565.410,446.469 779.072,446.469 787.739,446.469 796.407,425.601 851.467,425.601 860.057,388.039 868.648,383.865 877.238,383.865 930.623,383.865 935.072,425.601 939.521,446.469 940.840,436.035 943.561,446.469 946.283,446.469 947.602,446.469 952.051,436.035 956.500,425.601 1009.885,425.601 1018.475,404.733 1027.066,404.733 1035.656,396.386 1090.716,383.865 1099.384,425.601 1108.051,446.469 1214.882,446.469" stroke-dasharray="none" stroke-width="0.5pt" stroke="#9999ff" fill="none"></polyline>
<g>
</g>
</g>
<g clip-path="url(#ID000001)" id="ID000026">
      <polyline points="129.600,446.469 236.431,446.469 245.098,425.601 253.766,383.865 308.826,383.865 317.416,404.733 326.007,404.733 334.597,425.601 387.982,425.601 392.431,436.035 396.880,446.469 398.199,446.469 400.920,446.469 403.642,436.035 404.961,436.035 409.410,425.601 413.859,383.865 467.244,383.865 475.834,383.865 484.425,383.865 493.015,425.601 548.075,404.733 556.743,446.469 565.410,446.469 779.072,446.469 787.739,446.469 796.407,425.601 851.467,404.733 860.057,383.865 868.648,375.518 877.238,383.865 930.623,383.865 935.072,425.601 939.521,436.035 940.840,436.035 943.561,446.469 946.283,446.469 947.602,446.469 952.051,436.035 956.500,425.601 1009.885,425.601 1018.475,404.733 1027.066,404.733 1035.656,383.865 1090.716,383.865 1099.384,404.733 1108.051,446.469 1214.882,446.469" stroke-dasharray="none" stroke-width="0.5pt" stroke="#9999ff" fill="none"></polyline>
<g>
</g>
</g>
<g clip-path="url(#ID000001)" id="ID000027">
      <polyline points="129.600,446.469 236.431,446.469 245.098,404.733 253.766,383.865 308.826,383.865 317.416,383.865 326.007,404.733 334.597,425.601 387.982,425.601 392.431,436.035 396.880,446.469 398.199,446.469 400.920,446.469 403.642,446.469 404.961,446.469 409.410,417.254 413.859,383.865 467.244,373.432 475.834,373.432 484.425,383.865 493.015,404.733 548.075,413.081 556.743,446.469 565.410,446.469 779.072,446.469 787.739,436.035 796.407,425.601 851.467,417.254 860.057,383.865 868.648,373.432 877.238,383.865 930.623,383.865 935.072,425.601 939.521,446.469 940.840,446.469 943.561,446.469 946.283,436.035 947.602,436.035 952.051,436.035 956.500,425.601 1009.885,404.733 1018.475,404.733 1027.066,404.733 1035.656,383.865 1090.716,383.865 1099.384,404.733 1108.051,446.469 1214.882,446.469" stroke-dasharray="none" stroke-width="0.5pt" stroke="#9999ff" fill="none"></polyline>
<g>
</g>
</g>
<g clip-path="url(#ID000001)" id="ID000028">
      <polyline points="129.600,446.469 236.431,446.469 245.098,425.601 253.766,383.865 308.826,383.865 317.416,404.733 326.007,425.601 334.597,425.601 387.982,425.601 392.431,436.035 396.880,446.469 398.199,446.469 400.920,446.469 403.642,436.035 404.961,436.035 409.410,404.733 413.859,383.865 467.244,383.865 475.834,383.865 484.425,383.865 493.015,425.601 548.075,425.601 556.743,436.035 565.410,446.469 779.072,446.469 787.739,446.469 796.407,425.601 851.467,425.601 860.057,383.865 868.648,373.432 877.238,383.865 930.623,383.865 935.072,425.601 939.521,436.035 940.840,436.035 943.561,446.469 946.283,446.469 947.602,446.469 952.051,436.035 956.500,433.948 1009.885,425.601 1018.475,404.733 1027.066,404.733 1035.656,383.865 1090.716,373.432 1099.384,404.733 1108.051,446.469 1214.882,446.469" stroke-dasharray="none" stroke-width="0.5pt" stroke="#9999ff" fill="none"></polyline>
<g>
</g>
</g>
<g clip-path="url(#ID000001)" id="ID000029">
      <polyline points="129.600,446.469 236.431,446.469 245.098,404.733 253.766,383.865 308.826,383.865 317.416,383.865 326.007,404.733 334.597,404.733 387.982,408.907 392.431,446.469 396.880,446.469 398.199,446.469 400.920,446.469 403.642,446.469 404.961,446.469 409.410,404.733 413.859,383.865 467.244,383.865 475.834,383.865 484.425,383.865 493.015,404.733 548.075,404.733 556.743,446.469 565.410,446.469 779.072,446.469 787.739,446.469 796.407,417.254 851.467,404.733 860.057,388.039 868.648,373.432 877.238,383.865 930.623,383.865 935.072,413.081 939.521,446.469 940.840,446.469 943.561,446.469 946.283,446.469 947.602,446.469 952.051,446.469 956.500,425.601 1009.885,425.601 1018.475,404.733 1027.066,404.733 1035.656,383.865 1090.716,383.865 1099.384,404.733 1108.051,446.469 1214.882,446.469" stroke-dasharray="none" stroke-width="0.5pt" stroke="#9999ff" fill="none"></polyline>
<g>
</g>
</g>
<g clip-path="url(#ID000001)" id="ID000030">
      <polyline points="129.600,446.469 236.431,446.469 245.098,425.601 253.766,383.865 308.826,383.865 317.416,404.733 326.007,404.733 334.597,404.733 387.982,425.601 392.431,446.469 396.880,446.469 398.199,446.469 400.920,446.469 403.642,436.035 404.961,436.035 409.410,404.733 413.859,383.865 467.244,383.865 475.834,373.432 484.425,383.865 493.015,404.733 548.075,413.081 556.743,446.469 565.410,446.469 779.072,446.469 787.739,446.469 796.407,425.601 851.467,404.733 860.057,383.865 868.648,383.865 877.238,404.733 930.623,404.733 935.072,425.601 939.521,446.469 940.840,446.469 943.561,446.469 946.283,446.469 947.602,446.469 952.051,436.035 956.500,436.035 1009.885,427.688 1018.475,404.733 1027.066,404.733 1035.656,383.865 1090.716,383.865 1099.384,404.733 1108.051,446.469 1214.882,446.469" stroke-dasharray="none" stroke-width="0.5pt" stroke="#9999ff" fill="none"></polyline>
<g>
</g>
</g>
<g clip-path="url(#ID000001)" id="ID000031">
      <polyline points="129.600,446.469 236.431,446.469 245.098,404.733 253.766,383.865 308.826,383.865 317.416,404.733 326.007,404.733 334.597,425.601 387.982,425.601 392.431,436.035 396.880,446.469 398.199,446.469 400.920,446.469 403.642,436.035 404.961,436.035 409.410,404.733 413.859,383.865 467.244,383.865 475.834,371.345 484.425,383.865 493.015,404.733 548.075,404.733 556.743,436.035 565.410,446.469 779.072,446.469 787.739,446.469 796.407,404.733 851.467,417.254 860.057,383.865 868.648,373.432 877.238,383.865 930.623,383.865 935.072,404.733 939.521,446.469 940.840,446.469 943.561,446.469 946.283,446.469 947.602,446.469 952.051,436.035 956.500,404.733 1009.885,425.601 1018.475,404.733 1027.066,383.865 1035.656,383.865 1090.716,383.865 1099.384,404.733 1108.051,446.469 1214.882,446.469" stroke-dasharray="none" stroke-width="0.5pt" stroke="#9999ff" fill="none"></polyline>
<g>
</g>
</g>
<g clip-path="url(#ID000001)" id="ID000032">
      <polyline points="129.600,446.469 236.431,446.469 245.098,404.733 253.766,383.865 308.826,383.865 317.416,404.733 326.007,404.733 334.597,425.601 387.982,425.601 392.431,436.035 396.880,446.469 398.199,446.469 400.920,446.469 403.642,436.035 404.961,436.035 409.410,404.733 413.859,383.865 467.244,383.865 475.834,373.432 484.425,383.865 493.015,425.601 548.075,425.601 556.743,446.469 565.410,446.469 779.072,446.469 787.739,446.469 796.407,425.601 851.467,425.601 860.057,383.865 868.648,383.865 877.238,383.865 930.623,383.865 935.072,425.601 939.521,446.469 940.840,446.469 943.561,446.469 946.283,446.469 947.602,446.469 952.051,436.035 956.500,436.035 1009.885,425.601 1018.475,404.733 1027.066,383.865 1035.656,383.865 1090.716,383.865 1099.384,425.601 1108.051,446.469 1214.882,446.469" stroke-dasharray="none" stroke-width="0.5pt" stroke="#9999ff" fill="none"></polyline>
<g>
</g>
</g>
<g clip-path="url(#ID000001)" id="ID000033">
      <polyline points="129.600,446.469 236.431,446.469 245.098,425.601 253.766,383.865 308.826,383.865 317.416,404.733 326.007,404.733 334.597,425.601 387.982,425.601 392.431,436.035 396.880,446.469 398.199,446.469 400.920,446.469 403.642,436.035 404.961,436.035 409.410,425.601 413.859,383.865 467.244,383.865 475.834,373.432 484.425,392.213 493.015,425.601 548.075,404.733 556.743,446.469 565.410,446.469 779.072,446.469 787.739,446.469 796.407,425.601 851.467,425.601 860.057,396.386 868.648,373.432 877.238,383.865 930.623,383.865 935.072,423.515 939.521,446.469 940.840,446.469 943.561,446.469 946.283,446.469 947.602,446.469 952.051,436.035 956.500,427.688 1009.885,423.515 1018.475,425.601 1027.066,383.865 1035.656,383.865 1090.716,383.865 1099.384,427.688 1108.051,446.469 1214.882,446.469" stroke-dasharray="none" stroke-width="0.5pt" stroke="#9999ff" fill="none"></polyline>
<g>
</g>
</g>
<g clip-path="url(#ID000001)" id="ID000034">
      <polyline points="129.600,446.469 236.431,446.469 245.098,404.733 253.766,383.865 308.826,383.865 317.416,404.733 326.007,383.865 334.597,425.601 387.982,404.733 392.431,436.035 396.880,436.035 398.199,436.035 400.920,446.469 403.642,436.035 404.961,436.035 409.410,413.081 413.859,383.865 467.244,383.865 475.834,373.432 484.425,383.865 493.015,404.733 548.075,413.081 556.743,446.469 565.410,446.469 779.072,446.469 787.739,438.122 796.407,404.733 851.467,383.865 860.057,392.213 868.648,362.998 877.238,383.865 930.623,383.865 935.072,404.733 939.521,438.122 940.840,438.122 943.561,446.469 946.283,436.035 947.602,436.035 952.051,436.035 956.500,404.733 1009.885,404.733 1018.475,404.733 1027.066,383.865 1035.656,396.386 1090.716,383.865 1099.384,404.733 1108.051,446.469 1214.882,446.469" stroke-dasharray="none" stroke-width="0.5pt" stroke="#9999ff" fill="none"></polyline>
<g>
</g>
</g>
<g clip-path="url(#ID000001)" id="ID000035">
      <polyline points="129.600,446.469 236.431,446.469 245.098,425.601 253.766,383.865 308.826,383.865 317.416,404.733 326.007,425.601 334.597,425.601 387.982,425.601 392.431,446.469 396.880,446.469 398.199,446.469 400.920,446.469 403.642,436.035 404.961,436.035 409.410,423.515 413.859,383.865 467.244,383.865 475.834,383.865 484.425,383.865 493.015,425.601 548.075,404.733 556.743,446.469 565.410,446.469 779.072,446.469 787.739,446.469 796.407,425.601 851.467,425.601 860.057,383.865 868.648,373.432 877.238,383.865 930.623,388.039 935.072,404.733 939.521,446.469 940.840,446.469 943.561,446.469 946.283,446.469 947.602,446.469 952.051,446.469 956.500,425.601 1009.885,425.601 1018.475,425.601 1027.066,383.865 1035.656,383.865 1090.716,383.865 1099.384,425.601 1108.051,446.469 1214.882,446.469" stroke-dasharray="none" stroke-width="0.5pt" stroke="#9999ff" fill="none"></polyline>
<g>
</g>
</g>
<g clip-path="url(#ID000001)" id="ID000036">
      <polyline points="129.600,446.469 236.431,446.469 245.098,404.733 253.766,396.386 308.826,383.865 317.416,404.733 326.007,404.733 334.597,425.601 387.982,425.601 392.431,436.035 396.880,446.469 398.199,446.469 400.920,446.469 403.642,436.035 404.961,436.035 409.410,425.601 413.859,383.865 467.244,383.865 475.834,383.865 484.425,383.865 493.015,404.733 548.075,425.601 556.743,446.469 565.410,446.469 779.072,446.469 787.739,446.469 796.407,404.733 851.467,404.733 860.057,383.865 868.648,383.865 877.238,383.865 930.623,388.039 935.072,413.081 939.521,436.035 940.840,436.035 943.561,446.469 946.283,446.469 947.602,446.469 952.051,427.688 956.500,425.601 1009.885,404.733 1018.475,404.733 1027.066,404.733 1035.656,383.865 1090.716,383.865 1099.384,404.733 1108.051,446.469 1214.882,446.469" stroke-dasharray="none" stroke-width="0.5pt" stroke="#9999ff" fill="none"></polyline>
<g>
</g>
</g>
<g clip-path="url(#ID000001)" id="ID000037">
      <polyline points="129.600,446.469 236.431,446.469 245.098,404.733 253.766,383.865 308.826,396.386 317.416,392.213 326.007,404.733 334.597,425.601 387.982,425.601 392.431,446.469 396.880,446.469 398.199,446.469 400.920,446.469 403.642,446.469 404.961,446.469 409.410,404.733 413.859,383.865 467.244,383.865 475.834,362.998 484.425,373.432 493.015,413.081 548.075,417.254 556.743,446.469 565.410,446.469 779.072,446.469 787.739,446.469 796.407,417.254 851.467,404.733 860.057,373.432 868.648,383.865 877.238,383.865 930.623,383.865 935.072,404.733 939.521,436.035 940.840,436.035 943.561,446.469 946.283,446.469 947.602,446.469 952.051,436.035 956.500,425.601 1009.885,425.601 1018.475,404.733 1027.066,383.865 1035.656,383.865 1090.716,392.213 1099.384,404.733 1108.051,446.469 1214.882,446.469" stroke-dasharray="none" stroke-width="0.5pt" stroke="#9999ff" fill="none"></polyline>
<g>
</g>
</g>
<g clip-path="url(#ID000001)" id="ID000038">
      <polyline points="129.600,446.469 236.431,446.469 245.098,425.601 253.766,383.865 308.826,396.386 317.416,404.733 326.007,404.733 334.597,425.601 387.982,436.035 392.431,438.122 396.880,436.035 398.199,436.035 400.920,446.469 403.642,436.035 404.961,436.035 409.410,425.601 413.859,383.865 467.244,383.865 475.834,373.432 484.425,383.865 493.015,404.733 548.075,425.601 556.743,436.035 565.410,446.469 779.072,446.469 787.739,436.035 796.407,404.733 851.467,404.733 860.057,383.865 868.648,373.432 877.238,383.865 930.623,383.865 935.072,425.601 939.521,436.035 940.840,446.469 943.561,446.469 946.283,436.035 947.602,436.035 952.051,436.035 956.500,436.035 1009.885,427.688 1018.475,404.733 1027.066,404.733 1035.656,383.865 1090.716,383.865 1099.384,425.601 1108.051,446.469 1214.882,446.469" stroke-dasharray="none" stroke-width="0.5pt" stroke="#9999ff" fill="none"></polyline>
<g>
</g>
</g>
<g clip-path="url(#ID000001)" id="ID000039">
      <polyline points="129.600,446.469 236.431,446.469 245.098,404.733 253.766,383.865 308.826,383.865 317.416,396.386 326.007,413.081 334.597,427.688 387.982,425.601 392.431,436.035 396.880,436.035 398.199,436.035 400.920,446.469 403.642,436.035 404.961,436.035 409.410,425.601 413.859,383.865 467.244,383.865 475.834,371.345 484.425,383.865 493.015,404.733 548.075,404.733 556.743,446.469 565.410,446.469 779.072,446.469 787.739,436.035 796.407,425.601 851.467,404.733 860.057,383.865 868.648,375.518 877.238,383.865 930.623,373.432 935.072,425.601 939.521,446.469 940.840,446.469 943.561,446.469 946.283,446.469 947.602,446.469 952.051,436.035 956.500,425.601 1009.885,425.601 1018.475,404.733 1027.066,404.733 1035.656,383.865 1090.716,383.865 1099.384,404.733 1108.051,446.469 1214.882,446.469" stroke-dasharray="none" stroke-width="0.5pt" stroke="#9999ff" fill="none"></polyline>
<g>
</g>
</g>
<g clip-path="url(#ID000001)" id="ID000040">
      <polyline points="129.600,446.469 236.431,446.469 245.098,425.601 253.766,383.865 308.826,383.865 317.416,404.733 326.007,425.601 334.597,436.035 387.982,425.601 392.431,446.469 396.880,446.469 398.199,446.469 400.920,446.469 403.642,446.469 404.961,446.469 409.410,436.035 413.859,383.865 467.244,383.865 475.834,375.518 484.425,383.865 493.015,425.601 548.075,425.601 556.743,446.469 565.410,446.469 779.072,446.469 787.739,446.469 796.407,425.601 851.467,425.601 860.057,383.865 868.648,383.865 877.238,383.865 930.623,371.345 935.072,436.035 939.521,446.469 940.840,446.469 943.561,446.469 946.283,446.469 947.602,446.469 952.051,446.469 956.500,436.035 1009.885,425.601 1018.475,404.733 1027.066,396.386 1035.656,383.865 1090.716,383.865 1099.384,425.601 1108.051,446.469 1214.882,446.469" stroke-dasharray="none" stroke-width="0.5pt" stroke="#9999ff" fill="none"></polyline>
<g>
</g>
</g>
<g clip-path="url(#ID000001)" id="ID000041">
      <polyline points="129.600,446.469 236.431,446.469 245.098,404.733 253.766,383.865 308.826,383.865 317.416,404.733 326.007,404.733 334.597,423.515 387.982,425.601 392.431,436.035 396.880,446.469 398.199,446.469 400.920,446.469 403.642,436.035 404.961,436.035 409.410,404.733 413.859,383.865 467.244,383.865 475.834,383.865 484.425,383.865 493.015,404.733 548.075,425.601 556.743,436.035 565.410,446.469 779.072,446.469 787.739,436.035 796.407,404.733 851.467,404.733 860.057,383.865 868.648,373.432 877.238,396.386 930.623,383.865 935.072,425.601 939.521,446.469 940.840,446.469 943.561,446.469 946.283,446.469 947.602,446.469 952.051,436.035 956.500,417.254 1009.885,425.601 1018.475,404.733 1027.066,404.733 1035.656,404.733 1090.716,383.865 1099.384,404.733 1108.051,446.469 1214.882,446.469" stroke-dasharray="none" stroke-width="0.5pt" stroke="#9999ff" fill="none"></polyline>
<g>
</g>
</g>
<g clip-path="url(#ID000001)" id="ID000042">
      <polyline points="129.600,446.469 236.431,446.469 245.098,404.733 253.766,383.865 308.826,383.865 317.416,404.733 326.007,404.733 334.597,425.601 387.982,404.733 392.431,436.035 396.880,446.469 398.199,446.469 400.920,446.469 403.642,436.035 404.961,436.035 409.410,425.601 413.859,383.865 467.244,383.865 475.834,373.432 484.425,383.865 493.015,417.254 548.075,425.601 556.743,436.035 565.410,446.469 779.072,446.469 787.739,436.035 796.407,404.733 851.467,417.254 860.057,383.865 868.648,373.432 877.238,383.865 930.623,383.865 935.072,425.601 939.521,436.035 940.840,436.035 943.561,446.469 946.283,446.469 947.602,446.469 952.051,436.035 956.500,436.035 1009.885,425.601 1018.475,417.254 1027.066,404.733 1035.656,383.865 1090.716,396.386 1099.384,425.601 1108.051,446.469 1214.882,446.469" stroke-dasharray="none" stroke-width="0.5pt" stroke="#9999ff" fill="none"></polyline>
<g>
</g>
</g>
<g clip-path="url(#ID000001)" id="ID000043">
      <polyline points="129.600,446.469 236.431,446.469 245.098,404.733 253.766,373.432 308.826,383.865 317.416,404.733 326.007,404.733 334.597,425.601 387.982,425.601 392.431,436.035 396.880,446.469 398.199,446.469 400.920,446.469 403.642,436.035 404.961,436.035 409.410,425.601 413.859,383.865 467.244,383.865 475.834,373.432 484.425,383.865 493.015,425.601 548.075,417.254 556.743,436.035 565.410,446.469 779.072,446.469 787.739,438.122 796.407,425.601 851.467,425.601 860.057,388.039 868.648,373.432 877.238,383.865 930.623,383.865 935.072,425.601 939.521,436.035 940.840,436.035 943.561,446.469 946.283,436.035 947.602,436.035 952.051,436.035 956.500,425.601 1009.885,408.907 1018.475,404.733 1027.066,404.733 1035.656,383.865 1090.716,383.865 1099.384,425.601 1108.051,446.469 1214.882,446.469" stroke-dasharray="none" stroke-width="0.5pt" stroke="#9999ff" fill="none"></polyline>
<g>
</g>
</g>
<g clip-path="url(#ID000001)" id="ID000044">
      <polyline points="129.600,39.023 236.431,40.588 245.098,93.801 253.766,92.758 308.826,96.305 317.416,90.880 326.007,115.191 334.597,95.784 387.982,97.349 392.431,65.004 396.880,47.162 398.199,47.057 400.920,48.309 403.642,63.543 404.961,63.230 409.410,69.386 413.859,79.194 467.244,82.115 475.834,76.064 484.425,75.020 493.015,91.610 548.075,87.124 556.743,75.020 565.410,39.336 779.072,42.675 787.739,71.890 796.407,90.254 851.467,89.419 860.057,78.150 868.648,74.812 877.238,82.115 930.623,81.281 935.072,69.177 939.521,63.543 940.840,62.499 943.561,50.396 946.283,46.327 947.602,46.014 952.051,70.221 956.500,98.914 1009.885,99.540 1018.475,116.130 1027.066,90.045 1035.656,93.488 1090.716,94.427 1099.384,92.236 1108.051,40.275 1214.882,39.649" stroke-dasharray="none" stroke-width="3.0pt" stroke="#0000ff" fill="none"></polyline>
<g>
</g>
</g>
<g clip-path="url(#ID000001)" id="ID000045">
      <polyline points="129.600,446.469 236.431,446.469 245.098,410.994 253.766,383.970 308.826,385.326 317.416,399.516 326.007,407.238 334.597,423.515 387.982,422.158 392.431,438.748 396.880,444.382 398.199,444.382 400.920,446.469 403.642,438.122 404.961,438.122 409.410,417.672 413.859,383.865 467.244,383.344 475.834,376.457 484.425,384.178 493.015,414.124 548.075,415.585 556.743,443.339 565.410,446.469 779.072,446.469 787.739,443.026 796.407,417.463 851.467,413.915 860.057,385.013 868.648,376.770 877.238,385.535 930.623,384.178 935.072,419.550 939.521,441.878 940.840,441.878 943.561,446.469 946.283,444.382 947.602,444.382 952.051,437.183 956.500,426.227 1009.885,421.323 1018.475,407.446 1027.066,398.056 1035.656,386.161 1090.716,384.596 1099.384,413.185 1108.051,446.469 1214.882,446.469" stroke-dasharray="none" stroke-width="3.0pt" stroke="#0000ff" fill="none"></polyline>
<g>
</g>
</g>
<g clip-path="url(#ID000001)" id="ID000046">
      <polyline points="129.600,237.790 150.535,237.790" stroke-dasharray="none" stroke-width="0.5pt" stroke="#000000" fill="none"></polyline>
<g>
</g>
</g>
<g clip-path="url(#ID000001)" id="ID000047">
      <polyline points="150.535,237.790 201.050,237.790" stroke-dasharray="none" stroke-width="0.5pt" stroke="#000000" fill="none"></polyline>
<g>
</g>
</g>
<g clip-path="url(#ID000001)" id="ID000048">
<rect stroke-dasharray="none" stroke-width="0.5pt" stroke="#899876" fill="#899876" ry="0.000" rx="0.000" height="16.694" width="2.094" y="229.443" x="201.050"></rect>
</g>
<g clip-path="url(#ID000001)" id="ID000049">
      <polyline points="203.144,237.790 205.447,237.790" stroke-dasharray="none" stroke-width="0.5pt" stroke="#000000" fill="none"></polyline>
<g>
</g>
</g>
<g clip-path="url(#ID000001)" id="ID000050">
<rect stroke-dasharray="none" stroke-width="0.5pt" stroke="#899876" fill="#899876" ry="0.000" rx="0.000" height="16.694" width="3.140" y="229.443" x="205.447"></rect>
</g>
<g clip-path="url(#ID000001)" id="ID000051">
      <polyline points="208.587,237.790 211.099,237.790" stroke-dasharray="none" stroke-width="0.5pt" stroke="#000000" fill="none"></polyline>
<g>
</g>
</g>
<g clip-path="url(#ID000001)" id="ID000052">
      <polyline points="211.099,237.790 214.030,237.790" stroke-dasharray="none" stroke-width="0.5pt" stroke="#000000" fill="none"></polyline>
<g>
</g>
</g>
<g clip-path="url(#ID000001)" id="ID000053">
<rect stroke-dasharray="none" stroke-width="0.5pt" stroke="#ea9b51" fill="#ea9b51" ry="0.000" rx="0.000" height="16.694" width="4.187" y="229.443" x="214.030"></rect>
</g>
<g clip-path="url(#ID000001)" id="ID000054">
      <polyline points="218.217,237.790 223.242,237.790" stroke-dasharray="none" stroke-width="0.5pt" stroke="#000000" fill="none"></polyline>
<g>
</g>
</g>
<g clip-path="url(#ID000001)" id="ID000055">
<rect stroke-dasharray="none" stroke-width="0.5pt" stroke="#ea9b51" fill="#ea9b51" ry="0.000" rx="0.000" height="16.694" width="2.931" y="229.443" x="223.242"></rect>
</g>
<g clip-path="url(#ID000001)" id="ID000056">
      <polyline points="226.173,237.790 229.313,237.790" stroke-dasharray="none" stroke-width="0.5pt" stroke="#000000" fill="none"></polyline>
<g>
</g>
</g>
<g clip-path="url(#ID000001)" id="ID000057">
<rect stroke-dasharray="none" stroke-width="0.5pt" stroke="#899876" fill="#899876" ry="0.000" rx="0.000" height="16.694" width="3.140" y="229.443" x="229.313"></rect>
</g>
<g clip-path="url(#ID000001)" id="ID000058">
      <polyline points="232.453,237.790 236.431,237.790" stroke-dasharray="none" stroke-width="0.5pt" stroke="#000000" fill="none"></polyline>
<g>
</g>
</g>
<g clip-path="url(#ID000001)" id="ID000059">
<rect stroke-dasharray="none" stroke-width="0.5pt" stroke="#0088b5" fill="#0088b5" ry="0.000" rx="0.000" height="16.694" width="17.334" y="229.443" x="236.431"></rect>
</g>
<g clip-path="url(#ID000001)" id="ID000060">
      <polyline points="253.766,237.790 266.536,237.790" stroke-dasharray="none" stroke-width="0.5pt" stroke="#000000" fill="none"></polyline>
<g>
</g>
</g>
<g clip-path="url(#ID000001)" id="ID000061">
<rect stroke-dasharray="none" stroke-width="0.5pt" stroke="#899876" fill="#899876" ry="0.000" rx="0.000" height="16.694" width="3.140" y="229.443" x="266.536"></rect>
</g>
<g clip-path="url(#ID000001)" id="ID000062">
      <polyline points="269.677,237.790 273.236,237.790" stroke-dasharray="none" stroke-width="0.5pt" stroke="#000000" fill="none"></polyline>
<g>
</g>
</g>
<g clip-path="url(#ID000001)" id="ID000063">
<rect stroke-dasharray="none" stroke-width="0.5pt" stroke="#ea9b51" fill="#ea9b51" ry="0.000" rx="0.000" height="16.694" width="4.187" y="229.443" x="273.236"></rect>
</g>
<g clip-path="url(#ID000001)" id="ID000064">
      <polyline points="277.423,237.790 280.354,237.790" stroke-dasharray="none" stroke-width="0.5pt" stroke="#000000" fill="none"></polyline>
<g>
</g>
</g>
<g clip-path="url(#ID000001)" id="ID000065">
      <polyline points="280.354,237.790 282.866,237.790" stroke-dasharray="none" stroke-width="0.5pt" stroke="#000000" fill="none"></polyline>
<g>
</g>
</g>
<g clip-path="url(#ID000001)" id="ID000066">
<rect stroke-dasharray="none" stroke-width="0.5pt" stroke="#899876" fill="#899876" ry="0.000" rx="0.000" height="16.694" width="3.140" y="229.443" x="282.866"></rect>
</g>
<g clip-path="url(#ID000001)" id="ID000067">
      <polyline points="286.006,237.790 290.821,237.790" stroke-dasharray="none" stroke-width="0.5pt" stroke="#000000" fill="none"></polyline>
<g>
</g>
</g>
<g clip-path="url(#ID000001)" id="ID000068">
<rect stroke-dasharray="none" stroke-width="0.5pt" stroke="#ea9b51" fill="#ea9b51" ry="0.000" rx="0.000" height="16.694" width="4.187" y="229.443" x="290.821"></rect>
</g>
<g clip-path="url(#ID000001)" id="ID000069">
      <polyline points="295.008,237.790 298.567,237.790" stroke-dasharray="none" stroke-width="0.5pt" stroke="#000000" fill="none"></polyline>
<g>
</g>
</g>
<g clip-path="url(#ID000001)" id="ID000070">
<rect stroke-dasharray="none" stroke-width="0.5pt" stroke="#899876" fill="#899876" ry="0.000" rx="0.000" height="16.694" width="3.140" y="229.443" x="298.567"></rect>
</g>
<g clip-path="url(#ID000001)" id="ID000071">
      <polyline points="301.708,237.790 306.104,237.790" stroke-dasharray="none" stroke-width="0.5pt" stroke="#000000" fill="none"></polyline>
<g>
</g>
</g>
<g clip-path="url(#ID000001)" id="ID000072">
      <polyline points="306.104,237.790 308.826,237.790" stroke-dasharray="none" stroke-width="0.5pt" stroke="#000000" fill="none"></polyline>
<g>
</g>
</g>
<g clip-path="url(#ID000001)" id="ID000073">
<rect stroke-dasharray="none" stroke-width="0.5pt" stroke="#0088b5" fill="#0088b5" ry="0.000" rx="0.000" height="16.694" width="25.771" y="229.443" x="308.826"></rect>
</g>
<g clip-path="url(#ID000001)" id="ID000074">
      <polyline points="334.597,237.790 344.227,237.790" stroke-dasharray="none" stroke-width="0.5pt" stroke="#000000" fill="none"></polyline>
<g>
</g>
</g>
<g clip-path="url(#ID000001)" id="ID000075">
<rect stroke-dasharray="none" stroke-width="0.5pt" stroke="#899876" fill="#899876" ry="0.000" rx="0.000" height="16.694" width="3.140" y="229.443" x="344.227"></rect>
</g>
<g clip-path="url(#ID000001)" id="ID000076">
      <polyline points="347.368,237.790 350.927,237.790" stroke-dasharray="none" stroke-width="0.5pt" stroke="#000000" fill="none"></polyline>
<g>
</g>
</g>
<g clip-path="url(#ID000001)" id="ID000077">
<rect stroke-dasharray="none" stroke-width="0.5pt" stroke="#ea9b51" fill="#ea9b51" ry="0.000" rx="0.000" height="16.694" width="4.187" y="229.443" x="350.927"></rect>
</g>
<g clip-path="url(#ID000001)" id="ID000078">
      <polyline points="355.114,237.790 359.929,237.790" stroke-dasharray="none" stroke-width="0.5pt" stroke="#000000" fill="none"></polyline>
<g>
</g>
</g>
<g clip-path="url(#ID000001)" id="ID000079">
<rect stroke-dasharray="none" stroke-width="0.5pt" stroke="#899876" fill="#899876" ry="0.000" rx="0.000" height="16.694" width="3.140" y="229.443" x="359.929"></rect>
</g>
<g clip-path="url(#ID000001)" id="ID000080">
      <polyline points="363.069,237.790 365.582,237.790" stroke-dasharray="none" stroke-width="0.5pt" stroke="#000000" fill="none"></polyline>
<g>
</g>
</g>
<g clip-path="url(#ID000001)" id="ID000081">
      <polyline points="365.582,237.790 368.513,237.790" stroke-dasharray="none" stroke-width="0.5pt" stroke="#000000" fill="none"></polyline>
<g>
</g>
</g>
<g clip-path="url(#ID000001)" id="ID000082">
<rect stroke-dasharray="none" stroke-width="0.5pt" stroke="#ea9b51" fill="#ea9b51" ry="0.000" rx="0.000" height="16.694" width="4.187" y="229.443" x="368.513"></rect>
</g>
<g clip-path="url(#ID000001)" id="ID000083">
      <polyline points="372.700,237.790 375.212,237.790" stroke-dasharray="none" stroke-width="0.5pt" stroke="#000000" fill="none"></polyline>
<g>
</g>
</g>
<g clip-path="url(#ID000001)" id="ID000084">
<rect stroke-dasharray="none" stroke-width="0.5pt" stroke="#899876" fill="#899876" ry="0.000" rx="0.000" height="16.694" width="2.094" y="229.443" x="375.212"></rect>
</g>
<g clip-path="url(#ID000001)" id="ID000085">
      <polyline points="377.305,237.790 385.261,237.790" stroke-dasharray="none" stroke-width="0.5pt" stroke="#000000" fill="none"></polyline>
<g>
</g>
</g>
<g clip-path="url(#ID000001)" id="ID000086">
      <polyline points="385.261,237.790 387.982,237.790" stroke-dasharray="none" stroke-width="0.5pt" stroke="#000000" fill="none"></polyline>
<g>
</g>
</g>
<g clip-path="url(#ID000001)" id="ID000087">
<rect stroke-dasharray="none" stroke-width="0.5pt" stroke="#0088b5" fill="#0088b5" ry="0.000" rx="0.000" height="16.694" width="8.898" y="229.443" x="387.982"></rect>
</g>
<g clip-path="url(#ID000001)" id="ID000088">
      <polyline points="396.880,237.790 398.199,237.790" stroke-dasharray="none" stroke-width="0.5pt" stroke="#000000" fill="none"></polyline>
<g>
</g>
</g>
<g clip-path="url(#ID000001)" id="ID000089">
<rect stroke-dasharray="none" stroke-width="0.5pt" stroke="#0088b5" fill="#0088b5" ry="0.000" rx="0.000" height="16.694" width="5.443" y="229.443" x="398.199"></rect>
</g>
<g clip-path="url(#ID000001)" id="ID000090">
      <polyline points="403.642,237.790 404.961,237.790" stroke-dasharray="none" stroke-width="0.5pt" stroke="#000000" fill="none"></polyline>
<g>
</g>
</g>
<g clip-path="url(#ID000001)" id="ID000091">
<rect stroke-dasharray="none" stroke-width="0.5pt" stroke="#0088b5" fill="#0088b5" ry="0.000" rx="0.000" height="16.694" width="8.898" y="229.443" x="404.961"></rect>
</g>
<g clip-path="url(#ID000001)" id="ID000092">
      <polyline points="413.859,237.790 429.141,237.790" stroke-dasharray="none" stroke-width="0.5pt" stroke="#000000" fill="none"></polyline>
<g>
</g>
</g>
<g clip-path="url(#ID000001)" id="ID000093">
<rect stroke-dasharray="none" stroke-width="0.5pt" stroke="#ea9b51" fill="#ea9b51" ry="0.000" rx="0.000" height="16.694" width="4.187" y="229.443" x="429.141"></rect>
</g>
<g clip-path="url(#ID000001)" id="ID000094">
      <polyline points="433.328,237.790 436.259,237.790" stroke-dasharray="none" stroke-width="0.5pt" stroke="#000000" fill="none"></polyline>
<g>
</g>
</g>
<g clip-path="url(#ID000001)" id="ID000095">
      <polyline points="436.259,237.790 438.772,237.790" stroke-dasharray="none" stroke-width="0.5pt" stroke="#000000" fill="none"></polyline>
<g>
</g>
</g>
<g clip-path="url(#ID000001)" id="ID000096">
<rect stroke-dasharray="none" stroke-width="0.5pt" stroke="#899876" fill="#899876" ry="0.000" rx="0.000" height="16.694" width="3.140" y="229.443" x="438.772"></rect>
</g>
<g clip-path="url(#ID000001)" id="ID000097">
      <polyline points="441.912,237.790 446.727,237.790" stroke-dasharray="none" stroke-width="0.5pt" stroke="#000000" fill="none"></polyline>
<g>
</g>
</g>
<g clip-path="url(#ID000001)" id="ID000098">
<rect stroke-dasharray="none" stroke-width="0.5pt" stroke="#ea9b51" fill="#ea9b51" ry="0.000" rx="0.000" height="16.694" width="4.187" y="229.443" x="446.727"></rect>
</g>
<g clip-path="url(#ID000001)" id="ID000099">
      <polyline points="450.914,237.790 454.473,237.790" stroke-dasharray="none" stroke-width="0.5pt" stroke="#000000" fill="none"></polyline>
<g>
</g>
</g>
<g clip-path="url(#ID000001)" id="ID000100">
<rect stroke-dasharray="none" stroke-width="0.5pt" stroke="#899876" fill="#899876" ry="0.000" rx="0.000" height="16.694" width="3.140" y="229.443" x="454.473"></rect>
</g>
<g clip-path="url(#ID000001)" id="ID000101">
      <polyline points="457.614,237.790 459.916,237.790" stroke-dasharray="none" stroke-width="0.5pt" stroke="#000000" fill="none"></polyline>
<g>
</g>
</g>
<g clip-path="url(#ID000001)" id="ID000102">
<rect stroke-dasharray="none" stroke-width="0.5pt" stroke="#899876" fill="#899876" ry="0.000" rx="0.000" height="16.694" width="2.094" y="229.443" x="459.916"></rect>
</g>
<g clip-path="url(#ID000001)" id="ID000103">
      <polyline points="462.010,237.790 467.244,237.790" stroke-dasharray="none" stroke-width="0.5pt" stroke="#000000" fill="none"></polyline>
<g>
</g>
</g>
<g clip-path="url(#ID000001)" id="ID000104">
<rect stroke-dasharray="none" stroke-width="0.5pt" stroke="#0088b5" fill="#0088b5" ry="0.000" rx="0.000" height="16.694" width="25.771" y="229.443" x="467.244"></rect>
</g>
<g clip-path="url(#ID000001)" id="ID000105">
      <polyline points="493.015,237.790 500.133,237.790" stroke-dasharray="none" stroke-width="0.5pt" stroke="#000000" fill="none"></polyline>
<g>
</g>
</g>
<g clip-path="url(#ID000001)" id="ID000106">
<rect stroke-dasharray="none" stroke-width="0.5pt" stroke="#899876" fill="#899876" ry="0.000" rx="0.000" height="16.694" width="3.140" y="229.443" x="500.133"></rect>
</g>
<g clip-path="url(#ID000001)" id="ID000107">
      <polyline points="503.274,237.790 506.833,237.790" stroke-dasharray="none" stroke-width="0.5pt" stroke="#000000" fill="none"></polyline>
<g>
</g>
</g>
<g clip-path="url(#ID000001)" id="ID000108">
<rect stroke-dasharray="none" stroke-width="0.5pt" stroke="#ea9b51" fill="#ea9b51" ry="0.000" rx="0.000" height="16.694" width="4.187" y="229.443" x="506.833"></rect>
</g>
<g clip-path="url(#ID000001)" id="ID000109">
      <polyline points="511.020,237.790 515.835,237.790" stroke-dasharray="none" stroke-width="0.5pt" stroke="#000000" fill="none"></polyline>
<g>
</g>
</g>
<g clip-path="url(#ID000001)" id="ID000110">
<rect stroke-dasharray="none" stroke-width="0.5pt" stroke="#899876" fill="#899876" ry="0.000" rx="0.000" height="16.694" width="3.140" y="229.443" x="515.835"></rect>
</g>
<g clip-path="url(#ID000001)" id="ID000111">
      <polyline points="518.975,237.790 521.487,237.790" stroke-dasharray="none" stroke-width="0.5pt" stroke="#000000" fill="none"></polyline>
<g>
</g>
</g>
<g clip-path="url(#ID000001)" id="ID000112">
      <polyline points="521.487,237.790 524.418,237.790" stroke-dasharray="none" stroke-width="0.5pt" stroke="#000000" fill="none"></polyline>
<g>
</g>
</g>
<g clip-path="url(#ID000001)" id="ID000113">
<rect stroke-dasharray="none" stroke-width="0.5pt" stroke="#ea9b51" fill="#ea9b51" ry="0.000" rx="0.000" height="16.694" width="4.187" y="229.443" x="524.418"></rect>
</g>
<g clip-path="url(#ID000001)" id="ID000114">
      <polyline points="528.605,237.790 532.164,237.790" stroke-dasharray="none" stroke-width="0.5pt" stroke="#000000" fill="none"></polyline>
<g>
</g>
</g>
<g clip-path="url(#ID000001)" id="ID000115">
<rect stroke-dasharray="none" stroke-width="0.5pt" stroke="#899876" fill="#899876" ry="0.000" rx="0.000" height="16.694" width="3.140" y="229.443" x="532.164"></rect>
</g>
<g clip-path="url(#ID000001)" id="ID000116">
      <polyline points="535.305,237.790 545.354,237.790" stroke-dasharray="none" stroke-width="0.5pt" stroke="#000000" fill="none"></polyline>
<g>
</g>
</g>
<g clip-path="url(#ID000001)" id="ID000117">
      <polyline points="545.354,237.790 548.075,237.790" stroke-dasharray="none" stroke-width="0.5pt" stroke="#000000" fill="none"></polyline>
<g>
</g>
</g>
<g clip-path="url(#ID000001)" id="ID000118">
<rect stroke-dasharray="none" stroke-width="0.5pt" stroke="#0088b5" fill="#0088b5" ry="0.000" rx="0.000" height="16.694" width="17.334" y="229.443" x="548.075"></rect>
</g>
<g clip-path="url(#ID000001)" id="ID000119">
      <polyline points="565.410,237.790 569.388,237.790" stroke-dasharray="none" stroke-width="0.5pt" stroke="#000000" fill="none"></polyline>
<g>
</g>
</g>
<g clip-path="url(#ID000001)" id="ID000120">
<rect stroke-dasharray="none" stroke-width="0.5pt" stroke="#899876" fill="#899876" ry="0.000" rx="0.000" height="16.694" width="3.140" y="229.443" x="569.388"></rect>
</g>
<g clip-path="url(#ID000001)" id="ID000121">
      <polyline points="572.528,237.790 575.668,237.790" stroke-dasharray="none" stroke-width="0.5pt" stroke="#000000" fill="none"></polyline>
<g>
</g>
</g>
<g clip-path="url(#ID000001)" id="ID000122">
<rect stroke-dasharray="none" stroke-width="0.5pt" stroke="#ea9b51" fill="#ea9b51" ry="0.000" rx="0.000" height="16.694" width="2.931" y="229.443" x="575.668"></rect>
</g>
<g clip-path="url(#ID000001)" id="ID000123">
      <polyline points="578.599,237.790 583.624,237.790" stroke-dasharray="none" stroke-width="0.5pt" stroke="#000000" fill="none"></polyline>
<g>
</g>
</g>
<g clip-path="url(#ID000001)" id="ID000124">
<rect stroke-dasharray="none" stroke-width="0.5pt" stroke="#ea9b51" fill="#ea9b51" ry="0.000" rx="0.000" height="16.694" width="6.281" y="229.443" x="583.624"></rect>
</g>
<g clip-path="url(#ID000001)" id="ID000125">
      <polyline points="589.904,237.790 592.835,237.790" stroke-dasharray="none" stroke-width="0.5pt" stroke="#000000" fill="none"></polyline>
<g>
</g>
</g>
<g clip-path="url(#ID000001)" id="ID000126">
      <polyline points="592.835,237.790 595.347,237.790" stroke-dasharray="none" stroke-width="0.5pt" stroke="#000000" fill="none"></polyline>
<g>
</g>
</g>
<g clip-path="url(#ID000001)" id="ID000127">
<rect stroke-dasharray="none" stroke-width="0.5pt" stroke="#899876" fill="#899876" ry="0.000" rx="0.000" height="16.694" width="3.140" y="229.443" x="595.347"></rect>
</g>
<g clip-path="url(#ID000001)" id="ID000128">
      <polyline points="598.488,237.790 600.791,237.790" stroke-dasharray="none" stroke-width="0.5pt" stroke="#000000" fill="none"></polyline>
<g>
</g>
</g>
<g clip-path="url(#ID000001)" id="ID000129">
<rect stroke-dasharray="none" stroke-width="0.5pt" stroke="#899876" fill="#899876" ry="0.000" rx="0.000" height="16.694" width="2.094" y="229.443" x="600.791"></rect>
</g>
<g clip-path="url(#ID000001)" id="ID000130">
      <polyline points="602.884,237.790 605.606,237.790" stroke-dasharray="none" stroke-width="0.5pt" stroke="#000000" fill="none"></polyline>
<g>
</g>
</g>
<g clip-path="url(#ID000001)" id="ID000131">
<rect stroke-dasharray="none" stroke-width="0.5pt" stroke="#ea9b51" fill="#ea9b51" ry="0.000" rx="0.000" height="16.694" width="2.931" y="229.443" x="605.606"></rect>
</g>
<g clip-path="url(#ID000001)" id="ID000132">
      <polyline points="608.537,237.790 651.306,237.790" stroke-dasharray="none" stroke-width="0.5pt" stroke="#000000" fill="none"></polyline>
<g>
</g>
</g>
<g clip-path="url(#ID000001)" id="ID000133">
      <polyline points="651.306,237.790 693.176,237.790" stroke-dasharray="none" stroke-width="0.5pt" stroke="#000000" fill="none"></polyline>
<g>
</g>
</g>
<g clip-path="url(#ID000001)" id="ID000134">
      <polyline points="693.176,237.790 735.945,237.790" stroke-dasharray="none" stroke-width="0.5pt" stroke="#000000" fill="none"></polyline>
<g>
</g>
</g>
<g clip-path="url(#ID000001)" id="ID000135">
<rect stroke-dasharray="none" stroke-width="0.5pt" stroke="#ea9b51" fill="#ea9b51" ry="0.000" rx="0.000" height="16.694" width="2.931" y="229.443" x="735.945"></rect>
</g>
<g clip-path="url(#ID000001)" id="ID000136">
      <polyline points="738.876,237.790 741.598,237.790" stroke-dasharray="none" stroke-width="0.5pt" stroke="#000000" fill="none"></polyline>
<g>
</g>
</g>
<g clip-path="url(#ID000001)" id="ID000137">
<rect stroke-dasharray="none" stroke-width="0.5pt" stroke="#899876" fill="#899876" ry="0.000" rx="0.000" height="16.694" width="2.094" y="229.443" x="741.598"></rect>
</g>
<g clip-path="url(#ID000001)" id="ID000138">
      <polyline points="743.691,237.790 745.994,237.790" stroke-dasharray="none" stroke-width="0.5pt" stroke="#000000" fill="none"></polyline>
<g>
</g>
</g>
<g clip-path="url(#ID000001)" id="ID000139">
<rect stroke-dasharray="none" stroke-width="0.5pt" stroke="#899876" fill="#899876" ry="0.000" rx="0.000" height="16.694" width="3.140" y="229.443" x="745.994"></rect>
</g>
<g clip-path="url(#ID000001)" id="ID000140">
      <polyline points="749.135,237.790 751.647,237.790" stroke-dasharray="none" stroke-width="0.5pt" stroke="#000000" fill="none"></polyline>
<g>
</g>
</g>
<g clip-path="url(#ID000001)" id="ID000141">
      <polyline points="751.647,237.790 754.578,237.790" stroke-dasharray="none" stroke-width="0.5pt" stroke="#000000" fill="none"></polyline>
<g>
</g>
</g>
<g clip-path="url(#ID000001)" id="ID000142">
<rect stroke-dasharray="none" stroke-width="0.5pt" stroke="#ea9b51" fill="#ea9b51" ry="0.000" rx="0.000" height="16.694" width="6.281" y="229.443" x="754.578"></rect>
</g>
<g clip-path="url(#ID000001)" id="ID000143">
      <polyline points="760.858,237.790 765.883,237.790" stroke-dasharray="none" stroke-width="0.5pt" stroke="#000000" fill="none"></polyline>
<g>
</g>
</g>
<g clip-path="url(#ID000001)" id="ID000144">
<rect stroke-dasharray="none" stroke-width="0.5pt" stroke="#ea9b51" fill="#ea9b51" ry="0.000" rx="0.000" height="16.694" width="2.931" y="229.443" x="765.883"></rect>
</g>
<g clip-path="url(#ID000001)" id="ID000145">
      <polyline points="768.814,237.790 771.954,237.790" stroke-dasharray="none" stroke-width="0.5pt" stroke="#000000" fill="none"></polyline>
<g>
</g>
</g>
<g clip-path="url(#ID000001)" id="ID000146">
<rect stroke-dasharray="none" stroke-width="0.5pt" stroke="#899876" fill="#899876" ry="0.000" rx="0.000" height="16.694" width="3.140" y="229.443" x="771.954"></rect>
</g>
<g clip-path="url(#ID000001)" id="ID000147">
      <polyline points="775.094,237.790 779.072,237.790" stroke-dasharray="none" stroke-width="0.5pt" stroke="#000000" fill="none"></polyline>
<g>
</g>
</g>
<g clip-path="url(#ID000001)" id="ID000148">
<rect stroke-dasharray="none" stroke-width="0.5pt" stroke="#0088b5" fill="#0088b5" ry="0.000" rx="0.000" height="16.694" width="17.334" y="229.443" x="779.072"></rect>
</g>
<g clip-path="url(#ID000001)" id="ID000149">
      <polyline points="796.407,237.790 809.177,237.790" stroke-dasharray="none" stroke-width="0.5pt" stroke="#000000" fill="none"></polyline>
<g>
</g>
</g>
<g clip-path="url(#ID000001)" id="ID000150">
<rect stroke-dasharray="none" stroke-width="0.5pt" stroke="#899876" fill="#899876" ry="0.000" rx="0.000" height="16.694" width="3.140" y="229.443" x="809.177"></rect>
</g>
<g clip-path="url(#ID000001)" id="ID000151">
      <polyline points="812.318,237.790 815.877,237.790" stroke-dasharray="none" stroke-width="0.5pt" stroke="#000000" fill="none"></polyline>
<g>
</g>
</g>
<g clip-path="url(#ID000001)" id="ID000152">
<rect stroke-dasharray="none" stroke-width="0.5pt" stroke="#ea9b51" fill="#ea9b51" ry="0.000" rx="0.000" height="16.694" width="4.187" y="229.443" x="815.877"></rect>
</g>
<g clip-path="url(#ID000001)" id="ID000153">
      <polyline points="820.064,237.790 822.995,237.790" stroke-dasharray="none" stroke-width="0.5pt" stroke="#000000" fill="none"></polyline>
<g>
</g>
</g>
<g clip-path="url(#ID000001)" id="ID000154">
      <polyline points="822.995,237.790 825.507,237.790" stroke-dasharray="none" stroke-width="0.5pt" stroke="#000000" fill="none"></polyline>
<g>
</g>
</g>
<g clip-path="url(#ID000001)" id="ID000155">
<rect stroke-dasharray="none" stroke-width="0.5pt" stroke="#899876" fill="#899876" ry="0.000" rx="0.000" height="16.694" width="3.140" y="229.443" x="825.507"></rect>
</g>
<g clip-path="url(#ID000001)" id="ID000156">
      <polyline points="828.647,237.790 833.462,237.790" stroke-dasharray="none" stroke-width="0.5pt" stroke="#000000" fill="none"></polyline>
<g>
</g>
</g>
<g clip-path="url(#ID000001)" id="ID000157">
<rect stroke-dasharray="none" stroke-width="0.5pt" stroke="#ea9b51" fill="#ea9b51" ry="0.000" rx="0.000" height="16.694" width="4.187" y="229.443" x="833.462"></rect>
</g>
<g clip-path="url(#ID000001)" id="ID000158">
      <polyline points="837.649,237.790 841.208,237.790" stroke-dasharray="none" stroke-width="0.5pt" stroke="#000000" fill="none"></polyline>
<g>
</g>
</g>
<g clip-path="url(#ID000001)" id="ID000159">
<rect stroke-dasharray="none" stroke-width="0.5pt" stroke="#899876" fill="#899876" ry="0.000" rx="0.000" height="16.694" width="3.140" y="229.443" x="841.208"></rect>
</g>
<g clip-path="url(#ID000001)" id="ID000160">
      <polyline points="844.349,237.790 848.745,237.790" stroke-dasharray="none" stroke-width="0.5pt" stroke="#000000" fill="none"></polyline>
<g>
</g>
</g>
<g clip-path="url(#ID000001)" id="ID000161">
      <polyline points="848.745,237.790 851.467,237.790" stroke-dasharray="none" stroke-width="0.5pt" stroke="#000000" fill="none"></polyline>
<g>
</g>
</g>
<g clip-path="url(#ID000001)" id="ID000162">
<rect stroke-dasharray="none" stroke-width="0.5pt" stroke="#0088b5" fill="#0088b5" ry="0.000" rx="0.000" height="16.694" width="25.771" y="229.443" x="851.467"></rect>
</g>
<g clip-path="url(#ID000001)" id="ID000163">
      <polyline points="877.238,237.790 886.868,237.790" stroke-dasharray="none" stroke-width="0.5pt" stroke="#000000" fill="none"></polyline>
<g>
</g>
</g>
<g clip-path="url(#ID000001)" id="ID000164">
<rect stroke-dasharray="none" stroke-width="0.5pt" stroke="#899876" fill="#899876" ry="0.000" rx="0.000" height="16.694" width="3.140" y="229.443" x="886.868"></rect>
</g>
<g clip-path="url(#ID000001)" id="ID000165">
      <polyline points="890.009,237.790 893.568,237.790" stroke-dasharray="none" stroke-width="0.5pt" stroke="#000000" fill="none"></polyline>
<g>
</g>
</g>
<g clip-path="url(#ID000001)" id="ID000166">
<rect stroke-dasharray="none" stroke-width="0.5pt" stroke="#ea9b51" fill="#ea9b51" ry="0.000" rx="0.000" height="16.694" width="4.187" y="229.443" x="893.568"></rect>
</g>
<g clip-path="url(#ID000001)" id="ID000167">
      <polyline points="897.755,237.790 902.570,237.790" stroke-dasharray="none" stroke-width="0.5pt" stroke="#000000" fill="none"></polyline>
<g>
</g>
</g>
<g clip-path="url(#ID000001)" id="ID000168">
<rect stroke-dasharray="none" stroke-width="0.5pt" stroke="#899876" fill="#899876" ry="0.000" rx="0.000" height="16.694" width="3.140" y="229.443" x="902.570"></rect>
</g>
<g clip-path="url(#ID000001)" id="ID000169">
      <polyline points="905.710,237.790 908.223,237.790" stroke-dasharray="none" stroke-width="0.5pt" stroke="#000000" fill="none"></polyline>
<g>
</g>
</g>
<g clip-path="url(#ID000001)" id="ID000170">
      <polyline points="908.223,237.790 911.153,237.790" stroke-dasharray="none" stroke-width="0.5pt" stroke="#000000" fill="none"></polyline>
<g>
</g>
</g>
<g clip-path="url(#ID000001)" id="ID000171">
<rect stroke-dasharray="none" stroke-width="0.5pt" stroke="#ea9b51" fill="#ea9b51" ry="0.000" rx="0.000" height="16.694" width="4.187" y="229.443" x="911.153"></rect>
</g>
<g clip-path="url(#ID000001)" id="ID000172">
      <polyline points="915.341,237.790 917.853,237.790" stroke-dasharray="none" stroke-width="0.5pt" stroke="#000000" fill="none"></polyline>
<g>
</g>
</g>
<g clip-path="url(#ID000001)" id="ID000173">
<rect stroke-dasharray="none" stroke-width="0.5pt" stroke="#899876" fill="#899876" ry="0.000" rx="0.000" height="16.694" width="2.094" y="229.443" x="917.853"></rect>
</g>
<g clip-path="url(#ID000001)" id="ID000174">
      <polyline points="919.946,237.790 927.902,237.790" stroke-dasharray="none" stroke-width="0.5pt" stroke="#000000" fill="none"></polyline>
<g>
</g>
</g>
<g clip-path="url(#ID000001)" id="ID000175">
      <polyline points="927.902,237.790 930.623,237.790" stroke-dasharray="none" stroke-width="0.5pt" stroke="#000000" fill="none"></polyline>
<g>
</g>
</g>
<g clip-path="url(#ID000001)" id="ID000176">
<rect stroke-dasharray="none" stroke-width="0.5pt" stroke="#0088b5" fill="#0088b5" ry="0.000" rx="0.000" height="16.694" width="8.898" y="229.443" x="930.623"></rect>
</g>
<g clip-path="url(#ID000001)" id="ID000177">
      <polyline points="939.521,237.790 940.840,237.790" stroke-dasharray="none" stroke-width="0.5pt" stroke="#000000" fill="none"></polyline>
<g>
</g>
</g>
<g clip-path="url(#ID000001)" id="ID000178">
<rect stroke-dasharray="none" stroke-width="0.5pt" stroke="#0088b5" fill="#0088b5" ry="0.000" rx="0.000" height="16.694" width="5.443" y="229.443" x="940.840"></rect>
</g>
<g clip-path="url(#ID000001)" id="ID000179">
      <polyline points="946.283,237.790 947.602,237.790" stroke-dasharray="none" stroke-width="0.5pt" stroke="#000000" fill="none"></polyline>
<g>
</g>
</g>
<g clip-path="url(#ID000001)" id="ID000180">
<rect stroke-dasharray="none" stroke-width="0.5pt" stroke="#0088b5" fill="#0088b5" ry="0.000" rx="0.000" height="16.694" width="8.898" y="229.443" x="947.602"></rect>
</g>
<g clip-path="url(#ID000001)" id="ID000181">
      <polyline points="956.500,237.790 971.782,237.790" stroke-dasharray="none" stroke-width="0.5pt" stroke="#000000" fill="none"></polyline>
<g>
</g>
</g>
<g clip-path="url(#ID000001)" id="ID000182">
<rect stroke-dasharray="none" stroke-width="0.5pt" stroke="#ea9b51" fill="#ea9b51" ry="0.000" rx="0.000" height="16.694" width="4.187" y="229.443" x="971.782"></rect>
</g>
<g clip-path="url(#ID000001)" id="ID000183">
      <polyline points="975.969,237.790 978.900,237.790" stroke-dasharray="none" stroke-width="0.5pt" stroke="#000000" fill="none"></polyline>
<g>
</g>
</g>
<g clip-path="url(#ID000001)" id="ID000184">
      <polyline points="978.900,237.790 981.413,237.790" stroke-dasharray="none" stroke-width="0.5pt" stroke="#000000" fill="none"></polyline>
<g>
</g>
</g>
<g clip-path="url(#ID000001)" id="ID000185">
<rect stroke-dasharray="none" stroke-width="0.5pt" stroke="#899876" fill="#899876" ry="0.000" rx="0.000" height="16.694" width="3.140" y="229.443" x="981.413"></rect>
</g>
<g clip-path="url(#ID000001)" id="ID000186">
      <polyline points="984.553,237.790 989.368,237.790" stroke-dasharray="none" stroke-width="0.5pt" stroke="#000000" fill="none"></polyline>
<g>
</g>
</g>
<g clip-path="url(#ID000001)" id="ID000187">
<rect stroke-dasharray="none" stroke-width="0.5pt" stroke="#ea9b51" fill="#ea9b51" ry="0.000" rx="0.000" height="16.694" width="4.187" y="229.443" x="989.368"></rect>
</g>
<g clip-path="url(#ID000001)" id="ID000188">
      <polyline points="993.555,237.790 997.114,237.790" stroke-dasharray="none" stroke-width="0.5pt" stroke="#000000" fill="none"></polyline>
<g>
</g>
</g>
<g clip-path="url(#ID000001)" id="ID000189">
<rect stroke-dasharray="none" stroke-width="0.5pt" stroke="#899876" fill="#899876" ry="0.000" rx="0.000" height="16.694" width="3.140" y="229.443" x="997.114"></rect>
</g>
<g clip-path="url(#ID000001)" id="ID000190">
      <polyline points="1000.254,237.790 1002.557,237.790" stroke-dasharray="none" stroke-width="0.5pt" stroke="#000000" fill="none"></polyline>
<g>
</g>
</g>
<g clip-path="url(#ID000001)" id="ID000191">
<rect stroke-dasharray="none" stroke-width="0.5pt" stroke="#899876" fill="#899876" ry="0.000" rx="0.000" height="16.694" width="2.094" y="229.443" x="1002.557"></rect>
</g>
<g clip-path="url(#ID000001)" id="ID000192">
      <polyline points="1004.651,237.790 1009.885,237.790" stroke-dasharray="none" stroke-width="0.5pt" stroke="#000000" fill="none"></polyline>
<g>
</g>
</g>
<g clip-path="url(#ID000001)" id="ID000193">
<rect stroke-dasharray="none" stroke-width="0.5pt" stroke="#0088b5" fill="#0088b5" ry="0.000" rx="0.000" height="16.694" width="25.771" y="229.443" x="1009.885"></rect>
</g>
<g clip-path="url(#ID000001)" id="ID000194">
      <polyline points="1035.656,237.790 1042.774,237.790" stroke-dasharray="none" stroke-width="0.5pt" stroke="#000000" fill="none"></polyline>
<g>
</g>
</g>
<g clip-path="url(#ID000001)" id="ID000195">
<rect stroke-dasharray="none" stroke-width="0.5pt" stroke="#899876" fill="#899876" ry="0.000" rx="0.000" height="16.694" width="3.140" y="229.443" x="1042.774"></rect>
</g>
<g clip-path="url(#ID000001)" id="ID000196">
      <polyline points="1045.915,237.790 1049.474,237.790" stroke-dasharray="none" stroke-width="0.5pt" stroke="#000000" fill="none"></polyline>
<g>
</g>
</g>
<g clip-path="url(#ID000001)" id="ID000197">
<rect stroke-dasharray="none" stroke-width="0.5pt" stroke="#ea9b51" fill="#ea9b51" ry="0.000" rx="0.000" height="16.694" width="4.187" y="229.443" x="1049.474"></rect>
</g>
<g clip-path="url(#ID000001)" id="ID000198">
      <polyline points="1053.661,237.790 1058.476,237.790" stroke-dasharray="none" stroke-width="0.5pt" stroke="#000000" fill="none"></polyline>
<g>
</g>
</g>
<g clip-path="url(#ID000001)" id="ID000199">
<rect stroke-dasharray="none" stroke-width="0.5pt" stroke="#899876" fill="#899876" ry="0.000" rx="0.000" height="16.694" width="3.140" y="229.443" x="1058.476"></rect>
</g>
<g clip-path="url(#ID000001)" id="ID000200">
      <polyline points="1061.616,237.790 1064.128,237.790" stroke-dasharray="none" stroke-width="0.5pt" stroke="#000000" fill="none"></polyline>
<g>
</g>
</g>
<g clip-path="url(#ID000001)" id="ID000201">
      <polyline points="1064.128,237.790 1067.059,237.790" stroke-dasharray="none" stroke-width="0.5pt" stroke="#000000" fill="none"></polyline>
<g>
</g>
</g>
<g clip-path="url(#ID000001)" id="ID000202">
<rect stroke-dasharray="none" stroke-width="0.5pt" stroke="#ea9b51" fill="#ea9b51" ry="0.000" rx="0.000" height="16.694" width="4.187" y="229.443" x="1067.059"></rect>
</g>
<g clip-path="url(#ID000001)" id="ID000203">
      <polyline points="1071.246,237.790 1074.805,237.790" stroke-dasharray="none" stroke-width="0.5pt" stroke="#000000" fill="none"></polyline>
<g>
</g>
</g>
<g clip-path="url(#ID000001)" id="ID000204">
<rect stroke-dasharray="none" stroke-width="0.5pt" stroke="#899876" fill="#899876" ry="0.000" rx="0.000" height="16.694" width="3.140" y="229.443" x="1074.805"></rect>
</g>
<g clip-path="url(#ID000001)" id="ID000205">
      <polyline points="1077.946,237.790 1087.995,237.790" stroke-dasharray="none" stroke-width="0.5pt" stroke="#000000" fill="none"></polyline>
<g>
</g>
</g>
<g clip-path="url(#ID000001)" id="ID000206">
      <polyline points="1087.995,237.790 1090.716,237.790" stroke-dasharray="none" stroke-width="0.5pt" stroke="#000000" fill="none"></polyline>
<g>
</g>
</g>
<g clip-path="url(#ID000001)" id="ID000207">
<rect stroke-dasharray="none" stroke-width="0.5pt" stroke="#0088b5" fill="#0088b5" ry="0.000" rx="0.000" height="16.694" width="17.334" y="229.443" x="1090.716"></rect>
</g>
<g clip-path="url(#ID000001)" id="ID000208">
      <polyline points="1108.051,237.790 1112.029,237.790" stroke-dasharray="none" stroke-width="0.5pt" stroke="#000000" fill="none"></polyline>
<g>
</g>
</g>
<g clip-path="url(#ID000001)" id="ID000209">
<rect stroke-dasharray="none" stroke-width="0.5pt" stroke="#899876" fill="#899876" ry="0.000" rx="0.000" height="16.694" width="3.140" y="229.443" x="1112.029"></rect>
</g>
<g clip-path="url(#ID000001)" id="ID000210">
      <polyline points="1115.169,237.790 1118.309,237.790" stroke-dasharray="none" stroke-width="0.5pt" stroke="#000000" fill="none"></polyline>
<g>
</g>
</g>
<g clip-path="url(#ID000001)" id="ID000211">
<rect stroke-dasharray="none" stroke-width="0.5pt" stroke="#ea9b51" fill="#ea9b51" ry="0.000" rx="0.000" height="16.694" width="2.931" y="229.443" x="1118.309"></rect>
</g>
<g clip-path="url(#ID000001)" id="ID000212">
      <polyline points="1121.240,237.790 1126.265,237.790" stroke-dasharray="none" stroke-width="0.5pt" stroke="#000000" fill="none"></polyline>
<g>
</g>
</g>
<g clip-path="url(#ID000001)" id="ID000213">
<rect stroke-dasharray="none" stroke-width="0.5pt" stroke="#ea9b51" fill="#ea9b51" ry="0.000" rx="0.000" height="16.694" width="4.187" y="229.443" x="1126.265"></rect>
</g>
<g clip-path="url(#ID000001)" id="ID000214">
      <polyline points="1130.452,237.790 1133.383,237.790" stroke-dasharray="none" stroke-width="0.5pt" stroke="#000000" fill="none"></polyline>
<g>
</g>
</g>
<g clip-path="url(#ID000001)" id="ID000215">
      <polyline points="1133.383,237.790 1135.895,237.790" stroke-dasharray="none" stroke-width="0.5pt" stroke="#000000" fill="none"></polyline>
<g>
</g>
</g>
<g clip-path="url(#ID000001)" id="ID000216">
<rect stroke-dasharray="none" stroke-width="0.5pt" stroke="#899876" fill="#899876" ry="0.000" rx="0.000" height="16.694" width="3.140" y="229.443" x="1135.895"></rect>
</g>
<g clip-path="url(#ID000001)" id="ID000217">
      <polyline points="1139.035,237.790 1141.338,237.790" stroke-dasharray="none" stroke-width="0.5pt" stroke="#000000" fill="none"></polyline>
<g>
</g>
</g>
<g clip-path="url(#ID000001)" id="ID000218">
<rect stroke-dasharray="none" stroke-width="0.5pt" stroke="#899876" fill="#899876" ry="0.000" rx="0.000" height="16.694" width="2.094" y="229.443" x="1141.338"></rect>
</g>
<g clip-path="url(#ID000001)" id="ID000219">
      <polyline points="1143.432,237.790 1193.947,237.790" stroke-dasharray="none" stroke-width="0.5pt" stroke="#000000" fill="none"></polyline>
<g>
</g>
</g>
<g clip-path="url(#ID000001)" id="ID000220">
      <polyline points="1193.947,237.790 1235.817,237.790" stroke-dasharray="none" stroke-width="0.5pt" stroke="#000000" fill="none"></polyline>
<g>
</g>
</g>
<g id="ID000221">
</g>
    </g>
    <g>
      <polyline points="338.954,458.990 338.954,448.104" stroke-dasharray="none" stroke-width="0.5pt" stroke="#000000" fill="none"></polyline>
      <polyline points="548.308,458.990 548.308,448.104" stroke-dasharray="none" stroke-width="0.5pt" stroke="#000000" fill="none"></polyline>
      <polyline points="757.662,458.990 757.662,448.104" stroke-dasharray="none" stroke-width="0.5pt" stroke="#000000" fill="none"></polyline>
      <polyline points="967.015,458.990 967.015,448.104" stroke-dasharray="none" stroke-width="0.5pt" stroke="#000000" fill="none"></polyline>
      <polyline points="1176.369,458.990 1176.369,448.104" stroke-dasharray="none" stroke-width="0.5pt" stroke="#000000" fill="none"></polyline>
      <polyline points="129.600,458.990 1218.240,458.990" stroke-dasharray="none" stroke-width="0.5pt" stroke="#000000" fill="none"></polyline>
      <polyline points="338.954,16.590 338.954,27.476" stroke-dasharray="none" stroke-width="0.5pt" stroke="#000000" fill="none"></polyline>
      <polyline points="548.308,16.590 548.308,27.476" stroke-dasharray="none" stroke-width="0.5pt" stroke="#000000" fill="none"></polyline>
      <polyline points="757.662,16.590 757.662,27.476" stroke-dasharray="none" stroke-width="0.5pt" stroke="#000000" fill="none"></polyline>
      <polyline points="967.015,16.590 967.015,27.476" stroke-dasharray="none" stroke-width="0.5pt" stroke="#000000" fill="none"></polyline>
      <polyline points="1176.369,16.590 1176.369,27.476" stroke-dasharray="none" stroke-width="0.5pt" stroke="#000000" fill="none"></polyline>
      <polyline points="129.600,16.590 1218.240,16.590" stroke-dasharray="none" stroke-width="0.5pt" stroke="#000000" fill="none"></polyline>
  <g transform="translate(129.600,494.242)">
    <g transform="rotate(-0.0)">
      <text fill="#000000" font-size="28pt" text-anchor="middle" font-family="Helvetica" y="0.000" x="0.000">0</text>
    </g>
  </g>
  <g transform="translate(338.954,494.242)">
    <g transform="rotate(-0.0)">
      <text fill="#000000" font-size="28pt" text-anchor="middle" font-family="Helvetica" y="0.000" x="0.000">10</text>
    </g>
  </g>
  <g transform="translate(548.308,494.242)">
    <g transform="rotate(-0.0)">
      <text fill="#000000" font-size="28pt" text-anchor="middle" font-family="Helvetica" y="0.000" x="0.000">20</text>
    </g>
  </g>
  <g transform="translate(757.662,494.242)">
    <g transform="rotate(-0.0)">
      <text fill="#000000" font-size="28pt" text-anchor="middle" font-family="Helvetica" y="0.000" x="0.000">30</text>
    </g>
  </g>
  <g transform="translate(967.015,494.242)">
    <g transform="rotate(-0.0)">
      <text fill="#000000" font-size="28pt" text-anchor="middle" font-family="Helvetica" y="0.000" x="0.000">40</text>
    </g>
  </g>
  <g transform="translate(1176.369,494.242)">
    <g transform="rotate(-0.0)">
      <text fill="#000000" font-size="28pt" text-anchor="middle" font-family="Helvetica" y="0.000" x="0.000">50</text>
    </g>
  </g>
      <polyline points="129.600,446.469 140.486,446.469" stroke-dasharray="none" stroke-width="0.5pt" stroke="#000000" fill="none"></polyline>
      <polyline points="129.600,342.130 140.486,342.130" stroke-dasharray="none" stroke-width="0.5pt" stroke="#000000" fill="none"></polyline>
      <polyline points="129.600,237.790 140.486,237.790" stroke-dasharray="none" stroke-width="0.5pt" stroke="#000000" fill="none"></polyline>
      <polyline points="129.600,133.450 140.486,133.450" stroke-dasharray="none" stroke-width="0.5pt" stroke="#000000" fill="none"></polyline>
      <polyline points="129.600,29.111 140.486,29.111" stroke-dasharray="none" stroke-width="0.5pt" stroke="#000000" fill="none"></polyline>
      <polyline points="129.600,458.990 129.600,16.590" stroke-dasharray="none" stroke-width="0.5pt" stroke="#000000" fill="none"></polyline>
      <polyline points="1218.240,446.469 1207.354,446.469" stroke-dasharray="none" stroke-width="0.5pt" stroke="#000000" fill="none"></polyline>
      <polyline points="1218.240,342.130 1207.354,342.130" stroke-dasharray="none" stroke-width="0.5pt" stroke="#000000" fill="none"></polyline>
      <polyline points="1218.240,237.790 1207.354,237.790" stroke-dasharray="none" stroke-width="0.5pt" stroke="#000000" fill="none"></polyline>
      <polyline points="1218.240,133.450 1207.354,133.450" stroke-dasharray="none" stroke-width="0.5pt" stroke="#000000" fill="none"></polyline>
      <polyline points="1218.240,29.111 1207.354,29.111" stroke-dasharray="none" stroke-width="0.5pt" stroke="#000000" fill="none"></polyline>
      <polyline points="1218.240,458.990 1218.240,16.590" stroke-dasharray="none" stroke-width="0.5pt" stroke="#000000" fill="none"></polyline>
  <g transform="translate(124.157,459.069)">
    <g transform="rotate(-0.0)">
      <text fill="#000000" font-size="28pt" text-anchor="end" font-family="Helvetica" y="0.000" x="0.000">-5</text>
    </g>
  </g>
  <g transform="translate(124.157,354.730)">
    <g transform="rotate(-0.0)">
      <text fill="#000000" font-size="28pt" text-anchor="end" font-family="Helvetica" y="0.000" x="0.000">-2.5</text>
    </g>
  </g>
  <g transform="translate(124.157,250.390)">
    <g transform="rotate(-0.0)">
      <text fill="#000000" font-size="28pt" text-anchor="end" font-family="Helvetica" y="0.000" x="0.000">0</text>
    </g>
  </g>
  <g transform="translate(124.157,146.050)">
    <g transform="rotate(-0.0)">
      <text fill="#000000" font-size="28pt" text-anchor="end" font-family="Helvetica" y="0.000" x="0.000">2.5</text>
    </g>
  </g>
  <g transform="translate(124.157,41.711)">
    <g transform="rotate(-0.0)">
      <text fill="#000000" font-size="28pt" text-anchor="end" font-family="Helvetica" y="0.000" x="0.000">5</text>
    </g>
  </g>
      <polyline points="129.600,458.990 129.600,454.566" stroke-dasharray="none" stroke-width="0.5pt" stroke="#000000" fill="none"></polyline>
      <polyline points="129.600,458.990 129.600,458.990" stroke-dasharray="none" stroke-width="0.5pt" stroke="#000000" fill="none"></polyline>
    </g>
  </g>
  <g id="ID000222">
  <clipPath id="ID000223">
    <rect height="553.000" width="1296.000" y="0.000" x="0.000"></rect>
  </clipPath>
    <g>
    </g>
  </g>
  </g>
</svg>
