<?xml version="1.0"?>
<!-- Created by MetaPost 1.803 on 2015.08.21:1605 -->
<svg version="1.1" xmlns="http://www.w3.org/2000/svg" xmlns:xlink="http://www.w3.org/1999/xlink" width="659.051620" height="387.498444" viewBox="0 0 659.051620 387.498444">
<!-- Original BoundingBox: -287.291107 -332.644745 371.760513 54.853699 -->
  <defs>
    <g transform="scale(0.009963,0.009963)" id="GLYPHptmr8r_32">
      <path style="fill-rule: evenodd;" d=""></path>
    </g>
    <g transform="scale(0.009963,0.009963)" id="GLYPHptmr8r_65">
      <path style="fill-rule: evenodd;" d="M706.000000 -19.000000C661.000000 -22.000000,651.000000 -32.000000,616.000000 -106.000000L367.000000 -674.000000L347.000000 -674.000000L139.000000 -183.000000C75.000000 -37.000000,63.000000 -21.000000,15.000000 -19.000000L15.000000 -0.000000L213.000000 -0.000000L213.000000 -19.000000C165.000000 -19.000000,145.000000 -32.000000,145.000000 -60.000000C145.000000 -72.000000,148.000000 -86.000000,153.000000 -99.000000L199.000000 -216.000000L461.000000 -216.000000L502.000000 -120.000000C514.000000 -93.000000,521.000000 -67.000000,521.000000 -53.000000C521.000000 -28.000000,504.000000 -20.000000,451.000000 -19.000000L451.000000 -0.000000L706.000000 -0.000000M216.000000 -257.000000L331.000000 -532.000000L447.000000 -257.000000"></path>
    </g>
    <g transform="scale(0.009963,0.009963)" id="GLYPHptmr8r_67">
      <path style="fill-rule: evenodd;" d="M620.000000 -450.000000L611.000000 -676.000000L590.000000 -676.000000C584.000000 -655.000000,568.000000 -643.000000,548.000000 -643.000000C539.000000 -643.000000,524.000000 -646.000000,509.000000 -652.000000C460.000000 -668.000000,410.000000 -676.000000,363.000000 -676.000000C281.000000 -676.000000,198.000000 -645.000000,136.000000 -590.000000C66.000000 -528.000000,28.000000 -435.000000,28.000000 -325.000000C28.000000 -232.000000,58.000000 -146.000000,109.000000 -89.000000C169.000000 -24.000000,261.000000 14.000000,360.000000 14.000000C473.000000 14.000000,572.000000 -32.000000,633.000000 -113.000000L615.000000 -131.000000C541.000000 -60.000000,475.000000 -30.000000,392.000000 -30.000000C329.000000 -30.000000,273.000000 -50.000000,230.000000 -88.000000C175.000000 -137.000000,144.000000 -227.000000,144.000000 -338.000000C144.000000 -519.000000,237.000000 -636.000000,382.000000 -636.000000C439.000000 -636.000000,491.000000 -615.000000,531.000000 -575.000000C563.000000 -543.000000,578.000000 -515.000000,597.000000 -450.000000"></path>
    </g>
    <g transform="scale(0.009963,0.009963)" id="GLYPHptmr8r_72">
      <path style="fill-rule: evenodd;" d="M209.000000 -359.000000L209.000000 -553.000000C209.000000 -625.000000,220.000000 -636.000000,297.000000 -643.000000L297.000000 -662.000000L19.000000 -662.000000L19.000000 -643.000000C96.000000 -636.000000,107.000000 -625.000000,107.000000 -553.000000L107.000000 -120.000000C107.000000 -36.000000,97.000000 -24.000000,19.000000 -19.000000L19.000000 -0.000000L297.000000 -0.000000L297.000000 -19.000000C222.000000 -25.000000,209.000000 -38.000000,209.000000 -109.000000L209.000000 -315.000000L512.000000 -315.000000L512.000000 -120.000000C512.000000 -36.000000,502.000000 -24.000000,424.000000 -19.000000L424.000000 -0.000000L702.000000 -0.000000L702.000000 -19.000000C627.000000 -25.000000,614.000000 -38.000000,614.000000 -109.000000L614.000000 -553.000000C614.000000 -625.000000,625.000000 -636.000000,702.000000 -643.000000L702.000000 -662.000000L424.000000 -662.000000L424.000000 -643.000000C501.000000 -636.000000,512.000000 -625.000000,512.000000 -553.000000L512.000000 -359.000000"></path>
    </g>
    <g transform="scale(0.009963,0.009963)" id="GLYPHptmr8r_73">
      <path style="fill-rule: evenodd;" d="M115.000000 -109.000000C115.000000 -34.000000,102.000000 -22.000000,18.000000 -19.000000L18.000000 -0.000000L315.000000 -0.000000L315.000000 -19.000000C233.000000 -22.000000,217.000000 -36.000000,217.000000 -109.000000L217.000000 -553.000000C217.000000 -626.000000,231.000000 -639.000000,315.000000 -643.000000L315.000000 -662.000000L18.000000 -662.000000L18.000000 -643.000000C103.000000 -638.000000,115.000000 -627.000000,115.000000 -553.000000"></path>
    </g>
    <g transform="scale(0.009963,0.009963)" id="GLYPHptmr8r_76">
      <path style="fill-rule: evenodd;" d="M573.000000 -174.000000C556.000000 -136.000000,542.000000 -113.000000,527.000000 -96.000000C492.000000 -57.000000,437.000000 -39.000000,354.000000 -39.000000L287.000000 -39.000000C214.000000 -39.000000,201.000000 -45.000000,201.000000 -80.000000L201.000000 -553.000000C201.000000 -624.000000,215.000000 -638.000000,294.000000 -643.000000L294.000000 -662.000000L12.000000 -662.000000L12.000000 -643.000000C86.000000 -637.000000,99.000000 -623.000000,99.000000 -553.000000L99.000000 -109.000000C99.000000 -39.000000,85.000000 -24.000000,12.000000 -19.000000L12.000000 -0.000000L550.000000 -0.000000L598.000000 -174.000000"></path>
    </g>
    <g transform="scale(0.009963,0.009963)" id="GLYPHptmr8r_77">
      <path style="fill-rule: evenodd;" d="M674.000000 -573.000000L674.000000 -120.000000C674.000000 -37.000000,662.000000 -24.000000,583.000000 -19.000000L583.000000 -0.000000L863.000000 -0.000000L863.000000 -19.000000C790.000000 -24.000000,776.000000 -38.000000,776.000000 -109.000000L776.000000 -553.000000C776.000000 -624.000000,789.000000 -637.000000,863.000000 -643.000000L863.000000 -662.000000L664.000000 -662.000000L443.000000 -157.000000L212.000000 -662.000000L14.000000 -662.000000L14.000000 -643.000000C96.000000 -638.000000,109.000000 -626.000000,109.000000 -553.000000L109.000000 -147.000000C109.000000 -44.000000,95.000000 -25.000000,12.000000 -19.000000L12.000000 -0.000000L247.000000 -0.000000L247.000000 -19.000000C170.000000 -23.000000,153.000000 -46.000000,153.000000 -147.000000L153.000000 -550.000000L404.000000 -0.000000L418.000000 -0.000000"></path>
    </g>
    <g transform="scale(0.009963,0.009963)" id="GLYPHptmr8r_79">
      <path style="fill-rule: evenodd;" d="M361.000000 -676.000000C170.000000 -676.000000,34.000000 -532.000000,34.000000 -331.000000C34.000000 -237.000000,66.000000 -146.000000,120.000000 -88.000000C178.000000 -25.000000,267.000000 14.000000,355.000000 14.000000C552.000000 14.000000,688.000000 -126.000000,688.000000 -327.000000C688.000000 -426.000000,659.000000 -511.000000,604.000000 -571.000000C541.000000 -640.000000,457.000000 -676.000000,361.000000 -676.000000M361.000000 -640.000000C407.000000 -640.000000,453.000000 -622.000000,489.000000 -590.000000C543.000000 -541.000000,574.000000 -447.000000,574.000000 -328.000000C574.000000 -269.000000,561.000000 -200.000000,541.000000 -148.000000C532.000000 -123.000000,515.000000 -98.000000,492.000000 -75.000000C457.000000 -40.000000,412.000000 -22.000000,359.000000 -22.000000C313.000000 -22.000000,268.000000 -40.000000,233.000000 -71.000000C181.000000 -117.000000,148.000000 -218.000000,148.000000 -329.000000C148.000000 -431.000000,176.000000 -528.000000,218.000000 -575.000000C257.000000 -618.000000,306.000000 -640.000000,361.000000 -640.000000"></path>
    </g>
    <g transform="scale(0.009963,0.009963)" id="GLYPHptmr8r_80">
      <path style="fill-rule: evenodd;" d="M202.000000 -291.000000C228.000000 -289.000000,245.000000 -288.000000,271.000000 -288.000000C349.000000 -288.000000,403.000000 -298.000000,446.000000 -322.000000C506.000000 -354.000000,542.000000 -415.000000,542.000000 -481.000000C542.000000 -523.000000,528.000000 -561.000000,501.000000 -590.000000C461.000000 -634.000000,374.000000 -662.000000,280.000000 -662.000000L16.000000 -662.000000L16.000000 -643.000000C90.000000 -635.000000,100.000000 -625.000000,100.000000 -553.000000L100.000000 -120.000000C100.000000 -36.000000,92.000000 -26.000000,16.000000 -19.000000L16.000000 -0.000000L296.000000 -0.000000L296.000000 -19.000000C217.000000 -22.000000,202.000000 -36.000000,202.000000 -109.000000M202.000000 -591.000000C202.000000 -618.000000,209.000000 -625.000000,236.000000 -625.000000C371.000000 -625.000000,433.000000 -578.000000,433.000000 -475.000000C433.000000 -378.000000,374.000000 -328.000000,259.000000 -328.000000C239.000000 -328.000000,225.000000 -329.000000,202.000000 -331.000000"></path>
    </g>
    <g transform="scale(0.009963,0.009963)" id="GLYPHptmr8r_86">
      <path style="fill-rule: evenodd;" d="M697.000000 -662.000000L492.000000 -662.000000L492.000000 -643.000000C547.000000 -640.000000,565.000000 -629.000000,565.000000 -601.000000C565.000000 -585.000000,558.000000 -558.000000,546.000000 -528.000000L399.000000 -161.000000L248.000000 -499.000000C215.000000 -572.000000,207.000000 -595.000000,207.000000 -610.000000C207.000000 -629.000000,221.000000 -639.000000,253.000000 -641.000000C257.000000 -641.000000,268.000000 -642.000000,282.000000 -643.000000L282.000000 -662.000000L16.000000 -662.000000L16.000000 -643.000000C65.000000 -641.000000,79.000000 -627.000000,122.000000 -538.000000L368.000000 11.000000L383.000000 11.000000L605.000000 -550.000000C638.000000 -629.000000,649.000000 -640.000000,697.000000 -643.000000"></path>
    </g>
    <g transform="scale(0.009963,0.009963)" id="GLYPHptmr8r_87">
      <path style="fill-rule: evenodd;" d="M932.000000 -662.000000L734.000000 -662.000000L734.000000 -643.000000C785.000000 -638.000000,803.000000 -627.000000,803.000000 -600.000000C803.000000 -579.000000,797.000000 -553.000000,787.000000 -525.000000L662.000000 -186.000000L530.000000 -527.000000C528.000000 -532.000000,519.000000 -554.000000,518.000000 -557.000000C509.000000 -578.000000,503.000000 -597.000000,503.000000 -608.000000C503.000000 -632.000000,526.000000 -642.000000,580.000000 -643.000000L580.000000 -662.000000L313.000000 -662.000000L313.000000 -643.000000C370.000000 -642.000000,380.000000 -633.000000,414.000000 -553.000000L447.000000 -471.000000L340.000000 -189.000000L196.000000 -565.000000C189.000000 -583.000000,185.000000 -600.000000,185.000000 -611.000000C185.000000 -633.000000,199.000000 -640.000000,250.000000 -643.000000L250.000000 -662.000000L5.000000 -662.000000L5.000000 -643.000000C56.000000 -638.000000,71.000000 -620.000000,108.000000 -526.000000L301.000000 11.000000L316.000000 11.000000L470.000000 -412.000000L630.000000 11.000000L645.000000 11.000000C730.000000 -250.000000,740.000000 -278.000000,849.000000 -572.000000C868.000000 -624.000000,879.000000 -633.000000,932.000000 -643.000000"></path>
    </g>
    <g transform="scale(0.009963,0.009963)" id="GLYPHptmr8r_97">
      <path style="fill-rule: evenodd;" d="M442.000000 -66.000000C425.000000 -52.000000,413.000000 -47.000000,398.000000 -47.000000C375.000000 -47.000000,368.000000 -61.000000,368.000000 -105.000000L368.000000 -300.000000C368.000000 -352.000000,363.000000 -381.000000,348.000000 -405.000000C326.000000 -441.000000,283.000000 -460.000000,224.000000 -460.000000C130.000000 -460.000000,56.000000 -411.000000,56.000000 -348.000000C56.000000 -325.000000,76.000000 -305.000000,99.000000 -305.000000C123.000000 -305.000000,144.000000 -325.000000,144.000000 -347.000000C144.000000 -351.000000,143.000000 -356.000000,142.000000 -363.000000C140.000000 -372.000000,139.000000 -380.000000,139.000000 -387.000000C139.000000 -414.000000,171.000000 -436.000000,211.000000 -436.000000C260.000000 -436.000000,287.000000 -407.000000,287.000000 -353.000000L287.000000 -292.000000C133.000000 -230.000000,116.000000 -222.000000,73.000000 -184.000000C51.000000 -164.000000,37.000000 -130.000000,37.000000 -97.000000C37.000000 -34.000000,81.000000 10.000000,142.000000 10.000000C186.000000 10.000000,227.000000 -11.000000,288.000000 -63.000000C293.000000 -11.000000,311.000000 10.000000,352.000000 10.000000C386.000000 10.000000,407.000000 -2.000000,442.000000 -40.000000M287.000000 -123.000000C287.000000 -92.000000,282.000000 -83.000000,261.000000 -71.000000C237.000000 -57.000000,209.000000 -48.000000,188.000000 -48.000000C153.000000 -48.000000,125.000000 -82.000000,125.000000 -125.000000L125.000000 -129.000000C125.000000 -188.000000,166.000000 -224.000000,287.000000 -268.000000"></path>
    </g>
    <g transform="scale(0.009963,0.009963)" id="GLYPHptmr8r_99">
      <path style="fill-rule: evenodd;" d="M398.000000 -156.000000C350.000000 -86.000000,314.000000 -62.000000,257.000000 -62.000000C166.000000 -62.000000,102.000000 -142.000000,102.000000 -257.000000C102.000000 -360.000000,157.000000 -431.000000,238.000000 -431.000000C274.000000 -431.000000,287.000000 -420.000000,297.000000 -383.000000L303.000000 -361.000000C311.000000 -333.000000,329.000000 -315.000000,350.000000 -315.000000C376.000000 -315.000000,398.000000 -334.000000,398.000000 -357.000000C398.000000 -413.000000,328.000000 -460.000000,244.000000 -460.000000C195.000000 -460.000000,144.000000 -440.000000,103.000000 -404.000000C53.000000 -360.000000,25.000000 -292.000000,25.000000 -213.000000C25.000000 -83.000000,104.000000 10.000000,215.000000 10.000000C260.000000 10.000000,300.000000 -6.000000,336.000000 -37.000000C363.000000 -61.000000,382.000000 -88.000000,412.000000 -147.000000"></path>
    </g>
    <g transform="scale(0.009963,0.009963)" id="GLYPHptmr8r_100">
      <path style="fill-rule: evenodd;" d="M344.000000 10.000000L491.000000 -42.000000L491.000000 -58.000000C473.000000 -57.000000,471.000000 -57.000000,468.000000 -57.000000C432.000000 -57.000000,424.000000 -68.000000,424.000000 -114.000000L424.000000 -681.000000L419.000000 -683.000000C371.000000 -666.000000,336.000000 -656.000000,272.000000 -639.000000L272.000000 -623.000000C280.000000 -624.000000,286.000000 -624.000000,294.000000 -624.000000C331.000000 -624.000000,340.000000 -614.000000,340.000000 -573.000000L340.000000 -417.000000C302.000000 -449.000000,275.000000 -460.000000,235.000000 -460.000000C120.000000 -460.000000,27.000000 -347.000000,27.000000 -205.000000C27.000000 -77.000000,102.000000 10.000000,212.000000 10.000000C268.000000 10.000000,306.000000 -10.000000,340.000000 -57.000000L340.000000 7.000000M340.000000 -102.000000C340.000000 -95.000000,333.000000 -83.000000,323.000000 -72.000000C305.000000 -52.000000,280.000000 -42.000000,251.000000 -42.000000C168.000000 -42.000000,113.000000 -122.000000,113.000000 -245.000000C113.000000 -358.000000,162.000000 -432.000000,238.000000 -432.000000C291.000000 -432.000000,340.000000 -385.000000,340.000000 -332.000000"></path>
    </g>
    <g transform="scale(0.009963,0.009963)" id="GLYPHptmr8r_101">
      <path style="fill-rule: evenodd;" d="M408.000000 -164.000000C360.000000 -88.000000,317.000000 -59.000000,253.000000 -59.000000C196.000000 -59.000000,153.000000 -88.000000,124.000000 -145.000000C106.000000 -183.000000,99.000000 -216.000000,97.000000 -277.000000L405.000000 -277.000000C397.000000 -342.000000,387.000000 -371.000000,362.000000 -403.000000C332.000000 -439.000000,286.000000 -460.000000,234.000000 -460.000000C184.000000 -460.000000,137.000000 -442.000000,99.000000 -408.000000C52.000000 -367.000000,25.000000 -296.000000,25.000000 -214.000000C25.000000 -76.000000,97.000000 10.000000,212.000000 10.000000C307.000000 10.000000,382.000000 -49.000000,424.000000 -157.000000M99.000000 -309.000000C110.000000 -387.000000,144.000000 -424.000000,205.000000 -424.000000C266.000000 -424.000000,290.000000 -396.000000,303.000000 -309.000000"></path>
    </g>
    <g transform="scale(0.009963,0.009963)" id="GLYPHptmr8r_104">
      <path style="fill-rule: evenodd;" d="M157.000000 -343.000000C199.000000 -389.000000,229.000000 -406.000000,268.000000 -406.000000C318.000000 -406.000000,343.000000 -370.000000,343.000000 -300.000000L343.000000 -102.000000C343.000000 -34.000000,333.000000 -21.000000,275.000000 -15.000000L275.000000 -0.000000L487.000000 -0.000000L487.000000 -15.000000C433.000000 -25.000000,427.000000 -33.000000,427.000000 -102.000000L427.000000 -301.000000C427.000000 -406.000000,385.000000 -460.000000,304.000000 -460.000000C245.000000 -460.000000,203.000000 -436.000000,157.000000 -376.000000L157.000000 -680.000000L152.000000 -683.000000C118.000000 -671.000000,93.000000 -663.000000,37.000000 -647.000000L10.000000 -639.000000L10.000000 -623.000000C14.000000 -624.000000,17.000000 -624.000000,22.000000 -624.000000C65.000000 -624.000000,73.000000 -616.000000,73.000000 -573.000000L73.000000 -102.000000C73.000000 -32.000000,67.000000 -23.000000,9.000000 -15.000000L9.000000 -0.000000L225.000000 -0.000000L225.000000 -15.000000C167.000000 -21.000000,157.000000 -33.000000,157.000000 -102.000000"></path>
    </g>
    <g transform="scale(0.009963,0.009963)" id="GLYPHptmr8r_108">
      <path style="fill-rule: evenodd;" d="M19.000000 -623.000000L25.000000 -623.000000C36.000000 -624.000000,48.000000 -625.000000,56.000000 -625.000000C88.000000 -625.000000,98.000000 -611.000000,98.000000 -564.000000L98.000000 -87.000000C98.000000 -33.000000,84.000000 -20.000000,21.000000 -15.000000L21.000000 -0.000000L257.000000 -0.000000L257.000000 -15.000000C194.000000 -19.000000,182.000000 -29.000000,182.000000 -84.000000L182.000000 -681.000000L178.000000 -683.000000C126.000000 -666.000000,88.000000 -656.000000,19.000000 -639.000000"></path>
    </g>
    <g transform="scale(0.009963,0.009963)" id="GLYPHptmr8r_110">
      <path style="fill-rule: evenodd;" d="M16.000000 -398.000000C22.000000 -401.000000,32.000000 -402.000000,43.000000 -402.000000C71.000000 -402.000000,80.000000 -387.000000,80.000000 -338.000000L80.000000 -90.000000C80.000000 -33.000000,69.000000 -19.000000,18.000000 -15.000000L18.000000 -0.000000L230.000000 -0.000000L230.000000 -15.000000C179.000000 -19.000000,164.000000 -31.000000,164.000000 -67.000000L164.000000 -348.000000C212.000000 -393.000000,234.000000 -405.000000,267.000000 -405.000000C316.000000 -405.000000,340.000000 -374.000000,340.000000 -308.000000L340.000000 -99.000000C340.000000 -36.000000,327.000000 -19.000000,277.000000 -15.000000L277.000000 -0.000000L485.000000 -0.000000L485.000000 -15.000000C436.000000 -20.000000,424.000000 -32.000000,424.000000 -81.000000L424.000000 -310.000000C424.000000 -404.000000,380.000000 -460.000000,306.000000 -460.000000C260.000000 -460.000000,229.000000 -443.000000,161.000000 -379.000000L161.000000 -458.000000L154.000000 -460.000000C105.000000 -442.000000,71.000000 -431.000000,16.000000 -415.000000"></path>
    </g>
    <g transform="scale(0.009963,0.009963)" id="GLYPHptmr8r_111">
      <path style="fill-rule: evenodd;" d="M250.000000 -460.000000C120.000000 -460.000000,29.000000 -364.000000,29.000000 -226.000000C29.000000 -91.000000,122.000000 10.000000,248.000000 10.000000C374.000000 10.000000,470.000000 -96.000000,470.000000 -234.000000C470.000000 -365.000000,378.000000 -460.000000,250.000000 -460.000000M237.000000 -432.000000C321.000000 -432.000000,380.000000 -336.000000,380.000000 -199.000000C380.000000 -86.000000,335.000000 -18.000000,260.000000 -18.000000C221.000000 -18.000000,184.000000 -42.000000,163.000000 -82.000000C135.000000 -134.000000,119.000000 -204.000000,119.000000 -275.000000C119.000000 -370.000000,166.000000 -432.000000,237.000000 -432.000000"></path>
    </g>
    <g transform="scale(0.009963,0.009963)" id="GLYPHptmr8r_115">
      <path style="fill-rule: evenodd;" d="M315.000000 -314.000000L311.000000 -450.000000L300.000000 -450.000000L298.000000 -448.000000C289.000000 -441.000000,288.000000 -440.000000,284.000000 -440.000000C278.000000 -440.000000,268.000000 -442.000000,257.000000 -447.000000C235.000000 -455.000000,213.000000 -459.000000,187.000000 -459.000000C108.000000 -459.000000,51.000000 -408.000000,51.000000 -336.000000C51.000000 -280.000000,83.000000 -240.000000,168.000000 -192.000000L226.000000 -159.000000C261.000000 -139.000000,278.000000 -115.000000,278.000000 -84.000000C278.000000 -40.000000,246.000000 -12.000000,195.000000 -12.000000C161.000000 -12.000000,130.000000 -25.000000,111.000000 -47.000000C90.000000 -72.000000,81.000000 -95.000000,68.000000 -152.000000L52.000000 -152.000000L52.000000 4.000000L65.000000 4.000000C72.000000 -6.000000,76.000000 -8.000000,88.000000 -8.000000C97.000000 -8.000000,111.000000 -6.000000,134.000000 -0.000000C162.000000 6.000000,189.000000 10.000000,207.000000 10.000000C284.000000 10.000000,348.000000 -48.000000,348.000000 -118.000000C348.000000 -168.000000,324.000000 -201.000000,264.000000 -237.000000L156.000000 -301.000000C128.000000 -317.000000,113.000000 -342.000000,113.000000 -369.000000C113.000000 -409.000000,144.000000 -437.000000,190.000000 -437.000000C247.000000 -437.000000,277.000000 -403.000000,300.000000 -314.000000"></path>
    </g>
  </defs>
  <g transform="matrix(2.000000,-0.000000,-0.000000,2.000000,195.661789 60.754578)" style="fill: rgb(0.000000%,0.000000%,0.000000%);">
    <use xlink:href="#GLYPHptmr8r_72"></use>
    <use xlink:href="#GLYPHptmr8r_76" x="7.220077"></use>
    <use xlink:href="#GLYPHptmr8r_65" x="13.330155"></use>
  </g>
  <path d="M170.781296 28.488586L261.488571 28.488586L261.488571 79.511429L170.781296 79.511429Z" style="stroke:rgb(0.000000%,0.000000%,0.000000%); stroke-width: 1.992523;stroke-linecap: round;stroke-linejoin: round;stroke-miterlimit: 10.000000;fill: none;"></path>
  <g transform="matrix(2.000000,-0.000000,-0.000000,2.000000,341.815384 60.684830)" style="fill: rgb(0.000000%,0.000000%,0.000000%);">
    <use xlink:href="#GLYPHptmr8r_79"></use>
    <use xlink:href="#GLYPHptmr8r_80" x="7.220077"></use>
    <use xlink:href="#GLYPHptmr8r_73" x="12.780103"></use>
  </g>
  <path d="M312.511429 28.488586L403.218704 28.488586L403.218704 79.511429L312.511429 79.511429Z" style="stroke:rgb(0.000000%,0.000000%,0.000000%); stroke-width: 1.992523;stroke-linecap: round;stroke-linejoin: round;stroke-miterlimit: 10.000000;fill: none;"></path>
  <path d="M312.511429 141.872681L403.218704 141.872681L403.218704 192.895523L312.511429 192.895523Z" style="stroke:rgb(0.000000%,0.000000%,0.000000%); stroke-width: 1.992523;stroke-linecap: round;stroke-linejoin: round;stroke-miterlimit: 10.000000;fill: none;"></path>
  <path d="M454.241547 141.872665L544.948822 141.872665L544.948822 192.895508L454.241547 192.895508Z" style="stroke:rgb(0.000000%,0.000000%,0.000000%); stroke-width: 1.992523;stroke-linecap: round;stroke-linejoin: round;stroke-miterlimit: 10.000000;fill: none;"></path>
  <path d="M312.511429 141.872681L403.218704 141.872681L403.218704 192.895523L312.511429 192.895523Z" style="fill: rgb(89.999390%,89.999390%,89.999390%);stroke: none;"></path>
  <path d="M454.241547 141.872665L544.948822 141.872665L544.948822 192.895508L454.241547 192.895508Z" style="fill: rgb(89.999390%,89.999390%,89.999390%);stroke: none;"></path>
  <g transform="matrix(2.000000,-0.000000,-0.000000,2.000000,57.249298 174.068924)" style="fill: rgb(0.000000%,0.000000%,0.000000%);">
    <use xlink:href="#GLYPHptmr8r_73"></use>
    <use xlink:href="#GLYPHptmr8r_79" x="3.330012"></use>
    <use xlink:href="#GLYPHptmr8r_67" x="10.550089"></use>
  </g>
  <path d="M29.051178 141.872681L119.758453 141.872681L119.758453 192.895523L29.051178 192.895523Z" style="stroke:rgb(0.000000%,0.000000%,0.000000%); stroke-width: 1.992523;stroke-linecap: round;stroke-linejoin: round;stroke-miterlimit: 10.000000;fill: none;"></path>
  <g transform="matrix(2.000000,-0.000000,-0.000000,2.000000,198.979416 174.068924)" style="fill: rgb(0.000000%,0.000000%,0.000000%);">
    <use xlink:href="#GLYPHptmr8r_73"></use>
    <use xlink:href="#GLYPHptmr8r_79" x="3.330012"></use>
    <use xlink:href="#GLYPHptmr8r_67" x="10.550089"></use>
  </g>
  <path d="M170.781296 141.872665L261.488571 141.872665L261.488571 192.895508L170.781296 192.895508Z" style="stroke:rgb(0.000000%,0.000000%,0.000000%); stroke-width: 1.992523;stroke-linecap: round;stroke-linejoin: round;stroke-miterlimit: 10.000000;fill: none;"></path>
  <g transform="matrix(2.000000,-0.000000,-0.000000,2.000000,333.516556 174.068924)" style="fill: rgb(0.000000%,0.000000%,0.000000%);">
    <use xlink:href="#GLYPHptmr8r_86"></use>
    <use xlink:href="#GLYPHptmr8r_73" x="7.220077"></use>
    <use xlink:href="#GLYPHptmr8r_79" x="10.550089"></use>
    <use xlink:href="#GLYPHptmr8r_67" x="17.770166"></use>
  </g>
  <path d="M312.511429 141.872681L403.218704 141.872681L403.218704 192.895523L312.511429 192.895523Z" style="stroke:rgb(0.000000%,0.000000%,0.000000%); stroke-width: 1.992523;stroke-linecap: round;stroke-linejoin: round;stroke-miterlimit: 10.000000;fill: none;"></path>
  <g transform="matrix(2.000000,-0.000000,-0.000000,2.000000,475.246674 174.068924)" style="fill: rgb(0.000000%,0.000000%,0.000000%);">
    <use xlink:href="#GLYPHptmr8r_86"></use>
    <use xlink:href="#GLYPHptmr8r_73" x="7.220077"></use>
    <use xlink:href="#GLYPHptmr8r_79" x="10.550089"></use>
    <use xlink:href="#GLYPHptmr8r_67" x="17.770166"></use>
  </g>
  <path d="M454.241547 141.872665L544.948822 141.872665L544.948822 192.895508L454.241547 192.895508Z" style="stroke:rgb(0.000000%,0.000000%,0.000000%); stroke-width: 1.992523;stroke-linecap: round;stroke-linejoin: round;stroke-miterlimit: 10.000000;fill: none;"></path>
  <g transform="matrix(2.000000,-0.000000,-0.000000,2.000000,57.807144 224.822754)" style="fill: rgb(0.000000%,0.000000%,0.000000%);">
    <use xlink:href="#GLYPHptmr8r_72"></use>
    <use xlink:href="#GLYPHptmr8r_87" x="7.220077"></use>
  </g>
  <path d="M29.051178 192.895523L119.758453 192.895523L119.758453 243.918365L29.051178 243.918365Z" style="stroke:rgb(0.000000%,0.000000%,0.000000%); stroke-width: 1.992523;stroke-linecap: round;stroke-linejoin: round;stroke-miterlimit: 10.000000;fill: none;"></path>
  <g transform="matrix(2.000000,-0.000000,-0.000000,2.000000,199.537262 224.822754)" style="fill: rgb(0.000000%,0.000000%,0.000000%);">
    <use xlink:href="#GLYPHptmr8r_72"></use>
    <use xlink:href="#GLYPHptmr8r_87" x="7.220077"></use>
  </g>
  <path d="M170.781296 192.895508L261.488571 192.895508L261.488571 243.918350L170.781296 243.918350Z" style="stroke:rgb(0.000000%,0.000000%,0.000000%); stroke-width: 1.992523;stroke-linecap: round;stroke-linejoin: round;stroke-miterlimit: 10.000000;fill: none;"></path>
  <path d="M383.376480 255.256775L474.083755 255.256775L474.083755 357.302460L383.376480 357.302460Z" style="stroke:rgb(0.000000%,0.000000%,0.000000%); stroke-width: 1.992523;stroke-linecap: round;stroke-linejoin: round;stroke-miterlimit: 10.000000;fill: none;"></path>
  <path d="M383.376480 255.256775L474.083755 255.256775L474.083755 357.302460L383.376480 357.302460Z" style="fill: rgb(89.999390%,89.999390%,89.999390%);stroke: none;"></path>
  <g transform="matrix(2.000000,-0.000000,-0.000000,2.000000,414.344131 287.453018)" style="fill: rgb(0.000000%,0.000000%,0.000000%);">
    <use xlink:href="#GLYPHptmr8r_86"></use>
    <use xlink:href="#GLYPHptmr8r_65" x="7.220077"></use>
  </g>
  <path d="M383.376480 255.256775L474.083755 255.256775L474.083755 306.279617L383.376480 306.279617Z" style="stroke:rgb(0.000000%,0.000000%,0.000000%); stroke-width: 1.992523;stroke-linecap: round;stroke-linejoin: round;stroke-miterlimit: 10.000000;fill: none;"></path>
  <g transform="matrix(2.000000,-0.000000,-0.000000,2.000000,402.717911 338.475861)" style="fill: rgb(0.000000%,0.000000%,0.000000%);">
    <use xlink:href="#GLYPHptmr8r_77"></use>
    <use xlink:href="#GLYPHptmr8r_111" x="8.890038"></use>
    <use xlink:href="#GLYPHptmr8r_100" x="13.890117"></use>
    <use xlink:href="#GLYPHptmr8r_101" x="18.890197"></use>
    <use xlink:href="#GLYPHptmr8r_108" x="23.330207"></use>
  </g>
  <path d="M383.376480 306.279617L474.083755 306.279617L474.083755 357.302460L383.376480 357.302460Z" style="stroke:rgb(0.000000%,0.000000%,0.000000%); stroke-width: 1.992523;stroke-linecap: round;stroke-linejoin: round;stroke-miterlimit: 10.000000;fill: none;"></path>
  <path d="M216.134933 79.511429L216.134933 110.692047" style="stroke:rgb(0.000000%,0.000000%,0.000000%); stroke-width: 1.992523;stroke-linecap: round;stroke-linejoin: round;stroke-miterlimit: 10.000000;fill: none;"></path>
  <path d="M357.865067 79.511429L357.865067 110.692047" style="stroke:rgb(0.000000%,0.000000%,0.000000%); stroke-width: 1.992523;stroke-linecap: round;stroke-linejoin: round;stroke-miterlimit: 10.000000;fill: none;"></path>
  <path d="M74.404816 110.692047L499.595184 110.692047" style="stroke:rgb(0.000000%,0.000000%,0.000000%); stroke-width: 1.992523;stroke-linecap: round;stroke-linejoin: round;stroke-miterlimit: 10.000000;fill: none;"></path>
  <path d="M74.404816 110.692047L74.404816 141.872681" style="stroke:rgb(0.000000%,0.000000%,0.000000%); stroke-width: 1.992523;stroke-linecap: round;stroke-linejoin: round;stroke-miterlimit: 10.000000;fill: none;"></path>
  <path d="M216.134933 110.692047L216.134933 141.872665" style="stroke:rgb(0.000000%,0.000000%,0.000000%); stroke-width: 1.992523;stroke-linecap: round;stroke-linejoin: round;stroke-miterlimit: 10.000000;fill: none;"></path>
  <path d="M357.865067 110.692047L357.865067 141.872681" style="stroke:rgb(0.000000%,0.000000%,0.000000%); stroke-width: 1.992523;stroke-linecap: round;stroke-linejoin: round;stroke-miterlimit: 10.000000;fill: none;"></path>
  <path d="M499.595184 110.692047L499.595184 141.872665" style="stroke:rgb(0.000000%,0.000000%,0.000000%); stroke-width: 1.992523;stroke-linecap: round;stroke-linejoin: round;stroke-miterlimit: 10.000000;fill: none;"></path>
  <g transform="matrix(2.000000,-0.000000,-0.000000,2.000000,502.595184 117.376877)" style="fill: rgb(0.000000%,0.000000%,0.000000%);">
    <use xlink:href="#GLYPHptmr8r_67"></use>
    <use xlink:href="#GLYPHptmr8r_104" x="6.670025"></use>
    <use xlink:href="#GLYPHptmr8r_97" x="11.670104"></use>
    <use xlink:href="#GLYPHptmr8r_110" x="16.110115"></use>
    <use xlink:href="#GLYPHptmr8r_110" x="21.110194"></use>
    <use xlink:href="#GLYPHptmr8r_101" x="26.110274"></use>
    <use xlink:href="#GLYPHptmr8r_108" x="30.550284"></use>
    <use xlink:href="#GLYPHptmr8r_32" x="33.330228"></use>
    <use xlink:href="#GLYPHptmr8r_65" x="35.830268"></use>
    <use xlink:href="#GLYPHptmr8r_99" x="43.050345"></use>
    <use xlink:href="#GLYPHptmr8r_99" x="47.490356"></use>
    <use xlink:href="#GLYPHptmr8r_101" x="51.930366"></use>
    <use xlink:href="#GLYPHptmr8r_115" x="56.370376"></use>
    <use xlink:href="#GLYPHptmr8r_115" x="60.260335"></use>
  </g>
  <path d="M357.865067 192.895523L357.865067 224.076157" style="stroke:rgb(0.000000%,0.000000%,0.000000%); stroke-width: 1.992523;stroke-linecap: round;stroke-linejoin: round;stroke-miterlimit: 10.000000;fill: none;"></path>
  <path d="M499.595184 192.895508L499.595184 224.076157" style="stroke:rgb(0.000000%,0.000000%,0.000000%); stroke-width: 1.992523;stroke-linecap: round;stroke-linejoin: round;stroke-miterlimit: 10.000000;fill: none;"></path>
  <path d="M357.865067 224.076157L499.595184 224.076157" style="stroke:rgb(0.000000%,0.000000%,0.000000%); stroke-width: 1.992523;stroke-linecap: round;stroke-linejoin: round;stroke-miterlimit: 10.000000;fill: none;"></path>
  <path d="M428.730118 224.076157L428.730118 255.256775" style="stroke:rgb(0.000000%,0.000000%,0.000000%); stroke-width: 1.992523;stroke-linecap: round;stroke-linejoin: round;stroke-miterlimit: 10.000000;fill: none;"></path>
  <g transform="matrix(2.000000,-0.000000,-0.000000,2.000000,502.595184 230.760986)" style="fill: rgb(0.000000%,0.000000%,0.000000%);">
    <use xlink:href="#GLYPHptmr8r_67"></use>
    <use xlink:href="#GLYPHptmr8r_104" x="6.670025"></use>
    <use xlink:href="#GLYPHptmr8r_97" x="11.670104"></use>
    <use xlink:href="#GLYPHptmr8r_110" x="16.110115"></use>
    <use xlink:href="#GLYPHptmr8r_110" x="21.110194"></use>
    <use xlink:href="#GLYPHptmr8r_101" x="26.110274"></use>
    <use xlink:href="#GLYPHptmr8r_108" x="30.550284"></use>
    <use xlink:href="#GLYPHptmr8r_32" x="33.330228"></use>
    <use xlink:href="#GLYPHptmr8r_65" x="35.830268"></use>
    <use xlink:href="#GLYPHptmr8r_99" x="43.050345"></use>
    <use xlink:href="#GLYPHptmr8r_99" x="47.490356"></use>
    <use xlink:href="#GLYPHptmr8r_101" x="51.930366"></use>
    <use xlink:href="#GLYPHptmr8r_115" x="56.370376"></use>
    <use xlink:href="#GLYPHptmr8r_115" x="60.260335"></use>
  </g>
</svg>
