<?xml version="1.0" encoding="utf-8" standalone="no"?>
<!DOCTYPE svg PUBLIC "-//W3C//DTD SVG 1.1//EN"
  "http://www.w3.org/Graphics/SVG/1.1/DTD/svg11.dtd">
<!-- Created with matplotlib (https://matplotlib.org/) -->
<svg height="648pt" version="1.1" viewBox="0 0 1512 648" width="1512pt" xmlns="http://www.w3.org/2000/svg" xmlns:xlink="http://www.w3.org/1999/xlink">
 <defs>
  <style type="text/css">
*{stroke-linecap:butt;stroke-linejoin:round;}
  </style>
 </defs>
 <g id="figure_1">
  <g id="patch_1">
   <path d="M 0 648 
L 1512 648 
L 1512 0 
L 0 0 
z
" style="fill:#ffffff;"/>
  </g>
  <g id="axes_1">
   <g id="patch_2">
    <path d="M 98.66 565.94 
L 1424.412 565.94 
L 1424.412 37.68 
L 98.66 37.68 
z
" style="fill:#ffffff;"/>
   </g>
   <g id="matplotlib.axis_1">
    <g id="xtick_1">
     <g id="line2d_1">
      <path clip-path="url(#p1e045753ea)" d="M 158.921455 565.94 
L 158.921455 37.68 
" style="fill:none;stroke:#b0b0b0;stroke-linecap:square;stroke-width:0.8;"/>
     </g>
     <g id="line2d_2">
      <defs>
       <path d="M 0 0 
L 0 3.5 
" id="mee0246ee08" style="stroke:#000000;stroke-width:0.8;"/>
      </defs>
      <g>
       <use style="stroke:#000000;stroke-width:0.8;" x="158.921455" xlink:href="#mee0246ee08" y="565.94"/>
      </g>
     </g>
     <g id="text_1">
      <!-- B1-002 -->
      <defs>
       <path d="M 19.671875 34.8125 
L 19.671875 8.109375 
L 35.5 8.109375 
Q 43.453125 8.109375 47.28125 11.40625 
Q 51.125 14.703125 51.125 21.484375 
Q 51.125 28.328125 47.28125 31.5625 
Q 43.453125 34.8125 35.5 34.8125 
z
M 19.671875 64.796875 
L 19.671875 42.828125 
L 34.28125 42.828125 
Q 41.5 42.828125 45.03125 45.53125 
Q 48.578125 48.25 48.578125 53.8125 
Q 48.578125 59.328125 45.03125 62.0625 
Q 41.5 64.796875 34.28125 64.796875 
z
M 9.8125 72.90625 
L 35.015625 72.90625 
Q 46.296875 72.90625 52.390625 68.21875 
Q 58.5 63.53125 58.5 54.890625 
Q 58.5 48.1875 55.375 44.234375 
Q 52.25 40.28125 46.1875 39.3125 
Q 53.46875 37.75 57.5 32.78125 
Q 61.53125 27.828125 61.53125 20.40625 
Q 61.53125 10.640625 54.890625 5.3125 
Q 48.25 0 35.984375 0 
L 9.8125 0 
z
" id="DejaVuSans-66"/>
       <path d="M 12.40625 8.296875 
L 28.515625 8.296875 
L 28.515625 63.921875 
L 10.984375 60.40625 
L 10.984375 69.390625 
L 28.421875 72.90625 
L 38.28125 72.90625 
L 38.28125 8.296875 
L 54.390625 8.296875 
L 54.390625 0 
L 12.40625 0 
z
" id="DejaVuSans-49"/>
       <path d="M 4.890625 31.390625 
L 31.203125 31.390625 
L 31.203125 23.390625 
L 4.890625 23.390625 
z
" id="DejaVuSans-45"/>
       <path d="M 31.78125 66.40625 
Q 24.171875 66.40625 20.328125 58.90625 
Q 16.5 51.421875 16.5 36.375 
Q 16.5 21.390625 20.328125 13.890625 
Q 24.171875 6.390625 31.78125 6.390625 
Q 39.453125 6.390625 43.28125 13.890625 
Q 47.125 21.390625 47.125 36.375 
Q 47.125 51.421875 43.28125 58.90625 
Q 39.453125 66.40625 31.78125 66.40625 
z
M 31.78125 74.21875 
Q 44.046875 74.21875 50.515625 64.515625 
Q 56.984375 54.828125 56.984375 36.375 
Q 56.984375 17.96875 50.515625 8.265625 
Q 44.046875 -1.421875 31.78125 -1.421875 
Q 19.53125 -1.421875 13.0625 8.265625 
Q 6.59375 17.96875 6.59375 36.375 
Q 6.59375 54.828125 13.0625 64.515625 
Q 19.53125 74.21875 31.78125 74.21875 
z
" id="DejaVuSans-48"/>
       <path d="M 19.1875 8.296875 
L 53.609375 8.296875 
L 53.609375 0 
L 7.328125 0 
L 7.328125 8.296875 
Q 12.9375 14.109375 22.625 23.890625 
Q 32.328125 33.6875 34.8125 36.53125 
Q 39.546875 41.84375 41.421875 45.53125 
Q 43.3125 49.21875 43.3125 52.78125 
Q 43.3125 58.59375 39.234375 62.25 
Q 35.15625 65.921875 28.609375 65.921875 
Q 23.96875 65.921875 18.8125 64.3125 
Q 13.671875 62.703125 7.8125 59.421875 
L 7.8125 69.390625 
Q 13.765625 71.78125 18.9375 73 
Q 24.125 74.21875 28.421875 74.21875 
Q 39.75 74.21875 46.484375 68.546875 
Q 53.21875 62.890625 53.21875 53.421875 
Q 53.21875 48.921875 51.53125 44.890625 
Q 49.859375 40.875 45.40625 35.40625 
Q 44.1875 33.984375 37.640625 27.21875 
Q 31.109375 20.453125 19.1875 8.296875 
z
" id="DejaVuSans-50"/>
      </defs>
      <g transform="translate(163.336455 630.41)rotate(-90)scale(0.16 -0.16)">
       <use xlink:href="#DejaVuSans-66"/>
       <use x="68.603516" xlink:href="#DejaVuSans-49"/>
       <use x="132.226562" xlink:href="#DejaVuSans-45"/>
       <use x="168.310547" xlink:href="#DejaVuSans-48"/>
       <use x="231.933594" xlink:href="#DejaVuSans-48"/>
       <use x="295.556641" xlink:href="#DejaVuSans-50"/>
      </g>
     </g>
    </g>
    <g id="xtick_2">
     <g id="line2d_3">
      <path clip-path="url(#p1e045753ea)" d="M 189.052182 565.94 
L 189.052182 37.68 
" style="fill:none;stroke:#b0b0b0;stroke-linecap:square;stroke-width:0.8;"/>
     </g>
     <g id="line2d_4">
      <g>
       <use style="stroke:#000000;stroke-width:0.8;" x="189.052182" xlink:href="#mee0246ee08" y="565.94"/>
      </g>
     </g>
     <g id="text_2">
      <!-- B1-003 -->
      <defs>
       <path d="M 40.578125 39.3125 
Q 47.65625 37.796875 51.625 33 
Q 55.609375 28.21875 55.609375 21.1875 
Q 55.609375 10.40625 48.1875 4.484375 
Q 40.765625 -1.421875 27.09375 -1.421875 
Q 22.515625 -1.421875 17.65625 -0.515625 
Q 12.796875 0.390625 7.625 2.203125 
L 7.625 11.71875 
Q 11.71875 9.328125 16.59375 8.109375 
Q 21.484375 6.890625 26.8125 6.890625 
Q 36.078125 6.890625 40.9375 10.546875 
Q 45.796875 14.203125 45.796875 21.1875 
Q 45.796875 27.640625 41.28125 31.265625 
Q 36.765625 34.90625 28.71875 34.90625 
L 20.21875 34.90625 
L 20.21875 43.015625 
L 29.109375 43.015625 
Q 36.375 43.015625 40.234375 45.921875 
Q 44.09375 48.828125 44.09375 54.296875 
Q 44.09375 59.90625 40.109375 62.90625 
Q 36.140625 65.921875 28.71875 65.921875 
Q 24.65625 65.921875 20.015625 65.03125 
Q 15.375 64.15625 9.8125 62.3125 
L 9.8125 71.09375 
Q 15.4375 72.65625 20.34375 73.4375 
Q 25.25 74.21875 29.59375 74.21875 
Q 40.828125 74.21875 47.359375 69.109375 
Q 53.90625 64.015625 53.90625 55.328125 
Q 53.90625 49.265625 50.4375 45.09375 
Q 46.96875 40.921875 40.578125 39.3125 
z
" id="DejaVuSans-51"/>
      </defs>
      <g transform="translate(193.467182 630.41)rotate(-90)scale(0.16 -0.16)">
       <use xlink:href="#DejaVuSans-66"/>
       <use x="68.603516" xlink:href="#DejaVuSans-49"/>
       <use x="132.226562" xlink:href="#DejaVuSans-45"/>
       <use x="168.310547" xlink:href="#DejaVuSans-48"/>
       <use x="231.933594" xlink:href="#DejaVuSans-48"/>
       <use x="295.556641" xlink:href="#DejaVuSans-51"/>
      </g>
     </g>
    </g>
    <g id="xtick_3">
     <g id="line2d_5">
      <path clip-path="url(#p1e045753ea)" d="M 219.182909 565.94 
L 219.182909 37.68 
" style="fill:none;stroke:#b0b0b0;stroke-linecap:square;stroke-width:0.8;"/>
     </g>
     <g id="line2d_6">
      <g>
       <use style="stroke:#000000;stroke-width:0.8;" x="219.182909" xlink:href="#mee0246ee08" y="565.94"/>
      </g>
     </g>
     <g id="text_3">
      <!-- B1-004 -->
      <defs>
       <path d="M 37.796875 64.3125 
L 12.890625 25.390625 
L 37.796875 25.390625 
z
M 35.203125 72.90625 
L 47.609375 72.90625 
L 47.609375 25.390625 
L 58.015625 25.390625 
L 58.015625 17.1875 
L 47.609375 17.1875 
L 47.609375 0 
L 37.796875 0 
L 37.796875 17.1875 
L 4.890625 17.1875 
L 4.890625 26.703125 
z
" id="DejaVuSans-52"/>
      </defs>
      <g transform="translate(223.597909 630.41)rotate(-90)scale(0.16 -0.16)">
       <use xlink:href="#DejaVuSans-66"/>
       <use x="68.603516" xlink:href="#DejaVuSans-49"/>
       <use x="132.226562" xlink:href="#DejaVuSans-45"/>
       <use x="168.310547" xlink:href="#DejaVuSans-48"/>
       <use x="231.933594" xlink:href="#DejaVuSans-48"/>
       <use x="295.556641" xlink:href="#DejaVuSans-52"/>
      </g>
     </g>
    </g>
    <g id="xtick_4">
     <g id="line2d_7">
      <path clip-path="url(#p1e045753ea)" d="M 249.313636 565.94 
L 249.313636 37.68 
" style="fill:none;stroke:#b0b0b0;stroke-linecap:square;stroke-width:0.8;"/>
     </g>
     <g id="line2d_8">
      <g>
       <use style="stroke:#000000;stroke-width:0.8;" x="249.313636" xlink:href="#mee0246ee08" y="565.94"/>
      </g>
     </g>
     <g id="text_4">
      <!-- B1-005 -->
      <defs>
       <path d="M 10.796875 72.90625 
L 49.515625 72.90625 
L 49.515625 64.59375 
L 19.828125 64.59375 
L 19.828125 46.734375 
Q 21.96875 47.46875 24.109375 47.828125 
Q 26.265625 48.1875 28.421875 48.1875 
Q 40.625 48.1875 47.75 41.5 
Q 54.890625 34.8125 54.890625 23.390625 
Q 54.890625 11.625 47.5625 5.09375 
Q 40.234375 -1.421875 26.90625 -1.421875 
Q 22.3125 -1.421875 17.546875 -0.640625 
Q 12.796875 0.140625 7.71875 1.703125 
L 7.71875 11.625 
Q 12.109375 9.234375 16.796875 8.0625 
Q 21.484375 6.890625 26.703125 6.890625 
Q 35.15625 6.890625 40.078125 11.328125 
Q 45.015625 15.765625 45.015625 23.390625 
Q 45.015625 31 40.078125 35.4375 
Q 35.15625 39.890625 26.703125 39.890625 
Q 22.75 39.890625 18.8125 39.015625 
Q 14.890625 38.140625 10.796875 36.28125 
z
" id="DejaVuSans-53"/>
      </defs>
      <g transform="translate(253.728636 630.41)rotate(-90)scale(0.16 -0.16)">
       <use xlink:href="#DejaVuSans-66"/>
       <use x="68.603516" xlink:href="#DejaVuSans-49"/>
       <use x="132.226562" xlink:href="#DejaVuSans-45"/>
       <use x="168.310547" xlink:href="#DejaVuSans-48"/>
       <use x="231.933594" xlink:href="#DejaVuSans-48"/>
       <use x="295.556641" xlink:href="#DejaVuSans-53"/>
      </g>
     </g>
    </g>
    <g id="xtick_5">
     <g id="line2d_9">
      <path clip-path="url(#p1e045753ea)" d="M 279.444364 565.94 
L 279.444364 37.68 
" style="fill:none;stroke:#b0b0b0;stroke-linecap:square;stroke-width:0.8;"/>
     </g>
     <g id="line2d_10">
      <g>
       <use style="stroke:#000000;stroke-width:0.8;" x="279.444364" xlink:href="#mee0246ee08" y="565.94"/>
      </g>
     </g>
     <g id="text_5">
      <!-- B1-006 -->
      <defs>
       <path d="M 33.015625 40.375 
Q 26.375 40.375 22.484375 35.828125 
Q 18.609375 31.296875 18.609375 23.390625 
Q 18.609375 15.53125 22.484375 10.953125 
Q 26.375 6.390625 33.015625 6.390625 
Q 39.65625 6.390625 43.53125 10.953125 
Q 47.40625 15.53125 47.40625 23.390625 
Q 47.40625 31.296875 43.53125 35.828125 
Q 39.65625 40.375 33.015625 40.375 
z
M 52.59375 71.296875 
L 52.59375 62.3125 
Q 48.875 64.0625 45.09375 64.984375 
Q 41.3125 65.921875 37.59375 65.921875 
Q 27.828125 65.921875 22.671875 59.328125 
Q 17.53125 52.734375 16.796875 39.40625 
Q 19.671875 43.65625 24.015625 45.921875 
Q 28.375 48.1875 33.59375 48.1875 
Q 44.578125 48.1875 50.953125 41.515625 
Q 57.328125 34.859375 57.328125 23.390625 
Q 57.328125 12.15625 50.6875 5.359375 
Q 44.046875 -1.421875 33.015625 -1.421875 
Q 20.359375 -1.421875 13.671875 8.265625 
Q 6.984375 17.96875 6.984375 36.375 
Q 6.984375 53.65625 15.1875 63.9375 
Q 23.390625 74.21875 37.203125 74.21875 
Q 40.921875 74.21875 44.703125 73.484375 
Q 48.484375 72.75 52.59375 71.296875 
z
" id="DejaVuSans-54"/>
      </defs>
      <g transform="translate(283.859364 630.41)rotate(-90)scale(0.16 -0.16)">
       <use xlink:href="#DejaVuSans-66"/>
       <use x="68.603516" xlink:href="#DejaVuSans-49"/>
       <use x="132.226562" xlink:href="#DejaVuSans-45"/>
       <use x="168.310547" xlink:href="#DejaVuSans-48"/>
       <use x="231.933594" xlink:href="#DejaVuSans-48"/>
       <use x="295.556641" xlink:href="#DejaVuSans-54"/>
      </g>
     </g>
    </g>
    <g id="xtick_6">
     <g id="line2d_11">
      <path clip-path="url(#p1e045753ea)" d="M 309.575091 565.94 
L 309.575091 37.68 
" style="fill:none;stroke:#b0b0b0;stroke-linecap:square;stroke-width:0.8;"/>
     </g>
     <g id="line2d_12">
      <g>
       <use style="stroke:#000000;stroke-width:0.8;" x="309.575091" xlink:href="#mee0246ee08" y="565.94"/>
      </g>
     </g>
     <g id="text_6">
      <!-- B1-009 -->
      <defs>
       <path d="M 10.984375 1.515625 
L 10.984375 10.5 
Q 14.703125 8.734375 18.5 7.8125 
Q 22.3125 6.890625 25.984375 6.890625 
Q 35.75 6.890625 40.890625 13.453125 
Q 46.046875 20.015625 46.78125 33.40625 
Q 43.953125 29.203125 39.59375 26.953125 
Q 35.25 24.703125 29.984375 24.703125 
Q 19.046875 24.703125 12.671875 31.3125 
Q 6.296875 37.9375 6.296875 49.421875 
Q 6.296875 60.640625 12.9375 67.421875 
Q 19.578125 74.21875 30.609375 74.21875 
Q 43.265625 74.21875 49.921875 64.515625 
Q 56.59375 54.828125 56.59375 36.375 
Q 56.59375 19.140625 48.40625 8.859375 
Q 40.234375 -1.421875 26.421875 -1.421875 
Q 22.703125 -1.421875 18.890625 -0.6875 
Q 15.09375 0.046875 10.984375 1.515625 
z
M 30.609375 32.421875 
Q 37.25 32.421875 41.125 36.953125 
Q 45.015625 41.5 45.015625 49.421875 
Q 45.015625 57.28125 41.125 61.84375 
Q 37.25 66.40625 30.609375 66.40625 
Q 23.96875 66.40625 20.09375 61.84375 
Q 16.21875 57.28125 16.21875 49.421875 
Q 16.21875 41.5 20.09375 36.953125 
Q 23.96875 32.421875 30.609375 32.421875 
z
" id="DejaVuSans-57"/>
      </defs>
      <g transform="translate(313.990091 630.41)rotate(-90)scale(0.16 -0.16)">
       <use xlink:href="#DejaVuSans-66"/>
       <use x="68.603516" xlink:href="#DejaVuSans-49"/>
       <use x="132.226562" xlink:href="#DejaVuSans-45"/>
       <use x="168.310547" xlink:href="#DejaVuSans-48"/>
       <use x="231.933594" xlink:href="#DejaVuSans-48"/>
       <use x="295.556641" xlink:href="#DejaVuSans-57"/>
      </g>
     </g>
    </g>
    <g id="xtick_7">
     <g id="line2d_13">
      <path clip-path="url(#p1e045753ea)" d="M 339.705818 565.94 
L 339.705818 37.68 
" style="fill:none;stroke:#b0b0b0;stroke-linecap:square;stroke-width:0.8;"/>
     </g>
     <g id="line2d_14">
      <g>
       <use style="stroke:#000000;stroke-width:0.8;" x="339.705818" xlink:href="#mee0246ee08" y="565.94"/>
      </g>
     </g>
     <g id="text_7">
      <!-- B1-010 -->
      <g transform="translate(344.120818 630.41)rotate(-90)scale(0.16 -0.16)">
       <use xlink:href="#DejaVuSans-66"/>
       <use x="68.603516" xlink:href="#DejaVuSans-49"/>
       <use x="132.226562" xlink:href="#DejaVuSans-45"/>
       <use x="168.310547" xlink:href="#DejaVuSans-48"/>
       <use x="231.933594" xlink:href="#DejaVuSans-49"/>
       <use x="295.556641" xlink:href="#DejaVuSans-48"/>
      </g>
     </g>
    </g>
    <g id="xtick_8">
     <g id="line2d_15">
      <path clip-path="url(#p1e045753ea)" d="M 369.836545 565.94 
L 369.836545 37.68 
" style="fill:none;stroke:#b0b0b0;stroke-linecap:square;stroke-width:0.8;"/>
     </g>
     <g id="line2d_16">
      <g>
       <use style="stroke:#000000;stroke-width:0.8;" x="369.836545" xlink:href="#mee0246ee08" y="565.94"/>
      </g>
     </g>
     <g id="text_8">
      <!-- B1-011 -->
      <g transform="translate(374.251545 630.41)rotate(-90)scale(0.16 -0.16)">
       <use xlink:href="#DejaVuSans-66"/>
       <use x="68.603516" xlink:href="#DejaVuSans-49"/>
       <use x="132.226562" xlink:href="#DejaVuSans-45"/>
       <use x="168.310547" xlink:href="#DejaVuSans-48"/>
       <use x="231.933594" xlink:href="#DejaVuSans-49"/>
       <use x="295.556641" xlink:href="#DejaVuSans-49"/>
      </g>
     </g>
    </g>
    <g id="xtick_9">
     <g id="line2d_17">
      <path clip-path="url(#p1e045753ea)" d="M 399.967273 565.94 
L 399.967273 37.68 
" style="fill:none;stroke:#b0b0b0;stroke-linecap:square;stroke-width:0.8;"/>
     </g>
     <g id="line2d_18">
      <g>
       <use style="stroke:#000000;stroke-width:0.8;" x="399.967273" xlink:href="#mee0246ee08" y="565.94"/>
      </g>
     </g>
     <g id="text_9">
      <!-- B1-012 -->
      <g transform="translate(404.382273 630.41)rotate(-90)scale(0.16 -0.16)">
       <use xlink:href="#DejaVuSans-66"/>
       <use x="68.603516" xlink:href="#DejaVuSans-49"/>
       <use x="132.226562" xlink:href="#DejaVuSans-45"/>
       <use x="168.310547" xlink:href="#DejaVuSans-48"/>
       <use x="231.933594" xlink:href="#DejaVuSans-49"/>
       <use x="295.556641" xlink:href="#DejaVuSans-50"/>
      </g>
     </g>
    </g>
    <g id="xtick_10">
     <g id="line2d_19">
      <path clip-path="url(#p1e045753ea)" d="M 430.098 565.94 
L 430.098 37.68 
" style="fill:none;stroke:#b0b0b0;stroke-linecap:square;stroke-width:0.8;"/>
     </g>
     <g id="line2d_20">
      <g>
       <use style="stroke:#000000;stroke-width:0.8;" x="430.098" xlink:href="#mee0246ee08" y="565.94"/>
      </g>
     </g>
     <g id="text_10">
      <!-- B1-013 -->
      <g transform="translate(434.513 630.41)rotate(-90)scale(0.16 -0.16)">
       <use xlink:href="#DejaVuSans-66"/>
       <use x="68.603516" xlink:href="#DejaVuSans-49"/>
       <use x="132.226562" xlink:href="#DejaVuSans-45"/>
       <use x="168.310547" xlink:href="#DejaVuSans-48"/>
       <use x="231.933594" xlink:href="#DejaVuSans-49"/>
       <use x="295.556641" xlink:href="#DejaVuSans-51"/>
      </g>
     </g>
    </g>
    <g id="xtick_11">
     <g id="line2d_21">
      <path clip-path="url(#p1e045753ea)" d="M 460.228727 565.94 
L 460.228727 37.68 
" style="fill:none;stroke:#b0b0b0;stroke-linecap:square;stroke-width:0.8;"/>
     </g>
     <g id="line2d_22">
      <g>
       <use style="stroke:#000000;stroke-width:0.8;" x="460.228727" xlink:href="#mee0246ee08" y="565.94"/>
      </g>
     </g>
     <g id="text_11">
      <!-- B1-014 -->
      <g transform="translate(464.643727 630.41)rotate(-90)scale(0.16 -0.16)">
       <use xlink:href="#DejaVuSans-66"/>
       <use x="68.603516" xlink:href="#DejaVuSans-49"/>
       <use x="132.226562" xlink:href="#DejaVuSans-45"/>
       <use x="168.310547" xlink:href="#DejaVuSans-48"/>
       <use x="231.933594" xlink:href="#DejaVuSans-49"/>
       <use x="295.556641" xlink:href="#DejaVuSans-52"/>
      </g>
     </g>
    </g>
    <g id="xtick_12">
     <g id="line2d_23">
      <path clip-path="url(#p1e045753ea)" d="M 490.359455 565.94 
L 490.359455 37.68 
" style="fill:none;stroke:#b0b0b0;stroke-linecap:square;stroke-width:0.8;"/>
     </g>
     <g id="line2d_24">
      <g>
       <use style="stroke:#000000;stroke-width:0.8;" x="490.359455" xlink:href="#mee0246ee08" y="565.94"/>
      </g>
     </g>
     <g id="text_12">
      <!-- B1-015 -->
      <g transform="translate(494.774455 630.41)rotate(-90)scale(0.16 -0.16)">
       <use xlink:href="#DejaVuSans-66"/>
       <use x="68.603516" xlink:href="#DejaVuSans-49"/>
       <use x="132.226562" xlink:href="#DejaVuSans-45"/>
       <use x="168.310547" xlink:href="#DejaVuSans-48"/>
       <use x="231.933594" xlink:href="#DejaVuSans-49"/>
       <use x="295.556641" xlink:href="#DejaVuSans-53"/>
      </g>
     </g>
    </g>
    <g id="xtick_13">
     <g id="line2d_25">
      <path clip-path="url(#p1e045753ea)" d="M 520.490182 565.94 
L 520.490182 37.68 
" style="fill:none;stroke:#b0b0b0;stroke-linecap:square;stroke-width:0.8;"/>
     </g>
     <g id="line2d_26">
      <g>
       <use style="stroke:#000000;stroke-width:0.8;" x="520.490182" xlink:href="#mee0246ee08" y="565.94"/>
      </g>
     </g>
     <g id="text_13">
      <!-- B1-016 -->
      <g transform="translate(524.905182 630.41)rotate(-90)scale(0.16 -0.16)">
       <use xlink:href="#DejaVuSans-66"/>
       <use x="68.603516" xlink:href="#DejaVuSans-49"/>
       <use x="132.226562" xlink:href="#DejaVuSans-45"/>
       <use x="168.310547" xlink:href="#DejaVuSans-48"/>
       <use x="231.933594" xlink:href="#DejaVuSans-49"/>
       <use x="295.556641" xlink:href="#DejaVuSans-54"/>
      </g>
     </g>
    </g>
    <g id="xtick_14">
     <g id="line2d_27">
      <path clip-path="url(#p1e045753ea)" d="M 550.620909 565.94 
L 550.620909 37.68 
" style="fill:none;stroke:#b0b0b0;stroke-linecap:square;stroke-width:0.8;"/>
     </g>
     <g id="line2d_28">
      <g>
       <use style="stroke:#000000;stroke-width:0.8;" x="550.620909" xlink:href="#mee0246ee08" y="565.94"/>
      </g>
     </g>
     <g id="text_14">
      <!-- B1-017 -->
      <defs>
       <path d="M 8.203125 72.90625 
L 55.078125 72.90625 
L 55.078125 68.703125 
L 28.609375 0 
L 18.3125 0 
L 43.21875 64.59375 
L 8.203125 64.59375 
z
" id="DejaVuSans-55"/>
      </defs>
      <g transform="translate(555.035909 630.41)rotate(-90)scale(0.16 -0.16)">
       <use xlink:href="#DejaVuSans-66"/>
       <use x="68.603516" xlink:href="#DejaVuSans-49"/>
       <use x="132.226562" xlink:href="#DejaVuSans-45"/>
       <use x="168.310547" xlink:href="#DejaVuSans-48"/>
       <use x="231.933594" xlink:href="#DejaVuSans-49"/>
       <use x="295.556641" xlink:href="#DejaVuSans-55"/>
      </g>
     </g>
    </g>
    <g id="xtick_15">
     <g id="line2d_29">
      <path clip-path="url(#p1e045753ea)" d="M 580.751636 565.94 
L 580.751636 37.68 
" style="fill:none;stroke:#b0b0b0;stroke-linecap:square;stroke-width:0.8;"/>
     </g>
     <g id="line2d_30">
      <g>
       <use style="stroke:#000000;stroke-width:0.8;" x="580.751636" xlink:href="#mee0246ee08" y="565.94"/>
      </g>
     </g>
     <g id="text_15">
      <!-- B1-018 -->
      <defs>
       <path d="M 31.78125 34.625 
Q 24.75 34.625 20.71875 30.859375 
Q 16.703125 27.09375 16.703125 20.515625 
Q 16.703125 13.921875 20.71875 10.15625 
Q 24.75 6.390625 31.78125 6.390625 
Q 38.8125 6.390625 42.859375 10.171875 
Q 46.921875 13.96875 46.921875 20.515625 
Q 46.921875 27.09375 42.890625 30.859375 
Q 38.875 34.625 31.78125 34.625 
z
M 21.921875 38.8125 
Q 15.578125 40.375 12.03125 44.71875 
Q 8.5 49.078125 8.5 55.328125 
Q 8.5 64.0625 14.71875 69.140625 
Q 20.953125 74.21875 31.78125 74.21875 
Q 42.671875 74.21875 48.875 69.140625 
Q 55.078125 64.0625 55.078125 55.328125 
Q 55.078125 49.078125 51.53125 44.71875 
Q 48 40.375 41.703125 38.8125 
Q 48.828125 37.15625 52.796875 32.3125 
Q 56.78125 27.484375 56.78125 20.515625 
Q 56.78125 9.90625 50.3125 4.234375 
Q 43.84375 -1.421875 31.78125 -1.421875 
Q 19.734375 -1.421875 13.25 4.234375 
Q 6.78125 9.90625 6.78125 20.515625 
Q 6.78125 27.484375 10.78125 32.3125 
Q 14.796875 37.15625 21.921875 38.8125 
z
M 18.3125 54.390625 
Q 18.3125 48.734375 21.84375 45.5625 
Q 25.390625 42.390625 31.78125 42.390625 
Q 38.140625 42.390625 41.71875 45.5625 
Q 45.3125 48.734375 45.3125 54.390625 
Q 45.3125 60.0625 41.71875 63.234375 
Q 38.140625 66.40625 31.78125 66.40625 
Q 25.390625 66.40625 21.84375 63.234375 
Q 18.3125 60.0625 18.3125 54.390625 
z
" id="DejaVuSans-56"/>
      </defs>
      <g transform="translate(585.166636 630.41)rotate(-90)scale(0.16 -0.16)">
       <use xlink:href="#DejaVuSans-66"/>
       <use x="68.603516" xlink:href="#DejaVuSans-49"/>
       <use x="132.226562" xlink:href="#DejaVuSans-45"/>
       <use x="168.310547" xlink:href="#DejaVuSans-48"/>
       <use x="231.933594" xlink:href="#DejaVuSans-49"/>
       <use x="295.556641" xlink:href="#DejaVuSans-56"/>
      </g>
     </g>
    </g>
    <g id="xtick_16">
     <g id="line2d_31">
      <path clip-path="url(#p1e045753ea)" d="M 610.882364 565.94 
L 610.882364 37.68 
" style="fill:none;stroke:#b0b0b0;stroke-linecap:square;stroke-width:0.8;"/>
     </g>
     <g id="line2d_32">
      <g>
       <use style="stroke:#000000;stroke-width:0.8;" x="610.882364" xlink:href="#mee0246ee08" y="565.94"/>
      </g>
     </g>
     <g id="text_16">
      <!-- B1-019 -->
      <g transform="translate(615.297364 630.41)rotate(-90)scale(0.16 -0.16)">
       <use xlink:href="#DejaVuSans-66"/>
       <use x="68.603516" xlink:href="#DejaVuSans-49"/>
       <use x="132.226562" xlink:href="#DejaVuSans-45"/>
       <use x="168.310547" xlink:href="#DejaVuSans-48"/>
       <use x="231.933594" xlink:href="#DejaVuSans-49"/>
       <use x="295.556641" xlink:href="#DejaVuSans-57"/>
      </g>
     </g>
    </g>
    <g id="xtick_17">
     <g id="line2d_33">
      <path clip-path="url(#p1e045753ea)" d="M 641.013091 565.94 
L 641.013091 37.68 
" style="fill:none;stroke:#b0b0b0;stroke-linecap:square;stroke-width:0.8;"/>
     </g>
     <g id="line2d_34">
      <g>
       <use style="stroke:#000000;stroke-width:0.8;" x="641.013091" xlink:href="#mee0246ee08" y="565.94"/>
      </g>
     </g>
     <g id="text_17">
      <!-- B1-020 -->
      <g transform="translate(645.428091 630.41)rotate(-90)scale(0.16 -0.16)">
       <use xlink:href="#DejaVuSans-66"/>
       <use x="68.603516" xlink:href="#DejaVuSans-49"/>
       <use x="132.226562" xlink:href="#DejaVuSans-45"/>
       <use x="168.310547" xlink:href="#DejaVuSans-48"/>
       <use x="231.933594" xlink:href="#DejaVuSans-50"/>
       <use x="295.556641" xlink:href="#DejaVuSans-48"/>
      </g>
     </g>
    </g>
    <g id="xtick_18">
     <g id="line2d_35">
      <path clip-path="url(#p1e045753ea)" d="M 671.143818 565.94 
L 671.143818 37.68 
" style="fill:none;stroke:#b0b0b0;stroke-linecap:square;stroke-width:0.8;"/>
     </g>
     <g id="line2d_36">
      <g>
       <use style="stroke:#000000;stroke-width:0.8;" x="671.143818" xlink:href="#mee0246ee08" y="565.94"/>
      </g>
     </g>
     <g id="text_18">
      <!-- B1-021 -->
      <g transform="translate(675.558818 630.41)rotate(-90)scale(0.16 -0.16)">
       <use xlink:href="#DejaVuSans-66"/>
       <use x="68.603516" xlink:href="#DejaVuSans-49"/>
       <use x="132.226562" xlink:href="#DejaVuSans-45"/>
       <use x="168.310547" xlink:href="#DejaVuSans-48"/>
       <use x="231.933594" xlink:href="#DejaVuSans-50"/>
       <use x="295.556641" xlink:href="#DejaVuSans-49"/>
      </g>
     </g>
    </g>
    <g id="xtick_19">
     <g id="line2d_37">
      <path clip-path="url(#p1e045753ea)" d="M 701.274545 565.94 
L 701.274545 37.68 
" style="fill:none;stroke:#b0b0b0;stroke-linecap:square;stroke-width:0.8;"/>
     </g>
     <g id="line2d_38">
      <g>
       <use style="stroke:#000000;stroke-width:0.8;" x="701.274545" xlink:href="#mee0246ee08" y="565.94"/>
      </g>
     </g>
     <g id="text_19">
      <!-- B1-022 -->
      <g transform="translate(705.689545 630.41)rotate(-90)scale(0.16 -0.16)">
       <use xlink:href="#DejaVuSans-66"/>
       <use x="68.603516" xlink:href="#DejaVuSans-49"/>
       <use x="132.226562" xlink:href="#DejaVuSans-45"/>
       <use x="168.310547" xlink:href="#DejaVuSans-48"/>
       <use x="231.933594" xlink:href="#DejaVuSans-50"/>
       <use x="295.556641" xlink:href="#DejaVuSans-50"/>
      </g>
     </g>
    </g>
    <g id="xtick_20">
     <g id="line2d_39">
      <path clip-path="url(#p1e045753ea)" d="M 731.405273 565.94 
L 731.405273 37.68 
" style="fill:none;stroke:#b0b0b0;stroke-linecap:square;stroke-width:0.8;"/>
     </g>
     <g id="line2d_40">
      <g>
       <use style="stroke:#000000;stroke-width:0.8;" x="731.405273" xlink:href="#mee0246ee08" y="565.94"/>
      </g>
     </g>
     <g id="text_20">
      <!-- B1-023 -->
      <g transform="translate(735.820273 630.41)rotate(-90)scale(0.16 -0.16)">
       <use xlink:href="#DejaVuSans-66"/>
       <use x="68.603516" xlink:href="#DejaVuSans-49"/>
       <use x="132.226562" xlink:href="#DejaVuSans-45"/>
       <use x="168.310547" xlink:href="#DejaVuSans-48"/>
       <use x="231.933594" xlink:href="#DejaVuSans-50"/>
       <use x="295.556641" xlink:href="#DejaVuSans-51"/>
      </g>
     </g>
    </g>
    <g id="xtick_21">
     <g id="line2d_41">
      <path clip-path="url(#p1e045753ea)" d="M 761.536 565.94 
L 761.536 37.68 
" style="fill:none;stroke:#b0b0b0;stroke-linecap:square;stroke-width:0.8;"/>
     </g>
     <g id="line2d_42">
      <g>
       <use style="stroke:#000000;stroke-width:0.8;" x="761.536" xlink:href="#mee0246ee08" y="565.94"/>
      </g>
     </g>
     <g id="text_21">
      <!-- B1-024 -->
      <g transform="translate(765.951 630.41)rotate(-90)scale(0.16 -0.16)">
       <use xlink:href="#DejaVuSans-66"/>
       <use x="68.603516" xlink:href="#DejaVuSans-49"/>
       <use x="132.226562" xlink:href="#DejaVuSans-45"/>
       <use x="168.310547" xlink:href="#DejaVuSans-48"/>
       <use x="231.933594" xlink:href="#DejaVuSans-50"/>
       <use x="295.556641" xlink:href="#DejaVuSans-52"/>
      </g>
     </g>
    </g>
    <g id="xtick_22">
     <g id="line2d_43">
      <path clip-path="url(#p1e045753ea)" d="M 791.666727 565.94 
L 791.666727 37.68 
" style="fill:none;stroke:#b0b0b0;stroke-linecap:square;stroke-width:0.8;"/>
     </g>
     <g id="line2d_44">
      <g>
       <use style="stroke:#000000;stroke-width:0.8;" x="791.666727" xlink:href="#mee0246ee08" y="565.94"/>
      </g>
     </g>
     <g id="text_22">
      <!-- B1-025 -->
      <g transform="translate(796.081727 630.41)rotate(-90)scale(0.16 -0.16)">
       <use xlink:href="#DejaVuSans-66"/>
       <use x="68.603516" xlink:href="#DejaVuSans-49"/>
       <use x="132.226562" xlink:href="#DejaVuSans-45"/>
       <use x="168.310547" xlink:href="#DejaVuSans-48"/>
       <use x="231.933594" xlink:href="#DejaVuSans-50"/>
       <use x="295.556641" xlink:href="#DejaVuSans-53"/>
      </g>
     </g>
    </g>
    <g id="xtick_23">
     <g id="line2d_45">
      <path clip-path="url(#p1e045753ea)" d="M 821.797455 565.94 
L 821.797455 37.68 
" style="fill:none;stroke:#b0b0b0;stroke-linecap:square;stroke-width:0.8;"/>
     </g>
     <g id="line2d_46">
      <g>
       <use style="stroke:#000000;stroke-width:0.8;" x="821.797455" xlink:href="#mee0246ee08" y="565.94"/>
      </g>
     </g>
     <g id="text_23">
      <!-- B1-026 -->
      <g transform="translate(826.212455 630.41)rotate(-90)scale(0.16 -0.16)">
       <use xlink:href="#DejaVuSans-66"/>
       <use x="68.603516" xlink:href="#DejaVuSans-49"/>
       <use x="132.226562" xlink:href="#DejaVuSans-45"/>
       <use x="168.310547" xlink:href="#DejaVuSans-48"/>
       <use x="231.933594" xlink:href="#DejaVuSans-50"/>
       <use x="295.556641" xlink:href="#DejaVuSans-54"/>
      </g>
     </g>
    </g>
    <g id="xtick_24">
     <g id="line2d_47">
      <path clip-path="url(#p1e045753ea)" d="M 851.928182 565.94 
L 851.928182 37.68 
" style="fill:none;stroke:#b0b0b0;stroke-linecap:square;stroke-width:0.8;"/>
     </g>
     <g id="line2d_48">
      <g>
       <use style="stroke:#000000;stroke-width:0.8;" x="851.928182" xlink:href="#mee0246ee08" y="565.94"/>
      </g>
     </g>
     <g id="text_24">
      <!-- B1-027 -->
      <g transform="translate(856.343182 630.41)rotate(-90)scale(0.16 -0.16)">
       <use xlink:href="#DejaVuSans-66"/>
       <use x="68.603516" xlink:href="#DejaVuSans-49"/>
       <use x="132.226562" xlink:href="#DejaVuSans-45"/>
       <use x="168.310547" xlink:href="#DejaVuSans-48"/>
       <use x="231.933594" xlink:href="#DejaVuSans-50"/>
       <use x="295.556641" xlink:href="#DejaVuSans-55"/>
      </g>
     </g>
    </g>
    <g id="xtick_25">
     <g id="line2d_49">
      <path clip-path="url(#p1e045753ea)" d="M 882.058909 565.94 
L 882.058909 37.68 
" style="fill:none;stroke:#b0b0b0;stroke-linecap:square;stroke-width:0.8;"/>
     </g>
     <g id="line2d_50">
      <g>
       <use style="stroke:#000000;stroke-width:0.8;" x="882.058909" xlink:href="#mee0246ee08" y="565.94"/>
      </g>
     </g>
     <g id="text_25">
      <!-- B1-028 -->
      <g transform="translate(886.473909 630.41)rotate(-90)scale(0.16 -0.16)">
       <use xlink:href="#DejaVuSans-66"/>
       <use x="68.603516" xlink:href="#DejaVuSans-49"/>
       <use x="132.226562" xlink:href="#DejaVuSans-45"/>
       <use x="168.310547" xlink:href="#DejaVuSans-48"/>
       <use x="231.933594" xlink:href="#DejaVuSans-50"/>
       <use x="295.556641" xlink:href="#DejaVuSans-56"/>
      </g>
     </g>
    </g>
    <g id="xtick_26">
     <g id="line2d_51">
      <path clip-path="url(#p1e045753ea)" d="M 912.189636 565.94 
L 912.189636 37.68 
" style="fill:none;stroke:#b0b0b0;stroke-linecap:square;stroke-width:0.8;"/>
     </g>
     <g id="line2d_52">
      <g>
       <use style="stroke:#000000;stroke-width:0.8;" x="912.189636" xlink:href="#mee0246ee08" y="565.94"/>
      </g>
     </g>
     <g id="text_26">
      <!-- B1-029 -->
      <g transform="translate(916.604636 630.41)rotate(-90)scale(0.16 -0.16)">
       <use xlink:href="#DejaVuSans-66"/>
       <use x="68.603516" xlink:href="#DejaVuSans-49"/>
       <use x="132.226562" xlink:href="#DejaVuSans-45"/>
       <use x="168.310547" xlink:href="#DejaVuSans-48"/>
       <use x="231.933594" xlink:href="#DejaVuSans-50"/>
       <use x="295.556641" xlink:href="#DejaVuSans-57"/>
      </g>
     </g>
    </g>
    <g id="xtick_27">
     <g id="line2d_53">
      <path clip-path="url(#p1e045753ea)" d="M 942.320364 565.94 
L 942.320364 37.68 
" style="fill:none;stroke:#b0b0b0;stroke-linecap:square;stroke-width:0.8;"/>
     </g>
     <g id="line2d_54">
      <g>
       <use style="stroke:#000000;stroke-width:0.8;" x="942.320364" xlink:href="#mee0246ee08" y="565.94"/>
      </g>
     </g>
     <g id="text_27">
      <!-- B1-030 -->
      <g transform="translate(946.735364 630.41)rotate(-90)scale(0.16 -0.16)">
       <use xlink:href="#DejaVuSans-66"/>
       <use x="68.603516" xlink:href="#DejaVuSans-49"/>
       <use x="132.226562" xlink:href="#DejaVuSans-45"/>
       <use x="168.310547" xlink:href="#DejaVuSans-48"/>
       <use x="231.933594" xlink:href="#DejaVuSans-51"/>
       <use x="295.556641" xlink:href="#DejaVuSans-48"/>
      </g>
     </g>
    </g>
    <g id="xtick_28">
     <g id="line2d_55">
      <path clip-path="url(#p1e045753ea)" d="M 972.451091 565.94 
L 972.451091 37.68 
" style="fill:none;stroke:#b0b0b0;stroke-linecap:square;stroke-width:0.8;"/>
     </g>
     <g id="line2d_56">
      <g>
       <use style="stroke:#000000;stroke-width:0.8;" x="972.451091" xlink:href="#mee0246ee08" y="565.94"/>
      </g>
     </g>
     <g id="text_28">
      <!-- B1-031 -->
      <g transform="translate(976.866091 630.41)rotate(-90)scale(0.16 -0.16)">
       <use xlink:href="#DejaVuSans-66"/>
       <use x="68.603516" xlink:href="#DejaVuSans-49"/>
       <use x="132.226562" xlink:href="#DejaVuSans-45"/>
       <use x="168.310547" xlink:href="#DejaVuSans-48"/>
       <use x="231.933594" xlink:href="#DejaVuSans-51"/>
       <use x="295.556641" xlink:href="#DejaVuSans-49"/>
      </g>
     </g>
    </g>
    <g id="xtick_29">
     <g id="line2d_57">
      <path clip-path="url(#p1e045753ea)" d="M 1002.581818 565.94 
L 1002.581818 37.68 
" style="fill:none;stroke:#b0b0b0;stroke-linecap:square;stroke-width:0.8;"/>
     </g>
     <g id="line2d_58">
      <g>
       <use style="stroke:#000000;stroke-width:0.8;" x="1002.581818" xlink:href="#mee0246ee08" y="565.94"/>
      </g>
     </g>
     <g id="text_29">
      <!-- B1-032 -->
      <g transform="translate(1006.996818 630.41)rotate(-90)scale(0.16 -0.16)">
       <use xlink:href="#DejaVuSans-66"/>
       <use x="68.603516" xlink:href="#DejaVuSans-49"/>
       <use x="132.226562" xlink:href="#DejaVuSans-45"/>
       <use x="168.310547" xlink:href="#DejaVuSans-48"/>
       <use x="231.933594" xlink:href="#DejaVuSans-51"/>
       <use x="295.556641" xlink:href="#DejaVuSans-50"/>
      </g>
     </g>
    </g>
    <g id="xtick_30">
     <g id="line2d_59">
      <path clip-path="url(#p1e045753ea)" d="M 1032.712545 565.94 
L 1032.712545 37.68 
" style="fill:none;stroke:#b0b0b0;stroke-linecap:square;stroke-width:0.8;"/>
     </g>
     <g id="line2d_60">
      <g>
       <use style="stroke:#000000;stroke-width:0.8;" x="1032.712545" xlink:href="#mee0246ee08" y="565.94"/>
      </g>
     </g>
     <g id="text_30">
      <!-- B1-033 -->
      <g transform="translate(1037.127545 630.41)rotate(-90)scale(0.16 -0.16)">
       <use xlink:href="#DejaVuSans-66"/>
       <use x="68.603516" xlink:href="#DejaVuSans-49"/>
       <use x="132.226562" xlink:href="#DejaVuSans-45"/>
       <use x="168.310547" xlink:href="#DejaVuSans-48"/>
       <use x="231.933594" xlink:href="#DejaVuSans-51"/>
       <use x="295.556641" xlink:href="#DejaVuSans-51"/>
      </g>
     </g>
    </g>
    <g id="xtick_31">
     <g id="line2d_61">
      <path clip-path="url(#p1e045753ea)" d="M 1062.843273 565.94 
L 1062.843273 37.68 
" style="fill:none;stroke:#b0b0b0;stroke-linecap:square;stroke-width:0.8;"/>
     </g>
     <g id="line2d_62">
      <g>
       <use style="stroke:#000000;stroke-width:0.8;" x="1062.843273" xlink:href="#mee0246ee08" y="565.94"/>
      </g>
     </g>
     <g id="text_31">
      <!-- B1-034 -->
      <g transform="translate(1067.258273 630.41)rotate(-90)scale(0.16 -0.16)">
       <use xlink:href="#DejaVuSans-66"/>
       <use x="68.603516" xlink:href="#DejaVuSans-49"/>
       <use x="132.226562" xlink:href="#DejaVuSans-45"/>
       <use x="168.310547" xlink:href="#DejaVuSans-48"/>
       <use x="231.933594" xlink:href="#DejaVuSans-51"/>
       <use x="295.556641" xlink:href="#DejaVuSans-52"/>
      </g>
     </g>
    </g>
    <g id="xtick_32">
     <g id="line2d_63">
      <path clip-path="url(#p1e045753ea)" d="M 1092.974 565.94 
L 1092.974 37.68 
" style="fill:none;stroke:#b0b0b0;stroke-linecap:square;stroke-width:0.8;"/>
     </g>
     <g id="line2d_64">
      <g>
       <use style="stroke:#000000;stroke-width:0.8;" x="1092.974" xlink:href="#mee0246ee08" y="565.94"/>
      </g>
     </g>
     <g id="text_32">
      <!-- B1-035 -->
      <g transform="translate(1097.389 630.41)rotate(-90)scale(0.16 -0.16)">
       <use xlink:href="#DejaVuSans-66"/>
       <use x="68.603516" xlink:href="#DejaVuSans-49"/>
       <use x="132.226562" xlink:href="#DejaVuSans-45"/>
       <use x="168.310547" xlink:href="#DejaVuSans-48"/>
       <use x="231.933594" xlink:href="#DejaVuSans-51"/>
       <use x="295.556641" xlink:href="#DejaVuSans-53"/>
      </g>
     </g>
    </g>
    <g id="xtick_33">
     <g id="line2d_65">
      <path clip-path="url(#p1e045753ea)" d="M 1123.104727 565.94 
L 1123.104727 37.68 
" style="fill:none;stroke:#b0b0b0;stroke-linecap:square;stroke-width:0.8;"/>
     </g>
     <g id="line2d_66">
      <g>
       <use style="stroke:#000000;stroke-width:0.8;" x="1123.104727" xlink:href="#mee0246ee08" y="565.94"/>
      </g>
     </g>
     <g id="text_33">
      <!-- B1-036 -->
      <g transform="translate(1127.519727 630.41)rotate(-90)scale(0.16 -0.16)">
       <use xlink:href="#DejaVuSans-66"/>
       <use x="68.603516" xlink:href="#DejaVuSans-49"/>
       <use x="132.226562" xlink:href="#DejaVuSans-45"/>
       <use x="168.310547" xlink:href="#DejaVuSans-48"/>
       <use x="231.933594" xlink:href="#DejaVuSans-51"/>
       <use x="295.556641" xlink:href="#DejaVuSans-54"/>
      </g>
     </g>
    </g>
    <g id="xtick_34">
     <g id="line2d_67">
      <path clip-path="url(#p1e045753ea)" d="M 1153.235455 565.94 
L 1153.235455 37.68 
" style="fill:none;stroke:#b0b0b0;stroke-linecap:square;stroke-width:0.8;"/>
     </g>
     <g id="line2d_68">
      <g>
       <use style="stroke:#000000;stroke-width:0.8;" x="1153.235455" xlink:href="#mee0246ee08" y="565.94"/>
      </g>
     </g>
     <g id="text_34">
      <!-- B1-037 -->
      <g transform="translate(1157.650455 630.41)rotate(-90)scale(0.16 -0.16)">
       <use xlink:href="#DejaVuSans-66"/>
       <use x="68.603516" xlink:href="#DejaVuSans-49"/>
       <use x="132.226562" xlink:href="#DejaVuSans-45"/>
       <use x="168.310547" xlink:href="#DejaVuSans-48"/>
       <use x="231.933594" xlink:href="#DejaVuSans-51"/>
       <use x="295.556641" xlink:href="#DejaVuSans-55"/>
      </g>
     </g>
    </g>
    <g id="xtick_35">
     <g id="line2d_69">
      <path clip-path="url(#p1e045753ea)" d="M 1183.366182 565.94 
L 1183.366182 37.68 
" style="fill:none;stroke:#b0b0b0;stroke-linecap:square;stroke-width:0.8;"/>
     </g>
     <g id="line2d_70">
      <g>
       <use style="stroke:#000000;stroke-width:0.8;" x="1183.366182" xlink:href="#mee0246ee08" y="565.94"/>
      </g>
     </g>
     <g id="text_35">
      <!-- B1-038 -->
      <g transform="translate(1187.781182 630.41)rotate(-90)scale(0.16 -0.16)">
       <use xlink:href="#DejaVuSans-66"/>
       <use x="68.603516" xlink:href="#DejaVuSans-49"/>
       <use x="132.226562" xlink:href="#DejaVuSans-45"/>
       <use x="168.310547" xlink:href="#DejaVuSans-48"/>
       <use x="231.933594" xlink:href="#DejaVuSans-51"/>
       <use x="295.556641" xlink:href="#DejaVuSans-56"/>
      </g>
     </g>
    </g>
    <g id="xtick_36">
     <g id="line2d_71">
      <path clip-path="url(#p1e045753ea)" d="M 1213.496909 565.94 
L 1213.496909 37.68 
" style="fill:none;stroke:#b0b0b0;stroke-linecap:square;stroke-width:0.8;"/>
     </g>
     <g id="line2d_72">
      <g>
       <use style="stroke:#000000;stroke-width:0.8;" x="1213.496909" xlink:href="#mee0246ee08" y="565.94"/>
      </g>
     </g>
     <g id="text_36">
      <!-- B1-039 -->
      <g transform="translate(1217.911909 630.41)rotate(-90)scale(0.16 -0.16)">
       <use xlink:href="#DejaVuSans-66"/>
       <use x="68.603516" xlink:href="#DejaVuSans-49"/>
       <use x="132.226562" xlink:href="#DejaVuSans-45"/>
       <use x="168.310547" xlink:href="#DejaVuSans-48"/>
       <use x="231.933594" xlink:href="#DejaVuSans-51"/>
       <use x="295.556641" xlink:href="#DejaVuSans-57"/>
      </g>
     </g>
    </g>
    <g id="xtick_37">
     <g id="line2d_73">
      <path clip-path="url(#p1e045753ea)" d="M 1243.627636 565.94 
L 1243.627636 37.68 
" style="fill:none;stroke:#b0b0b0;stroke-linecap:square;stroke-width:0.8;"/>
     </g>
     <g id="line2d_74">
      <g>
       <use style="stroke:#000000;stroke-width:0.8;" x="1243.627636" xlink:href="#mee0246ee08" y="565.94"/>
      </g>
     </g>
     <g id="text_37">
      <!-- B1-040 -->
      <g transform="translate(1248.042636 630.41)rotate(-90)scale(0.16 -0.16)">
       <use xlink:href="#DejaVuSans-66"/>
       <use x="68.603516" xlink:href="#DejaVuSans-49"/>
       <use x="132.226562" xlink:href="#DejaVuSans-45"/>
       <use x="168.310547" xlink:href="#DejaVuSans-48"/>
       <use x="231.933594" xlink:href="#DejaVuSans-52"/>
       <use x="295.556641" xlink:href="#DejaVuSans-48"/>
      </g>
     </g>
    </g>
    <g id="xtick_38">
     <g id="line2d_75">
      <path clip-path="url(#p1e045753ea)" d="M 1273.758364 565.94 
L 1273.758364 37.68 
" style="fill:none;stroke:#b0b0b0;stroke-linecap:square;stroke-width:0.8;"/>
     </g>
     <g id="line2d_76">
      <g>
       <use style="stroke:#000000;stroke-width:0.8;" x="1273.758364" xlink:href="#mee0246ee08" y="565.94"/>
      </g>
     </g>
     <g id="text_38">
      <!-- B1-041 -->
      <g transform="translate(1278.173364 630.41)rotate(-90)scale(0.16 -0.16)">
       <use xlink:href="#DejaVuSans-66"/>
       <use x="68.603516" xlink:href="#DejaVuSans-49"/>
       <use x="132.226562" xlink:href="#DejaVuSans-45"/>
       <use x="168.310547" xlink:href="#DejaVuSans-48"/>
       <use x="231.933594" xlink:href="#DejaVuSans-52"/>
       <use x="295.556641" xlink:href="#DejaVuSans-49"/>
      </g>
     </g>
    </g>
    <g id="xtick_39">
     <g id="line2d_77">
      <path clip-path="url(#p1e045753ea)" d="M 1303.889091 565.94 
L 1303.889091 37.68 
" style="fill:none;stroke:#b0b0b0;stroke-linecap:square;stroke-width:0.8;"/>
     </g>
     <g id="line2d_78">
      <g>
       <use style="stroke:#000000;stroke-width:0.8;" x="1303.889091" xlink:href="#mee0246ee08" y="565.94"/>
      </g>
     </g>
     <g id="text_39">
      <!-- B1-042 -->
      <g transform="translate(1308.304091 630.41)rotate(-90)scale(0.16 -0.16)">
       <use xlink:href="#DejaVuSans-66"/>
       <use x="68.603516" xlink:href="#DejaVuSans-49"/>
       <use x="132.226562" xlink:href="#DejaVuSans-45"/>
       <use x="168.310547" xlink:href="#DejaVuSans-48"/>
       <use x="231.933594" xlink:href="#DejaVuSans-52"/>
       <use x="295.556641" xlink:href="#DejaVuSans-50"/>
      </g>
     </g>
    </g>
    <g id="xtick_40">
     <g id="line2d_79">
      <path clip-path="url(#p1e045753ea)" d="M 1334.019818 565.94 
L 1334.019818 37.68 
" style="fill:none;stroke:#b0b0b0;stroke-linecap:square;stroke-width:0.8;"/>
     </g>
     <g id="line2d_80">
      <g>
       <use style="stroke:#000000;stroke-width:0.8;" x="1334.019818" xlink:href="#mee0246ee08" y="565.94"/>
      </g>
     </g>
     <g id="text_40">
      <!-- B1-043 -->
      <g transform="translate(1338.434818 630.41)rotate(-90)scale(0.16 -0.16)">
       <use xlink:href="#DejaVuSans-66"/>
       <use x="68.603516" xlink:href="#DejaVuSans-49"/>
       <use x="132.226562" xlink:href="#DejaVuSans-45"/>
       <use x="168.310547" xlink:href="#DejaVuSans-48"/>
       <use x="231.933594" xlink:href="#DejaVuSans-52"/>
       <use x="295.556641" xlink:href="#DejaVuSans-51"/>
      </g>
     </g>
    </g>
    <g id="xtick_41">
     <g id="line2d_81">
      <path clip-path="url(#p1e045753ea)" d="M 1364.150545 565.94 
L 1364.150545 37.68 
" style="fill:none;stroke:#b0b0b0;stroke-linecap:square;stroke-width:0.8;"/>
     </g>
     <g id="line2d_82">
      <g>
       <use style="stroke:#000000;stroke-width:0.8;" x="1364.150545" xlink:href="#mee0246ee08" y="565.94"/>
      </g>
     </g>
     <g id="text_41">
      <!-- B1-046 -->
      <g transform="translate(1368.565545 630.41)rotate(-90)scale(0.16 -0.16)">
       <use xlink:href="#DejaVuSans-66"/>
       <use x="68.603516" xlink:href="#DejaVuSans-49"/>
       <use x="132.226562" xlink:href="#DejaVuSans-45"/>
       <use x="168.310547" xlink:href="#DejaVuSans-48"/>
       <use x="231.933594" xlink:href="#DejaVuSans-52"/>
       <use x="295.556641" xlink:href="#DejaVuSans-54"/>
      </g>
     </g>
    </g>
    <g id="xtick_42">
     <g id="line2d_83">
      <path clip-path="url(#p1e045753ea)" d="M 1394.281273 565.94 
L 1394.281273 37.68 
" style="fill:none;stroke:#b0b0b0;stroke-linecap:square;stroke-width:0.8;"/>
     </g>
     <g id="line2d_84">
      <g>
       <use style="stroke:#000000;stroke-width:0.8;" x="1394.281273" xlink:href="#mee0246ee08" y="565.94"/>
      </g>
     </g>
    </g>
   </g>
   <g id="matplotlib.axis_2">
    <g id="ytick_1">
     <g id="line2d_85">
      <path clip-path="url(#p1e045753ea)" d="M 98.66 532.20201 
L 1424.412 532.20201 
" style="fill:none;stroke:#b0b0b0;stroke-linecap:square;stroke-width:0.8;"/>
     </g>
     <g id="line2d_86">
      <defs>
       <path d="M 0 0 
L -3.5 0 
" id="m84e85313e2" style="stroke:#000000;stroke-width:0.8;"/>
      </defs>
      <g>
       <use style="stroke:#000000;stroke-width:0.8;" x="98.66" xlink:href="#m84e85313e2" y="532.20201"/>
      </g>
     </g>
     <g id="text_42">
      <!-- 1.3770 -->
      <defs>
       <path d="M 10.6875 12.40625 
L 21 12.40625 
L 21 0 
L 10.6875 0 
z
" id="DejaVuSans-46"/>
      </defs>
      <g transform="translate(35.675 538.28076)scale(0.16 -0.16)">
       <use xlink:href="#DejaVuSans-49"/>
       <use x="63.623047" xlink:href="#DejaVuSans-46"/>
       <use x="95.410156" xlink:href="#DejaVuSans-51"/>
       <use x="159.033203" xlink:href="#DejaVuSans-55"/>
       <use x="222.65625" xlink:href="#DejaVuSans-55"/>
       <use x="286.279297" xlink:href="#DejaVuSans-48"/>
      </g>
     </g>
    </g>
    <g id="ytick_2">
     <g id="line2d_87">
      <path clip-path="url(#p1e045753ea)" d="M 98.66 438.889118 
L 1424.412 438.889118 
" style="fill:none;stroke:#b0b0b0;stroke-linecap:square;stroke-width:0.8;"/>
     </g>
     <g id="line2d_88">
      <g>
       <use style="stroke:#000000;stroke-width:0.8;" x="98.66" xlink:href="#m84e85313e2" y="438.889118"/>
      </g>
     </g>
     <g id="text_43">
      <!-- 1.3772 -->
      <g transform="translate(35.675 444.967868)scale(0.16 -0.16)">
       <use xlink:href="#DejaVuSans-49"/>
       <use x="63.623047" xlink:href="#DejaVuSans-46"/>
       <use x="95.410156" xlink:href="#DejaVuSans-51"/>
       <use x="159.033203" xlink:href="#DejaVuSans-55"/>
       <use x="222.65625" xlink:href="#DejaVuSans-55"/>
       <use x="286.279297" xlink:href="#DejaVuSans-50"/>
      </g>
     </g>
    </g>
    <g id="ytick_3">
     <g id="line2d_89">
      <path clip-path="url(#p1e045753ea)" d="M 98.66 345.576226 
L 1424.412 345.576226 
" style="fill:none;stroke:#b0b0b0;stroke-linecap:square;stroke-width:0.8;"/>
     </g>
     <g id="line2d_90">
      <g>
       <use style="stroke:#000000;stroke-width:0.8;" x="98.66" xlink:href="#m84e85313e2" y="345.576226"/>
      </g>
     </g>
     <g id="text_44">
      <!-- 1.3774 -->
      <g transform="translate(35.675 351.654976)scale(0.16 -0.16)">
       <use xlink:href="#DejaVuSans-49"/>
       <use x="63.623047" xlink:href="#DejaVuSans-46"/>
       <use x="95.410156" xlink:href="#DejaVuSans-51"/>
       <use x="159.033203" xlink:href="#DejaVuSans-55"/>
       <use x="222.65625" xlink:href="#DejaVuSans-55"/>
       <use x="286.279297" xlink:href="#DejaVuSans-52"/>
      </g>
     </g>
    </g>
    <g id="ytick_4">
     <g id="line2d_91">
      <path clip-path="url(#p1e045753ea)" d="M 98.66 252.263334 
L 1424.412 252.263334 
" style="fill:none;stroke:#b0b0b0;stroke-linecap:square;stroke-width:0.8;"/>
     </g>
     <g id="line2d_92">
      <g>
       <use style="stroke:#000000;stroke-width:0.8;" x="98.66" xlink:href="#m84e85313e2" y="252.263334"/>
      </g>
     </g>
     <g id="text_45">
      <!-- 1.3776 -->
      <g transform="translate(35.675 258.342084)scale(0.16 -0.16)">
       <use xlink:href="#DejaVuSans-49"/>
       <use x="63.623047" xlink:href="#DejaVuSans-46"/>
       <use x="95.410156" xlink:href="#DejaVuSans-51"/>
       <use x="159.033203" xlink:href="#DejaVuSans-55"/>
       <use x="222.65625" xlink:href="#DejaVuSans-55"/>
       <use x="286.279297" xlink:href="#DejaVuSans-54"/>
      </g>
     </g>
    </g>
    <g id="ytick_5">
     <g id="line2d_93">
      <path clip-path="url(#p1e045753ea)" d="M 98.66 158.950442 
L 1424.412 158.950442 
" style="fill:none;stroke:#b0b0b0;stroke-linecap:square;stroke-width:0.8;"/>
     </g>
     <g id="line2d_94">
      <g>
       <use style="stroke:#000000;stroke-width:0.8;" x="98.66" xlink:href="#m84e85313e2" y="158.950442"/>
      </g>
     </g>
     <g id="text_46">
      <!-- 1.3778 -->
      <g transform="translate(35.675 165.029192)scale(0.16 -0.16)">
       <use xlink:href="#DejaVuSans-49"/>
       <use x="63.623047" xlink:href="#DejaVuSans-46"/>
       <use x="95.410156" xlink:href="#DejaVuSans-51"/>
       <use x="159.033203" xlink:href="#DejaVuSans-55"/>
       <use x="222.65625" xlink:href="#DejaVuSans-55"/>
       <use x="286.279297" xlink:href="#DejaVuSans-56"/>
      </g>
     </g>
    </g>
    <g id="ytick_6">
     <g id="line2d_95">
      <path clip-path="url(#p1e045753ea)" d="M 98.66 65.63755 
L 1424.412 65.63755 
" style="fill:none;stroke:#b0b0b0;stroke-linecap:square;stroke-width:0.8;"/>
     </g>
     <g id="line2d_96">
      <g>
       <use style="stroke:#000000;stroke-width:0.8;" x="98.66" xlink:href="#m84e85313e2" y="65.63755"/>
      </g>
     </g>
     <g id="text_47">
      <!-- 1.3780 -->
      <g transform="translate(35.675 71.7163)scale(0.16 -0.16)">
       <use xlink:href="#DejaVuSans-49"/>
       <use x="63.623047" xlink:href="#DejaVuSans-46"/>
       <use x="95.410156" xlink:href="#DejaVuSans-51"/>
       <use x="159.033203" xlink:href="#DejaVuSans-55"/>
       <use x="222.65625" xlink:href="#DejaVuSans-56"/>
       <use x="286.279297" xlink:href="#DejaVuSans-48"/>
      </g>
     </g>
    </g>
    <g id="text_48">
     <!-- Deflection angle [deg] -->
     <defs>
      <path d="M 19.671875 64.796875 
L 19.671875 8.109375 
L 31.59375 8.109375 
Q 46.6875 8.109375 53.6875 14.9375 
Q 60.6875 21.78125 60.6875 36.53125 
Q 60.6875 51.171875 53.6875 57.984375 
Q 46.6875 64.796875 31.59375 64.796875 
z
M 9.8125 72.90625 
L 30.078125 72.90625 
Q 51.265625 72.90625 61.171875 64.09375 
Q 71.09375 55.28125 71.09375 36.53125 
Q 71.09375 17.671875 61.125 8.828125 
Q 51.171875 0 30.078125 0 
L 9.8125 0 
z
" id="DejaVuSans-68"/>
      <path d="M 56.203125 29.59375 
L 56.203125 25.203125 
L 14.890625 25.203125 
Q 15.484375 15.921875 20.484375 11.0625 
Q 25.484375 6.203125 34.421875 6.203125 
Q 39.59375 6.203125 44.453125 7.46875 
Q 49.3125 8.734375 54.109375 11.28125 
L 54.109375 2.78125 
Q 49.265625 0.734375 44.1875 -0.34375 
Q 39.109375 -1.421875 33.890625 -1.421875 
Q 20.796875 -1.421875 13.15625 6.1875 
Q 5.515625 13.8125 5.515625 26.8125 
Q 5.515625 40.234375 12.765625 48.109375 
Q 20.015625 56 32.328125 56 
Q 43.359375 56 49.78125 48.890625 
Q 56.203125 41.796875 56.203125 29.59375 
z
M 47.21875 32.234375 
Q 47.125 39.59375 43.09375 43.984375 
Q 39.0625 48.390625 32.421875 48.390625 
Q 24.90625 48.390625 20.390625 44.140625 
Q 15.875 39.890625 15.1875 32.171875 
z
" id="DejaVuSans-101"/>
      <path d="M 37.109375 75.984375 
L 37.109375 68.5 
L 28.515625 68.5 
Q 23.6875 68.5 21.796875 66.546875 
Q 19.921875 64.59375 19.921875 59.515625 
L 19.921875 54.6875 
L 34.71875 54.6875 
L 34.71875 47.703125 
L 19.921875 47.703125 
L 19.921875 0 
L 10.890625 0 
L 10.890625 47.703125 
L 2.296875 47.703125 
L 2.296875 54.6875 
L 10.890625 54.6875 
L 10.890625 58.5 
Q 10.890625 67.625 15.140625 71.796875 
Q 19.390625 75.984375 28.609375 75.984375 
z
" id="DejaVuSans-102"/>
      <path d="M 9.421875 75.984375 
L 18.40625 75.984375 
L 18.40625 0 
L 9.421875 0 
z
" id="DejaVuSans-108"/>
      <path d="M 48.78125 52.59375 
L 48.78125 44.1875 
Q 44.96875 46.296875 41.140625 47.34375 
Q 37.3125 48.390625 33.40625 48.390625 
Q 24.65625 48.390625 19.8125 42.84375 
Q 14.984375 37.3125 14.984375 27.296875 
Q 14.984375 17.28125 19.8125 11.734375 
Q 24.65625 6.203125 33.40625 6.203125 
Q 37.3125 6.203125 41.140625 7.25 
Q 44.96875 8.296875 48.78125 10.40625 
L 48.78125 2.09375 
Q 45.015625 0.34375 40.984375 -0.53125 
Q 36.96875 -1.421875 32.421875 -1.421875 
Q 20.0625 -1.421875 12.78125 6.34375 
Q 5.515625 14.109375 5.515625 27.296875 
Q 5.515625 40.671875 12.859375 48.328125 
Q 20.21875 56 33.015625 56 
Q 37.15625 56 41.109375 55.140625 
Q 45.0625 54.296875 48.78125 52.59375 
z
" id="DejaVuSans-99"/>
      <path d="M 18.3125 70.21875 
L 18.3125 54.6875 
L 36.8125 54.6875 
L 36.8125 47.703125 
L 18.3125 47.703125 
L 18.3125 18.015625 
Q 18.3125 11.328125 20.140625 9.421875 
Q 21.96875 7.515625 27.59375 7.515625 
L 36.8125 7.515625 
L 36.8125 0 
L 27.59375 0 
Q 17.1875 0 13.234375 3.875 
Q 9.28125 7.765625 9.28125 18.015625 
L 9.28125 47.703125 
L 2.6875 47.703125 
L 2.6875 54.6875 
L 9.28125 54.6875 
L 9.28125 70.21875 
z
" id="DejaVuSans-116"/>
      <path d="M 9.421875 54.6875 
L 18.40625 54.6875 
L 18.40625 0 
L 9.421875 0 
z
M 9.421875 75.984375 
L 18.40625 75.984375 
L 18.40625 64.59375 
L 9.421875 64.59375 
z
" id="DejaVuSans-105"/>
      <path d="M 30.609375 48.390625 
Q 23.390625 48.390625 19.1875 42.75 
Q 14.984375 37.109375 14.984375 27.296875 
Q 14.984375 17.484375 19.15625 11.84375 
Q 23.34375 6.203125 30.609375 6.203125 
Q 37.796875 6.203125 41.984375 11.859375 
Q 46.1875 17.53125 46.1875 27.296875 
Q 46.1875 37.015625 41.984375 42.703125 
Q 37.796875 48.390625 30.609375 48.390625 
z
M 30.609375 56 
Q 42.328125 56 49.015625 48.375 
Q 55.71875 40.765625 55.71875 27.296875 
Q 55.71875 13.875 49.015625 6.21875 
Q 42.328125 -1.421875 30.609375 -1.421875 
Q 18.84375 -1.421875 12.171875 6.21875 
Q 5.515625 13.875 5.515625 27.296875 
Q 5.515625 40.765625 12.171875 48.375 
Q 18.84375 56 30.609375 56 
z
" id="DejaVuSans-111"/>
      <path d="M 54.890625 33.015625 
L 54.890625 0 
L 45.90625 0 
L 45.90625 32.71875 
Q 45.90625 40.484375 42.875 44.328125 
Q 39.84375 48.1875 33.796875 48.1875 
Q 26.515625 48.1875 22.3125 43.546875 
Q 18.109375 38.921875 18.109375 30.90625 
L 18.109375 0 
L 9.078125 0 
L 9.078125 54.6875 
L 18.109375 54.6875 
L 18.109375 46.1875 
Q 21.34375 51.125 25.703125 53.5625 
Q 30.078125 56 35.796875 56 
Q 45.21875 56 50.046875 50.171875 
Q 54.890625 44.34375 54.890625 33.015625 
z
" id="DejaVuSans-110"/>
      <path id="DejaVuSans-32"/>
      <path d="M 34.28125 27.484375 
Q 23.390625 27.484375 19.1875 25 
Q 14.984375 22.515625 14.984375 16.5 
Q 14.984375 11.71875 18.140625 8.90625 
Q 21.296875 6.109375 26.703125 6.109375 
Q 34.1875 6.109375 38.703125 11.40625 
Q 43.21875 16.703125 43.21875 25.484375 
L 43.21875 27.484375 
z
M 52.203125 31.203125 
L 52.203125 0 
L 43.21875 0 
L 43.21875 8.296875 
Q 40.140625 3.328125 35.546875 0.953125 
Q 30.953125 -1.421875 24.3125 -1.421875 
Q 15.921875 -1.421875 10.953125 3.296875 
Q 6 8.015625 6 15.921875 
Q 6 25.140625 12.171875 29.828125 
Q 18.359375 34.515625 30.609375 34.515625 
L 43.21875 34.515625 
L 43.21875 35.40625 
Q 43.21875 41.609375 39.140625 45 
Q 35.0625 48.390625 27.6875 48.390625 
Q 23 48.390625 18.546875 47.265625 
Q 14.109375 46.140625 10.015625 43.890625 
L 10.015625 52.203125 
Q 14.9375 54.109375 19.578125 55.046875 
Q 24.21875 56 28.609375 56 
Q 40.484375 56 46.34375 49.84375 
Q 52.203125 43.703125 52.203125 31.203125 
z
" id="DejaVuSans-97"/>
      <path d="M 45.40625 27.984375 
Q 45.40625 37.75 41.375 43.109375 
Q 37.359375 48.484375 30.078125 48.484375 
Q 22.859375 48.484375 18.828125 43.109375 
Q 14.796875 37.75 14.796875 27.984375 
Q 14.796875 18.265625 18.828125 12.890625 
Q 22.859375 7.515625 30.078125 7.515625 
Q 37.359375 7.515625 41.375 12.890625 
Q 45.40625 18.265625 45.40625 27.984375 
z
M 54.390625 6.78125 
Q 54.390625 -7.171875 48.1875 -13.984375 
Q 42 -20.796875 29.203125 -20.796875 
Q 24.46875 -20.796875 20.265625 -20.09375 
Q 16.0625 -19.390625 12.109375 -17.921875 
L 12.109375 -9.1875 
Q 16.0625 -11.328125 19.921875 -12.34375 
Q 23.78125 -13.375 27.78125 -13.375 
Q 36.625 -13.375 41.015625 -8.765625 
Q 45.40625 -4.15625 45.40625 5.171875 
L 45.40625 9.625 
Q 42.625 4.78125 38.28125 2.390625 
Q 33.9375 0 27.875 0 
Q 17.828125 0 11.671875 7.65625 
Q 5.515625 15.328125 5.515625 27.984375 
Q 5.515625 40.671875 11.671875 48.328125 
Q 17.828125 56 27.875 56 
Q 33.9375 56 38.28125 53.609375 
Q 42.625 51.21875 45.40625 46.390625 
L 45.40625 54.6875 
L 54.390625 54.6875 
z
" id="DejaVuSans-103"/>
      <path d="M 8.59375 75.984375 
L 29.296875 75.984375 
L 29.296875 69 
L 17.578125 69 
L 17.578125 -6.203125 
L 29.296875 -6.203125 
L 29.296875 -13.1875 
L 8.59375 -13.1875 
z
" id="DejaVuSans-91"/>
      <path d="M 45.40625 46.390625 
L 45.40625 75.984375 
L 54.390625 75.984375 
L 54.390625 0 
L 45.40625 0 
L 45.40625 8.203125 
Q 42.578125 3.328125 38.25 0.953125 
Q 33.9375 -1.421875 27.875 -1.421875 
Q 17.96875 -1.421875 11.734375 6.484375 
Q 5.515625 14.40625 5.515625 27.296875 
Q 5.515625 40.1875 11.734375 48.09375 
Q 17.96875 56 27.875 56 
Q 33.9375 56 38.25 53.625 
Q 42.578125 51.265625 45.40625 46.390625 
z
M 14.796875 27.296875 
Q 14.796875 17.390625 18.875 11.75 
Q 22.953125 6.109375 30.078125 6.109375 
Q 37.203125 6.109375 41.296875 11.75 
Q 45.40625 17.390625 45.40625 27.296875 
Q 45.40625 37.203125 41.296875 42.84375 
Q 37.203125 48.484375 30.078125 48.484375 
Q 22.953125 48.484375 18.875 42.84375 
Q 14.796875 37.203125 14.796875 27.296875 
z
" id="DejaVuSans-100"/>
      <path d="M 30.421875 75.984375 
L 30.421875 -13.1875 
L 9.71875 -13.1875 
L 9.71875 -6.203125 
L 21.390625 -6.203125 
L 21.390625 69 
L 9.71875 69 
L 9.71875 75.984375 
z
" id="DejaVuSans-93"/>
     </defs>
     <g transform="translate(28.3475 391.18)rotate(-90)scale(0.16 -0.16)">
      <use xlink:href="#DejaVuSans-68"/>
      <use x="77.001953" xlink:href="#DejaVuSans-101"/>
      <use x="138.525391" xlink:href="#DejaVuSans-102"/>
      <use x="173.730469" xlink:href="#DejaVuSans-108"/>
      <use x="201.513672" xlink:href="#DejaVuSans-101"/>
      <use x="263.037109" xlink:href="#DejaVuSans-99"/>
      <use x="318.017578" xlink:href="#DejaVuSans-116"/>
      <use x="357.226562" xlink:href="#DejaVuSans-105"/>
      <use x="385.009766" xlink:href="#DejaVuSans-111"/>
      <use x="446.191406" xlink:href="#DejaVuSans-110"/>
      <use x="509.570312" xlink:href="#DejaVuSans-32"/>
      <use x="541.357422" xlink:href="#DejaVuSans-97"/>
      <use x="602.636719" xlink:href="#DejaVuSans-110"/>
      <use x="666.015625" xlink:href="#DejaVuSans-103"/>
      <use x="729.492188" xlink:href="#DejaVuSans-108"/>
      <use x="757.275391" xlink:href="#DejaVuSans-101"/>
      <use x="818.798828" xlink:href="#DejaVuSans-32"/>
      <use x="850.585938" xlink:href="#DejaVuSans-91"/>
      <use x="889.599609" xlink:href="#DejaVuSans-100"/>
      <use x="953.076172" xlink:href="#DejaVuSans-101"/>
      <use x="1014.599609" xlink:href="#DejaVuSans-103"/>
      <use x="1078.076172" xlink:href="#DejaVuSans-93"/>
     </g>
    </g>
   </g>
   <g id="line2d_97">
    <path clip-path="url(#p1e045753ea)" d="M 158.921455 235.110505 
L 189.052182 181.750909 
L 219.182909 355.169596 
L 249.313636 368.509495 
L 279.444364 155.071111 
L 309.575091 301.81 
L 339.705818 301.81 
L 369.836545 461.888788 
L 399.967273 101.711515 
L 430.098 141.731212 
L 460.228727 341.829697 
L 490.359455 88.371616 
L 520.490182 461.888788 
L 550.620909 75.031717 
L 580.751636 75.031717 
L 610.882364 541.928182 
L 641.013091 75.031717 
L 671.143818 341.829697 
L 701.274545 141.731212 
L 731.405273 141.731212 
L 761.536 275.130202 
L 791.666727 488.568586 
L 821.797455 448.548889 
L 851.928182 155.071111 
L 882.058909 75.031717 
L 912.189636 181.750909 
L 942.320364 128.391313 
L 972.451091 341.829697 
L 1002.581818 315.149899 
L 1032.712545 248.450404 
L 1062.843273 101.711515 
L 1092.974 368.509495 
L 1123.104727 315.149899 
L 1153.235455 195.090808 
L 1183.366182 395.189293 
L 1213.496909 61.691818 
L 1243.627636 395.189293 
L 1273.758364 88.371616 
L 1303.889091 328.489798 
L 1334.019818 301.81 
L 1364.150545 221.770606 
" style="fill:none;stroke:#0000ff;stroke-linecap:square;stroke-width:1.5;"/>
    <defs>
     <path d="M 0 3 
C 0.795609 3 1.55874 2.683901 2.12132 2.12132 
C 2.683901 1.55874 3 0.795609 3 0 
C 3 -0.795609 2.683901 -1.55874 2.12132 -2.12132 
C 1.55874 -2.683901 0.795609 -3 0 -3 
C -0.795609 -3 -1.55874 -2.683901 -2.12132 -2.12132 
C -2.683901 -1.55874 -3 -0.795609 -3 0 
C -3 0.795609 -2.683901 1.55874 -2.12132 2.12132 
C -1.55874 2.683901 -0.795609 3 0 3 
z
" id="mc01154c18d" style="stroke:#0000ff;"/>
    </defs>
    <g clip-path="url(#p1e045753ea)">
     <use style="fill:#0000ff;stroke:#0000ff;" x="158.921455" xlink:href="#mc01154c18d" y="235.110505"/>
     <use style="fill:#0000ff;stroke:#0000ff;" x="189.052182" xlink:href="#mc01154c18d" y="181.750909"/>
     <use style="fill:#0000ff;stroke:#0000ff;" x="219.182909" xlink:href="#mc01154c18d" y="355.169596"/>
     <use style="fill:#0000ff;stroke:#0000ff;" x="249.313636" xlink:href="#mc01154c18d" y="368.509495"/>
     <use style="fill:#0000ff;stroke:#0000ff;" x="279.444364" xlink:href="#mc01154c18d" y="155.071111"/>
     <use style="fill:#0000ff;stroke:#0000ff;" x="309.575091" xlink:href="#mc01154c18d" y="301.81"/>
     <use style="fill:#0000ff;stroke:#0000ff;" x="339.705818" xlink:href="#mc01154c18d" y="301.81"/>
     <use style="fill:#0000ff;stroke:#0000ff;" x="369.836545" xlink:href="#mc01154c18d" y="461.888788"/>
     <use style="fill:#0000ff;stroke:#0000ff;" x="399.967273" xlink:href="#mc01154c18d" y="101.711515"/>
     <use style="fill:#0000ff;stroke:#0000ff;" x="430.098" xlink:href="#mc01154c18d" y="141.731212"/>
     <use style="fill:#0000ff;stroke:#0000ff;" x="460.228727" xlink:href="#mc01154c18d" y="341.829697"/>
     <use style="fill:#0000ff;stroke:#0000ff;" x="490.359455" xlink:href="#mc01154c18d" y="88.371616"/>
     <use style="fill:#0000ff;stroke:#0000ff;" x="520.490182" xlink:href="#mc01154c18d" y="461.888788"/>
     <use style="fill:#0000ff;stroke:#0000ff;" x="550.620909" xlink:href="#mc01154c18d" y="75.031717"/>
     <use style="fill:#0000ff;stroke:#0000ff;" x="580.751636" xlink:href="#mc01154c18d" y="75.031717"/>
     <use style="fill:#0000ff;stroke:#0000ff;" x="610.882364" xlink:href="#mc01154c18d" y="541.928182"/>
     <use style="fill:#0000ff;stroke:#0000ff;" x="641.013091" xlink:href="#mc01154c18d" y="75.031717"/>
     <use style="fill:#0000ff;stroke:#0000ff;" x="671.143818" xlink:href="#mc01154c18d" y="341.829697"/>
     <use style="fill:#0000ff;stroke:#0000ff;" x="701.274545" xlink:href="#mc01154c18d" y="141.731212"/>
     <use style="fill:#0000ff;stroke:#0000ff;" x="731.405273" xlink:href="#mc01154c18d" y="141.731212"/>
     <use style="fill:#0000ff;stroke:#0000ff;" x="761.536" xlink:href="#mc01154c18d" y="275.130202"/>
     <use style="fill:#0000ff;stroke:#0000ff;" x="791.666727" xlink:href="#mc01154c18d" y="488.568586"/>
     <use style="fill:#0000ff;stroke:#0000ff;" x="821.797455" xlink:href="#mc01154c18d" y="448.548889"/>
     <use style="fill:#0000ff;stroke:#0000ff;" x="851.928182" xlink:href="#mc01154c18d" y="155.071111"/>
     <use style="fill:#0000ff;stroke:#0000ff;" x="882.058909" xlink:href="#mc01154c18d" y="75.031717"/>
     <use style="fill:#0000ff;stroke:#0000ff;" x="912.189636" xlink:href="#mc01154c18d" y="181.750909"/>
     <use style="fill:#0000ff;stroke:#0000ff;" x="942.320364" xlink:href="#mc01154c18d" y="128.391313"/>
     <use style="fill:#0000ff;stroke:#0000ff;" x="972.451091" xlink:href="#mc01154c18d" y="341.829697"/>
     <use style="fill:#0000ff;stroke:#0000ff;" x="1002.581818" xlink:href="#mc01154c18d" y="315.149899"/>
     <use style="fill:#0000ff;stroke:#0000ff;" x="1032.712545" xlink:href="#mc01154c18d" y="248.450404"/>
     <use style="fill:#0000ff;stroke:#0000ff;" x="1062.843273" xlink:href="#mc01154c18d" y="101.711515"/>
     <use style="fill:#0000ff;stroke:#0000ff;" x="1092.974" xlink:href="#mc01154c18d" y="368.509495"/>
     <use style="fill:#0000ff;stroke:#0000ff;" x="1123.104727" xlink:href="#mc01154c18d" y="315.149899"/>
     <use style="fill:#0000ff;stroke:#0000ff;" x="1153.235455" xlink:href="#mc01154c18d" y="195.090808"/>
     <use style="fill:#0000ff;stroke:#0000ff;" x="1183.366182" xlink:href="#mc01154c18d" y="395.189293"/>
     <use style="fill:#0000ff;stroke:#0000ff;" x="1213.496909" xlink:href="#mc01154c18d" y="61.691818"/>
     <use style="fill:#0000ff;stroke:#0000ff;" x="1243.627636" xlink:href="#mc01154c18d" y="395.189293"/>
     <use style="fill:#0000ff;stroke:#0000ff;" x="1273.758364" xlink:href="#mc01154c18d" y="88.371616"/>
     <use style="fill:#0000ff;stroke:#0000ff;" x="1303.889091" xlink:href="#mc01154c18d" y="328.489798"/>
     <use style="fill:#0000ff;stroke:#0000ff;" x="1334.019818" xlink:href="#mc01154c18d" y="301.81"/>
     <use style="fill:#0000ff;stroke:#0000ff;" x="1364.150545" xlink:href="#mc01154c18d" y="221.770606"/>
    </g>
   </g>
   <g id="line2d_98">
    <path clip-path="url(#p1e045753ea)" d="M 158.921455 251.704038 
L 189.052182 251.704038 
L 219.182909 251.704038 
L 249.313636 251.704038 
L 279.444364 251.704038 
L 309.575091 251.704038 
L 339.705818 251.704038 
L 369.836545 251.704038 
L 399.967273 251.704038 
L 430.098 251.704038 
L 460.228727 251.704038 
L 490.359455 251.704038 
L 520.490182 251.704038 
L 550.620909 251.704038 
L 580.751636 251.704038 
L 610.882364 251.704038 
L 641.013091 251.704038 
L 671.143818 251.704038 
L 701.274545 251.704038 
L 731.405273 251.704038 
L 761.536 251.704038 
L 791.666727 251.704038 
L 821.797455 251.704038 
L 851.928182 251.704038 
L 882.058909 251.704038 
L 912.189636 251.704038 
L 942.320364 251.704038 
L 972.451091 251.704038 
L 1002.581818 251.704038 
L 1032.712545 251.704038 
L 1062.843273 251.704038 
L 1092.974 251.704038 
L 1123.104727 251.704038 
L 1153.235455 251.704038 
L 1183.366182 251.704038 
L 1213.496909 251.704038 
L 1243.627636 251.704038 
L 1273.758364 251.704038 
L 1303.889091 251.704038 
L 1334.019818 251.704038 
L 1364.150545 251.704038 
" style="fill:none;stroke:#0000ff;stroke-linecap:square;stroke-width:1.5;"/>
   </g>
   <g id="line2d_99">
    <path clip-path="url(#p1e045753ea)" d="M 158.921455 117.663008 
L 189.052182 117.663008 
L 219.182909 117.663008 
L 249.313636 117.663008 
L 279.444364 117.663008 
L 309.575091 117.663008 
L 339.705818 117.663008 
L 369.836545 117.663008 
L 399.967273 117.663008 
L 430.098 117.663008 
L 460.228727 117.663008 
L 490.359455 117.663008 
L 520.490182 117.663008 
L 550.620909 117.663008 
L 580.751636 117.663008 
L 610.882364 117.663008 
L 641.013091 117.663008 
L 671.143818 117.663008 
L 701.274545 117.663008 
L 731.405273 117.663008 
L 761.536 117.663008 
L 791.666727 117.663008 
L 821.797455 117.663008 
L 851.928182 117.663008 
L 882.058909 117.663008 
L 912.189636 117.663008 
L 942.320364 117.663008 
L 972.451091 117.663008 
L 1002.581818 117.663008 
L 1032.712545 117.663008 
L 1062.843273 117.663008 
L 1092.974 117.663008 
L 1123.104727 117.663008 
L 1153.235455 117.663008 
L 1183.366182 117.663008 
L 1213.496909 117.663008 
L 1243.627636 117.663008 
L 1273.758364 117.663008 
L 1303.889091 117.663008 
L 1334.019818 117.663008 
L 1364.150545 117.663008 
" style="fill:none;stroke:#0000ff;stroke-dasharray:5.55,2.4;stroke-dashoffset:0;stroke-width:1.5;"/>
   </g>
   <g id="line2d_100">
    <path clip-path="url(#p1e045753ea)" d="M 158.921455 385.745067 
L 189.052182 385.745067 
L 219.182909 385.745067 
L 249.313636 385.745067 
L 279.444364 385.745067 
L 309.575091 385.745067 
L 339.705818 385.745067 
L 369.836545 385.745067 
L 399.967273 385.745067 
L 430.098 385.745067 
L 460.228727 385.745067 
L 490.359455 385.745067 
L 520.490182 385.745067 
L 550.620909 385.745067 
L 580.751636 385.745067 
L 610.882364 385.745067 
L 641.013091 385.745067 
L 671.143818 385.745067 
L 701.274545 385.745067 
L 731.405273 385.745067 
L 761.536 385.745067 
L 791.666727 385.745067 
L 821.797455 385.745067 
L 851.928182 385.745067 
L 882.058909 385.745067 
L 912.189636 385.745067 
L 942.320364 385.745067 
L 972.451091 385.745067 
L 1002.581818 385.745067 
L 1032.712545 385.745067 
L 1062.843273 385.745067 
L 1092.974 385.745067 
L 1123.104727 385.745067 
L 1153.235455 385.745067 
L 1183.366182 385.745067 
L 1213.496909 385.745067 
L 1243.627636 385.745067 
L 1273.758364 385.745067 
L 1303.889091 385.745067 
L 1334.019818 385.745067 
L 1364.150545 385.745067 
" style="fill:none;stroke:#0000ff;stroke-dasharray:5.55,2.4;stroke-dashoffset:0;stroke-width:1.5;"/>
   </g>
   <g id="patch_3">
    <path d="M 98.66 565.94 
L 98.66 37.68 
" style="fill:none;stroke:#000000;stroke-linecap:square;stroke-linejoin:miter;stroke-width:0.8;"/>
   </g>
   <g id="patch_4">
    <path d="M 1424.412 565.94 
L 1424.412 37.68 
" style="fill:none;stroke:#000000;stroke-linecap:square;stroke-linejoin:miter;stroke-width:0.8;"/>
   </g>
   <g id="patch_5">
    <path d="M 98.66 565.94 
L 1424.412 565.94 
" style="fill:none;stroke:#000000;stroke-linecap:square;stroke-linejoin:miter;stroke-width:0.8;"/>
   </g>
   <g id="patch_6">
    <path d="M 98.66 37.68 
L 1424.412 37.68 
" style="fill:none;stroke:#000000;stroke-linecap:square;stroke-linejoin:miter;stroke-width:0.8;"/>
   </g>
   <g id="text_49">
    <!-- B1 deflection angle at 403.6 A -->
    <defs>
     <path d="M 34.1875 63.1875 
L 20.796875 26.90625 
L 47.609375 26.90625 
z
M 28.609375 72.90625 
L 39.796875 72.90625 
L 67.578125 0 
L 57.328125 0 
L 50.6875 18.703125 
L 17.828125 18.703125 
L 11.1875 0 
L 0.78125 0 
z
" id="DejaVuSans-65"/>
    </defs>
    <g transform="translate(615.6325 31.68)scale(0.192 -0.192)">
     <use xlink:href="#DejaVuSans-66"/>
     <use x="68.603516" xlink:href="#DejaVuSans-49"/>
     <use x="132.226562" xlink:href="#DejaVuSans-32"/>
     <use x="164.013672" xlink:href="#DejaVuSans-100"/>
     <use x="227.490234" xlink:href="#DejaVuSans-101"/>
     <use x="289.013672" xlink:href="#DejaVuSans-102"/>
     <use x="324.21875" xlink:href="#DejaVuSans-108"/>
     <use x="352.001953" xlink:href="#DejaVuSans-101"/>
     <use x="413.525391" xlink:href="#DejaVuSans-99"/>
     <use x="468.505859" xlink:href="#DejaVuSans-116"/>
     <use x="507.714844" xlink:href="#DejaVuSans-105"/>
     <use x="535.498047" xlink:href="#DejaVuSans-111"/>
     <use x="596.679688" xlink:href="#DejaVuSans-110"/>
     <use x="660.058594" xlink:href="#DejaVuSans-32"/>
     <use x="691.845703" xlink:href="#DejaVuSans-97"/>
     <use x="753.125" xlink:href="#DejaVuSans-110"/>
     <use x="816.503906" xlink:href="#DejaVuSans-103"/>
     <use x="879.980469" xlink:href="#DejaVuSans-108"/>
     <use x="907.763672" xlink:href="#DejaVuSans-101"/>
     <use x="969.287109" xlink:href="#DejaVuSans-32"/>
     <use x="1001.074219" xlink:href="#DejaVuSans-97"/>
     <use x="1062.353516" xlink:href="#DejaVuSans-116"/>
     <use x="1101.5625" xlink:href="#DejaVuSans-32"/>
     <use x="1133.349609" xlink:href="#DejaVuSans-52"/>
     <use x="1196.972656" xlink:href="#DejaVuSans-48"/>
     <use x="1260.595703" xlink:href="#DejaVuSans-51"/>
     <use x="1324.21875" xlink:href="#DejaVuSans-46"/>
     <use x="1356.005859" xlink:href="#DejaVuSans-54"/>
     <use x="1419.628906" xlink:href="#DejaVuSans-32"/>
     <use x="1451.416016" xlink:href="#DejaVuSans-65"/>
    </g>
   </g>
  </g>
  <g id="axes_2">
   <g id="matplotlib.axis_3">
    <g id="ytick_7">
     <g id="line2d_101">
      <path clip-path="url(#p1e045753ea)" d="M 98.66 550.316375 
L 1424.412 550.316375 
" style="fill:none;stroke:#b0b0b0;stroke-linecap:square;stroke-width:0.8;"/>
     </g>
     <g id="line2d_102">
      <defs>
       <path d="M 0 0 
L 3.5 0 
" id="m29192aa4df" style="stroke:#000000;stroke-width:0.8;"/>
      </defs>
      <g>
       <use style="stroke:#000000;stroke-width:0.8;" x="1424.412" xlink:href="#m29192aa4df" y="550.316375"/>
      </g>
     </g>
     <g id="text_50">
      <!-- 0.05 -->
      <defs>
       <path d="M 10.59375 35.5 
L 73.1875 35.5 
L 73.1875 27.203125 
L 10.59375 27.203125 
z
" id="DejaVuSans-8722"/>
      </defs>
      <g transform="translate(1431.412 556.395125)scale(0.16 -0.16)">
       <use xlink:href="#DejaVuSans-8722"/>
       <use x="83.789062" xlink:href="#DejaVuSans-48"/>
       <use x="147.412109" xlink:href="#DejaVuSans-46"/>
       <use x="179.199219" xlink:href="#DejaVuSans-48"/>
       <use x="242.822266" xlink:href="#DejaVuSans-53"/>
      </g>
     </g>
    </g>
    <g id="ytick_8">
     <g id="line2d_103">
      <path clip-path="url(#p1e045753ea)" d="M 98.66 486.040123 
L 1424.412 486.040123 
" style="fill:none;stroke:#b0b0b0;stroke-linecap:square;stroke-width:0.8;"/>
     </g>
     <g id="line2d_104">
      <g>
       <use style="stroke:#000000;stroke-width:0.8;" x="1424.412" xlink:href="#m29192aa4df" y="486.040123"/>
      </g>
     </g>
     <g id="text_51">
      <!-- 0.04 -->
      <g transform="translate(1431.412 492.118873)scale(0.16 -0.16)">
       <use xlink:href="#DejaVuSans-8722"/>
       <use x="83.789062" xlink:href="#DejaVuSans-48"/>
       <use x="147.412109" xlink:href="#DejaVuSans-46"/>
       <use x="179.199219" xlink:href="#DejaVuSans-48"/>
       <use x="242.822266" xlink:href="#DejaVuSans-52"/>
      </g>
     </g>
    </g>
    <g id="ytick_9">
     <g id="line2d_105">
      <path clip-path="url(#p1e045753ea)" d="M 98.66 421.76387 
L 1424.412 421.76387 
" style="fill:none;stroke:#b0b0b0;stroke-linecap:square;stroke-width:0.8;"/>
     </g>
     <g id="line2d_106">
      <g>
       <use style="stroke:#000000;stroke-width:0.8;" x="1424.412" xlink:href="#m29192aa4df" y="421.76387"/>
      </g>
     </g>
     <g id="text_52">
      <!-- 0.03 -->
      <g transform="translate(1431.412 427.84262)scale(0.16 -0.16)">
       <use xlink:href="#DejaVuSans-8722"/>
       <use x="83.789062" xlink:href="#DejaVuSans-48"/>
       <use x="147.412109" xlink:href="#DejaVuSans-46"/>
       <use x="179.199219" xlink:href="#DejaVuSans-48"/>
       <use x="242.822266" xlink:href="#DejaVuSans-51"/>
      </g>
     </g>
    </g>
    <g id="ytick_10">
     <g id="line2d_107">
      <path clip-path="url(#p1e045753ea)" d="M 98.66 357.487617 
L 1424.412 357.487617 
" style="fill:none;stroke:#b0b0b0;stroke-linecap:square;stroke-width:0.8;"/>
     </g>
     <g id="line2d_108">
      <g>
       <use style="stroke:#000000;stroke-width:0.8;" x="1424.412" xlink:href="#m29192aa4df" y="357.487617"/>
      </g>
     </g>
     <g id="text_53">
      <!-- 0.02 -->
      <g transform="translate(1431.412 363.566367)scale(0.16 -0.16)">
       <use xlink:href="#DejaVuSans-8722"/>
       <use x="83.789062" xlink:href="#DejaVuSans-48"/>
       <use x="147.412109" xlink:href="#DejaVuSans-46"/>
       <use x="179.199219" xlink:href="#DejaVuSans-48"/>
       <use x="242.822266" xlink:href="#DejaVuSans-50"/>
      </g>
     </g>
    </g>
    <g id="ytick_11">
     <g id="line2d_109">
      <path clip-path="url(#p1e045753ea)" d="M 98.66 293.211364 
L 1424.412 293.211364 
" style="fill:none;stroke:#b0b0b0;stroke-linecap:square;stroke-width:0.8;"/>
     </g>
     <g id="line2d_110">
      <g>
       <use style="stroke:#000000;stroke-width:0.8;" x="1424.412" xlink:href="#m29192aa4df" y="293.211364"/>
      </g>
     </g>
     <g id="text_54">
      <!-- 0.01 -->
      <g transform="translate(1431.412 299.290114)scale(0.16 -0.16)">
       <use xlink:href="#DejaVuSans-8722"/>
       <use x="83.789062" xlink:href="#DejaVuSans-48"/>
       <use x="147.412109" xlink:href="#DejaVuSans-46"/>
       <use x="179.199219" xlink:href="#DejaVuSans-48"/>
       <use x="242.822266" xlink:href="#DejaVuSans-49"/>
      </g>
     </g>
    </g>
    <g id="ytick_12">
     <g id="line2d_111">
      <path clip-path="url(#p1e045753ea)" d="M 98.66 228.935111 
L 1424.412 228.935111 
" style="fill:none;stroke:#b0b0b0;stroke-linecap:square;stroke-width:0.8;"/>
     </g>
     <g id="line2d_112">
      <g>
       <use style="stroke:#000000;stroke-width:0.8;" x="1424.412" xlink:href="#m29192aa4df" y="228.935111"/>
      </g>
     </g>
     <g id="text_55">
      <!-- 0.00 -->
      <g transform="translate(1431.412 235.013861)scale(0.16 -0.16)">
       <use xlink:href="#DejaVuSans-48"/>
       <use x="63.623047" xlink:href="#DejaVuSans-46"/>
       <use x="95.410156" xlink:href="#DejaVuSans-48"/>
       <use x="159.033203" xlink:href="#DejaVuSans-48"/>
      </g>
     </g>
    </g>
    <g id="ytick_13">
     <g id="line2d_113">
      <path clip-path="url(#p1e045753ea)" d="M 98.66 164.658858 
L 1424.412 164.658858 
" style="fill:none;stroke:#b0b0b0;stroke-linecap:square;stroke-width:0.8;"/>
     </g>
     <g id="line2d_114">
      <g>
       <use style="stroke:#000000;stroke-width:0.8;" x="1424.412" xlink:href="#m29192aa4df" y="164.658858"/>
      </g>
     </g>
     <g id="text_56">
      <!-- 0.01 -->
      <g transform="translate(1431.412 170.737608)scale(0.16 -0.16)">
       <use xlink:href="#DejaVuSans-48"/>
       <use x="63.623047" xlink:href="#DejaVuSans-46"/>
       <use x="95.410156" xlink:href="#DejaVuSans-48"/>
       <use x="159.033203" xlink:href="#DejaVuSans-49"/>
      </g>
     </g>
    </g>
    <g id="ytick_14">
     <g id="line2d_115">
      <path clip-path="url(#p1e045753ea)" d="M 98.66 100.382605 
L 1424.412 100.382605 
" style="fill:none;stroke:#b0b0b0;stroke-linecap:square;stroke-width:0.8;"/>
     </g>
     <g id="line2d_116">
      <g>
       <use style="stroke:#000000;stroke-width:0.8;" x="1424.412" xlink:href="#m29192aa4df" y="100.382605"/>
      </g>
     </g>
     <g id="text_57">
      <!-- 0.02 -->
      <g transform="translate(1431.412 106.461355)scale(0.16 -0.16)">
       <use xlink:href="#DejaVuSans-48"/>
       <use x="63.623047" xlink:href="#DejaVuSans-46"/>
       <use x="95.410156" xlink:href="#DejaVuSans-48"/>
       <use x="159.033203" xlink:href="#DejaVuSans-50"/>
      </g>
     </g>
    </g>
    <g id="text_58">
     <!-- Deflection angle error [%] -->
     <defs>
      <path d="M 41.109375 46.296875 
Q 39.59375 47.171875 37.8125 47.578125 
Q 36.03125 48 33.890625 48 
Q 26.265625 48 22.1875 43.046875 
Q 18.109375 38.09375 18.109375 28.8125 
L 18.109375 0 
L 9.078125 0 
L 9.078125 54.6875 
L 18.109375 54.6875 
L 18.109375 46.1875 
Q 20.953125 51.171875 25.484375 53.578125 
Q 30.03125 56 36.53125 56 
Q 37.453125 56 38.578125 55.875 
Q 39.703125 55.765625 41.0625 55.515625 
z
" id="DejaVuSans-114"/>
      <path d="M 72.703125 32.078125 
Q 68.453125 32.078125 66.03125 28.46875 
Q 63.625 24.859375 63.625 18.40625 
Q 63.625 12.0625 66.03125 8.421875 
Q 68.453125 4.78125 72.703125 4.78125 
Q 76.859375 4.78125 79.265625 8.421875 
Q 81.6875 12.0625 81.6875 18.40625 
Q 81.6875 24.8125 79.265625 28.4375 
Q 76.859375 32.078125 72.703125 32.078125 
z
M 72.703125 38.28125 
Q 80.421875 38.28125 84.953125 32.90625 
Q 89.5 27.546875 89.5 18.40625 
Q 89.5 9.28125 84.9375 3.921875 
Q 80.375 -1.421875 72.703125 -1.421875 
Q 64.890625 -1.421875 60.34375 3.921875 
Q 55.8125 9.28125 55.8125 18.40625 
Q 55.8125 27.59375 60.375 32.9375 
Q 64.9375 38.28125 72.703125 38.28125 
z
M 22.3125 68.015625 
Q 18.109375 68.015625 15.6875 64.375 
Q 13.28125 60.75 13.28125 54.390625 
Q 13.28125 47.953125 15.671875 44.328125 
Q 18.0625 40.71875 22.3125 40.71875 
Q 26.5625 40.71875 28.96875 44.328125 
Q 31.390625 47.953125 31.390625 54.390625 
Q 31.390625 60.6875 28.953125 64.34375 
Q 26.515625 68.015625 22.3125 68.015625 
z
M 66.40625 74.21875 
L 74.21875 74.21875 
L 28.609375 -1.421875 
L 20.796875 -1.421875 
z
M 22.3125 74.21875 
Q 30.03125 74.21875 34.609375 68.875 
Q 39.203125 63.53125 39.203125 54.390625 
Q 39.203125 45.171875 34.640625 39.84375 
Q 30.078125 34.515625 22.3125 34.515625 
Q 14.546875 34.515625 10.03125 39.859375 
Q 5.515625 45.21875 5.515625 54.390625 
Q 5.515625 63.484375 10.046875 68.84375 
Q 14.59375 74.21875 22.3125 74.21875 
z
" id="DejaVuSans-37"/>
     </defs>
     <g transform="translate(1491.79962 197.69625)rotate(-270)scale(0.16 -0.16)">
      <use xlink:href="#DejaVuSans-68"/>
      <use x="77.001953" xlink:href="#DejaVuSans-101"/>
      <use x="138.525391" xlink:href="#DejaVuSans-102"/>
      <use x="173.730469" xlink:href="#DejaVuSans-108"/>
      <use x="201.513672" xlink:href="#DejaVuSans-101"/>
      <use x="263.037109" xlink:href="#DejaVuSans-99"/>
      <use x="318.017578" xlink:href="#DejaVuSans-116"/>
      <use x="357.226562" xlink:href="#DejaVuSans-105"/>
      <use x="385.009766" xlink:href="#DejaVuSans-111"/>
      <use x="446.191406" xlink:href="#DejaVuSans-110"/>
      <use x="509.570312" xlink:href="#DejaVuSans-32"/>
      <use x="541.357422" xlink:href="#DejaVuSans-97"/>
      <use x="602.636719" xlink:href="#DejaVuSans-110"/>
      <use x="666.015625" xlink:href="#DejaVuSans-103"/>
      <use x="729.492188" xlink:href="#DejaVuSans-108"/>
      <use x="757.275391" xlink:href="#DejaVuSans-101"/>
      <use x="818.798828" xlink:href="#DejaVuSans-32"/>
      <use x="850.585938" xlink:href="#DejaVuSans-101"/>
      <use x="912.109375" xlink:href="#DejaVuSans-114"/>
      <use x="953.207031" xlink:href="#DejaVuSans-114"/>
      <use x="994.289062" xlink:href="#DejaVuSans-111"/>
      <use x="1055.470703" xlink:href="#DejaVuSans-114"/>
      <use x="1096.583984" xlink:href="#DejaVuSans-32"/>
      <use x="1128.371094" xlink:href="#DejaVuSans-91"/>
      <use x="1167.384766" xlink:href="#DejaVuSans-37"/>
      <use x="1262.404297" xlink:href="#DejaVuSans-93"/>
     </g>
    </g>
   </g>
   <g id="line2d_117">
    <path clip-path="url(#p1e045753ea)" d="M 158.921455 235.110505 
L 189.052182 181.750909 
L 219.182909 355.169596 
L 249.313636 368.509495 
L 279.444364 155.071111 
L 309.575091 301.81 
L 339.705818 301.81 
L 369.836545 461.888788 
L 399.967273 101.711515 
L 430.098 141.731212 
L 460.228727 341.829697 
L 490.359455 88.371616 
L 520.490182 461.888788 
L 550.620909 75.031717 
L 580.751636 75.031717 
L 610.882364 541.928182 
L 641.013091 75.031717 
L 671.143818 341.829697 
L 701.274545 141.731212 
L 731.405273 141.731212 
L 761.536 275.130202 
L 791.666727 488.568586 
L 821.797455 448.548889 
L 851.928182 155.071111 
L 882.058909 75.031717 
L 912.189636 181.750909 
L 942.320364 128.391313 
L 972.451091 341.829697 
L 1002.581818 315.149899 
L 1032.712545 248.450404 
L 1062.843273 101.711515 
L 1092.974 368.509495 
L 1123.104727 315.149899 
L 1153.235455 195.090808 
L 1183.366182 395.189293 
L 1213.496909 61.691818 
L 1243.627636 395.189293 
L 1273.758364 88.371616 
L 1303.889091 328.489798 
L 1334.019818 301.81 
L 1364.150545 221.770606 
" style="fill:none;stroke:#0000ff;stroke-linecap:square;stroke-width:1.5;"/>
    <g clip-path="url(#p1e045753ea)">
     <use style="fill:#0000ff;stroke:#0000ff;" x="158.921455" xlink:href="#mc01154c18d" y="235.110505"/>
     <use style="fill:#0000ff;stroke:#0000ff;" x="189.052182" xlink:href="#mc01154c18d" y="181.750909"/>
     <use style="fill:#0000ff;stroke:#0000ff;" x="219.182909" xlink:href="#mc01154c18d" y="355.169596"/>
     <use style="fill:#0000ff;stroke:#0000ff;" x="249.313636" xlink:href="#mc01154c18d" y="368.509495"/>
     <use style="fill:#0000ff;stroke:#0000ff;" x="279.444364" xlink:href="#mc01154c18d" y="155.071111"/>
     <use style="fill:#0000ff;stroke:#0000ff;" x="309.575091" xlink:href="#mc01154c18d" y="301.81"/>
     <use style="fill:#0000ff;stroke:#0000ff;" x="339.705818" xlink:href="#mc01154c18d" y="301.81"/>
     <use style="fill:#0000ff;stroke:#0000ff;" x="369.836545" xlink:href="#mc01154c18d" y="461.888788"/>
     <use style="fill:#0000ff;stroke:#0000ff;" x="399.967273" xlink:href="#mc01154c18d" y="101.711515"/>
     <use style="fill:#0000ff;stroke:#0000ff;" x="430.098" xlink:href="#mc01154c18d" y="141.731212"/>
     <use style="fill:#0000ff;stroke:#0000ff;" x="460.228727" xlink:href="#mc01154c18d" y="341.829697"/>
     <use style="fill:#0000ff;stroke:#0000ff;" x="490.359455" xlink:href="#mc01154c18d" y="88.371616"/>
     <use style="fill:#0000ff;stroke:#0000ff;" x="520.490182" xlink:href="#mc01154c18d" y="461.888788"/>
     <use style="fill:#0000ff;stroke:#0000ff;" x="550.620909" xlink:href="#mc01154c18d" y="75.031717"/>
     <use style="fill:#0000ff;stroke:#0000ff;" x="580.751636" xlink:href="#mc01154c18d" y="75.031717"/>
     <use style="fill:#0000ff;stroke:#0000ff;" x="610.882364" xlink:href="#mc01154c18d" y="541.928182"/>
     <use style="fill:#0000ff;stroke:#0000ff;" x="641.013091" xlink:href="#mc01154c18d" y="75.031717"/>
     <use style="fill:#0000ff;stroke:#0000ff;" x="671.143818" xlink:href="#mc01154c18d" y="341.829697"/>
     <use style="fill:#0000ff;stroke:#0000ff;" x="701.274545" xlink:href="#mc01154c18d" y="141.731212"/>
     <use style="fill:#0000ff;stroke:#0000ff;" x="731.405273" xlink:href="#mc01154c18d" y="141.731212"/>
     <use style="fill:#0000ff;stroke:#0000ff;" x="761.536" xlink:href="#mc01154c18d" y="275.130202"/>
     <use style="fill:#0000ff;stroke:#0000ff;" x="791.666727" xlink:href="#mc01154c18d" y="488.568586"/>
     <use style="fill:#0000ff;stroke:#0000ff;" x="821.797455" xlink:href="#mc01154c18d" y="448.548889"/>
     <use style="fill:#0000ff;stroke:#0000ff;" x="851.928182" xlink:href="#mc01154c18d" y="155.071111"/>
     <use style="fill:#0000ff;stroke:#0000ff;" x="882.058909" xlink:href="#mc01154c18d" y="75.031717"/>
     <use style="fill:#0000ff;stroke:#0000ff;" x="912.189636" xlink:href="#mc01154c18d" y="181.750909"/>
     <use style="fill:#0000ff;stroke:#0000ff;" x="942.320364" xlink:href="#mc01154c18d" y="128.391313"/>
     <use style="fill:#0000ff;stroke:#0000ff;" x="972.451091" xlink:href="#mc01154c18d" y="341.829697"/>
     <use style="fill:#0000ff;stroke:#0000ff;" x="1002.581818" xlink:href="#mc01154c18d" y="315.149899"/>
     <use style="fill:#0000ff;stroke:#0000ff;" x="1032.712545" xlink:href="#mc01154c18d" y="248.450404"/>
     <use style="fill:#0000ff;stroke:#0000ff;" x="1062.843273" xlink:href="#mc01154c18d" y="101.711515"/>
     <use style="fill:#0000ff;stroke:#0000ff;" x="1092.974" xlink:href="#mc01154c18d" y="368.509495"/>
     <use style="fill:#0000ff;stroke:#0000ff;" x="1123.104727" xlink:href="#mc01154c18d" y="315.149899"/>
     <use style="fill:#0000ff;stroke:#0000ff;" x="1153.235455" xlink:href="#mc01154c18d" y="195.090808"/>
     <use style="fill:#0000ff;stroke:#0000ff;" x="1183.366182" xlink:href="#mc01154c18d" y="395.189293"/>
     <use style="fill:#0000ff;stroke:#0000ff;" x="1213.496909" xlink:href="#mc01154c18d" y="61.691818"/>
     <use style="fill:#0000ff;stroke:#0000ff;" x="1243.627636" xlink:href="#mc01154c18d" y="395.189293"/>
     <use style="fill:#0000ff;stroke:#0000ff;" x="1273.758364" xlink:href="#mc01154c18d" y="88.371616"/>
     <use style="fill:#0000ff;stroke:#0000ff;" x="1303.889091" xlink:href="#mc01154c18d" y="328.489798"/>
     <use style="fill:#0000ff;stroke:#0000ff;" x="1334.019818" xlink:href="#mc01154c18d" y="301.81"/>
     <use style="fill:#0000ff;stroke:#0000ff;" x="1364.150545" xlink:href="#mc01154c18d" y="221.770606"/>
    </g>
   </g>
   <g id="line2d_118">
    <path clip-path="url(#p1e045753ea)" d="M 158.921455 251.704038 
L 189.052182 251.704038 
L 219.182909 251.704038 
L 249.313636 251.704038 
L 279.444364 251.704038 
L 309.575091 251.704038 
L 339.705818 251.704038 
L 369.836545 251.704038 
L 399.967273 251.704038 
L 430.098 251.704038 
L 460.228727 251.704038 
L 490.359455 251.704038 
L 520.490182 251.704038 
L 550.620909 251.704038 
L 580.751636 251.704038 
L 610.882364 251.704038 
L 641.013091 251.704038 
L 671.143818 251.704038 
L 701.274545 251.704038 
L 731.405273 251.704038 
L 761.536 251.704038 
L 791.666727 251.704038 
L 821.797455 251.704038 
L 851.928182 251.704038 
L 882.058909 251.704038 
L 912.189636 251.704038 
L 942.320364 251.704038 
L 972.451091 251.704038 
L 1002.581818 251.704038 
L 1032.712545 251.704038 
L 1062.843273 251.704038 
L 1092.974 251.704038 
L 1123.104727 251.704038 
L 1153.235455 251.704038 
L 1183.366182 251.704038 
L 1213.496909 251.704038 
L 1243.627636 251.704038 
L 1273.758364 251.704038 
L 1303.889091 251.704038 
L 1334.019818 251.704038 
L 1364.150545 251.704038 
" style="fill:none;stroke:#0000ff;stroke-linecap:square;stroke-width:1.5;"/>
   </g>
   <g id="line2d_119">
    <path clip-path="url(#p1e045753ea)" d="M 158.921455 117.663008 
L 189.052182 117.663008 
L 219.182909 117.663008 
L 249.313636 117.663008 
L 279.444364 117.663008 
L 309.575091 117.663008 
L 339.705818 117.663008 
L 369.836545 117.663008 
L 399.967273 117.663008 
L 430.098 117.663008 
L 460.228727 117.663008 
L 490.359455 117.663008 
L 520.490182 117.663008 
L 550.620909 117.663008 
L 580.751636 117.663008 
L 610.882364 117.663008 
L 641.013091 117.663008 
L 671.143818 117.663008 
L 701.274545 117.663008 
L 731.405273 117.663008 
L 761.536 117.663008 
L 791.666727 117.663008 
L 821.797455 117.663008 
L 851.928182 117.663008 
L 882.058909 117.663008 
L 912.189636 117.663008 
L 942.320364 117.663008 
L 972.451091 117.663008 
L 1002.581818 117.663008 
L 1032.712545 117.663008 
L 1062.843273 117.663008 
L 1092.974 117.663008 
L 1123.104727 117.663008 
L 1153.235455 117.663008 
L 1183.366182 117.663008 
L 1213.496909 117.663008 
L 1243.627636 117.663008 
L 1273.758364 117.663008 
L 1303.889091 117.663008 
L 1334.019818 117.663008 
L 1364.150545 117.663008 
" style="fill:none;stroke:#0000ff;stroke-dasharray:5.55,2.4;stroke-dashoffset:0;stroke-width:1.5;"/>
   </g>
   <g id="line2d_120">
    <path clip-path="url(#p1e045753ea)" d="M 158.921455 385.745067 
L 189.052182 385.745067 
L 219.182909 385.745067 
L 249.313636 385.745067 
L 279.444364 385.745067 
L 309.575091 385.745067 
L 339.705818 385.745067 
L 369.836545 385.745067 
L 399.967273 385.745067 
L 430.098 385.745067 
L 460.228727 385.745067 
L 490.359455 385.745067 
L 520.490182 385.745067 
L 550.620909 385.745067 
L 580.751636 385.745067 
L 610.882364 385.745067 
L 641.013091 385.745067 
L 671.143818 385.745067 
L 701.274545 385.745067 
L 731.405273 385.745067 
L 761.536 385.745067 
L 791.666727 385.745067 
L 821.797455 385.745067 
L 851.928182 385.745067 
L 882.058909 385.745067 
L 912.189636 385.745067 
L 942.320364 385.745067 
L 972.451091 385.745067 
L 1002.581818 385.745067 
L 1032.712545 385.745067 
L 1062.843273 385.745067 
L 1092.974 385.745067 
L 1123.104727 385.745067 
L 1153.235455 385.745067 
L 1183.366182 385.745067 
L 1213.496909 385.745067 
L 1243.627636 385.745067 
L 1273.758364 385.745067 
L 1303.889091 385.745067 
L 1334.019818 385.745067 
L 1364.150545 385.745067 
" style="fill:none;stroke:#0000ff;stroke-dasharray:5.55,2.4;stroke-dashoffset:0;stroke-width:1.5;"/>
   </g>
   <g id="patch_7">
    <path d="M 98.66 565.94 
L 98.66 37.68 
" style="fill:none;stroke:#000000;stroke-linecap:square;stroke-linejoin:miter;stroke-width:0.8;"/>
   </g>
   <g id="patch_8">
    <path d="M 1424.412 565.94 
L 1424.412 37.68 
" style="fill:none;stroke:#000000;stroke-linecap:square;stroke-linejoin:miter;stroke-width:0.8;"/>
   </g>
   <g id="patch_9">
    <path d="M 98.66 565.94 
L 1424.412 565.94 
" style="fill:none;stroke:#000000;stroke-linecap:square;stroke-linejoin:miter;stroke-width:0.8;"/>
   </g>
   <g id="patch_10">
    <path d="M 98.66 37.68 
L 1424.412 37.68 
" style="fill:none;stroke:#000000;stroke-linecap:square;stroke-linejoin:miter;stroke-width:0.8;"/>
   </g>
  </g>
 </g>
 <defs>
  <clipPath id="p1e045753ea">
   <rect height="528.26" width="1325.752" x="98.66" y="37.68"/>
  </clipPath>
 </defs>
</svg>
