<?xml version="1.0" encoding="utf-8" standalone="no"?>
<!DOCTYPE svg PUBLIC "-//W3C//DTD SVG 1.1//EN"
  "http://www.w3.org/Graphics/SVG/1.1/DTD/svg11.dtd">
<!-- Created with matplotlib (https://matplotlib.org/) -->
<svg height="648pt" version="1.1" viewBox="0 0 1512 648" width="1512pt" xmlns="http://www.w3.org/2000/svg" xmlns:xlink="http://www.w3.org/1999/xlink">
 <defs>
  <style type="text/css">
*{stroke-linecap:butt;stroke-linejoin:round;}
  </style>
 </defs>
 <g id="figure_1">
  <g id="patch_1">
   <path d="M 0 648 
L 1512 648 
L 1512 0 
L 0 0 
z
" style="fill:#ffffff;"/>
  </g>
  <g id="axes_1">
   <g id="patch_2">
    <path d="M 91.82 565.94 
L 1447.848 565.94 
L 1447.848 37.68 
L 91.82 37.68 
z
" style="fill:#ffffff;"/>
   </g>
   <g id="matplotlib.axis_1">
    <g id="xtick_1">
     <g id="line2d_1">
      <path clip-path="url(#p5b76feee0a)" d="M 153.457636 565.94 
L 153.457636 37.68 
" style="fill:none;stroke:#b0b0b0;stroke-linecap:square;stroke-width:0.8;"/>
     </g>
     <g id="line2d_2">
      <defs>
       <path d="M 0 0 
L 0 3.5 
" id="mb550b0efc9" style="stroke:#000000;stroke-width:0.8;"/>
      </defs>
      <g>
       <use style="stroke:#000000;stroke-width:0.8;" x="153.457636" xlink:href="#mb550b0efc9" y="565.94"/>
      </g>
     </g>
     <g id="text_1">
      <!-- B2-001 -->
      <defs>
       <path d="M 19.671875 34.8125 
L 19.671875 8.109375 
L 35.5 8.109375 
Q 43.453125 8.109375 47.28125 11.40625 
Q 51.125 14.703125 51.125 21.484375 
Q 51.125 28.328125 47.28125 31.5625 
Q 43.453125 34.8125 35.5 34.8125 
z
M 19.671875 64.796875 
L 19.671875 42.828125 
L 34.28125 42.828125 
Q 41.5 42.828125 45.03125 45.53125 
Q 48.578125 48.25 48.578125 53.8125 
Q 48.578125 59.328125 45.03125 62.0625 
Q 41.5 64.796875 34.28125 64.796875 
z
M 9.8125 72.90625 
L 35.015625 72.90625 
Q 46.296875 72.90625 52.390625 68.21875 
Q 58.5 63.53125 58.5 54.890625 
Q 58.5 48.1875 55.375 44.234375 
Q 52.25 40.28125 46.1875 39.3125 
Q 53.46875 37.75 57.5 32.78125 
Q 61.53125 27.828125 61.53125 20.40625 
Q 61.53125 10.640625 54.890625 5.3125 
Q 48.25 0 35.984375 0 
L 9.8125 0 
z
" id="DejaVuSans-66"/>
       <path d="M 19.1875 8.296875 
L 53.609375 8.296875 
L 53.609375 0 
L 7.328125 0 
L 7.328125 8.296875 
Q 12.9375 14.109375 22.625 23.890625 
Q 32.328125 33.6875 34.8125 36.53125 
Q 39.546875 41.84375 41.421875 45.53125 
Q 43.3125 49.21875 43.3125 52.78125 
Q 43.3125 58.59375 39.234375 62.25 
Q 35.15625 65.921875 28.609375 65.921875 
Q 23.96875 65.921875 18.8125 64.3125 
Q 13.671875 62.703125 7.8125 59.421875 
L 7.8125 69.390625 
Q 13.765625 71.78125 18.9375 73 
Q 24.125 74.21875 28.421875 74.21875 
Q 39.75 74.21875 46.484375 68.546875 
Q 53.21875 62.890625 53.21875 53.421875 
Q 53.21875 48.921875 51.53125 44.890625 
Q 49.859375 40.875 45.40625 35.40625 
Q 44.1875 33.984375 37.640625 27.21875 
Q 31.109375 20.453125 19.1875 8.296875 
z
" id="DejaVuSans-50"/>
       <path d="M 4.890625 31.390625 
L 31.203125 31.390625 
L 31.203125 23.390625 
L 4.890625 23.390625 
z
" id="DejaVuSans-45"/>
       <path d="M 31.78125 66.40625 
Q 24.171875 66.40625 20.328125 58.90625 
Q 16.5 51.421875 16.5 36.375 
Q 16.5 21.390625 20.328125 13.890625 
Q 24.171875 6.390625 31.78125 6.390625 
Q 39.453125 6.390625 43.28125 13.890625 
Q 47.125 21.390625 47.125 36.375 
Q 47.125 51.421875 43.28125 58.90625 
Q 39.453125 66.40625 31.78125 66.40625 
z
M 31.78125 74.21875 
Q 44.046875 74.21875 50.515625 64.515625 
Q 56.984375 54.828125 56.984375 36.375 
Q 56.984375 17.96875 50.515625 8.265625 
Q 44.046875 -1.421875 31.78125 -1.421875 
Q 19.53125 -1.421875 13.0625 8.265625 
Q 6.59375 17.96875 6.59375 36.375 
Q 6.59375 54.828125 13.0625 64.515625 
Q 19.53125 74.21875 31.78125 74.21875 
z
" id="DejaVuSans-48"/>
       <path d="M 12.40625 8.296875 
L 28.515625 8.296875 
L 28.515625 63.921875 
L 10.984375 60.40625 
L 10.984375 69.390625 
L 28.421875 72.90625 
L 38.28125 72.90625 
L 38.28125 8.296875 
L 54.390625 8.296875 
L 54.390625 0 
L 12.40625 0 
z
" id="DejaVuSans-49"/>
      </defs>
      <g transform="translate(157.872636 630.41)rotate(-90)scale(0.16 -0.16)">
       <use xlink:href="#DejaVuSans-66"/>
       <use x="68.603516" xlink:href="#DejaVuSans-50"/>
       <use x="132.226562" xlink:href="#DejaVuSans-45"/>
       <use x="168.310547" xlink:href="#DejaVuSans-48"/>
       <use x="231.933594" xlink:href="#DejaVuSans-48"/>
       <use x="295.556641" xlink:href="#DejaVuSans-49"/>
      </g>
     </g>
    </g>
    <g id="xtick_2">
     <g id="line2d_3">
      <path clip-path="url(#p5b76feee0a)" d="M 184.276455 565.94 
L 184.276455 37.68 
" style="fill:none;stroke:#b0b0b0;stroke-linecap:square;stroke-width:0.8;"/>
     </g>
     <g id="line2d_4">
      <g>
       <use style="stroke:#000000;stroke-width:0.8;" x="184.276455" xlink:href="#mb550b0efc9" y="565.94"/>
      </g>
     </g>
     <g id="text_2">
      <!-- B2-002 -->
      <g transform="translate(188.691455 630.41)rotate(-90)scale(0.16 -0.16)">
       <use xlink:href="#DejaVuSans-66"/>
       <use x="68.603516" xlink:href="#DejaVuSans-50"/>
       <use x="132.226562" xlink:href="#DejaVuSans-45"/>
       <use x="168.310547" xlink:href="#DejaVuSans-48"/>
       <use x="231.933594" xlink:href="#DejaVuSans-48"/>
       <use x="295.556641" xlink:href="#DejaVuSans-50"/>
      </g>
     </g>
    </g>
    <g id="xtick_3">
     <g id="line2d_5">
      <path clip-path="url(#p5b76feee0a)" d="M 215.095273 565.94 
L 215.095273 37.68 
" style="fill:none;stroke:#b0b0b0;stroke-linecap:square;stroke-width:0.8;"/>
     </g>
     <g id="line2d_6">
      <g>
       <use style="stroke:#000000;stroke-width:0.8;" x="215.095273" xlink:href="#mb550b0efc9" y="565.94"/>
      </g>
     </g>
     <g id="text_3">
      <!-- B2-003 -->
      <defs>
       <path d="M 40.578125 39.3125 
Q 47.65625 37.796875 51.625 33 
Q 55.609375 28.21875 55.609375 21.1875 
Q 55.609375 10.40625 48.1875 4.484375 
Q 40.765625 -1.421875 27.09375 -1.421875 
Q 22.515625 -1.421875 17.65625 -0.515625 
Q 12.796875 0.390625 7.625 2.203125 
L 7.625 11.71875 
Q 11.71875 9.328125 16.59375 8.109375 
Q 21.484375 6.890625 26.8125 6.890625 
Q 36.078125 6.890625 40.9375 10.546875 
Q 45.796875 14.203125 45.796875 21.1875 
Q 45.796875 27.640625 41.28125 31.265625 
Q 36.765625 34.90625 28.71875 34.90625 
L 20.21875 34.90625 
L 20.21875 43.015625 
L 29.109375 43.015625 
Q 36.375 43.015625 40.234375 45.921875 
Q 44.09375 48.828125 44.09375 54.296875 
Q 44.09375 59.90625 40.109375 62.90625 
Q 36.140625 65.921875 28.71875 65.921875 
Q 24.65625 65.921875 20.015625 65.03125 
Q 15.375 64.15625 9.8125 62.3125 
L 9.8125 71.09375 
Q 15.4375 72.65625 20.34375 73.4375 
Q 25.25 74.21875 29.59375 74.21875 
Q 40.828125 74.21875 47.359375 69.109375 
Q 53.90625 64.015625 53.90625 55.328125 
Q 53.90625 49.265625 50.4375 45.09375 
Q 46.96875 40.921875 40.578125 39.3125 
z
" id="DejaVuSans-51"/>
      </defs>
      <g transform="translate(219.510273 630.41)rotate(-90)scale(0.16 -0.16)">
       <use xlink:href="#DejaVuSans-66"/>
       <use x="68.603516" xlink:href="#DejaVuSans-50"/>
       <use x="132.226562" xlink:href="#DejaVuSans-45"/>
       <use x="168.310547" xlink:href="#DejaVuSans-48"/>
       <use x="231.933594" xlink:href="#DejaVuSans-48"/>
       <use x="295.556641" xlink:href="#DejaVuSans-51"/>
      </g>
     </g>
    </g>
    <g id="xtick_4">
     <g id="line2d_7">
      <path clip-path="url(#p5b76feee0a)" d="M 245.914091 565.94 
L 245.914091 37.68 
" style="fill:none;stroke:#b0b0b0;stroke-linecap:square;stroke-width:0.8;"/>
     </g>
     <g id="line2d_8">
      <g>
       <use style="stroke:#000000;stroke-width:0.8;" x="245.914091" xlink:href="#mb550b0efc9" y="565.94"/>
      </g>
     </g>
     <g id="text_4">
      <!-- B2-004 -->
      <defs>
       <path d="M 37.796875 64.3125 
L 12.890625 25.390625 
L 37.796875 25.390625 
z
M 35.203125 72.90625 
L 47.609375 72.90625 
L 47.609375 25.390625 
L 58.015625 25.390625 
L 58.015625 17.1875 
L 47.609375 17.1875 
L 47.609375 0 
L 37.796875 0 
L 37.796875 17.1875 
L 4.890625 17.1875 
L 4.890625 26.703125 
z
" id="DejaVuSans-52"/>
      </defs>
      <g transform="translate(250.329091 630.41)rotate(-90)scale(0.16 -0.16)">
       <use xlink:href="#DejaVuSans-66"/>
       <use x="68.603516" xlink:href="#DejaVuSans-50"/>
       <use x="132.226562" xlink:href="#DejaVuSans-45"/>
       <use x="168.310547" xlink:href="#DejaVuSans-48"/>
       <use x="231.933594" xlink:href="#DejaVuSans-48"/>
       <use x="295.556641" xlink:href="#DejaVuSans-52"/>
      </g>
     </g>
    </g>
    <g id="xtick_5">
     <g id="line2d_9">
      <path clip-path="url(#p5b76feee0a)" d="M 276.732909 565.94 
L 276.732909 37.68 
" style="fill:none;stroke:#b0b0b0;stroke-linecap:square;stroke-width:0.8;"/>
     </g>
     <g id="line2d_10">
      <g>
       <use style="stroke:#000000;stroke-width:0.8;" x="276.732909" xlink:href="#mb550b0efc9" y="565.94"/>
      </g>
     </g>
     <g id="text_5">
      <!-- B2-005 -->
      <defs>
       <path d="M 10.796875 72.90625 
L 49.515625 72.90625 
L 49.515625 64.59375 
L 19.828125 64.59375 
L 19.828125 46.734375 
Q 21.96875 47.46875 24.109375 47.828125 
Q 26.265625 48.1875 28.421875 48.1875 
Q 40.625 48.1875 47.75 41.5 
Q 54.890625 34.8125 54.890625 23.390625 
Q 54.890625 11.625 47.5625 5.09375 
Q 40.234375 -1.421875 26.90625 -1.421875 
Q 22.3125 -1.421875 17.546875 -0.640625 
Q 12.796875 0.140625 7.71875 1.703125 
L 7.71875 11.625 
Q 12.109375 9.234375 16.796875 8.0625 
Q 21.484375 6.890625 26.703125 6.890625 
Q 35.15625 6.890625 40.078125 11.328125 
Q 45.015625 15.765625 45.015625 23.390625 
Q 45.015625 31 40.078125 35.4375 
Q 35.15625 39.890625 26.703125 39.890625 
Q 22.75 39.890625 18.8125 39.015625 
Q 14.890625 38.140625 10.796875 36.28125 
z
" id="DejaVuSans-53"/>
      </defs>
      <g transform="translate(281.147909 630.41)rotate(-90)scale(0.16 -0.16)">
       <use xlink:href="#DejaVuSans-66"/>
       <use x="68.603516" xlink:href="#DejaVuSans-50"/>
       <use x="132.226562" xlink:href="#DejaVuSans-45"/>
       <use x="168.310547" xlink:href="#DejaVuSans-48"/>
       <use x="231.933594" xlink:href="#DejaVuSans-48"/>
       <use x="295.556641" xlink:href="#DejaVuSans-53"/>
      </g>
     </g>
    </g>
    <g id="xtick_6">
     <g id="line2d_11">
      <path clip-path="url(#p5b76feee0a)" d="M 307.551727 565.94 
L 307.551727 37.68 
" style="fill:none;stroke:#b0b0b0;stroke-linecap:square;stroke-width:0.8;"/>
     </g>
     <g id="line2d_12">
      <g>
       <use style="stroke:#000000;stroke-width:0.8;" x="307.551727" xlink:href="#mb550b0efc9" y="565.94"/>
      </g>
     </g>
     <g id="text_6">
      <!-- B2-006 -->
      <defs>
       <path d="M 33.015625 40.375 
Q 26.375 40.375 22.484375 35.828125 
Q 18.609375 31.296875 18.609375 23.390625 
Q 18.609375 15.53125 22.484375 10.953125 
Q 26.375 6.390625 33.015625 6.390625 
Q 39.65625 6.390625 43.53125 10.953125 
Q 47.40625 15.53125 47.40625 23.390625 
Q 47.40625 31.296875 43.53125 35.828125 
Q 39.65625 40.375 33.015625 40.375 
z
M 52.59375 71.296875 
L 52.59375 62.3125 
Q 48.875 64.0625 45.09375 64.984375 
Q 41.3125 65.921875 37.59375 65.921875 
Q 27.828125 65.921875 22.671875 59.328125 
Q 17.53125 52.734375 16.796875 39.40625 
Q 19.671875 43.65625 24.015625 45.921875 
Q 28.375 48.1875 33.59375 48.1875 
Q 44.578125 48.1875 50.953125 41.515625 
Q 57.328125 34.859375 57.328125 23.390625 
Q 57.328125 12.15625 50.6875 5.359375 
Q 44.046875 -1.421875 33.015625 -1.421875 
Q 20.359375 -1.421875 13.671875 8.265625 
Q 6.984375 17.96875 6.984375 36.375 
Q 6.984375 53.65625 15.1875 63.9375 
Q 23.390625 74.21875 37.203125 74.21875 
Q 40.921875 74.21875 44.703125 73.484375 
Q 48.484375 72.75 52.59375 71.296875 
z
" id="DejaVuSans-54"/>
      </defs>
      <g transform="translate(311.966727 630.41)rotate(-90)scale(0.16 -0.16)">
       <use xlink:href="#DejaVuSans-66"/>
       <use x="68.603516" xlink:href="#DejaVuSans-50"/>
       <use x="132.226562" xlink:href="#DejaVuSans-45"/>
       <use x="168.310547" xlink:href="#DejaVuSans-48"/>
       <use x="231.933594" xlink:href="#DejaVuSans-48"/>
       <use x="295.556641" xlink:href="#DejaVuSans-54"/>
      </g>
     </g>
    </g>
    <g id="xtick_7">
     <g id="line2d_13">
      <path clip-path="url(#p5b76feee0a)" d="M 338.370545 565.94 
L 338.370545 37.68 
" style="fill:none;stroke:#b0b0b0;stroke-linecap:square;stroke-width:0.8;"/>
     </g>
     <g id="line2d_14">
      <g>
       <use style="stroke:#000000;stroke-width:0.8;" x="338.370545" xlink:href="#mb550b0efc9" y="565.94"/>
      </g>
     </g>
     <g id="text_7">
      <!-- B2-007 -->
      <defs>
       <path d="M 8.203125 72.90625 
L 55.078125 72.90625 
L 55.078125 68.703125 
L 28.609375 0 
L 18.3125 0 
L 43.21875 64.59375 
L 8.203125 64.59375 
z
" id="DejaVuSans-55"/>
      </defs>
      <g transform="translate(342.785545 630.41)rotate(-90)scale(0.16 -0.16)">
       <use xlink:href="#DejaVuSans-66"/>
       <use x="68.603516" xlink:href="#DejaVuSans-50"/>
       <use x="132.226562" xlink:href="#DejaVuSans-45"/>
       <use x="168.310547" xlink:href="#DejaVuSans-48"/>
       <use x="231.933594" xlink:href="#DejaVuSans-48"/>
       <use x="295.556641" xlink:href="#DejaVuSans-55"/>
      </g>
     </g>
    </g>
    <g id="xtick_8">
     <g id="line2d_15">
      <path clip-path="url(#p5b76feee0a)" d="M 369.189364 565.94 
L 369.189364 37.68 
" style="fill:none;stroke:#b0b0b0;stroke-linecap:square;stroke-width:0.8;"/>
     </g>
     <g id="line2d_16">
      <g>
       <use style="stroke:#000000;stroke-width:0.8;" x="369.189364" xlink:href="#mb550b0efc9" y="565.94"/>
      </g>
     </g>
     <g id="text_8">
      <!-- B2-008 -->
      <defs>
       <path d="M 31.78125 34.625 
Q 24.75 34.625 20.71875 30.859375 
Q 16.703125 27.09375 16.703125 20.515625 
Q 16.703125 13.921875 20.71875 10.15625 
Q 24.75 6.390625 31.78125 6.390625 
Q 38.8125 6.390625 42.859375 10.171875 
Q 46.921875 13.96875 46.921875 20.515625 
Q 46.921875 27.09375 42.890625 30.859375 
Q 38.875 34.625 31.78125 34.625 
z
M 21.921875 38.8125 
Q 15.578125 40.375 12.03125 44.71875 
Q 8.5 49.078125 8.5 55.328125 
Q 8.5 64.0625 14.71875 69.140625 
Q 20.953125 74.21875 31.78125 74.21875 
Q 42.671875 74.21875 48.875 69.140625 
Q 55.078125 64.0625 55.078125 55.328125 
Q 55.078125 49.078125 51.53125 44.71875 
Q 48 40.375 41.703125 38.8125 
Q 48.828125 37.15625 52.796875 32.3125 
Q 56.78125 27.484375 56.78125 20.515625 
Q 56.78125 9.90625 50.3125 4.234375 
Q 43.84375 -1.421875 31.78125 -1.421875 
Q 19.734375 -1.421875 13.25 4.234375 
Q 6.78125 9.90625 6.78125 20.515625 
Q 6.78125 27.484375 10.78125 32.3125 
Q 14.796875 37.15625 21.921875 38.8125 
z
M 18.3125 54.390625 
Q 18.3125 48.734375 21.84375 45.5625 
Q 25.390625 42.390625 31.78125 42.390625 
Q 38.140625 42.390625 41.71875 45.5625 
Q 45.3125 48.734375 45.3125 54.390625 
Q 45.3125 60.0625 41.71875 63.234375 
Q 38.140625 66.40625 31.78125 66.40625 
Q 25.390625 66.40625 21.84375 63.234375 
Q 18.3125 60.0625 18.3125 54.390625 
z
" id="DejaVuSans-56"/>
      </defs>
      <g transform="translate(373.604364 630.41)rotate(-90)scale(0.16 -0.16)">
       <use xlink:href="#DejaVuSans-66"/>
       <use x="68.603516" xlink:href="#DejaVuSans-50"/>
       <use x="132.226562" xlink:href="#DejaVuSans-45"/>
       <use x="168.310547" xlink:href="#DejaVuSans-48"/>
       <use x="231.933594" xlink:href="#DejaVuSans-48"/>
       <use x="295.556641" xlink:href="#DejaVuSans-56"/>
      </g>
     </g>
    </g>
    <g id="xtick_9">
     <g id="line2d_17">
      <path clip-path="url(#p5b76feee0a)" d="M 400.008182 565.94 
L 400.008182 37.68 
" style="fill:none;stroke:#b0b0b0;stroke-linecap:square;stroke-width:0.8;"/>
     </g>
     <g id="line2d_18">
      <g>
       <use style="stroke:#000000;stroke-width:0.8;" x="400.008182" xlink:href="#mb550b0efc9" y="565.94"/>
      </g>
     </g>
     <g id="text_9">
      <!-- B2-009 -->
      <defs>
       <path d="M 10.984375 1.515625 
L 10.984375 10.5 
Q 14.703125 8.734375 18.5 7.8125 
Q 22.3125 6.890625 25.984375 6.890625 
Q 35.75 6.890625 40.890625 13.453125 
Q 46.046875 20.015625 46.78125 33.40625 
Q 43.953125 29.203125 39.59375 26.953125 
Q 35.25 24.703125 29.984375 24.703125 
Q 19.046875 24.703125 12.671875 31.3125 
Q 6.296875 37.9375 6.296875 49.421875 
Q 6.296875 60.640625 12.9375 67.421875 
Q 19.578125 74.21875 30.609375 74.21875 
Q 43.265625 74.21875 49.921875 64.515625 
Q 56.59375 54.828125 56.59375 36.375 
Q 56.59375 19.140625 48.40625 8.859375 
Q 40.234375 -1.421875 26.421875 -1.421875 
Q 22.703125 -1.421875 18.890625 -0.6875 
Q 15.09375 0.046875 10.984375 1.515625 
z
M 30.609375 32.421875 
Q 37.25 32.421875 41.125 36.953125 
Q 45.015625 41.5 45.015625 49.421875 
Q 45.015625 57.28125 41.125 61.84375 
Q 37.25 66.40625 30.609375 66.40625 
Q 23.96875 66.40625 20.09375 61.84375 
Q 16.21875 57.28125 16.21875 49.421875 
Q 16.21875 41.5 20.09375 36.953125 
Q 23.96875 32.421875 30.609375 32.421875 
z
" id="DejaVuSans-57"/>
      </defs>
      <g transform="translate(404.423182 630.41)rotate(-90)scale(0.16 -0.16)">
       <use xlink:href="#DejaVuSans-66"/>
       <use x="68.603516" xlink:href="#DejaVuSans-50"/>
       <use x="132.226562" xlink:href="#DejaVuSans-45"/>
       <use x="168.310547" xlink:href="#DejaVuSans-48"/>
       <use x="231.933594" xlink:href="#DejaVuSans-48"/>
       <use x="295.556641" xlink:href="#DejaVuSans-57"/>
      </g>
     </g>
    </g>
    <g id="xtick_10">
     <g id="line2d_19">
      <path clip-path="url(#p5b76feee0a)" d="M 430.827 565.94 
L 430.827 37.68 
" style="fill:none;stroke:#b0b0b0;stroke-linecap:square;stroke-width:0.8;"/>
     </g>
     <g id="line2d_20">
      <g>
       <use style="stroke:#000000;stroke-width:0.8;" x="430.827" xlink:href="#mb550b0efc9" y="565.94"/>
      </g>
     </g>
     <g id="text_10">
      <!-- B2-010 -->
      <g transform="translate(435.242 630.41)rotate(-90)scale(0.16 -0.16)">
       <use xlink:href="#DejaVuSans-66"/>
       <use x="68.603516" xlink:href="#DejaVuSans-50"/>
       <use x="132.226562" xlink:href="#DejaVuSans-45"/>
       <use x="168.310547" xlink:href="#DejaVuSans-48"/>
       <use x="231.933594" xlink:href="#DejaVuSans-49"/>
       <use x="295.556641" xlink:href="#DejaVuSans-48"/>
      </g>
     </g>
    </g>
    <g id="xtick_11">
     <g id="line2d_21">
      <path clip-path="url(#p5b76feee0a)" d="M 461.645818 565.94 
L 461.645818 37.68 
" style="fill:none;stroke:#b0b0b0;stroke-linecap:square;stroke-width:0.8;"/>
     </g>
     <g id="line2d_22">
      <g>
       <use style="stroke:#000000;stroke-width:0.8;" x="461.645818" xlink:href="#mb550b0efc9" y="565.94"/>
      </g>
     </g>
     <g id="text_11">
      <!-- B2-011 -->
      <g transform="translate(466.060818 630.41)rotate(-90)scale(0.16 -0.16)">
       <use xlink:href="#DejaVuSans-66"/>
       <use x="68.603516" xlink:href="#DejaVuSans-50"/>
       <use x="132.226562" xlink:href="#DejaVuSans-45"/>
       <use x="168.310547" xlink:href="#DejaVuSans-48"/>
       <use x="231.933594" xlink:href="#DejaVuSans-49"/>
       <use x="295.556641" xlink:href="#DejaVuSans-49"/>
      </g>
     </g>
    </g>
    <g id="xtick_12">
     <g id="line2d_23">
      <path clip-path="url(#p5b76feee0a)" d="M 492.464636 565.94 
L 492.464636 37.68 
" style="fill:none;stroke:#b0b0b0;stroke-linecap:square;stroke-width:0.8;"/>
     </g>
     <g id="line2d_24">
      <g>
       <use style="stroke:#000000;stroke-width:0.8;" x="492.464636" xlink:href="#mb550b0efc9" y="565.94"/>
      </g>
     </g>
     <g id="text_12">
      <!-- B2-013 -->
      <g transform="translate(496.879636 630.41)rotate(-90)scale(0.16 -0.16)">
       <use xlink:href="#DejaVuSans-66"/>
       <use x="68.603516" xlink:href="#DejaVuSans-50"/>
       <use x="132.226562" xlink:href="#DejaVuSans-45"/>
       <use x="168.310547" xlink:href="#DejaVuSans-48"/>
       <use x="231.933594" xlink:href="#DejaVuSans-49"/>
       <use x="295.556641" xlink:href="#DejaVuSans-51"/>
      </g>
     </g>
    </g>
    <g id="xtick_13">
     <g id="line2d_25">
      <path clip-path="url(#p5b76feee0a)" d="M 523.283455 565.94 
L 523.283455 37.68 
" style="fill:none;stroke:#b0b0b0;stroke-linecap:square;stroke-width:0.8;"/>
     </g>
     <g id="line2d_26">
      <g>
       <use style="stroke:#000000;stroke-width:0.8;" x="523.283455" xlink:href="#mb550b0efc9" y="565.94"/>
      </g>
     </g>
     <g id="text_13">
      <!-- B2-014 -->
      <g transform="translate(527.698455 630.41)rotate(-90)scale(0.16 -0.16)">
       <use xlink:href="#DejaVuSans-66"/>
       <use x="68.603516" xlink:href="#DejaVuSans-50"/>
       <use x="132.226562" xlink:href="#DejaVuSans-45"/>
       <use x="168.310547" xlink:href="#DejaVuSans-48"/>
       <use x="231.933594" xlink:href="#DejaVuSans-49"/>
       <use x="295.556641" xlink:href="#DejaVuSans-52"/>
      </g>
     </g>
    </g>
    <g id="xtick_14">
     <g id="line2d_27">
      <path clip-path="url(#p5b76feee0a)" d="M 554.102273 565.94 
L 554.102273 37.68 
" style="fill:none;stroke:#b0b0b0;stroke-linecap:square;stroke-width:0.8;"/>
     </g>
     <g id="line2d_28">
      <g>
       <use style="stroke:#000000;stroke-width:0.8;" x="554.102273" xlink:href="#mb550b0efc9" y="565.94"/>
      </g>
     </g>
     <g id="text_14">
      <!-- B2-015 -->
      <g transform="translate(558.517273 630.41)rotate(-90)scale(0.16 -0.16)">
       <use xlink:href="#DejaVuSans-66"/>
       <use x="68.603516" xlink:href="#DejaVuSans-50"/>
       <use x="132.226562" xlink:href="#DejaVuSans-45"/>
       <use x="168.310547" xlink:href="#DejaVuSans-48"/>
       <use x="231.933594" xlink:href="#DejaVuSans-49"/>
       <use x="295.556641" xlink:href="#DejaVuSans-53"/>
      </g>
     </g>
    </g>
    <g id="xtick_15">
     <g id="line2d_29">
      <path clip-path="url(#p5b76feee0a)" d="M 584.921091 565.94 
L 584.921091 37.68 
" style="fill:none;stroke:#b0b0b0;stroke-linecap:square;stroke-width:0.8;"/>
     </g>
     <g id="line2d_30">
      <g>
       <use style="stroke:#000000;stroke-width:0.8;" x="584.921091" xlink:href="#mb550b0efc9" y="565.94"/>
      </g>
     </g>
     <g id="text_15">
      <!-- B2-016 -->
      <g transform="translate(589.336091 630.41)rotate(-90)scale(0.16 -0.16)">
       <use xlink:href="#DejaVuSans-66"/>
       <use x="68.603516" xlink:href="#DejaVuSans-50"/>
       <use x="132.226562" xlink:href="#DejaVuSans-45"/>
       <use x="168.310547" xlink:href="#DejaVuSans-48"/>
       <use x="231.933594" xlink:href="#DejaVuSans-49"/>
       <use x="295.556641" xlink:href="#DejaVuSans-54"/>
      </g>
     </g>
    </g>
    <g id="xtick_16">
     <g id="line2d_31">
      <path clip-path="url(#p5b76feee0a)" d="M 615.739909 565.94 
L 615.739909 37.68 
" style="fill:none;stroke:#b0b0b0;stroke-linecap:square;stroke-width:0.8;"/>
     </g>
     <g id="line2d_32">
      <g>
       <use style="stroke:#000000;stroke-width:0.8;" x="615.739909" xlink:href="#mb550b0efc9" y="565.94"/>
      </g>
     </g>
     <g id="text_16">
      <!-- B2-017 -->
      <g transform="translate(620.154909 630.41)rotate(-90)scale(0.16 -0.16)">
       <use xlink:href="#DejaVuSans-66"/>
       <use x="68.603516" xlink:href="#DejaVuSans-50"/>
       <use x="132.226562" xlink:href="#DejaVuSans-45"/>
       <use x="168.310547" xlink:href="#DejaVuSans-48"/>
       <use x="231.933594" xlink:href="#DejaVuSans-49"/>
       <use x="295.556641" xlink:href="#DejaVuSans-55"/>
      </g>
     </g>
    </g>
    <g id="xtick_17">
     <g id="line2d_33">
      <path clip-path="url(#p5b76feee0a)" d="M 646.558727 565.94 
L 646.558727 37.68 
" style="fill:none;stroke:#b0b0b0;stroke-linecap:square;stroke-width:0.8;"/>
     </g>
     <g id="line2d_34">
      <g>
       <use style="stroke:#000000;stroke-width:0.8;" x="646.558727" xlink:href="#mb550b0efc9" y="565.94"/>
      </g>
     </g>
     <g id="text_17">
      <!-- B2-018 -->
      <g transform="translate(650.973727 630.41)rotate(-90)scale(0.16 -0.16)">
       <use xlink:href="#DejaVuSans-66"/>
       <use x="68.603516" xlink:href="#DejaVuSans-50"/>
       <use x="132.226562" xlink:href="#DejaVuSans-45"/>
       <use x="168.310547" xlink:href="#DejaVuSans-48"/>
       <use x="231.933594" xlink:href="#DejaVuSans-49"/>
       <use x="295.556641" xlink:href="#DejaVuSans-56"/>
      </g>
     </g>
    </g>
    <g id="xtick_18">
     <g id="line2d_35">
      <path clip-path="url(#p5b76feee0a)" d="M 677.377545 565.94 
L 677.377545 37.68 
" style="fill:none;stroke:#b0b0b0;stroke-linecap:square;stroke-width:0.8;"/>
     </g>
     <g id="line2d_36">
      <g>
       <use style="stroke:#000000;stroke-width:0.8;" x="677.377545" xlink:href="#mb550b0efc9" y="565.94"/>
      </g>
     </g>
     <g id="text_18">
      <!-- B2-019 -->
      <g transform="translate(681.792545 630.41)rotate(-90)scale(0.16 -0.16)">
       <use xlink:href="#DejaVuSans-66"/>
       <use x="68.603516" xlink:href="#DejaVuSans-50"/>
       <use x="132.226562" xlink:href="#DejaVuSans-45"/>
       <use x="168.310547" xlink:href="#DejaVuSans-48"/>
       <use x="231.933594" xlink:href="#DejaVuSans-49"/>
       <use x="295.556641" xlink:href="#DejaVuSans-57"/>
      </g>
     </g>
    </g>
    <g id="xtick_19">
     <g id="line2d_37">
      <path clip-path="url(#p5b76feee0a)" d="M 708.196364 565.94 
L 708.196364 37.68 
" style="fill:none;stroke:#b0b0b0;stroke-linecap:square;stroke-width:0.8;"/>
     </g>
     <g id="line2d_38">
      <g>
       <use style="stroke:#000000;stroke-width:0.8;" x="708.196364" xlink:href="#mb550b0efc9" y="565.94"/>
      </g>
     </g>
     <g id="text_19">
      <!-- B2-021 -->
      <g transform="translate(712.611364 630.41)rotate(-90)scale(0.16 -0.16)">
       <use xlink:href="#DejaVuSans-66"/>
       <use x="68.603516" xlink:href="#DejaVuSans-50"/>
       <use x="132.226562" xlink:href="#DejaVuSans-45"/>
       <use x="168.310547" xlink:href="#DejaVuSans-48"/>
       <use x="231.933594" xlink:href="#DejaVuSans-50"/>
       <use x="295.556641" xlink:href="#DejaVuSans-49"/>
      </g>
     </g>
    </g>
    <g id="xtick_20">
     <g id="line2d_39">
      <path clip-path="url(#p5b76feee0a)" d="M 739.015182 565.94 
L 739.015182 37.68 
" style="fill:none;stroke:#b0b0b0;stroke-linecap:square;stroke-width:0.8;"/>
     </g>
     <g id="line2d_40">
      <g>
       <use style="stroke:#000000;stroke-width:0.8;" x="739.015182" xlink:href="#mb550b0efc9" y="565.94"/>
      </g>
     </g>
     <g id="text_20">
      <!-- B2-022 -->
      <g transform="translate(743.430182 630.41)rotate(-90)scale(0.16 -0.16)">
       <use xlink:href="#DejaVuSans-66"/>
       <use x="68.603516" xlink:href="#DejaVuSans-50"/>
       <use x="132.226562" xlink:href="#DejaVuSans-45"/>
       <use x="168.310547" xlink:href="#DejaVuSans-48"/>
       <use x="231.933594" xlink:href="#DejaVuSans-50"/>
       <use x="295.556641" xlink:href="#DejaVuSans-50"/>
      </g>
     </g>
    </g>
    <g id="xtick_21">
     <g id="line2d_41">
      <path clip-path="url(#p5b76feee0a)" d="M 769.834 565.94 
L 769.834 37.68 
" style="fill:none;stroke:#b0b0b0;stroke-linecap:square;stroke-width:0.8;"/>
     </g>
     <g id="line2d_42">
      <g>
       <use style="stroke:#000000;stroke-width:0.8;" x="769.834" xlink:href="#mb550b0efc9" y="565.94"/>
      </g>
     </g>
     <g id="text_21">
      <!-- B2-023 -->
      <g transform="translate(774.249 630.41)rotate(-90)scale(0.16 -0.16)">
       <use xlink:href="#DejaVuSans-66"/>
       <use x="68.603516" xlink:href="#DejaVuSans-50"/>
       <use x="132.226562" xlink:href="#DejaVuSans-45"/>
       <use x="168.310547" xlink:href="#DejaVuSans-48"/>
       <use x="231.933594" xlink:href="#DejaVuSans-50"/>
       <use x="295.556641" xlink:href="#DejaVuSans-51"/>
      </g>
     </g>
    </g>
    <g id="xtick_22">
     <g id="line2d_43">
      <path clip-path="url(#p5b76feee0a)" d="M 800.652818 565.94 
L 800.652818 37.68 
" style="fill:none;stroke:#b0b0b0;stroke-linecap:square;stroke-width:0.8;"/>
     </g>
     <g id="line2d_44">
      <g>
       <use style="stroke:#000000;stroke-width:0.8;" x="800.652818" xlink:href="#mb550b0efc9" y="565.94"/>
      </g>
     </g>
     <g id="text_22">
      <!-- B2-024 -->
      <g transform="translate(805.067818 630.41)rotate(-90)scale(0.16 -0.16)">
       <use xlink:href="#DejaVuSans-66"/>
       <use x="68.603516" xlink:href="#DejaVuSans-50"/>
       <use x="132.226562" xlink:href="#DejaVuSans-45"/>
       <use x="168.310547" xlink:href="#DejaVuSans-48"/>
       <use x="231.933594" xlink:href="#DejaVuSans-50"/>
       <use x="295.556641" xlink:href="#DejaVuSans-52"/>
      </g>
     </g>
    </g>
    <g id="xtick_23">
     <g id="line2d_45">
      <path clip-path="url(#p5b76feee0a)" d="M 831.471636 565.94 
L 831.471636 37.68 
" style="fill:none;stroke:#b0b0b0;stroke-linecap:square;stroke-width:0.8;"/>
     </g>
     <g id="line2d_46">
      <g>
       <use style="stroke:#000000;stroke-width:0.8;" x="831.471636" xlink:href="#mb550b0efc9" y="565.94"/>
      </g>
     </g>
     <g id="text_23">
      <!-- B2-025 -->
      <g transform="translate(835.886636 630.41)rotate(-90)scale(0.16 -0.16)">
       <use xlink:href="#DejaVuSans-66"/>
       <use x="68.603516" xlink:href="#DejaVuSans-50"/>
       <use x="132.226562" xlink:href="#DejaVuSans-45"/>
       <use x="168.310547" xlink:href="#DejaVuSans-48"/>
       <use x="231.933594" xlink:href="#DejaVuSans-50"/>
       <use x="295.556641" xlink:href="#DejaVuSans-53"/>
      </g>
     </g>
    </g>
    <g id="xtick_24">
     <g id="line2d_47">
      <path clip-path="url(#p5b76feee0a)" d="M 862.290455 565.94 
L 862.290455 37.68 
" style="fill:none;stroke:#b0b0b0;stroke-linecap:square;stroke-width:0.8;"/>
     </g>
     <g id="line2d_48">
      <g>
       <use style="stroke:#000000;stroke-width:0.8;" x="862.290455" xlink:href="#mb550b0efc9" y="565.94"/>
      </g>
     </g>
     <g id="text_24">
      <!-- B2-026 -->
      <g transform="translate(866.705455 630.41)rotate(-90)scale(0.16 -0.16)">
       <use xlink:href="#DejaVuSans-66"/>
       <use x="68.603516" xlink:href="#DejaVuSans-50"/>
       <use x="132.226562" xlink:href="#DejaVuSans-45"/>
       <use x="168.310547" xlink:href="#DejaVuSans-48"/>
       <use x="231.933594" xlink:href="#DejaVuSans-50"/>
       <use x="295.556641" xlink:href="#DejaVuSans-54"/>
      </g>
     </g>
    </g>
    <g id="xtick_25">
     <g id="line2d_49">
      <path clip-path="url(#p5b76feee0a)" d="M 893.109273 565.94 
L 893.109273 37.68 
" style="fill:none;stroke:#b0b0b0;stroke-linecap:square;stroke-width:0.8;"/>
     </g>
     <g id="line2d_50">
      <g>
       <use style="stroke:#000000;stroke-width:0.8;" x="893.109273" xlink:href="#mb550b0efc9" y="565.94"/>
      </g>
     </g>
     <g id="text_25">
      <!-- B2-027 -->
      <g transform="translate(897.524273 630.41)rotate(-90)scale(0.16 -0.16)">
       <use xlink:href="#DejaVuSans-66"/>
       <use x="68.603516" xlink:href="#DejaVuSans-50"/>
       <use x="132.226562" xlink:href="#DejaVuSans-45"/>
       <use x="168.310547" xlink:href="#DejaVuSans-48"/>
       <use x="231.933594" xlink:href="#DejaVuSans-50"/>
       <use x="295.556641" xlink:href="#DejaVuSans-55"/>
      </g>
     </g>
    </g>
    <g id="xtick_26">
     <g id="line2d_51">
      <path clip-path="url(#p5b76feee0a)" d="M 923.928091 565.94 
L 923.928091 37.68 
" style="fill:none;stroke:#b0b0b0;stroke-linecap:square;stroke-width:0.8;"/>
     </g>
     <g id="line2d_52">
      <g>
       <use style="stroke:#000000;stroke-width:0.8;" x="923.928091" xlink:href="#mb550b0efc9" y="565.94"/>
      </g>
     </g>
     <g id="text_26">
      <!-- B2-028 -->
      <g transform="translate(928.343091 630.41)rotate(-90)scale(0.16 -0.16)">
       <use xlink:href="#DejaVuSans-66"/>
       <use x="68.603516" xlink:href="#DejaVuSans-50"/>
       <use x="132.226562" xlink:href="#DejaVuSans-45"/>
       <use x="168.310547" xlink:href="#DejaVuSans-48"/>
       <use x="231.933594" xlink:href="#DejaVuSans-50"/>
       <use x="295.556641" xlink:href="#DejaVuSans-56"/>
      </g>
     </g>
    </g>
    <g id="xtick_27">
     <g id="line2d_53">
      <path clip-path="url(#p5b76feee0a)" d="M 954.746909 565.94 
L 954.746909 37.68 
" style="fill:none;stroke:#b0b0b0;stroke-linecap:square;stroke-width:0.8;"/>
     </g>
     <g id="line2d_54">
      <g>
       <use style="stroke:#000000;stroke-width:0.8;" x="954.746909" xlink:href="#mb550b0efc9" y="565.94"/>
      </g>
     </g>
     <g id="text_27">
      <!-- B2-029 -->
      <g transform="translate(959.161909 630.41)rotate(-90)scale(0.16 -0.16)">
       <use xlink:href="#DejaVuSans-66"/>
       <use x="68.603516" xlink:href="#DejaVuSans-50"/>
       <use x="132.226562" xlink:href="#DejaVuSans-45"/>
       <use x="168.310547" xlink:href="#DejaVuSans-48"/>
       <use x="231.933594" xlink:href="#DejaVuSans-50"/>
       <use x="295.556641" xlink:href="#DejaVuSans-57"/>
      </g>
     </g>
    </g>
    <g id="xtick_28">
     <g id="line2d_55">
      <path clip-path="url(#p5b76feee0a)" d="M 985.565727 565.94 
L 985.565727 37.68 
" style="fill:none;stroke:#b0b0b0;stroke-linecap:square;stroke-width:0.8;"/>
     </g>
     <g id="line2d_56">
      <g>
       <use style="stroke:#000000;stroke-width:0.8;" x="985.565727" xlink:href="#mb550b0efc9" y="565.94"/>
      </g>
     </g>
     <g id="text_28">
      <!-- B2-030 -->
      <g transform="translate(989.980727 630.41)rotate(-90)scale(0.16 -0.16)">
       <use xlink:href="#DejaVuSans-66"/>
       <use x="68.603516" xlink:href="#DejaVuSans-50"/>
       <use x="132.226562" xlink:href="#DejaVuSans-45"/>
       <use x="168.310547" xlink:href="#DejaVuSans-48"/>
       <use x="231.933594" xlink:href="#DejaVuSans-51"/>
       <use x="295.556641" xlink:href="#DejaVuSans-48"/>
      </g>
     </g>
    </g>
    <g id="xtick_29">
     <g id="line2d_57">
      <path clip-path="url(#p5b76feee0a)" d="M 1016.384545 565.94 
L 1016.384545 37.68 
" style="fill:none;stroke:#b0b0b0;stroke-linecap:square;stroke-width:0.8;"/>
     </g>
     <g id="line2d_58">
      <g>
       <use style="stroke:#000000;stroke-width:0.8;" x="1016.384545" xlink:href="#mb550b0efc9" y="565.94"/>
      </g>
     </g>
     <g id="text_29">
      <!-- B2-031 -->
      <g transform="translate(1020.799545 630.41)rotate(-90)scale(0.16 -0.16)">
       <use xlink:href="#DejaVuSans-66"/>
       <use x="68.603516" xlink:href="#DejaVuSans-50"/>
       <use x="132.226562" xlink:href="#DejaVuSans-45"/>
       <use x="168.310547" xlink:href="#DejaVuSans-48"/>
       <use x="231.933594" xlink:href="#DejaVuSans-51"/>
       <use x="295.556641" xlink:href="#DejaVuSans-49"/>
      </g>
     </g>
    </g>
    <g id="xtick_30">
     <g id="line2d_59">
      <path clip-path="url(#p5b76feee0a)" d="M 1047.203364 565.94 
L 1047.203364 37.68 
" style="fill:none;stroke:#b0b0b0;stroke-linecap:square;stroke-width:0.8;"/>
     </g>
     <g id="line2d_60">
      <g>
       <use style="stroke:#000000;stroke-width:0.8;" x="1047.203364" xlink:href="#mb550b0efc9" y="565.94"/>
      </g>
     </g>
     <g id="text_30">
      <!-- B2-032 -->
      <g transform="translate(1051.618364 630.41)rotate(-90)scale(0.16 -0.16)">
       <use xlink:href="#DejaVuSans-66"/>
       <use x="68.603516" xlink:href="#DejaVuSans-50"/>
       <use x="132.226562" xlink:href="#DejaVuSans-45"/>
       <use x="168.310547" xlink:href="#DejaVuSans-48"/>
       <use x="231.933594" xlink:href="#DejaVuSans-51"/>
       <use x="295.556641" xlink:href="#DejaVuSans-50"/>
      </g>
     </g>
    </g>
    <g id="xtick_31">
     <g id="line2d_61">
      <path clip-path="url(#p5b76feee0a)" d="M 1078.022182 565.94 
L 1078.022182 37.68 
" style="fill:none;stroke:#b0b0b0;stroke-linecap:square;stroke-width:0.8;"/>
     </g>
     <g id="line2d_62">
      <g>
       <use style="stroke:#000000;stroke-width:0.8;" x="1078.022182" xlink:href="#mb550b0efc9" y="565.94"/>
      </g>
     </g>
     <g id="text_31">
      <!-- B2-033 -->
      <g transform="translate(1082.437182 630.41)rotate(-90)scale(0.16 -0.16)">
       <use xlink:href="#DejaVuSans-66"/>
       <use x="68.603516" xlink:href="#DejaVuSans-50"/>
       <use x="132.226562" xlink:href="#DejaVuSans-45"/>
       <use x="168.310547" xlink:href="#DejaVuSans-48"/>
       <use x="231.933594" xlink:href="#DejaVuSans-51"/>
       <use x="295.556641" xlink:href="#DejaVuSans-51"/>
      </g>
     </g>
    </g>
    <g id="xtick_32">
     <g id="line2d_63">
      <path clip-path="url(#p5b76feee0a)" d="M 1108.841 565.94 
L 1108.841 37.68 
" style="fill:none;stroke:#b0b0b0;stroke-linecap:square;stroke-width:0.8;"/>
     </g>
     <g id="line2d_64">
      <g>
       <use style="stroke:#000000;stroke-width:0.8;" x="1108.841" xlink:href="#mb550b0efc9" y="565.94"/>
      </g>
     </g>
     <g id="text_32">
      <!-- B2-034 -->
      <g transform="translate(1113.256 630.41)rotate(-90)scale(0.16 -0.16)">
       <use xlink:href="#DejaVuSans-66"/>
       <use x="68.603516" xlink:href="#DejaVuSans-50"/>
       <use x="132.226562" xlink:href="#DejaVuSans-45"/>
       <use x="168.310547" xlink:href="#DejaVuSans-48"/>
       <use x="231.933594" xlink:href="#DejaVuSans-51"/>
       <use x="295.556641" xlink:href="#DejaVuSans-52"/>
      </g>
     </g>
    </g>
    <g id="xtick_33">
     <g id="line2d_65">
      <path clip-path="url(#p5b76feee0a)" d="M 1139.659818 565.94 
L 1139.659818 37.68 
" style="fill:none;stroke:#b0b0b0;stroke-linecap:square;stroke-width:0.8;"/>
     </g>
     <g id="line2d_66">
      <g>
       <use style="stroke:#000000;stroke-width:0.8;" x="1139.659818" xlink:href="#mb550b0efc9" y="565.94"/>
      </g>
     </g>
     <g id="text_33">
      <!-- B2-036 -->
      <g transform="translate(1144.074818 630.41)rotate(-90)scale(0.16 -0.16)">
       <use xlink:href="#DejaVuSans-66"/>
       <use x="68.603516" xlink:href="#DejaVuSans-50"/>
       <use x="132.226562" xlink:href="#DejaVuSans-45"/>
       <use x="168.310547" xlink:href="#DejaVuSans-48"/>
       <use x="231.933594" xlink:href="#DejaVuSans-51"/>
       <use x="295.556641" xlink:href="#DejaVuSans-54"/>
      </g>
     </g>
    </g>
    <g id="xtick_34">
     <g id="line2d_67">
      <path clip-path="url(#p5b76feee0a)" d="M 1170.478636 565.94 
L 1170.478636 37.68 
" style="fill:none;stroke:#b0b0b0;stroke-linecap:square;stroke-width:0.8;"/>
     </g>
     <g id="line2d_68">
      <g>
       <use style="stroke:#000000;stroke-width:0.8;" x="1170.478636" xlink:href="#mb550b0efc9" y="565.94"/>
      </g>
     </g>
     <g id="text_34">
      <!-- B2-037 -->
      <g transform="translate(1174.893636 630.41)rotate(-90)scale(0.16 -0.16)">
       <use xlink:href="#DejaVuSans-66"/>
       <use x="68.603516" xlink:href="#DejaVuSans-50"/>
       <use x="132.226562" xlink:href="#DejaVuSans-45"/>
       <use x="168.310547" xlink:href="#DejaVuSans-48"/>
       <use x="231.933594" xlink:href="#DejaVuSans-51"/>
       <use x="295.556641" xlink:href="#DejaVuSans-55"/>
      </g>
     </g>
    </g>
    <g id="xtick_35">
     <g id="line2d_69">
      <path clip-path="url(#p5b76feee0a)" d="M 1201.297455 565.94 
L 1201.297455 37.68 
" style="fill:none;stroke:#b0b0b0;stroke-linecap:square;stroke-width:0.8;"/>
     </g>
     <g id="line2d_70">
      <g>
       <use style="stroke:#000000;stroke-width:0.8;" x="1201.297455" xlink:href="#mb550b0efc9" y="565.94"/>
      </g>
     </g>
     <g id="text_35">
      <!-- B2-038 -->
      <g transform="translate(1205.712455 630.41)rotate(-90)scale(0.16 -0.16)">
       <use xlink:href="#DejaVuSans-66"/>
       <use x="68.603516" xlink:href="#DejaVuSans-50"/>
       <use x="132.226562" xlink:href="#DejaVuSans-45"/>
       <use x="168.310547" xlink:href="#DejaVuSans-48"/>
       <use x="231.933594" xlink:href="#DejaVuSans-51"/>
       <use x="295.556641" xlink:href="#DejaVuSans-56"/>
      </g>
     </g>
    </g>
    <g id="xtick_36">
     <g id="line2d_71">
      <path clip-path="url(#p5b76feee0a)" d="M 1232.116273 565.94 
L 1232.116273 37.68 
" style="fill:none;stroke:#b0b0b0;stroke-linecap:square;stroke-width:0.8;"/>
     </g>
     <g id="line2d_72">
      <g>
       <use style="stroke:#000000;stroke-width:0.8;" x="1232.116273" xlink:href="#mb550b0efc9" y="565.94"/>
      </g>
     </g>
     <g id="text_36">
      <!-- B2-040 -->
      <g transform="translate(1236.531273 630.41)rotate(-90)scale(0.16 -0.16)">
       <use xlink:href="#DejaVuSans-66"/>
       <use x="68.603516" xlink:href="#DejaVuSans-50"/>
       <use x="132.226562" xlink:href="#DejaVuSans-45"/>
       <use x="168.310547" xlink:href="#DejaVuSans-48"/>
       <use x="231.933594" xlink:href="#DejaVuSans-52"/>
       <use x="295.556641" xlink:href="#DejaVuSans-48"/>
      </g>
     </g>
    </g>
    <g id="xtick_37">
     <g id="line2d_73">
      <path clip-path="url(#p5b76feee0a)" d="M 1262.935091 565.94 
L 1262.935091 37.68 
" style="fill:none;stroke:#b0b0b0;stroke-linecap:square;stroke-width:0.8;"/>
     </g>
     <g id="line2d_74">
      <g>
       <use style="stroke:#000000;stroke-width:0.8;" x="1262.935091" xlink:href="#mb550b0efc9" y="565.94"/>
      </g>
     </g>
     <g id="text_37">
      <!-- B2-042 -->
      <g transform="translate(1267.350091 630.41)rotate(-90)scale(0.16 -0.16)">
       <use xlink:href="#DejaVuSans-66"/>
       <use x="68.603516" xlink:href="#DejaVuSans-50"/>
       <use x="132.226562" xlink:href="#DejaVuSans-45"/>
       <use x="168.310547" xlink:href="#DejaVuSans-48"/>
       <use x="231.933594" xlink:href="#DejaVuSans-52"/>
       <use x="295.556641" xlink:href="#DejaVuSans-50"/>
      </g>
     </g>
    </g>
    <g id="xtick_38">
     <g id="line2d_75">
      <path clip-path="url(#p5b76feee0a)" d="M 1293.753909 565.94 
L 1293.753909 37.68 
" style="fill:none;stroke:#b0b0b0;stroke-linecap:square;stroke-width:0.8;"/>
     </g>
     <g id="line2d_76">
      <g>
       <use style="stroke:#000000;stroke-width:0.8;" x="1293.753909" xlink:href="#mb550b0efc9" y="565.94"/>
      </g>
     </g>
     <g id="text_38">
      <!-- B2-043 -->
      <g transform="translate(1298.168909 630.41)rotate(-90)scale(0.16 -0.16)">
       <use xlink:href="#DejaVuSans-66"/>
       <use x="68.603516" xlink:href="#DejaVuSans-50"/>
       <use x="132.226562" xlink:href="#DejaVuSans-45"/>
       <use x="168.310547" xlink:href="#DejaVuSans-48"/>
       <use x="231.933594" xlink:href="#DejaVuSans-52"/>
       <use x="295.556641" xlink:href="#DejaVuSans-51"/>
      </g>
     </g>
    </g>
    <g id="xtick_39">
     <g id="line2d_77">
      <path clip-path="url(#p5b76feee0a)" d="M 1324.572727 565.94 
L 1324.572727 37.68 
" style="fill:none;stroke:#b0b0b0;stroke-linecap:square;stroke-width:0.8;"/>
     </g>
     <g id="line2d_78">
      <g>
       <use style="stroke:#000000;stroke-width:0.8;" x="1324.572727" xlink:href="#mb550b0efc9" y="565.94"/>
      </g>
     </g>
     <g id="text_39">
      <!-- B2-044 -->
      <g transform="translate(1328.987727 630.41)rotate(-90)scale(0.16 -0.16)">
       <use xlink:href="#DejaVuSans-66"/>
       <use x="68.603516" xlink:href="#DejaVuSans-50"/>
       <use x="132.226562" xlink:href="#DejaVuSans-45"/>
       <use x="168.310547" xlink:href="#DejaVuSans-48"/>
       <use x="231.933594" xlink:href="#DejaVuSans-52"/>
       <use x="295.556641" xlink:href="#DejaVuSans-52"/>
      </g>
     </g>
    </g>
    <g id="xtick_40">
     <g id="line2d_79">
      <path clip-path="url(#p5b76feee0a)" d="M 1355.391545 565.94 
L 1355.391545 37.68 
" style="fill:none;stroke:#b0b0b0;stroke-linecap:square;stroke-width:0.8;"/>
     </g>
     <g id="line2d_80">
      <g>
       <use style="stroke:#000000;stroke-width:0.8;" x="1355.391545" xlink:href="#mb550b0efc9" y="565.94"/>
      </g>
     </g>
     <g id="text_40">
      <!-- B2-045 -->
      <g transform="translate(1359.806545 630.41)rotate(-90)scale(0.16 -0.16)">
       <use xlink:href="#DejaVuSans-66"/>
       <use x="68.603516" xlink:href="#DejaVuSans-50"/>
       <use x="132.226562" xlink:href="#DejaVuSans-45"/>
       <use x="168.310547" xlink:href="#DejaVuSans-48"/>
       <use x="231.933594" xlink:href="#DejaVuSans-52"/>
       <use x="295.556641" xlink:href="#DejaVuSans-53"/>
      </g>
     </g>
    </g>
    <g id="xtick_41">
     <g id="line2d_81">
      <path clip-path="url(#p5b76feee0a)" d="M 1386.210364 565.94 
L 1386.210364 37.68 
" style="fill:none;stroke:#b0b0b0;stroke-linecap:square;stroke-width:0.8;"/>
     </g>
     <g id="line2d_82">
      <g>
       <use style="stroke:#000000;stroke-width:0.8;" x="1386.210364" xlink:href="#mb550b0efc9" y="565.94"/>
      </g>
     </g>
     <g id="text_41">
      <!-- B2-046 -->
      <g transform="translate(1390.625364 630.41)rotate(-90)scale(0.16 -0.16)">
       <use xlink:href="#DejaVuSans-66"/>
       <use x="68.603516" xlink:href="#DejaVuSans-50"/>
       <use x="132.226562" xlink:href="#DejaVuSans-45"/>
       <use x="168.310547" xlink:href="#DejaVuSans-48"/>
       <use x="231.933594" xlink:href="#DejaVuSans-52"/>
       <use x="295.556641" xlink:href="#DejaVuSans-54"/>
      </g>
     </g>
    </g>
    <g id="xtick_42">
     <g id="line2d_83">
      <path clip-path="url(#p5b76feee0a)" d="M 1417.029182 565.94 
L 1417.029182 37.68 
" style="fill:none;stroke:#b0b0b0;stroke-linecap:square;stroke-width:0.8;"/>
     </g>
     <g id="line2d_84">
      <g>
       <use style="stroke:#000000;stroke-width:0.8;" x="1417.029182" xlink:href="#mb550b0efc9" y="565.94"/>
      </g>
     </g>
    </g>
   </g>
   <g id="matplotlib.axis_2">
    <g id="ytick_1">
     <g id="line2d_85">
      <path clip-path="url(#p5b76feee0a)" d="M 91.82 488.960947 
L 1447.848 488.960947 
" style="fill:none;stroke:#b0b0b0;stroke-linecap:square;stroke-width:0.8;"/>
     </g>
     <g id="line2d_86">
      <defs>
       <path d="M 0 0 
L -3.5 0 
" id="m4d47f697ab" style="stroke:#000000;stroke-width:0.8;"/>
      </defs>
      <g>
       <use style="stroke:#000000;stroke-width:0.8;" x="91.82" xlink:href="#m4d47f697ab" y="488.960947"/>
      </g>
     </g>
     <g id="text_42">
      <!-- −0.12 -->
      <defs>
       <path d="M 10.59375 35.5 
L 73.1875 35.5 
L 73.1875 27.203125 
L 10.59375 27.203125 
z
" id="DejaVuSans-8722"/>
       <path d="M 10.6875 12.40625 
L 21 12.40625 
L 21 0 
L 10.6875 0 
z
" id="DejaVuSans-46"/>
      </defs>
      <g transform="translate(35.7875 495.039697)scale(0.16 -0.16)">
       <use xlink:href="#DejaVuSans-8722"/>
       <use x="83.789062" xlink:href="#DejaVuSans-48"/>
       <use x="147.412109" xlink:href="#DejaVuSans-46"/>
       <use x="179.199219" xlink:href="#DejaVuSans-49"/>
       <use x="242.822266" xlink:href="#DejaVuSans-50"/>
      </g>
     </g>
    </g>
    <g id="ytick_2">
     <g id="line2d_87">
      <path clip-path="url(#p5b76feee0a)" d="M 91.82 405.654663 
L 1447.848 405.654663 
" style="fill:none;stroke:#b0b0b0;stroke-linecap:square;stroke-width:0.8;"/>
     </g>
     <g id="line2d_88">
      <g>
       <use style="stroke:#000000;stroke-width:0.8;" x="91.82" xlink:href="#m4d47f697ab" y="405.654663"/>
      </g>
     </g>
     <g id="text_43">
      <!-- −0.11 -->
      <g transform="translate(35.7875 411.733413)scale(0.16 -0.16)">
       <use xlink:href="#DejaVuSans-8722"/>
       <use x="83.789062" xlink:href="#DejaVuSans-48"/>
       <use x="147.412109" xlink:href="#DejaVuSans-46"/>
       <use x="179.199219" xlink:href="#DejaVuSans-49"/>
       <use x="242.822266" xlink:href="#DejaVuSans-49"/>
      </g>
     </g>
    </g>
    <g id="ytick_3">
     <g id="line2d_89">
      <path clip-path="url(#p5b76feee0a)" d="M 91.82 322.34838 
L 1447.848 322.34838 
" style="fill:none;stroke:#b0b0b0;stroke-linecap:square;stroke-width:0.8;"/>
     </g>
     <g id="line2d_90">
      <g>
       <use style="stroke:#000000;stroke-width:0.8;" x="91.82" xlink:href="#m4d47f697ab" y="322.34838"/>
      </g>
     </g>
     <g id="text_44">
      <!-- −0.10 -->
      <g transform="translate(35.7875 328.42713)scale(0.16 -0.16)">
       <use xlink:href="#DejaVuSans-8722"/>
       <use x="83.789062" xlink:href="#DejaVuSans-48"/>
       <use x="147.412109" xlink:href="#DejaVuSans-46"/>
       <use x="179.199219" xlink:href="#DejaVuSans-49"/>
       <use x="242.822266" xlink:href="#DejaVuSans-48"/>
      </g>
     </g>
    </g>
    <g id="ytick_4">
     <g id="line2d_91">
      <path clip-path="url(#p5b76feee0a)" d="M 91.82 239.042097 
L 1447.848 239.042097 
" style="fill:none;stroke:#b0b0b0;stroke-linecap:square;stroke-width:0.8;"/>
     </g>
     <g id="line2d_92">
      <g>
       <use style="stroke:#000000;stroke-width:0.8;" x="91.82" xlink:href="#m4d47f697ab" y="239.042097"/>
      </g>
     </g>
     <g id="text_45">
      <!-- −0.09 -->
      <g transform="translate(35.7875 245.120847)scale(0.16 -0.16)">
       <use xlink:href="#DejaVuSans-8722"/>
       <use x="83.789062" xlink:href="#DejaVuSans-48"/>
       <use x="147.412109" xlink:href="#DejaVuSans-46"/>
       <use x="179.199219" xlink:href="#DejaVuSans-48"/>
       <use x="242.822266" xlink:href="#DejaVuSans-57"/>
      </g>
     </g>
    </g>
    <g id="ytick_5">
     <g id="line2d_93">
      <path clip-path="url(#p5b76feee0a)" d="M 91.82 155.735814 
L 1447.848 155.735814 
" style="fill:none;stroke:#b0b0b0;stroke-linecap:square;stroke-width:0.8;"/>
     </g>
     <g id="line2d_94">
      <g>
       <use style="stroke:#000000;stroke-width:0.8;" x="91.82" xlink:href="#m4d47f697ab" y="155.735814"/>
      </g>
     </g>
     <g id="text_46">
      <!-- −0.08 -->
      <g transform="translate(35.7875 161.814564)scale(0.16 -0.16)">
       <use xlink:href="#DejaVuSans-8722"/>
       <use x="83.789062" xlink:href="#DejaVuSans-48"/>
       <use x="147.412109" xlink:href="#DejaVuSans-46"/>
       <use x="179.199219" xlink:href="#DejaVuSans-48"/>
       <use x="242.822266" xlink:href="#DejaVuSans-56"/>
      </g>
     </g>
    </g>
    <g id="ytick_6">
     <g id="line2d_95">
      <path clip-path="url(#p5b76feee0a)" d="M 91.82 72.42953 
L 1447.848 72.42953 
" style="fill:none;stroke:#b0b0b0;stroke-linecap:square;stroke-width:0.8;"/>
     </g>
     <g id="line2d_96">
      <g>
       <use style="stroke:#000000;stroke-width:0.8;" x="91.82" xlink:href="#m4d47f697ab" y="72.42953"/>
      </g>
     </g>
     <g id="text_47">
      <!-- −0.07 -->
      <g transform="translate(35.7875 78.50828)scale(0.16 -0.16)">
       <use xlink:href="#DejaVuSans-8722"/>
       <use x="83.789062" xlink:href="#DejaVuSans-48"/>
       <use x="147.412109" xlink:href="#DejaVuSans-46"/>
       <use x="179.199219" xlink:href="#DejaVuSans-48"/>
       <use x="242.822266" xlink:href="#DejaVuSans-55"/>
      </g>
     </g>
    </g>
    <g id="text_48">
     <!-- SL [1/m²] -->
     <defs>
      <path d="M 53.515625 70.515625 
L 53.515625 60.890625 
Q 47.90625 63.578125 42.921875 64.890625 
Q 37.9375 66.21875 33.296875 66.21875 
Q 25.25 66.21875 20.875 63.09375 
Q 16.5 59.96875 16.5 54.203125 
Q 16.5 49.359375 19.40625 46.890625 
Q 22.3125 44.4375 30.421875 42.921875 
L 36.375 41.703125 
Q 47.40625 39.59375 52.65625 34.296875 
Q 57.90625 29 57.90625 20.125 
Q 57.90625 9.515625 50.796875 4.046875 
Q 43.703125 -1.421875 29.984375 -1.421875 
Q 24.8125 -1.421875 18.96875 -0.25 
Q 13.140625 0.921875 6.890625 3.21875 
L 6.890625 13.375 
Q 12.890625 10.015625 18.65625 8.296875 
Q 24.421875 6.59375 29.984375 6.59375 
Q 38.421875 6.59375 43.015625 9.90625 
Q 47.609375 13.234375 47.609375 19.390625 
Q 47.609375 24.75 44.3125 27.78125 
Q 41.015625 30.8125 33.5 32.328125 
L 27.484375 33.5 
Q 16.453125 35.6875 11.515625 40.375 
Q 6.59375 45.0625 6.59375 53.421875 
Q 6.59375 63.09375 13.40625 68.65625 
Q 20.21875 74.21875 32.171875 74.21875 
Q 37.3125 74.21875 42.625 73.28125 
Q 47.953125 72.359375 53.515625 70.515625 
z
" id="DejaVuSans-83"/>
      <path d="M 9.8125 72.90625 
L 19.671875 72.90625 
L 19.671875 8.296875 
L 55.171875 8.296875 
L 55.171875 0 
L 9.8125 0 
z
" id="DejaVuSans-76"/>
      <path id="DejaVuSans-32"/>
      <path d="M 8.59375 75.984375 
L 29.296875 75.984375 
L 29.296875 69 
L 17.578125 69 
L 17.578125 -6.203125 
L 29.296875 -6.203125 
L 29.296875 -13.1875 
L 8.59375 -13.1875 
z
" id="DejaVuSans-91"/>
      <path d="M 25.390625 72.90625 
L 33.6875 72.90625 
L 8.296875 -9.28125 
L 0 -9.28125 
z
" id="DejaVuSans-47"/>
      <path d="M 52 44.1875 
Q 55.375 50.25 60.0625 53.125 
Q 64.75 56 71.09375 56 
Q 79.640625 56 84.28125 50.015625 
Q 88.921875 44.046875 88.921875 33.015625 
L 88.921875 0 
L 79.890625 0 
L 79.890625 32.71875 
Q 79.890625 40.578125 77.09375 44.375 
Q 74.3125 48.1875 68.609375 48.1875 
Q 61.625 48.1875 57.5625 43.546875 
Q 53.515625 38.921875 53.515625 30.90625 
L 53.515625 0 
L 44.484375 0 
L 44.484375 32.71875 
Q 44.484375 40.625 41.703125 44.40625 
Q 38.921875 48.1875 33.109375 48.1875 
Q 26.21875 48.1875 22.15625 43.53125 
Q 18.109375 38.875 18.109375 30.90625 
L 18.109375 0 
L 9.078125 0 
L 9.078125 54.6875 
L 18.109375 54.6875 
L 18.109375 46.1875 
Q 21.1875 51.21875 25.484375 53.609375 
Q 29.78125 56 35.6875 56 
Q 41.65625 56 45.828125 52.96875 
Q 50 49.953125 52 44.1875 
z
" id="DejaVuSans-109"/>
      <path d="M 13.09375 38.1875 
L 33.796875 38.1875 
L 33.796875 32.625 
L 4.59375 32.625 
L 4.59375 37.984375 
Q 6.25 39.5 9.328125 42.234375 
Q 26.125 57.125 26.125 61.71875 
Q 26.125 64.9375 23.578125 66.90625 
Q 21.046875 68.890625 16.890625 68.890625 
Q 14.359375 68.890625 11.375 68.03125 
Q 8.40625 67.1875 4.890625 65.484375 
L 4.890625 71.484375 
Q 8.640625 72.859375 11.890625 73.53125 
Q 15.140625 74.21875 17.921875 74.21875 
Q 25 74.21875 29.25 71 
Q 33.5 67.78125 33.5 62.5 
Q 33.5 55.71875 17.328125 41.84375 
Q 14.59375 39.5 13.09375 38.1875 
z
" id="DejaVuSans-178"/>
      <path d="M 30.421875 75.984375 
L 30.421875 -13.1875 
L 9.71875 -13.1875 
L 9.71875 -6.203125 
L 21.390625 -6.203125 
L 21.390625 69 
L 9.71875 69 
L 9.71875 75.984375 
z
" id="DejaVuSans-93"/>
     </defs>
     <g transform="translate(28.46 338.91625)rotate(-90)scale(0.16 -0.16)">
      <use xlink:href="#DejaVuSans-83"/>
      <use x="63.476562" xlink:href="#DejaVuSans-76"/>
      <use x="119.189453" xlink:href="#DejaVuSans-32"/>
      <use x="150.976562" xlink:href="#DejaVuSans-91"/>
      <use x="189.990234" xlink:href="#DejaVuSans-49"/>
      <use x="253.613281" xlink:href="#DejaVuSans-47"/>
      <use x="287.304688" xlink:href="#DejaVuSans-109"/>
      <use x="384.716797" xlink:href="#DejaVuSans-178"/>
      <use x="424.804688" xlink:href="#DejaVuSans-93"/>
     </g>
    </g>
   </g>
   <g id="line2d_97">
    <path clip-path="url(#p5b76feee0a)" d="M 153.457636 228.035242 
L 184.276455 541.928182 
L 215.095273 246.89596 
L 245.914091 245.735172 
L 276.732909 228.928799 
L 307.551727 312.559815 
L 338.370545 295.98727 
L 369.189364 352.623703 
L 400.008182 316.029653 
L 430.827 224.293998 
L 461.645818 106.098222 
L 492.464636 362.214818 
L 523.283455 264.366236 
L 554.102273 378.699678 
L 584.921091 327.470513 
L 615.739909 223.972484 
L 646.558727 392.817031 
L 677.377545 181.07761 
L 708.196364 228.824411 
L 739.015182 292.521608 
L 769.834 267.167994 
L 800.652818 453.616434 
L 831.471636 264.144935 
L 862.290455 316.914858 
L 893.109273 387.835664 
L 923.928091 411.318655 
L 954.746909 264.921577 
L 985.565727 217.592326 
L 1016.384545 485.475471 
L 1047.203364 141.6651 
L 1078.022182 224.1061 
L 1108.841 293.962155 
L 1139.659818 373.066933 
L 1170.478636 61.691818 
L 1201.297455 288.016248 
L 1232.116273 305.428068 
L 1262.935091 323.077891 
L 1293.753909 352.577773 
L 1324.572727 279.740414 
L 1355.391545 184.635133 
L 1386.210364 311.348921 
" style="fill:none;stroke:#0000ff;stroke-linecap:square;stroke-width:1.5;"/>
    <defs>
     <path d="M 0 3 
C 0.795609 3 1.55874 2.683901 2.12132 2.12132 
C 2.683901 1.55874 3 0.795609 3 0 
C 3 -0.795609 2.683901 -1.55874 2.12132 -2.12132 
C 1.55874 -2.683901 0.795609 -3 0 -3 
C -0.795609 -3 -1.55874 -2.683901 -2.12132 -2.12132 
C -2.683901 -1.55874 -3 -0.795609 -3 0 
C -3 0.795609 -2.683901 1.55874 -2.12132 2.12132 
C -1.55874 2.683901 -0.795609 3 0 3 
z
" id="mc6fe9ae753" style="stroke:#0000ff;"/>
    </defs>
    <g clip-path="url(#p5b76feee0a)">
     <use style="fill:#0000ff;stroke:#0000ff;" x="153.457636" xlink:href="#mc6fe9ae753" y="228.035242"/>
     <use style="fill:#0000ff;stroke:#0000ff;" x="184.276455" xlink:href="#mc6fe9ae753" y="541.928182"/>
     <use style="fill:#0000ff;stroke:#0000ff;" x="215.095273" xlink:href="#mc6fe9ae753" y="246.89596"/>
     <use style="fill:#0000ff;stroke:#0000ff;" x="245.914091" xlink:href="#mc6fe9ae753" y="245.735172"/>
     <use style="fill:#0000ff;stroke:#0000ff;" x="276.732909" xlink:href="#mc6fe9ae753" y="228.928799"/>
     <use style="fill:#0000ff;stroke:#0000ff;" x="307.551727" xlink:href="#mc6fe9ae753" y="312.559815"/>
     <use style="fill:#0000ff;stroke:#0000ff;" x="338.370545" xlink:href="#mc6fe9ae753" y="295.98727"/>
     <use style="fill:#0000ff;stroke:#0000ff;" x="369.189364" xlink:href="#mc6fe9ae753" y="352.623703"/>
     <use style="fill:#0000ff;stroke:#0000ff;" x="400.008182" xlink:href="#mc6fe9ae753" y="316.029653"/>
     <use style="fill:#0000ff;stroke:#0000ff;" x="430.827" xlink:href="#mc6fe9ae753" y="224.293998"/>
     <use style="fill:#0000ff;stroke:#0000ff;" x="461.645818" xlink:href="#mc6fe9ae753" y="106.098222"/>
     <use style="fill:#0000ff;stroke:#0000ff;" x="492.464636" xlink:href="#mc6fe9ae753" y="362.214818"/>
     <use style="fill:#0000ff;stroke:#0000ff;" x="523.283455" xlink:href="#mc6fe9ae753" y="264.366236"/>
     <use style="fill:#0000ff;stroke:#0000ff;" x="554.102273" xlink:href="#mc6fe9ae753" y="378.699678"/>
     <use style="fill:#0000ff;stroke:#0000ff;" x="584.921091" xlink:href="#mc6fe9ae753" y="327.470513"/>
     <use style="fill:#0000ff;stroke:#0000ff;" x="615.739909" xlink:href="#mc6fe9ae753" y="223.972484"/>
     <use style="fill:#0000ff;stroke:#0000ff;" x="646.558727" xlink:href="#mc6fe9ae753" y="392.817031"/>
     <use style="fill:#0000ff;stroke:#0000ff;" x="677.377545" xlink:href="#mc6fe9ae753" y="181.07761"/>
     <use style="fill:#0000ff;stroke:#0000ff;" x="708.196364" xlink:href="#mc6fe9ae753" y="228.824411"/>
     <use style="fill:#0000ff;stroke:#0000ff;" x="739.015182" xlink:href="#mc6fe9ae753" y="292.521608"/>
     <use style="fill:#0000ff;stroke:#0000ff;" x="769.834" xlink:href="#mc6fe9ae753" y="267.167994"/>
     <use style="fill:#0000ff;stroke:#0000ff;" x="800.652818" xlink:href="#mc6fe9ae753" y="453.616434"/>
     <use style="fill:#0000ff;stroke:#0000ff;" x="831.471636" xlink:href="#mc6fe9ae753" y="264.144935"/>
     <use style="fill:#0000ff;stroke:#0000ff;" x="862.290455" xlink:href="#mc6fe9ae753" y="316.914858"/>
     <use style="fill:#0000ff;stroke:#0000ff;" x="893.109273" xlink:href="#mc6fe9ae753" y="387.835664"/>
     <use style="fill:#0000ff;stroke:#0000ff;" x="923.928091" xlink:href="#mc6fe9ae753" y="411.318655"/>
     <use style="fill:#0000ff;stroke:#0000ff;" x="954.746909" xlink:href="#mc6fe9ae753" y="264.921577"/>
     <use style="fill:#0000ff;stroke:#0000ff;" x="985.565727" xlink:href="#mc6fe9ae753" y="217.592326"/>
     <use style="fill:#0000ff;stroke:#0000ff;" x="1016.384545" xlink:href="#mc6fe9ae753" y="485.475471"/>
     <use style="fill:#0000ff;stroke:#0000ff;" x="1047.203364" xlink:href="#mc6fe9ae753" y="141.6651"/>
     <use style="fill:#0000ff;stroke:#0000ff;" x="1078.022182" xlink:href="#mc6fe9ae753" y="224.1061"/>
     <use style="fill:#0000ff;stroke:#0000ff;" x="1108.841" xlink:href="#mc6fe9ae753" y="293.962155"/>
     <use style="fill:#0000ff;stroke:#0000ff;" x="1139.659818" xlink:href="#mc6fe9ae753" y="373.066933"/>
     <use style="fill:#0000ff;stroke:#0000ff;" x="1170.478636" xlink:href="#mc6fe9ae753" y="61.691818"/>
     <use style="fill:#0000ff;stroke:#0000ff;" x="1201.297455" xlink:href="#mc6fe9ae753" y="288.016248"/>
     <use style="fill:#0000ff;stroke:#0000ff;" x="1232.116273" xlink:href="#mc6fe9ae753" y="305.428068"/>
     <use style="fill:#0000ff;stroke:#0000ff;" x="1262.935091" xlink:href="#mc6fe9ae753" y="323.077891"/>
     <use style="fill:#0000ff;stroke:#0000ff;" x="1293.753909" xlink:href="#mc6fe9ae753" y="352.577773"/>
     <use style="fill:#0000ff;stroke:#0000ff;" x="1324.572727" xlink:href="#mc6fe9ae753" y="279.740414"/>
     <use style="fill:#0000ff;stroke:#0000ff;" x="1355.391545" xlink:href="#mc6fe9ae753" y="184.635133"/>
     <use style="fill:#0000ff;stroke:#0000ff;" x="1386.210364" xlink:href="#mc6fe9ae753" y="311.348921"/>
    </g>
   </g>
   <g id="line2d_98">
    <path clip-path="url(#p5b76feee0a)" d="M 153.457636 291.692314 
L 184.276455 291.692314 
L 215.095273 291.692314 
L 245.914091 291.692314 
L 276.732909 291.692314 
L 307.551727 291.692314 
L 338.370545 291.692314 
L 369.189364 291.692314 
L 400.008182 291.692314 
L 430.827 291.692314 
L 461.645818 291.692314 
L 492.464636 291.692314 
L 523.283455 291.692314 
L 554.102273 291.692314 
L 584.921091 291.692314 
L 615.739909 291.692314 
L 646.558727 291.692314 
L 677.377545 291.692314 
L 708.196364 291.692314 
L 739.015182 291.692314 
L 769.834 291.692314 
L 800.652818 291.692314 
L 831.471636 291.692314 
L 862.290455 291.692314 
L 893.109273 291.692314 
L 923.928091 291.692314 
L 954.746909 291.692314 
L 985.565727 291.692314 
L 1016.384545 291.692314 
L 1047.203364 291.692314 
L 1078.022182 291.692314 
L 1108.841 291.692314 
L 1139.659818 291.692314 
L 1170.478636 291.692314 
L 1201.297455 291.692314 
L 1232.116273 291.692314 
L 1262.935091 291.692314 
L 1293.753909 291.692314 
L 1324.572727 291.692314 
L 1355.391545 291.692314 
L 1386.210364 291.692314 
" style="fill:none;stroke:#0000ff;stroke-linecap:square;stroke-width:1.5;"/>
   </g>
   <g id="line2d_99">
    <path clip-path="url(#p5b76feee0a)" d="M 153.457636 197.590209 
L 184.276455 197.590209 
L 215.095273 197.590209 
L 245.914091 197.590209 
L 276.732909 197.590209 
L 307.551727 197.590209 
L 338.370545 197.590209 
L 369.189364 197.590209 
L 400.008182 197.590209 
L 430.827 197.590209 
L 461.645818 197.590209 
L 492.464636 197.590209 
L 523.283455 197.590209 
L 554.102273 197.590209 
L 584.921091 197.590209 
L 615.739909 197.590209 
L 646.558727 197.590209 
L 677.377545 197.590209 
L 708.196364 197.590209 
L 739.015182 197.590209 
L 769.834 197.590209 
L 800.652818 197.590209 
L 831.471636 197.590209 
L 862.290455 197.590209 
L 893.109273 197.590209 
L 923.928091 197.590209 
L 954.746909 197.590209 
L 985.565727 197.590209 
L 1016.384545 197.590209 
L 1047.203364 197.590209 
L 1078.022182 197.590209 
L 1108.841 197.590209 
L 1139.659818 197.590209 
L 1170.478636 197.590209 
L 1201.297455 197.590209 
L 1232.116273 197.590209 
L 1262.935091 197.590209 
L 1293.753909 197.590209 
L 1324.572727 197.590209 
L 1355.391545 197.590209 
L 1386.210364 197.590209 
" style="fill:none;stroke:#0000ff;stroke-dasharray:5.55,2.4;stroke-dashoffset:0;stroke-width:1.5;"/>
   </g>
   <g id="line2d_100">
    <path clip-path="url(#p5b76feee0a)" d="M 153.457636 385.794419 
L 184.276455 385.794419 
L 215.095273 385.794419 
L 245.914091 385.794419 
L 276.732909 385.794419 
L 307.551727 385.794419 
L 338.370545 385.794419 
L 369.189364 385.794419 
L 400.008182 385.794419 
L 430.827 385.794419 
L 461.645818 385.794419 
L 492.464636 385.794419 
L 523.283455 385.794419 
L 554.102273 385.794419 
L 584.921091 385.794419 
L 615.739909 385.794419 
L 646.558727 385.794419 
L 677.377545 385.794419 
L 708.196364 385.794419 
L 739.015182 385.794419 
L 769.834 385.794419 
L 800.652818 385.794419 
L 831.471636 385.794419 
L 862.290455 385.794419 
L 893.109273 385.794419 
L 923.928091 385.794419 
L 954.746909 385.794419 
L 985.565727 385.794419 
L 1016.384545 385.794419 
L 1047.203364 385.794419 
L 1078.022182 385.794419 
L 1108.841 385.794419 
L 1139.659818 385.794419 
L 1170.478636 385.794419 
L 1201.297455 385.794419 
L 1232.116273 385.794419 
L 1262.935091 385.794419 
L 1293.753909 385.794419 
L 1324.572727 385.794419 
L 1355.391545 385.794419 
L 1386.210364 385.794419 
" style="fill:none;stroke:#0000ff;stroke-dasharray:5.55,2.4;stroke-dashoffset:0;stroke-width:1.5;"/>
   </g>
   <g id="patch_3">
    <path d="M 91.82 565.94 
L 91.82 37.68 
" style="fill:none;stroke:#000000;stroke-linecap:square;stroke-linejoin:miter;stroke-width:0.8;"/>
   </g>
   <g id="patch_4">
    <path d="M 1447.848 565.94 
L 1447.848 37.68 
" style="fill:none;stroke:#000000;stroke-linecap:square;stroke-linejoin:miter;stroke-width:0.8;"/>
   </g>
   <g id="patch_5">
    <path d="M 91.82 565.94 
L 1447.848 565.94 
" style="fill:none;stroke:#000000;stroke-linecap:square;stroke-linejoin:miter;stroke-width:0.8;"/>
   </g>
   <g id="patch_6">
    <path d="M 91.82 37.68 
L 1447.848 37.68 
" style="fill:none;stroke:#000000;stroke-linecap:square;stroke-linejoin:miter;stroke-width:0.8;"/>
   </g>
   <g id="text_49">
    <!-- B2 integrated sextupole at 401.8 A -->
    <defs>
     <path d="M 9.421875 54.6875 
L 18.40625 54.6875 
L 18.40625 0 
L 9.421875 0 
z
M 9.421875 75.984375 
L 18.40625 75.984375 
L 18.40625 64.59375 
L 9.421875 64.59375 
z
" id="DejaVuSans-105"/>
     <path d="M 54.890625 33.015625 
L 54.890625 0 
L 45.90625 0 
L 45.90625 32.71875 
Q 45.90625 40.484375 42.875 44.328125 
Q 39.84375 48.1875 33.796875 48.1875 
Q 26.515625 48.1875 22.3125 43.546875 
Q 18.109375 38.921875 18.109375 30.90625 
L 18.109375 0 
L 9.078125 0 
L 9.078125 54.6875 
L 18.109375 54.6875 
L 18.109375 46.1875 
Q 21.34375 51.125 25.703125 53.5625 
Q 30.078125 56 35.796875 56 
Q 45.21875 56 50.046875 50.171875 
Q 54.890625 44.34375 54.890625 33.015625 
z
" id="DejaVuSans-110"/>
     <path d="M 18.3125 70.21875 
L 18.3125 54.6875 
L 36.8125 54.6875 
L 36.8125 47.703125 
L 18.3125 47.703125 
L 18.3125 18.015625 
Q 18.3125 11.328125 20.140625 9.421875 
Q 21.96875 7.515625 27.59375 7.515625 
L 36.8125 7.515625 
L 36.8125 0 
L 27.59375 0 
Q 17.1875 0 13.234375 3.875 
Q 9.28125 7.765625 9.28125 18.015625 
L 9.28125 47.703125 
L 2.6875 47.703125 
L 2.6875 54.6875 
L 9.28125 54.6875 
L 9.28125 70.21875 
z
" id="DejaVuSans-116"/>
     <path d="M 56.203125 29.59375 
L 56.203125 25.203125 
L 14.890625 25.203125 
Q 15.484375 15.921875 20.484375 11.0625 
Q 25.484375 6.203125 34.421875 6.203125 
Q 39.59375 6.203125 44.453125 7.46875 
Q 49.3125 8.734375 54.109375 11.28125 
L 54.109375 2.78125 
Q 49.265625 0.734375 44.1875 -0.34375 
Q 39.109375 -1.421875 33.890625 -1.421875 
Q 20.796875 -1.421875 13.15625 6.1875 
Q 5.515625 13.8125 5.515625 26.8125 
Q 5.515625 40.234375 12.765625 48.109375 
Q 20.015625 56 32.328125 56 
Q 43.359375 56 49.78125 48.890625 
Q 56.203125 41.796875 56.203125 29.59375 
z
M 47.21875 32.234375 
Q 47.125 39.59375 43.09375 43.984375 
Q 39.0625 48.390625 32.421875 48.390625 
Q 24.90625 48.390625 20.390625 44.140625 
Q 15.875 39.890625 15.1875 32.171875 
z
" id="DejaVuSans-101"/>
     <path d="M 45.40625 27.984375 
Q 45.40625 37.75 41.375 43.109375 
Q 37.359375 48.484375 30.078125 48.484375 
Q 22.859375 48.484375 18.828125 43.109375 
Q 14.796875 37.75 14.796875 27.984375 
Q 14.796875 18.265625 18.828125 12.890625 
Q 22.859375 7.515625 30.078125 7.515625 
Q 37.359375 7.515625 41.375 12.890625 
Q 45.40625 18.265625 45.40625 27.984375 
z
M 54.390625 6.78125 
Q 54.390625 -7.171875 48.1875 -13.984375 
Q 42 -20.796875 29.203125 -20.796875 
Q 24.46875 -20.796875 20.265625 -20.09375 
Q 16.0625 -19.390625 12.109375 -17.921875 
L 12.109375 -9.1875 
Q 16.0625 -11.328125 19.921875 -12.34375 
Q 23.78125 -13.375 27.78125 -13.375 
Q 36.625 -13.375 41.015625 -8.765625 
Q 45.40625 -4.15625 45.40625 5.171875 
L 45.40625 9.625 
Q 42.625 4.78125 38.28125 2.390625 
Q 33.9375 0 27.875 0 
Q 17.828125 0 11.671875 7.65625 
Q 5.515625 15.328125 5.515625 27.984375 
Q 5.515625 40.671875 11.671875 48.328125 
Q 17.828125 56 27.875 56 
Q 33.9375 56 38.28125 53.609375 
Q 42.625 51.21875 45.40625 46.390625 
L 45.40625 54.6875 
L 54.390625 54.6875 
z
" id="DejaVuSans-103"/>
     <path d="M 41.109375 46.296875 
Q 39.59375 47.171875 37.8125 47.578125 
Q 36.03125 48 33.890625 48 
Q 26.265625 48 22.1875 43.046875 
Q 18.109375 38.09375 18.109375 28.8125 
L 18.109375 0 
L 9.078125 0 
L 9.078125 54.6875 
L 18.109375 54.6875 
L 18.109375 46.1875 
Q 20.953125 51.171875 25.484375 53.578125 
Q 30.03125 56 36.53125 56 
Q 37.453125 56 38.578125 55.875 
Q 39.703125 55.765625 41.0625 55.515625 
z
" id="DejaVuSans-114"/>
     <path d="M 34.28125 27.484375 
Q 23.390625 27.484375 19.1875 25 
Q 14.984375 22.515625 14.984375 16.5 
Q 14.984375 11.71875 18.140625 8.90625 
Q 21.296875 6.109375 26.703125 6.109375 
Q 34.1875 6.109375 38.703125 11.40625 
Q 43.21875 16.703125 43.21875 25.484375 
L 43.21875 27.484375 
z
M 52.203125 31.203125 
L 52.203125 0 
L 43.21875 0 
L 43.21875 8.296875 
Q 40.140625 3.328125 35.546875 0.953125 
Q 30.953125 -1.421875 24.3125 -1.421875 
Q 15.921875 -1.421875 10.953125 3.296875 
Q 6 8.015625 6 15.921875 
Q 6 25.140625 12.171875 29.828125 
Q 18.359375 34.515625 30.609375 34.515625 
L 43.21875 34.515625 
L 43.21875 35.40625 
Q 43.21875 41.609375 39.140625 45 
Q 35.0625 48.390625 27.6875 48.390625 
Q 23 48.390625 18.546875 47.265625 
Q 14.109375 46.140625 10.015625 43.890625 
L 10.015625 52.203125 
Q 14.9375 54.109375 19.578125 55.046875 
Q 24.21875 56 28.609375 56 
Q 40.484375 56 46.34375 49.84375 
Q 52.203125 43.703125 52.203125 31.203125 
z
" id="DejaVuSans-97"/>
     <path d="M 45.40625 46.390625 
L 45.40625 75.984375 
L 54.390625 75.984375 
L 54.390625 0 
L 45.40625 0 
L 45.40625 8.203125 
Q 42.578125 3.328125 38.25 0.953125 
Q 33.9375 -1.421875 27.875 -1.421875 
Q 17.96875 -1.421875 11.734375 6.484375 
Q 5.515625 14.40625 5.515625 27.296875 
Q 5.515625 40.1875 11.734375 48.09375 
Q 17.96875 56 27.875 56 
Q 33.9375 56 38.25 53.625 
Q 42.578125 51.265625 45.40625 46.390625 
z
M 14.796875 27.296875 
Q 14.796875 17.390625 18.875 11.75 
Q 22.953125 6.109375 30.078125 6.109375 
Q 37.203125 6.109375 41.296875 11.75 
Q 45.40625 17.390625 45.40625 27.296875 
Q 45.40625 37.203125 41.296875 42.84375 
Q 37.203125 48.484375 30.078125 48.484375 
Q 22.953125 48.484375 18.875 42.84375 
Q 14.796875 37.203125 14.796875 27.296875 
z
" id="DejaVuSans-100"/>
     <path d="M 44.28125 53.078125 
L 44.28125 44.578125 
Q 40.484375 46.53125 36.375 47.5 
Q 32.28125 48.484375 27.875 48.484375 
Q 21.1875 48.484375 17.84375 46.4375 
Q 14.5 44.390625 14.5 40.28125 
Q 14.5 37.15625 16.890625 35.375 
Q 19.28125 33.59375 26.515625 31.984375 
L 29.59375 31.296875 
Q 39.15625 29.25 43.1875 25.515625 
Q 47.21875 21.78125 47.21875 15.09375 
Q 47.21875 7.46875 41.1875 3.015625 
Q 35.15625 -1.421875 24.609375 -1.421875 
Q 20.21875 -1.421875 15.453125 -0.5625 
Q 10.6875 0.296875 5.421875 2 
L 5.421875 11.28125 
Q 10.40625 8.6875 15.234375 7.390625 
Q 20.0625 6.109375 24.8125 6.109375 
Q 31.15625 6.109375 34.5625 8.28125 
Q 37.984375 10.453125 37.984375 14.40625 
Q 37.984375 18.0625 35.515625 20.015625 
Q 33.0625 21.96875 24.703125 23.78125 
L 21.578125 24.515625 
Q 13.234375 26.265625 9.515625 29.90625 
Q 5.8125 33.546875 5.8125 39.890625 
Q 5.8125 47.609375 11.28125 51.796875 
Q 16.75 56 26.8125 56 
Q 31.78125 56 36.171875 55.265625 
Q 40.578125 54.546875 44.28125 53.078125 
z
" id="DejaVuSans-115"/>
     <path d="M 54.890625 54.6875 
L 35.109375 28.078125 
L 55.90625 0 
L 45.3125 0 
L 29.390625 21.484375 
L 13.484375 0 
L 2.875 0 
L 24.125 28.609375 
L 4.6875 54.6875 
L 15.28125 54.6875 
L 29.78125 35.203125 
L 44.28125 54.6875 
z
" id="DejaVuSans-120"/>
     <path d="M 8.5 21.578125 
L 8.5 54.6875 
L 17.484375 54.6875 
L 17.484375 21.921875 
Q 17.484375 14.15625 20.5 10.265625 
Q 23.53125 6.390625 29.59375 6.390625 
Q 36.859375 6.390625 41.078125 11.03125 
Q 45.3125 15.671875 45.3125 23.6875 
L 45.3125 54.6875 
L 54.296875 54.6875 
L 54.296875 0 
L 45.3125 0 
L 45.3125 8.40625 
Q 42.046875 3.421875 37.71875 1 
Q 33.40625 -1.421875 27.6875 -1.421875 
Q 18.265625 -1.421875 13.375 4.4375 
Q 8.5 10.296875 8.5 21.578125 
z
M 31.109375 56 
z
" id="DejaVuSans-117"/>
     <path d="M 18.109375 8.203125 
L 18.109375 -20.796875 
L 9.078125 -20.796875 
L 9.078125 54.6875 
L 18.109375 54.6875 
L 18.109375 46.390625 
Q 20.953125 51.265625 25.265625 53.625 
Q 29.59375 56 35.59375 56 
Q 45.5625 56 51.78125 48.09375 
Q 58.015625 40.1875 58.015625 27.296875 
Q 58.015625 14.40625 51.78125 6.484375 
Q 45.5625 -1.421875 35.59375 -1.421875 
Q 29.59375 -1.421875 25.265625 0.953125 
Q 20.953125 3.328125 18.109375 8.203125 
z
M 48.6875 27.296875 
Q 48.6875 37.203125 44.609375 42.84375 
Q 40.53125 48.484375 33.40625 48.484375 
Q 26.265625 48.484375 22.1875 42.84375 
Q 18.109375 37.203125 18.109375 27.296875 
Q 18.109375 17.390625 22.1875 11.75 
Q 26.265625 6.109375 33.40625 6.109375 
Q 40.53125 6.109375 44.609375 11.75 
Q 48.6875 17.390625 48.6875 27.296875 
z
" id="DejaVuSans-112"/>
     <path d="M 30.609375 48.390625 
Q 23.390625 48.390625 19.1875 42.75 
Q 14.984375 37.109375 14.984375 27.296875 
Q 14.984375 17.484375 19.15625 11.84375 
Q 23.34375 6.203125 30.609375 6.203125 
Q 37.796875 6.203125 41.984375 11.859375 
Q 46.1875 17.53125 46.1875 27.296875 
Q 46.1875 37.015625 41.984375 42.703125 
Q 37.796875 48.390625 30.609375 48.390625 
z
M 30.609375 56 
Q 42.328125 56 49.015625 48.375 
Q 55.71875 40.765625 55.71875 27.296875 
Q 55.71875 13.875 49.015625 6.21875 
Q 42.328125 -1.421875 30.609375 -1.421875 
Q 18.84375 -1.421875 12.171875 6.21875 
Q 5.515625 13.875 5.515625 27.296875 
Q 5.515625 40.765625 12.171875 48.375 
Q 18.84375 56 30.609375 56 
z
" id="DejaVuSans-111"/>
     <path d="M 9.421875 75.984375 
L 18.40625 75.984375 
L 18.40625 0 
L 9.421875 0 
z
" id="DejaVuSans-108"/>
     <path d="M 34.1875 63.1875 
L 20.796875 26.90625 
L 47.609375 26.90625 
z
M 28.609375 72.90625 
L 39.796875 72.90625 
L 67.578125 0 
L 57.328125 0 
L 50.6875 18.703125 
L 17.828125 18.703125 
L 11.1875 0 
L 0.78125 0 
z
" id="DejaVuSans-65"/>
    </defs>
    <g transform="translate(601.099 31.68)scale(0.192 -0.192)">
     <use xlink:href="#DejaVuSans-66"/>
     <use x="68.603516" xlink:href="#DejaVuSans-50"/>
     <use x="132.226562" xlink:href="#DejaVuSans-32"/>
     <use x="164.013672" xlink:href="#DejaVuSans-105"/>
     <use x="191.796875" xlink:href="#DejaVuSans-110"/>
     <use x="255.175781" xlink:href="#DejaVuSans-116"/>
     <use x="294.384766" xlink:href="#DejaVuSans-101"/>
     <use x="355.908203" xlink:href="#DejaVuSans-103"/>
     <use x="419.384766" xlink:href="#DejaVuSans-114"/>
     <use x="460.498047" xlink:href="#DejaVuSans-97"/>
     <use x="521.777344" xlink:href="#DejaVuSans-116"/>
     <use x="560.986328" xlink:href="#DejaVuSans-101"/>
     <use x="622.509766" xlink:href="#DejaVuSans-100"/>
     <use x="685.986328" xlink:href="#DejaVuSans-32"/>
     <use x="717.773438" xlink:href="#DejaVuSans-115"/>
     <use x="769.873047" xlink:href="#DejaVuSans-101"/>
     <use x="831.380859" xlink:href="#DejaVuSans-120"/>
     <use x="890.560547" xlink:href="#DejaVuSans-116"/>
     <use x="929.769531" xlink:href="#DejaVuSans-117"/>
     <use x="993.148438" xlink:href="#DejaVuSans-112"/>
     <use x="1056.625" xlink:href="#DejaVuSans-111"/>
     <use x="1117.806641" xlink:href="#DejaVuSans-108"/>
     <use x="1145.589844" xlink:href="#DejaVuSans-101"/>
     <use x="1207.113281" xlink:href="#DejaVuSans-32"/>
     <use x="1238.900391" xlink:href="#DejaVuSans-97"/>
     <use x="1300.179688" xlink:href="#DejaVuSans-116"/>
     <use x="1339.388672" xlink:href="#DejaVuSans-32"/>
     <use x="1371.175781" xlink:href="#DejaVuSans-52"/>
     <use x="1434.798828" xlink:href="#DejaVuSans-48"/>
     <use x="1498.421875" xlink:href="#DejaVuSans-49"/>
     <use x="1562.044922" xlink:href="#DejaVuSans-46"/>
     <use x="1593.832031" xlink:href="#DejaVuSans-56"/>
     <use x="1657.455078" xlink:href="#DejaVuSans-32"/>
     <use x="1689.242188" xlink:href="#DejaVuSans-65"/>
    </g>
   </g>
  </g>
  <g id="axes_2">
   <g id="matplotlib.axis_3">
    <g id="ytick_7">
     <g id="line2d_101">
      <path clip-path="url(#p5b76feee0a)" d="M 91.82 557.93335 
L 1447.848 557.93335 
" style="fill:none;stroke:#b0b0b0;stroke-linecap:square;stroke-width:0.8;"/>
     </g>
     <g id="line2d_102">
      <defs>
       <path d="M 0 0 
L 3.5 0 
" id="mc183e36a3c" style="stroke:#000000;stroke-width:0.8;"/>
      </defs>
      <g>
       <use style="stroke:#000000;stroke-width:0.8;" x="1447.848" xlink:href="#mc183e36a3c" y="557.93335"/>
      </g>
     </g>
     <g id="text_50">
      <!-- −30 -->
      <g transform="translate(1454.848 564.0121)scale(0.16 -0.16)">
       <use xlink:href="#DejaVuSans-8722"/>
       <use x="83.789062" xlink:href="#DejaVuSans-51"/>
       <use x="147.412109" xlink:href="#DejaVuSans-48"/>
      </g>
     </g>
    </g>
    <g id="ytick_8">
     <g id="line2d_103">
      <path clip-path="url(#p5b76feee0a)" d="M 91.82 475.729673 
L 1447.848 475.729673 
" style="fill:none;stroke:#b0b0b0;stroke-linecap:square;stroke-width:0.8;"/>
     </g>
     <g id="line2d_104">
      <g>
       <use style="stroke:#000000;stroke-width:0.8;" x="1447.848" xlink:href="#mc183e36a3c" y="475.729673"/>
      </g>
     </g>
     <g id="text_51">
      <!-- −20 -->
      <g transform="translate(1454.848 481.808423)scale(0.16 -0.16)">
       <use xlink:href="#DejaVuSans-8722"/>
       <use x="83.789062" xlink:href="#DejaVuSans-50"/>
       <use x="147.412109" xlink:href="#DejaVuSans-48"/>
      </g>
     </g>
    </g>
    <g id="ytick_9">
     <g id="line2d_105">
      <path clip-path="url(#p5b76feee0a)" d="M 91.82 393.525996 
L 1447.848 393.525996 
" style="fill:none;stroke:#b0b0b0;stroke-linecap:square;stroke-width:0.8;"/>
     </g>
     <g id="line2d_106">
      <g>
       <use style="stroke:#000000;stroke-width:0.8;" x="1447.848" xlink:href="#mc183e36a3c" y="393.525996"/>
      </g>
     </g>
     <g id="text_52">
      <!-- −10 -->
      <g transform="translate(1454.848 399.604746)scale(0.16 -0.16)">
       <use xlink:href="#DejaVuSans-8722"/>
       <use x="83.789062" xlink:href="#DejaVuSans-49"/>
       <use x="147.412109" xlink:href="#DejaVuSans-48"/>
      </g>
     </g>
    </g>
    <g id="ytick_10">
     <g id="line2d_107">
      <path clip-path="url(#p5b76feee0a)" d="M 91.82 311.322319 
L 1447.848 311.322319 
" style="fill:none;stroke:#b0b0b0;stroke-linecap:square;stroke-width:0.8;"/>
     </g>
     <g id="line2d_108">
      <g>
       <use style="stroke:#000000;stroke-width:0.8;" x="1447.848" xlink:href="#mc183e36a3c" y="311.322319"/>
      </g>
     </g>
     <g id="text_53">
      <!-- 0 -->
      <g transform="translate(1454.848 317.401069)scale(0.16 -0.16)">
       <use xlink:href="#DejaVuSans-48"/>
      </g>
     </g>
    </g>
    <g id="ytick_11">
     <g id="line2d_109">
      <path clip-path="url(#p5b76feee0a)" d="M 91.82 229.118642 
L 1447.848 229.118642 
" style="fill:none;stroke:#b0b0b0;stroke-linecap:square;stroke-width:0.8;"/>
     </g>
     <g id="line2d_110">
      <g>
       <use style="stroke:#000000;stroke-width:0.8;" x="1447.848" xlink:href="#mc183e36a3c" y="229.118642"/>
      </g>
     </g>
     <g id="text_54">
      <!-- 10 -->
      <g transform="translate(1454.848 235.197392)scale(0.16 -0.16)">
       <use xlink:href="#DejaVuSans-49"/>
       <use x="63.623047" xlink:href="#DejaVuSans-48"/>
      </g>
     </g>
    </g>
    <g id="ytick_12">
     <g id="line2d_111">
      <path clip-path="url(#p5b76feee0a)" d="M 91.82 146.914964 
L 1447.848 146.914964 
" style="fill:none;stroke:#b0b0b0;stroke-linecap:square;stroke-width:0.8;"/>
     </g>
     <g id="line2d_112">
      <g>
       <use style="stroke:#000000;stroke-width:0.8;" x="1447.848" xlink:href="#mc183e36a3c" y="146.914964"/>
      </g>
     </g>
     <g id="text_55">
      <!-- 20 -->
      <g transform="translate(1454.848 152.993714)scale(0.16 -0.16)">
       <use xlink:href="#DejaVuSans-50"/>
       <use x="63.623047" xlink:href="#DejaVuSans-48"/>
      </g>
     </g>
    </g>
    <g id="ytick_13">
     <g id="line2d_113">
      <path clip-path="url(#p5b76feee0a)" d="M 91.82 64.711287 
L 1447.848 64.711287 
" style="fill:none;stroke:#b0b0b0;stroke-linecap:square;stroke-width:0.8;"/>
     </g>
     <g id="line2d_114">
      <g>
       <use style="stroke:#000000;stroke-width:0.8;" x="1447.848" xlink:href="#mc183e36a3c" y="64.711287"/>
      </g>
     </g>
     <g id="text_56">
      <!-- 30 -->
      <g transform="translate(1454.848 70.790037)scale(0.16 -0.16)">
       <use xlink:href="#DejaVuSans-51"/>
       <use x="63.623047" xlink:href="#DejaVuSans-48"/>
      </g>
     </g>
    </g>
    <g id="text_57">
     <!-- SL error [%] -->
     <defs>
      <path d="M 72.703125 32.078125 
Q 68.453125 32.078125 66.03125 28.46875 
Q 63.625 24.859375 63.625 18.40625 
Q 63.625 12.0625 66.03125 8.421875 
Q 68.453125 4.78125 72.703125 4.78125 
Q 76.859375 4.78125 79.265625 8.421875 
Q 81.6875 12.0625 81.6875 18.40625 
Q 81.6875 24.8125 79.265625 28.4375 
Q 76.859375 32.078125 72.703125 32.078125 
z
M 72.703125 38.28125 
Q 80.421875 38.28125 84.953125 32.90625 
Q 89.5 27.546875 89.5 18.40625 
Q 89.5 9.28125 84.9375 3.921875 
Q 80.375 -1.421875 72.703125 -1.421875 
Q 64.890625 -1.421875 60.34375 3.921875 
Q 55.8125 9.28125 55.8125 18.40625 
Q 55.8125 27.59375 60.375 32.9375 
Q 64.9375 38.28125 72.703125 38.28125 
z
M 22.3125 68.015625 
Q 18.109375 68.015625 15.6875 64.375 
Q 13.28125 60.75 13.28125 54.390625 
Q 13.28125 47.953125 15.671875 44.328125 
Q 18.0625 40.71875 22.3125 40.71875 
Q 26.5625 40.71875 28.96875 44.328125 
Q 31.390625 47.953125 31.390625 54.390625 
Q 31.390625 60.6875 28.953125 64.34375 
Q 26.515625 68.015625 22.3125 68.015625 
z
M 66.40625 74.21875 
L 74.21875 74.21875 
L 28.609375 -1.421875 
L 20.796875 -1.421875 
z
M 22.3125 74.21875 
Q 30.03125 74.21875 34.609375 68.875 
Q 39.203125 63.53125 39.203125 54.390625 
Q 39.203125 45.171875 34.640625 39.84375 
Q 30.078125 34.515625 22.3125 34.515625 
Q 14.546875 34.515625 10.03125 39.859375 
Q 5.515625 45.21875 5.515625 54.390625 
Q 5.515625 63.484375 10.046875 68.84375 
Q 14.59375 74.21875 22.3125 74.21875 
z
" id="DejaVuSans-37"/>
     </defs>
     <g transform="translate(1489.93162 253.665)rotate(-270)scale(0.16 -0.16)">
      <use xlink:href="#DejaVuSans-83"/>
      <use x="63.476562" xlink:href="#DejaVuSans-76"/>
      <use x="119.189453" xlink:href="#DejaVuSans-32"/>
      <use x="150.976562" xlink:href="#DejaVuSans-101"/>
      <use x="212.5" xlink:href="#DejaVuSans-114"/>
      <use x="253.597656" xlink:href="#DejaVuSans-114"/>
      <use x="294.679688" xlink:href="#DejaVuSans-111"/>
      <use x="355.861328" xlink:href="#DejaVuSans-114"/>
      <use x="396.974609" xlink:href="#DejaVuSans-32"/>
      <use x="428.761719" xlink:href="#DejaVuSans-91"/>
      <use x="467.775391" xlink:href="#DejaVuSans-37"/>
      <use x="562.794922" xlink:href="#DejaVuSans-93"/>
     </g>
    </g>
   </g>
   <g id="line2d_115">
    <path clip-path="url(#p5b76feee0a)" d="M 153.457636 228.035242 
L 184.276455 541.928182 
L 215.095273 246.89596 
L 245.914091 245.735172 
L 276.732909 228.928799 
L 307.551727 312.559815 
L 338.370545 295.98727 
L 369.189364 352.623703 
L 400.008182 316.029653 
L 430.827 224.293998 
L 461.645818 106.098222 
L 492.464636 362.214818 
L 523.283455 264.366236 
L 554.102273 378.699678 
L 584.921091 327.470513 
L 615.739909 223.972484 
L 646.558727 392.817031 
L 677.377545 181.07761 
L 708.196364 228.824411 
L 739.015182 292.521608 
L 769.834 267.167994 
L 800.652818 453.616434 
L 831.471636 264.144935 
L 862.290455 316.914858 
L 893.109273 387.835664 
L 923.928091 411.318655 
L 954.746909 264.921577 
L 985.565727 217.592326 
L 1016.384545 485.475471 
L 1047.203364 141.6651 
L 1078.022182 224.1061 
L 1108.841 293.962155 
L 1139.659818 373.066933 
L 1170.478636 61.691818 
L 1201.297455 288.016248 
L 1232.116273 305.428068 
L 1262.935091 323.077891 
L 1293.753909 352.577773 
L 1324.572727 279.740414 
L 1355.391545 184.635133 
L 1386.210364 311.348921 
" style="fill:none;stroke:#008000;stroke-linecap:square;stroke-width:1.5;"/>
    <defs>
     <path d="M 0 3 
C 0.795609 3 1.55874 2.683901 2.12132 2.12132 
C 2.683901 1.55874 3 0.795609 3 0 
C 3 -0.795609 2.683901 -1.55874 2.12132 -2.12132 
C 1.55874 -2.683901 0.795609 -3 0 -3 
C -0.795609 -3 -1.55874 -2.683901 -2.12132 -2.12132 
C -2.683901 -1.55874 -3 -0.795609 -3 0 
C -3 0.795609 -2.683901 1.55874 -2.12132 2.12132 
C -1.55874 2.683901 -0.795609 3 0 3 
z
" id="m814ad709f1" style="stroke:#008000;"/>
    </defs>
    <g clip-path="url(#p5b76feee0a)">
     <use style="fill:#008000;stroke:#008000;" x="153.457636" xlink:href="#m814ad709f1" y="228.035242"/>
     <use style="fill:#008000;stroke:#008000;" x="184.276455" xlink:href="#m814ad709f1" y="541.928182"/>
     <use style="fill:#008000;stroke:#008000;" x="215.095273" xlink:href="#m814ad709f1" y="246.89596"/>
     <use style="fill:#008000;stroke:#008000;" x="245.914091" xlink:href="#m814ad709f1" y="245.735172"/>
     <use style="fill:#008000;stroke:#008000;" x="276.732909" xlink:href="#m814ad709f1" y="228.928799"/>
     <use style="fill:#008000;stroke:#008000;" x="307.551727" xlink:href="#m814ad709f1" y="312.559815"/>
     <use style="fill:#008000;stroke:#008000;" x="338.370545" xlink:href="#m814ad709f1" y="295.98727"/>
     <use style="fill:#008000;stroke:#008000;" x="369.189364" xlink:href="#m814ad709f1" y="352.623703"/>
     <use style="fill:#008000;stroke:#008000;" x="400.008182" xlink:href="#m814ad709f1" y="316.029653"/>
     <use style="fill:#008000;stroke:#008000;" x="430.827" xlink:href="#m814ad709f1" y="224.293998"/>
     <use style="fill:#008000;stroke:#008000;" x="461.645818" xlink:href="#m814ad709f1" y="106.098222"/>
     <use style="fill:#008000;stroke:#008000;" x="492.464636" xlink:href="#m814ad709f1" y="362.214818"/>
     <use style="fill:#008000;stroke:#008000;" x="523.283455" xlink:href="#m814ad709f1" y="264.366236"/>
     <use style="fill:#008000;stroke:#008000;" x="554.102273" xlink:href="#m814ad709f1" y="378.699678"/>
     <use style="fill:#008000;stroke:#008000;" x="584.921091" xlink:href="#m814ad709f1" y="327.470513"/>
     <use style="fill:#008000;stroke:#008000;" x="615.739909" xlink:href="#m814ad709f1" y="223.972484"/>
     <use style="fill:#008000;stroke:#008000;" x="646.558727" xlink:href="#m814ad709f1" y="392.817031"/>
     <use style="fill:#008000;stroke:#008000;" x="677.377545" xlink:href="#m814ad709f1" y="181.07761"/>
     <use style="fill:#008000;stroke:#008000;" x="708.196364" xlink:href="#m814ad709f1" y="228.824411"/>
     <use style="fill:#008000;stroke:#008000;" x="739.015182" xlink:href="#m814ad709f1" y="292.521608"/>
     <use style="fill:#008000;stroke:#008000;" x="769.834" xlink:href="#m814ad709f1" y="267.167994"/>
     <use style="fill:#008000;stroke:#008000;" x="800.652818" xlink:href="#m814ad709f1" y="453.616434"/>
     <use style="fill:#008000;stroke:#008000;" x="831.471636" xlink:href="#m814ad709f1" y="264.144935"/>
     <use style="fill:#008000;stroke:#008000;" x="862.290455" xlink:href="#m814ad709f1" y="316.914858"/>
     <use style="fill:#008000;stroke:#008000;" x="893.109273" xlink:href="#m814ad709f1" y="387.835664"/>
     <use style="fill:#008000;stroke:#008000;" x="923.928091" xlink:href="#m814ad709f1" y="411.318655"/>
     <use style="fill:#008000;stroke:#008000;" x="954.746909" xlink:href="#m814ad709f1" y="264.921577"/>
     <use style="fill:#008000;stroke:#008000;" x="985.565727" xlink:href="#m814ad709f1" y="217.592326"/>
     <use style="fill:#008000;stroke:#008000;" x="1016.384545" xlink:href="#m814ad709f1" y="485.475471"/>
     <use style="fill:#008000;stroke:#008000;" x="1047.203364" xlink:href="#m814ad709f1" y="141.6651"/>
     <use style="fill:#008000;stroke:#008000;" x="1078.022182" xlink:href="#m814ad709f1" y="224.1061"/>
     <use style="fill:#008000;stroke:#008000;" x="1108.841" xlink:href="#m814ad709f1" y="293.962155"/>
     <use style="fill:#008000;stroke:#008000;" x="1139.659818" xlink:href="#m814ad709f1" y="373.066933"/>
     <use style="fill:#008000;stroke:#008000;" x="1170.478636" xlink:href="#m814ad709f1" y="61.691818"/>
     <use style="fill:#008000;stroke:#008000;" x="1201.297455" xlink:href="#m814ad709f1" y="288.016248"/>
     <use style="fill:#008000;stroke:#008000;" x="1232.116273" xlink:href="#m814ad709f1" y="305.428068"/>
     <use style="fill:#008000;stroke:#008000;" x="1262.935091" xlink:href="#m814ad709f1" y="323.077891"/>
     <use style="fill:#008000;stroke:#008000;" x="1293.753909" xlink:href="#m814ad709f1" y="352.577773"/>
     <use style="fill:#008000;stroke:#008000;" x="1324.572727" xlink:href="#m814ad709f1" y="279.740414"/>
     <use style="fill:#008000;stroke:#008000;" x="1355.391545" xlink:href="#m814ad709f1" y="184.635133"/>
     <use style="fill:#008000;stroke:#008000;" x="1386.210364" xlink:href="#m814ad709f1" y="311.348921"/>
    </g>
   </g>
   <g id="line2d_116">
    <path clip-path="url(#p5b76feee0a)" d="M 153.457636 291.692314 
L 184.276455 291.692314 
L 215.095273 291.692314 
L 245.914091 291.692314 
L 276.732909 291.692314 
L 307.551727 291.692314 
L 338.370545 291.692314 
L 369.189364 291.692314 
L 400.008182 291.692314 
L 430.827 291.692314 
L 461.645818 291.692314 
L 492.464636 291.692314 
L 523.283455 291.692314 
L 554.102273 291.692314 
L 584.921091 291.692314 
L 615.739909 291.692314 
L 646.558727 291.692314 
L 677.377545 291.692314 
L 708.196364 291.692314 
L 739.015182 291.692314 
L 769.834 291.692314 
L 800.652818 291.692314 
L 831.471636 291.692314 
L 862.290455 291.692314 
L 893.109273 291.692314 
L 923.928091 291.692314 
L 954.746909 291.692314 
L 985.565727 291.692314 
L 1016.384545 291.692314 
L 1047.203364 291.692314 
L 1078.022182 291.692314 
L 1108.841 291.692314 
L 1139.659818 291.692314 
L 1170.478636 291.692314 
L 1201.297455 291.692314 
L 1232.116273 291.692314 
L 1262.935091 291.692314 
L 1293.753909 291.692314 
L 1324.572727 291.692314 
L 1355.391545 291.692314 
L 1386.210364 291.692314 
" style="fill:none;stroke:#008000;stroke-linecap:square;stroke-width:1.5;"/>
   </g>
   <g id="line2d_117">
    <path clip-path="url(#p5b76feee0a)" d="M 153.457636 197.590209 
L 184.276455 197.590209 
L 215.095273 197.590209 
L 245.914091 197.590209 
L 276.732909 197.590209 
L 307.551727 197.590209 
L 338.370545 197.590209 
L 369.189364 197.590209 
L 400.008182 197.590209 
L 430.827 197.590209 
L 461.645818 197.590209 
L 492.464636 197.590209 
L 523.283455 197.590209 
L 554.102273 197.590209 
L 584.921091 197.590209 
L 615.739909 197.590209 
L 646.558727 197.590209 
L 677.377545 197.590209 
L 708.196364 197.590209 
L 739.015182 197.590209 
L 769.834 197.590209 
L 800.652818 197.590209 
L 831.471636 197.590209 
L 862.290455 197.590209 
L 893.109273 197.590209 
L 923.928091 197.590209 
L 954.746909 197.590209 
L 985.565727 197.590209 
L 1016.384545 197.590209 
L 1047.203364 197.590209 
L 1078.022182 197.590209 
L 1108.841 197.590209 
L 1139.659818 197.590209 
L 1170.478636 197.590209 
L 1201.297455 197.590209 
L 1232.116273 197.590209 
L 1262.935091 197.590209 
L 1293.753909 197.590209 
L 1324.572727 197.590209 
L 1355.391545 197.590209 
L 1386.210364 197.590209 
" style="fill:none;stroke:#008000;stroke-dasharray:5.55,2.4;stroke-dashoffset:0;stroke-width:1.5;"/>
   </g>
   <g id="line2d_118">
    <path clip-path="url(#p5b76feee0a)" d="M 153.457636 385.794419 
L 184.276455 385.794419 
L 215.095273 385.794419 
L 245.914091 385.794419 
L 276.732909 385.794419 
L 307.551727 385.794419 
L 338.370545 385.794419 
L 369.189364 385.794419 
L 400.008182 385.794419 
L 430.827 385.794419 
L 461.645818 385.794419 
L 492.464636 385.794419 
L 523.283455 385.794419 
L 554.102273 385.794419 
L 584.921091 385.794419 
L 615.739909 385.794419 
L 646.558727 385.794419 
L 677.377545 385.794419 
L 708.196364 385.794419 
L 739.015182 385.794419 
L 769.834 385.794419 
L 800.652818 385.794419 
L 831.471636 385.794419 
L 862.290455 385.794419 
L 893.109273 385.794419 
L 923.928091 385.794419 
L 954.746909 385.794419 
L 985.565727 385.794419 
L 1016.384545 385.794419 
L 1047.203364 385.794419 
L 1078.022182 385.794419 
L 1108.841 385.794419 
L 1139.659818 385.794419 
L 1170.478636 385.794419 
L 1201.297455 385.794419 
L 1232.116273 385.794419 
L 1262.935091 385.794419 
L 1293.753909 385.794419 
L 1324.572727 385.794419 
L 1355.391545 385.794419 
L 1386.210364 385.794419 
" style="fill:none;stroke:#008000;stroke-dasharray:5.55,2.4;stroke-dashoffset:0;stroke-width:1.5;"/>
   </g>
   <g id="patch_7">
    <path d="M 91.82 565.94 
L 91.82 37.68 
" style="fill:none;stroke:#000000;stroke-linecap:square;stroke-linejoin:miter;stroke-width:0.8;"/>
   </g>
   <g id="patch_8">
    <path d="M 1447.848 565.94 
L 1447.848 37.68 
" style="fill:none;stroke:#000000;stroke-linecap:square;stroke-linejoin:miter;stroke-width:0.8;"/>
   </g>
   <g id="patch_9">
    <path d="M 91.82 565.94 
L 1447.848 565.94 
" style="fill:none;stroke:#000000;stroke-linecap:square;stroke-linejoin:miter;stroke-width:0.8;"/>
   </g>
   <g id="patch_10">
    <path d="M 91.82 37.68 
L 1447.848 37.68 
" style="fill:none;stroke:#000000;stroke-linecap:square;stroke-linejoin:miter;stroke-width:0.8;"/>
   </g>
  </g>
 </g>
 <defs>
  <clipPath id="p5b76feee0a">
   <rect height="528.26" width="1356.028" x="91.82" y="37.68"/>
  </clipPath>
 </defs>
</svg>
