<?xml version="1.0" encoding="utf-8" standalone="no"?>
<!DOCTYPE svg PUBLIC "-//W3C//DTD SVG 1.1//EN"
  "http://www.w3.org/Graphics/SVG/1.1/DTD/svg11.dtd">
<!-- Created with matplotlib (https://matplotlib.org/) -->
<svg height="413.28pt" version="1.1" viewBox="0 0 1380.96 413.28" width="1380.96pt" xmlns="http://www.w3.org/2000/svg" xmlns:xlink="http://www.w3.org/1999/xlink">
 <defs>
  <style type="text/css">
*{stroke-linecap:butt;stroke-linejoin:round;}
  </style>
 </defs>
 <g id="figure_1">
  <g id="patch_1">
   <path d="M 0 413.28 
L 1380.96 413.28 
L 1380.96 0 
L 0 0 
z
" style="fill:#ffffff;"/>
  </g>
  <g id="axes_1">
   <g id="patch_2">
    <path d="M 172.62 367.8192 
L 1242.864 367.8192 
L 1242.864 49.5936 
L 172.62 49.5936 
z
" style="fill:#ffffff;"/>
   </g>
   <g id="matplotlib.axis_1">
    <g id="xtick_1">
     <g id="line2d_1">
      <path clip-path="url(#pb7589a1154)" d="M 221.267455 367.8192 
L 221.267455 49.5936 
" style="fill:none;stroke:#b0b0b0;stroke-linecap:square;stroke-width:0.8;"/>
     </g>
     <g id="line2d_2">
      <defs>
       <path d="M 0 0 
L 0 3.5 
" id="m64025601b6" style="stroke:#000000;stroke-width:0.8;"/>
      </defs>
      <g>
       <use style="stroke:#000000;stroke-width:0.8;" x="221.267455" xlink:href="#m64025601b6" y="367.8192"/>
      </g>
     </g>
     <g id="text_1">
      <!-- 081 -->
      <defs>
       <path d="M 31.78125 66.40625 
Q 24.171875 66.40625 20.328125 58.90625 
Q 16.5 51.421875 16.5 36.375 
Q 16.5 21.390625 20.328125 13.890625 
Q 24.171875 6.390625 31.78125 6.390625 
Q 39.453125 6.390625 43.28125 13.890625 
Q 47.125 21.390625 47.125 36.375 
Q 47.125 51.421875 43.28125 58.90625 
Q 39.453125 66.40625 31.78125 66.40625 
z
M 31.78125 74.21875 
Q 44.046875 74.21875 50.515625 64.515625 
Q 56.984375 54.828125 56.984375 36.375 
Q 56.984375 17.96875 50.515625 8.265625 
Q 44.046875 -1.421875 31.78125 -1.421875 
Q 19.53125 -1.421875 13.0625 8.265625 
Q 6.59375 17.96875 6.59375 36.375 
Q 6.59375 54.828125 13.0625 64.515625 
Q 19.53125 74.21875 31.78125 74.21875 
z
" id="DejaVuSans-48"/>
       <path d="M 31.78125 34.625 
Q 24.75 34.625 20.71875 30.859375 
Q 16.703125 27.09375 16.703125 20.515625 
Q 16.703125 13.921875 20.71875 10.15625 
Q 24.75 6.390625 31.78125 6.390625 
Q 38.8125 6.390625 42.859375 10.171875 
Q 46.921875 13.96875 46.921875 20.515625 
Q 46.921875 27.09375 42.890625 30.859375 
Q 38.875 34.625 31.78125 34.625 
z
M 21.921875 38.8125 
Q 15.578125 40.375 12.03125 44.71875 
Q 8.5 49.078125 8.5 55.328125 
Q 8.5 64.0625 14.71875 69.140625 
Q 20.953125 74.21875 31.78125 74.21875 
Q 42.671875 74.21875 48.875 69.140625 
Q 55.078125 64.0625 55.078125 55.328125 
Q 55.078125 49.078125 51.53125 44.71875 
Q 48 40.375 41.703125 38.8125 
Q 48.828125 37.15625 52.796875 32.3125 
Q 56.78125 27.484375 56.78125 20.515625 
Q 56.78125 9.90625 50.3125 4.234375 
Q 43.84375 -1.421875 31.78125 -1.421875 
Q 19.734375 -1.421875 13.25 4.234375 
Q 6.78125 9.90625 6.78125 20.515625 
Q 6.78125 27.484375 10.78125 32.3125 
Q 14.796875 37.15625 21.921875 38.8125 
z
M 18.3125 54.390625 
Q 18.3125 48.734375 21.84375 45.5625 
Q 25.390625 42.390625 31.78125 42.390625 
Q 38.140625 42.390625 41.71875 45.5625 
Q 45.3125 48.734375 45.3125 54.390625 
Q 45.3125 60.0625 41.71875 63.234375 
Q 38.140625 66.40625 31.78125 66.40625 
Q 25.390625 66.40625 21.84375 63.234375 
Q 18.3125 60.0625 18.3125 54.390625 
z
" id="DejaVuSans-56"/>
       <path d="M 12.40625 8.296875 
L 28.515625 8.296875 
L 28.515625 63.921875 
L 10.984375 60.40625 
L 10.984375 69.390625 
L 28.421875 72.90625 
L 38.28125 72.90625 
L 38.28125 8.296875 
L 54.390625 8.296875 
L 54.390625 0 
L 12.40625 0 
z
" id="DejaVuSans-49"/>
      </defs>
      <g transform="translate(224.02683 393.9067)rotate(-90)scale(0.1 -0.1)">
       <use xlink:href="#DejaVuSans-48"/>
       <use x="63.623047" xlink:href="#DejaVuSans-56"/>
       <use x="127.246094" xlink:href="#DejaVuSans-49"/>
      </g>
     </g>
    </g>
    <g id="xtick_2">
     <g id="line2d_3">
      <path clip-path="url(#pb7589a1154)" d="M 235.368166 367.8192 
L 235.368166 49.5936 
" style="fill:none;stroke:#b0b0b0;stroke-linecap:square;stroke-width:0.8;"/>
     </g>
     <g id="line2d_4">
      <g>
       <use style="stroke:#000000;stroke-width:0.8;" x="235.368166" xlink:href="#m64025601b6" y="367.8192"/>
      </g>
     </g>
     <g id="text_2">
      <!-- 077 -->
      <defs>
       <path d="M 8.203125 72.90625 
L 55.078125 72.90625 
L 55.078125 68.703125 
L 28.609375 0 
L 18.3125 0 
L 43.21875 64.59375 
L 8.203125 64.59375 
z
" id="DejaVuSans-55"/>
      </defs>
      <g transform="translate(238.127541 393.9067)rotate(-90)scale(0.1 -0.1)">
       <use xlink:href="#DejaVuSans-48"/>
       <use x="63.623047" xlink:href="#DejaVuSans-55"/>
       <use x="127.246094" xlink:href="#DejaVuSans-55"/>
      </g>
     </g>
    </g>
    <g id="xtick_3">
     <g id="line2d_5">
      <path clip-path="url(#pb7589a1154)" d="M 249.468877 367.8192 
L 249.468877 49.5936 
" style="fill:none;stroke:#b0b0b0;stroke-linecap:square;stroke-width:0.8;"/>
     </g>
     <g id="line2d_6">
      <g>
       <use style="stroke:#000000;stroke-width:0.8;" x="249.468877" xlink:href="#m64025601b6" y="367.8192"/>
      </g>
     </g>
     <g id="text_3">
      <!-- 028 -->
      <defs>
       <path d="M 19.1875 8.296875 
L 53.609375 8.296875 
L 53.609375 0 
L 7.328125 0 
L 7.328125 8.296875 
Q 12.9375 14.109375 22.625 23.890625 
Q 32.328125 33.6875 34.8125 36.53125 
Q 39.546875 41.84375 41.421875 45.53125 
Q 43.3125 49.21875 43.3125 52.78125 
Q 43.3125 58.59375 39.234375 62.25 
Q 35.15625 65.921875 28.609375 65.921875 
Q 23.96875 65.921875 18.8125 64.3125 
Q 13.671875 62.703125 7.8125 59.421875 
L 7.8125 69.390625 
Q 13.765625 71.78125 18.9375 73 
Q 24.125 74.21875 28.421875 74.21875 
Q 39.75 74.21875 46.484375 68.546875 
Q 53.21875 62.890625 53.21875 53.421875 
Q 53.21875 48.921875 51.53125 44.890625 
Q 49.859375 40.875 45.40625 35.40625 
Q 44.1875 33.984375 37.640625 27.21875 
Q 31.109375 20.453125 19.1875 8.296875 
z
" id="DejaVuSans-50"/>
      </defs>
      <g transform="translate(252.228252 393.9067)rotate(-90)scale(0.1 -0.1)">
       <use xlink:href="#DejaVuSans-48"/>
       <use x="63.623047" xlink:href="#DejaVuSans-50"/>
       <use x="127.246094" xlink:href="#DejaVuSans-56"/>
      </g>
     </g>
    </g>
    <g id="xtick_4">
     <g id="line2d_7">
      <path clip-path="url(#pb7589a1154)" d="M 263.569589 367.8192 
L 263.569589 49.5936 
" style="fill:none;stroke:#b0b0b0;stroke-linecap:square;stroke-width:0.8;"/>
     </g>
     <g id="line2d_8">
      <g>
       <use style="stroke:#000000;stroke-width:0.8;" x="263.569589" xlink:href="#m64025601b6" y="367.8192"/>
      </g>
     </g>
     <g id="text_4">
      <!-- 059 -->
      <defs>
       <path d="M 10.796875 72.90625 
L 49.515625 72.90625 
L 49.515625 64.59375 
L 19.828125 64.59375 
L 19.828125 46.734375 
Q 21.96875 47.46875 24.109375 47.828125 
Q 26.265625 48.1875 28.421875 48.1875 
Q 40.625 48.1875 47.75 41.5 
Q 54.890625 34.8125 54.890625 23.390625 
Q 54.890625 11.625 47.5625 5.09375 
Q 40.234375 -1.421875 26.90625 -1.421875 
Q 22.3125 -1.421875 17.546875 -0.640625 
Q 12.796875 0.140625 7.71875 1.703125 
L 7.71875 11.625 
Q 12.109375 9.234375 16.796875 8.0625 
Q 21.484375 6.890625 26.703125 6.890625 
Q 35.15625 6.890625 40.078125 11.328125 
Q 45.015625 15.765625 45.015625 23.390625 
Q 45.015625 31 40.078125 35.4375 
Q 35.15625 39.890625 26.703125 39.890625 
Q 22.75 39.890625 18.8125 39.015625 
Q 14.890625 38.140625 10.796875 36.28125 
z
" id="DejaVuSans-53"/>
       <path d="M 10.984375 1.515625 
L 10.984375 10.5 
Q 14.703125 8.734375 18.5 7.8125 
Q 22.3125 6.890625 25.984375 6.890625 
Q 35.75 6.890625 40.890625 13.453125 
Q 46.046875 20.015625 46.78125 33.40625 
Q 43.953125 29.203125 39.59375 26.953125 
Q 35.25 24.703125 29.984375 24.703125 
Q 19.046875 24.703125 12.671875 31.3125 
Q 6.296875 37.9375 6.296875 49.421875 
Q 6.296875 60.640625 12.9375 67.421875 
Q 19.578125 74.21875 30.609375 74.21875 
Q 43.265625 74.21875 49.921875 64.515625 
Q 56.59375 54.828125 56.59375 36.375 
Q 56.59375 19.140625 48.40625 8.859375 
Q 40.234375 -1.421875 26.421875 -1.421875 
Q 22.703125 -1.421875 18.890625 -0.6875 
Q 15.09375 0.046875 10.984375 1.515625 
z
M 30.609375 32.421875 
Q 37.25 32.421875 41.125 36.953125 
Q 45.015625 41.5 45.015625 49.421875 
Q 45.015625 57.28125 41.125 61.84375 
Q 37.25 66.40625 30.609375 66.40625 
Q 23.96875 66.40625 20.09375 61.84375 
Q 16.21875 57.28125 16.21875 49.421875 
Q 16.21875 41.5 20.09375 36.953125 
Q 23.96875 32.421875 30.609375 32.421875 
z
" id="DejaVuSans-57"/>
      </defs>
      <g transform="translate(266.328964 393.9067)rotate(-90)scale(0.1 -0.1)">
       <use xlink:href="#DejaVuSans-48"/>
       <use x="63.623047" xlink:href="#DejaVuSans-53"/>
       <use x="127.246094" xlink:href="#DejaVuSans-57"/>
      </g>
     </g>
    </g>
    <g id="xtick_5">
     <g id="line2d_9">
      <path clip-path="url(#pb7589a1154)" d="M 277.6703 367.8192 
L 277.6703 49.5936 
" style="fill:none;stroke:#b0b0b0;stroke-linecap:square;stroke-width:0.8;"/>
     </g>
     <g id="line2d_10">
      <g>
       <use style="stroke:#000000;stroke-width:0.8;" x="277.6703" xlink:href="#m64025601b6" y="367.8192"/>
      </g>
     </g>
     <g id="text_5">
      <!-- 062 -->
      <defs>
       <path d="M 33.015625 40.375 
Q 26.375 40.375 22.484375 35.828125 
Q 18.609375 31.296875 18.609375 23.390625 
Q 18.609375 15.53125 22.484375 10.953125 
Q 26.375 6.390625 33.015625 6.390625 
Q 39.65625 6.390625 43.53125 10.953125 
Q 47.40625 15.53125 47.40625 23.390625 
Q 47.40625 31.296875 43.53125 35.828125 
Q 39.65625 40.375 33.015625 40.375 
z
M 52.59375 71.296875 
L 52.59375 62.3125 
Q 48.875 64.0625 45.09375 64.984375 
Q 41.3125 65.921875 37.59375 65.921875 
Q 27.828125 65.921875 22.671875 59.328125 
Q 17.53125 52.734375 16.796875 39.40625 
Q 19.671875 43.65625 24.015625 45.921875 
Q 28.375 48.1875 33.59375 48.1875 
Q 44.578125 48.1875 50.953125 41.515625 
Q 57.328125 34.859375 57.328125 23.390625 
Q 57.328125 12.15625 50.6875 5.359375 
Q 44.046875 -1.421875 33.015625 -1.421875 
Q 20.359375 -1.421875 13.671875 8.265625 
Q 6.984375 17.96875 6.984375 36.375 
Q 6.984375 53.65625 15.1875 63.9375 
Q 23.390625 74.21875 37.203125 74.21875 
Q 40.921875 74.21875 44.703125 73.484375 
Q 48.484375 72.75 52.59375 71.296875 
z
" id="DejaVuSans-54"/>
      </defs>
      <g transform="translate(280.429675 393.9067)rotate(-90)scale(0.1 -0.1)">
       <use xlink:href="#DejaVuSans-48"/>
       <use x="63.623047" xlink:href="#DejaVuSans-54"/>
       <use x="127.246094" xlink:href="#DejaVuSans-50"/>
      </g>
     </g>
    </g>
    <g id="xtick_6">
     <g id="line2d_11">
      <path clip-path="url(#pb7589a1154)" d="M 291.771012 367.8192 
L 291.771012 49.5936 
" style="fill:none;stroke:#b0b0b0;stroke-linecap:square;stroke-width:0.8;"/>
     </g>
     <g id="line2d_12">
      <g>
       <use style="stroke:#000000;stroke-width:0.8;" x="291.771012" xlink:href="#m64025601b6" y="367.8192"/>
      </g>
     </g>
     <g id="text_6">
      <!-- 058 -->
      <g transform="translate(294.530387 393.9067)rotate(-90)scale(0.1 -0.1)">
       <use xlink:href="#DejaVuSans-48"/>
       <use x="63.623047" xlink:href="#DejaVuSans-53"/>
       <use x="127.246094" xlink:href="#DejaVuSans-56"/>
      </g>
     </g>
    </g>
    <g id="xtick_7">
     <g id="line2d_13">
      <path clip-path="url(#pb7589a1154)" d="M 305.871723 367.8192 
L 305.871723 49.5936 
" style="fill:none;stroke:#b0b0b0;stroke-linecap:square;stroke-width:0.8;"/>
     </g>
     <g id="line2d_14">
      <g>
       <use style="stroke:#000000;stroke-width:0.8;" x="305.871723" xlink:href="#m64025601b6" y="367.8192"/>
      </g>
     </g>
     <g id="text_7">
      <!-- 040 -->
      <defs>
       <path d="M 37.796875 64.3125 
L 12.890625 25.390625 
L 37.796875 25.390625 
z
M 35.203125 72.90625 
L 47.609375 72.90625 
L 47.609375 25.390625 
L 58.015625 25.390625 
L 58.015625 17.1875 
L 47.609375 17.1875 
L 47.609375 0 
L 37.796875 0 
L 37.796875 17.1875 
L 4.890625 17.1875 
L 4.890625 26.703125 
z
" id="DejaVuSans-52"/>
      </defs>
      <g transform="translate(308.631098 393.9067)rotate(-90)scale(0.1 -0.1)">
       <use xlink:href="#DejaVuSans-48"/>
       <use x="63.623047" xlink:href="#DejaVuSans-52"/>
       <use x="127.246094" xlink:href="#DejaVuSans-48"/>
      </g>
     </g>
    </g>
    <g id="xtick_8">
     <g id="line2d_15">
      <path clip-path="url(#pb7589a1154)" d="M 319.972435 367.8192 
L 319.972435 49.5936 
" style="fill:none;stroke:#b0b0b0;stroke-linecap:square;stroke-width:0.8;"/>
     </g>
     <g id="line2d_16">
      <g>
       <use style="stroke:#000000;stroke-width:0.8;" x="319.972435" xlink:href="#m64025601b6" y="367.8192"/>
      </g>
     </g>
     <g id="text_8">
      <!-- 034 -->
      <defs>
       <path d="M 40.578125 39.3125 
Q 47.65625 37.796875 51.625 33 
Q 55.609375 28.21875 55.609375 21.1875 
Q 55.609375 10.40625 48.1875 4.484375 
Q 40.765625 -1.421875 27.09375 -1.421875 
Q 22.515625 -1.421875 17.65625 -0.515625 
Q 12.796875 0.390625 7.625 2.203125 
L 7.625 11.71875 
Q 11.71875 9.328125 16.59375 8.109375 
Q 21.484375 6.890625 26.8125 6.890625 
Q 36.078125 6.890625 40.9375 10.546875 
Q 45.796875 14.203125 45.796875 21.1875 
Q 45.796875 27.640625 41.28125 31.265625 
Q 36.765625 34.90625 28.71875 34.90625 
L 20.21875 34.90625 
L 20.21875 43.015625 
L 29.109375 43.015625 
Q 36.375 43.015625 40.234375 45.921875 
Q 44.09375 48.828125 44.09375 54.296875 
Q 44.09375 59.90625 40.109375 62.90625 
Q 36.140625 65.921875 28.71875 65.921875 
Q 24.65625 65.921875 20.015625 65.03125 
Q 15.375 64.15625 9.8125 62.3125 
L 9.8125 71.09375 
Q 15.4375 72.65625 20.34375 73.4375 
Q 25.25 74.21875 29.59375 74.21875 
Q 40.828125 74.21875 47.359375 69.109375 
Q 53.90625 64.015625 53.90625 55.328125 
Q 53.90625 49.265625 50.4375 45.09375 
Q 46.96875 40.921875 40.578125 39.3125 
z
" id="DejaVuSans-51"/>
      </defs>
      <g transform="translate(322.73181 393.9067)rotate(-90)scale(0.1 -0.1)">
       <use xlink:href="#DejaVuSans-48"/>
       <use x="63.623047" xlink:href="#DejaVuSans-51"/>
       <use x="127.246094" xlink:href="#DejaVuSans-52"/>
      </g>
     </g>
    </g>
    <g id="xtick_9">
     <g id="line2d_17">
      <path clip-path="url(#pb7589a1154)" d="M 334.073146 367.8192 
L 334.073146 49.5936 
" style="fill:none;stroke:#b0b0b0;stroke-linecap:square;stroke-width:0.8;"/>
     </g>
     <g id="line2d_18">
      <g>
       <use style="stroke:#000000;stroke-width:0.8;" x="334.073146" xlink:href="#m64025601b6" y="367.8192"/>
      </g>
     </g>
     <g id="text_9">
      <!-- 068 -->
      <g transform="translate(336.832521 393.9067)rotate(-90)scale(0.1 -0.1)">
       <use xlink:href="#DejaVuSans-48"/>
       <use x="63.623047" xlink:href="#DejaVuSans-54"/>
       <use x="127.246094" xlink:href="#DejaVuSans-56"/>
      </g>
     </g>
    </g>
    <g id="xtick_10">
     <g id="line2d_19">
      <path clip-path="url(#pb7589a1154)" d="M 348.173858 367.8192 
L 348.173858 49.5936 
" style="fill:none;stroke:#b0b0b0;stroke-linecap:square;stroke-width:0.8;"/>
     </g>
     <g id="line2d_20">
      <g>
       <use style="stroke:#000000;stroke-width:0.8;" x="348.173858" xlink:href="#m64025601b6" y="367.8192"/>
      </g>
     </g>
     <g id="text_10">
      <!-- 018 -->
      <g transform="translate(350.933233 393.9067)rotate(-90)scale(0.1 -0.1)">
       <use xlink:href="#DejaVuSans-48"/>
       <use x="63.623047" xlink:href="#DejaVuSans-49"/>
       <use x="127.246094" xlink:href="#DejaVuSans-56"/>
      </g>
     </g>
    </g>
    <g id="xtick_11">
     <g id="line2d_21">
      <path clip-path="url(#pb7589a1154)" d="M 362.274569 367.8192 
L 362.274569 49.5936 
" style="fill:none;stroke:#b0b0b0;stroke-linecap:square;stroke-width:0.8;"/>
     </g>
     <g id="line2d_22">
      <g>
       <use style="stroke:#000000;stroke-width:0.8;" x="362.274569" xlink:href="#m64025601b6" y="367.8192"/>
      </g>
     </g>
     <g id="text_11">
      <!-- 010 -->
      <g transform="translate(365.033944 393.9067)rotate(-90)scale(0.1 -0.1)">
       <use xlink:href="#DejaVuSans-48"/>
       <use x="63.623047" xlink:href="#DejaVuSans-49"/>
       <use x="127.246094" xlink:href="#DejaVuSans-48"/>
      </g>
     </g>
    </g>
    <g id="xtick_12">
     <g id="line2d_23">
      <path clip-path="url(#pb7589a1154)" d="M 376.375281 367.8192 
L 376.375281 49.5936 
" style="fill:none;stroke:#b0b0b0;stroke-linecap:square;stroke-width:0.8;"/>
     </g>
     <g id="line2d_24">
      <g>
       <use style="stroke:#000000;stroke-width:0.8;" x="376.375281" xlink:href="#m64025601b6" y="367.8192"/>
      </g>
     </g>
     <g id="text_12">
      <!-- 017 -->
      <g transform="translate(379.134656 393.9067)rotate(-90)scale(0.1 -0.1)">
       <use xlink:href="#DejaVuSans-48"/>
       <use x="63.623047" xlink:href="#DejaVuSans-49"/>
       <use x="127.246094" xlink:href="#DejaVuSans-55"/>
      </g>
     </g>
    </g>
    <g id="xtick_13">
     <g id="line2d_25">
      <path clip-path="url(#pb7589a1154)" d="M 390.475992 367.8192 
L 390.475992 49.5936 
" style="fill:none;stroke:#b0b0b0;stroke-linecap:square;stroke-width:0.8;"/>
     </g>
     <g id="line2d_26">
      <g>
       <use style="stroke:#000000;stroke-width:0.8;" x="390.475992" xlink:href="#m64025601b6" y="367.8192"/>
      </g>
     </g>
     <g id="text_13">
      <!-- 011 -->
      <g transform="translate(393.235367 393.9067)rotate(-90)scale(0.1 -0.1)">
       <use xlink:href="#DejaVuSans-48"/>
       <use x="63.623047" xlink:href="#DejaVuSans-49"/>
       <use x="127.246094" xlink:href="#DejaVuSans-49"/>
      </g>
     </g>
    </g>
    <g id="xtick_14">
     <g id="line2d_27">
      <path clip-path="url(#pb7589a1154)" d="M 404.576704 367.8192 
L 404.576704 49.5936 
" style="fill:none;stroke:#b0b0b0;stroke-linecap:square;stroke-width:0.8;"/>
     </g>
     <g id="line2d_28">
      <g>
       <use style="stroke:#000000;stroke-width:0.8;" x="404.576704" xlink:href="#m64025601b6" y="367.8192"/>
      </g>
     </g>
     <g id="text_14">
      <!-- 008 -->
      <g transform="translate(407.336079 393.9067)rotate(-90)scale(0.1 -0.1)">
       <use xlink:href="#DejaVuSans-48"/>
       <use x="63.623047" xlink:href="#DejaVuSans-48"/>
       <use x="127.246094" xlink:href="#DejaVuSans-56"/>
      </g>
     </g>
    </g>
    <g id="xtick_15">
     <g id="line2d_29">
      <path clip-path="url(#pb7589a1154)" d="M 418.677415 367.8192 
L 418.677415 49.5936 
" style="fill:none;stroke:#b0b0b0;stroke-linecap:square;stroke-width:0.8;"/>
     </g>
     <g id="line2d_30">
      <g>
       <use style="stroke:#000000;stroke-width:0.8;" x="418.677415" xlink:href="#m64025601b6" y="367.8192"/>
      </g>
     </g>
     <g id="text_15">
      <!-- 023 -->
      <g transform="translate(421.43679 393.9067)rotate(-90)scale(0.1 -0.1)">
       <use xlink:href="#DejaVuSans-48"/>
       <use x="63.623047" xlink:href="#DejaVuSans-50"/>
       <use x="127.246094" xlink:href="#DejaVuSans-51"/>
      </g>
     </g>
    </g>
    <g id="xtick_16">
     <g id="line2d_31">
      <path clip-path="url(#pb7589a1154)" d="M 432.778126 367.8192 
L 432.778126 49.5936 
" style="fill:none;stroke:#b0b0b0;stroke-linecap:square;stroke-width:0.8;"/>
     </g>
     <g id="line2d_32">
      <g>
       <use style="stroke:#000000;stroke-width:0.8;" x="432.778126" xlink:href="#m64025601b6" y="367.8192"/>
      </g>
     </g>
     <g id="text_16">
      <!-- 035 -->
      <g transform="translate(435.537501 393.9067)rotate(-90)scale(0.1 -0.1)">
       <use xlink:href="#DejaVuSans-48"/>
       <use x="63.623047" xlink:href="#DejaVuSans-51"/>
       <use x="127.246094" xlink:href="#DejaVuSans-53"/>
      </g>
     </g>
    </g>
    <g id="xtick_17">
     <g id="line2d_33">
      <path clip-path="url(#pb7589a1154)" d="M 446.878838 367.8192 
L 446.878838 49.5936 
" style="fill:none;stroke:#b0b0b0;stroke-linecap:square;stroke-width:0.8;"/>
     </g>
     <g id="line2d_34">
      <g>
       <use style="stroke:#000000;stroke-width:0.8;" x="446.878838" xlink:href="#m64025601b6" y="367.8192"/>
      </g>
     </g>
     <g id="text_17">
      <!-- 048 -->
      <g transform="translate(449.638213 393.9067)rotate(-90)scale(0.1 -0.1)">
       <use xlink:href="#DejaVuSans-48"/>
       <use x="63.623047" xlink:href="#DejaVuSans-52"/>
       <use x="127.246094" xlink:href="#DejaVuSans-56"/>
      </g>
     </g>
    </g>
    <g id="xtick_18">
     <g id="line2d_35">
      <path clip-path="url(#pb7589a1154)" d="M 460.979549 367.8192 
L 460.979549 49.5936 
" style="fill:none;stroke:#b0b0b0;stroke-linecap:square;stroke-width:0.8;"/>
     </g>
     <g id="line2d_36">
      <g>
       <use style="stroke:#000000;stroke-width:0.8;" x="460.979549" xlink:href="#m64025601b6" y="367.8192"/>
      </g>
     </g>
     <g id="text_18">
      <!-- 075 -->
      <g transform="translate(463.738924 393.9067)rotate(-90)scale(0.1 -0.1)">
       <use xlink:href="#DejaVuSans-48"/>
       <use x="63.623047" xlink:href="#DejaVuSans-55"/>
       <use x="127.246094" xlink:href="#DejaVuSans-53"/>
      </g>
     </g>
    </g>
    <g id="xtick_19">
     <g id="line2d_37">
      <path clip-path="url(#pb7589a1154)" d="M 475.080261 367.8192 
L 475.080261 49.5936 
" style="fill:none;stroke:#b0b0b0;stroke-linecap:square;stroke-width:0.8;"/>
     </g>
     <g id="line2d_38">
      <g>
       <use style="stroke:#000000;stroke-width:0.8;" x="475.080261" xlink:href="#m64025601b6" y="367.8192"/>
      </g>
     </g>
     <g id="text_19">
      <!-- 021 -->
      <g transform="translate(477.839636 393.9067)rotate(-90)scale(0.1 -0.1)">
       <use xlink:href="#DejaVuSans-48"/>
       <use x="63.623047" xlink:href="#DejaVuSans-50"/>
       <use x="127.246094" xlink:href="#DejaVuSans-49"/>
      </g>
     </g>
    </g>
    <g id="xtick_20">
     <g id="line2d_39">
      <path clip-path="url(#pb7589a1154)" d="M 489.180972 367.8192 
L 489.180972 49.5936 
" style="fill:none;stroke:#b0b0b0;stroke-linecap:square;stroke-width:0.8;"/>
     </g>
     <g id="line2d_40">
      <g>
       <use style="stroke:#000000;stroke-width:0.8;" x="489.180972" xlink:href="#m64025601b6" y="367.8192"/>
      </g>
     </g>
     <g id="text_20">
      <!-- 055 -->
      <g transform="translate(491.940347 393.9067)rotate(-90)scale(0.1 -0.1)">
       <use xlink:href="#DejaVuSans-48"/>
       <use x="63.623047" xlink:href="#DejaVuSans-53"/>
       <use x="127.246094" xlink:href="#DejaVuSans-53"/>
      </g>
     </g>
    </g>
    <g id="xtick_21">
     <g id="line2d_41">
      <path clip-path="url(#pb7589a1154)" d="M 503.281684 367.8192 
L 503.281684 49.5936 
" style="fill:none;stroke:#b0b0b0;stroke-linecap:square;stroke-width:0.8;"/>
     </g>
     <g id="line2d_42">
      <g>
       <use style="stroke:#000000;stroke-width:0.8;" x="503.281684" xlink:href="#m64025601b6" y="367.8192"/>
      </g>
     </g>
     <g id="text_21">
      <!-- 014 -->
      <g transform="translate(506.041059 393.9067)rotate(-90)scale(0.1 -0.1)">
       <use xlink:href="#DejaVuSans-48"/>
       <use x="63.623047" xlink:href="#DejaVuSans-49"/>
       <use x="127.246094" xlink:href="#DejaVuSans-52"/>
      </g>
     </g>
    </g>
    <g id="xtick_22">
     <g id="line2d_43">
      <path clip-path="url(#pb7589a1154)" d="M 517.382395 367.8192 
L 517.382395 49.5936 
" style="fill:none;stroke:#b0b0b0;stroke-linecap:square;stroke-width:0.8;"/>
     </g>
     <g id="line2d_44">
      <g>
       <use style="stroke:#000000;stroke-width:0.8;" x="517.382395" xlink:href="#m64025601b6" y="367.8192"/>
      </g>
     </g>
     <g id="text_22">
      <!-- 033 -->
      <g transform="translate(520.14177 393.9067)rotate(-90)scale(0.1 -0.1)">
       <use xlink:href="#DejaVuSans-48"/>
       <use x="63.623047" xlink:href="#DejaVuSans-51"/>
       <use x="127.246094" xlink:href="#DejaVuSans-51"/>
      </g>
     </g>
    </g>
    <g id="xtick_23">
     <g id="line2d_45">
      <path clip-path="url(#pb7589a1154)" d="M 531.483107 367.8192 
L 531.483107 49.5936 
" style="fill:none;stroke:#b0b0b0;stroke-linecap:square;stroke-width:0.8;"/>
     </g>
     <g id="line2d_46">
      <g>
       <use style="stroke:#000000;stroke-width:0.8;" x="531.483107" xlink:href="#m64025601b6" y="367.8192"/>
      </g>
     </g>
     <g id="text_23">
      <!-- 026 -->
      <g transform="translate(534.242482 393.9067)rotate(-90)scale(0.1 -0.1)">
       <use xlink:href="#DejaVuSans-48"/>
       <use x="63.623047" xlink:href="#DejaVuSans-50"/>
       <use x="127.246094" xlink:href="#DejaVuSans-54"/>
      </g>
     </g>
    </g>
    <g id="xtick_24">
     <g id="line2d_47">
      <path clip-path="url(#pb7589a1154)" d="M 545.583818 367.8192 
L 545.583818 49.5936 
" style="fill:none;stroke:#b0b0b0;stroke-linecap:square;stroke-width:0.8;"/>
     </g>
     <g id="line2d_48">
      <g>
       <use style="stroke:#000000;stroke-width:0.8;" x="545.583818" xlink:href="#m64025601b6" y="367.8192"/>
      </g>
     </g>
     <g id="text_24">
      <!-- 067 -->
      <g transform="translate(548.343193 393.9067)rotate(-90)scale(0.1 -0.1)">
       <use xlink:href="#DejaVuSans-48"/>
       <use x="63.623047" xlink:href="#DejaVuSans-54"/>
       <use x="127.246094" xlink:href="#DejaVuSans-55"/>
      </g>
     </g>
    </g>
    <g id="xtick_25">
     <g id="line2d_49">
      <path clip-path="url(#pb7589a1154)" d="M 559.68453 367.8192 
L 559.68453 49.5936 
" style="fill:none;stroke:#b0b0b0;stroke-linecap:square;stroke-width:0.8;"/>
     </g>
     <g id="line2d_50">
      <g>
       <use style="stroke:#000000;stroke-width:0.8;" x="559.68453" xlink:href="#m64025601b6" y="367.8192"/>
      </g>
     </g>
     <g id="text_25">
      <!-- 057 -->
      <g transform="translate(562.443905 393.9067)rotate(-90)scale(0.1 -0.1)">
       <use xlink:href="#DejaVuSans-48"/>
       <use x="63.623047" xlink:href="#DejaVuSans-53"/>
       <use x="127.246094" xlink:href="#DejaVuSans-55"/>
      </g>
     </g>
    </g>
    <g id="xtick_26">
     <g id="line2d_51">
      <path clip-path="url(#pb7589a1154)" d="M 573.785241 367.8192 
L 573.785241 49.5936 
" style="fill:none;stroke:#b0b0b0;stroke-linecap:square;stroke-width:0.8;"/>
     </g>
     <g id="line2d_52">
      <g>
       <use style="stroke:#000000;stroke-width:0.8;" x="573.785241" xlink:href="#m64025601b6" y="367.8192"/>
      </g>
     </g>
     <g id="text_26">
      <!-- 027 -->
      <g transform="translate(576.544616 393.9067)rotate(-90)scale(0.1 -0.1)">
       <use xlink:href="#DejaVuSans-48"/>
       <use x="63.623047" xlink:href="#DejaVuSans-50"/>
       <use x="127.246094" xlink:href="#DejaVuSans-55"/>
      </g>
     </g>
    </g>
    <g id="xtick_27">
     <g id="line2d_53">
      <path clip-path="url(#pb7589a1154)" d="M 587.885953 367.8192 
L 587.885953 49.5936 
" style="fill:none;stroke:#b0b0b0;stroke-linecap:square;stroke-width:0.8;"/>
     </g>
     <g id="line2d_54">
      <g>
       <use style="stroke:#000000;stroke-width:0.8;" x="587.885953" xlink:href="#m64025601b6" y="367.8192"/>
      </g>
     </g>
     <g id="text_27">
      <!-- 079 -->
      <g transform="translate(590.645328 393.9067)rotate(-90)scale(0.1 -0.1)">
       <use xlink:href="#DejaVuSans-48"/>
       <use x="63.623047" xlink:href="#DejaVuSans-55"/>
       <use x="127.246094" xlink:href="#DejaVuSans-57"/>
      </g>
     </g>
    </g>
    <g id="xtick_28">
     <g id="line2d_55">
      <path clip-path="url(#pb7589a1154)" d="M 601.986664 367.8192 
L 601.986664 49.5936 
" style="fill:none;stroke:#b0b0b0;stroke-linecap:square;stroke-width:0.8;"/>
     </g>
     <g id="line2d_56">
      <g>
       <use style="stroke:#000000;stroke-width:0.8;" x="601.986664" xlink:href="#m64025601b6" y="367.8192"/>
      </g>
     </g>
     <g id="text_28">
      <!-- 009 -->
      <g transform="translate(604.746039 393.9067)rotate(-90)scale(0.1 -0.1)">
       <use xlink:href="#DejaVuSans-48"/>
       <use x="63.623047" xlink:href="#DejaVuSans-48"/>
       <use x="127.246094" xlink:href="#DejaVuSans-57"/>
      </g>
     </g>
    </g>
    <g id="xtick_29">
     <g id="line2d_57">
      <path clip-path="url(#pb7589a1154)" d="M 616.087375 367.8192 
L 616.087375 49.5936 
" style="fill:none;stroke:#b0b0b0;stroke-linecap:square;stroke-width:0.8;"/>
     </g>
     <g id="line2d_58">
      <g>
       <use style="stroke:#000000;stroke-width:0.8;" x="616.087375" xlink:href="#m64025601b6" y="367.8192"/>
      </g>
     </g>
     <g id="text_29">
      <!-- 025 -->
      <g transform="translate(618.84675 393.9067)rotate(-90)scale(0.1 -0.1)">
       <use xlink:href="#DejaVuSans-48"/>
       <use x="63.623047" xlink:href="#DejaVuSans-50"/>
       <use x="127.246094" xlink:href="#DejaVuSans-53"/>
      </g>
     </g>
    </g>
    <g id="xtick_30">
     <g id="line2d_59">
      <path clip-path="url(#pb7589a1154)" d="M 630.188087 367.8192 
L 630.188087 49.5936 
" style="fill:none;stroke:#b0b0b0;stroke-linecap:square;stroke-width:0.8;"/>
     </g>
     <g id="line2d_60">
      <g>
       <use style="stroke:#000000;stroke-width:0.8;" x="630.188087" xlink:href="#m64025601b6" y="367.8192"/>
      </g>
     </g>
     <g id="text_30">
      <!-- 053 -->
      <g transform="translate(632.947462 393.9067)rotate(-90)scale(0.1 -0.1)">
       <use xlink:href="#DejaVuSans-48"/>
       <use x="63.623047" xlink:href="#DejaVuSans-53"/>
       <use x="127.246094" xlink:href="#DejaVuSans-51"/>
      </g>
     </g>
    </g>
    <g id="xtick_31">
     <g id="line2d_61">
      <path clip-path="url(#pb7589a1154)" d="M 644.288798 367.8192 
L 644.288798 49.5936 
" style="fill:none;stroke:#b0b0b0;stroke-linecap:square;stroke-width:0.8;"/>
     </g>
     <g id="line2d_62">
      <g>
       <use style="stroke:#000000;stroke-width:0.8;" x="644.288798" xlink:href="#m64025601b6" y="367.8192"/>
      </g>
     </g>
     <g id="text_31">
      <!-- 039 -->
      <g transform="translate(647.048173 393.9067)rotate(-90)scale(0.1 -0.1)">
       <use xlink:href="#DejaVuSans-48"/>
       <use x="63.623047" xlink:href="#DejaVuSans-51"/>
       <use x="127.246094" xlink:href="#DejaVuSans-57"/>
      </g>
     </g>
    </g>
    <g id="xtick_32">
     <g id="line2d_63">
      <path clip-path="url(#pb7589a1154)" d="M 658.38951 367.8192 
L 658.38951 49.5936 
" style="fill:none;stroke:#b0b0b0;stroke-linecap:square;stroke-width:0.8;"/>
     </g>
     <g id="line2d_64">
      <g>
       <use style="stroke:#000000;stroke-width:0.8;" x="658.38951" xlink:href="#m64025601b6" y="367.8192"/>
      </g>
     </g>
     <g id="text_32">
      <!-- 050 -->
      <g transform="translate(661.148885 393.9067)rotate(-90)scale(0.1 -0.1)">
       <use xlink:href="#DejaVuSans-48"/>
       <use x="63.623047" xlink:href="#DejaVuSans-53"/>
       <use x="127.246094" xlink:href="#DejaVuSans-48"/>
      </g>
     </g>
    </g>
    <g id="xtick_33">
     <g id="line2d_65">
      <path clip-path="url(#pb7589a1154)" d="M 672.490221 367.8192 
L 672.490221 49.5936 
" style="fill:none;stroke:#b0b0b0;stroke-linecap:square;stroke-width:0.8;"/>
     </g>
     <g id="line2d_66">
      <g>
       <use style="stroke:#000000;stroke-width:0.8;" x="672.490221" xlink:href="#m64025601b6" y="367.8192"/>
      </g>
     </g>
     <g id="text_33">
      <!-- 038 -->
      <g transform="translate(675.249596 393.9067)rotate(-90)scale(0.1 -0.1)">
       <use xlink:href="#DejaVuSans-48"/>
       <use x="63.623047" xlink:href="#DejaVuSans-51"/>
       <use x="127.246094" xlink:href="#DejaVuSans-56"/>
      </g>
     </g>
    </g>
    <g id="xtick_34">
     <g id="line2d_67">
      <path clip-path="url(#pb7589a1154)" d="M 686.590933 367.8192 
L 686.590933 49.5936 
" style="fill:none;stroke:#b0b0b0;stroke-linecap:square;stroke-width:0.8;"/>
     </g>
     <g id="line2d_68">
      <g>
       <use style="stroke:#000000;stroke-width:0.8;" x="686.590933" xlink:href="#m64025601b6" y="367.8192"/>
      </g>
     </g>
     <g id="text_34">
      <!-- 020 -->
      <g transform="translate(689.350308 393.9067)rotate(-90)scale(0.1 -0.1)">
       <use xlink:href="#DejaVuSans-48"/>
       <use x="63.623047" xlink:href="#DejaVuSans-50"/>
       <use x="127.246094" xlink:href="#DejaVuSans-48"/>
      </g>
     </g>
    </g>
    <g id="xtick_35">
     <g id="line2d_69">
      <path clip-path="url(#pb7589a1154)" d="M 700.691644 367.8192 
L 700.691644 49.5936 
" style="fill:none;stroke:#b0b0b0;stroke-linecap:square;stroke-width:0.8;"/>
     </g>
     <g id="line2d_70">
      <g>
       <use style="stroke:#000000;stroke-width:0.8;" x="700.691644" xlink:href="#m64025601b6" y="367.8192"/>
      </g>
     </g>
     <g id="text_35">
      <!-- 045 -->
      <g transform="translate(703.451019 393.9067)rotate(-90)scale(0.1 -0.1)">
       <use xlink:href="#DejaVuSans-48"/>
       <use x="63.623047" xlink:href="#DejaVuSans-52"/>
       <use x="127.246094" xlink:href="#DejaVuSans-53"/>
      </g>
     </g>
    </g>
    <g id="xtick_36">
     <g id="line2d_71">
      <path clip-path="url(#pb7589a1154)" d="M 714.792356 367.8192 
L 714.792356 49.5936 
" style="fill:none;stroke:#b0b0b0;stroke-linecap:square;stroke-width:0.8;"/>
     </g>
     <g id="line2d_72">
      <g>
       <use style="stroke:#000000;stroke-width:0.8;" x="714.792356" xlink:href="#m64025601b6" y="367.8192"/>
      </g>
     </g>
     <g id="text_36">
      <!-- 047 -->
      <g transform="translate(717.551731 393.9067)rotate(-90)scale(0.1 -0.1)">
       <use xlink:href="#DejaVuSans-48"/>
       <use x="63.623047" xlink:href="#DejaVuSans-52"/>
       <use x="127.246094" xlink:href="#DejaVuSans-55"/>
      </g>
     </g>
    </g>
    <g id="xtick_37">
     <g id="line2d_73">
      <path clip-path="url(#pb7589a1154)" d="M 728.893067 367.8192 
L 728.893067 49.5936 
" style="fill:none;stroke:#b0b0b0;stroke-linecap:square;stroke-width:0.8;"/>
     </g>
     <g id="line2d_74">
      <g>
       <use style="stroke:#000000;stroke-width:0.8;" x="728.893067" xlink:href="#m64025601b6" y="367.8192"/>
      </g>
     </g>
     <g id="text_37">
      <!-- 064 -->
      <g transform="translate(731.652442 393.9067)rotate(-90)scale(0.1 -0.1)">
       <use xlink:href="#DejaVuSans-48"/>
       <use x="63.623047" xlink:href="#DejaVuSans-54"/>
       <use x="127.246094" xlink:href="#DejaVuSans-52"/>
      </g>
     </g>
    </g>
    <g id="xtick_38">
     <g id="line2d_75">
      <path clip-path="url(#pb7589a1154)" d="M 742.993779 367.8192 
L 742.993779 49.5936 
" style="fill:none;stroke:#b0b0b0;stroke-linecap:square;stroke-width:0.8;"/>
     </g>
     <g id="line2d_76">
      <g>
       <use style="stroke:#000000;stroke-width:0.8;" x="742.993779" xlink:href="#m64025601b6" y="367.8192"/>
      </g>
     </g>
     <g id="text_38">
      <!-- 046 -->
      <g transform="translate(745.753154 393.9067)rotate(-90)scale(0.1 -0.1)">
       <use xlink:href="#DejaVuSans-48"/>
       <use x="63.623047" xlink:href="#DejaVuSans-52"/>
       <use x="127.246094" xlink:href="#DejaVuSans-54"/>
      </g>
     </g>
    </g>
    <g id="xtick_39">
     <g id="line2d_77">
      <path clip-path="url(#pb7589a1154)" d="M 757.09449 367.8192 
L 757.09449 49.5936 
" style="fill:none;stroke:#b0b0b0;stroke-linecap:square;stroke-width:0.8;"/>
     </g>
     <g id="line2d_78">
      <g>
       <use style="stroke:#000000;stroke-width:0.8;" x="757.09449" xlink:href="#m64025601b6" y="367.8192"/>
      </g>
     </g>
     <g id="text_39">
      <!-- 032 -->
      <g transform="translate(759.853865 393.9067)rotate(-90)scale(0.1 -0.1)">
       <use xlink:href="#DejaVuSans-48"/>
       <use x="63.623047" xlink:href="#DejaVuSans-51"/>
       <use x="127.246094" xlink:href="#DejaVuSans-50"/>
      </g>
     </g>
    </g>
    <g id="xtick_40">
     <g id="line2d_79">
      <path clip-path="url(#pb7589a1154)" d="M 771.195202 367.8192 
L 771.195202 49.5936 
" style="fill:none;stroke:#b0b0b0;stroke-linecap:square;stroke-width:0.8;"/>
     </g>
     <g id="line2d_80">
      <g>
       <use style="stroke:#000000;stroke-width:0.8;" x="771.195202" xlink:href="#m64025601b6" y="367.8192"/>
      </g>
     </g>
     <g id="text_40">
      <!-- 030 -->
      <g transform="translate(773.954577 393.9067)rotate(-90)scale(0.1 -0.1)">
       <use xlink:href="#DejaVuSans-48"/>
       <use x="63.623047" xlink:href="#DejaVuSans-51"/>
       <use x="127.246094" xlink:href="#DejaVuSans-48"/>
      </g>
     </g>
    </g>
    <g id="xtick_41">
     <g id="line2d_81">
      <path clip-path="url(#pb7589a1154)" d="M 785.295913 367.8192 
L 785.295913 49.5936 
" style="fill:none;stroke:#b0b0b0;stroke-linecap:square;stroke-width:0.8;"/>
     </g>
     <g id="line2d_82">
      <g>
       <use style="stroke:#000000;stroke-width:0.8;" x="785.295913" xlink:href="#m64025601b6" y="367.8192"/>
      </g>
     </g>
     <g id="text_41">
      <!-- 065 -->
      <g transform="translate(788.055288 393.9067)rotate(-90)scale(0.1 -0.1)">
       <use xlink:href="#DejaVuSans-48"/>
       <use x="63.623047" xlink:href="#DejaVuSans-54"/>
       <use x="127.246094" xlink:href="#DejaVuSans-53"/>
      </g>
     </g>
    </g>
    <g id="xtick_42">
     <g id="line2d_83">
      <path clip-path="url(#pb7589a1154)" d="M 799.396625 367.8192 
L 799.396625 49.5936 
" style="fill:none;stroke:#b0b0b0;stroke-linecap:square;stroke-width:0.8;"/>
     </g>
     <g id="line2d_84">
      <g>
       <use style="stroke:#000000;stroke-width:0.8;" x="799.396625" xlink:href="#m64025601b6" y="367.8192"/>
      </g>
     </g>
     <g id="text_42">
      <!-- 056 -->
      <g transform="translate(802.156 393.9067)rotate(-90)scale(0.1 -0.1)">
       <use xlink:href="#DejaVuSans-48"/>
       <use x="63.623047" xlink:href="#DejaVuSans-53"/>
       <use x="127.246094" xlink:href="#DejaVuSans-54"/>
      </g>
     </g>
    </g>
    <g id="xtick_43">
     <g id="line2d_85">
      <path clip-path="url(#pb7589a1154)" d="M 813.497336 367.8192 
L 813.497336 49.5936 
" style="fill:none;stroke:#b0b0b0;stroke-linecap:square;stroke-width:0.8;"/>
     </g>
     <g id="line2d_86">
      <g>
       <use style="stroke:#000000;stroke-width:0.8;" x="813.497336" xlink:href="#m64025601b6" y="367.8192"/>
      </g>
     </g>
     <g id="text_43">
      <!-- 049 -->
      <g transform="translate(816.256711 393.9067)rotate(-90)scale(0.1 -0.1)">
       <use xlink:href="#DejaVuSans-48"/>
       <use x="63.623047" xlink:href="#DejaVuSans-52"/>
       <use x="127.246094" xlink:href="#DejaVuSans-57"/>
      </g>
     </g>
    </g>
    <g id="xtick_44">
     <g id="line2d_87">
      <path clip-path="url(#pb7589a1154)" d="M 827.598047 367.8192 
L 827.598047 49.5936 
" style="fill:none;stroke:#b0b0b0;stroke-linecap:square;stroke-width:0.8;"/>
     </g>
     <g id="line2d_88">
      <g>
       <use style="stroke:#000000;stroke-width:0.8;" x="827.598047" xlink:href="#m64025601b6" y="367.8192"/>
      </g>
     </g>
     <g id="text_44">
      <!-- 054 -->
      <g transform="translate(830.357422 393.9067)rotate(-90)scale(0.1 -0.1)">
       <use xlink:href="#DejaVuSans-48"/>
       <use x="63.623047" xlink:href="#DejaVuSans-53"/>
       <use x="127.246094" xlink:href="#DejaVuSans-52"/>
      </g>
     </g>
    </g>
    <g id="xtick_45">
     <g id="line2d_89">
      <path clip-path="url(#pb7589a1154)" d="M 841.698759 367.8192 
L 841.698759 49.5936 
" style="fill:none;stroke:#b0b0b0;stroke-linecap:square;stroke-width:0.8;"/>
     </g>
     <g id="line2d_90">
      <g>
       <use style="stroke:#000000;stroke-width:0.8;" x="841.698759" xlink:href="#m64025601b6" y="367.8192"/>
      </g>
     </g>
     <g id="text_45">
      <!-- 063 -->
      <g transform="translate(844.458134 393.9067)rotate(-90)scale(0.1 -0.1)">
       <use xlink:href="#DejaVuSans-48"/>
       <use x="63.623047" xlink:href="#DejaVuSans-54"/>
       <use x="127.246094" xlink:href="#DejaVuSans-51"/>
      </g>
     </g>
    </g>
    <g id="xtick_46">
     <g id="line2d_91">
      <path clip-path="url(#pb7589a1154)" d="M 855.79947 367.8192 
L 855.79947 49.5936 
" style="fill:none;stroke:#b0b0b0;stroke-linecap:square;stroke-width:0.8;"/>
     </g>
     <g id="line2d_92">
      <g>
       <use style="stroke:#000000;stroke-width:0.8;" x="855.79947" xlink:href="#m64025601b6" y="367.8192"/>
      </g>
     </g>
     <g id="text_46">
      <!-- 004 -->
      <g transform="translate(858.558845 393.9067)rotate(-90)scale(0.1 -0.1)">
       <use xlink:href="#DejaVuSans-48"/>
       <use x="63.623047" xlink:href="#DejaVuSans-48"/>
       <use x="127.246094" xlink:href="#DejaVuSans-52"/>
      </g>
     </g>
    </g>
    <g id="xtick_47">
     <g id="line2d_93">
      <path clip-path="url(#pb7589a1154)" d="M 869.900182 367.8192 
L 869.900182 49.5936 
" style="fill:none;stroke:#b0b0b0;stroke-linecap:square;stroke-width:0.8;"/>
     </g>
     <g id="line2d_94">
      <g>
       <use style="stroke:#000000;stroke-width:0.8;" x="869.900182" xlink:href="#m64025601b6" y="367.8192"/>
      </g>
     </g>
     <g id="text_47">
      <!-- 015 -->
      <g transform="translate(872.659557 393.9067)rotate(-90)scale(0.1 -0.1)">
       <use xlink:href="#DejaVuSans-48"/>
       <use x="63.623047" xlink:href="#DejaVuSans-49"/>
       <use x="127.246094" xlink:href="#DejaVuSans-53"/>
      </g>
     </g>
    </g>
    <g id="xtick_48">
     <g id="line2d_95">
      <path clip-path="url(#pb7589a1154)" d="M 884.000893 367.8192 
L 884.000893 49.5936 
" style="fill:none;stroke:#b0b0b0;stroke-linecap:square;stroke-width:0.8;"/>
     </g>
     <g id="line2d_96">
      <g>
       <use style="stroke:#000000;stroke-width:0.8;" x="884.000893" xlink:href="#m64025601b6" y="367.8192"/>
      </g>
     </g>
     <g id="text_48">
      <!-- 066 -->
      <g transform="translate(886.760268 393.9067)rotate(-90)scale(0.1 -0.1)">
       <use xlink:href="#DejaVuSans-48"/>
       <use x="63.623047" xlink:href="#DejaVuSans-54"/>
       <use x="127.246094" xlink:href="#DejaVuSans-54"/>
      </g>
     </g>
    </g>
    <g id="xtick_49">
     <g id="line2d_97">
      <path clip-path="url(#pb7589a1154)" d="M 898.101605 367.8192 
L 898.101605 49.5936 
" style="fill:none;stroke:#b0b0b0;stroke-linecap:square;stroke-width:0.8;"/>
     </g>
     <g id="line2d_98">
      <g>
       <use style="stroke:#000000;stroke-width:0.8;" x="898.101605" xlink:href="#m64025601b6" y="367.8192"/>
      </g>
     </g>
     <g id="text_49">
      <!-- 060 -->
      <g transform="translate(900.86098 393.9067)rotate(-90)scale(0.1 -0.1)">
       <use xlink:href="#DejaVuSans-48"/>
       <use x="63.623047" xlink:href="#DejaVuSans-54"/>
       <use x="127.246094" xlink:href="#DejaVuSans-48"/>
      </g>
     </g>
    </g>
    <g id="xtick_50">
     <g id="line2d_99">
      <path clip-path="url(#pb7589a1154)" d="M 912.202316 367.8192 
L 912.202316 49.5936 
" style="fill:none;stroke:#b0b0b0;stroke-linecap:square;stroke-width:0.8;"/>
     </g>
     <g id="line2d_100">
      <g>
       <use style="stroke:#000000;stroke-width:0.8;" x="912.202316" xlink:href="#m64025601b6" y="367.8192"/>
      </g>
     </g>
     <g id="text_50">
      <!-- 052 -->
      <g transform="translate(914.961691 393.9067)rotate(-90)scale(0.1 -0.1)">
       <use xlink:href="#DejaVuSans-48"/>
       <use x="63.623047" xlink:href="#DejaVuSans-53"/>
       <use x="127.246094" xlink:href="#DejaVuSans-50"/>
      </g>
     </g>
    </g>
    <g id="xtick_51">
     <g id="line2d_101">
      <path clip-path="url(#pb7589a1154)" d="M 926.303028 367.8192 
L 926.303028 49.5936 
" style="fill:none;stroke:#b0b0b0;stroke-linecap:square;stroke-width:0.8;"/>
     </g>
     <g id="line2d_102">
      <g>
       <use style="stroke:#000000;stroke-width:0.8;" x="926.303028" xlink:href="#m64025601b6" y="367.8192"/>
      </g>
     </g>
     <g id="text_51">
      <!-- 069 -->
      <g transform="translate(929.062403 393.9067)rotate(-90)scale(0.1 -0.1)">
       <use xlink:href="#DejaVuSans-48"/>
       <use x="63.623047" xlink:href="#DejaVuSans-54"/>
       <use x="127.246094" xlink:href="#DejaVuSans-57"/>
      </g>
     </g>
    </g>
    <g id="xtick_52">
     <g id="line2d_103">
      <path clip-path="url(#pb7589a1154)" d="M 940.403739 367.8192 
L 940.403739 49.5936 
" style="fill:none;stroke:#b0b0b0;stroke-linecap:square;stroke-width:0.8;"/>
     </g>
     <g id="line2d_104">
      <g>
       <use style="stroke:#000000;stroke-width:0.8;" x="940.403739" xlink:href="#m64025601b6" y="367.8192"/>
      </g>
     </g>
     <g id="text_52">
      <!-- 072 -->
      <g transform="translate(943.163114 393.9067)rotate(-90)scale(0.1 -0.1)">
       <use xlink:href="#DejaVuSans-48"/>
       <use x="63.623047" xlink:href="#DejaVuSans-55"/>
       <use x="127.246094" xlink:href="#DejaVuSans-50"/>
      </g>
     </g>
    </g>
    <g id="xtick_53">
     <g id="line2d_105">
      <path clip-path="url(#pb7589a1154)" d="M 954.504451 367.8192 
L 954.504451 49.5936 
" style="fill:none;stroke:#b0b0b0;stroke-linecap:square;stroke-width:0.8;"/>
     </g>
     <g id="line2d_106">
      <g>
       <use style="stroke:#000000;stroke-width:0.8;" x="954.504451" xlink:href="#m64025601b6" y="367.8192"/>
      </g>
     </g>
     <g id="text_53">
      <!-- 019 -->
      <g transform="translate(957.263826 393.9067)rotate(-90)scale(0.1 -0.1)">
       <use xlink:href="#DejaVuSans-48"/>
       <use x="63.623047" xlink:href="#DejaVuSans-49"/>
       <use x="127.246094" xlink:href="#DejaVuSans-57"/>
      </g>
     </g>
    </g>
    <g id="xtick_54">
     <g id="line2d_107">
      <path clip-path="url(#pb7589a1154)" d="M 968.605162 367.8192 
L 968.605162 49.5936 
" style="fill:none;stroke:#b0b0b0;stroke-linecap:square;stroke-width:0.8;"/>
     </g>
     <g id="line2d_108">
      <g>
       <use style="stroke:#000000;stroke-width:0.8;" x="968.605162" xlink:href="#m64025601b6" y="367.8192"/>
      </g>
     </g>
     <g id="text_54">
      <!-- 031 -->
      <g transform="translate(971.364537 393.9067)rotate(-90)scale(0.1 -0.1)">
       <use xlink:href="#DejaVuSans-48"/>
       <use x="63.623047" xlink:href="#DejaVuSans-51"/>
       <use x="127.246094" xlink:href="#DejaVuSans-49"/>
      </g>
     </g>
    </g>
    <g id="xtick_55">
     <g id="line2d_109">
      <path clip-path="url(#pb7589a1154)" d="M 982.705874 367.8192 
L 982.705874 49.5936 
" style="fill:none;stroke:#b0b0b0;stroke-linecap:square;stroke-width:0.8;"/>
     </g>
     <g id="line2d_110">
      <g>
       <use style="stroke:#000000;stroke-width:0.8;" x="982.705874" xlink:href="#m64025601b6" y="367.8192"/>
      </g>
     </g>
     <g id="text_55">
      <!-- 041 -->
      <g transform="translate(985.465249 393.9067)rotate(-90)scale(0.1 -0.1)">
       <use xlink:href="#DejaVuSans-48"/>
       <use x="63.623047" xlink:href="#DejaVuSans-52"/>
       <use x="127.246094" xlink:href="#DejaVuSans-49"/>
      </g>
     </g>
    </g>
    <g id="xtick_56">
     <g id="line2d_111">
      <path clip-path="url(#pb7589a1154)" d="M 996.806585 367.8192 
L 996.806585 49.5936 
" style="fill:none;stroke:#b0b0b0;stroke-linecap:square;stroke-width:0.8;"/>
     </g>
     <g id="line2d_112">
      <g>
       <use style="stroke:#000000;stroke-width:0.8;" x="996.806585" xlink:href="#m64025601b6" y="367.8192"/>
      </g>
     </g>
     <g id="text_56">
      <!-- 070 -->
      <g transform="translate(999.56596 393.9067)rotate(-90)scale(0.1 -0.1)">
       <use xlink:href="#DejaVuSans-48"/>
       <use x="63.623047" xlink:href="#DejaVuSans-55"/>
       <use x="127.246094" xlink:href="#DejaVuSans-48"/>
      </g>
     </g>
    </g>
    <g id="xtick_57">
     <g id="line2d_113">
      <path clip-path="url(#pb7589a1154)" d="M 1010.907296 367.8192 
L 1010.907296 49.5936 
" style="fill:none;stroke:#b0b0b0;stroke-linecap:square;stroke-width:0.8;"/>
     </g>
     <g id="line2d_114">
      <g>
       <use style="stroke:#000000;stroke-width:0.8;" x="1010.907296" xlink:href="#m64025601b6" y="367.8192"/>
      </g>
     </g>
     <g id="text_57">
      <!-- 051 -->
      <g transform="translate(1013.666671 393.9067)rotate(-90)scale(0.1 -0.1)">
       <use xlink:href="#DejaVuSans-48"/>
       <use x="63.623047" xlink:href="#DejaVuSans-53"/>
       <use x="127.246094" xlink:href="#DejaVuSans-49"/>
      </g>
     </g>
    </g>
    <g id="xtick_58">
     <g id="line2d_115">
      <path clip-path="url(#pb7589a1154)" d="M 1025.008008 367.8192 
L 1025.008008 49.5936 
" style="fill:none;stroke:#b0b0b0;stroke-linecap:square;stroke-width:0.8;"/>
     </g>
     <g id="line2d_116">
      <g>
       <use style="stroke:#000000;stroke-width:0.8;" x="1025.008008" xlink:href="#m64025601b6" y="367.8192"/>
      </g>
     </g>
     <g id="text_58">
      <!-- 042 -->
      <g transform="translate(1027.767383 393.9067)rotate(-90)scale(0.1 -0.1)">
       <use xlink:href="#DejaVuSans-48"/>
       <use x="63.623047" xlink:href="#DejaVuSans-52"/>
       <use x="127.246094" xlink:href="#DejaVuSans-50"/>
      </g>
     </g>
    </g>
    <g id="xtick_59">
     <g id="line2d_117">
      <path clip-path="url(#pb7589a1154)" d="M 1039.108719 367.8192 
L 1039.108719 49.5936 
" style="fill:none;stroke:#b0b0b0;stroke-linecap:square;stroke-width:0.8;"/>
     </g>
     <g id="line2d_118">
      <g>
       <use style="stroke:#000000;stroke-width:0.8;" x="1039.108719" xlink:href="#m64025601b6" y="367.8192"/>
      </g>
     </g>
     <g id="text_59">
      <!-- 029 -->
      <g transform="translate(1041.868094 393.9067)rotate(-90)scale(0.1 -0.1)">
       <use xlink:href="#DejaVuSans-48"/>
       <use x="63.623047" xlink:href="#DejaVuSans-50"/>
       <use x="127.246094" xlink:href="#DejaVuSans-57"/>
      </g>
     </g>
    </g>
    <g id="xtick_60">
     <g id="line2d_119">
      <path clip-path="url(#pb7589a1154)" d="M 1053.209431 367.8192 
L 1053.209431 49.5936 
" style="fill:none;stroke:#b0b0b0;stroke-linecap:square;stroke-width:0.8;"/>
     </g>
     <g id="line2d_120">
      <g>
       <use style="stroke:#000000;stroke-width:0.8;" x="1053.209431" xlink:href="#m64025601b6" y="367.8192"/>
      </g>
     </g>
     <g id="text_60">
      <!-- 061 -->
      <g transform="translate(1055.968806 393.9067)rotate(-90)scale(0.1 -0.1)">
       <use xlink:href="#DejaVuSans-48"/>
       <use x="63.623047" xlink:href="#DejaVuSans-54"/>
       <use x="127.246094" xlink:href="#DejaVuSans-49"/>
      </g>
     </g>
    </g>
    <g id="xtick_61">
     <g id="line2d_121">
      <path clip-path="url(#pb7589a1154)" d="M 1067.310142 367.8192 
L 1067.310142 49.5936 
" style="fill:none;stroke:#b0b0b0;stroke-linecap:square;stroke-width:0.8;"/>
     </g>
     <g id="line2d_122">
      <g>
       <use style="stroke:#000000;stroke-width:0.8;" x="1067.310142" xlink:href="#m64025601b6" y="367.8192"/>
      </g>
     </g>
     <g id="text_61">
      <!-- 012 -->
      <g transform="translate(1070.069517 393.9067)rotate(-90)scale(0.1 -0.1)">
       <use xlink:href="#DejaVuSans-48"/>
       <use x="63.623047" xlink:href="#DejaVuSans-49"/>
       <use x="127.246094" xlink:href="#DejaVuSans-50"/>
      </g>
     </g>
    </g>
    <g id="xtick_62">
     <g id="line2d_123">
      <path clip-path="url(#pb7589a1154)" d="M 1081.410854 367.8192 
L 1081.410854 49.5936 
" style="fill:none;stroke:#b0b0b0;stroke-linecap:square;stroke-width:0.8;"/>
     </g>
     <g id="line2d_124">
      <g>
       <use style="stroke:#000000;stroke-width:0.8;" x="1081.410854" xlink:href="#m64025601b6" y="367.8192"/>
      </g>
     </g>
     <g id="text_62">
      <!-- 005 -->
      <g transform="translate(1084.170229 393.9067)rotate(-90)scale(0.1 -0.1)">
       <use xlink:href="#DejaVuSans-48"/>
       <use x="63.623047" xlink:href="#DejaVuSans-48"/>
       <use x="127.246094" xlink:href="#DejaVuSans-53"/>
      </g>
     </g>
    </g>
    <g id="xtick_63">
     <g id="line2d_125">
      <path clip-path="url(#pb7589a1154)" d="M 1095.511565 367.8192 
L 1095.511565 49.5936 
" style="fill:none;stroke:#b0b0b0;stroke-linecap:square;stroke-width:0.8;"/>
     </g>
     <g id="line2d_126">
      <g>
       <use style="stroke:#000000;stroke-width:0.8;" x="1095.511565" xlink:href="#m64025601b6" y="367.8192"/>
      </g>
     </g>
     <g id="text_63">
      <!-- 078 -->
      <g transform="translate(1098.27094 393.9067)rotate(-90)scale(0.1 -0.1)">
       <use xlink:href="#DejaVuSans-48"/>
       <use x="63.623047" xlink:href="#DejaVuSans-55"/>
       <use x="127.246094" xlink:href="#DejaVuSans-56"/>
      </g>
     </g>
    </g>
    <g id="xtick_64">
     <g id="line2d_127">
      <path clip-path="url(#pb7589a1154)" d="M 1109.612277 367.8192 
L 1109.612277 49.5936 
" style="fill:none;stroke:#b0b0b0;stroke-linecap:square;stroke-width:0.8;"/>
     </g>
     <g id="line2d_128">
      <g>
       <use style="stroke:#000000;stroke-width:0.8;" x="1109.612277" xlink:href="#m64025601b6" y="367.8192"/>
      </g>
     </g>
     <g id="text_64">
      <!-- 071 -->
      <g transform="translate(1112.371652 393.9067)rotate(-90)scale(0.1 -0.1)">
       <use xlink:href="#DejaVuSans-48"/>
       <use x="63.623047" xlink:href="#DejaVuSans-55"/>
       <use x="127.246094" xlink:href="#DejaVuSans-49"/>
      </g>
     </g>
    </g>
    <g id="xtick_65">
     <g id="line2d_129">
      <path clip-path="url(#pb7589a1154)" d="M 1123.712988 367.8192 
L 1123.712988 49.5936 
" style="fill:none;stroke:#b0b0b0;stroke-linecap:square;stroke-width:0.8;"/>
     </g>
     <g id="line2d_130">
      <g>
       <use style="stroke:#000000;stroke-width:0.8;" x="1123.712988" xlink:href="#m64025601b6" y="367.8192"/>
      </g>
     </g>
     <g id="text_65">
      <!-- 007 -->
      <g transform="translate(1126.472363 393.9067)rotate(-90)scale(0.1 -0.1)">
       <use xlink:href="#DejaVuSans-48"/>
       <use x="63.623047" xlink:href="#DejaVuSans-48"/>
       <use x="127.246094" xlink:href="#DejaVuSans-55"/>
      </g>
     </g>
    </g>
    <g id="xtick_66">
     <g id="line2d_131">
      <path clip-path="url(#pb7589a1154)" d="M 1137.8137 367.8192 
L 1137.8137 49.5936 
" style="fill:none;stroke:#b0b0b0;stroke-linecap:square;stroke-width:0.8;"/>
     </g>
     <g id="line2d_132">
      <g>
       <use style="stroke:#000000;stroke-width:0.8;" x="1137.8137" xlink:href="#m64025601b6" y="367.8192"/>
      </g>
     </g>
     <g id="text_66">
      <!-- 006 -->
      <g transform="translate(1140.573075 393.9067)rotate(-90)scale(0.1 -0.1)">
       <use xlink:href="#DejaVuSans-48"/>
       <use x="63.623047" xlink:href="#DejaVuSans-48"/>
       <use x="127.246094" xlink:href="#DejaVuSans-54"/>
      </g>
     </g>
    </g>
    <g id="xtick_67">
     <g id="line2d_133">
      <path clip-path="url(#pb7589a1154)" d="M 1151.914411 367.8192 
L 1151.914411 49.5936 
" style="fill:none;stroke:#b0b0b0;stroke-linecap:square;stroke-width:0.8;"/>
     </g>
     <g id="line2d_134">
      <g>
       <use style="stroke:#000000;stroke-width:0.8;" x="1151.914411" xlink:href="#m64025601b6" y="367.8192"/>
      </g>
     </g>
     <g id="text_67">
      <!-- 073 -->
      <g transform="translate(1154.673786 393.9067)rotate(-90)scale(0.1 -0.1)">
       <use xlink:href="#DejaVuSans-48"/>
       <use x="63.623047" xlink:href="#DejaVuSans-55"/>
       <use x="127.246094" xlink:href="#DejaVuSans-51"/>
      </g>
     </g>
    </g>
    <g id="xtick_68">
     <g id="line2d_135">
      <path clip-path="url(#pb7589a1154)" d="M 1166.015123 367.8192 
L 1166.015123 49.5936 
" style="fill:none;stroke:#b0b0b0;stroke-linecap:square;stroke-width:0.8;"/>
     </g>
     <g id="line2d_136">
      <g>
       <use style="stroke:#000000;stroke-width:0.8;" x="1166.015123" xlink:href="#m64025601b6" y="367.8192"/>
      </g>
     </g>
     <g id="text_68">
      <!-- 016 -->
      <g transform="translate(1168.774498 393.9067)rotate(-90)scale(0.1 -0.1)">
       <use xlink:href="#DejaVuSans-48"/>
       <use x="63.623047" xlink:href="#DejaVuSans-49"/>
       <use x="127.246094" xlink:href="#DejaVuSans-54"/>
      </g>
     </g>
    </g>
    <g id="xtick_69">
     <g id="line2d_137">
      <path clip-path="url(#pb7589a1154)" d="M 1180.115834 367.8192 
L 1180.115834 49.5936 
" style="fill:none;stroke:#b0b0b0;stroke-linecap:square;stroke-width:0.8;"/>
     </g>
     <g id="line2d_138">
      <g>
       <use style="stroke:#000000;stroke-width:0.8;" x="1180.115834" xlink:href="#m64025601b6" y="367.8192"/>
      </g>
     </g>
     <g id="text_69">
      <!-- 037 -->
      <g transform="translate(1182.875209 393.9067)rotate(-90)scale(0.1 -0.1)">
       <use xlink:href="#DejaVuSans-48"/>
       <use x="63.623047" xlink:href="#DejaVuSans-51"/>
       <use x="127.246094" xlink:href="#DejaVuSans-55"/>
      </g>
     </g>
    </g>
    <g id="xtick_70">
     <g id="line2d_139">
      <path clip-path="url(#pb7589a1154)" d="M 1194.216545 367.8192 
L 1194.216545 49.5936 
" style="fill:none;stroke:#b0b0b0;stroke-linecap:square;stroke-width:0.8;"/>
     </g>
     <g id="line2d_140">
      <g>
       <use style="stroke:#000000;stroke-width:0.8;" x="1194.216545" xlink:href="#m64025601b6" y="367.8192"/>
      </g>
     </g>
     <g id="text_70">
      <!-- 002 -->
      <g transform="translate(1196.97592 393.9067)rotate(-90)scale(0.1 -0.1)">
       <use xlink:href="#DejaVuSans-48"/>
       <use x="63.623047" xlink:href="#DejaVuSans-48"/>
       <use x="127.246094" xlink:href="#DejaVuSans-50"/>
      </g>
     </g>
    </g>
    <g id="text_71">
     <!-- Serial Number -->
     <defs>
      <path d="M 53.515625 70.515625 
L 53.515625 60.890625 
Q 47.90625 63.578125 42.921875 64.890625 
Q 37.9375 66.21875 33.296875 66.21875 
Q 25.25 66.21875 20.875 63.09375 
Q 16.5 59.96875 16.5 54.203125 
Q 16.5 49.359375 19.40625 46.890625 
Q 22.3125 44.4375 30.421875 42.921875 
L 36.375 41.703125 
Q 47.40625 39.59375 52.65625 34.296875 
Q 57.90625 29 57.90625 20.125 
Q 57.90625 9.515625 50.796875 4.046875 
Q 43.703125 -1.421875 29.984375 -1.421875 
Q 24.8125 -1.421875 18.96875 -0.25 
Q 13.140625 0.921875 6.890625 3.21875 
L 6.890625 13.375 
Q 12.890625 10.015625 18.65625 8.296875 
Q 24.421875 6.59375 29.984375 6.59375 
Q 38.421875 6.59375 43.015625 9.90625 
Q 47.609375 13.234375 47.609375 19.390625 
Q 47.609375 24.75 44.3125 27.78125 
Q 41.015625 30.8125 33.5 32.328125 
L 27.484375 33.5 
Q 16.453125 35.6875 11.515625 40.375 
Q 6.59375 45.0625 6.59375 53.421875 
Q 6.59375 63.09375 13.40625 68.65625 
Q 20.21875 74.21875 32.171875 74.21875 
Q 37.3125 74.21875 42.625 73.28125 
Q 47.953125 72.359375 53.515625 70.515625 
z
" id="DejaVuSans-83"/>
      <path d="M 56.203125 29.59375 
L 56.203125 25.203125 
L 14.890625 25.203125 
Q 15.484375 15.921875 20.484375 11.0625 
Q 25.484375 6.203125 34.421875 6.203125 
Q 39.59375 6.203125 44.453125 7.46875 
Q 49.3125 8.734375 54.109375 11.28125 
L 54.109375 2.78125 
Q 49.265625 0.734375 44.1875 -0.34375 
Q 39.109375 -1.421875 33.890625 -1.421875 
Q 20.796875 -1.421875 13.15625 6.1875 
Q 5.515625 13.8125 5.515625 26.8125 
Q 5.515625 40.234375 12.765625 48.109375 
Q 20.015625 56 32.328125 56 
Q 43.359375 56 49.78125 48.890625 
Q 56.203125 41.796875 56.203125 29.59375 
z
M 47.21875 32.234375 
Q 47.125 39.59375 43.09375 43.984375 
Q 39.0625 48.390625 32.421875 48.390625 
Q 24.90625 48.390625 20.390625 44.140625 
Q 15.875 39.890625 15.1875 32.171875 
z
" id="DejaVuSans-101"/>
      <path d="M 41.109375 46.296875 
Q 39.59375 47.171875 37.8125 47.578125 
Q 36.03125 48 33.890625 48 
Q 26.265625 48 22.1875 43.046875 
Q 18.109375 38.09375 18.109375 28.8125 
L 18.109375 0 
L 9.078125 0 
L 9.078125 54.6875 
L 18.109375 54.6875 
L 18.109375 46.1875 
Q 20.953125 51.171875 25.484375 53.578125 
Q 30.03125 56 36.53125 56 
Q 37.453125 56 38.578125 55.875 
Q 39.703125 55.765625 41.0625 55.515625 
z
" id="DejaVuSans-114"/>
      <path d="M 9.421875 54.6875 
L 18.40625 54.6875 
L 18.40625 0 
L 9.421875 0 
z
M 9.421875 75.984375 
L 18.40625 75.984375 
L 18.40625 64.59375 
L 9.421875 64.59375 
z
" id="DejaVuSans-105"/>
      <path d="M 34.28125 27.484375 
Q 23.390625 27.484375 19.1875 25 
Q 14.984375 22.515625 14.984375 16.5 
Q 14.984375 11.71875 18.140625 8.90625 
Q 21.296875 6.109375 26.703125 6.109375 
Q 34.1875 6.109375 38.703125 11.40625 
Q 43.21875 16.703125 43.21875 25.484375 
L 43.21875 27.484375 
z
M 52.203125 31.203125 
L 52.203125 0 
L 43.21875 0 
L 43.21875 8.296875 
Q 40.140625 3.328125 35.546875 0.953125 
Q 30.953125 -1.421875 24.3125 -1.421875 
Q 15.921875 -1.421875 10.953125 3.296875 
Q 6 8.015625 6 15.921875 
Q 6 25.140625 12.171875 29.828125 
Q 18.359375 34.515625 30.609375 34.515625 
L 43.21875 34.515625 
L 43.21875 35.40625 
Q 43.21875 41.609375 39.140625 45 
Q 35.0625 48.390625 27.6875 48.390625 
Q 23 48.390625 18.546875 47.265625 
Q 14.109375 46.140625 10.015625 43.890625 
L 10.015625 52.203125 
Q 14.9375 54.109375 19.578125 55.046875 
Q 24.21875 56 28.609375 56 
Q 40.484375 56 46.34375 49.84375 
Q 52.203125 43.703125 52.203125 31.203125 
z
" id="DejaVuSans-97"/>
      <path d="M 9.421875 75.984375 
L 18.40625 75.984375 
L 18.40625 0 
L 9.421875 0 
z
" id="DejaVuSans-108"/>
      <path id="DejaVuSans-32"/>
      <path d="M 9.8125 72.90625 
L 23.09375 72.90625 
L 55.421875 11.921875 
L 55.421875 72.90625 
L 64.984375 72.90625 
L 64.984375 0 
L 51.703125 0 
L 19.390625 60.984375 
L 19.390625 0 
L 9.8125 0 
z
" id="DejaVuSans-78"/>
      <path d="M 8.5 21.578125 
L 8.5 54.6875 
L 17.484375 54.6875 
L 17.484375 21.921875 
Q 17.484375 14.15625 20.5 10.265625 
Q 23.53125 6.390625 29.59375 6.390625 
Q 36.859375 6.390625 41.078125 11.03125 
Q 45.3125 15.671875 45.3125 23.6875 
L 45.3125 54.6875 
L 54.296875 54.6875 
L 54.296875 0 
L 45.3125 0 
L 45.3125 8.40625 
Q 42.046875 3.421875 37.71875 1 
Q 33.40625 -1.421875 27.6875 -1.421875 
Q 18.265625 -1.421875 13.375 4.4375 
Q 8.5 10.296875 8.5 21.578125 
z
M 31.109375 56 
z
" id="DejaVuSans-117"/>
      <path d="M 52 44.1875 
Q 55.375 50.25 60.0625 53.125 
Q 64.75 56 71.09375 56 
Q 79.640625 56 84.28125 50.015625 
Q 88.921875 44.046875 88.921875 33.015625 
L 88.921875 0 
L 79.890625 0 
L 79.890625 32.71875 
Q 79.890625 40.578125 77.09375 44.375 
Q 74.3125 48.1875 68.609375 48.1875 
Q 61.625 48.1875 57.5625 43.546875 
Q 53.515625 38.921875 53.515625 30.90625 
L 53.515625 0 
L 44.484375 0 
L 44.484375 32.71875 
Q 44.484375 40.625 41.703125 44.40625 
Q 38.921875 48.1875 33.109375 48.1875 
Q 26.21875 48.1875 22.15625 43.53125 
Q 18.109375 38.875 18.109375 30.90625 
L 18.109375 0 
L 9.078125 0 
L 9.078125 54.6875 
L 18.109375 54.6875 
L 18.109375 46.1875 
Q 21.1875 51.21875 25.484375 53.609375 
Q 29.78125 56 35.6875 56 
Q 41.65625 56 45.828125 52.96875 
Q 50 49.953125 52 44.1875 
z
" id="DejaVuSans-109"/>
      <path d="M 48.6875 27.296875 
Q 48.6875 37.203125 44.609375 42.84375 
Q 40.53125 48.484375 33.40625 48.484375 
Q 26.265625 48.484375 22.1875 42.84375 
Q 18.109375 37.203125 18.109375 27.296875 
Q 18.109375 17.390625 22.1875 11.75 
Q 26.265625 6.109375 33.40625 6.109375 
Q 40.53125 6.109375 44.609375 11.75 
Q 48.6875 17.390625 48.6875 27.296875 
z
M 18.109375 46.390625 
Q 20.953125 51.265625 25.265625 53.625 
Q 29.59375 56 35.59375 56 
Q 45.5625 56 51.78125 48.09375 
Q 58.015625 40.1875 58.015625 27.296875 
Q 58.015625 14.40625 51.78125 6.484375 
Q 45.5625 -1.421875 35.59375 -1.421875 
Q 29.59375 -1.421875 25.265625 0.953125 
Q 20.953125 3.328125 18.109375 8.203125 
L 18.109375 0 
L 9.078125 0 
L 9.078125 75.984375 
L 18.109375 75.984375 
z
" id="DejaVuSans-98"/>
     </defs>
     <g transform="translate(671.918563 405.505138)scale(0.1 -0.1)">
      <use xlink:href="#DejaVuSans-83"/>
      <use x="63.476562" xlink:href="#DejaVuSans-101"/>
      <use x="125" xlink:href="#DejaVuSans-114"/>
      <use x="166.113281" xlink:href="#DejaVuSans-105"/>
      <use x="193.896484" xlink:href="#DejaVuSans-97"/>
      <use x="255.175781" xlink:href="#DejaVuSans-108"/>
      <use x="282.958984" xlink:href="#DejaVuSans-32"/>
      <use x="314.746094" xlink:href="#DejaVuSans-78"/>
      <use x="389.550781" xlink:href="#DejaVuSans-117"/>
      <use x="452.929688" xlink:href="#DejaVuSans-109"/>
      <use x="550.341797" xlink:href="#DejaVuSans-98"/>
      <use x="613.818359" xlink:href="#DejaVuSans-101"/>
      <use x="675.341797" xlink:href="#DejaVuSans-114"/>
     </g>
    </g>
   </g>
   <g id="matplotlib.axis_2">
    <g id="ytick_1">
     <g id="line2d_141">
      <path clip-path="url(#pb7589a1154)" d="M 172.62 336.374486 
L 1242.864 336.374486 
" style="fill:none;stroke:#b0b0b0;stroke-linecap:square;stroke-width:0.8;"/>
     </g>
     <g id="line2d_142">
      <defs>
       <path d="M 0 0 
L -3.5 0 
" id="me395494ce7" style="stroke:#000000;stroke-width:0.8;"/>
      </defs>
      <g>
       <use style="stroke:#000000;stroke-width:0.8;" x="172.62" xlink:href="#me395494ce7" y="336.374486"/>
      </g>
     </g>
     <g id="text_72">
      <!-- 0.6 -->
      <defs>
       <path d="M 10.59375 35.5 
L 73.1875 35.5 
L 73.1875 27.203125 
L 10.59375 27.203125 
z
" id="DejaVuSans-8722"/>
       <path d="M 10.6875 12.40625 
L 21 12.40625 
L 21 0 
L 10.6875 0 
z
" id="DejaVuSans-46"/>
      </defs>
      <g transform="translate(141.337187 340.173705)scale(0.1 -0.1)">
       <use xlink:href="#DejaVuSans-8722"/>
       <use x="83.789062" xlink:href="#DejaVuSans-48"/>
       <use x="147.412109" xlink:href="#DejaVuSans-46"/>
       <use x="179.199219" xlink:href="#DejaVuSans-54"/>
      </g>
     </g>
    </g>
    <g id="ytick_2">
     <g id="line2d_143">
      <path clip-path="url(#pb7589a1154)" d="M 172.62 296.547446 
L 1242.864 296.547446 
" style="fill:none;stroke:#b0b0b0;stroke-linecap:square;stroke-width:0.8;"/>
     </g>
     <g id="line2d_144">
      <g>
       <use style="stroke:#000000;stroke-width:0.8;" x="172.62" xlink:href="#me395494ce7" y="296.547446"/>
      </g>
     </g>
     <g id="text_73">
      <!-- 0.5 -->
      <g transform="translate(141.337187 300.346664)scale(0.1 -0.1)">
       <use xlink:href="#DejaVuSans-8722"/>
       <use x="83.789062" xlink:href="#DejaVuSans-48"/>
       <use x="147.412109" xlink:href="#DejaVuSans-46"/>
       <use x="179.199219" xlink:href="#DejaVuSans-53"/>
      </g>
     </g>
    </g>
    <g id="ytick_3">
     <g id="line2d_145">
      <path clip-path="url(#pb7589a1154)" d="M 172.62 256.720405 
L 1242.864 256.720405 
" style="fill:none;stroke:#b0b0b0;stroke-linecap:square;stroke-width:0.8;"/>
     </g>
     <g id="line2d_146">
      <g>
       <use style="stroke:#000000;stroke-width:0.8;" x="172.62" xlink:href="#me395494ce7" y="256.720405"/>
      </g>
     </g>
     <g id="text_74">
      <!-- 0.4 -->
      <g transform="translate(141.337187 260.519624)scale(0.1 -0.1)">
       <use xlink:href="#DejaVuSans-8722"/>
       <use x="83.789062" xlink:href="#DejaVuSans-48"/>
       <use x="147.412109" xlink:href="#DejaVuSans-46"/>
       <use x="179.199219" xlink:href="#DejaVuSans-52"/>
      </g>
     </g>
    </g>
    <g id="ytick_4">
     <g id="line2d_147">
      <path clip-path="url(#pb7589a1154)" d="M 172.62 216.893364 
L 1242.864 216.893364 
" style="fill:none;stroke:#b0b0b0;stroke-linecap:square;stroke-width:0.8;"/>
     </g>
     <g id="line2d_148">
      <g>
       <use style="stroke:#000000;stroke-width:0.8;" x="172.62" xlink:href="#me395494ce7" y="216.893364"/>
      </g>
     </g>
     <g id="text_75">
      <!-- 0.3 -->
      <g transform="translate(141.337187 220.692583)scale(0.1 -0.1)">
       <use xlink:href="#DejaVuSans-8722"/>
       <use x="83.789062" xlink:href="#DejaVuSans-48"/>
       <use x="147.412109" xlink:href="#DejaVuSans-46"/>
       <use x="179.199219" xlink:href="#DejaVuSans-51"/>
      </g>
     </g>
    </g>
    <g id="ytick_5">
     <g id="line2d_149">
      <path clip-path="url(#pb7589a1154)" d="M 172.62 177.066324 
L 1242.864 177.066324 
" style="fill:none;stroke:#b0b0b0;stroke-linecap:square;stroke-width:0.8;"/>
     </g>
     <g id="line2d_150">
      <g>
       <use style="stroke:#000000;stroke-width:0.8;" x="172.62" xlink:href="#me395494ce7" y="177.066324"/>
      </g>
     </g>
     <g id="text_76">
      <!-- 0.2 -->
      <g transform="translate(141.337187 180.865542)scale(0.1 -0.1)">
       <use xlink:href="#DejaVuSans-8722"/>
       <use x="83.789062" xlink:href="#DejaVuSans-48"/>
       <use x="147.412109" xlink:href="#DejaVuSans-46"/>
       <use x="179.199219" xlink:href="#DejaVuSans-50"/>
      </g>
     </g>
    </g>
    <g id="ytick_6">
     <g id="line2d_151">
      <path clip-path="url(#pb7589a1154)" d="M 172.62 137.239283 
L 1242.864 137.239283 
" style="fill:none;stroke:#b0b0b0;stroke-linecap:square;stroke-width:0.8;"/>
     </g>
     <g id="line2d_152">
      <g>
       <use style="stroke:#000000;stroke-width:0.8;" x="172.62" xlink:href="#me395494ce7" y="137.239283"/>
      </g>
     </g>
     <g id="text_77">
      <!-- 0.1 -->
      <g transform="translate(141.337187 141.038502)scale(0.1 -0.1)">
       <use xlink:href="#DejaVuSans-8722"/>
       <use x="83.789062" xlink:href="#DejaVuSans-48"/>
       <use x="147.412109" xlink:href="#DejaVuSans-46"/>
       <use x="179.199219" xlink:href="#DejaVuSans-49"/>
      </g>
     </g>
    </g>
    <g id="ytick_7">
     <g id="line2d_153">
      <path clip-path="url(#pb7589a1154)" d="M 172.62 97.412242 
L 1242.864 97.412242 
" style="fill:none;stroke:#b0b0b0;stroke-linecap:square;stroke-width:0.8;"/>
     </g>
     <g id="line2d_154">
      <g>
       <use style="stroke:#000000;stroke-width:0.8;" x="172.62" xlink:href="#me395494ce7" y="97.412242"/>
      </g>
     </g>
     <g id="text_78">
      <!-- 0.0 -->
      <g transform="translate(149.716875 101.211461)scale(0.1 -0.1)">
       <use xlink:href="#DejaVuSans-48"/>
       <use x="63.623047" xlink:href="#DejaVuSans-46"/>
       <use x="95.410156" xlink:href="#DejaVuSans-48"/>
      </g>
     </g>
    </g>
    <g id="ytick_8">
     <g id="line2d_155">
      <path clip-path="url(#pb7589a1154)" d="M 172.62 57.585202 
L 1242.864 57.585202 
" style="fill:none;stroke:#b0b0b0;stroke-linecap:square;stroke-width:0.8;"/>
     </g>
     <g id="line2d_156">
      <g>
       <use style="stroke:#000000;stroke-width:0.8;" x="172.62" xlink:href="#me395494ce7" y="57.585202"/>
      </g>
     </g>
     <g id="text_79">
      <!-- 0.1 -->
      <g transform="translate(149.716875 61.38442)scale(0.1 -0.1)">
       <use xlink:href="#DejaVuSans-48"/>
       <use x="63.623047" xlink:href="#DejaVuSans-46"/>
       <use x="95.410156" xlink:href="#DejaVuSans-49"/>
      </g>
     </g>
    </g>
    <g id="text_80">
     <!-- Roll error [mrad] -->
     <defs>
      <path d="M 44.390625 34.1875 
Q 47.5625 33.109375 50.5625 29.59375 
Q 53.5625 26.078125 56.59375 19.921875 
L 66.609375 0 
L 56 0 
L 46.6875 18.703125 
Q 43.0625 26.03125 39.671875 28.421875 
Q 36.28125 30.8125 30.421875 30.8125 
L 19.671875 30.8125 
L 19.671875 0 
L 9.8125 0 
L 9.8125 72.90625 
L 32.078125 72.90625 
Q 44.578125 72.90625 50.734375 67.671875 
Q 56.890625 62.453125 56.890625 51.90625 
Q 56.890625 45.015625 53.6875 40.46875 
Q 50.484375 35.9375 44.390625 34.1875 
z
M 19.671875 64.796875 
L 19.671875 38.921875 
L 32.078125 38.921875 
Q 39.203125 38.921875 42.84375 42.21875 
Q 46.484375 45.515625 46.484375 51.90625 
Q 46.484375 58.296875 42.84375 61.546875 
Q 39.203125 64.796875 32.078125 64.796875 
z
" id="DejaVuSans-82"/>
      <path d="M 30.609375 48.390625 
Q 23.390625 48.390625 19.1875 42.75 
Q 14.984375 37.109375 14.984375 27.296875 
Q 14.984375 17.484375 19.15625 11.84375 
Q 23.34375 6.203125 30.609375 6.203125 
Q 37.796875 6.203125 41.984375 11.859375 
Q 46.1875 17.53125 46.1875 27.296875 
Q 46.1875 37.015625 41.984375 42.703125 
Q 37.796875 48.390625 30.609375 48.390625 
z
M 30.609375 56 
Q 42.328125 56 49.015625 48.375 
Q 55.71875 40.765625 55.71875 27.296875 
Q 55.71875 13.875 49.015625 6.21875 
Q 42.328125 -1.421875 30.609375 -1.421875 
Q 18.84375 -1.421875 12.171875 6.21875 
Q 5.515625 13.875 5.515625 27.296875 
Q 5.515625 40.765625 12.171875 48.375 
Q 18.84375 56 30.609375 56 
z
" id="DejaVuSans-111"/>
      <path d="M 8.59375 75.984375 
L 29.296875 75.984375 
L 29.296875 69 
L 17.578125 69 
L 17.578125 -6.203125 
L 29.296875 -6.203125 
L 29.296875 -13.1875 
L 8.59375 -13.1875 
z
" id="DejaVuSans-91"/>
      <path d="M 45.40625 46.390625 
L 45.40625 75.984375 
L 54.390625 75.984375 
L 54.390625 0 
L 45.40625 0 
L 45.40625 8.203125 
Q 42.578125 3.328125 38.25 0.953125 
Q 33.9375 -1.421875 27.875 -1.421875 
Q 17.96875 -1.421875 11.734375 6.484375 
Q 5.515625 14.40625 5.515625 27.296875 
Q 5.515625 40.1875 11.734375 48.09375 
Q 17.96875 56 27.875 56 
Q 33.9375 56 38.25 53.625 
Q 42.578125 51.265625 45.40625 46.390625 
z
M 14.796875 27.296875 
Q 14.796875 17.390625 18.875 11.75 
Q 22.953125 6.109375 30.078125 6.109375 
Q 37.203125 6.109375 41.296875 11.75 
Q 45.40625 17.390625 45.40625 27.296875 
Q 45.40625 37.203125 41.296875 42.84375 
Q 37.203125 48.484375 30.078125 48.484375 
Q 22.953125 48.484375 18.875 42.84375 
Q 14.796875 37.203125 14.796875 27.296875 
z
" id="DejaVuSans-100"/>
      <path d="M 30.421875 75.984375 
L 30.421875 -13.1875 
L 9.71875 -13.1875 
L 9.71875 -6.203125 
L 21.390625 -6.203125 
L 21.390625 69 
L 9.71875 69 
L 9.71875 75.984375 
z
" id="DejaVuSans-93"/>
     </defs>
     <g transform="translate(135.2575 250.558744)rotate(-90)scale(0.1 -0.1)">
      <use xlink:href="#DejaVuSans-82"/>
      <use x="69.419922" xlink:href="#DejaVuSans-111"/>
      <use x="130.601562" xlink:href="#DejaVuSans-108"/>
      <use x="158.384766" xlink:href="#DejaVuSans-108"/>
      <use x="186.167969" xlink:href="#DejaVuSans-32"/>
      <use x="217.955078" xlink:href="#DejaVuSans-101"/>
      <use x="279.478516" xlink:href="#DejaVuSans-114"/>
      <use x="320.576172" xlink:href="#DejaVuSans-114"/>
      <use x="361.658203" xlink:href="#DejaVuSans-111"/>
      <use x="422.839844" xlink:href="#DejaVuSans-114"/>
      <use x="463.953125" xlink:href="#DejaVuSans-32"/>
      <use x="495.740234" xlink:href="#DejaVuSans-91"/>
      <use x="534.753906" xlink:href="#DejaVuSans-109"/>
      <use x="632.166016" xlink:href="#DejaVuSans-114"/>
      <use x="673.279297" xlink:href="#DejaVuSans-97"/>
      <use x="734.558594" xlink:href="#DejaVuSans-100"/>
      <use x="798.035156" xlink:href="#DejaVuSans-93"/>
     </g>
    </g>
   </g>
   <g id="line2d_157">
    <path clip-path="url(#pb7589a1154)" d="M 221.267455 238.13432 
L 235.368166 308.586097 
L 249.468877 245.121116 
L 263.569589 290.027849 
L 277.6703 283.076597 
L 291.771012 219.52388 
L 305.871723 227.097832 
L 319.972435 249.273126 
L 334.073146 214.218118 
L 348.173858 294.783212 
" style="fill:none;stroke:#0000ff;stroke-linecap:square;stroke-width:1.5;"/>
   </g>
   <g id="line2d_158">
    <defs>
     <path d="M 0 3 
C 0.795609 3 1.55874 2.683901 2.12132 2.12132 
C 2.683901 1.55874 3 0.795609 3 0 
C 3 -0.795609 2.683901 -1.55874 2.12132 -2.12132 
C 1.55874 -2.683901 0.795609 -3 0 -3 
C -0.795609 -3 -1.55874 -2.683901 -2.12132 -2.12132 
C -2.683901 -1.55874 -3 -0.795609 -3 0 
C -3 0.795609 -2.683901 1.55874 -2.12132 2.12132 
C -1.55874 2.683901 -0.795609 3 0 3 
z
" id="mdd6b35d905" style="stroke:#0000ff;"/>
    </defs>
    <g clip-path="url(#pb7589a1154)">
     <use style="fill:#0000ff;stroke:#0000ff;" x="221.267455" xlink:href="#mdd6b35d905" y="238.13432"/>
     <use style="fill:#0000ff;stroke:#0000ff;" x="235.368166" xlink:href="#mdd6b35d905" y="308.586097"/>
     <use style="fill:#0000ff;stroke:#0000ff;" x="249.468877" xlink:href="#mdd6b35d905" y="245.121116"/>
     <use style="fill:#0000ff;stroke:#0000ff;" x="263.569589" xlink:href="#mdd6b35d905" y="290.027849"/>
     <use style="fill:#0000ff;stroke:#0000ff;" x="277.6703" xlink:href="#mdd6b35d905" y="283.076597"/>
     <use style="fill:#0000ff;stroke:#0000ff;" x="291.771012" xlink:href="#mdd6b35d905" y="219.52388"/>
     <use style="fill:#0000ff;stroke:#0000ff;" x="305.871723" xlink:href="#mdd6b35d905" y="227.097832"/>
     <use style="fill:#0000ff;stroke:#0000ff;" x="319.972435" xlink:href="#mdd6b35d905" y="249.273126"/>
     <use style="fill:#0000ff;stroke:#0000ff;" x="334.073146" xlink:href="#mdd6b35d905" y="214.218118"/>
     <use style="fill:#0000ff;stroke:#0000ff;" x="348.173858" xlink:href="#mdd6b35d905" y="294.783212"/>
    </g>
   </g>
   <g id="line2d_159">
    <path clip-path="url(#pb7589a1154)" d="M 221.267455 256.984215 
L 235.368166 256.984215 
L 249.468877 256.984215 
L 263.569589 256.984215 
L 277.6703 256.984215 
L 291.771012 256.984215 
L 305.871723 256.984215 
L 319.972435 256.984215 
L 334.073146 256.984215 
L 348.173858 256.984215 
" style="fill:none;stroke:#0000ff;stroke-dasharray:5.55,2.4;stroke-dashoffset:0;stroke-width:1.5;"/>
   </g>
   <g id="line2d_160">
    <path clip-path="url(#pb7589a1154)" d="M 362.274569 231.637691 
L 376.375281 278.035158 
L 390.475992 234.641959 
L 404.576704 201.19437 
L 418.677415 242.575609 
L 432.778126 180.281701 
L 446.878838 240.903653 
L 460.979549 260.714852 
L 475.080261 212.082453 
L 489.180972 230.6464 
L 503.281684 128.205628 
L 517.382395 227.314577 
L 531.483107 267.349053 
L 545.583818 275.752225 
L 559.68453 261.687582 
L 573.785241 227.114421 
L 587.885953 226.37183 
L 601.986664 194.496047 
L 616.087375 261.64336 
L 630.188087 246.246985 
" style="fill:none;stroke:#008000;stroke-linecap:square;stroke-width:1.5;"/>
   </g>
   <g id="line2d_161">
    <defs>
     <path d="M 0 3 
C 0.795609 3 1.55874 2.683901 2.12132 2.12132 
C 2.683901 1.55874 3 0.795609 3 0 
C 3 -0.795609 2.683901 -1.55874 2.12132 -2.12132 
C 1.55874 -2.683901 0.795609 -3 0 -3 
C -0.795609 -3 -1.55874 -2.683901 -2.12132 -2.12132 
C -2.683901 -1.55874 -3 -0.795609 -3 0 
C -3 0.795609 -2.683901 1.55874 -2.12132 2.12132 
C -1.55874 2.683901 -0.795609 3 0 3 
z
" id="m2800f30503" style="stroke:#008000;"/>
    </defs>
    <g clip-path="url(#pb7589a1154)">
     <use style="fill:#008000;stroke:#008000;" x="362.274569" xlink:href="#m2800f30503" y="231.637691"/>
     <use style="fill:#008000;stroke:#008000;" x="376.375281" xlink:href="#m2800f30503" y="278.035158"/>
     <use style="fill:#008000;stroke:#008000;" x="390.475992" xlink:href="#m2800f30503" y="234.641959"/>
     <use style="fill:#008000;stroke:#008000;" x="404.576704" xlink:href="#m2800f30503" y="201.19437"/>
     <use style="fill:#008000;stroke:#008000;" x="418.677415" xlink:href="#m2800f30503" y="242.575609"/>
     <use style="fill:#008000;stroke:#008000;" x="432.778126" xlink:href="#m2800f30503" y="180.281701"/>
     <use style="fill:#008000;stroke:#008000;" x="446.878838" xlink:href="#m2800f30503" y="240.903653"/>
     <use style="fill:#008000;stroke:#008000;" x="460.979549" xlink:href="#m2800f30503" y="260.714852"/>
     <use style="fill:#008000;stroke:#008000;" x="475.080261" xlink:href="#m2800f30503" y="212.082453"/>
     <use style="fill:#008000;stroke:#008000;" x="489.180972" xlink:href="#m2800f30503" y="230.6464"/>
     <use style="fill:#008000;stroke:#008000;" x="503.281684" xlink:href="#m2800f30503" y="128.205628"/>
     <use style="fill:#008000;stroke:#008000;" x="517.382395" xlink:href="#m2800f30503" y="227.314577"/>
     <use style="fill:#008000;stroke:#008000;" x="531.483107" xlink:href="#m2800f30503" y="267.349053"/>
     <use style="fill:#008000;stroke:#008000;" x="545.583818" xlink:href="#m2800f30503" y="275.752225"/>
     <use style="fill:#008000;stroke:#008000;" x="559.68453" xlink:href="#m2800f30503" y="261.687582"/>
     <use style="fill:#008000;stroke:#008000;" x="573.785241" xlink:href="#m2800f30503" y="227.114421"/>
     <use style="fill:#008000;stroke:#008000;" x="587.885953" xlink:href="#m2800f30503" y="226.37183"/>
     <use style="fill:#008000;stroke:#008000;" x="601.986664" xlink:href="#m2800f30503" y="194.496047"/>
     <use style="fill:#008000;stroke:#008000;" x="616.087375" xlink:href="#m2800f30503" y="261.64336"/>
     <use style="fill:#008000;stroke:#008000;" x="630.188087" xlink:href="#m2800f30503" y="246.246985"/>
    </g>
   </g>
   <g id="line2d_162">
    <path clip-path="url(#pb7589a1154)" d="M 362.274569 231.444778 
L 376.375281 231.444778 
L 390.475992 231.444778 
L 404.576704 231.444778 
L 418.677415 231.444778 
L 432.778126 231.444778 
L 446.878838 231.444778 
L 460.979549 231.444778 
L 475.080261 231.444778 
L 489.180972 231.444778 
L 503.281684 231.444778 
L 517.382395 231.444778 
L 531.483107 231.444778 
L 545.583818 231.444778 
L 559.68453 231.444778 
L 573.785241 231.444778 
L 587.885953 231.444778 
L 601.986664 231.444778 
L 616.087375 231.444778 
L 630.188087 231.444778 
" style="fill:none;stroke:#008000;stroke-dasharray:5.55,2.4;stroke-dashoffset:0;stroke-width:1.5;"/>
   </g>
   <g id="line2d_163">
    <path clip-path="url(#pb7589a1154)" d="M 644.288798 64.0584 
L 658.38951 227.985451 
L 672.490221 247.225536 
L 686.590933 275.256324 
L 700.691644 155.735755 
L 714.792356 307.126538 
L 728.893067 282.981815 
L 742.993779 224.356167 
L 757.09449 287.988364 
L 771.195202 264.879428 
L 785.295913 179.190323 
L 799.396625 163.9222 
L 813.497336 252.747193 
L 827.598047 204.838338 
L 841.698759 226.443351 
L 855.79947 295.752608 
L 869.900182 230.521217 
L 884.000893 274.807331 
L 898.101605 231.33281 
L 912.202316 233.345128 
" style="fill:none;stroke:#ff0000;stroke-linecap:square;stroke-width:1.5;"/>
   </g>
   <g id="line2d_164">
    <defs>
     <path d="M 0 3 
C 0.795609 3 1.55874 2.683901 2.12132 2.12132 
C 2.683901 1.55874 3 0.795609 3 0 
C 3 -0.795609 2.683901 -1.55874 2.12132 -2.12132 
C 1.55874 -2.683901 0.795609 -3 0 -3 
C -0.795609 -3 -1.55874 -2.683901 -2.12132 -2.12132 
C -2.683901 -1.55874 -3 -0.795609 -3 0 
C -3 0.795609 -2.683901 1.55874 -2.12132 2.12132 
C -1.55874 2.683901 -0.795609 3 0 3 
z
" id="ma544a57d91" style="stroke:#ff0000;"/>
    </defs>
    <g clip-path="url(#pb7589a1154)">
     <use style="fill:#ff0000;stroke:#ff0000;" x="644.288798" xlink:href="#ma544a57d91" y="64.0584"/>
     <use style="fill:#ff0000;stroke:#ff0000;" x="658.38951" xlink:href="#ma544a57d91" y="227.985451"/>
     <use style="fill:#ff0000;stroke:#ff0000;" x="672.490221" xlink:href="#ma544a57d91" y="247.225536"/>
     <use style="fill:#ff0000;stroke:#ff0000;" x="686.590933" xlink:href="#ma544a57d91" y="275.256324"/>
     <use style="fill:#ff0000;stroke:#ff0000;" x="700.691644" xlink:href="#ma544a57d91" y="155.735755"/>
     <use style="fill:#ff0000;stroke:#ff0000;" x="714.792356" xlink:href="#ma544a57d91" y="307.126538"/>
     <use style="fill:#ff0000;stroke:#ff0000;" x="728.893067" xlink:href="#ma544a57d91" y="282.981815"/>
     <use style="fill:#ff0000;stroke:#ff0000;" x="742.993779" xlink:href="#ma544a57d91" y="224.356167"/>
     <use style="fill:#ff0000;stroke:#ff0000;" x="757.09449" xlink:href="#ma544a57d91" y="287.988364"/>
     <use style="fill:#ff0000;stroke:#ff0000;" x="771.195202" xlink:href="#ma544a57d91" y="264.879428"/>
     <use style="fill:#ff0000;stroke:#ff0000;" x="785.295913" xlink:href="#ma544a57d91" y="179.190323"/>
     <use style="fill:#ff0000;stroke:#ff0000;" x="799.396625" xlink:href="#ma544a57d91" y="163.9222"/>
     <use style="fill:#ff0000;stroke:#ff0000;" x="813.497336" xlink:href="#ma544a57d91" y="252.747193"/>
     <use style="fill:#ff0000;stroke:#ff0000;" x="827.598047" xlink:href="#ma544a57d91" y="204.838338"/>
     <use style="fill:#ff0000;stroke:#ff0000;" x="841.698759" xlink:href="#ma544a57d91" y="226.443351"/>
     <use style="fill:#ff0000;stroke:#ff0000;" x="855.79947" xlink:href="#ma544a57d91" y="295.752608"/>
     <use style="fill:#ff0000;stroke:#ff0000;" x="869.900182" xlink:href="#ma544a57d91" y="230.521217"/>
     <use style="fill:#ff0000;stroke:#ff0000;" x="884.000893" xlink:href="#ma544a57d91" y="274.807331"/>
     <use style="fill:#ff0000;stroke:#ff0000;" x="898.101605" xlink:href="#ma544a57d91" y="231.33281"/>
     <use style="fill:#ff0000;stroke:#ff0000;" x="912.202316" xlink:href="#ma544a57d91" y="233.345128"/>
    </g>
   </g>
   <g id="line2d_165">
    <path clip-path="url(#pb7589a1154)" d="M 644.288798 231.524714 
L 658.38951 231.524714 
L 672.490221 231.524714 
L 686.590933 231.524714 
L 700.691644 231.524714 
L 714.792356 231.524714 
L 728.893067 231.524714 
L 742.993779 231.524714 
L 757.09449 231.524714 
L 771.195202 231.524714 
L 785.295913 231.524714 
L 799.396625 231.524714 
L 813.497336 231.524714 
L 827.598047 231.524714 
L 841.698759 231.524714 
L 855.79947 231.524714 
L 869.900182 231.524714 
L 884.000893 231.524714 
L 898.101605 231.524714 
L 912.202316 231.524714 
" style="fill:none;stroke:#ff0000;stroke-dasharray:5.55,2.4;stroke-dashoffset:0;stroke-width:1.5;"/>
   </g>
   <g id="line2d_166">
    <path clip-path="url(#pb7589a1154)" d="M 926.303028 231.337371 
L 940.403739 277.257207 
L 954.504451 266.742133 
L 968.605162 275.220762 
L 982.705874 276.979861 
L 996.806585 224.443858 
L 1010.907296 231.08186 
L 1025.008008 206.757908 
L 1039.108719 298.609657 
L 1053.209431 234.631511 
" style="fill:none;stroke:#000000;stroke-linecap:square;stroke-width:1.5;"/>
   </g>
   <g id="line2d_167">
    <defs>
     <path d="M 0 3 
C 0.795609 3 1.55874 2.683901 2.12132 2.12132 
C 2.683901 1.55874 3 0.795609 3 0 
C 3 -0.795609 2.683901 -1.55874 2.12132 -2.12132 
C 1.55874 -2.683901 0.795609 -3 0 -3 
C -0.795609 -3 -1.55874 -2.683901 -2.12132 -2.12132 
C -2.683901 -1.55874 -3 -0.795609 -3 0 
C -3 0.795609 -2.683901 1.55874 -2.12132 2.12132 
C -1.55874 2.683901 -0.795609 3 0 3 
z
" id="m30e03e0e0c" style="stroke:#000000;"/>
    </defs>
    <g clip-path="url(#pb7589a1154)">
     <use style="stroke:#000000;" x="926.303028" xlink:href="#m30e03e0e0c" y="231.337371"/>
     <use style="stroke:#000000;" x="940.403739" xlink:href="#m30e03e0e0c" y="277.257207"/>
     <use style="stroke:#000000;" x="954.504451" xlink:href="#m30e03e0e0c" y="266.742133"/>
     <use style="stroke:#000000;" x="968.605162" xlink:href="#m30e03e0e0c" y="275.220762"/>
     <use style="stroke:#000000;" x="982.705874" xlink:href="#m30e03e0e0c" y="276.979861"/>
     <use style="stroke:#000000;" x="996.806585" xlink:href="#m30e03e0e0c" y="224.443858"/>
     <use style="stroke:#000000;" x="1010.907296" xlink:href="#m30e03e0e0c" y="231.08186"/>
     <use style="stroke:#000000;" x="1025.008008" xlink:href="#m30e03e0e0c" y="206.757908"/>
     <use style="stroke:#000000;" x="1039.108719" xlink:href="#m30e03e0e0c" y="298.609657"/>
     <use style="stroke:#000000;" x="1053.209431" xlink:href="#m30e03e0e0c" y="234.631511"/>
    </g>
   </g>
   <g id="line2d_168">
    <path clip-path="url(#pb7589a1154)" d="M 926.303028 252.306213 
L 940.403739 252.306213 
L 954.504451 252.306213 
L 968.605162 252.306213 
L 982.705874 252.306213 
L 996.806585 252.306213 
L 1010.907296 252.306213 
L 1025.008008 252.306213 
L 1039.108719 252.306213 
L 1053.209431 252.306213 
" style="fill:none;stroke:#000000;stroke-dasharray:5.55,2.4;stroke-dashoffset:0;stroke-width:1.5;"/>
   </g>
   <g id="line2d_169">
    <path clip-path="url(#pb7589a1154)" d="M 1067.310142 268.691313 
L 1081.410854 353.3544 
L 1095.511565 227.149093 
L 1109.612277 230.12129 
L 1123.712988 267.460346 
L 1137.8137 275.2555 
L 1151.914411 276.006281 
L 1166.015123 272.07769 
L 1180.115834 238.46064 
L 1194.216545 237.393779 
" style="fill:none;stroke:#bfbf00;stroke-linecap:square;stroke-width:1.5;"/>
   </g>
   <g id="line2d_170">
    <defs>
     <path d="M 0 3 
C 0.795609 3 1.55874 2.683901 2.12132 2.12132 
C 2.683901 1.55874 3 0.795609 3 0 
C 3 -0.795609 2.683901 -1.55874 2.12132 -2.12132 
C 1.55874 -2.683901 0.795609 -3 0 -3 
C -0.795609 -3 -1.55874 -2.683901 -2.12132 -2.12132 
C -2.683901 -1.55874 -3 -0.795609 -3 0 
C -3 0.795609 -2.683901 1.55874 -2.12132 2.12132 
C -1.55874 2.683901 -0.795609 3 0 3 
z
" id="m6d7104d3cb" style="stroke:#bfbf00;"/>
    </defs>
    <g clip-path="url(#pb7589a1154)">
     <use style="fill:#bfbf00;stroke:#bfbf00;" x="1067.310142" xlink:href="#m6d7104d3cb" y="268.691313"/>
     <use style="fill:#bfbf00;stroke:#bfbf00;" x="1081.410854" xlink:href="#m6d7104d3cb" y="353.3544"/>
     <use style="fill:#bfbf00;stroke:#bfbf00;" x="1095.511565" xlink:href="#m6d7104d3cb" y="227.149093"/>
     <use style="fill:#bfbf00;stroke:#bfbf00;" x="1109.612277" xlink:href="#m6d7104d3cb" y="230.12129"/>
     <use style="fill:#bfbf00;stroke:#bfbf00;" x="1123.712988" xlink:href="#m6d7104d3cb" y="267.460346"/>
     <use style="fill:#bfbf00;stroke:#bfbf00;" x="1137.8137" xlink:href="#m6d7104d3cb" y="275.2555"/>
     <use style="fill:#bfbf00;stroke:#bfbf00;" x="1151.914411" xlink:href="#m6d7104d3cb" y="276.006281"/>
     <use style="fill:#bfbf00;stroke:#bfbf00;" x="1166.015123" xlink:href="#m6d7104d3cb" y="272.07769"/>
     <use style="fill:#bfbf00;stroke:#bfbf00;" x="1180.115834" xlink:href="#m6d7104d3cb" y="238.46064"/>
     <use style="fill:#bfbf00;stroke:#bfbf00;" x="1194.216545" xlink:href="#m6d7104d3cb" y="237.393779"/>
    </g>
   </g>
   <g id="line2d_171">
    <path clip-path="url(#pb7589a1154)" d="M 1067.310142 264.597033 
L 1081.410854 264.597033 
L 1095.511565 264.597033 
L 1109.612277 264.597033 
L 1123.712988 264.597033 
L 1137.8137 264.597033 
L 1151.914411 264.597033 
L 1166.015123 264.597033 
L 1180.115834 264.597033 
L 1194.216545 264.597033 
" style="fill:none;stroke:#bfbf00;stroke-dasharray:5.55,2.4;stroke-dashoffset:0;stroke-width:1.5;"/>
   </g>
   <g id="patch_3">
    <path d="M 172.62 367.8192 
L 172.62 49.5936 
" style="fill:none;stroke:#000000;stroke-linecap:square;stroke-linejoin:miter;stroke-width:0.8;"/>
   </g>
   <g id="patch_4">
    <path d="M 1242.864 367.8192 
L 1242.864 49.5936 
" style="fill:none;stroke:#000000;stroke-linecap:square;stroke-linejoin:miter;stroke-width:0.8;"/>
   </g>
   <g id="patch_5">
    <path d="M 172.62 367.8192 
L 1242.864 367.8192 
" style="fill:none;stroke:#000000;stroke-linecap:square;stroke-linejoin:miter;stroke-width:0.8;"/>
   </g>
   <g id="patch_6">
    <path d="M 172.62 49.5936 
L 1242.864 49.5936 
" style="fill:none;stroke:#000000;stroke-linecap:square;stroke-linejoin:miter;stroke-width:0.8;"/>
   </g>
   <g id="text_81">
    <!-- Q14 Rotation Error (+148.00 A) -->
    <defs>
     <path d="M 39.40625 66.21875 
Q 28.65625 66.21875 22.328125 58.203125 
Q 16.015625 50.203125 16.015625 36.375 
Q 16.015625 22.609375 22.328125 14.59375 
Q 28.65625 6.59375 39.40625 6.59375 
Q 50.140625 6.59375 56.421875 14.59375 
Q 62.703125 22.609375 62.703125 36.375 
Q 62.703125 50.203125 56.421875 58.203125 
Q 50.140625 66.21875 39.40625 66.21875 
z
M 53.21875 1.3125 
L 66.21875 -12.890625 
L 54.296875 -12.890625 
L 43.5 -1.21875 
Q 41.890625 -1.3125 41.03125 -1.359375 
Q 40.1875 -1.421875 39.40625 -1.421875 
Q 24.03125 -1.421875 14.8125 8.859375 
Q 5.609375 19.140625 5.609375 36.375 
Q 5.609375 53.65625 14.8125 63.9375 
Q 24.03125 74.21875 39.40625 74.21875 
Q 54.734375 74.21875 63.90625 63.9375 
Q 73.09375 53.65625 73.09375 36.375 
Q 73.09375 23.6875 67.984375 14.640625 
Q 62.890625 5.609375 53.21875 1.3125 
z
" id="DejaVuSans-81"/>
     <path d="M 18.3125 70.21875 
L 18.3125 54.6875 
L 36.8125 54.6875 
L 36.8125 47.703125 
L 18.3125 47.703125 
L 18.3125 18.015625 
Q 18.3125 11.328125 20.140625 9.421875 
Q 21.96875 7.515625 27.59375 7.515625 
L 36.8125 7.515625 
L 36.8125 0 
L 27.59375 0 
Q 17.1875 0 13.234375 3.875 
Q 9.28125 7.765625 9.28125 18.015625 
L 9.28125 47.703125 
L 2.6875 47.703125 
L 2.6875 54.6875 
L 9.28125 54.6875 
L 9.28125 70.21875 
z
" id="DejaVuSans-116"/>
     <path d="M 54.890625 33.015625 
L 54.890625 0 
L 45.90625 0 
L 45.90625 32.71875 
Q 45.90625 40.484375 42.875 44.328125 
Q 39.84375 48.1875 33.796875 48.1875 
Q 26.515625 48.1875 22.3125 43.546875 
Q 18.109375 38.921875 18.109375 30.90625 
L 18.109375 0 
L 9.078125 0 
L 9.078125 54.6875 
L 18.109375 54.6875 
L 18.109375 46.1875 
Q 21.34375 51.125 25.703125 53.5625 
Q 30.078125 56 35.796875 56 
Q 45.21875 56 50.046875 50.171875 
Q 54.890625 44.34375 54.890625 33.015625 
z
" id="DejaVuSans-110"/>
     <path d="M 9.8125 72.90625 
L 55.90625 72.90625 
L 55.90625 64.59375 
L 19.671875 64.59375 
L 19.671875 43.015625 
L 54.390625 43.015625 
L 54.390625 34.71875 
L 19.671875 34.71875 
L 19.671875 8.296875 
L 56.78125 8.296875 
L 56.78125 0 
L 9.8125 0 
z
" id="DejaVuSans-69"/>
     <path d="M 31 75.875 
Q 24.46875 64.65625 21.28125 53.65625 
Q 18.109375 42.671875 18.109375 31.390625 
Q 18.109375 20.125 21.3125 9.0625 
Q 24.515625 -2 31 -13.1875 
L 23.1875 -13.1875 
Q 15.875 -1.703125 12.234375 9.375 
Q 8.59375 20.453125 8.59375 31.390625 
Q 8.59375 42.28125 12.203125 53.3125 
Q 15.828125 64.359375 23.1875 75.875 
z
" id="DejaVuSans-40"/>
     <path d="M 46 62.703125 
L 46 35.5 
L 73.1875 35.5 
L 73.1875 27.203125 
L 46 27.203125 
L 46 0 
L 37.796875 0 
L 37.796875 27.203125 
L 10.59375 27.203125 
L 10.59375 35.5 
L 37.796875 35.5 
L 37.796875 62.703125 
z
" id="DejaVuSans-43"/>
     <path d="M 34.1875 63.1875 
L 20.796875 26.90625 
L 47.609375 26.90625 
z
M 28.609375 72.90625 
L 39.796875 72.90625 
L 67.578125 0 
L 57.328125 0 
L 50.6875 18.703125 
L 17.828125 18.703125 
L 11.1875 0 
L 0.78125 0 
z
" id="DejaVuSans-65"/>
     <path d="M 8.015625 75.875 
L 15.828125 75.875 
Q 23.140625 64.359375 26.78125 53.3125 
Q 30.421875 42.28125 30.421875 31.390625 
Q 30.421875 20.453125 26.78125 9.375 
Q 23.140625 -1.703125 15.828125 -13.1875 
L 8.015625 -13.1875 
Q 14.5 -2 17.703125 9.0625 
Q 20.90625 20.125 20.90625 31.390625 
Q 20.90625 42.671875 17.703125 53.65625 
Q 14.5 64.65625 8.015625 75.875 
z
" id="DejaVuSans-41"/>
    </defs>
    <g transform="translate(612.730125 43.5936)scale(0.12 -0.12)">
     <use xlink:href="#DejaVuSans-81"/>
     <use x="78.710938" xlink:href="#DejaVuSans-49"/>
     <use x="142.333984" xlink:href="#DejaVuSans-52"/>
     <use x="205.957031" xlink:href="#DejaVuSans-32"/>
     <use x="237.744141" xlink:href="#DejaVuSans-82"/>
     <use x="307.164062" xlink:href="#DejaVuSans-111"/>
     <use x="368.345703" xlink:href="#DejaVuSans-116"/>
     <use x="407.554688" xlink:href="#DejaVuSans-97"/>
     <use x="468.833984" xlink:href="#DejaVuSans-116"/>
     <use x="508.042969" xlink:href="#DejaVuSans-105"/>
     <use x="535.826172" xlink:href="#DejaVuSans-111"/>
     <use x="597.007812" xlink:href="#DejaVuSans-110"/>
     <use x="660.386719" xlink:href="#DejaVuSans-32"/>
     <use x="692.173828" xlink:href="#DejaVuSans-69"/>
     <use x="755.357422" xlink:href="#DejaVuSans-114"/>
     <use x="796.455078" xlink:href="#DejaVuSans-114"/>
     <use x="837.537109" xlink:href="#DejaVuSans-111"/>
     <use x="898.71875" xlink:href="#DejaVuSans-114"/>
     <use x="939.832031" xlink:href="#DejaVuSans-32"/>
     <use x="971.619141" xlink:href="#DejaVuSans-40"/>
     <use x="1010.632812" xlink:href="#DejaVuSans-43"/>
     <use x="1094.421875" xlink:href="#DejaVuSans-49"/>
     <use x="1158.044922" xlink:href="#DejaVuSans-52"/>
     <use x="1221.667969" xlink:href="#DejaVuSans-56"/>
     <use x="1285.291016" xlink:href="#DejaVuSans-46"/>
     <use x="1317.078125" xlink:href="#DejaVuSans-48"/>
     <use x="1380.701172" xlink:href="#DejaVuSans-48"/>
     <use x="1444.324219" xlink:href="#DejaVuSans-32"/>
     <use x="1476.111328" xlink:href="#DejaVuSans-65"/>
     <use x="1544.519531" xlink:href="#DejaVuSans-41"/>
    </g>
   </g>
   <g id="legend_1">
    <g id="patch_7">
     <path d="M 1175.068688 130.984225 
L 1235.864 130.984225 
Q 1237.864 130.984225 1237.864 128.984225 
L 1237.864 56.5936 
Q 1237.864 54.5936 1235.864 54.5936 
L 1175.068688 54.5936 
Q 1173.068688 54.5936 1173.068688 56.5936 
L 1173.068688 128.984225 
Q 1173.068688 130.984225 1175.068688 130.984225 
z
" style="fill:#ffffff;opacity:0.8;stroke:#cccccc;stroke-linejoin:miter;"/>
    </g>
    <g id="line2d_172"/>
    <g id="line2d_173">
     <g>
      <use style="fill:#0000ff;stroke:#0000ff;" x="1187.068688" xlink:href="#mdd6b35d905" y="62.692037"/>
     </g>
    </g>
    <g id="text_82">
     <!-- QDA -->
     <defs>
      <path d="M 19.671875 64.796875 
L 19.671875 8.109375 
L 31.59375 8.109375 
Q 46.6875 8.109375 53.6875 14.9375 
Q 60.6875 21.78125 60.6875 36.53125 
Q 60.6875 51.171875 53.6875 57.984375 
Q 46.6875 64.796875 31.59375 64.796875 
z
M 9.8125 72.90625 
L 30.078125 72.90625 
Q 51.265625 72.90625 61.171875 64.09375 
Q 71.09375 55.28125 71.09375 36.53125 
Q 71.09375 17.671875 61.125 8.828125 
Q 51.171875 0 30.078125 0 
L 9.8125 0 
z
" id="DejaVuSans-68"/>
     </defs>
     <g transform="translate(1205.068688 66.192037)scale(0.1 -0.1)">
      <use xlink:href="#DejaVuSans-81"/>
      <use x="78.710938" xlink:href="#DejaVuSans-68"/>
      <use x="155.697266" xlink:href="#DejaVuSans-65"/>
     </g>
    </g>
    <g id="line2d_174"/>
    <g id="line2d_175">
     <g>
      <use style="fill:#008000;stroke:#008000;" x="1187.068688" xlink:href="#m2800f30503" y="77.370162"/>
     </g>
    </g>
    <g id="text_83">
     <!-- QDB1 -->
     <defs>
      <path d="M 19.671875 34.8125 
L 19.671875 8.109375 
L 35.5 8.109375 
Q 43.453125 8.109375 47.28125 11.40625 
Q 51.125 14.703125 51.125 21.484375 
Q 51.125 28.328125 47.28125 31.5625 
Q 43.453125 34.8125 35.5 34.8125 
z
M 19.671875 64.796875 
L 19.671875 42.828125 
L 34.28125 42.828125 
Q 41.5 42.828125 45.03125 45.53125 
Q 48.578125 48.25 48.578125 53.8125 
Q 48.578125 59.328125 45.03125 62.0625 
Q 41.5 64.796875 34.28125 64.796875 
z
M 9.8125 72.90625 
L 35.015625 72.90625 
Q 46.296875 72.90625 52.390625 68.21875 
Q 58.5 63.53125 58.5 54.890625 
Q 58.5 48.1875 55.375 44.234375 
Q 52.25 40.28125 46.1875 39.3125 
Q 53.46875 37.75 57.5 32.78125 
Q 61.53125 27.828125 61.53125 20.40625 
Q 61.53125 10.640625 54.890625 5.3125 
Q 48.25 0 35.984375 0 
L 9.8125 0 
z
" id="DejaVuSans-66"/>
     </defs>
     <g transform="translate(1205.068688 80.870162)scale(0.1 -0.1)">
      <use xlink:href="#DejaVuSans-81"/>
      <use x="78.710938" xlink:href="#DejaVuSans-68"/>
      <use x="155.712891" xlink:href="#DejaVuSans-66"/>
      <use x="224.316406" xlink:href="#DejaVuSans-49"/>
     </g>
    </g>
    <g id="line2d_176"/>
    <g id="line2d_177">
     <g>
      <use style="fill:#ff0000;stroke:#ff0000;" x="1187.068688" xlink:href="#ma544a57d91" y="92.048287"/>
     </g>
    </g>
    <g id="text_84">
     <!-- QDB2 -->
     <g transform="translate(1205.068688 95.548287)scale(0.1 -0.1)">
      <use xlink:href="#DejaVuSans-81"/>
      <use x="78.710938" xlink:href="#DejaVuSans-68"/>
      <use x="155.712891" xlink:href="#DejaVuSans-66"/>
      <use x="224.316406" xlink:href="#DejaVuSans-50"/>
     </g>
    </g>
    <g id="line2d_178"/>
    <g id="line2d_179">
     <g>
      <use style="stroke:#000000;" x="1187.068688" xlink:href="#m30e03e0e0c" y="106.726412"/>
     </g>
    </g>
    <g id="text_85">
     <!-- QDP1 -->
     <defs>
      <path d="M 19.671875 64.796875 
L 19.671875 37.40625 
L 32.078125 37.40625 
Q 38.96875 37.40625 42.71875 40.96875 
Q 46.484375 44.53125 46.484375 51.125 
Q 46.484375 57.671875 42.71875 61.234375 
Q 38.96875 64.796875 32.078125 64.796875 
z
M 9.8125 72.90625 
L 32.078125 72.90625 
Q 44.34375 72.90625 50.609375 67.359375 
Q 56.890625 61.8125 56.890625 51.125 
Q 56.890625 40.328125 50.609375 34.8125 
Q 44.34375 29.296875 32.078125 29.296875 
L 19.671875 29.296875 
L 19.671875 0 
L 9.8125 0 
z
" id="DejaVuSans-80"/>
     </defs>
     <g transform="translate(1205.068688 110.226412)scale(0.1 -0.1)">
      <use xlink:href="#DejaVuSans-81"/>
      <use x="78.710938" xlink:href="#DejaVuSans-68"/>
      <use x="155.712891" xlink:href="#DejaVuSans-80"/>
      <use x="216.015625" xlink:href="#DejaVuSans-49"/>
     </g>
    </g>
    <g id="line2d_180"/>
    <g id="line2d_181">
     <g>
      <use style="fill:#bfbf00;stroke:#bfbf00;" x="1187.068688" xlink:href="#m6d7104d3cb" y="121.404538"/>
     </g>
    </g>
    <g id="text_86">
     <!-- QDP2 -->
     <g transform="translate(1205.068688 124.904538)scale(0.1 -0.1)">
      <use xlink:href="#DejaVuSans-81"/>
      <use x="78.710938" xlink:href="#DejaVuSans-68"/>
      <use x="155.712891" xlink:href="#DejaVuSans-80"/>
      <use x="216.015625" xlink:href="#DejaVuSans-50"/>
     </g>
    </g>
   </g>
  </g>
 </g>
 <defs>
  <clipPath id="pb7589a1154">
   <rect height="318.2256" width="1070.244" x="172.62" y="49.5936"/>
  </clipPath>
 </defs>
</svg>
