<?xml version="1.0" encoding="utf-8" standalone="no"?>
<!DOCTYPE svg PUBLIC "-//W3C//DTD SVG 1.1//EN"
  "http://www.w3.org/Graphics/SVG/1.1/DTD/svg11.dtd">
<!-- Created with matplotlib (https://matplotlib.org/) -->
<svg height="411.84pt" version="1.1" viewBox="0 0 1380.96 411.84" width="1380.96pt" xmlns="http://www.w3.org/2000/svg" xmlns:xlink="http://www.w3.org/1999/xlink">
 <defs>
  <style type="text/css">
*{stroke-linecap:butt;stroke-linejoin:round;}
  </style>
 </defs>
 <g id="figure_1">
  <g id="patch_1">
   <path d="M 0 411.84 
L 1380.96 411.84 
L 1380.96 0 
L 0 0 
z
" style="fill:#ffffff;"/>
  </g>
  <g id="axes_1">
   <g id="patch_2">
    <path d="M 172.62 366.5376 
L 1242.864 366.5376 
L 1242.864 49.4208 
L 172.62 49.4208 
z
" style="fill:#ffffff;"/>
   </g>
   <g id="matplotlib.axis_1">
    <g id="xtick_1">
     <g id="line2d_1">
      <path clip-path="url(#p73e5ca6eec)" d="M 221.267455 366.5376 
L 221.267455 49.4208 
" style="fill:none;stroke:#b0b0b0;stroke-linecap:square;stroke-width:0.8;"/>
     </g>
     <g id="line2d_2">
      <defs>
       <path d="M 0 0 
L 0 3.5 
" id="mfe118a61c1" style="stroke:#000000;stroke-width:0.8;"/>
      </defs>
      <g>
       <use style="stroke:#000000;stroke-width:0.8;" x="221.267455" xlink:href="#mfe118a61c1" y="366.5376"/>
      </g>
     </g>
     <g id="text_1">
      <!-- 0 -->
      <defs>
       <path d="M 31.78125 66.40625 
Q 24.171875 66.40625 20.328125 58.90625 
Q 16.5 51.421875 16.5 36.375 
Q 16.5 21.390625 20.328125 13.890625 
Q 24.171875 6.390625 31.78125 6.390625 
Q 39.453125 6.390625 43.28125 13.890625 
Q 47.125 21.390625 47.125 36.375 
Q 47.125 51.421875 43.28125 58.90625 
Q 39.453125 66.40625 31.78125 66.40625 
z
M 31.78125 74.21875 
Q 44.046875 74.21875 50.515625 64.515625 
Q 56.984375 54.828125 56.984375 36.375 
Q 56.984375 17.96875 50.515625 8.265625 
Q 44.046875 -1.421875 31.78125 -1.421875 
Q 19.53125 -1.421875 13.0625 8.265625 
Q 6.59375 17.96875 6.59375 36.375 
Q 6.59375 54.828125 13.0625 64.515625 
Q 19.53125 74.21875 31.78125 74.21875 
z
" id="DejaVuSans-48"/>
      </defs>
      <g transform="translate(218.086205 381.136037)scale(0.1 -0.1)">
       <use xlink:href="#DejaVuSans-48"/>
      </g>
     </g>
    </g>
    <g id="xtick_2">
     <g id="line2d_3">
      <path clip-path="url(#p73e5ca6eec)" d="M 365.194835 366.5376 
L 365.194835 49.4208 
" style="fill:none;stroke:#b0b0b0;stroke-linecap:square;stroke-width:0.8;"/>
     </g>
     <g id="line2d_4">
      <g>
       <use style="stroke:#000000;stroke-width:0.8;" x="365.194835" xlink:href="#mfe118a61c1" y="366.5376"/>
      </g>
     </g>
     <g id="text_2">
      <!-- 25 -->
      <defs>
       <path d="M 19.1875 8.296875 
L 53.609375 8.296875 
L 53.609375 0 
L 7.328125 0 
L 7.328125 8.296875 
Q 12.9375 14.109375 22.625 23.890625 
Q 32.328125 33.6875 34.8125 36.53125 
Q 39.546875 41.84375 41.421875 45.53125 
Q 43.3125 49.21875 43.3125 52.78125 
Q 43.3125 58.59375 39.234375 62.25 
Q 35.15625 65.921875 28.609375 65.921875 
Q 23.96875 65.921875 18.8125 64.3125 
Q 13.671875 62.703125 7.8125 59.421875 
L 7.8125 69.390625 
Q 13.765625 71.78125 18.9375 73 
Q 24.125 74.21875 28.421875 74.21875 
Q 39.75 74.21875 46.484375 68.546875 
Q 53.21875 62.890625 53.21875 53.421875 
Q 53.21875 48.921875 51.53125 44.890625 
Q 49.859375 40.875 45.40625 35.40625 
Q 44.1875 33.984375 37.640625 27.21875 
Q 31.109375 20.453125 19.1875 8.296875 
z
" id="DejaVuSans-50"/>
       <path d="M 10.796875 72.90625 
L 49.515625 72.90625 
L 49.515625 64.59375 
L 19.828125 64.59375 
L 19.828125 46.734375 
Q 21.96875 47.46875 24.109375 47.828125 
Q 26.265625 48.1875 28.421875 48.1875 
Q 40.625 48.1875 47.75 41.5 
Q 54.890625 34.8125 54.890625 23.390625 
Q 54.890625 11.625 47.5625 5.09375 
Q 40.234375 -1.421875 26.90625 -1.421875 
Q 22.3125 -1.421875 17.546875 -0.640625 
Q 12.796875 0.140625 7.71875 1.703125 
L 7.71875 11.625 
Q 12.109375 9.234375 16.796875 8.0625 
Q 21.484375 6.890625 26.703125 6.890625 
Q 35.15625 6.890625 40.078125 11.328125 
Q 45.015625 15.765625 45.015625 23.390625 
Q 45.015625 31 40.078125 35.4375 
Q 35.15625 39.890625 26.703125 39.890625 
Q 22.75 39.890625 18.8125 39.015625 
Q 14.890625 38.140625 10.796875 36.28125 
z
" id="DejaVuSans-53"/>
      </defs>
      <g transform="translate(358.832335 381.136037)scale(0.1 -0.1)">
       <use xlink:href="#DejaVuSans-50"/>
       <use x="63.623047" xlink:href="#DejaVuSans-53"/>
      </g>
     </g>
    </g>
    <g id="xtick_3">
     <g id="line2d_5">
      <path clip-path="url(#p73e5ca6eec)" d="M 509.122215 366.5376 
L 509.122215 49.4208 
" style="fill:none;stroke:#b0b0b0;stroke-linecap:square;stroke-width:0.8;"/>
     </g>
     <g id="line2d_6">
      <g>
       <use style="stroke:#000000;stroke-width:0.8;" x="509.122215" xlink:href="#mfe118a61c1" y="366.5376"/>
      </g>
     </g>
     <g id="text_3">
      <!-- 50 -->
      <g transform="translate(502.759715 381.136037)scale(0.1 -0.1)">
       <use xlink:href="#DejaVuSans-53"/>
       <use x="63.623047" xlink:href="#DejaVuSans-48"/>
      </g>
     </g>
    </g>
    <g id="xtick_4">
     <g id="line2d_7">
      <path clip-path="url(#p73e5ca6eec)" d="M 653.049595 366.5376 
L 653.049595 49.4208 
" style="fill:none;stroke:#b0b0b0;stroke-linecap:square;stroke-width:0.8;"/>
     </g>
     <g id="line2d_8">
      <g>
       <use style="stroke:#000000;stroke-width:0.8;" x="653.049595" xlink:href="#mfe118a61c1" y="366.5376"/>
      </g>
     </g>
     <g id="text_4">
      <!-- 75 -->
      <defs>
       <path d="M 8.203125 72.90625 
L 55.078125 72.90625 
L 55.078125 68.703125 
L 28.609375 0 
L 18.3125 0 
L 43.21875 64.59375 
L 8.203125 64.59375 
z
" id="DejaVuSans-55"/>
      </defs>
      <g transform="translate(646.687095 381.136037)scale(0.1 -0.1)">
       <use xlink:href="#DejaVuSans-55"/>
       <use x="63.623047" xlink:href="#DejaVuSans-53"/>
      </g>
     </g>
    </g>
    <g id="xtick_5">
     <g id="line2d_9">
      <path clip-path="url(#p73e5ca6eec)" d="M 796.976976 366.5376 
L 796.976976 49.4208 
" style="fill:none;stroke:#b0b0b0;stroke-linecap:square;stroke-width:0.8;"/>
     </g>
     <g id="line2d_10">
      <g>
       <use style="stroke:#000000;stroke-width:0.8;" x="796.976976" xlink:href="#mfe118a61c1" y="366.5376"/>
      </g>
     </g>
     <g id="text_5">
      <!-- 100 -->
      <defs>
       <path d="M 12.40625 8.296875 
L 28.515625 8.296875 
L 28.515625 63.921875 
L 10.984375 60.40625 
L 10.984375 69.390625 
L 28.421875 72.90625 
L 38.28125 72.90625 
L 38.28125 8.296875 
L 54.390625 8.296875 
L 54.390625 0 
L 12.40625 0 
z
" id="DejaVuSans-49"/>
      </defs>
      <g transform="translate(787.433226 381.136037)scale(0.1 -0.1)">
       <use xlink:href="#DejaVuSans-49"/>
       <use x="63.623047" xlink:href="#DejaVuSans-48"/>
       <use x="127.246094" xlink:href="#DejaVuSans-48"/>
      </g>
     </g>
    </g>
    <g id="xtick_6">
     <g id="line2d_11">
      <path clip-path="url(#p73e5ca6eec)" d="M 940.904356 366.5376 
L 940.904356 49.4208 
" style="fill:none;stroke:#b0b0b0;stroke-linecap:square;stroke-width:0.8;"/>
     </g>
     <g id="line2d_12">
      <g>
       <use style="stroke:#000000;stroke-width:0.8;" x="940.904356" xlink:href="#mfe118a61c1" y="366.5376"/>
      </g>
     </g>
     <g id="text_6">
      <!-- 125 -->
      <g transform="translate(931.360606 381.136037)scale(0.1 -0.1)">
       <use xlink:href="#DejaVuSans-49"/>
       <use x="63.623047" xlink:href="#DejaVuSans-50"/>
       <use x="127.246094" xlink:href="#DejaVuSans-53"/>
      </g>
     </g>
    </g>
    <g id="xtick_7">
     <g id="line2d_13">
      <path clip-path="url(#p73e5ca6eec)" d="M 1084.831736 366.5376 
L 1084.831736 49.4208 
" style="fill:none;stroke:#b0b0b0;stroke-linecap:square;stroke-width:0.8;"/>
     </g>
     <g id="line2d_14">
      <g>
       <use style="stroke:#000000;stroke-width:0.8;" x="1084.831736" xlink:href="#mfe118a61c1" y="366.5376"/>
      </g>
     </g>
     <g id="text_7">
      <!-- 150 -->
      <g transform="translate(1075.287986 381.136037)scale(0.1 -0.1)">
       <use xlink:href="#DejaVuSans-49"/>
       <use x="63.623047" xlink:href="#DejaVuSans-53"/>
       <use x="127.246094" xlink:href="#DejaVuSans-48"/>
      </g>
     </g>
    </g>
    <g id="xtick_8">
     <g id="line2d_15">
      <path clip-path="url(#p73e5ca6eec)" d="M 1228.759117 366.5376 
L 1228.759117 49.4208 
" style="fill:none;stroke:#b0b0b0;stroke-linecap:square;stroke-width:0.8;"/>
     </g>
     <g id="line2d_16">
      <g>
       <use style="stroke:#000000;stroke-width:0.8;" x="1228.759117" xlink:href="#mfe118a61c1" y="366.5376"/>
      </g>
     </g>
     <g id="text_8">
      <!-- 175 -->
      <g transform="translate(1219.215367 381.136037)scale(0.1 -0.1)">
       <use xlink:href="#DejaVuSans-49"/>
       <use x="63.623047" xlink:href="#DejaVuSans-55"/>
       <use x="127.246094" xlink:href="#DejaVuSans-53"/>
      </g>
     </g>
    </g>
    <g id="text_9">
     <!-- Magnet Index -->
     <defs>
      <path d="M 9.8125 72.90625 
L 24.515625 72.90625 
L 43.109375 23.296875 
L 61.8125 72.90625 
L 76.515625 72.90625 
L 76.515625 0 
L 66.890625 0 
L 66.890625 64.015625 
L 48.09375 14.015625 
L 38.1875 14.015625 
L 19.390625 64.015625 
L 19.390625 0 
L 9.8125 0 
z
" id="DejaVuSans-77"/>
      <path d="M 34.28125 27.484375 
Q 23.390625 27.484375 19.1875 25 
Q 14.984375 22.515625 14.984375 16.5 
Q 14.984375 11.71875 18.140625 8.90625 
Q 21.296875 6.109375 26.703125 6.109375 
Q 34.1875 6.109375 38.703125 11.40625 
Q 43.21875 16.703125 43.21875 25.484375 
L 43.21875 27.484375 
z
M 52.203125 31.203125 
L 52.203125 0 
L 43.21875 0 
L 43.21875 8.296875 
Q 40.140625 3.328125 35.546875 0.953125 
Q 30.953125 -1.421875 24.3125 -1.421875 
Q 15.921875 -1.421875 10.953125 3.296875 
Q 6 8.015625 6 15.921875 
Q 6 25.140625 12.171875 29.828125 
Q 18.359375 34.515625 30.609375 34.515625 
L 43.21875 34.515625 
L 43.21875 35.40625 
Q 43.21875 41.609375 39.140625 45 
Q 35.0625 48.390625 27.6875 48.390625 
Q 23 48.390625 18.546875 47.265625 
Q 14.109375 46.140625 10.015625 43.890625 
L 10.015625 52.203125 
Q 14.9375 54.109375 19.578125 55.046875 
Q 24.21875 56 28.609375 56 
Q 40.484375 56 46.34375 49.84375 
Q 52.203125 43.703125 52.203125 31.203125 
z
" id="DejaVuSans-97"/>
      <path d="M 45.40625 27.984375 
Q 45.40625 37.75 41.375 43.109375 
Q 37.359375 48.484375 30.078125 48.484375 
Q 22.859375 48.484375 18.828125 43.109375 
Q 14.796875 37.75 14.796875 27.984375 
Q 14.796875 18.265625 18.828125 12.890625 
Q 22.859375 7.515625 30.078125 7.515625 
Q 37.359375 7.515625 41.375 12.890625 
Q 45.40625 18.265625 45.40625 27.984375 
z
M 54.390625 6.78125 
Q 54.390625 -7.171875 48.1875 -13.984375 
Q 42 -20.796875 29.203125 -20.796875 
Q 24.46875 -20.796875 20.265625 -20.09375 
Q 16.0625 -19.390625 12.109375 -17.921875 
L 12.109375 -9.1875 
Q 16.0625 -11.328125 19.921875 -12.34375 
Q 23.78125 -13.375 27.78125 -13.375 
Q 36.625 -13.375 41.015625 -8.765625 
Q 45.40625 -4.15625 45.40625 5.171875 
L 45.40625 9.625 
Q 42.625 4.78125 38.28125 2.390625 
Q 33.9375 0 27.875 0 
Q 17.828125 0 11.671875 7.65625 
Q 5.515625 15.328125 5.515625 27.984375 
Q 5.515625 40.671875 11.671875 48.328125 
Q 17.828125 56 27.875 56 
Q 33.9375 56 38.28125 53.609375 
Q 42.625 51.21875 45.40625 46.390625 
L 45.40625 54.6875 
L 54.390625 54.6875 
z
" id="DejaVuSans-103"/>
      <path d="M 54.890625 33.015625 
L 54.890625 0 
L 45.90625 0 
L 45.90625 32.71875 
Q 45.90625 40.484375 42.875 44.328125 
Q 39.84375 48.1875 33.796875 48.1875 
Q 26.515625 48.1875 22.3125 43.546875 
Q 18.109375 38.921875 18.109375 30.90625 
L 18.109375 0 
L 9.078125 0 
L 9.078125 54.6875 
L 18.109375 54.6875 
L 18.109375 46.1875 
Q 21.34375 51.125 25.703125 53.5625 
Q 30.078125 56 35.796875 56 
Q 45.21875 56 50.046875 50.171875 
Q 54.890625 44.34375 54.890625 33.015625 
z
" id="DejaVuSans-110"/>
      <path d="M 56.203125 29.59375 
L 56.203125 25.203125 
L 14.890625 25.203125 
Q 15.484375 15.921875 20.484375 11.0625 
Q 25.484375 6.203125 34.421875 6.203125 
Q 39.59375 6.203125 44.453125 7.46875 
Q 49.3125 8.734375 54.109375 11.28125 
L 54.109375 2.78125 
Q 49.265625 0.734375 44.1875 -0.34375 
Q 39.109375 -1.421875 33.890625 -1.421875 
Q 20.796875 -1.421875 13.15625 6.1875 
Q 5.515625 13.8125 5.515625 26.8125 
Q 5.515625 40.234375 12.765625 48.109375 
Q 20.015625 56 32.328125 56 
Q 43.359375 56 49.78125 48.890625 
Q 56.203125 41.796875 56.203125 29.59375 
z
M 47.21875 32.234375 
Q 47.125 39.59375 43.09375 43.984375 
Q 39.0625 48.390625 32.421875 48.390625 
Q 24.90625 48.390625 20.390625 44.140625 
Q 15.875 39.890625 15.1875 32.171875 
z
" id="DejaVuSans-101"/>
      <path d="M 18.3125 70.21875 
L 18.3125 54.6875 
L 36.8125 54.6875 
L 36.8125 47.703125 
L 18.3125 47.703125 
L 18.3125 18.015625 
Q 18.3125 11.328125 20.140625 9.421875 
Q 21.96875 7.515625 27.59375 7.515625 
L 36.8125 7.515625 
L 36.8125 0 
L 27.59375 0 
Q 17.1875 0 13.234375 3.875 
Q 9.28125 7.765625 9.28125 18.015625 
L 9.28125 47.703125 
L 2.6875 47.703125 
L 2.6875 54.6875 
L 9.28125 54.6875 
L 9.28125 70.21875 
z
" id="DejaVuSans-116"/>
      <path id="DejaVuSans-32"/>
      <path d="M 9.8125 72.90625 
L 19.671875 72.90625 
L 19.671875 0 
L 9.8125 0 
z
" id="DejaVuSans-73"/>
      <path d="M 45.40625 46.390625 
L 45.40625 75.984375 
L 54.390625 75.984375 
L 54.390625 0 
L 45.40625 0 
L 45.40625 8.203125 
Q 42.578125 3.328125 38.25 0.953125 
Q 33.9375 -1.421875 27.875 -1.421875 
Q 17.96875 -1.421875 11.734375 6.484375 
Q 5.515625 14.40625 5.515625 27.296875 
Q 5.515625 40.1875 11.734375 48.09375 
Q 17.96875 56 27.875 56 
Q 33.9375 56 38.25 53.625 
Q 42.578125 51.265625 45.40625 46.390625 
z
M 14.796875 27.296875 
Q 14.796875 17.390625 18.875 11.75 
Q 22.953125 6.109375 30.078125 6.109375 
Q 37.203125 6.109375 41.296875 11.75 
Q 45.40625 17.390625 45.40625 27.296875 
Q 45.40625 37.203125 41.296875 42.84375 
Q 37.203125 48.484375 30.078125 48.484375 
Q 22.953125 48.484375 18.875 42.84375 
Q 14.796875 37.203125 14.796875 27.296875 
z
" id="DejaVuSans-100"/>
      <path d="M 54.890625 54.6875 
L 35.109375 28.078125 
L 55.90625 0 
L 45.3125 0 
L 29.390625 21.484375 
L 13.484375 0 
L 2.875 0 
L 24.125 28.609375 
L 4.6875 54.6875 
L 15.28125 54.6875 
L 29.78125 35.203125 
L 44.28125 54.6875 
z
" id="DejaVuSans-120"/>
     </defs>
     <g transform="translate(673.542 394.814163)scale(0.1 -0.1)">
      <use xlink:href="#DejaVuSans-77"/>
      <use x="86.279297" xlink:href="#DejaVuSans-97"/>
      <use x="147.558594" xlink:href="#DejaVuSans-103"/>
      <use x="211.035156" xlink:href="#DejaVuSans-110"/>
      <use x="274.414062" xlink:href="#DejaVuSans-101"/>
      <use x="335.9375" xlink:href="#DejaVuSans-116"/>
      <use x="375.146484" xlink:href="#DejaVuSans-32"/>
      <use x="406.933594" xlink:href="#DejaVuSans-73"/>
      <use x="436.425781" xlink:href="#DejaVuSans-110"/>
      <use x="499.804688" xlink:href="#DejaVuSans-100"/>
      <use x="563.28125" xlink:href="#DejaVuSans-101"/>
      <use x="624.789062" xlink:href="#DejaVuSans-120"/>
     </g>
    </g>
   </g>
   <g id="matplotlib.axis_2">
    <g id="ytick_1">
     <g id="line2d_17">
      <path clip-path="url(#p73e5ca6eec)" d="M 172.62 362.805872 
L 1242.864 362.805872 
" style="fill:none;stroke:#b0b0b0;stroke-linecap:square;stroke-width:0.8;"/>
     </g>
     <g id="line2d_18">
      <defs>
       <path d="M 0 0 
L -3.5 0 
" id="m45d9ca8b34" style="stroke:#000000;stroke-width:0.8;"/>
      </defs>
      <g>
       <use style="stroke:#000000;stroke-width:0.8;" x="172.62" xlink:href="#m45d9ca8b34" y="362.805872"/>
      </g>
     </g>
     <g id="text_10">
      <!-- −10 -->
      <defs>
       <path d="M 10.59375 35.5 
L 73.1875 35.5 
L 73.1875 27.203125 
L 10.59375 27.203125 
z
" id="DejaVuSans-8722"/>
      </defs>
      <g transform="translate(144.515312 366.605091)scale(0.1 -0.1)">
       <use xlink:href="#DejaVuSans-8722"/>
       <use x="83.789062" xlink:href="#DejaVuSans-49"/>
       <use x="147.412109" xlink:href="#DejaVuSans-48"/>
      </g>
     </g>
    </g>
    <g id="ytick_2">
     <g id="line2d_19">
      <path clip-path="url(#p73e5ca6eec)" d="M 172.62 317.936416 
L 1242.864 317.936416 
" style="fill:none;stroke:#b0b0b0;stroke-linecap:square;stroke-width:0.8;"/>
     </g>
     <g id="line2d_20">
      <g>
       <use style="stroke:#000000;stroke-width:0.8;" x="172.62" xlink:href="#m45d9ca8b34" y="317.936416"/>
      </g>
     </g>
     <g id="text_11">
      <!-- −5 -->
      <g transform="translate(150.877813 321.735634)scale(0.1 -0.1)">
       <use xlink:href="#DejaVuSans-8722"/>
       <use x="83.789062" xlink:href="#DejaVuSans-53"/>
      </g>
     </g>
    </g>
    <g id="ytick_3">
     <g id="line2d_21">
      <path clip-path="url(#p73e5ca6eec)" d="M 172.62 273.066959 
L 1242.864 273.066959 
" style="fill:none;stroke:#b0b0b0;stroke-linecap:square;stroke-width:0.8;"/>
     </g>
     <g id="line2d_22">
      <g>
       <use style="stroke:#000000;stroke-width:0.8;" x="172.62" xlink:href="#m45d9ca8b34" y="273.066959"/>
      </g>
     </g>
     <g id="text_12">
      <!-- 0 -->
      <g transform="translate(159.2575 276.866178)scale(0.1 -0.1)">
       <use xlink:href="#DejaVuSans-48"/>
      </g>
     </g>
    </g>
    <g id="ytick_4">
     <g id="line2d_23">
      <path clip-path="url(#p73e5ca6eec)" d="M 172.62 228.197502 
L 1242.864 228.197502 
" style="fill:none;stroke:#b0b0b0;stroke-linecap:square;stroke-width:0.8;"/>
     </g>
     <g id="line2d_24">
      <g>
       <use style="stroke:#000000;stroke-width:0.8;" x="172.62" xlink:href="#m45d9ca8b34" y="228.197502"/>
      </g>
     </g>
     <g id="text_13">
      <!-- 5 -->
      <g transform="translate(159.2575 231.996721)scale(0.1 -0.1)">
       <use xlink:href="#DejaVuSans-53"/>
      </g>
     </g>
    </g>
    <g id="ytick_5">
     <g id="line2d_25">
      <path clip-path="url(#p73e5ca6eec)" d="M 172.62 183.328045 
L 1242.864 183.328045 
" style="fill:none;stroke:#b0b0b0;stroke-linecap:square;stroke-width:0.8;"/>
     </g>
     <g id="line2d_26">
      <g>
       <use style="stroke:#000000;stroke-width:0.8;" x="172.62" xlink:href="#m45d9ca8b34" y="183.328045"/>
      </g>
     </g>
     <g id="text_14">
      <!-- 10 -->
      <g transform="translate(152.895 187.127264)scale(0.1 -0.1)">
       <use xlink:href="#DejaVuSans-49"/>
       <use x="63.623047" xlink:href="#DejaVuSans-48"/>
      </g>
     </g>
    </g>
    <g id="ytick_6">
     <g id="line2d_27">
      <path clip-path="url(#p73e5ca6eec)" d="M 172.62 138.458589 
L 1242.864 138.458589 
" style="fill:none;stroke:#b0b0b0;stroke-linecap:square;stroke-width:0.8;"/>
     </g>
     <g id="line2d_28">
      <g>
       <use style="stroke:#000000;stroke-width:0.8;" x="172.62" xlink:href="#m45d9ca8b34" y="138.458589"/>
      </g>
     </g>
     <g id="text_15">
      <!-- 15 -->
      <g transform="translate(152.895 142.257807)scale(0.1 -0.1)">
       <use xlink:href="#DejaVuSans-49"/>
       <use x="63.623047" xlink:href="#DejaVuSans-53"/>
      </g>
     </g>
    </g>
    <g id="ytick_7">
     <g id="line2d_29">
      <path clip-path="url(#p73e5ca6eec)" d="M 172.62 93.589132 
L 1242.864 93.589132 
" style="fill:none;stroke:#b0b0b0;stroke-linecap:square;stroke-width:0.8;"/>
     </g>
     <g id="line2d_30">
      <g>
       <use style="stroke:#000000;stroke-width:0.8;" x="172.62" xlink:href="#m45d9ca8b34" y="93.589132"/>
      </g>
     </g>
     <g id="text_16">
      <!-- 20 -->
      <g transform="translate(152.895 97.388351)scale(0.1 -0.1)">
       <use xlink:href="#DejaVuSans-50"/>
       <use x="63.623047" xlink:href="#DejaVuSans-48"/>
      </g>
     </g>
    </g>
    <g id="text_17">
     <!-- Magnetic Center [um] -->
     <defs>
      <path d="M 9.421875 54.6875 
L 18.40625 54.6875 
L 18.40625 0 
L 9.421875 0 
z
M 9.421875 75.984375 
L 18.40625 75.984375 
L 18.40625 64.59375 
L 9.421875 64.59375 
z
" id="DejaVuSans-105"/>
      <path d="M 48.78125 52.59375 
L 48.78125 44.1875 
Q 44.96875 46.296875 41.140625 47.34375 
Q 37.3125 48.390625 33.40625 48.390625 
Q 24.65625 48.390625 19.8125 42.84375 
Q 14.984375 37.3125 14.984375 27.296875 
Q 14.984375 17.28125 19.8125 11.734375 
Q 24.65625 6.203125 33.40625 6.203125 
Q 37.3125 6.203125 41.140625 7.25 
Q 44.96875 8.296875 48.78125 10.40625 
L 48.78125 2.09375 
Q 45.015625 0.34375 40.984375 -0.53125 
Q 36.96875 -1.421875 32.421875 -1.421875 
Q 20.0625 -1.421875 12.78125 6.34375 
Q 5.515625 14.109375 5.515625 27.296875 
Q 5.515625 40.671875 12.859375 48.328125 
Q 20.21875 56 33.015625 56 
Q 37.15625 56 41.109375 55.140625 
Q 45.0625 54.296875 48.78125 52.59375 
z
" id="DejaVuSans-99"/>
      <path d="M 64.40625 67.28125 
L 64.40625 56.890625 
Q 59.421875 61.53125 53.78125 63.8125 
Q 48.140625 66.109375 41.796875 66.109375 
Q 29.296875 66.109375 22.65625 58.46875 
Q 16.015625 50.828125 16.015625 36.375 
Q 16.015625 21.96875 22.65625 14.328125 
Q 29.296875 6.6875 41.796875 6.6875 
Q 48.140625 6.6875 53.78125 8.984375 
Q 59.421875 11.28125 64.40625 15.921875 
L 64.40625 5.609375 
Q 59.234375 2.09375 53.4375 0.328125 
Q 47.65625 -1.421875 41.21875 -1.421875 
Q 24.65625 -1.421875 15.125 8.703125 
Q 5.609375 18.84375 5.609375 36.375 
Q 5.609375 53.953125 15.125 64.078125 
Q 24.65625 74.21875 41.21875 74.21875 
Q 47.75 74.21875 53.53125 72.484375 
Q 59.328125 70.75 64.40625 67.28125 
z
" id="DejaVuSans-67"/>
      <path d="M 41.109375 46.296875 
Q 39.59375 47.171875 37.8125 47.578125 
Q 36.03125 48 33.890625 48 
Q 26.265625 48 22.1875 43.046875 
Q 18.109375 38.09375 18.109375 28.8125 
L 18.109375 0 
L 9.078125 0 
L 9.078125 54.6875 
L 18.109375 54.6875 
L 18.109375 46.1875 
Q 20.953125 51.171875 25.484375 53.578125 
Q 30.03125 56 36.53125 56 
Q 37.453125 56 38.578125 55.875 
Q 39.703125 55.765625 41.0625 55.515625 
z
" id="DejaVuSans-114"/>
      <path d="M 8.59375 75.984375 
L 29.296875 75.984375 
L 29.296875 69 
L 17.578125 69 
L 17.578125 -6.203125 
L 29.296875 -6.203125 
L 29.296875 -13.1875 
L 8.59375 -13.1875 
z
" id="DejaVuSans-91"/>
      <path d="M 8.5 21.578125 
L 8.5 54.6875 
L 17.484375 54.6875 
L 17.484375 21.921875 
Q 17.484375 14.15625 20.5 10.265625 
Q 23.53125 6.390625 29.59375 6.390625 
Q 36.859375 6.390625 41.078125 11.03125 
Q 45.3125 15.671875 45.3125 23.6875 
L 45.3125 54.6875 
L 54.296875 54.6875 
L 54.296875 0 
L 45.3125 0 
L 45.3125 8.40625 
Q 42.046875 3.421875 37.71875 1 
Q 33.40625 -1.421875 27.6875 -1.421875 
Q 18.265625 -1.421875 13.375 4.4375 
Q 8.5 10.296875 8.5 21.578125 
z
M 31.109375 56 
z
" id="DejaVuSans-117"/>
      <path d="M 52 44.1875 
Q 55.375 50.25 60.0625 53.125 
Q 64.75 56 71.09375 56 
Q 79.640625 56 84.28125 50.015625 
Q 88.921875 44.046875 88.921875 33.015625 
L 88.921875 0 
L 79.890625 0 
L 79.890625 32.71875 
Q 79.890625 40.578125 77.09375 44.375 
Q 74.3125 48.1875 68.609375 48.1875 
Q 61.625 48.1875 57.5625 43.546875 
Q 53.515625 38.921875 53.515625 30.90625 
L 53.515625 0 
L 44.484375 0 
L 44.484375 32.71875 
Q 44.484375 40.625 41.703125 44.40625 
Q 38.921875 48.1875 33.109375 48.1875 
Q 26.21875 48.1875 22.15625 43.53125 
Q 18.109375 38.875 18.109375 30.90625 
L 18.109375 0 
L 9.078125 0 
L 9.078125 54.6875 
L 18.109375 54.6875 
L 18.109375 46.1875 
Q 21.1875 51.21875 25.484375 53.609375 
Q 29.78125 56 35.6875 56 
Q 41.65625 56 45.828125 52.96875 
Q 50 49.953125 52 44.1875 
z
" id="DejaVuSans-109"/>
      <path d="M 30.421875 75.984375 
L 30.421875 -13.1875 
L 9.71875 -13.1875 
L 9.71875 -6.203125 
L 21.390625 -6.203125 
L 21.390625 69 
L 9.71875 69 
L 9.71875 75.984375 
z
" id="DejaVuSans-93"/>
     </defs>
     <g transform="translate(138.435625 262.82295)rotate(-90)scale(0.1 -0.1)">
      <use xlink:href="#DejaVuSans-77"/>
      <use x="86.279297" xlink:href="#DejaVuSans-97"/>
      <use x="147.558594" xlink:href="#DejaVuSans-103"/>
      <use x="211.035156" xlink:href="#DejaVuSans-110"/>
      <use x="274.414062" xlink:href="#DejaVuSans-101"/>
      <use x="335.9375" xlink:href="#DejaVuSans-116"/>
      <use x="375.146484" xlink:href="#DejaVuSans-105"/>
      <use x="402.929688" xlink:href="#DejaVuSans-99"/>
      <use x="457.910156" xlink:href="#DejaVuSans-32"/>
      <use x="489.697266" xlink:href="#DejaVuSans-67"/>
      <use x="559.521484" xlink:href="#DejaVuSans-101"/>
      <use x="621.044922" xlink:href="#DejaVuSans-110"/>
      <use x="684.423828" xlink:href="#DejaVuSans-116"/>
      <use x="723.632812" xlink:href="#DejaVuSans-101"/>
      <use x="785.15625" xlink:href="#DejaVuSans-114"/>
      <use x="826.269531" xlink:href="#DejaVuSans-32"/>
      <use x="858.056641" xlink:href="#DejaVuSans-91"/>
      <use x="897.070312" xlink:href="#DejaVuSans-117"/>
      <use x="960.449219" xlink:href="#DejaVuSans-109"/>
      <use x="1057.861328" xlink:href="#DejaVuSans-93"/>
     </g>
    </g>
   </g>
   <g id="line2d_31">
    <path clip-path="url(#p73e5ca6eec)" d="M 221.267455 170.542322 
L 227.02455 173.21945 
L 232.781645 203.014767 
L 238.53874 215.162498 
L 244.295835 181.883262 
L 250.052931 199.925633 
L 255.810026 184.932121 
L 261.567121 258.699365 
L 267.324216 167.198687 
L 273.081311 224.431315 
" style="fill:none;stroke:#0000ff;stroke-linecap:square;stroke-width:1.5;"/>
   </g>
   <g id="line2d_32">
    <defs>
     <path d="M 0 3 
C 0.795609 3 1.55874 2.683901 2.12132 2.12132 
C 2.683901 1.55874 3 0.795609 3 0 
C 3 -0.795609 2.683901 -1.55874 2.12132 -2.12132 
C 1.55874 -2.683901 0.795609 -3 0 -3 
C -0.795609 -3 -1.55874 -2.683901 -2.12132 -2.12132 
C -2.683901 -1.55874 -3 -0.795609 -3 0 
C -3 0.795609 -2.683901 1.55874 -2.12132 2.12132 
C -1.55874 2.683901 -0.795609 3 0 3 
z
" id="m4a9f1d4737" style="stroke:#0000ff;"/>
    </defs>
    <g clip-path="url(#p73e5ca6eec)">
     <use style="fill:#0000ff;stroke:#0000ff;" x="221.267455" xlink:href="#m4a9f1d4737" y="170.542322"/>
     <use style="fill:#0000ff;stroke:#0000ff;" x="227.02455" xlink:href="#m4a9f1d4737" y="173.21945"/>
     <use style="fill:#0000ff;stroke:#0000ff;" x="232.781645" xlink:href="#m4a9f1d4737" y="203.014767"/>
     <use style="fill:#0000ff;stroke:#0000ff;" x="238.53874" xlink:href="#m4a9f1d4737" y="215.162498"/>
     <use style="fill:#0000ff;stroke:#0000ff;" x="244.295835" xlink:href="#m4a9f1d4737" y="181.883262"/>
     <use style="fill:#0000ff;stroke:#0000ff;" x="250.052931" xlink:href="#m4a9f1d4737" y="199.925633"/>
     <use style="fill:#0000ff;stroke:#0000ff;" x="255.810026" xlink:href="#m4a9f1d4737" y="184.932121"/>
     <use style="fill:#0000ff;stroke:#0000ff;" x="261.567121" xlink:href="#m4a9f1d4737" y="258.699365"/>
     <use style="fill:#0000ff;stroke:#0000ff;" x="267.324216" xlink:href="#m4a9f1d4737" y="167.198687"/>
     <use style="fill:#0000ff;stroke:#0000ff;" x="273.081311" xlink:href="#m4a9f1d4737" y="224.431315"/>
    </g>
   </g>
   <g id="line2d_33">
    <path clip-path="url(#p73e5ca6eec)" d="M 221.267455 197.900942 
L 227.02455 197.900942 
L 232.781645 197.900942 
L 238.53874 197.900942 
L 244.295835 197.900942 
L 250.052931 197.900942 
L 255.810026 197.900942 
L 261.567121 197.900942 
L 267.324216 197.900942 
L 273.081311 197.900942 
" style="fill:none;stroke:#0000ff;stroke-dasharray:5.55,2.4;stroke-dashoffset:0;stroke-width:1.5;"/>
   </g>
   <g id="line2d_34">
    <path clip-path="url(#p73e5ca6eec)" d="M 278.838407 171.474855 
L 284.595502 250.476931 
L 290.352597 236.573774 
L 296.109692 186.425096 
L 301.866788 186.800981 
L 307.623883 283.200846 
L 313.380978 205.242902 
L 319.138073 266.926585 
L 324.895168 191.83597 
L 330.652264 298.63347 
L 336.409359 226.20778 
L 342.166454 200.891558 
L 347.923549 152.486775 
L 353.680644 243.428607 
L 359.43774 152.103989 
L 365.194835 211.187854 
L 370.95193 179.649213 
L 376.709025 63.8352 
L 382.46612 272.387722 
L 388.223216 309.713774 
L 393.980311 206.483481 
L 399.737406 238.654325 
L 405.494501 271.084753 
L 411.251597 249.191021 
L 417.008692 214.030289 
L 422.765787 142.722326 
L 428.522882 168.385877 
L 434.279977 238.331912 
L 440.037073 255.71014 
L 445.794168 336.788146 
L 451.551263 134.598694 
L 457.308358 191.66995 
L 463.065453 304.794439 
L 468.822549 246.591812 
L 474.579644 274.003874 
L 480.336739 335.885767 
L 486.093834 171.886215 
L 491.85093 270.702705 
L 497.608025 211.324165 
L 503.36512 128.873457 
" style="fill:none;stroke:#008000;stroke-linecap:square;stroke-width:1.5;"/>
   </g>
   <g id="line2d_35">
    <defs>
     <path d="M 0 3 
C 0.795609 3 1.55874 2.683901 2.12132 2.12132 
C 2.683901 1.55874 3 0.795609 3 0 
C 3 -0.795609 2.683901 -1.55874 2.12132 -2.12132 
C 1.55874 -2.683901 0.795609 -3 0 -3 
C -0.795609 -3 -1.55874 -2.683901 -2.12132 -2.12132 
C -2.683901 -1.55874 -3 -0.795609 -3 0 
C -3 0.795609 -2.683901 1.55874 -2.12132 2.12132 
C -1.55874 2.683901 -0.795609 3 0 3 
z
" id="m2a0c48c993" style="stroke:#008000;"/>
    </defs>
    <g clip-path="url(#p73e5ca6eec)">
     <use style="fill:#008000;stroke:#008000;" x="278.838407" xlink:href="#m2a0c48c993" y="171.474855"/>
     <use style="fill:#008000;stroke:#008000;" x="284.595502" xlink:href="#m2a0c48c993" y="250.476931"/>
     <use style="fill:#008000;stroke:#008000;" x="290.352597" xlink:href="#m2a0c48c993" y="236.573774"/>
     <use style="fill:#008000;stroke:#008000;" x="296.109692" xlink:href="#m2a0c48c993" y="186.425096"/>
     <use style="fill:#008000;stroke:#008000;" x="301.866788" xlink:href="#m2a0c48c993" y="186.800981"/>
     <use style="fill:#008000;stroke:#008000;" x="307.623883" xlink:href="#m2a0c48c993" y="283.200846"/>
     <use style="fill:#008000;stroke:#008000;" x="313.380978" xlink:href="#m2a0c48c993" y="205.242902"/>
     <use style="fill:#008000;stroke:#008000;" x="319.138073" xlink:href="#m2a0c48c993" y="266.926585"/>
     <use style="fill:#008000;stroke:#008000;" x="324.895168" xlink:href="#m2a0c48c993" y="191.83597"/>
     <use style="fill:#008000;stroke:#008000;" x="330.652264" xlink:href="#m2a0c48c993" y="298.63347"/>
     <use style="fill:#008000;stroke:#008000;" x="336.409359" xlink:href="#m2a0c48c993" y="226.20778"/>
     <use style="fill:#008000;stroke:#008000;" x="342.166454" xlink:href="#m2a0c48c993" y="200.891558"/>
     <use style="fill:#008000;stroke:#008000;" x="347.923549" xlink:href="#m2a0c48c993" y="152.486775"/>
     <use style="fill:#008000;stroke:#008000;" x="353.680644" xlink:href="#m2a0c48c993" y="243.428607"/>
     <use style="fill:#008000;stroke:#008000;" x="359.43774" xlink:href="#m2a0c48c993" y="152.103989"/>
     <use style="fill:#008000;stroke:#008000;" x="365.194835" xlink:href="#m2a0c48c993" y="211.187854"/>
     <use style="fill:#008000;stroke:#008000;" x="370.95193" xlink:href="#m2a0c48c993" y="179.649213"/>
     <use style="fill:#008000;stroke:#008000;" x="376.709025" xlink:href="#m2a0c48c993" y="63.8352"/>
     <use style="fill:#008000;stroke:#008000;" x="382.46612" xlink:href="#m2a0c48c993" y="272.387722"/>
     <use style="fill:#008000;stroke:#008000;" x="388.223216" xlink:href="#m2a0c48c993" y="309.713774"/>
     <use style="fill:#008000;stroke:#008000;" x="393.980311" xlink:href="#m2a0c48c993" y="206.483481"/>
     <use style="fill:#008000;stroke:#008000;" x="399.737406" xlink:href="#m2a0c48c993" y="238.654325"/>
     <use style="fill:#008000;stroke:#008000;" x="405.494501" xlink:href="#m2a0c48c993" y="271.084753"/>
     <use style="fill:#008000;stroke:#008000;" x="411.251597" xlink:href="#m2a0c48c993" y="249.191021"/>
     <use style="fill:#008000;stroke:#008000;" x="417.008692" xlink:href="#m2a0c48c993" y="214.030289"/>
     <use style="fill:#008000;stroke:#008000;" x="422.765787" xlink:href="#m2a0c48c993" y="142.722326"/>
     <use style="fill:#008000;stroke:#008000;" x="428.522882" xlink:href="#m2a0c48c993" y="168.385877"/>
     <use style="fill:#008000;stroke:#008000;" x="434.279977" xlink:href="#m2a0c48c993" y="238.331912"/>
     <use style="fill:#008000;stroke:#008000;" x="440.037073" xlink:href="#m2a0c48c993" y="255.71014"/>
     <use style="fill:#008000;stroke:#008000;" x="445.794168" xlink:href="#m2a0c48c993" y="336.788146"/>
     <use style="fill:#008000;stroke:#008000;" x="451.551263" xlink:href="#m2a0c48c993" y="134.598694"/>
     <use style="fill:#008000;stroke:#008000;" x="457.308358" xlink:href="#m2a0c48c993" y="191.66995"/>
     <use style="fill:#008000;stroke:#008000;" x="463.065453" xlink:href="#m2a0c48c993" y="304.794439"/>
     <use style="fill:#008000;stroke:#008000;" x="468.822549" xlink:href="#m2a0c48c993" y="246.591812"/>
     <use style="fill:#008000;stroke:#008000;" x="474.579644" xlink:href="#m2a0c48c993" y="274.003874"/>
     <use style="fill:#008000;stroke:#008000;" x="480.336739" xlink:href="#m2a0c48c993" y="335.885767"/>
     <use style="fill:#008000;stroke:#008000;" x="486.093834" xlink:href="#m2a0c48c993" y="171.886215"/>
     <use style="fill:#008000;stroke:#008000;" x="491.85093" xlink:href="#m2a0c48c993" y="270.702705"/>
     <use style="fill:#008000;stroke:#008000;" x="497.608025" xlink:href="#m2a0c48c993" y="211.324165"/>
     <use style="fill:#008000;stroke:#008000;" x="503.36512" xlink:href="#m2a0c48c993" y="128.873457"/>
    </g>
   </g>
   <g id="line2d_36">
    <path clip-path="url(#p73e5ca6eec)" d="M 278.838407 222.029931 
L 284.595502 222.029931 
L 290.352597 222.029931 
L 296.109692 222.029931 
L 301.866788 222.029931 
L 307.623883 222.029931 
L 313.380978 222.029931 
L 319.138073 222.029931 
L 324.895168 222.029931 
L 330.652264 222.029931 
L 336.409359 222.029931 
L 342.166454 222.029931 
L 347.923549 222.029931 
L 353.680644 222.029931 
L 359.43774 222.029931 
L 365.194835 222.029931 
L 370.95193 222.029931 
L 376.709025 222.029931 
L 382.46612 222.029931 
L 388.223216 222.029931 
L 393.980311 222.029931 
L 399.737406 222.029931 
L 405.494501 222.029931 
L 411.251597 222.029931 
L 417.008692 222.029931 
L 422.765787 222.029931 
L 428.522882 222.029931 
L 434.279977 222.029931 
L 440.037073 222.029931 
L 445.794168 222.029931 
L 451.551263 222.029931 
L 457.308358 222.029931 
L 463.065453 222.029931 
L 468.822549 222.029931 
L 474.579644 222.029931 
L 480.336739 222.029931 
L 486.093834 222.029931 
L 491.85093 222.029931 
L 497.608025 222.029931 
L 503.36512 222.029931 
" style="fill:none;stroke:#008000;stroke-dasharray:5.55,2.4;stroke-dashoffset:0;stroke-width:1.5;"/>
   </g>
   <g id="line2d_37">
    <path clip-path="url(#p73e5ca6eec)" d="M 509.122215 166.582166 
L 514.87931 214.117567 
L 520.636406 295.232205 
L 526.393501 232.841067 
L 532.150596 238.735146 
L 537.907691 293.194855 
L 543.664786 153.797608 
L 549.421882 193.177942 
L 555.178977 169.179717 
L 560.936072 239.720063 
L 566.693167 231.135685 
L 572.450263 203.144266 
L 578.207358 144.065398 
L 583.964453 169.623185 
L 589.721548 160.95144 
L 595.478643 276.793603 
L 601.235739 97.50339 
L 606.992834 214.850013 
L 612.749929 231.229022 
L 618.507024 264.198406 
L 624.264119 277.176804 
L 630.021215 186.428198 
L 635.77831 256.968586 
L 641.535405 175.798128 
L 647.2925 199.051383 
L 653.049595 168.193451 
L 658.806691 221.375041 
L 664.563786 274.204185 
L 670.320881 249.071972 
L 676.077976 207.805756 
L 681.835072 174.299411 
L 687.592167 131.80261 
L 693.349262 178.828759 
L 699.106357 286.552739 
L 704.863452 191.594017 
L 710.620548 185.297607 
L 716.377643 209.792549 
L 722.134738 179.659114 
L 727.891833 227.820189 
L 733.648928 206.144183 
" style="fill:none;stroke:#ff0000;stroke-linecap:square;stroke-width:1.5;"/>
   </g>
   <g id="line2d_38">
    <defs>
     <path d="M 0 3 
C 0.795609 3 1.55874 2.683901 2.12132 2.12132 
C 2.683901 1.55874 3 0.795609 3 0 
C 3 -0.795609 2.683901 -1.55874 2.12132 -2.12132 
C 1.55874 -2.683901 0.795609 -3 0 -3 
C -0.795609 -3 -1.55874 -2.683901 -2.12132 -2.12132 
C -2.683901 -1.55874 -3 -0.795609 -3 0 
C -3 0.795609 -2.683901 1.55874 -2.12132 2.12132 
C -1.55874 2.683901 -0.795609 3 0 3 
z
" id="m9b5c23233a" style="stroke:#ff0000;"/>
    </defs>
    <g clip-path="url(#p73e5ca6eec)">
     <use style="fill:#ff0000;stroke:#ff0000;" x="509.122215" xlink:href="#m9b5c23233a" y="166.582166"/>
     <use style="fill:#ff0000;stroke:#ff0000;" x="514.87931" xlink:href="#m9b5c23233a" y="214.117567"/>
     <use style="fill:#ff0000;stroke:#ff0000;" x="520.636406" xlink:href="#m9b5c23233a" y="295.232205"/>
     <use style="fill:#ff0000;stroke:#ff0000;" x="526.393501" xlink:href="#m9b5c23233a" y="232.841067"/>
     <use style="fill:#ff0000;stroke:#ff0000;" x="532.150596" xlink:href="#m9b5c23233a" y="238.735146"/>
     <use style="fill:#ff0000;stroke:#ff0000;" x="537.907691" xlink:href="#m9b5c23233a" y="293.194855"/>
     <use style="fill:#ff0000;stroke:#ff0000;" x="543.664786" xlink:href="#m9b5c23233a" y="153.797608"/>
     <use style="fill:#ff0000;stroke:#ff0000;" x="549.421882" xlink:href="#m9b5c23233a" y="193.177942"/>
     <use style="fill:#ff0000;stroke:#ff0000;" x="555.178977" xlink:href="#m9b5c23233a" y="169.179717"/>
     <use style="fill:#ff0000;stroke:#ff0000;" x="560.936072" xlink:href="#m9b5c23233a" y="239.720063"/>
     <use style="fill:#ff0000;stroke:#ff0000;" x="566.693167" xlink:href="#m9b5c23233a" y="231.135685"/>
     <use style="fill:#ff0000;stroke:#ff0000;" x="572.450263" xlink:href="#m9b5c23233a" y="203.144266"/>
     <use style="fill:#ff0000;stroke:#ff0000;" x="578.207358" xlink:href="#m9b5c23233a" y="144.065398"/>
     <use style="fill:#ff0000;stroke:#ff0000;" x="583.964453" xlink:href="#m9b5c23233a" y="169.623185"/>
     <use style="fill:#ff0000;stroke:#ff0000;" x="589.721548" xlink:href="#m9b5c23233a" y="160.95144"/>
     <use style="fill:#ff0000;stroke:#ff0000;" x="595.478643" xlink:href="#m9b5c23233a" y="276.793603"/>
     <use style="fill:#ff0000;stroke:#ff0000;" x="601.235739" xlink:href="#m9b5c23233a" y="97.50339"/>
     <use style="fill:#ff0000;stroke:#ff0000;" x="606.992834" xlink:href="#m9b5c23233a" y="214.850013"/>
     <use style="fill:#ff0000;stroke:#ff0000;" x="612.749929" xlink:href="#m9b5c23233a" y="231.229022"/>
     <use style="fill:#ff0000;stroke:#ff0000;" x="618.507024" xlink:href="#m9b5c23233a" y="264.198406"/>
     <use style="fill:#ff0000;stroke:#ff0000;" x="624.264119" xlink:href="#m9b5c23233a" y="277.176804"/>
     <use style="fill:#ff0000;stroke:#ff0000;" x="630.021215" xlink:href="#m9b5c23233a" y="186.428198"/>
     <use style="fill:#ff0000;stroke:#ff0000;" x="635.77831" xlink:href="#m9b5c23233a" y="256.968586"/>
     <use style="fill:#ff0000;stroke:#ff0000;" x="641.535405" xlink:href="#m9b5c23233a" y="175.798128"/>
     <use style="fill:#ff0000;stroke:#ff0000;" x="647.2925" xlink:href="#m9b5c23233a" y="199.051383"/>
     <use style="fill:#ff0000;stroke:#ff0000;" x="653.049595" xlink:href="#m9b5c23233a" y="168.193451"/>
     <use style="fill:#ff0000;stroke:#ff0000;" x="658.806691" xlink:href="#m9b5c23233a" y="221.375041"/>
     <use style="fill:#ff0000;stroke:#ff0000;" x="664.563786" xlink:href="#m9b5c23233a" y="274.204185"/>
     <use style="fill:#ff0000;stroke:#ff0000;" x="670.320881" xlink:href="#m9b5c23233a" y="249.071972"/>
     <use style="fill:#ff0000;stroke:#ff0000;" x="676.077976" xlink:href="#m9b5c23233a" y="207.805756"/>
     <use style="fill:#ff0000;stroke:#ff0000;" x="681.835072" xlink:href="#m9b5c23233a" y="174.299411"/>
     <use style="fill:#ff0000;stroke:#ff0000;" x="687.592167" xlink:href="#m9b5c23233a" y="131.80261"/>
     <use style="fill:#ff0000;stroke:#ff0000;" x="693.349262" xlink:href="#m9b5c23233a" y="178.828759"/>
     <use style="fill:#ff0000;stroke:#ff0000;" x="699.106357" xlink:href="#m9b5c23233a" y="286.552739"/>
     <use style="fill:#ff0000;stroke:#ff0000;" x="704.863452" xlink:href="#m9b5c23233a" y="191.594017"/>
     <use style="fill:#ff0000;stroke:#ff0000;" x="710.620548" xlink:href="#m9b5c23233a" y="185.297607"/>
     <use style="fill:#ff0000;stroke:#ff0000;" x="716.377643" xlink:href="#m9b5c23233a" y="209.792549"/>
     <use style="fill:#ff0000;stroke:#ff0000;" x="722.134738" xlink:href="#m9b5c23233a" y="179.659114"/>
     <use style="fill:#ff0000;stroke:#ff0000;" x="727.891833" xlink:href="#m9b5c23233a" y="227.820189"/>
     <use style="fill:#ff0000;stroke:#ff0000;" x="733.648928" xlink:href="#m9b5c23233a" y="206.144183"/>
    </g>
   </g>
   <g id="line2d_39">
    <path clip-path="url(#p73e5ca6eec)" d="M 509.122215 209.448436 
L 514.87931 209.448436 
L 520.636406 209.448436 
L 526.393501 209.448436 
L 532.150596 209.448436 
L 537.907691 209.448436 
L 543.664786 209.448436 
L 549.421882 209.448436 
L 555.178977 209.448436 
L 560.936072 209.448436 
L 566.693167 209.448436 
L 572.450263 209.448436 
L 578.207358 209.448436 
L 583.964453 209.448436 
L 589.721548 209.448436 
L 595.478643 209.448436 
L 601.235739 209.448436 
L 606.992834 209.448436 
L 612.749929 209.448436 
L 618.507024 209.448436 
L 624.264119 209.448436 
L 630.021215 209.448436 
L 635.77831 209.448436 
L 641.535405 209.448436 
L 647.2925 209.448436 
L 653.049595 209.448436 
L 658.806691 209.448436 
L 664.563786 209.448436 
L 670.320881 209.448436 
L 676.077976 209.448436 
L 681.835072 209.448436 
L 687.592167 209.448436 
L 693.349262 209.448436 
L 699.106357 209.448436 
L 704.863452 209.448436 
L 710.620548 209.448436 
L 716.377643 209.448436 
L 722.134738 209.448436 
L 727.891833 209.448436 
L 733.648928 209.448436 
" style="fill:none;stroke:#ff0000;stroke-dasharray:5.55,2.4;stroke-dashoffset:0;stroke-width:1.5;"/>
   </g>
   <g id="line2d_40">
    <path clip-path="url(#p73e5ca6eec)" d="M 739.406024 124.312575 
L 745.163119 197.571351 
L 750.920214 333.77653 
L 756.677309 352.1232 
L 762.434405 155.058458 
L 768.1915 208.781283 
L 773.948595 217.670577 
L 779.70569 204.314455 
L 785.462785 229.423243 
L 791.219881 269.405434 
L 796.976976 187.956454 
L 802.734071 218.908539 
L 808.491166 187.041648 
L 814.248261 193.959754 
L 820.005357 175.945833 
L 825.762452 260.01315 
L 831.519547 350.985522 
L 837.276642 155.490271 
L 843.033737 168.027361 
L 848.790833 260.65565 
L 854.547928 195.887557 
L 860.305023 244.088792 
L 866.062118 186.63214 
L 871.819214 225.456478 
L 877.576309 202.657466 
L 883.333404 145.900207 
L 889.090499 275.163561 
L 894.847594 191.368661 
L 900.60469 236.66455 
L 906.361785 176.04992 
L 912.11888 259.894797 
L 917.875975 185.433688 
L 923.63307 230.271859 
L 929.390166 196.456715 
L 935.147261 221.721183 
L 940.904356 201.57748 
L 946.661451 160.291073 
L 952.418547 276.213468 
L 958.175642 123.32872 
L 963.932737 212.585959 
" style="fill:none;stroke:#000000;stroke-linecap:square;stroke-width:1.5;"/>
   </g>
   <g id="line2d_41">
    <defs>
     <path d="M 0 3 
C 0.795609 3 1.55874 2.683901 2.12132 2.12132 
C 2.683901 1.55874 3 0.795609 3 0 
C 3 -0.795609 2.683901 -1.55874 2.12132 -2.12132 
C 1.55874 -2.683901 0.795609 -3 0 -3 
C -0.795609 -3 -1.55874 -2.683901 -2.12132 -2.12132 
C -2.683901 -1.55874 -3 -0.795609 -3 0 
C -3 0.795609 -2.683901 1.55874 -2.12132 2.12132 
C -1.55874 2.683901 -0.795609 3 0 3 
z
" id="m0e390a77c5" style="stroke:#000000;"/>
    </defs>
    <g clip-path="url(#p73e5ca6eec)">
     <use style="stroke:#000000;" x="739.406024" xlink:href="#m0e390a77c5" y="124.312575"/>
     <use style="stroke:#000000;" x="745.163119" xlink:href="#m0e390a77c5" y="197.571351"/>
     <use style="stroke:#000000;" x="750.920214" xlink:href="#m0e390a77c5" y="333.77653"/>
     <use style="stroke:#000000;" x="756.677309" xlink:href="#m0e390a77c5" y="352.1232"/>
     <use style="stroke:#000000;" x="762.434405" xlink:href="#m0e390a77c5" y="155.058458"/>
     <use style="stroke:#000000;" x="768.1915" xlink:href="#m0e390a77c5" y="208.781283"/>
     <use style="stroke:#000000;" x="773.948595" xlink:href="#m0e390a77c5" y="217.670577"/>
     <use style="stroke:#000000;" x="779.70569" xlink:href="#m0e390a77c5" y="204.314455"/>
     <use style="stroke:#000000;" x="785.462785" xlink:href="#m0e390a77c5" y="229.423243"/>
     <use style="stroke:#000000;" x="791.219881" xlink:href="#m0e390a77c5" y="269.405434"/>
     <use style="stroke:#000000;" x="796.976976" xlink:href="#m0e390a77c5" y="187.956454"/>
     <use style="stroke:#000000;" x="802.734071" xlink:href="#m0e390a77c5" y="218.908539"/>
     <use style="stroke:#000000;" x="808.491166" xlink:href="#m0e390a77c5" y="187.041648"/>
     <use style="stroke:#000000;" x="814.248261" xlink:href="#m0e390a77c5" y="193.959754"/>
     <use style="stroke:#000000;" x="820.005357" xlink:href="#m0e390a77c5" y="175.945833"/>
     <use style="stroke:#000000;" x="825.762452" xlink:href="#m0e390a77c5" y="260.01315"/>
     <use style="stroke:#000000;" x="831.519547" xlink:href="#m0e390a77c5" y="350.985522"/>
     <use style="stroke:#000000;" x="837.276642" xlink:href="#m0e390a77c5" y="155.490271"/>
     <use style="stroke:#000000;" x="843.033737" xlink:href="#m0e390a77c5" y="168.027361"/>
     <use style="stroke:#000000;" x="848.790833" xlink:href="#m0e390a77c5" y="260.65565"/>
     <use style="stroke:#000000;" x="854.547928" xlink:href="#m0e390a77c5" y="195.887557"/>
     <use style="stroke:#000000;" x="860.305023" xlink:href="#m0e390a77c5" y="244.088792"/>
     <use style="stroke:#000000;" x="866.062118" xlink:href="#m0e390a77c5" y="186.63214"/>
     <use style="stroke:#000000;" x="871.819214" xlink:href="#m0e390a77c5" y="225.456478"/>
     <use style="stroke:#000000;" x="877.576309" xlink:href="#m0e390a77c5" y="202.657466"/>
     <use style="stroke:#000000;" x="883.333404" xlink:href="#m0e390a77c5" y="145.900207"/>
     <use style="stroke:#000000;" x="889.090499" xlink:href="#m0e390a77c5" y="275.163561"/>
     <use style="stroke:#000000;" x="894.847594" xlink:href="#m0e390a77c5" y="191.368661"/>
     <use style="stroke:#000000;" x="900.60469" xlink:href="#m0e390a77c5" y="236.66455"/>
     <use style="stroke:#000000;" x="906.361785" xlink:href="#m0e390a77c5" y="176.04992"/>
     <use style="stroke:#000000;" x="912.11888" xlink:href="#m0e390a77c5" y="259.894797"/>
     <use style="stroke:#000000;" x="917.875975" xlink:href="#m0e390a77c5" y="185.433688"/>
     <use style="stroke:#000000;" x="923.63307" xlink:href="#m0e390a77c5" y="230.271859"/>
     <use style="stroke:#000000;" x="929.390166" xlink:href="#m0e390a77c5" y="196.456715"/>
     <use style="stroke:#000000;" x="935.147261" xlink:href="#m0e390a77c5" y="221.721183"/>
     <use style="stroke:#000000;" x="940.904356" xlink:href="#m0e390a77c5" y="201.57748"/>
     <use style="stroke:#000000;" x="946.661451" xlink:href="#m0e390a77c5" y="160.291073"/>
     <use style="stroke:#000000;" x="952.418547" xlink:href="#m0e390a77c5" y="276.213468"/>
     <use style="stroke:#000000;" x="958.175642" xlink:href="#m0e390a77c5" y="123.32872"/>
     <use style="stroke:#000000;" x="963.932737" xlink:href="#m0e390a77c5" y="212.585959"/>
    </g>
   </g>
   <g id="line2d_42">
    <path clip-path="url(#p73e5ca6eec)" d="M 739.406024 214.976639 
L 745.163119 214.976639 
L 750.920214 214.976639 
L 756.677309 214.976639 
L 762.434405 214.976639 
L 768.1915 214.976639 
L 773.948595 214.976639 
L 779.70569 214.976639 
L 785.462785 214.976639 
L 791.219881 214.976639 
L 796.976976 214.976639 
L 802.734071 214.976639 
L 808.491166 214.976639 
L 814.248261 214.976639 
L 820.005357 214.976639 
L 825.762452 214.976639 
L 831.519547 214.976639 
L 837.276642 214.976639 
L 843.033737 214.976639 
L 848.790833 214.976639 
L 854.547928 214.976639 
L 860.305023 214.976639 
L 866.062118 214.976639 
L 871.819214 214.976639 
L 877.576309 214.976639 
L 883.333404 214.976639 
L 889.090499 214.976639 
L 894.847594 214.976639 
L 900.60469 214.976639 
L 906.361785 214.976639 
L 912.11888 214.976639 
L 917.875975 214.976639 
L 923.63307 214.976639 
L 929.390166 214.976639 
L 935.147261 214.976639 
L 940.904356 214.976639 
L 946.661451 214.976639 
L 952.418547 214.976639 
L 958.175642 214.976639 
L 963.932737 214.976639 
" style="fill:none;stroke:#000000;stroke-dasharray:5.55,2.4;stroke-dashoffset:0;stroke-width:1.5;"/>
   </g>
   <g id="line2d_43">
    <path clip-path="url(#p73e5ca6eec)" d="M 969.689832 218.641627 
L 975.446927 147.499466 
L 981.204023 193.040848 
L 986.961118 193.821635 
L 992.718213 190.908466 
L 998.475308 269.946881 
L 1004.232403 153.606856 
L 1009.989499 76.316249 
L 1015.746594 213.489697 
L 1021.503689 169.452614 
L 1027.260784 277.455779 
L 1033.01788 240.155869 
L 1038.774975 185.079437 
L 1044.53207 255.182802 
L 1050.289165 239.697514 
L 1056.04626 261.550672 
L 1061.803356 168.030353 
L 1067.560451 239.957202 
L 1073.317546 215.655079 
L 1079.074641 190.190781 
L 1084.831736 196.890026 
L 1090.588832 105.113225 
L 1096.345927 160.869924 
L 1102.103022 150.311693 
L 1107.860117 186.854643 
L 1113.617212 254.307319 
L 1119.374308 225.712037 
L 1125.131403 311.379707 
L 1130.888498 212.110777 
L 1136.645593 184.722762 
L 1142.402689 206.879725 
L 1148.159784 149.873461 
L 1153.916879 197.055978 
L 1159.673974 137.749509 
L 1165.431069 169.298958 
L 1171.188165 199.487194 
L 1176.94526 290.292943 
L 1182.702355 234.353438 
L 1188.45945 184.35535 
L 1194.216545 280.263036 
" style="fill:none;stroke:#bfbf00;stroke-linecap:square;stroke-width:1.5;"/>
   </g>
   <g id="line2d_44">
    <defs>
     <path d="M 0 3 
C 0.795609 3 1.55874 2.683901 2.12132 2.12132 
C 2.683901 1.55874 3 0.795609 3 0 
C 3 -0.795609 2.683901 -1.55874 2.12132 -2.12132 
C 1.55874 -2.683901 0.795609 -3 0 -3 
C -0.795609 -3 -1.55874 -2.683901 -2.12132 -2.12132 
C -2.683901 -1.55874 -3 -0.795609 -3 0 
C -3 0.795609 -2.683901 1.55874 -2.12132 2.12132 
C -1.55874 2.683901 -0.795609 3 0 3 
z
" id="mdc42926391" style="stroke:#bfbf00;"/>
    </defs>
    <g clip-path="url(#p73e5ca6eec)">
     <use style="fill:#bfbf00;stroke:#bfbf00;" x="969.689832" xlink:href="#mdc42926391" y="218.641627"/>
     <use style="fill:#bfbf00;stroke:#bfbf00;" x="975.446927" xlink:href="#mdc42926391" y="147.499466"/>
     <use style="fill:#bfbf00;stroke:#bfbf00;" x="981.204023" xlink:href="#mdc42926391" y="193.040848"/>
     <use style="fill:#bfbf00;stroke:#bfbf00;" x="986.961118" xlink:href="#mdc42926391" y="193.821635"/>
     <use style="fill:#bfbf00;stroke:#bfbf00;" x="992.718213" xlink:href="#mdc42926391" y="190.908466"/>
     <use style="fill:#bfbf00;stroke:#bfbf00;" x="998.475308" xlink:href="#mdc42926391" y="269.946881"/>
     <use style="fill:#bfbf00;stroke:#bfbf00;" x="1004.232403" xlink:href="#mdc42926391" y="153.606856"/>
     <use style="fill:#bfbf00;stroke:#bfbf00;" x="1009.989499" xlink:href="#mdc42926391" y="76.316249"/>
     <use style="fill:#bfbf00;stroke:#bfbf00;" x="1015.746594" xlink:href="#mdc42926391" y="213.489697"/>
     <use style="fill:#bfbf00;stroke:#bfbf00;" x="1021.503689" xlink:href="#mdc42926391" y="169.452614"/>
     <use style="fill:#bfbf00;stroke:#bfbf00;" x="1027.260784" xlink:href="#mdc42926391" y="277.455779"/>
     <use style="fill:#bfbf00;stroke:#bfbf00;" x="1033.01788" xlink:href="#mdc42926391" y="240.155869"/>
     <use style="fill:#bfbf00;stroke:#bfbf00;" x="1038.774975" xlink:href="#mdc42926391" y="185.079437"/>
     <use style="fill:#bfbf00;stroke:#bfbf00;" x="1044.53207" xlink:href="#mdc42926391" y="255.182802"/>
     <use style="fill:#bfbf00;stroke:#bfbf00;" x="1050.289165" xlink:href="#mdc42926391" y="239.697514"/>
     <use style="fill:#bfbf00;stroke:#bfbf00;" x="1056.04626" xlink:href="#mdc42926391" y="261.550672"/>
     <use style="fill:#bfbf00;stroke:#bfbf00;" x="1061.803356" xlink:href="#mdc42926391" y="168.030353"/>
     <use style="fill:#bfbf00;stroke:#bfbf00;" x="1067.560451" xlink:href="#mdc42926391" y="239.957202"/>
     <use style="fill:#bfbf00;stroke:#bfbf00;" x="1073.317546" xlink:href="#mdc42926391" y="215.655079"/>
     <use style="fill:#bfbf00;stroke:#bfbf00;" x="1079.074641" xlink:href="#mdc42926391" y="190.190781"/>
     <use style="fill:#bfbf00;stroke:#bfbf00;" x="1084.831736" xlink:href="#mdc42926391" y="196.890026"/>
     <use style="fill:#bfbf00;stroke:#bfbf00;" x="1090.588832" xlink:href="#mdc42926391" y="105.113225"/>
     <use style="fill:#bfbf00;stroke:#bfbf00;" x="1096.345927" xlink:href="#mdc42926391" y="160.869924"/>
     <use style="fill:#bfbf00;stroke:#bfbf00;" x="1102.103022" xlink:href="#mdc42926391" y="150.311693"/>
     <use style="fill:#bfbf00;stroke:#bfbf00;" x="1107.860117" xlink:href="#mdc42926391" y="186.854643"/>
     <use style="fill:#bfbf00;stroke:#bfbf00;" x="1113.617212" xlink:href="#mdc42926391" y="254.307319"/>
     <use style="fill:#bfbf00;stroke:#bfbf00;" x="1119.374308" xlink:href="#mdc42926391" y="225.712037"/>
     <use style="fill:#bfbf00;stroke:#bfbf00;" x="1125.131403" xlink:href="#mdc42926391" y="311.379707"/>
     <use style="fill:#bfbf00;stroke:#bfbf00;" x="1130.888498" xlink:href="#mdc42926391" y="212.110777"/>
     <use style="fill:#bfbf00;stroke:#bfbf00;" x="1136.645593" xlink:href="#mdc42926391" y="184.722762"/>
     <use style="fill:#bfbf00;stroke:#bfbf00;" x="1142.402689" xlink:href="#mdc42926391" y="206.879725"/>
     <use style="fill:#bfbf00;stroke:#bfbf00;" x="1148.159784" xlink:href="#mdc42926391" y="149.873461"/>
     <use style="fill:#bfbf00;stroke:#bfbf00;" x="1153.916879" xlink:href="#mdc42926391" y="197.055978"/>
     <use style="fill:#bfbf00;stroke:#bfbf00;" x="1159.673974" xlink:href="#mdc42926391" y="137.749509"/>
     <use style="fill:#bfbf00;stroke:#bfbf00;" x="1165.431069" xlink:href="#mdc42926391" y="169.298958"/>
     <use style="fill:#bfbf00;stroke:#bfbf00;" x="1171.188165" xlink:href="#mdc42926391" y="199.487194"/>
     <use style="fill:#bfbf00;stroke:#bfbf00;" x="1176.94526" xlink:href="#mdc42926391" y="290.292943"/>
     <use style="fill:#bfbf00;stroke:#bfbf00;" x="1182.702355" xlink:href="#mdc42926391" y="234.353438"/>
     <use style="fill:#bfbf00;stroke:#bfbf00;" x="1188.45945" xlink:href="#mdc42926391" y="184.35535"/>
     <use style="fill:#bfbf00;stroke:#bfbf00;" x="1194.216545" xlink:href="#mdc42926391" y="280.263036"/>
    </g>
   </g>
   <g id="line2d_45">
    <path clip-path="url(#p73e5ca6eec)" d="M 969.689832 203.439038 
L 975.446927 203.439038 
L 981.204023 203.439038 
L 986.961118 203.439038 
L 992.718213 203.439038 
L 998.475308 203.439038 
L 1004.232403 203.439038 
L 1009.989499 203.439038 
L 1015.746594 203.439038 
L 1021.503689 203.439038 
L 1027.260784 203.439038 
L 1033.01788 203.439038 
L 1038.774975 203.439038 
L 1044.53207 203.439038 
L 1050.289165 203.439038 
L 1056.04626 203.439038 
L 1061.803356 203.439038 
L 1067.560451 203.439038 
L 1073.317546 203.439038 
L 1079.074641 203.439038 
L 1084.831736 203.439038 
L 1090.588832 203.439038 
L 1096.345927 203.439038 
L 1102.103022 203.439038 
L 1107.860117 203.439038 
L 1113.617212 203.439038 
L 1119.374308 203.439038 
L 1125.131403 203.439038 
L 1130.888498 203.439038 
L 1136.645593 203.439038 
L 1142.402689 203.439038 
L 1148.159784 203.439038 
L 1153.916879 203.439038 
L 1159.673974 203.439038 
L 1165.431069 203.439038 
L 1171.188165 203.439038 
L 1176.94526 203.439038 
L 1182.702355 203.439038 
L 1188.45945 203.439038 
L 1194.216545 203.439038 
" style="fill:none;stroke:#bfbf00;stroke-dasharray:5.55,2.4;stroke-dashoffset:0;stroke-width:1.5;"/>
   </g>
   <g id="patch_3">
    <path d="M 172.62 366.5376 
L 172.62 49.4208 
" style="fill:none;stroke:#000000;stroke-linecap:square;stroke-linejoin:miter;stroke-width:0.8;"/>
   </g>
   <g id="patch_4">
    <path d="M 1242.864 366.5376 
L 1242.864 49.4208 
" style="fill:none;stroke:#000000;stroke-linecap:square;stroke-linejoin:miter;stroke-width:0.8;"/>
   </g>
   <g id="patch_5">
    <path d="M 172.62 366.5376 
L 1242.864 366.5376 
" style="fill:none;stroke:#000000;stroke-linecap:square;stroke-linejoin:miter;stroke-width:0.8;"/>
   </g>
   <g id="patch_6">
    <path d="M 172.62 49.4208 
L 1242.864 49.4208 
" style="fill:none;stroke:#000000;stroke-linecap:square;stroke-linejoin:miter;stroke-width:0.8;"/>
   </g>
   <g id="text_18">
    <!-- Q20 Horizontal Magnetic Center (+157.41 A) -->
    <defs>
     <path d="M 39.40625 66.21875 
Q 28.65625 66.21875 22.328125 58.203125 
Q 16.015625 50.203125 16.015625 36.375 
Q 16.015625 22.609375 22.328125 14.59375 
Q 28.65625 6.59375 39.40625 6.59375 
Q 50.140625 6.59375 56.421875 14.59375 
Q 62.703125 22.609375 62.703125 36.375 
Q 62.703125 50.203125 56.421875 58.203125 
Q 50.140625 66.21875 39.40625 66.21875 
z
M 53.21875 1.3125 
L 66.21875 -12.890625 
L 54.296875 -12.890625 
L 43.5 -1.21875 
Q 41.890625 -1.3125 41.03125 -1.359375 
Q 40.1875 -1.421875 39.40625 -1.421875 
Q 24.03125 -1.421875 14.8125 8.859375 
Q 5.609375 19.140625 5.609375 36.375 
Q 5.609375 53.65625 14.8125 63.9375 
Q 24.03125 74.21875 39.40625 74.21875 
Q 54.734375 74.21875 63.90625 63.9375 
Q 73.09375 53.65625 73.09375 36.375 
Q 73.09375 23.6875 67.984375 14.640625 
Q 62.890625 5.609375 53.21875 1.3125 
z
" id="DejaVuSans-81"/>
     <path d="M 9.8125 72.90625 
L 19.671875 72.90625 
L 19.671875 43.015625 
L 55.515625 43.015625 
L 55.515625 72.90625 
L 65.375 72.90625 
L 65.375 0 
L 55.515625 0 
L 55.515625 34.71875 
L 19.671875 34.71875 
L 19.671875 0 
L 9.8125 0 
z
" id="DejaVuSans-72"/>
     <path d="M 30.609375 48.390625 
Q 23.390625 48.390625 19.1875 42.75 
Q 14.984375 37.109375 14.984375 27.296875 
Q 14.984375 17.484375 19.15625 11.84375 
Q 23.34375 6.203125 30.609375 6.203125 
Q 37.796875 6.203125 41.984375 11.859375 
Q 46.1875 17.53125 46.1875 27.296875 
Q 46.1875 37.015625 41.984375 42.703125 
Q 37.796875 48.390625 30.609375 48.390625 
z
M 30.609375 56 
Q 42.328125 56 49.015625 48.375 
Q 55.71875 40.765625 55.71875 27.296875 
Q 55.71875 13.875 49.015625 6.21875 
Q 42.328125 -1.421875 30.609375 -1.421875 
Q 18.84375 -1.421875 12.171875 6.21875 
Q 5.515625 13.875 5.515625 27.296875 
Q 5.515625 40.765625 12.171875 48.375 
Q 18.84375 56 30.609375 56 
z
" id="DejaVuSans-111"/>
     <path d="M 5.515625 54.6875 
L 48.1875 54.6875 
L 48.1875 46.484375 
L 14.40625 7.171875 
L 48.1875 7.171875 
L 48.1875 0 
L 4.296875 0 
L 4.296875 8.203125 
L 38.09375 47.515625 
L 5.515625 47.515625 
z
" id="DejaVuSans-122"/>
     <path d="M 9.421875 75.984375 
L 18.40625 75.984375 
L 18.40625 0 
L 9.421875 0 
z
" id="DejaVuSans-108"/>
     <path d="M 31 75.875 
Q 24.46875 64.65625 21.28125 53.65625 
Q 18.109375 42.671875 18.109375 31.390625 
Q 18.109375 20.125 21.3125 9.0625 
Q 24.515625 -2 31 -13.1875 
L 23.1875 -13.1875 
Q 15.875 -1.703125 12.234375 9.375 
Q 8.59375 20.453125 8.59375 31.390625 
Q 8.59375 42.28125 12.203125 53.3125 
Q 15.828125 64.359375 23.1875 75.875 
z
" id="DejaVuSans-40"/>
     <path d="M 46 62.703125 
L 46 35.5 
L 73.1875 35.5 
L 73.1875 27.203125 
L 46 27.203125 
L 46 0 
L 37.796875 0 
L 37.796875 27.203125 
L 10.59375 27.203125 
L 10.59375 35.5 
L 37.796875 35.5 
L 37.796875 62.703125 
z
" id="DejaVuSans-43"/>
     <path d="M 10.6875 12.40625 
L 21 12.40625 
L 21 0 
L 10.6875 0 
z
" id="DejaVuSans-46"/>
     <path d="M 37.796875 64.3125 
L 12.890625 25.390625 
L 37.796875 25.390625 
z
M 35.203125 72.90625 
L 47.609375 72.90625 
L 47.609375 25.390625 
L 58.015625 25.390625 
L 58.015625 17.1875 
L 47.609375 17.1875 
L 47.609375 0 
L 37.796875 0 
L 37.796875 17.1875 
L 4.890625 17.1875 
L 4.890625 26.703125 
z
" id="DejaVuSans-52"/>
     <path d="M 34.1875 63.1875 
L 20.796875 26.90625 
L 47.609375 26.90625 
z
M 28.609375 72.90625 
L 39.796875 72.90625 
L 67.578125 0 
L 57.328125 0 
L 50.6875 18.703125 
L 17.828125 18.703125 
L 11.1875 0 
L 0.78125 0 
z
" id="DejaVuSans-65"/>
     <path d="M 8.015625 75.875 
L 15.828125 75.875 
Q 23.140625 64.359375 26.78125 53.3125 
Q 30.421875 42.28125 30.421875 31.390625 
Q 30.421875 20.453125 26.78125 9.375 
Q 23.140625 -1.703125 15.828125 -13.1875 
L 8.015625 -13.1875 
Q 14.5 -2 17.703125 9.0625 
Q 20.90625 20.125 20.90625 31.390625 
Q 20.90625 42.671875 17.703125 53.65625 
Q 14.5 64.65625 8.015625 75.875 
z
" id="DejaVuSans-41"/>
    </defs>
    <g transform="translate(572.735438 43.4208)scale(0.12 -0.12)">
     <use xlink:href="#DejaVuSans-81"/>
     <use x="78.710938" xlink:href="#DejaVuSans-50"/>
     <use x="142.333984" xlink:href="#DejaVuSans-48"/>
     <use x="205.957031" xlink:href="#DejaVuSans-32"/>
     <use x="237.744141" xlink:href="#DejaVuSans-72"/>
     <use x="312.939453" xlink:href="#DejaVuSans-111"/>
     <use x="374.121094" xlink:href="#DejaVuSans-114"/>
     <use x="415.234375" xlink:href="#DejaVuSans-105"/>
     <use x="443.017578" xlink:href="#DejaVuSans-122"/>
     <use x="495.507812" xlink:href="#DejaVuSans-111"/>
     <use x="556.689453" xlink:href="#DejaVuSans-110"/>
     <use x="620.068359" xlink:href="#DejaVuSans-116"/>
     <use x="659.277344" xlink:href="#DejaVuSans-97"/>
     <use x="720.556641" xlink:href="#DejaVuSans-108"/>
     <use x="748.339844" xlink:href="#DejaVuSans-32"/>
     <use x="780.126953" xlink:href="#DejaVuSans-77"/>
     <use x="866.40625" xlink:href="#DejaVuSans-97"/>
     <use x="927.685547" xlink:href="#DejaVuSans-103"/>
     <use x="991.162109" xlink:href="#DejaVuSans-110"/>
     <use x="1054.541016" xlink:href="#DejaVuSans-101"/>
     <use x="1116.064453" xlink:href="#DejaVuSans-116"/>
     <use x="1155.273438" xlink:href="#DejaVuSans-105"/>
     <use x="1183.056641" xlink:href="#DejaVuSans-99"/>
     <use x="1238.037109" xlink:href="#DejaVuSans-32"/>
     <use x="1269.824219" xlink:href="#DejaVuSans-67"/>
     <use x="1339.648438" xlink:href="#DejaVuSans-101"/>
     <use x="1401.171875" xlink:href="#DejaVuSans-110"/>
     <use x="1464.550781" xlink:href="#DejaVuSans-116"/>
     <use x="1503.759766" xlink:href="#DejaVuSans-101"/>
     <use x="1565.283203" xlink:href="#DejaVuSans-114"/>
     <use x="1606.396484" xlink:href="#DejaVuSans-32"/>
     <use x="1638.183594" xlink:href="#DejaVuSans-40"/>
     <use x="1677.197266" xlink:href="#DejaVuSans-43"/>
     <use x="1760.986328" xlink:href="#DejaVuSans-49"/>
     <use x="1824.609375" xlink:href="#DejaVuSans-53"/>
     <use x="1888.232422" xlink:href="#DejaVuSans-55"/>
     <use x="1951.855469" xlink:href="#DejaVuSans-46"/>
     <use x="1983.642578" xlink:href="#DejaVuSans-52"/>
     <use x="2047.265625" xlink:href="#DejaVuSans-49"/>
     <use x="2110.888672" xlink:href="#DejaVuSans-32"/>
     <use x="2142.675781" xlink:href="#DejaVuSans-65"/>
     <use x="2211.083984" xlink:href="#DejaVuSans-41"/>
    </g>
   </g>
   <g id="legend_1">
    <g id="patch_7">
     <path d="M 1183.414 130.811425 
L 1235.864 130.811425 
Q 1237.864 130.811425 1237.864 128.811425 
L 1237.864 56.4208 
Q 1237.864 54.4208 1235.864 54.4208 
L 1183.414 54.4208 
Q 1181.414 54.4208 1181.414 56.4208 
L 1181.414 128.811425 
Q 1181.414 130.811425 1183.414 130.811425 
z
" style="fill:#ffffff;opacity:0.8;stroke:#cccccc;stroke-linejoin:miter;"/>
    </g>
    <g id="line2d_46"/>
    <g id="line2d_47">
     <g>
      <use style="fill:#0000ff;stroke:#0000ff;" x="1195.414" xlink:href="#m4a9f1d4737" y="62.519237"/>
     </g>
    </g>
    <g id="text_19">
     <!-- QFA -->
     <defs>
      <path d="M 9.8125 72.90625 
L 51.703125 72.90625 
L 51.703125 64.59375 
L 19.671875 64.59375 
L 19.671875 43.109375 
L 48.578125 43.109375 
L 48.578125 34.8125 
L 19.671875 34.8125 
L 19.671875 0 
L 9.8125 0 
z
" id="DejaVuSans-70"/>
     </defs>
     <g transform="translate(1213.414 66.019237)scale(0.1 -0.1)">
      <use xlink:href="#DejaVuSans-81"/>
      <use x="78.710938" xlink:href="#DejaVuSans-70"/>
      <use x="136.089844" xlink:href="#DejaVuSans-65"/>
     </g>
    </g>
    <g id="line2d_48"/>
    <g id="line2d_49">
     <g>
      <use style="fill:#008000;stroke:#008000;" x="1195.414" xlink:href="#m2a0c48c993" y="77.197362"/>
     </g>
    </g>
    <g id="text_20">
     <!-- Q1 -->
     <g transform="translate(1213.414 80.697362)scale(0.1 -0.1)">
      <use xlink:href="#DejaVuSans-81"/>
      <use x="78.710938" xlink:href="#DejaVuSans-49"/>
     </g>
    </g>
    <g id="line2d_50"/>
    <g id="line2d_51">
     <g>
      <use style="fill:#ff0000;stroke:#ff0000;" x="1195.414" xlink:href="#m9b5c23233a" y="91.875487"/>
     </g>
    </g>
    <g id="text_21">
     <!-- Q2 -->
     <g transform="translate(1213.414 95.375487)scale(0.1 -0.1)">
      <use xlink:href="#DejaVuSans-81"/>
      <use x="78.710938" xlink:href="#DejaVuSans-50"/>
     </g>
    </g>
    <g id="line2d_52"/>
    <g id="line2d_53">
     <g>
      <use style="stroke:#000000;" x="1195.414" xlink:href="#m0e390a77c5" y="106.553612"/>
     </g>
    </g>
    <g id="text_22">
     <!-- Q3 -->
     <defs>
      <path d="M 40.578125 39.3125 
Q 47.65625 37.796875 51.625 33 
Q 55.609375 28.21875 55.609375 21.1875 
Q 55.609375 10.40625 48.1875 4.484375 
Q 40.765625 -1.421875 27.09375 -1.421875 
Q 22.515625 -1.421875 17.65625 -0.515625 
Q 12.796875 0.390625 7.625 2.203125 
L 7.625 11.71875 
Q 11.71875 9.328125 16.59375 8.109375 
Q 21.484375 6.890625 26.8125 6.890625 
Q 36.078125 6.890625 40.9375 10.546875 
Q 45.796875 14.203125 45.796875 21.1875 
Q 45.796875 27.640625 41.28125 31.265625 
Q 36.765625 34.90625 28.71875 34.90625 
L 20.21875 34.90625 
L 20.21875 43.015625 
L 29.109375 43.015625 
Q 36.375 43.015625 40.234375 45.921875 
Q 44.09375 48.828125 44.09375 54.296875 
Q 44.09375 59.90625 40.109375 62.90625 
Q 36.140625 65.921875 28.71875 65.921875 
Q 24.65625 65.921875 20.015625 65.03125 
Q 15.375 64.15625 9.8125 62.3125 
L 9.8125 71.09375 
Q 15.4375 72.65625 20.34375 73.4375 
Q 25.25 74.21875 29.59375 74.21875 
Q 40.828125 74.21875 47.359375 69.109375 
Q 53.90625 64.015625 53.90625 55.328125 
Q 53.90625 49.265625 50.4375 45.09375 
Q 46.96875 40.921875 40.578125 39.3125 
z
" id="DejaVuSans-51"/>
     </defs>
     <g transform="translate(1213.414 110.053612)scale(0.1 -0.1)">
      <use xlink:href="#DejaVuSans-81"/>
      <use x="78.710938" xlink:href="#DejaVuSans-51"/>
     </g>
    </g>
    <g id="line2d_54"/>
    <g id="line2d_55">
     <g>
      <use style="fill:#bfbf00;stroke:#bfbf00;" x="1195.414" xlink:href="#mdc42926391" y="121.231737"/>
     </g>
    </g>
    <g id="text_23">
     <!-- Q4 -->
     <g transform="translate(1213.414 124.731737)scale(0.1 -0.1)">
      <use xlink:href="#DejaVuSans-81"/>
      <use x="78.710938" xlink:href="#DejaVuSans-52"/>
     </g>
    </g>
   </g>
  </g>
 </g>
 <defs>
  <clipPath id="p73e5ca6eec">
   <rect height="317.1168" width="1070.244" x="172.62" y="49.4208"/>
  </clipPath>
 </defs>
</svg>
