<?xml version="1.0" encoding="utf-8" standalone="no"?>
<!DOCTYPE svg PUBLIC "-//W3C//DTD SVG 1.1//EN"
  "http://www.w3.org/Graphics/SVG/1.1/DTD/svg11.dtd">
<!-- Created with matplotlib (https://matplotlib.org/) -->
<svg height="411.84pt" version="1.1" viewBox="0 0 1380.96 411.84" width="1380.96pt" xmlns="http://www.w3.org/2000/svg" xmlns:xlink="http://www.w3.org/1999/xlink">
 <defs>
  <style type="text/css">
*{stroke-linecap:butt;stroke-linejoin:round;}
  </style>
 </defs>
 <g id="figure_1">
  <g id="patch_1">
   <path d="M 0 411.84 
L 1380.96 411.84 
L 1380.96 0 
L 0 0 
z
" style="fill:#ffffff;"/>
  </g>
  <g id="axes_1">
   <g id="patch_2">
    <path d="M 172.62 366.5376 
L 1242.864 366.5376 
L 1242.864 49.4208 
L 172.62 49.4208 
z
" style="fill:#ffffff;"/>
   </g>
   <g id="matplotlib.axis_1">
    <g id="xtick_1">
     <g id="line2d_1">
      <path clip-path="url(#p2fb8542c3f)" d="M 221.267455 366.5376 
L 221.267455 49.4208 
" style="fill:none;stroke:#b0b0b0;stroke-linecap:square;stroke-width:0.8;"/>
     </g>
     <g id="line2d_2">
      <defs>
       <path d="M 0 0 
L 0 3.5 
" id="m1ac46ebc76" style="stroke:#000000;stroke-width:0.8;"/>
      </defs>
      <g>
       <use style="stroke:#000000;stroke-width:0.8;" x="221.267455" xlink:href="#m1ac46ebc76" y="366.5376"/>
      </g>
     </g>
     <g id="text_1">
      <!-- 0 -->
      <defs>
       <path d="M 31.78125 66.40625 
Q 24.171875 66.40625 20.328125 58.90625 
Q 16.5 51.421875 16.5 36.375 
Q 16.5 21.390625 20.328125 13.890625 
Q 24.171875 6.390625 31.78125 6.390625 
Q 39.453125 6.390625 43.28125 13.890625 
Q 47.125 21.390625 47.125 36.375 
Q 47.125 51.421875 43.28125 58.90625 
Q 39.453125 66.40625 31.78125 66.40625 
z
M 31.78125 74.21875 
Q 44.046875 74.21875 50.515625 64.515625 
Q 56.984375 54.828125 56.984375 36.375 
Q 56.984375 17.96875 50.515625 8.265625 
Q 44.046875 -1.421875 31.78125 -1.421875 
Q 19.53125 -1.421875 13.0625 8.265625 
Q 6.59375 17.96875 6.59375 36.375 
Q 6.59375 54.828125 13.0625 64.515625 
Q 19.53125 74.21875 31.78125 74.21875 
z
" id="DejaVuSans-48"/>
      </defs>
      <g transform="translate(218.086205 381.136037)scale(0.1 -0.1)">
       <use xlink:href="#DejaVuSans-48"/>
      </g>
     </g>
    </g>
    <g id="xtick_2">
     <g id="line2d_3">
      <path clip-path="url(#p2fb8542c3f)" d="M 365.194835 366.5376 
L 365.194835 49.4208 
" style="fill:none;stroke:#b0b0b0;stroke-linecap:square;stroke-width:0.8;"/>
     </g>
     <g id="line2d_4">
      <g>
       <use style="stroke:#000000;stroke-width:0.8;" x="365.194835" xlink:href="#m1ac46ebc76" y="366.5376"/>
      </g>
     </g>
     <g id="text_2">
      <!-- 25 -->
      <defs>
       <path d="M 19.1875 8.296875 
L 53.609375 8.296875 
L 53.609375 0 
L 7.328125 0 
L 7.328125 8.296875 
Q 12.9375 14.109375 22.625 23.890625 
Q 32.328125 33.6875 34.8125 36.53125 
Q 39.546875 41.84375 41.421875 45.53125 
Q 43.3125 49.21875 43.3125 52.78125 
Q 43.3125 58.59375 39.234375 62.25 
Q 35.15625 65.921875 28.609375 65.921875 
Q 23.96875 65.921875 18.8125 64.3125 
Q 13.671875 62.703125 7.8125 59.421875 
L 7.8125 69.390625 
Q 13.765625 71.78125 18.9375 73 
Q 24.125 74.21875 28.421875 74.21875 
Q 39.75 74.21875 46.484375 68.546875 
Q 53.21875 62.890625 53.21875 53.421875 
Q 53.21875 48.921875 51.53125 44.890625 
Q 49.859375 40.875 45.40625 35.40625 
Q 44.1875 33.984375 37.640625 27.21875 
Q 31.109375 20.453125 19.1875 8.296875 
z
" id="DejaVuSans-50"/>
       <path d="M 10.796875 72.90625 
L 49.515625 72.90625 
L 49.515625 64.59375 
L 19.828125 64.59375 
L 19.828125 46.734375 
Q 21.96875 47.46875 24.109375 47.828125 
Q 26.265625 48.1875 28.421875 48.1875 
Q 40.625 48.1875 47.75 41.5 
Q 54.890625 34.8125 54.890625 23.390625 
Q 54.890625 11.625 47.5625 5.09375 
Q 40.234375 -1.421875 26.90625 -1.421875 
Q 22.3125 -1.421875 17.546875 -0.640625 
Q 12.796875 0.140625 7.71875 1.703125 
L 7.71875 11.625 
Q 12.109375 9.234375 16.796875 8.0625 
Q 21.484375 6.890625 26.703125 6.890625 
Q 35.15625 6.890625 40.078125 11.328125 
Q 45.015625 15.765625 45.015625 23.390625 
Q 45.015625 31 40.078125 35.4375 
Q 35.15625 39.890625 26.703125 39.890625 
Q 22.75 39.890625 18.8125 39.015625 
Q 14.890625 38.140625 10.796875 36.28125 
z
" id="DejaVuSans-53"/>
      </defs>
      <g transform="translate(358.832335 381.136037)scale(0.1 -0.1)">
       <use xlink:href="#DejaVuSans-50"/>
       <use x="63.623047" xlink:href="#DejaVuSans-53"/>
      </g>
     </g>
    </g>
    <g id="xtick_3">
     <g id="line2d_5">
      <path clip-path="url(#p2fb8542c3f)" d="M 509.122215 366.5376 
L 509.122215 49.4208 
" style="fill:none;stroke:#b0b0b0;stroke-linecap:square;stroke-width:0.8;"/>
     </g>
     <g id="line2d_6">
      <g>
       <use style="stroke:#000000;stroke-width:0.8;" x="509.122215" xlink:href="#m1ac46ebc76" y="366.5376"/>
      </g>
     </g>
     <g id="text_3">
      <!-- 50 -->
      <g transform="translate(502.759715 381.136037)scale(0.1 -0.1)">
       <use xlink:href="#DejaVuSans-53"/>
       <use x="63.623047" xlink:href="#DejaVuSans-48"/>
      </g>
     </g>
    </g>
    <g id="xtick_4">
     <g id="line2d_7">
      <path clip-path="url(#p2fb8542c3f)" d="M 653.049595 366.5376 
L 653.049595 49.4208 
" style="fill:none;stroke:#b0b0b0;stroke-linecap:square;stroke-width:0.8;"/>
     </g>
     <g id="line2d_8">
      <g>
       <use style="stroke:#000000;stroke-width:0.8;" x="653.049595" xlink:href="#m1ac46ebc76" y="366.5376"/>
      </g>
     </g>
     <g id="text_4">
      <!-- 75 -->
      <defs>
       <path d="M 8.203125 72.90625 
L 55.078125 72.90625 
L 55.078125 68.703125 
L 28.609375 0 
L 18.3125 0 
L 43.21875 64.59375 
L 8.203125 64.59375 
z
" id="DejaVuSans-55"/>
      </defs>
      <g transform="translate(646.687095 381.136037)scale(0.1 -0.1)">
       <use xlink:href="#DejaVuSans-55"/>
       <use x="63.623047" xlink:href="#DejaVuSans-53"/>
      </g>
     </g>
    </g>
    <g id="xtick_5">
     <g id="line2d_9">
      <path clip-path="url(#p2fb8542c3f)" d="M 796.976976 366.5376 
L 796.976976 49.4208 
" style="fill:none;stroke:#b0b0b0;stroke-linecap:square;stroke-width:0.8;"/>
     </g>
     <g id="line2d_10">
      <g>
       <use style="stroke:#000000;stroke-width:0.8;" x="796.976976" xlink:href="#m1ac46ebc76" y="366.5376"/>
      </g>
     </g>
     <g id="text_5">
      <!-- 100 -->
      <defs>
       <path d="M 12.40625 8.296875 
L 28.515625 8.296875 
L 28.515625 63.921875 
L 10.984375 60.40625 
L 10.984375 69.390625 
L 28.421875 72.90625 
L 38.28125 72.90625 
L 38.28125 8.296875 
L 54.390625 8.296875 
L 54.390625 0 
L 12.40625 0 
z
" id="DejaVuSans-49"/>
      </defs>
      <g transform="translate(787.433226 381.136037)scale(0.1 -0.1)">
       <use xlink:href="#DejaVuSans-49"/>
       <use x="63.623047" xlink:href="#DejaVuSans-48"/>
       <use x="127.246094" xlink:href="#DejaVuSans-48"/>
      </g>
     </g>
    </g>
    <g id="xtick_6">
     <g id="line2d_11">
      <path clip-path="url(#p2fb8542c3f)" d="M 940.904356 366.5376 
L 940.904356 49.4208 
" style="fill:none;stroke:#b0b0b0;stroke-linecap:square;stroke-width:0.8;"/>
     </g>
     <g id="line2d_12">
      <g>
       <use style="stroke:#000000;stroke-width:0.8;" x="940.904356" xlink:href="#m1ac46ebc76" y="366.5376"/>
      </g>
     </g>
     <g id="text_6">
      <!-- 125 -->
      <g transform="translate(931.360606 381.136037)scale(0.1 -0.1)">
       <use xlink:href="#DejaVuSans-49"/>
       <use x="63.623047" xlink:href="#DejaVuSans-50"/>
       <use x="127.246094" xlink:href="#DejaVuSans-53"/>
      </g>
     </g>
    </g>
    <g id="xtick_7">
     <g id="line2d_13">
      <path clip-path="url(#p2fb8542c3f)" d="M 1084.831736 366.5376 
L 1084.831736 49.4208 
" style="fill:none;stroke:#b0b0b0;stroke-linecap:square;stroke-width:0.8;"/>
     </g>
     <g id="line2d_14">
      <g>
       <use style="stroke:#000000;stroke-width:0.8;" x="1084.831736" xlink:href="#m1ac46ebc76" y="366.5376"/>
      </g>
     </g>
     <g id="text_7">
      <!-- 150 -->
      <g transform="translate(1075.287986 381.136037)scale(0.1 -0.1)">
       <use xlink:href="#DejaVuSans-49"/>
       <use x="63.623047" xlink:href="#DejaVuSans-53"/>
       <use x="127.246094" xlink:href="#DejaVuSans-48"/>
      </g>
     </g>
    </g>
    <g id="xtick_8">
     <g id="line2d_15">
      <path clip-path="url(#p2fb8542c3f)" d="M 1228.759117 366.5376 
L 1228.759117 49.4208 
" style="fill:none;stroke:#b0b0b0;stroke-linecap:square;stroke-width:0.8;"/>
     </g>
     <g id="line2d_16">
      <g>
       <use style="stroke:#000000;stroke-width:0.8;" x="1228.759117" xlink:href="#m1ac46ebc76" y="366.5376"/>
      </g>
     </g>
     <g id="text_8">
      <!-- 175 -->
      <g transform="translate(1219.215367 381.136037)scale(0.1 -0.1)">
       <use xlink:href="#DejaVuSans-49"/>
       <use x="63.623047" xlink:href="#DejaVuSans-55"/>
       <use x="127.246094" xlink:href="#DejaVuSans-53"/>
      </g>
     </g>
    </g>
    <g id="text_9">
     <!-- Magnet Index -->
     <defs>
      <path d="M 9.8125 72.90625 
L 24.515625 72.90625 
L 43.109375 23.296875 
L 61.8125 72.90625 
L 76.515625 72.90625 
L 76.515625 0 
L 66.890625 0 
L 66.890625 64.015625 
L 48.09375 14.015625 
L 38.1875 14.015625 
L 19.390625 64.015625 
L 19.390625 0 
L 9.8125 0 
z
" id="DejaVuSans-77"/>
      <path d="M 34.28125 27.484375 
Q 23.390625 27.484375 19.1875 25 
Q 14.984375 22.515625 14.984375 16.5 
Q 14.984375 11.71875 18.140625 8.90625 
Q 21.296875 6.109375 26.703125 6.109375 
Q 34.1875 6.109375 38.703125 11.40625 
Q 43.21875 16.703125 43.21875 25.484375 
L 43.21875 27.484375 
z
M 52.203125 31.203125 
L 52.203125 0 
L 43.21875 0 
L 43.21875 8.296875 
Q 40.140625 3.328125 35.546875 0.953125 
Q 30.953125 -1.421875 24.3125 -1.421875 
Q 15.921875 -1.421875 10.953125 3.296875 
Q 6 8.015625 6 15.921875 
Q 6 25.140625 12.171875 29.828125 
Q 18.359375 34.515625 30.609375 34.515625 
L 43.21875 34.515625 
L 43.21875 35.40625 
Q 43.21875 41.609375 39.140625 45 
Q 35.0625 48.390625 27.6875 48.390625 
Q 23 48.390625 18.546875 47.265625 
Q 14.109375 46.140625 10.015625 43.890625 
L 10.015625 52.203125 
Q 14.9375 54.109375 19.578125 55.046875 
Q 24.21875 56 28.609375 56 
Q 40.484375 56 46.34375 49.84375 
Q 52.203125 43.703125 52.203125 31.203125 
z
" id="DejaVuSans-97"/>
      <path d="M 45.40625 27.984375 
Q 45.40625 37.75 41.375 43.109375 
Q 37.359375 48.484375 30.078125 48.484375 
Q 22.859375 48.484375 18.828125 43.109375 
Q 14.796875 37.75 14.796875 27.984375 
Q 14.796875 18.265625 18.828125 12.890625 
Q 22.859375 7.515625 30.078125 7.515625 
Q 37.359375 7.515625 41.375 12.890625 
Q 45.40625 18.265625 45.40625 27.984375 
z
M 54.390625 6.78125 
Q 54.390625 -7.171875 48.1875 -13.984375 
Q 42 -20.796875 29.203125 -20.796875 
Q 24.46875 -20.796875 20.265625 -20.09375 
Q 16.0625 -19.390625 12.109375 -17.921875 
L 12.109375 -9.1875 
Q 16.0625 -11.328125 19.921875 -12.34375 
Q 23.78125 -13.375 27.78125 -13.375 
Q 36.625 -13.375 41.015625 -8.765625 
Q 45.40625 -4.15625 45.40625 5.171875 
L 45.40625 9.625 
Q 42.625 4.78125 38.28125 2.390625 
Q 33.9375 0 27.875 0 
Q 17.828125 0 11.671875 7.65625 
Q 5.515625 15.328125 5.515625 27.984375 
Q 5.515625 40.671875 11.671875 48.328125 
Q 17.828125 56 27.875 56 
Q 33.9375 56 38.28125 53.609375 
Q 42.625 51.21875 45.40625 46.390625 
L 45.40625 54.6875 
L 54.390625 54.6875 
z
" id="DejaVuSans-103"/>
      <path d="M 54.890625 33.015625 
L 54.890625 0 
L 45.90625 0 
L 45.90625 32.71875 
Q 45.90625 40.484375 42.875 44.328125 
Q 39.84375 48.1875 33.796875 48.1875 
Q 26.515625 48.1875 22.3125 43.546875 
Q 18.109375 38.921875 18.109375 30.90625 
L 18.109375 0 
L 9.078125 0 
L 9.078125 54.6875 
L 18.109375 54.6875 
L 18.109375 46.1875 
Q 21.34375 51.125 25.703125 53.5625 
Q 30.078125 56 35.796875 56 
Q 45.21875 56 50.046875 50.171875 
Q 54.890625 44.34375 54.890625 33.015625 
z
" id="DejaVuSans-110"/>
      <path d="M 56.203125 29.59375 
L 56.203125 25.203125 
L 14.890625 25.203125 
Q 15.484375 15.921875 20.484375 11.0625 
Q 25.484375 6.203125 34.421875 6.203125 
Q 39.59375 6.203125 44.453125 7.46875 
Q 49.3125 8.734375 54.109375 11.28125 
L 54.109375 2.78125 
Q 49.265625 0.734375 44.1875 -0.34375 
Q 39.109375 -1.421875 33.890625 -1.421875 
Q 20.796875 -1.421875 13.15625 6.1875 
Q 5.515625 13.8125 5.515625 26.8125 
Q 5.515625 40.234375 12.765625 48.109375 
Q 20.015625 56 32.328125 56 
Q 43.359375 56 49.78125 48.890625 
Q 56.203125 41.796875 56.203125 29.59375 
z
M 47.21875 32.234375 
Q 47.125 39.59375 43.09375 43.984375 
Q 39.0625 48.390625 32.421875 48.390625 
Q 24.90625 48.390625 20.390625 44.140625 
Q 15.875 39.890625 15.1875 32.171875 
z
" id="DejaVuSans-101"/>
      <path d="M 18.3125 70.21875 
L 18.3125 54.6875 
L 36.8125 54.6875 
L 36.8125 47.703125 
L 18.3125 47.703125 
L 18.3125 18.015625 
Q 18.3125 11.328125 20.140625 9.421875 
Q 21.96875 7.515625 27.59375 7.515625 
L 36.8125 7.515625 
L 36.8125 0 
L 27.59375 0 
Q 17.1875 0 13.234375 3.875 
Q 9.28125 7.765625 9.28125 18.015625 
L 9.28125 47.703125 
L 2.6875 47.703125 
L 2.6875 54.6875 
L 9.28125 54.6875 
L 9.28125 70.21875 
z
" id="DejaVuSans-116"/>
      <path id="DejaVuSans-32"/>
      <path d="M 9.8125 72.90625 
L 19.671875 72.90625 
L 19.671875 0 
L 9.8125 0 
z
" id="DejaVuSans-73"/>
      <path d="M 45.40625 46.390625 
L 45.40625 75.984375 
L 54.390625 75.984375 
L 54.390625 0 
L 45.40625 0 
L 45.40625 8.203125 
Q 42.578125 3.328125 38.25 0.953125 
Q 33.9375 -1.421875 27.875 -1.421875 
Q 17.96875 -1.421875 11.734375 6.484375 
Q 5.515625 14.40625 5.515625 27.296875 
Q 5.515625 40.1875 11.734375 48.09375 
Q 17.96875 56 27.875 56 
Q 33.9375 56 38.25 53.625 
Q 42.578125 51.265625 45.40625 46.390625 
z
M 14.796875 27.296875 
Q 14.796875 17.390625 18.875 11.75 
Q 22.953125 6.109375 30.078125 6.109375 
Q 37.203125 6.109375 41.296875 11.75 
Q 45.40625 17.390625 45.40625 27.296875 
Q 45.40625 37.203125 41.296875 42.84375 
Q 37.203125 48.484375 30.078125 48.484375 
Q 22.953125 48.484375 18.875 42.84375 
Q 14.796875 37.203125 14.796875 27.296875 
z
" id="DejaVuSans-100"/>
      <path d="M 54.890625 54.6875 
L 35.109375 28.078125 
L 55.90625 0 
L 45.3125 0 
L 29.390625 21.484375 
L 13.484375 0 
L 2.875 0 
L 24.125 28.609375 
L 4.6875 54.6875 
L 15.28125 54.6875 
L 29.78125 35.203125 
L 44.28125 54.6875 
z
" id="DejaVuSans-120"/>
     </defs>
     <g transform="translate(673.542 394.814163)scale(0.1 -0.1)">
      <use xlink:href="#DejaVuSans-77"/>
      <use x="86.279297" xlink:href="#DejaVuSans-97"/>
      <use x="147.558594" xlink:href="#DejaVuSans-103"/>
      <use x="211.035156" xlink:href="#DejaVuSans-110"/>
      <use x="274.414062" xlink:href="#DejaVuSans-101"/>
      <use x="335.9375" xlink:href="#DejaVuSans-116"/>
      <use x="375.146484" xlink:href="#DejaVuSans-32"/>
      <use x="406.933594" xlink:href="#DejaVuSans-73"/>
      <use x="436.425781" xlink:href="#DejaVuSans-110"/>
      <use x="499.804688" xlink:href="#DejaVuSans-100"/>
      <use x="563.28125" xlink:href="#DejaVuSans-101"/>
      <use x="624.789062" xlink:href="#DejaVuSans-120"/>
     </g>
    </g>
   </g>
   <g id="matplotlib.axis_2">
    <g id="ytick_1">
     <g id="line2d_17">
      <path clip-path="url(#p2fb8542c3f)" d="M 172.62 340.688835 
L 1242.864 340.688835 
" style="fill:none;stroke:#b0b0b0;stroke-linecap:square;stroke-width:0.8;"/>
     </g>
     <g id="line2d_18">
      <defs>
       <path d="M 0 0 
L -3.5 0 
" id="m0592bb47e8" style="stroke:#000000;stroke-width:0.8;"/>
      </defs>
      <g>
       <use style="stroke:#000000;stroke-width:0.8;" x="172.62" xlink:href="#m0592bb47e8" y="340.688835"/>
      </g>
     </g>
     <g id="text_10">
      <!-- −9.11 -->
      <defs>
       <path d="M 10.59375 35.5 
L 73.1875 35.5 
L 73.1875 27.203125 
L 10.59375 27.203125 
z
" id="DejaVuSans-8722"/>
       <path d="M 10.984375 1.515625 
L 10.984375 10.5 
Q 14.703125 8.734375 18.5 7.8125 
Q 22.3125 6.890625 25.984375 6.890625 
Q 35.75 6.890625 40.890625 13.453125 
Q 46.046875 20.015625 46.78125 33.40625 
Q 43.953125 29.203125 39.59375 26.953125 
Q 35.25 24.703125 29.984375 24.703125 
Q 19.046875 24.703125 12.671875 31.3125 
Q 6.296875 37.9375 6.296875 49.421875 
Q 6.296875 60.640625 12.9375 67.421875 
Q 19.578125 74.21875 30.609375 74.21875 
Q 43.265625 74.21875 49.921875 64.515625 
Q 56.59375 54.828125 56.59375 36.375 
Q 56.59375 19.140625 48.40625 8.859375 
Q 40.234375 -1.421875 26.421875 -1.421875 
Q 22.703125 -1.421875 18.890625 -0.6875 
Q 15.09375 0.046875 10.984375 1.515625 
z
M 30.609375 32.421875 
Q 37.25 32.421875 41.125 36.953125 
Q 45.015625 41.5 45.015625 49.421875 
Q 45.015625 57.28125 41.125 61.84375 
Q 37.25 66.40625 30.609375 66.40625 
Q 23.96875 66.40625 20.09375 61.84375 
Q 16.21875 57.28125 16.21875 49.421875 
Q 16.21875 41.5 20.09375 36.953125 
Q 23.96875 32.421875 30.609375 32.421875 
z
" id="DejaVuSans-57"/>
       <path d="M 10.6875 12.40625 
L 21 12.40625 
L 21 0 
L 10.6875 0 
z
" id="DejaVuSans-46"/>
      </defs>
      <g transform="translate(134.974688 344.488053)scale(0.1 -0.1)">
       <use xlink:href="#DejaVuSans-8722"/>
       <use x="83.789062" xlink:href="#DejaVuSans-57"/>
       <use x="147.412109" xlink:href="#DejaVuSans-46"/>
       <use x="179.199219" xlink:href="#DejaVuSans-49"/>
       <use x="242.822266" xlink:href="#DejaVuSans-49"/>
      </g>
     </g>
    </g>
    <g id="ytick_2">
     <g id="line2d_19">
      <path clip-path="url(#p2fb8542c3f)" d="M 172.62 278.410157 
L 1242.864 278.410157 
" style="fill:none;stroke:#b0b0b0;stroke-linecap:square;stroke-width:0.8;"/>
     </g>
     <g id="line2d_20">
      <g>
       <use style="stroke:#000000;stroke-width:0.8;" x="172.62" xlink:href="#m0592bb47e8" y="278.410157"/>
      </g>
     </g>
     <g id="text_11">
      <!-- −9.10 -->
      <g transform="translate(134.974688 282.209376)scale(0.1 -0.1)">
       <use xlink:href="#DejaVuSans-8722"/>
       <use x="83.789062" xlink:href="#DejaVuSans-57"/>
       <use x="147.412109" xlink:href="#DejaVuSans-46"/>
       <use x="179.199219" xlink:href="#DejaVuSans-49"/>
       <use x="242.822266" xlink:href="#DejaVuSans-48"/>
      </g>
     </g>
    </g>
    <g id="ytick_3">
     <g id="line2d_21">
      <path clip-path="url(#p2fb8542c3f)" d="M 172.62 216.131479 
L 1242.864 216.131479 
" style="fill:none;stroke:#b0b0b0;stroke-linecap:square;stroke-width:0.8;"/>
     </g>
     <g id="line2d_22">
      <g>
       <use style="stroke:#000000;stroke-width:0.8;" x="172.62" xlink:href="#m0592bb47e8" y="216.131479"/>
      </g>
     </g>
     <g id="text_12">
      <!-- −9.09 -->
      <g transform="translate(134.974688 219.930698)scale(0.1 -0.1)">
       <use xlink:href="#DejaVuSans-8722"/>
       <use x="83.789062" xlink:href="#DejaVuSans-57"/>
       <use x="147.412109" xlink:href="#DejaVuSans-46"/>
       <use x="179.199219" xlink:href="#DejaVuSans-48"/>
       <use x="242.822266" xlink:href="#DejaVuSans-57"/>
      </g>
     </g>
    </g>
    <g id="ytick_4">
     <g id="line2d_23">
      <path clip-path="url(#p2fb8542c3f)" d="M 172.62 153.852801 
L 1242.864 153.852801 
" style="fill:none;stroke:#b0b0b0;stroke-linecap:square;stroke-width:0.8;"/>
     </g>
     <g id="line2d_24">
      <g>
       <use style="stroke:#000000;stroke-width:0.8;" x="172.62" xlink:href="#m0592bb47e8" y="153.852801"/>
      </g>
     </g>
     <g id="text_13">
      <!-- −9.08 -->
      <defs>
       <path d="M 31.78125 34.625 
Q 24.75 34.625 20.71875 30.859375 
Q 16.703125 27.09375 16.703125 20.515625 
Q 16.703125 13.921875 20.71875 10.15625 
Q 24.75 6.390625 31.78125 6.390625 
Q 38.8125 6.390625 42.859375 10.171875 
Q 46.921875 13.96875 46.921875 20.515625 
Q 46.921875 27.09375 42.890625 30.859375 
Q 38.875 34.625 31.78125 34.625 
z
M 21.921875 38.8125 
Q 15.578125 40.375 12.03125 44.71875 
Q 8.5 49.078125 8.5 55.328125 
Q 8.5 64.0625 14.71875 69.140625 
Q 20.953125 74.21875 31.78125 74.21875 
Q 42.671875 74.21875 48.875 69.140625 
Q 55.078125 64.0625 55.078125 55.328125 
Q 55.078125 49.078125 51.53125 44.71875 
Q 48 40.375 41.703125 38.8125 
Q 48.828125 37.15625 52.796875 32.3125 
Q 56.78125 27.484375 56.78125 20.515625 
Q 56.78125 9.90625 50.3125 4.234375 
Q 43.84375 -1.421875 31.78125 -1.421875 
Q 19.734375 -1.421875 13.25 4.234375 
Q 6.78125 9.90625 6.78125 20.515625 
Q 6.78125 27.484375 10.78125 32.3125 
Q 14.796875 37.15625 21.921875 38.8125 
z
M 18.3125 54.390625 
Q 18.3125 48.734375 21.84375 45.5625 
Q 25.390625 42.390625 31.78125 42.390625 
Q 38.140625 42.390625 41.71875 45.5625 
Q 45.3125 48.734375 45.3125 54.390625 
Q 45.3125 60.0625 41.71875 63.234375 
Q 38.140625 66.40625 31.78125 66.40625 
Q 25.390625 66.40625 21.84375 63.234375 
Q 18.3125 60.0625 18.3125 54.390625 
z
" id="DejaVuSans-56"/>
      </defs>
      <g transform="translate(134.974688 157.65202)scale(0.1 -0.1)">
       <use xlink:href="#DejaVuSans-8722"/>
       <use x="83.789062" xlink:href="#DejaVuSans-57"/>
       <use x="147.412109" xlink:href="#DejaVuSans-46"/>
       <use x="179.199219" xlink:href="#DejaVuSans-48"/>
       <use x="242.822266" xlink:href="#DejaVuSans-56"/>
      </g>
     </g>
    </g>
    <g id="ytick_5">
     <g id="line2d_25">
      <path clip-path="url(#p2fb8542c3f)" d="M 172.62 91.574123 
L 1242.864 91.574123 
" style="fill:none;stroke:#b0b0b0;stroke-linecap:square;stroke-width:0.8;"/>
     </g>
     <g id="line2d_26">
      <g>
       <use style="stroke:#000000;stroke-width:0.8;" x="172.62" xlink:href="#m0592bb47e8" y="91.574123"/>
      </g>
     </g>
     <g id="text_14">
      <!-- −9.07 -->
      <g transform="translate(134.974688 95.373342)scale(0.1 -0.1)">
       <use xlink:href="#DejaVuSans-8722"/>
       <use x="83.789062" xlink:href="#DejaVuSans-57"/>
       <use x="147.412109" xlink:href="#DejaVuSans-46"/>
       <use x="179.199219" xlink:href="#DejaVuSans-48"/>
       <use x="242.822266" xlink:href="#DejaVuSans-55"/>
      </g>
     </g>
    </g>
    <g id="text_15">
     <!-- Integrated Quadrupole [T] -->
     <defs>
      <path d="M 41.109375 46.296875 
Q 39.59375 47.171875 37.8125 47.578125 
Q 36.03125 48 33.890625 48 
Q 26.265625 48 22.1875 43.046875 
Q 18.109375 38.09375 18.109375 28.8125 
L 18.109375 0 
L 9.078125 0 
L 9.078125 54.6875 
L 18.109375 54.6875 
L 18.109375 46.1875 
Q 20.953125 51.171875 25.484375 53.578125 
Q 30.03125 56 36.53125 56 
Q 37.453125 56 38.578125 55.875 
Q 39.703125 55.765625 41.0625 55.515625 
z
" id="DejaVuSans-114"/>
      <path d="M 39.40625 66.21875 
Q 28.65625 66.21875 22.328125 58.203125 
Q 16.015625 50.203125 16.015625 36.375 
Q 16.015625 22.609375 22.328125 14.59375 
Q 28.65625 6.59375 39.40625 6.59375 
Q 50.140625 6.59375 56.421875 14.59375 
Q 62.703125 22.609375 62.703125 36.375 
Q 62.703125 50.203125 56.421875 58.203125 
Q 50.140625 66.21875 39.40625 66.21875 
z
M 53.21875 1.3125 
L 66.21875 -12.890625 
L 54.296875 -12.890625 
L 43.5 -1.21875 
Q 41.890625 -1.3125 41.03125 -1.359375 
Q 40.1875 -1.421875 39.40625 -1.421875 
Q 24.03125 -1.421875 14.8125 8.859375 
Q 5.609375 19.140625 5.609375 36.375 
Q 5.609375 53.65625 14.8125 63.9375 
Q 24.03125 74.21875 39.40625 74.21875 
Q 54.734375 74.21875 63.90625 63.9375 
Q 73.09375 53.65625 73.09375 36.375 
Q 73.09375 23.6875 67.984375 14.640625 
Q 62.890625 5.609375 53.21875 1.3125 
z
" id="DejaVuSans-81"/>
      <path d="M 8.5 21.578125 
L 8.5 54.6875 
L 17.484375 54.6875 
L 17.484375 21.921875 
Q 17.484375 14.15625 20.5 10.265625 
Q 23.53125 6.390625 29.59375 6.390625 
Q 36.859375 6.390625 41.078125 11.03125 
Q 45.3125 15.671875 45.3125 23.6875 
L 45.3125 54.6875 
L 54.296875 54.6875 
L 54.296875 0 
L 45.3125 0 
L 45.3125 8.40625 
Q 42.046875 3.421875 37.71875 1 
Q 33.40625 -1.421875 27.6875 -1.421875 
Q 18.265625 -1.421875 13.375 4.4375 
Q 8.5 10.296875 8.5 21.578125 
z
M 31.109375 56 
z
" id="DejaVuSans-117"/>
      <path d="M 18.109375 8.203125 
L 18.109375 -20.796875 
L 9.078125 -20.796875 
L 9.078125 54.6875 
L 18.109375 54.6875 
L 18.109375 46.390625 
Q 20.953125 51.265625 25.265625 53.625 
Q 29.59375 56 35.59375 56 
Q 45.5625 56 51.78125 48.09375 
Q 58.015625 40.1875 58.015625 27.296875 
Q 58.015625 14.40625 51.78125 6.484375 
Q 45.5625 -1.421875 35.59375 -1.421875 
Q 29.59375 -1.421875 25.265625 0.953125 
Q 20.953125 3.328125 18.109375 8.203125 
z
M 48.6875 27.296875 
Q 48.6875 37.203125 44.609375 42.84375 
Q 40.53125 48.484375 33.40625 48.484375 
Q 26.265625 48.484375 22.1875 42.84375 
Q 18.109375 37.203125 18.109375 27.296875 
Q 18.109375 17.390625 22.1875 11.75 
Q 26.265625 6.109375 33.40625 6.109375 
Q 40.53125 6.109375 44.609375 11.75 
Q 48.6875 17.390625 48.6875 27.296875 
z
" id="DejaVuSans-112"/>
      <path d="M 30.609375 48.390625 
Q 23.390625 48.390625 19.1875 42.75 
Q 14.984375 37.109375 14.984375 27.296875 
Q 14.984375 17.484375 19.15625 11.84375 
Q 23.34375 6.203125 30.609375 6.203125 
Q 37.796875 6.203125 41.984375 11.859375 
Q 46.1875 17.53125 46.1875 27.296875 
Q 46.1875 37.015625 41.984375 42.703125 
Q 37.796875 48.390625 30.609375 48.390625 
z
M 30.609375 56 
Q 42.328125 56 49.015625 48.375 
Q 55.71875 40.765625 55.71875 27.296875 
Q 55.71875 13.875 49.015625 6.21875 
Q 42.328125 -1.421875 30.609375 -1.421875 
Q 18.84375 -1.421875 12.171875 6.21875 
Q 5.515625 13.875 5.515625 27.296875 
Q 5.515625 40.765625 12.171875 48.375 
Q 18.84375 56 30.609375 56 
z
" id="DejaVuSans-111"/>
      <path d="M 9.421875 75.984375 
L 18.40625 75.984375 
L 18.40625 0 
L 9.421875 0 
z
" id="DejaVuSans-108"/>
      <path d="M 8.59375 75.984375 
L 29.296875 75.984375 
L 29.296875 69 
L 17.578125 69 
L 17.578125 -6.203125 
L 29.296875 -6.203125 
L 29.296875 -13.1875 
L 8.59375 -13.1875 
z
" id="DejaVuSans-91"/>
      <path d="M -0.296875 72.90625 
L 61.375 72.90625 
L 61.375 64.59375 
L 35.5 64.59375 
L 35.5 0 
L 25.59375 0 
L 25.59375 64.59375 
L -0.296875 64.59375 
z
" id="DejaVuSans-84"/>
      <path d="M 30.421875 75.984375 
L 30.421875 -13.1875 
L 9.71875 -13.1875 
L 9.71875 -6.203125 
L 21.390625 -6.203125 
L 21.390625 69 
L 9.71875 69 
L 9.71875 75.984375 
z
" id="DejaVuSans-93"/>
     </defs>
     <g transform="translate(128.895 273.564356)rotate(-90)scale(0.1 -0.1)">
      <use xlink:href="#DejaVuSans-73"/>
      <use x="29.492188" xlink:href="#DejaVuSans-110"/>
      <use x="92.871094" xlink:href="#DejaVuSans-116"/>
      <use x="132.080078" xlink:href="#DejaVuSans-101"/>
      <use x="193.603516" xlink:href="#DejaVuSans-103"/>
      <use x="257.080078" xlink:href="#DejaVuSans-114"/>
      <use x="298.193359" xlink:href="#DejaVuSans-97"/>
      <use x="359.472656" xlink:href="#DejaVuSans-116"/>
      <use x="398.681641" xlink:href="#DejaVuSans-101"/>
      <use x="460.205078" xlink:href="#DejaVuSans-100"/>
      <use x="523.681641" xlink:href="#DejaVuSans-32"/>
      <use x="555.46875" xlink:href="#DejaVuSans-81"/>
      <use x="634.179688" xlink:href="#DejaVuSans-117"/>
      <use x="697.558594" xlink:href="#DejaVuSans-97"/>
      <use x="758.837891" xlink:href="#DejaVuSans-100"/>
      <use x="822.314453" xlink:href="#DejaVuSans-114"/>
      <use x="863.427734" xlink:href="#DejaVuSans-117"/>
      <use x="926.806641" xlink:href="#DejaVuSans-112"/>
      <use x="990.283203" xlink:href="#DejaVuSans-111"/>
      <use x="1051.464844" xlink:href="#DejaVuSans-108"/>
      <use x="1079.248047" xlink:href="#DejaVuSans-101"/>
      <use x="1140.771484" xlink:href="#DejaVuSans-32"/>
      <use x="1172.558594" xlink:href="#DejaVuSans-91"/>
      <use x="1211.572266" xlink:href="#DejaVuSans-84"/>
      <use x="1272.65625" xlink:href="#DejaVuSans-93"/>
     </g>
    </g>
   </g>
   <g id="line2d_27">
    <path clip-path="url(#p2fb8542c3f)" d="M 221.267455 168.60662 
L 227.02455 137.629205 
L 232.781645 104.914216 
L 238.53874 162.640322 
L 244.295835 212.868076 
L 250.052931 135.138058 
L 255.810026 165.361901 
L 261.567121 138.8125 
L 267.324216 194.259207 
L 273.081311 148.521746 
" style="fill:none;stroke:#0000ff;stroke-linecap:square;stroke-width:1.5;"/>
   </g>
   <g id="line2d_28">
    <defs>
     <path d="M 0 3 
C 0.795609 3 1.55874 2.683901 2.12132 2.12132 
C 2.683901 1.55874 3 0.795609 3 0 
C 3 -0.795609 2.683901 -1.55874 2.12132 -2.12132 
C 1.55874 -2.683901 0.795609 -3 0 -3 
C -0.795609 -3 -1.55874 -2.683901 -2.12132 -2.12132 
C -2.683901 -1.55874 -3 -0.795609 -3 0 
C -3 0.795609 -2.683901 1.55874 -2.12132 2.12132 
C -1.55874 2.683901 -0.795609 3 0 3 
z
" id="mabe79f7b5c" style="stroke:#0000ff;"/>
    </defs>
    <g clip-path="url(#p2fb8542c3f)">
     <use style="fill:#0000ff;stroke:#0000ff;" x="221.267455" xlink:href="#mabe79f7b5c" y="168.60662"/>
     <use style="fill:#0000ff;stroke:#0000ff;" x="227.02455" xlink:href="#mabe79f7b5c" y="137.629205"/>
     <use style="fill:#0000ff;stroke:#0000ff;" x="232.781645" xlink:href="#mabe79f7b5c" y="104.914216"/>
     <use style="fill:#0000ff;stroke:#0000ff;" x="238.53874" xlink:href="#mabe79f7b5c" y="162.640322"/>
     <use style="fill:#0000ff;stroke:#0000ff;" x="244.295835" xlink:href="#mabe79f7b5c" y="212.868076"/>
     <use style="fill:#0000ff;stroke:#0000ff;" x="250.052931" xlink:href="#mabe79f7b5c" y="135.138058"/>
     <use style="fill:#0000ff;stroke:#0000ff;" x="255.810026" xlink:href="#mabe79f7b5c" y="165.361901"/>
     <use style="fill:#0000ff;stroke:#0000ff;" x="261.567121" xlink:href="#mabe79f7b5c" y="138.8125"/>
     <use style="fill:#0000ff;stroke:#0000ff;" x="267.324216" xlink:href="#mabe79f7b5c" y="194.259207"/>
     <use style="fill:#0000ff;stroke:#0000ff;" x="273.081311" xlink:href="#mabe79f7b5c" y="148.521746"/>
    </g>
   </g>
   <g id="line2d_29">
    <path clip-path="url(#p2fb8542c3f)" d="M 221.267455 156.875185 
L 227.02455 156.875185 
L 232.781645 156.875185 
L 238.53874 156.875185 
L 244.295835 156.875185 
L 250.052931 156.875185 
L 255.810026 156.875185 
L 261.567121 156.875185 
L 267.324216 156.875185 
L 273.081311 156.875185 
" style="fill:none;stroke:#0000ff;stroke-dasharray:5.55,2.4;stroke-dashoffset:0;stroke-width:1.5;"/>
   </g>
   <g id="line2d_30">
    <path clip-path="url(#p2fb8542c3f)" d="M 278.838407 323.007918 
L 284.595502 212.133188 
L 290.352597 303.284261 
L 296.109692 298.619588 
L 301.866788 287.770642 
L 307.623883 352.1232 
L 313.380978 259.396476 
L 319.138073 249.998624 
L 324.895168 201.520901 
L 330.652264 255.628616 
L 336.409359 345.34728 
L 342.166454 246.511018 
L 347.923549 325.829142 
L 353.680644 274.393182 
L 359.43774 178.851462 
L 365.194835 205.774535 
L 370.95193 258.300372 
L 376.709025 251.29402 
L 382.46612 279.842566 
L 388.223216 254.33322 
L 393.980311 200.655227 
L 399.737406 328.538265 
L 405.494501 235.207438 
L 411.251597 323.275716 
L 417.008692 224.763304 
L 422.765787 259.03526 
L 428.522882 293.170203 
L 434.279977 342.470005 
L 440.037073 261.856484 
L 445.794168 319.893984 
L 451.551263 279.724237 
L 457.308358 257.908016 
L 463.065453 276.728633 
L 468.822549 283.685161 
L 474.579644 238.657677 
L 480.336739 296.302821 
L 486.093834 338.913892 
L 491.85093 300.039542 
L 497.608025 343.995833 
L 503.36512 255.080564 
" style="fill:none;stroke:#008000;stroke-linecap:square;stroke-width:1.5;"/>
   </g>
   <g id="line2d_31">
    <defs>
     <path d="M 0 3 
C 0.795609 3 1.55874 2.683901 2.12132 2.12132 
C 2.683901 1.55874 3 0.795609 3 0 
C 3 -0.795609 2.683901 -1.55874 2.12132 -2.12132 
C 1.55874 -2.683901 0.795609 -3 0 -3 
C -0.795609 -3 -1.55874 -2.683901 -2.12132 -2.12132 
C -2.683901 -1.55874 -3 -0.795609 -3 0 
C -3 0.795609 -2.683901 1.55874 -2.12132 2.12132 
C -1.55874 2.683901 -0.795609 3 0 3 
z
" id="m4d9a72c450" style="stroke:#008000;"/>
    </defs>
    <g clip-path="url(#p2fb8542c3f)">
     <use style="fill:#008000;stroke:#008000;" x="278.838407" xlink:href="#m4d9a72c450" y="323.007918"/>
     <use style="fill:#008000;stroke:#008000;" x="284.595502" xlink:href="#m4d9a72c450" y="212.133188"/>
     <use style="fill:#008000;stroke:#008000;" x="290.352597" xlink:href="#m4d9a72c450" y="303.284261"/>
     <use style="fill:#008000;stroke:#008000;" x="296.109692" xlink:href="#m4d9a72c450" y="298.619588"/>
     <use style="fill:#008000;stroke:#008000;" x="301.866788" xlink:href="#m4d9a72c450" y="287.770642"/>
     <use style="fill:#008000;stroke:#008000;" x="307.623883" xlink:href="#m4d9a72c450" y="352.1232"/>
     <use style="fill:#008000;stroke:#008000;" x="313.380978" xlink:href="#m4d9a72c450" y="259.396476"/>
     <use style="fill:#008000;stroke:#008000;" x="319.138073" xlink:href="#m4d9a72c450" y="249.998624"/>
     <use style="fill:#008000;stroke:#008000;" x="324.895168" xlink:href="#m4d9a72c450" y="201.520901"/>
     <use style="fill:#008000;stroke:#008000;" x="330.652264" xlink:href="#m4d9a72c450" y="255.628616"/>
     <use style="fill:#008000;stroke:#008000;" x="336.409359" xlink:href="#m4d9a72c450" y="345.34728"/>
     <use style="fill:#008000;stroke:#008000;" x="342.166454" xlink:href="#m4d9a72c450" y="246.511018"/>
     <use style="fill:#008000;stroke:#008000;" x="347.923549" xlink:href="#m4d9a72c450" y="325.829142"/>
     <use style="fill:#008000;stroke:#008000;" x="353.680644" xlink:href="#m4d9a72c450" y="274.393182"/>
     <use style="fill:#008000;stroke:#008000;" x="359.43774" xlink:href="#m4d9a72c450" y="178.851462"/>
     <use style="fill:#008000;stroke:#008000;" x="365.194835" xlink:href="#m4d9a72c450" y="205.774535"/>
     <use style="fill:#008000;stroke:#008000;" x="370.95193" xlink:href="#m4d9a72c450" y="258.300372"/>
     <use style="fill:#008000;stroke:#008000;" x="376.709025" xlink:href="#m4d9a72c450" y="251.29402"/>
     <use style="fill:#008000;stroke:#008000;" x="382.46612" xlink:href="#m4d9a72c450" y="279.842566"/>
     <use style="fill:#008000;stroke:#008000;" x="388.223216" xlink:href="#m4d9a72c450" y="254.33322"/>
     <use style="fill:#008000;stroke:#008000;" x="393.980311" xlink:href="#m4d9a72c450" y="200.655227"/>
     <use style="fill:#008000;stroke:#008000;" x="399.737406" xlink:href="#m4d9a72c450" y="328.538265"/>
     <use style="fill:#008000;stroke:#008000;" x="405.494501" xlink:href="#m4d9a72c450" y="235.207438"/>
     <use style="fill:#008000;stroke:#008000;" x="411.251597" xlink:href="#m4d9a72c450" y="323.275716"/>
     <use style="fill:#008000;stroke:#008000;" x="417.008692" xlink:href="#m4d9a72c450" y="224.763304"/>
     <use style="fill:#008000;stroke:#008000;" x="422.765787" xlink:href="#m4d9a72c450" y="259.03526"/>
     <use style="fill:#008000;stroke:#008000;" x="428.522882" xlink:href="#m4d9a72c450" y="293.170203"/>
     <use style="fill:#008000;stroke:#008000;" x="434.279977" xlink:href="#m4d9a72c450" y="342.470005"/>
     <use style="fill:#008000;stroke:#008000;" x="440.037073" xlink:href="#m4d9a72c450" y="261.856484"/>
     <use style="fill:#008000;stroke:#008000;" x="445.794168" xlink:href="#m4d9a72c450" y="319.893984"/>
     <use style="fill:#008000;stroke:#008000;" x="451.551263" xlink:href="#m4d9a72c450" y="279.724237"/>
     <use style="fill:#008000;stroke:#008000;" x="457.308358" xlink:href="#m4d9a72c450" y="257.908016"/>
     <use style="fill:#008000;stroke:#008000;" x="463.065453" xlink:href="#m4d9a72c450" y="276.728633"/>
     <use style="fill:#008000;stroke:#008000;" x="468.822549" xlink:href="#m4d9a72c450" y="283.685161"/>
     <use style="fill:#008000;stroke:#008000;" x="474.579644" xlink:href="#m4d9a72c450" y="238.657677"/>
     <use style="fill:#008000;stroke:#008000;" x="480.336739" xlink:href="#m4d9a72c450" y="296.302821"/>
     <use style="fill:#008000;stroke:#008000;" x="486.093834" xlink:href="#m4d9a72c450" y="338.913892"/>
     <use style="fill:#008000;stroke:#008000;" x="491.85093" xlink:href="#m4d9a72c450" y="300.039542"/>
     <use style="fill:#008000;stroke:#008000;" x="497.608025" xlink:href="#m4d9a72c450" y="343.995833"/>
     <use style="fill:#008000;stroke:#008000;" x="503.36512" xlink:href="#m4d9a72c450" y="255.080564"/>
    </g>
   </g>
   <g id="line2d_32">
    <path clip-path="url(#p2fb8542c3f)" d="M 278.838407 275.596562 
L 284.595502 275.596562 
L 290.352597 275.596562 
L 296.109692 275.596562 
L 301.866788 275.596562 
L 307.623883 275.596562 
L 313.380978 275.596562 
L 319.138073 275.596562 
L 324.895168 275.596562 
L 330.652264 275.596562 
L 336.409359 275.596562 
L 342.166454 275.596562 
L 347.923549 275.596562 
L 353.680644 275.596562 
L 359.43774 275.596562 
L 365.194835 275.596562 
L 370.95193 275.596562 
L 376.709025 275.596562 
L 382.46612 275.596562 
L 388.223216 275.596562 
L 393.980311 275.596562 
L 399.737406 275.596562 
L 405.494501 275.596562 
L 411.251597 275.596562 
L 417.008692 275.596562 
L 422.765787 275.596562 
L 428.522882 275.596562 
L 434.279977 275.596562 
L 440.037073 275.596562 
L 445.794168 275.596562 
L 451.551263 275.596562 
L 457.308358 275.596562 
L 463.065453 275.596562 
L 468.822549 275.596562 
L 474.579644 275.596562 
L 480.336739 275.596562 
L 486.093834 275.596562 
L 491.85093 275.596562 
L 497.608025 275.596562 
L 503.36512 275.596562 
" style="fill:none;stroke:#008000;stroke-dasharray:5.55,2.4;stroke-dashoffset:0;stroke-width:1.5;"/>
   </g>
   <g id="line2d_33">
    <path clip-path="url(#p2fb8542c3f)" d="M 509.122215 209.79151 
L 514.87931 190.130131 
L 520.636406 190.011801 
L 526.393501 205.880409 
L 532.150596 154.793209 
L 537.907691 172.63605 
L 543.664786 143.122185 
L 549.421882 135.16297 
L 555.178977 228.300733 
L 560.936072 173.962586 
L 566.693167 229.079216 
L 572.450263 211.940124 
L 578.207358 170.842424 
L 583.964453 190.173726 
L 589.721548 175.650338 
L 595.478643 160.454341 
L 601.235739 173.184103 
L 606.992834 213.814712 
L 612.749929 215.465097 
L 618.507024 219.469616 
L 624.264119 196.395366 
L 630.021215 192.104365 
L 635.77831 210.731918 
L 641.535405 203.619693 
L 647.2925 181.442255 
L 653.049595 173.10314 
L 658.806691 151.143679 
L 664.563786 176.030238 
L 670.320881 215.060286 
L 676.077976 198.363372 
L 681.835072 154.544094 
L 687.592167 205.986282 
L 693.349262 234.759031 
L 699.106357 184.898722 
L 704.863452 137.49842 
L 710.620548 189.912156 
L 716.377643 194.084827 
L 722.134738 226.426144 
L 727.891833 152.681962 
L 733.648928 184.574873 
" style="fill:none;stroke:#ff0000;stroke-linecap:square;stroke-width:1.5;"/>
   </g>
   <g id="line2d_34">
    <defs>
     <path d="M 0 3 
C 0.795609 3 1.55874 2.683901 2.12132 2.12132 
C 2.683901 1.55874 3 0.795609 3 0 
C 3 -0.795609 2.683901 -1.55874 2.12132 -2.12132 
C 1.55874 -2.683901 0.795609 -3 0 -3 
C -0.795609 -3 -1.55874 -2.683901 -2.12132 -2.12132 
C -2.683901 -1.55874 -3 -0.795609 -3 0 
C -3 0.795609 -2.683901 1.55874 -2.12132 2.12132 
C -1.55874 2.683901 -0.795609 3 0 3 
z
" id="m4334a14239" style="stroke:#ff0000;"/>
    </defs>
    <g clip-path="url(#p2fb8542c3f)">
     <use style="fill:#ff0000;stroke:#ff0000;" x="509.122215" xlink:href="#m4334a14239" y="209.79151"/>
     <use style="fill:#ff0000;stroke:#ff0000;" x="514.87931" xlink:href="#m4334a14239" y="190.130131"/>
     <use style="fill:#ff0000;stroke:#ff0000;" x="520.636406" xlink:href="#m4334a14239" y="190.011801"/>
     <use style="fill:#ff0000;stroke:#ff0000;" x="526.393501" xlink:href="#m4334a14239" y="205.880409"/>
     <use style="fill:#ff0000;stroke:#ff0000;" x="532.150596" xlink:href="#m4334a14239" y="154.793209"/>
     <use style="fill:#ff0000;stroke:#ff0000;" x="537.907691" xlink:href="#m4334a14239" y="172.63605"/>
     <use style="fill:#ff0000;stroke:#ff0000;" x="543.664786" xlink:href="#m4334a14239" y="143.122185"/>
     <use style="fill:#ff0000;stroke:#ff0000;" x="549.421882" xlink:href="#m4334a14239" y="135.16297"/>
     <use style="fill:#ff0000;stroke:#ff0000;" x="555.178977" xlink:href="#m4334a14239" y="228.300733"/>
     <use style="fill:#ff0000;stroke:#ff0000;" x="560.936072" xlink:href="#m4334a14239" y="173.962586"/>
     <use style="fill:#ff0000;stroke:#ff0000;" x="566.693167" xlink:href="#m4334a14239" y="229.079216"/>
     <use style="fill:#ff0000;stroke:#ff0000;" x="572.450263" xlink:href="#m4334a14239" y="211.940124"/>
     <use style="fill:#ff0000;stroke:#ff0000;" x="578.207358" xlink:href="#m4334a14239" y="170.842424"/>
     <use style="fill:#ff0000;stroke:#ff0000;" x="583.964453" xlink:href="#m4334a14239" y="190.173726"/>
     <use style="fill:#ff0000;stroke:#ff0000;" x="589.721548" xlink:href="#m4334a14239" y="175.650338"/>
     <use style="fill:#ff0000;stroke:#ff0000;" x="595.478643" xlink:href="#m4334a14239" y="160.454341"/>
     <use style="fill:#ff0000;stroke:#ff0000;" x="601.235739" xlink:href="#m4334a14239" y="173.184103"/>
     <use style="fill:#ff0000;stroke:#ff0000;" x="606.992834" xlink:href="#m4334a14239" y="213.814712"/>
     <use style="fill:#ff0000;stroke:#ff0000;" x="612.749929" xlink:href="#m4334a14239" y="215.465097"/>
     <use style="fill:#ff0000;stroke:#ff0000;" x="618.507024" xlink:href="#m4334a14239" y="219.469616"/>
     <use style="fill:#ff0000;stroke:#ff0000;" x="624.264119" xlink:href="#m4334a14239" y="196.395366"/>
     <use style="fill:#ff0000;stroke:#ff0000;" x="630.021215" xlink:href="#m4334a14239" y="192.104365"/>
     <use style="fill:#ff0000;stroke:#ff0000;" x="635.77831" xlink:href="#m4334a14239" y="210.731918"/>
     <use style="fill:#ff0000;stroke:#ff0000;" x="641.535405" xlink:href="#m4334a14239" y="203.619693"/>
     <use style="fill:#ff0000;stroke:#ff0000;" x="647.2925" xlink:href="#m4334a14239" y="181.442255"/>
     <use style="fill:#ff0000;stroke:#ff0000;" x="653.049595" xlink:href="#m4334a14239" y="173.10314"/>
     <use style="fill:#ff0000;stroke:#ff0000;" x="658.806691" xlink:href="#m4334a14239" y="151.143679"/>
     <use style="fill:#ff0000;stroke:#ff0000;" x="664.563786" xlink:href="#m4334a14239" y="176.030238"/>
     <use style="fill:#ff0000;stroke:#ff0000;" x="670.320881" xlink:href="#m4334a14239" y="215.060286"/>
     <use style="fill:#ff0000;stroke:#ff0000;" x="676.077976" xlink:href="#m4334a14239" y="198.363372"/>
     <use style="fill:#ff0000;stroke:#ff0000;" x="681.835072" xlink:href="#m4334a14239" y="154.544094"/>
     <use style="fill:#ff0000;stroke:#ff0000;" x="687.592167" xlink:href="#m4334a14239" y="205.986282"/>
     <use style="fill:#ff0000;stroke:#ff0000;" x="693.349262" xlink:href="#m4334a14239" y="234.759031"/>
     <use style="fill:#ff0000;stroke:#ff0000;" x="699.106357" xlink:href="#m4334a14239" y="184.898722"/>
     <use style="fill:#ff0000;stroke:#ff0000;" x="704.863452" xlink:href="#m4334a14239" y="137.49842"/>
     <use style="fill:#ff0000;stroke:#ff0000;" x="710.620548" xlink:href="#m4334a14239" y="189.912156"/>
     <use style="fill:#ff0000;stroke:#ff0000;" x="716.377643" xlink:href="#m4334a14239" y="194.084827"/>
     <use style="fill:#ff0000;stroke:#ff0000;" x="722.134738" xlink:href="#m4334a14239" y="226.426144"/>
     <use style="fill:#ff0000;stroke:#ff0000;" x="727.891833" xlink:href="#m4334a14239" y="152.681962"/>
     <use style="fill:#ff0000;stroke:#ff0000;" x="733.648928" xlink:href="#m4334a14239" y="184.574873"/>
    </g>
   </g>
   <g id="line2d_35">
    <path clip-path="url(#p2fb8542c3f)" d="M 509.122215 188.180653 
L 514.87931 188.180653 
L 520.636406 188.180653 
L 526.393501 188.180653 
L 532.150596 188.180653 
L 537.907691 188.180653 
L 543.664786 188.180653 
L 549.421882 188.180653 
L 555.178977 188.180653 
L 560.936072 188.180653 
L 566.693167 188.180653 
L 572.450263 188.180653 
L 578.207358 188.180653 
L 583.964453 188.180653 
L 589.721548 188.180653 
L 595.478643 188.180653 
L 601.235739 188.180653 
L 606.992834 188.180653 
L 612.749929 188.180653 
L 618.507024 188.180653 
L 624.264119 188.180653 
L 630.021215 188.180653 
L 635.77831 188.180653 
L 641.535405 188.180653 
L 647.2925 188.180653 
L 653.049595 188.180653 
L 658.806691 188.180653 
L 664.563786 188.180653 
L 670.320881 188.180653 
L 676.077976 188.180653 
L 681.835072 188.180653 
L 687.592167 188.180653 
L 693.349262 188.180653 
L 699.106357 188.180653 
L 704.863452 188.180653 
L 710.620548 188.180653 
L 716.377643 188.180653 
L 722.134738 188.180653 
L 727.891833 188.180653 
L 733.648928 188.180653 
" style="fill:none;stroke:#ff0000;stroke-dasharray:5.55,2.4;stroke-dashoffset:0;stroke-width:1.5;"/>
   </g>
   <g id="line2d_36">
    <path clip-path="url(#p2fb8542c3f)" d="M 739.406024 194.240524 
L 745.163119 201.620547 
L 750.920214 156.860861 
L 756.677309 250.914121 
L 762.434405 197.192533 
L 768.1915 294.833044 
L 773.948595 190.16127 
L 779.70569 223.193881 
L 785.462785 173.657421 
L 791.219881 243.453135 
L 796.976976 212.189239 
L 802.734071 175.444819 
L 808.491166 215.452641 
L 814.248261 229.484027 
L 820.005357 170.823741 
L 825.762452 259.41516 
L 831.519547 216.4491 
L 837.276642 191.624819 
L 843.033737 243.602604 
L 848.790833 157.6518 
L 854.547928 216.941102 
L 860.305023 170.014118 
L 866.062118 157.197166 
L 871.819214 202.585866 
L 877.576309 193.972725 
L 883.333404 222.209878 
L 889.090499 148.677443 
L 894.847594 212.998861 
L 900.60469 266.371688 
L 906.361785 175.158337 
L 912.11888 221.524812 
L 917.875975 200.100947 
L 923.63307 152.594772 
L 929.390166 196.140023 
L 935.147261 262.529094 
L 940.904356 222.010586 
L 946.661451 192.882848 
L 952.418547 159.538844 
L 958.175642 259.178501 
L 963.932737 180.96271 
" style="fill:none;stroke:#000000;stroke-linecap:square;stroke-width:1.5;"/>
   </g>
   <g id="line2d_37">
    <defs>
     <path d="M 0 3 
C 0.795609 3 1.55874 2.683901 2.12132 2.12132 
C 2.683901 1.55874 3 0.795609 3 0 
C 3 -0.795609 2.683901 -1.55874 2.12132 -2.12132 
C 1.55874 -2.683901 0.795609 -3 0 -3 
C -0.795609 -3 -1.55874 -2.683901 -2.12132 -2.12132 
C -2.683901 -1.55874 -3 -0.795609 -3 0 
C -3 0.795609 -2.683901 1.55874 -2.12132 2.12132 
C -1.55874 2.683901 -0.795609 3 0 3 
z
" id="mf26bbe7c23" style="stroke:#000000;"/>
    </defs>
    <g clip-path="url(#p2fb8542c3f)">
     <use style="stroke:#000000;" x="739.406024" xlink:href="#mf26bbe7c23" y="194.240524"/>
     <use style="stroke:#000000;" x="745.163119" xlink:href="#mf26bbe7c23" y="201.620547"/>
     <use style="stroke:#000000;" x="750.920214" xlink:href="#mf26bbe7c23" y="156.860861"/>
     <use style="stroke:#000000;" x="756.677309" xlink:href="#mf26bbe7c23" y="250.914121"/>
     <use style="stroke:#000000;" x="762.434405" xlink:href="#mf26bbe7c23" y="197.192533"/>
     <use style="stroke:#000000;" x="768.1915" xlink:href="#mf26bbe7c23" y="294.833044"/>
     <use style="stroke:#000000;" x="773.948595" xlink:href="#mf26bbe7c23" y="190.16127"/>
     <use style="stroke:#000000;" x="779.70569" xlink:href="#mf26bbe7c23" y="223.193881"/>
     <use style="stroke:#000000;" x="785.462785" xlink:href="#mf26bbe7c23" y="173.657421"/>
     <use style="stroke:#000000;" x="791.219881" xlink:href="#mf26bbe7c23" y="243.453135"/>
     <use style="stroke:#000000;" x="796.976976" xlink:href="#mf26bbe7c23" y="212.189239"/>
     <use style="stroke:#000000;" x="802.734071" xlink:href="#mf26bbe7c23" y="175.444819"/>
     <use style="stroke:#000000;" x="808.491166" xlink:href="#mf26bbe7c23" y="215.452641"/>
     <use style="stroke:#000000;" x="814.248261" xlink:href="#mf26bbe7c23" y="229.484027"/>
     <use style="stroke:#000000;" x="820.005357" xlink:href="#mf26bbe7c23" y="170.823741"/>
     <use style="stroke:#000000;" x="825.762452" xlink:href="#mf26bbe7c23" y="259.41516"/>
     <use style="stroke:#000000;" x="831.519547" xlink:href="#mf26bbe7c23" y="216.4491"/>
     <use style="stroke:#000000;" x="837.276642" xlink:href="#mf26bbe7c23" y="191.624819"/>
     <use style="stroke:#000000;" x="843.033737" xlink:href="#mf26bbe7c23" y="243.602604"/>
     <use style="stroke:#000000;" x="848.790833" xlink:href="#mf26bbe7c23" y="157.6518"/>
     <use style="stroke:#000000;" x="854.547928" xlink:href="#mf26bbe7c23" y="216.941102"/>
     <use style="stroke:#000000;" x="860.305023" xlink:href="#mf26bbe7c23" y="170.014118"/>
     <use style="stroke:#000000;" x="866.062118" xlink:href="#mf26bbe7c23" y="157.197166"/>
     <use style="stroke:#000000;" x="871.819214" xlink:href="#mf26bbe7c23" y="202.585866"/>
     <use style="stroke:#000000;" x="877.576309" xlink:href="#mf26bbe7c23" y="193.972725"/>
     <use style="stroke:#000000;" x="883.333404" xlink:href="#mf26bbe7c23" y="222.209878"/>
     <use style="stroke:#000000;" x="889.090499" xlink:href="#mf26bbe7c23" y="148.677443"/>
     <use style="stroke:#000000;" x="894.847594" xlink:href="#mf26bbe7c23" y="212.998861"/>
     <use style="stroke:#000000;" x="900.60469" xlink:href="#mf26bbe7c23" y="266.371688"/>
     <use style="stroke:#000000;" x="906.361785" xlink:href="#mf26bbe7c23" y="175.158337"/>
     <use style="stroke:#000000;" x="912.11888" xlink:href="#mf26bbe7c23" y="221.524812"/>
     <use style="stroke:#000000;" x="917.875975" xlink:href="#mf26bbe7c23" y="200.100947"/>
     <use style="stroke:#000000;" x="923.63307" xlink:href="#mf26bbe7c23" y="152.594772"/>
     <use style="stroke:#000000;" x="929.390166" xlink:href="#mf26bbe7c23" y="196.140023"/>
     <use style="stroke:#000000;" x="935.147261" xlink:href="#mf26bbe7c23" y="262.529094"/>
     <use style="stroke:#000000;" x="940.904356" xlink:href="#mf26bbe7c23" y="222.010586"/>
     <use style="stroke:#000000;" x="946.661451" xlink:href="#mf26bbe7c23" y="192.882848"/>
     <use style="stroke:#000000;" x="952.418547" xlink:href="#mf26bbe7c23" y="159.538844"/>
     <use style="stroke:#000000;" x="958.175642" xlink:href="#mf26bbe7c23" y="259.178501"/>
     <use style="stroke:#000000;" x="963.932737" xlink:href="#mf26bbe7c23" y="180.96271"/>
    </g>
   </g>
   <g id="line2d_38">
    <path clip-path="url(#p2fb8542c3f)" d="M 739.406024 205.29639 
L 745.163119 205.29639 
L 750.920214 205.29639 
L 756.677309 205.29639 
L 762.434405 205.29639 
L 768.1915 205.29639 
L 773.948595 205.29639 
L 779.70569 205.29639 
L 785.462785 205.29639 
L 791.219881 205.29639 
L 796.976976 205.29639 
L 802.734071 205.29639 
L 808.491166 205.29639 
L 814.248261 205.29639 
L 820.005357 205.29639 
L 825.762452 205.29639 
L 831.519547 205.29639 
L 837.276642 205.29639 
L 843.033737 205.29639 
L 848.790833 205.29639 
L 854.547928 205.29639 
L 860.305023 205.29639 
L 866.062118 205.29639 
L 871.819214 205.29639 
L 877.576309 205.29639 
L 883.333404 205.29639 
L 889.090499 205.29639 
L 894.847594 205.29639 
L 900.60469 205.29639 
L 906.361785 205.29639 
L 912.11888 205.29639 
L 917.875975 205.29639 
L 923.63307 205.29639 
L 929.390166 205.29639 
L 935.147261 205.29639 
L 940.904356 205.29639 
L 946.661451 205.29639 
L 952.418547 205.29639 
L 958.175642 205.29639 
L 963.932737 205.29639 
" style="fill:none;stroke:#000000;stroke-dasharray:5.55,2.4;stroke-dashoffset:0;stroke-width:1.5;"/>
   </g>
   <g id="line2d_39">
    <path clip-path="url(#p2fb8542c3f)" d="M 969.689832 162.048675 
L 975.446927 198.095574 
L 981.204023 63.8352 
L 986.961118 129.813231 
L 992.718213 175.656566 
L 998.475308 108.11534 
L 1004.232403 149.424787 
L 1009.989499 92.321467 
L 1015.746594 181.847067 
L 1021.503689 140.444202 
L 1027.260784 188.46729 
L 1033.01788 85.545547 
L 1038.774975 181.716282 
L 1044.53207 130.703816 
L 1050.289165 183.186058 
L 1056.04626 156.032555 
L 1061.803356 183.97077 
L 1067.560451 119.119982 
L 1073.317546 184.039276 
L 1079.074641 132.702962 
L 1084.831736 89.961105 
L 1090.588832 89.338319 
L 1096.345927 185.832902 
L 1102.103022 209.542395 
L 1107.860117 177.842548 
L 1113.617212 134.69588 
L 1119.374308 118.254309 
L 1125.131403 149.661446 
L 1130.888498 110.674994 
L 1136.645593 150.197043 
L 1142.402689 174.386081 
L 1148.159784 181.149546 
L 1153.916879 132.391569 
L 1159.673974 165.922409 
L 1165.431069 137.454825 
L 1171.188165 210.663411 
L 1176.94526 114.5425 
L 1182.702355 170.344195 
L 1188.45945 112.611861 
L 1194.216545 146.198752 
" style="fill:none;stroke:#bfbf00;stroke-linecap:square;stroke-width:1.5;"/>
   </g>
   <g id="line2d_40">
    <defs>
     <path d="M 0 3 
C 0.795609 3 1.55874 2.683901 2.12132 2.12132 
C 2.683901 1.55874 3 0.795609 3 0 
C 3 -0.795609 2.683901 -1.55874 2.12132 -2.12132 
C 1.55874 -2.683901 0.795609 -3 0 -3 
C -0.795609 -3 -1.55874 -2.683901 -2.12132 -2.12132 
C -2.683901 -1.55874 -3 -0.795609 -3 0 
C -3 0.795609 -2.683901 1.55874 -2.12132 2.12132 
C -1.55874 2.683901 -0.795609 3 0 3 
z
" id="m0091449a52" style="stroke:#bfbf00;"/>
    </defs>
    <g clip-path="url(#p2fb8542c3f)">
     <use style="fill:#bfbf00;stroke:#bfbf00;" x="969.689832" xlink:href="#m0091449a52" y="162.048675"/>
     <use style="fill:#bfbf00;stroke:#bfbf00;" x="975.446927" xlink:href="#m0091449a52" y="198.095574"/>
     <use style="fill:#bfbf00;stroke:#bfbf00;" x="981.204023" xlink:href="#m0091449a52" y="63.8352"/>
     <use style="fill:#bfbf00;stroke:#bfbf00;" x="986.961118" xlink:href="#m0091449a52" y="129.813231"/>
     <use style="fill:#bfbf00;stroke:#bfbf00;" x="992.718213" xlink:href="#m0091449a52" y="175.656566"/>
     <use style="fill:#bfbf00;stroke:#bfbf00;" x="998.475308" xlink:href="#m0091449a52" y="108.11534"/>
     <use style="fill:#bfbf00;stroke:#bfbf00;" x="1004.232403" xlink:href="#m0091449a52" y="149.424787"/>
     <use style="fill:#bfbf00;stroke:#bfbf00;" x="1009.989499" xlink:href="#m0091449a52" y="92.321467"/>
     <use style="fill:#bfbf00;stroke:#bfbf00;" x="1015.746594" xlink:href="#m0091449a52" y="181.847067"/>
     <use style="fill:#bfbf00;stroke:#bfbf00;" x="1021.503689" xlink:href="#m0091449a52" y="140.444202"/>
     <use style="fill:#bfbf00;stroke:#bfbf00;" x="1027.260784" xlink:href="#m0091449a52" y="188.46729"/>
     <use style="fill:#bfbf00;stroke:#bfbf00;" x="1033.01788" xlink:href="#m0091449a52" y="85.545547"/>
     <use style="fill:#bfbf00;stroke:#bfbf00;" x="1038.774975" xlink:href="#m0091449a52" y="181.716282"/>
     <use style="fill:#bfbf00;stroke:#bfbf00;" x="1044.53207" xlink:href="#m0091449a52" y="130.703816"/>
     <use style="fill:#bfbf00;stroke:#bfbf00;" x="1050.289165" xlink:href="#m0091449a52" y="183.186058"/>
     <use style="fill:#bfbf00;stroke:#bfbf00;" x="1056.04626" xlink:href="#m0091449a52" y="156.032555"/>
     <use style="fill:#bfbf00;stroke:#bfbf00;" x="1061.803356" xlink:href="#m0091449a52" y="183.97077"/>
     <use style="fill:#bfbf00;stroke:#bfbf00;" x="1067.560451" xlink:href="#m0091449a52" y="119.119982"/>
     <use style="fill:#bfbf00;stroke:#bfbf00;" x="1073.317546" xlink:href="#m0091449a52" y="184.039276"/>
     <use style="fill:#bfbf00;stroke:#bfbf00;" x="1079.074641" xlink:href="#m0091449a52" y="132.702962"/>
     <use style="fill:#bfbf00;stroke:#bfbf00;" x="1084.831736" xlink:href="#m0091449a52" y="89.961105"/>
     <use style="fill:#bfbf00;stroke:#bfbf00;" x="1090.588832" xlink:href="#m0091449a52" y="89.338319"/>
     <use style="fill:#bfbf00;stroke:#bfbf00;" x="1096.345927" xlink:href="#m0091449a52" y="185.832902"/>
     <use style="fill:#bfbf00;stroke:#bfbf00;" x="1102.103022" xlink:href="#m0091449a52" y="209.542395"/>
     <use style="fill:#bfbf00;stroke:#bfbf00;" x="1107.860117" xlink:href="#m0091449a52" y="177.842548"/>
     <use style="fill:#bfbf00;stroke:#bfbf00;" x="1113.617212" xlink:href="#m0091449a52" y="134.69588"/>
     <use style="fill:#bfbf00;stroke:#bfbf00;" x="1119.374308" xlink:href="#m0091449a52" y="118.254309"/>
     <use style="fill:#bfbf00;stroke:#bfbf00;" x="1125.131403" xlink:href="#m0091449a52" y="149.661446"/>
     <use style="fill:#bfbf00;stroke:#bfbf00;" x="1130.888498" xlink:href="#m0091449a52" y="110.674994"/>
     <use style="fill:#bfbf00;stroke:#bfbf00;" x="1136.645593" xlink:href="#m0091449a52" y="150.197043"/>
     <use style="fill:#bfbf00;stroke:#bfbf00;" x="1142.402689" xlink:href="#m0091449a52" y="174.386081"/>
     <use style="fill:#bfbf00;stroke:#bfbf00;" x="1148.159784" xlink:href="#m0091449a52" y="181.149546"/>
     <use style="fill:#bfbf00;stroke:#bfbf00;" x="1153.916879" xlink:href="#m0091449a52" y="132.391569"/>
     <use style="fill:#bfbf00;stroke:#bfbf00;" x="1159.673974" xlink:href="#m0091449a52" y="165.922409"/>
     <use style="fill:#bfbf00;stroke:#bfbf00;" x="1165.431069" xlink:href="#m0091449a52" y="137.454825"/>
     <use style="fill:#bfbf00;stroke:#bfbf00;" x="1171.188165" xlink:href="#m0091449a52" y="210.663411"/>
     <use style="fill:#bfbf00;stroke:#bfbf00;" x="1176.94526" xlink:href="#m0091449a52" y="114.5425"/>
     <use style="fill:#bfbf00;stroke:#bfbf00;" x="1182.702355" xlink:href="#m0091449a52" y="170.344195"/>
     <use style="fill:#bfbf00;stroke:#bfbf00;" x="1188.45945" xlink:href="#m0091449a52" y="112.611861"/>
     <use style="fill:#bfbf00;stroke:#bfbf00;" x="1194.216545" xlink:href="#m0091449a52" y="146.198752"/>
    </g>
   </g>
   <g id="line2d_41">
    <path clip-path="url(#p2fb8542c3f)" d="M 969.689832 147.718818 
L 975.446927 147.718818 
L 981.204023 147.718818 
L 986.961118 147.718818 
L 992.718213 147.718818 
L 998.475308 147.718818 
L 1004.232403 147.718818 
L 1009.989499 147.718818 
L 1015.746594 147.718818 
L 1021.503689 147.718818 
L 1027.260784 147.718818 
L 1033.01788 147.718818 
L 1038.774975 147.718818 
L 1044.53207 147.718818 
L 1050.289165 147.718818 
L 1056.04626 147.718818 
L 1061.803356 147.718818 
L 1067.560451 147.718818 
L 1073.317546 147.718818 
L 1079.074641 147.718818 
L 1084.831736 147.718818 
L 1090.588832 147.718818 
L 1096.345927 147.718818 
L 1102.103022 147.718818 
L 1107.860117 147.718818 
L 1113.617212 147.718818 
L 1119.374308 147.718818 
L 1125.131403 147.718818 
L 1130.888498 147.718818 
L 1136.645593 147.718818 
L 1142.402689 147.718818 
L 1148.159784 147.718818 
L 1153.916879 147.718818 
L 1159.673974 147.718818 
L 1165.431069 147.718818 
L 1171.188165 147.718818 
L 1176.94526 147.718818 
L 1182.702355 147.718818 
L 1188.45945 147.718818 
L 1194.216545 147.718818 
" style="fill:none;stroke:#bfbf00;stroke-dasharray:5.55,2.4;stroke-dashoffset:0;stroke-width:1.5;"/>
   </g>
   <g id="patch_3">
    <path d="M 172.62 366.5376 
L 172.62 49.4208 
" style="fill:none;stroke:#000000;stroke-linecap:square;stroke-linejoin:miter;stroke-width:0.8;"/>
   </g>
   <g id="patch_4">
    <path d="M 1242.864 366.5376 
L 1242.864 49.4208 
" style="fill:none;stroke:#000000;stroke-linecap:square;stroke-linejoin:miter;stroke-width:0.8;"/>
   </g>
   <g id="patch_5">
    <path d="M 172.62 366.5376 
L 1242.864 366.5376 
" style="fill:none;stroke:#000000;stroke-linecap:square;stroke-linejoin:miter;stroke-width:0.8;"/>
   </g>
   <g id="patch_6">
    <path d="M 172.62 49.4208 
L 1242.864 49.4208 
" style="fill:none;stroke:#000000;stroke-linecap:square;stroke-linejoin:miter;stroke-width:0.8;"/>
   </g>
   <g id="text_16">
    <!-- Q20 Integrated Quadrupoles (+157.41 A) -->
    <defs>
     <path d="M 44.28125 53.078125 
L 44.28125 44.578125 
Q 40.484375 46.53125 36.375 47.5 
Q 32.28125 48.484375 27.875 48.484375 
Q 21.1875 48.484375 17.84375 46.4375 
Q 14.5 44.390625 14.5 40.28125 
Q 14.5 37.15625 16.890625 35.375 
Q 19.28125 33.59375 26.515625 31.984375 
L 29.59375 31.296875 
Q 39.15625 29.25 43.1875 25.515625 
Q 47.21875 21.78125 47.21875 15.09375 
Q 47.21875 7.46875 41.1875 3.015625 
Q 35.15625 -1.421875 24.609375 -1.421875 
Q 20.21875 -1.421875 15.453125 -0.5625 
Q 10.6875 0.296875 5.421875 2 
L 5.421875 11.28125 
Q 10.40625 8.6875 15.234375 7.390625 
Q 20.0625 6.109375 24.8125 6.109375 
Q 31.15625 6.109375 34.5625 8.28125 
Q 37.984375 10.453125 37.984375 14.40625 
Q 37.984375 18.0625 35.515625 20.015625 
Q 33.0625 21.96875 24.703125 23.78125 
L 21.578125 24.515625 
Q 13.234375 26.265625 9.515625 29.90625 
Q 5.8125 33.546875 5.8125 39.890625 
Q 5.8125 47.609375 11.28125 51.796875 
Q 16.75 56 26.8125 56 
Q 31.78125 56 36.171875 55.265625 
Q 40.578125 54.546875 44.28125 53.078125 
z
" id="DejaVuSans-115"/>
     <path d="M 31 75.875 
Q 24.46875 64.65625 21.28125 53.65625 
Q 18.109375 42.671875 18.109375 31.390625 
Q 18.109375 20.125 21.3125 9.0625 
Q 24.515625 -2 31 -13.1875 
L 23.1875 -13.1875 
Q 15.875 -1.703125 12.234375 9.375 
Q 8.59375 20.453125 8.59375 31.390625 
Q 8.59375 42.28125 12.203125 53.3125 
Q 15.828125 64.359375 23.1875 75.875 
z
" id="DejaVuSans-40"/>
     <path d="M 46 62.703125 
L 46 35.5 
L 73.1875 35.5 
L 73.1875 27.203125 
L 46 27.203125 
L 46 0 
L 37.796875 0 
L 37.796875 27.203125 
L 10.59375 27.203125 
L 10.59375 35.5 
L 37.796875 35.5 
L 37.796875 62.703125 
z
" id="DejaVuSans-43"/>
     <path d="M 37.796875 64.3125 
L 12.890625 25.390625 
L 37.796875 25.390625 
z
M 35.203125 72.90625 
L 47.609375 72.90625 
L 47.609375 25.390625 
L 58.015625 25.390625 
L 58.015625 17.1875 
L 47.609375 17.1875 
L 47.609375 0 
L 37.796875 0 
L 37.796875 17.1875 
L 4.890625 17.1875 
L 4.890625 26.703125 
z
" id="DejaVuSans-52"/>
     <path d="M 34.1875 63.1875 
L 20.796875 26.90625 
L 47.609375 26.90625 
z
M 28.609375 72.90625 
L 39.796875 72.90625 
L 67.578125 0 
L 57.328125 0 
L 50.6875 18.703125 
L 17.828125 18.703125 
L 11.1875 0 
L 0.78125 0 
z
" id="DejaVuSans-65"/>
     <path d="M 8.015625 75.875 
L 15.828125 75.875 
Q 23.140625 64.359375 26.78125 53.3125 
Q 30.421875 42.28125 30.421875 31.390625 
Q 30.421875 20.453125 26.78125 9.375 
Q 23.140625 -1.703125 15.828125 -13.1875 
L 8.015625 -13.1875 
Q 14.5 -2 17.703125 9.0625 
Q 20.90625 20.125 20.90625 31.390625 
Q 20.90625 42.671875 17.703125 53.65625 
Q 14.5 64.65625 8.015625 75.875 
z
" id="DejaVuSans-41"/>
    </defs>
    <g transform="translate(583.280438 43.4208)scale(0.12 -0.12)">
     <use xlink:href="#DejaVuSans-81"/>
     <use x="78.710938" xlink:href="#DejaVuSans-50"/>
     <use x="142.333984" xlink:href="#DejaVuSans-48"/>
     <use x="205.957031" xlink:href="#DejaVuSans-32"/>
     <use x="237.744141" xlink:href="#DejaVuSans-73"/>
     <use x="267.236328" xlink:href="#DejaVuSans-110"/>
     <use x="330.615234" xlink:href="#DejaVuSans-116"/>
     <use x="369.824219" xlink:href="#DejaVuSans-101"/>
     <use x="431.347656" xlink:href="#DejaVuSans-103"/>
     <use x="494.824219" xlink:href="#DejaVuSans-114"/>
     <use x="535.9375" xlink:href="#DejaVuSans-97"/>
     <use x="597.216797" xlink:href="#DejaVuSans-116"/>
     <use x="636.425781" xlink:href="#DejaVuSans-101"/>
     <use x="697.949219" xlink:href="#DejaVuSans-100"/>
     <use x="761.425781" xlink:href="#DejaVuSans-32"/>
     <use x="793.212891" xlink:href="#DejaVuSans-81"/>
     <use x="871.923828" xlink:href="#DejaVuSans-117"/>
     <use x="935.302734" xlink:href="#DejaVuSans-97"/>
     <use x="996.582031" xlink:href="#DejaVuSans-100"/>
     <use x="1060.058594" xlink:href="#DejaVuSans-114"/>
     <use x="1101.171875" xlink:href="#DejaVuSans-117"/>
     <use x="1164.550781" xlink:href="#DejaVuSans-112"/>
     <use x="1228.027344" xlink:href="#DejaVuSans-111"/>
     <use x="1289.208984" xlink:href="#DejaVuSans-108"/>
     <use x="1316.992188" xlink:href="#DejaVuSans-101"/>
     <use x="1378.515625" xlink:href="#DejaVuSans-115"/>
     <use x="1430.615234" xlink:href="#DejaVuSans-32"/>
     <use x="1462.402344" xlink:href="#DejaVuSans-40"/>
     <use x="1501.416016" xlink:href="#DejaVuSans-43"/>
     <use x="1585.205078" xlink:href="#DejaVuSans-49"/>
     <use x="1648.828125" xlink:href="#DejaVuSans-53"/>
     <use x="1712.451172" xlink:href="#DejaVuSans-55"/>
     <use x="1776.074219" xlink:href="#DejaVuSans-46"/>
     <use x="1807.861328" xlink:href="#DejaVuSans-52"/>
     <use x="1871.484375" xlink:href="#DejaVuSans-49"/>
     <use x="1935.107422" xlink:href="#DejaVuSans-32"/>
     <use x="1966.894531" xlink:href="#DejaVuSans-65"/>
     <use x="2035.302734" xlink:href="#DejaVuSans-41"/>
    </g>
   </g>
   <g id="legend_1">
    <g id="patch_7">
     <path d="M 179.62 361.5376 
L 232.07 361.5376 
Q 234.07 361.5376 234.07 359.5376 
L 234.07 287.146975 
Q 234.07 285.146975 232.07 285.146975 
L 179.62 285.146975 
Q 177.62 285.146975 177.62 287.146975 
L 177.62 359.5376 
Q 177.62 361.5376 179.62 361.5376 
z
" style="fill:#ffffff;opacity:0.8;stroke:#cccccc;stroke-linejoin:miter;"/>
    </g>
    <g id="line2d_42"/>
    <g id="line2d_43">
     <g>
      <use style="fill:#0000ff;stroke:#0000ff;" x="191.62" xlink:href="#mabe79f7b5c" y="293.245412"/>
     </g>
    </g>
    <g id="text_17">
     <!-- QFA -->
     <defs>
      <path d="M 9.8125 72.90625 
L 51.703125 72.90625 
L 51.703125 64.59375 
L 19.671875 64.59375 
L 19.671875 43.109375 
L 48.578125 43.109375 
L 48.578125 34.8125 
L 19.671875 34.8125 
L 19.671875 0 
L 9.8125 0 
z
" id="DejaVuSans-70"/>
     </defs>
     <g transform="translate(209.62 296.745412)scale(0.1 -0.1)">
      <use xlink:href="#DejaVuSans-81"/>
      <use x="78.710938" xlink:href="#DejaVuSans-70"/>
      <use x="136.089844" xlink:href="#DejaVuSans-65"/>
     </g>
    </g>
    <g id="line2d_44"/>
    <g id="line2d_45">
     <g>
      <use style="fill:#008000;stroke:#008000;" x="191.62" xlink:href="#m4d9a72c450" y="307.923537"/>
     </g>
    </g>
    <g id="text_18">
     <!-- Q1 -->
     <g transform="translate(209.62 311.423537)scale(0.1 -0.1)">
      <use xlink:href="#DejaVuSans-81"/>
      <use x="78.710938" xlink:href="#DejaVuSans-49"/>
     </g>
    </g>
    <g id="line2d_46"/>
    <g id="line2d_47">
     <g>
      <use style="fill:#ff0000;stroke:#ff0000;" x="191.62" xlink:href="#m4334a14239" y="322.601662"/>
     </g>
    </g>
    <g id="text_19">
     <!-- Q2 -->
     <g transform="translate(209.62 326.101662)scale(0.1 -0.1)">
      <use xlink:href="#DejaVuSans-81"/>
      <use x="78.710938" xlink:href="#DejaVuSans-50"/>
     </g>
    </g>
    <g id="line2d_48"/>
    <g id="line2d_49">
     <g>
      <use style="stroke:#000000;" x="191.62" xlink:href="#mf26bbe7c23" y="337.279787"/>
     </g>
    </g>
    <g id="text_20">
     <!-- Q3 -->
     <defs>
      <path d="M 40.578125 39.3125 
Q 47.65625 37.796875 51.625 33 
Q 55.609375 28.21875 55.609375 21.1875 
Q 55.609375 10.40625 48.1875 4.484375 
Q 40.765625 -1.421875 27.09375 -1.421875 
Q 22.515625 -1.421875 17.65625 -0.515625 
Q 12.796875 0.390625 7.625 2.203125 
L 7.625 11.71875 
Q 11.71875 9.328125 16.59375 8.109375 
Q 21.484375 6.890625 26.8125 6.890625 
Q 36.078125 6.890625 40.9375 10.546875 
Q 45.796875 14.203125 45.796875 21.1875 
Q 45.796875 27.640625 41.28125 31.265625 
Q 36.765625 34.90625 28.71875 34.90625 
L 20.21875 34.90625 
L 20.21875 43.015625 
L 29.109375 43.015625 
Q 36.375 43.015625 40.234375 45.921875 
Q 44.09375 48.828125 44.09375 54.296875 
Q 44.09375 59.90625 40.109375 62.90625 
Q 36.140625 65.921875 28.71875 65.921875 
Q 24.65625 65.921875 20.015625 65.03125 
Q 15.375 64.15625 9.8125 62.3125 
L 9.8125 71.09375 
Q 15.4375 72.65625 20.34375 73.4375 
Q 25.25 74.21875 29.59375 74.21875 
Q 40.828125 74.21875 47.359375 69.109375 
Q 53.90625 64.015625 53.90625 55.328125 
Q 53.90625 49.265625 50.4375 45.09375 
Q 46.96875 40.921875 40.578125 39.3125 
z
" id="DejaVuSans-51"/>
     </defs>
     <g transform="translate(209.62 340.779787)scale(0.1 -0.1)">
      <use xlink:href="#DejaVuSans-81"/>
      <use x="78.710938" xlink:href="#DejaVuSans-51"/>
     </g>
    </g>
    <g id="line2d_50"/>
    <g id="line2d_51">
     <g>
      <use style="fill:#bfbf00;stroke:#bfbf00;" x="191.62" xlink:href="#m0091449a52" y="351.957913"/>
     </g>
    </g>
    <g id="text_21">
     <!-- Q4 -->
     <g transform="translate(209.62 355.457913)scale(0.1 -0.1)">
      <use xlink:href="#DejaVuSans-81"/>
      <use x="78.710938" xlink:href="#DejaVuSans-52"/>
     </g>
    </g>
   </g>
  </g>
 </g>
 <defs>
  <clipPath id="p2fb8542c3f">
   <rect height="317.1168" width="1070.244" x="172.62" y="49.4208"/>
  </clipPath>
 </defs>
</svg>
