<?xml version="1.0" encoding="utf-8" standalone="no"?>
<!DOCTYPE svg PUBLIC "-//W3C//DTD SVG 1.1//EN"
  "http://www.w3.org/Graphics/SVG/1.1/DTD/svg11.dtd">
<!-- Created with matplotlib (https://matplotlib.org/) -->
<svg height="413.28pt" version="1.1" viewBox="0 0 1380.96 413.28" width="1380.96pt" xmlns="http://www.w3.org/2000/svg" xmlns:xlink="http://www.w3.org/1999/xlink">
 <defs>
  <style type="text/css">
*{stroke-linecap:butt;stroke-linejoin:round;}
  </style>
 </defs>
 <g id="figure_1">
  <g id="patch_1">
   <path d="M 0 413.28 
L 1380.96 413.28 
L 1380.96 0 
L 0 0 
z
" style="fill:#ffffff;"/>
  </g>
  <g id="axes_1">
   <g id="patch_2">
    <path d="M 172.62 367.8192 
L 1242.864 367.8192 
L 1242.864 49.5936 
L 172.62 49.5936 
z
" style="fill:#ffffff;"/>
   </g>
   <g id="matplotlib.axis_1">
    <g id="xtick_1">
     <g id="line2d_1">
      <path clip-path="url(#pfef3835b47)" d="M 221.267455 367.8192 
L 221.267455 49.5936 
" style="fill:none;stroke:#b0b0b0;stroke-linecap:square;stroke-width:0.8;"/>
     </g>
     <g id="line2d_2">
      <defs>
       <path d="M 0 0 
L 0 3.5 
" id="m1bbdd93094" style="stroke:#000000;stroke-width:0.8;"/>
      </defs>
      <g>
       <use style="stroke:#000000;stroke-width:0.8;" x="221.267455" xlink:href="#m1bbdd93094" y="367.8192"/>
      </g>
     </g>
     <g id="text_1">
      <!-- 0 -->
      <defs>
       <path d="M 31.78125 66.40625 
Q 24.171875 66.40625 20.328125 58.90625 
Q 16.5 51.421875 16.5 36.375 
Q 16.5 21.390625 20.328125 13.890625 
Q 24.171875 6.390625 31.78125 6.390625 
Q 39.453125 6.390625 43.28125 13.890625 
Q 47.125 21.390625 47.125 36.375 
Q 47.125 51.421875 43.28125 58.90625 
Q 39.453125 66.40625 31.78125 66.40625 
z
M 31.78125 74.21875 
Q 44.046875 74.21875 50.515625 64.515625 
Q 56.984375 54.828125 56.984375 36.375 
Q 56.984375 17.96875 50.515625 8.265625 
Q 44.046875 -1.421875 31.78125 -1.421875 
Q 19.53125 -1.421875 13.0625 8.265625 
Q 6.59375 17.96875 6.59375 36.375 
Q 6.59375 54.828125 13.0625 64.515625 
Q 19.53125 74.21875 31.78125 74.21875 
z
" id="DejaVuSans-48"/>
      </defs>
      <g transform="translate(218.086205 382.417638)scale(0.1 -0.1)">
       <use xlink:href="#DejaVuSans-48"/>
      </g>
     </g>
    </g>
    <g id="xtick_2">
     <g id="line2d_3">
      <path clip-path="url(#pfef3835b47)" d="M 365.194835 367.8192 
L 365.194835 49.5936 
" style="fill:none;stroke:#b0b0b0;stroke-linecap:square;stroke-width:0.8;"/>
     </g>
     <g id="line2d_4">
      <g>
       <use style="stroke:#000000;stroke-width:0.8;" x="365.194835" xlink:href="#m1bbdd93094" y="367.8192"/>
      </g>
     </g>
     <g id="text_2">
      <!-- 25 -->
      <defs>
       <path d="M 19.1875 8.296875 
L 53.609375 8.296875 
L 53.609375 0 
L 7.328125 0 
L 7.328125 8.296875 
Q 12.9375 14.109375 22.625 23.890625 
Q 32.328125 33.6875 34.8125 36.53125 
Q 39.546875 41.84375 41.421875 45.53125 
Q 43.3125 49.21875 43.3125 52.78125 
Q 43.3125 58.59375 39.234375 62.25 
Q 35.15625 65.921875 28.609375 65.921875 
Q 23.96875 65.921875 18.8125 64.3125 
Q 13.671875 62.703125 7.8125 59.421875 
L 7.8125 69.390625 
Q 13.765625 71.78125 18.9375 73 
Q 24.125 74.21875 28.421875 74.21875 
Q 39.75 74.21875 46.484375 68.546875 
Q 53.21875 62.890625 53.21875 53.421875 
Q 53.21875 48.921875 51.53125 44.890625 
Q 49.859375 40.875 45.40625 35.40625 
Q 44.1875 33.984375 37.640625 27.21875 
Q 31.109375 20.453125 19.1875 8.296875 
z
" id="DejaVuSans-50"/>
       <path d="M 10.796875 72.90625 
L 49.515625 72.90625 
L 49.515625 64.59375 
L 19.828125 64.59375 
L 19.828125 46.734375 
Q 21.96875 47.46875 24.109375 47.828125 
Q 26.265625 48.1875 28.421875 48.1875 
Q 40.625 48.1875 47.75 41.5 
Q 54.890625 34.8125 54.890625 23.390625 
Q 54.890625 11.625 47.5625 5.09375 
Q 40.234375 -1.421875 26.90625 -1.421875 
Q 22.3125 -1.421875 17.546875 -0.640625 
Q 12.796875 0.140625 7.71875 1.703125 
L 7.71875 11.625 
Q 12.109375 9.234375 16.796875 8.0625 
Q 21.484375 6.890625 26.703125 6.890625 
Q 35.15625 6.890625 40.078125 11.328125 
Q 45.015625 15.765625 45.015625 23.390625 
Q 45.015625 31 40.078125 35.4375 
Q 35.15625 39.890625 26.703125 39.890625 
Q 22.75 39.890625 18.8125 39.015625 
Q 14.890625 38.140625 10.796875 36.28125 
z
" id="DejaVuSans-53"/>
      </defs>
      <g transform="translate(358.832335 382.417638)scale(0.1 -0.1)">
       <use xlink:href="#DejaVuSans-50"/>
       <use x="63.623047" xlink:href="#DejaVuSans-53"/>
      </g>
     </g>
    </g>
    <g id="xtick_3">
     <g id="line2d_5">
      <path clip-path="url(#pfef3835b47)" d="M 509.122215 367.8192 
L 509.122215 49.5936 
" style="fill:none;stroke:#b0b0b0;stroke-linecap:square;stroke-width:0.8;"/>
     </g>
     <g id="line2d_6">
      <g>
       <use style="stroke:#000000;stroke-width:0.8;" x="509.122215" xlink:href="#m1bbdd93094" y="367.8192"/>
      </g>
     </g>
     <g id="text_3">
      <!-- 50 -->
      <g transform="translate(502.759715 382.417638)scale(0.1 -0.1)">
       <use xlink:href="#DejaVuSans-53"/>
       <use x="63.623047" xlink:href="#DejaVuSans-48"/>
      </g>
     </g>
    </g>
    <g id="xtick_4">
     <g id="line2d_7">
      <path clip-path="url(#pfef3835b47)" d="M 653.049595 367.8192 
L 653.049595 49.5936 
" style="fill:none;stroke:#b0b0b0;stroke-linecap:square;stroke-width:0.8;"/>
     </g>
     <g id="line2d_8">
      <g>
       <use style="stroke:#000000;stroke-width:0.8;" x="653.049595" xlink:href="#m1bbdd93094" y="367.8192"/>
      </g>
     </g>
     <g id="text_4">
      <!-- 75 -->
      <defs>
       <path d="M 8.203125 72.90625 
L 55.078125 72.90625 
L 55.078125 68.703125 
L 28.609375 0 
L 18.3125 0 
L 43.21875 64.59375 
L 8.203125 64.59375 
z
" id="DejaVuSans-55"/>
      </defs>
      <g transform="translate(646.687095 382.417638)scale(0.1 -0.1)">
       <use xlink:href="#DejaVuSans-55"/>
       <use x="63.623047" xlink:href="#DejaVuSans-53"/>
      </g>
     </g>
    </g>
    <g id="xtick_5">
     <g id="line2d_9">
      <path clip-path="url(#pfef3835b47)" d="M 796.976976 367.8192 
L 796.976976 49.5936 
" style="fill:none;stroke:#b0b0b0;stroke-linecap:square;stroke-width:0.8;"/>
     </g>
     <g id="line2d_10">
      <g>
       <use style="stroke:#000000;stroke-width:0.8;" x="796.976976" xlink:href="#m1bbdd93094" y="367.8192"/>
      </g>
     </g>
     <g id="text_5">
      <!-- 100 -->
      <defs>
       <path d="M 12.40625 8.296875 
L 28.515625 8.296875 
L 28.515625 63.921875 
L 10.984375 60.40625 
L 10.984375 69.390625 
L 28.421875 72.90625 
L 38.28125 72.90625 
L 38.28125 8.296875 
L 54.390625 8.296875 
L 54.390625 0 
L 12.40625 0 
z
" id="DejaVuSans-49"/>
      </defs>
      <g transform="translate(787.433226 382.417638)scale(0.1 -0.1)">
       <use xlink:href="#DejaVuSans-49"/>
       <use x="63.623047" xlink:href="#DejaVuSans-48"/>
       <use x="127.246094" xlink:href="#DejaVuSans-48"/>
      </g>
     </g>
    </g>
    <g id="xtick_6">
     <g id="line2d_11">
      <path clip-path="url(#pfef3835b47)" d="M 940.904356 367.8192 
L 940.904356 49.5936 
" style="fill:none;stroke:#b0b0b0;stroke-linecap:square;stroke-width:0.8;"/>
     </g>
     <g id="line2d_12">
      <g>
       <use style="stroke:#000000;stroke-width:0.8;" x="940.904356" xlink:href="#m1bbdd93094" y="367.8192"/>
      </g>
     </g>
     <g id="text_6">
      <!-- 125 -->
      <g transform="translate(931.360606 382.417638)scale(0.1 -0.1)">
       <use xlink:href="#DejaVuSans-49"/>
       <use x="63.623047" xlink:href="#DejaVuSans-50"/>
       <use x="127.246094" xlink:href="#DejaVuSans-53"/>
      </g>
     </g>
    </g>
    <g id="xtick_7">
     <g id="line2d_13">
      <path clip-path="url(#pfef3835b47)" d="M 1084.831736 367.8192 
L 1084.831736 49.5936 
" style="fill:none;stroke:#b0b0b0;stroke-linecap:square;stroke-width:0.8;"/>
     </g>
     <g id="line2d_14">
      <g>
       <use style="stroke:#000000;stroke-width:0.8;" x="1084.831736" xlink:href="#m1bbdd93094" y="367.8192"/>
      </g>
     </g>
     <g id="text_7">
      <!-- 150 -->
      <g transform="translate(1075.287986 382.417638)scale(0.1 -0.1)">
       <use xlink:href="#DejaVuSans-49"/>
       <use x="63.623047" xlink:href="#DejaVuSans-53"/>
       <use x="127.246094" xlink:href="#DejaVuSans-48"/>
      </g>
     </g>
    </g>
    <g id="xtick_8">
     <g id="line2d_15">
      <path clip-path="url(#pfef3835b47)" d="M 1228.759117 367.8192 
L 1228.759117 49.5936 
" style="fill:none;stroke:#b0b0b0;stroke-linecap:square;stroke-width:0.8;"/>
     </g>
     <g id="line2d_16">
      <g>
       <use style="stroke:#000000;stroke-width:0.8;" x="1228.759117" xlink:href="#m1bbdd93094" y="367.8192"/>
      </g>
     </g>
     <g id="text_8">
      <!-- 175 -->
      <g transform="translate(1219.215367 382.417638)scale(0.1 -0.1)">
       <use xlink:href="#DejaVuSans-49"/>
       <use x="63.623047" xlink:href="#DejaVuSans-55"/>
       <use x="127.246094" xlink:href="#DejaVuSans-53"/>
      </g>
     </g>
    </g>
    <g id="text_9">
     <!-- Magnet Index -->
     <defs>
      <path d="M 9.8125 72.90625 
L 24.515625 72.90625 
L 43.109375 23.296875 
L 61.8125 72.90625 
L 76.515625 72.90625 
L 76.515625 0 
L 66.890625 0 
L 66.890625 64.015625 
L 48.09375 14.015625 
L 38.1875 14.015625 
L 19.390625 64.015625 
L 19.390625 0 
L 9.8125 0 
z
" id="DejaVuSans-77"/>
      <path d="M 34.28125 27.484375 
Q 23.390625 27.484375 19.1875 25 
Q 14.984375 22.515625 14.984375 16.5 
Q 14.984375 11.71875 18.140625 8.90625 
Q 21.296875 6.109375 26.703125 6.109375 
Q 34.1875 6.109375 38.703125 11.40625 
Q 43.21875 16.703125 43.21875 25.484375 
L 43.21875 27.484375 
z
M 52.203125 31.203125 
L 52.203125 0 
L 43.21875 0 
L 43.21875 8.296875 
Q 40.140625 3.328125 35.546875 0.953125 
Q 30.953125 -1.421875 24.3125 -1.421875 
Q 15.921875 -1.421875 10.953125 3.296875 
Q 6 8.015625 6 15.921875 
Q 6 25.140625 12.171875 29.828125 
Q 18.359375 34.515625 30.609375 34.515625 
L 43.21875 34.515625 
L 43.21875 35.40625 
Q 43.21875 41.609375 39.140625 45 
Q 35.0625 48.390625 27.6875 48.390625 
Q 23 48.390625 18.546875 47.265625 
Q 14.109375 46.140625 10.015625 43.890625 
L 10.015625 52.203125 
Q 14.9375 54.109375 19.578125 55.046875 
Q 24.21875 56 28.609375 56 
Q 40.484375 56 46.34375 49.84375 
Q 52.203125 43.703125 52.203125 31.203125 
z
" id="DejaVuSans-97"/>
      <path d="M 45.40625 27.984375 
Q 45.40625 37.75 41.375 43.109375 
Q 37.359375 48.484375 30.078125 48.484375 
Q 22.859375 48.484375 18.828125 43.109375 
Q 14.796875 37.75 14.796875 27.984375 
Q 14.796875 18.265625 18.828125 12.890625 
Q 22.859375 7.515625 30.078125 7.515625 
Q 37.359375 7.515625 41.375 12.890625 
Q 45.40625 18.265625 45.40625 27.984375 
z
M 54.390625 6.78125 
Q 54.390625 -7.171875 48.1875 -13.984375 
Q 42 -20.796875 29.203125 -20.796875 
Q 24.46875 -20.796875 20.265625 -20.09375 
Q 16.0625 -19.390625 12.109375 -17.921875 
L 12.109375 -9.1875 
Q 16.0625 -11.328125 19.921875 -12.34375 
Q 23.78125 -13.375 27.78125 -13.375 
Q 36.625 -13.375 41.015625 -8.765625 
Q 45.40625 -4.15625 45.40625 5.171875 
L 45.40625 9.625 
Q 42.625 4.78125 38.28125 2.390625 
Q 33.9375 0 27.875 0 
Q 17.828125 0 11.671875 7.65625 
Q 5.515625 15.328125 5.515625 27.984375 
Q 5.515625 40.671875 11.671875 48.328125 
Q 17.828125 56 27.875 56 
Q 33.9375 56 38.28125 53.609375 
Q 42.625 51.21875 45.40625 46.390625 
L 45.40625 54.6875 
L 54.390625 54.6875 
z
" id="DejaVuSans-103"/>
      <path d="M 54.890625 33.015625 
L 54.890625 0 
L 45.90625 0 
L 45.90625 32.71875 
Q 45.90625 40.484375 42.875 44.328125 
Q 39.84375 48.1875 33.796875 48.1875 
Q 26.515625 48.1875 22.3125 43.546875 
Q 18.109375 38.921875 18.109375 30.90625 
L 18.109375 0 
L 9.078125 0 
L 9.078125 54.6875 
L 18.109375 54.6875 
L 18.109375 46.1875 
Q 21.34375 51.125 25.703125 53.5625 
Q 30.078125 56 35.796875 56 
Q 45.21875 56 50.046875 50.171875 
Q 54.890625 44.34375 54.890625 33.015625 
z
" id="DejaVuSans-110"/>
      <path d="M 56.203125 29.59375 
L 56.203125 25.203125 
L 14.890625 25.203125 
Q 15.484375 15.921875 20.484375 11.0625 
Q 25.484375 6.203125 34.421875 6.203125 
Q 39.59375 6.203125 44.453125 7.46875 
Q 49.3125 8.734375 54.109375 11.28125 
L 54.109375 2.78125 
Q 49.265625 0.734375 44.1875 -0.34375 
Q 39.109375 -1.421875 33.890625 -1.421875 
Q 20.796875 -1.421875 13.15625 6.1875 
Q 5.515625 13.8125 5.515625 26.8125 
Q 5.515625 40.234375 12.765625 48.109375 
Q 20.015625 56 32.328125 56 
Q 43.359375 56 49.78125 48.890625 
Q 56.203125 41.796875 56.203125 29.59375 
z
M 47.21875 32.234375 
Q 47.125 39.59375 43.09375 43.984375 
Q 39.0625 48.390625 32.421875 48.390625 
Q 24.90625 48.390625 20.390625 44.140625 
Q 15.875 39.890625 15.1875 32.171875 
z
" id="DejaVuSans-101"/>
      <path d="M 18.3125 70.21875 
L 18.3125 54.6875 
L 36.8125 54.6875 
L 36.8125 47.703125 
L 18.3125 47.703125 
L 18.3125 18.015625 
Q 18.3125 11.328125 20.140625 9.421875 
Q 21.96875 7.515625 27.59375 7.515625 
L 36.8125 7.515625 
L 36.8125 0 
L 27.59375 0 
Q 17.1875 0 13.234375 3.875 
Q 9.28125 7.765625 9.28125 18.015625 
L 9.28125 47.703125 
L 2.6875 47.703125 
L 2.6875 54.6875 
L 9.28125 54.6875 
L 9.28125 70.21875 
z
" id="DejaVuSans-116"/>
      <path id="DejaVuSans-32"/>
      <path d="M 9.8125 72.90625 
L 19.671875 72.90625 
L 19.671875 0 
L 9.8125 0 
z
" id="DejaVuSans-73"/>
      <path d="M 45.40625 46.390625 
L 45.40625 75.984375 
L 54.390625 75.984375 
L 54.390625 0 
L 45.40625 0 
L 45.40625 8.203125 
Q 42.578125 3.328125 38.25 0.953125 
Q 33.9375 -1.421875 27.875 -1.421875 
Q 17.96875 -1.421875 11.734375 6.484375 
Q 5.515625 14.40625 5.515625 27.296875 
Q 5.515625 40.1875 11.734375 48.09375 
Q 17.96875 56 27.875 56 
Q 33.9375 56 38.25 53.625 
Q 42.578125 51.265625 45.40625 46.390625 
z
M 14.796875 27.296875 
Q 14.796875 17.390625 18.875 11.75 
Q 22.953125 6.109375 30.078125 6.109375 
Q 37.203125 6.109375 41.296875 11.75 
Q 45.40625 17.390625 45.40625 27.296875 
Q 45.40625 37.203125 41.296875 42.84375 
Q 37.203125 48.484375 30.078125 48.484375 
Q 22.953125 48.484375 18.875 42.84375 
Q 14.796875 37.203125 14.796875 27.296875 
z
" id="DejaVuSans-100"/>
      <path d="M 54.890625 54.6875 
L 35.109375 28.078125 
L 55.90625 0 
L 45.3125 0 
L 29.390625 21.484375 
L 13.484375 0 
L 2.875 0 
L 24.125 28.609375 
L 4.6875 54.6875 
L 15.28125 54.6875 
L 29.78125 35.203125 
L 44.28125 54.6875 
z
" id="DejaVuSans-120"/>
     </defs>
     <g transform="translate(673.542 396.095763)scale(0.1 -0.1)">
      <use xlink:href="#DejaVuSans-77"/>
      <use x="86.279297" xlink:href="#DejaVuSans-97"/>
      <use x="147.558594" xlink:href="#DejaVuSans-103"/>
      <use x="211.035156" xlink:href="#DejaVuSans-110"/>
      <use x="274.414062" xlink:href="#DejaVuSans-101"/>
      <use x="335.9375" xlink:href="#DejaVuSans-116"/>
      <use x="375.146484" xlink:href="#DejaVuSans-32"/>
      <use x="406.933594" xlink:href="#DejaVuSans-73"/>
      <use x="436.425781" xlink:href="#DejaVuSans-110"/>
      <use x="499.804688" xlink:href="#DejaVuSans-100"/>
      <use x="563.28125" xlink:href="#DejaVuSans-101"/>
      <use x="624.789062" xlink:href="#DejaVuSans-120"/>
     </g>
    </g>
   </g>
   <g id="matplotlib.axis_2">
    <g id="ytick_1">
     <g id="line2d_17">
      <path clip-path="url(#pfef3835b47)" d="M 172.62 337.221373 
L 1242.864 337.221373 
" style="fill:none;stroke:#b0b0b0;stroke-linecap:square;stroke-width:0.8;"/>
     </g>
     <g id="line2d_18">
      <defs>
       <path d="M 0 0 
L -3.5 0 
" id="m849e2fcd2e" style="stroke:#000000;stroke-width:0.8;"/>
      </defs>
      <g>
       <use style="stroke:#000000;stroke-width:0.8;" x="172.62" xlink:href="#m849e2fcd2e" y="337.221373"/>
      </g>
     </g>
     <g id="text_10">
      <!-- −0.2 -->
      <defs>
       <path d="M 10.59375 35.5 
L 73.1875 35.5 
L 73.1875 27.203125 
L 10.59375 27.203125 
z
" id="DejaVuSans-8722"/>
       <path d="M 10.6875 12.40625 
L 21 12.40625 
L 21 0 
L 10.6875 0 
z
" id="DejaVuSans-46"/>
      </defs>
      <g transform="translate(141.337187 341.020592)scale(0.1 -0.1)">
       <use xlink:href="#DejaVuSans-8722"/>
       <use x="83.789062" xlink:href="#DejaVuSans-48"/>
       <use x="147.412109" xlink:href="#DejaVuSans-46"/>
       <use x="179.199219" xlink:href="#DejaVuSans-50"/>
      </g>
     </g>
    </g>
    <g id="ytick_2">
     <g id="line2d_19">
      <path clip-path="url(#pfef3835b47)" d="M 172.62 277.978209 
L 1242.864 277.978209 
" style="fill:none;stroke:#b0b0b0;stroke-linecap:square;stroke-width:0.8;"/>
     </g>
     <g id="line2d_20">
      <g>
       <use style="stroke:#000000;stroke-width:0.8;" x="172.62" xlink:href="#m849e2fcd2e" y="277.978209"/>
      </g>
     </g>
     <g id="text_11">
      <!-- −0.1 -->
      <g transform="translate(141.337187 281.777428)scale(0.1 -0.1)">
       <use xlink:href="#DejaVuSans-8722"/>
       <use x="83.789062" xlink:href="#DejaVuSans-48"/>
       <use x="147.412109" xlink:href="#DejaVuSans-46"/>
       <use x="179.199219" xlink:href="#DejaVuSans-49"/>
      </g>
     </g>
    </g>
    <g id="ytick_3">
     <g id="line2d_21">
      <path clip-path="url(#pfef3835b47)" d="M 172.62 218.735045 
L 1242.864 218.735045 
" style="fill:none;stroke:#b0b0b0;stroke-linecap:square;stroke-width:0.8;"/>
     </g>
     <g id="line2d_22">
      <g>
       <use style="stroke:#000000;stroke-width:0.8;" x="172.62" xlink:href="#m849e2fcd2e" y="218.735045"/>
      </g>
     </g>
     <g id="text_12">
      <!-- 0.0 -->
      <g transform="translate(149.716875 222.534264)scale(0.1 -0.1)">
       <use xlink:href="#DejaVuSans-48"/>
       <use x="63.623047" xlink:href="#DejaVuSans-46"/>
       <use x="95.410156" xlink:href="#DejaVuSans-48"/>
      </g>
     </g>
    </g>
    <g id="ytick_4">
     <g id="line2d_23">
      <path clip-path="url(#pfef3835b47)" d="M 172.62 159.491882 
L 1242.864 159.491882 
" style="fill:none;stroke:#b0b0b0;stroke-linecap:square;stroke-width:0.8;"/>
     </g>
     <g id="line2d_24">
      <g>
       <use style="stroke:#000000;stroke-width:0.8;" x="172.62" xlink:href="#m849e2fcd2e" y="159.491882"/>
      </g>
     </g>
     <g id="text_13">
      <!-- 0.1 -->
      <g transform="translate(149.716875 163.2911)scale(0.1 -0.1)">
       <use xlink:href="#DejaVuSans-48"/>
       <use x="63.623047" xlink:href="#DejaVuSans-46"/>
       <use x="95.410156" xlink:href="#DejaVuSans-49"/>
      </g>
     </g>
    </g>
    <g id="ytick_5">
     <g id="line2d_25">
      <path clip-path="url(#pfef3835b47)" d="M 172.62 100.248718 
L 1242.864 100.248718 
" style="fill:none;stroke:#b0b0b0;stroke-linecap:square;stroke-width:0.8;"/>
     </g>
     <g id="line2d_26">
      <g>
       <use style="stroke:#000000;stroke-width:0.8;" x="172.62" xlink:href="#m849e2fcd2e" y="100.248718"/>
      </g>
     </g>
     <g id="text_14">
      <!-- 0.2 -->
      <g transform="translate(149.716875 104.047937)scale(0.1 -0.1)">
       <use xlink:href="#DejaVuSans-48"/>
       <use x="63.623047" xlink:href="#DejaVuSans-46"/>
       <use x="95.410156" xlink:href="#DejaVuSans-50"/>
      </g>
     </g>
    </g>
    <g id="text_15">
     <!-- Roll error [mrad] -->
     <defs>
      <path d="M 44.390625 34.1875 
Q 47.5625 33.109375 50.5625 29.59375 
Q 53.5625 26.078125 56.59375 19.921875 
L 66.609375 0 
L 56 0 
L 46.6875 18.703125 
Q 43.0625 26.03125 39.671875 28.421875 
Q 36.28125 30.8125 30.421875 30.8125 
L 19.671875 30.8125 
L 19.671875 0 
L 9.8125 0 
L 9.8125 72.90625 
L 32.078125 72.90625 
Q 44.578125 72.90625 50.734375 67.671875 
Q 56.890625 62.453125 56.890625 51.90625 
Q 56.890625 45.015625 53.6875 40.46875 
Q 50.484375 35.9375 44.390625 34.1875 
z
M 19.671875 64.796875 
L 19.671875 38.921875 
L 32.078125 38.921875 
Q 39.203125 38.921875 42.84375 42.21875 
Q 46.484375 45.515625 46.484375 51.90625 
Q 46.484375 58.296875 42.84375 61.546875 
Q 39.203125 64.796875 32.078125 64.796875 
z
" id="DejaVuSans-82"/>
      <path d="M 30.609375 48.390625 
Q 23.390625 48.390625 19.1875 42.75 
Q 14.984375 37.109375 14.984375 27.296875 
Q 14.984375 17.484375 19.15625 11.84375 
Q 23.34375 6.203125 30.609375 6.203125 
Q 37.796875 6.203125 41.984375 11.859375 
Q 46.1875 17.53125 46.1875 27.296875 
Q 46.1875 37.015625 41.984375 42.703125 
Q 37.796875 48.390625 30.609375 48.390625 
z
M 30.609375 56 
Q 42.328125 56 49.015625 48.375 
Q 55.71875 40.765625 55.71875 27.296875 
Q 55.71875 13.875 49.015625 6.21875 
Q 42.328125 -1.421875 30.609375 -1.421875 
Q 18.84375 -1.421875 12.171875 6.21875 
Q 5.515625 13.875 5.515625 27.296875 
Q 5.515625 40.765625 12.171875 48.375 
Q 18.84375 56 30.609375 56 
z
" id="DejaVuSans-111"/>
      <path d="M 9.421875 75.984375 
L 18.40625 75.984375 
L 18.40625 0 
L 9.421875 0 
z
" id="DejaVuSans-108"/>
      <path d="M 41.109375 46.296875 
Q 39.59375 47.171875 37.8125 47.578125 
Q 36.03125 48 33.890625 48 
Q 26.265625 48 22.1875 43.046875 
Q 18.109375 38.09375 18.109375 28.8125 
L 18.109375 0 
L 9.078125 0 
L 9.078125 54.6875 
L 18.109375 54.6875 
L 18.109375 46.1875 
Q 20.953125 51.171875 25.484375 53.578125 
Q 30.03125 56 36.53125 56 
Q 37.453125 56 38.578125 55.875 
Q 39.703125 55.765625 41.0625 55.515625 
z
" id="DejaVuSans-114"/>
      <path d="M 8.59375 75.984375 
L 29.296875 75.984375 
L 29.296875 69 
L 17.578125 69 
L 17.578125 -6.203125 
L 29.296875 -6.203125 
L 29.296875 -13.1875 
L 8.59375 -13.1875 
z
" id="DejaVuSans-91"/>
      <path d="M 52 44.1875 
Q 55.375 50.25 60.0625 53.125 
Q 64.75 56 71.09375 56 
Q 79.640625 56 84.28125 50.015625 
Q 88.921875 44.046875 88.921875 33.015625 
L 88.921875 0 
L 79.890625 0 
L 79.890625 32.71875 
Q 79.890625 40.578125 77.09375 44.375 
Q 74.3125 48.1875 68.609375 48.1875 
Q 61.625 48.1875 57.5625 43.546875 
Q 53.515625 38.921875 53.515625 30.90625 
L 53.515625 0 
L 44.484375 0 
L 44.484375 32.71875 
Q 44.484375 40.625 41.703125 44.40625 
Q 38.921875 48.1875 33.109375 48.1875 
Q 26.21875 48.1875 22.15625 43.53125 
Q 18.109375 38.875 18.109375 30.90625 
L 18.109375 0 
L 9.078125 0 
L 9.078125 54.6875 
L 18.109375 54.6875 
L 18.109375 46.1875 
Q 21.1875 51.21875 25.484375 53.609375 
Q 29.78125 56 35.6875 56 
Q 41.65625 56 45.828125 52.96875 
Q 50 49.953125 52 44.1875 
z
" id="DejaVuSans-109"/>
      <path d="M 30.421875 75.984375 
L 30.421875 -13.1875 
L 9.71875 -13.1875 
L 9.71875 -6.203125 
L 21.390625 -6.203125 
L 21.390625 69 
L 9.71875 69 
L 9.71875 75.984375 
z
" id="DejaVuSans-93"/>
     </defs>
     <g transform="translate(135.2575 250.558744)rotate(-90)scale(0.1 -0.1)">
      <use xlink:href="#DejaVuSans-82"/>
      <use x="69.419922" xlink:href="#DejaVuSans-111"/>
      <use x="130.601562" xlink:href="#DejaVuSans-108"/>
      <use x="158.384766" xlink:href="#DejaVuSans-108"/>
      <use x="186.167969" xlink:href="#DejaVuSans-32"/>
      <use x="217.955078" xlink:href="#DejaVuSans-101"/>
      <use x="279.478516" xlink:href="#DejaVuSans-114"/>
      <use x="320.576172" xlink:href="#DejaVuSans-114"/>
      <use x="361.658203" xlink:href="#DejaVuSans-111"/>
      <use x="422.839844" xlink:href="#DejaVuSans-114"/>
      <use x="463.953125" xlink:href="#DejaVuSans-32"/>
      <use x="495.740234" xlink:href="#DejaVuSans-91"/>
      <use x="534.753906" xlink:href="#DejaVuSans-109"/>
      <use x="632.166016" xlink:href="#DejaVuSans-114"/>
      <use x="673.279297" xlink:href="#DejaVuSans-97"/>
      <use x="734.558594" xlink:href="#DejaVuSans-100"/>
      <use x="798.035156" xlink:href="#DejaVuSans-93"/>
     </g>
    </g>
   </g>
   <g id="line2d_27">
    <path clip-path="url(#pfef3835b47)" d="M 221.267455 323.150886 
L 227.02455 202.085001 
L 232.781645 168.887262 
L 238.53874 232.550117 
L 244.295835 109.668453 
L 250.052931 128.665777 
L 255.810026 262.824778 
L 261.567121 133.878584 
L 267.324216 247.652629 
L 273.081311 132.432883 
" style="fill:none;stroke:#0000ff;stroke-linecap:square;stroke-width:1.5;"/>
   </g>
   <g id="line2d_28">
    <defs>
     <path d="M 0 3 
C 0.795609 3 1.55874 2.683901 2.12132 2.12132 
C 2.683901 1.55874 3 0.795609 3 0 
C 3 -0.795609 2.683901 -1.55874 2.12132 -2.12132 
C 1.55874 -2.683901 0.795609 -3 0 -3 
C -0.795609 -3 -1.55874 -2.683901 -2.12132 -2.12132 
C -2.683901 -1.55874 -3 -0.795609 -3 0 
C -3 0.795609 -2.683901 1.55874 -2.12132 2.12132 
C -1.55874 2.683901 -0.795609 3 0 3 
z
" id="mc31895cfb4" style="stroke:#0000ff;"/>
    </defs>
    <g clip-path="url(#pfef3835b47)">
     <use style="fill:#0000ff;stroke:#0000ff;" x="221.267455" xlink:href="#mc31895cfb4" y="323.150886"/>
     <use style="fill:#0000ff;stroke:#0000ff;" x="227.02455" xlink:href="#mc31895cfb4" y="202.085001"/>
     <use style="fill:#0000ff;stroke:#0000ff;" x="232.781645" xlink:href="#mc31895cfb4" y="168.887262"/>
     <use style="fill:#0000ff;stroke:#0000ff;" x="238.53874" xlink:href="#mc31895cfb4" y="232.550117"/>
     <use style="fill:#0000ff;stroke:#0000ff;" x="244.295835" xlink:href="#mc31895cfb4" y="109.668453"/>
     <use style="fill:#0000ff;stroke:#0000ff;" x="250.052931" xlink:href="#mc31895cfb4" y="128.665777"/>
     <use style="fill:#0000ff;stroke:#0000ff;" x="255.810026" xlink:href="#mc31895cfb4" y="262.824778"/>
     <use style="fill:#0000ff;stroke:#0000ff;" x="261.567121" xlink:href="#mc31895cfb4" y="133.878584"/>
     <use style="fill:#0000ff;stroke:#0000ff;" x="267.324216" xlink:href="#mc31895cfb4" y="247.652629"/>
     <use style="fill:#0000ff;stroke:#0000ff;" x="273.081311" xlink:href="#mc31895cfb4" y="132.432883"/>
    </g>
   </g>
   <g id="line2d_29">
    <path clip-path="url(#pfef3835b47)" d="M 221.267455 194.179637 
L 227.02455 194.179637 
L 232.781645 194.179637 
L 238.53874 194.179637 
L 244.295835 194.179637 
L 250.052931 194.179637 
L 255.810026 194.179637 
L 261.567121 194.179637 
L 267.324216 194.179637 
L 273.081311 194.179637 
" style="fill:none;stroke:#0000ff;stroke-dasharray:5.55,2.4;stroke-dashoffset:0;stroke-width:1.5;"/>
   </g>
   <g id="line2d_30">
    <path clip-path="url(#pfef3835b47)" d="M 278.838407 146.770317 
L 284.595502 203.014475 
L 290.352597 125.061777 
L 296.109692 88.402625 
L 301.866788 123.997863 
L 307.623883 94.55113 
L 313.380978 186.257516 
L 319.138073 168.769833 
L 324.895168 181.397296 
L 330.652264 138.905802 
L 336.409359 113.257323 
L 342.166454 145.983205 
L 347.923549 137.82577 
L 353.680644 200.833738 
L 359.43774 293.480347 
L 365.194835 182.276722 
L 370.95193 120.826923 
L 376.709025 64.0584 
L 382.46612 126.544599 
L 388.223216 331.43031 
L 393.980311 213.423633 
L 399.737406 80.244726 
L 405.494501 118.751909 
L 411.251597 173.745109 
L 417.008692 282.328391 
L 422.765787 153.549416 
L 428.522882 199.545235 
L 434.279977 148.679506 
L 440.037073 201.663936 
L 445.794168 159.603165 
L 451.551263 183.725491 
L 457.308358 98.287008 
L 463.065453 130.172549 
L 468.822549 164.480617 
L 474.579644 119.367818 
L 480.336739 172.589555 
L 486.093834 111.505536 
L 491.85093 187.193178 
L 497.608025 184.674813 
L 503.36512 234.333893 
" style="fill:none;stroke:#008000;stroke-linecap:square;stroke-width:1.5;"/>
   </g>
   <g id="line2d_31">
    <defs>
     <path d="M 0 3 
C 0.795609 3 1.55874 2.683901 2.12132 2.12132 
C 2.683901 1.55874 3 0.795609 3 0 
C 3 -0.795609 2.683901 -1.55874 2.12132 -2.12132 
C 1.55874 -2.683901 0.795609 -3 0 -3 
C -0.795609 -3 -1.55874 -2.683901 -2.12132 -2.12132 
C -2.683901 -1.55874 -3 -0.795609 -3 0 
C -3 0.795609 -2.683901 1.55874 -2.12132 2.12132 
C -1.55874 2.683901 -0.795609 3 0 3 
z
" id="m045e79d9e7" style="stroke:#008000;"/>
    </defs>
    <g clip-path="url(#pfef3835b47)">
     <use style="fill:#008000;stroke:#008000;" x="278.838407" xlink:href="#m045e79d9e7" y="146.770317"/>
     <use style="fill:#008000;stroke:#008000;" x="284.595502" xlink:href="#m045e79d9e7" y="203.014475"/>
     <use style="fill:#008000;stroke:#008000;" x="290.352597" xlink:href="#m045e79d9e7" y="125.061777"/>
     <use style="fill:#008000;stroke:#008000;" x="296.109692" xlink:href="#m045e79d9e7" y="88.402625"/>
     <use style="fill:#008000;stroke:#008000;" x="301.866788" xlink:href="#m045e79d9e7" y="123.997863"/>
     <use style="fill:#008000;stroke:#008000;" x="307.623883" xlink:href="#m045e79d9e7" y="94.55113"/>
     <use style="fill:#008000;stroke:#008000;" x="313.380978" xlink:href="#m045e79d9e7" y="186.257516"/>
     <use style="fill:#008000;stroke:#008000;" x="319.138073" xlink:href="#m045e79d9e7" y="168.769833"/>
     <use style="fill:#008000;stroke:#008000;" x="324.895168" xlink:href="#m045e79d9e7" y="181.397296"/>
     <use style="fill:#008000;stroke:#008000;" x="330.652264" xlink:href="#m045e79d9e7" y="138.905802"/>
     <use style="fill:#008000;stroke:#008000;" x="336.409359" xlink:href="#m045e79d9e7" y="113.257323"/>
     <use style="fill:#008000;stroke:#008000;" x="342.166454" xlink:href="#m045e79d9e7" y="145.983205"/>
     <use style="fill:#008000;stroke:#008000;" x="347.923549" xlink:href="#m045e79d9e7" y="137.82577"/>
     <use style="fill:#008000;stroke:#008000;" x="353.680644" xlink:href="#m045e79d9e7" y="200.833738"/>
     <use style="fill:#008000;stroke:#008000;" x="359.43774" xlink:href="#m045e79d9e7" y="293.480347"/>
     <use style="fill:#008000;stroke:#008000;" x="365.194835" xlink:href="#m045e79d9e7" y="182.276722"/>
     <use style="fill:#008000;stroke:#008000;" x="370.95193" xlink:href="#m045e79d9e7" y="120.826923"/>
     <use style="fill:#008000;stroke:#008000;" x="376.709025" xlink:href="#m045e79d9e7" y="64.0584"/>
     <use style="fill:#008000;stroke:#008000;" x="382.46612" xlink:href="#m045e79d9e7" y="126.544599"/>
     <use style="fill:#008000;stroke:#008000;" x="388.223216" xlink:href="#m045e79d9e7" y="331.43031"/>
     <use style="fill:#008000;stroke:#008000;" x="393.980311" xlink:href="#m045e79d9e7" y="213.423633"/>
     <use style="fill:#008000;stroke:#008000;" x="399.737406" xlink:href="#m045e79d9e7" y="80.244726"/>
     <use style="fill:#008000;stroke:#008000;" x="405.494501" xlink:href="#m045e79d9e7" y="118.751909"/>
     <use style="fill:#008000;stroke:#008000;" x="411.251597" xlink:href="#m045e79d9e7" y="173.745109"/>
     <use style="fill:#008000;stroke:#008000;" x="417.008692" xlink:href="#m045e79d9e7" y="282.328391"/>
     <use style="fill:#008000;stroke:#008000;" x="422.765787" xlink:href="#m045e79d9e7" y="153.549416"/>
     <use style="fill:#008000;stroke:#008000;" x="428.522882" xlink:href="#m045e79d9e7" y="199.545235"/>
     <use style="fill:#008000;stroke:#008000;" x="434.279977" xlink:href="#m045e79d9e7" y="148.679506"/>
     <use style="fill:#008000;stroke:#008000;" x="440.037073" xlink:href="#m045e79d9e7" y="201.663936"/>
     <use style="fill:#008000;stroke:#008000;" x="445.794168" xlink:href="#m045e79d9e7" y="159.603165"/>
     <use style="fill:#008000;stroke:#008000;" x="451.551263" xlink:href="#m045e79d9e7" y="183.725491"/>
     <use style="fill:#008000;stroke:#008000;" x="457.308358" xlink:href="#m045e79d9e7" y="98.287008"/>
     <use style="fill:#008000;stroke:#008000;" x="463.065453" xlink:href="#m045e79d9e7" y="130.172549"/>
     <use style="fill:#008000;stroke:#008000;" x="468.822549" xlink:href="#m045e79d9e7" y="164.480617"/>
     <use style="fill:#008000;stroke:#008000;" x="474.579644" xlink:href="#m045e79d9e7" y="119.367818"/>
     <use style="fill:#008000;stroke:#008000;" x="480.336739" xlink:href="#m045e79d9e7" y="172.589555"/>
     <use style="fill:#008000;stroke:#008000;" x="486.093834" xlink:href="#m045e79d9e7" y="111.505536"/>
     <use style="fill:#008000;stroke:#008000;" x="491.85093" xlink:href="#m045e79d9e7" y="187.193178"/>
     <use style="fill:#008000;stroke:#008000;" x="497.608025" xlink:href="#m045e79d9e7" y="184.674813"/>
     <use style="fill:#008000;stroke:#008000;" x="503.36512" xlink:href="#m045e79d9e7" y="234.333893"/>
    </g>
   </g>
   <g id="line2d_32">
    <path clip-path="url(#pfef3835b47)" d="M 278.838407 162.287786 
L 284.595502 162.287786 
L 290.352597 162.287786 
L 296.109692 162.287786 
L 301.866788 162.287786 
L 307.623883 162.287786 
L 313.380978 162.287786 
L 319.138073 162.287786 
L 324.895168 162.287786 
L 330.652264 162.287786 
L 336.409359 162.287786 
L 342.166454 162.287786 
L 347.923549 162.287786 
L 353.680644 162.287786 
L 359.43774 162.287786 
L 365.194835 162.287786 
L 370.95193 162.287786 
L 376.709025 162.287786 
L 382.46612 162.287786 
L 388.223216 162.287786 
L 393.980311 162.287786 
L 399.737406 162.287786 
L 405.494501 162.287786 
L 411.251597 162.287786 
L 417.008692 162.287786 
L 422.765787 162.287786 
L 428.522882 162.287786 
L 434.279977 162.287786 
L 440.037073 162.287786 
L 445.794168 162.287786 
L 451.551263 162.287786 
L 457.308358 162.287786 
L 463.065453 162.287786 
L 468.822549 162.287786 
L 474.579644 162.287786 
L 480.336739 162.287786 
L 486.093834 162.287786 
L 491.85093 162.287786 
L 497.608025 162.287786 
L 503.36512 162.287786 
" style="fill:none;stroke:#008000;stroke-dasharray:5.55,2.4;stroke-dashoffset:0;stroke-width:1.5;"/>
   </g>
   <g id="line2d_33">
    <path clip-path="url(#pfef3835b47)" d="M 509.122215 120.493961 
L 514.87931 119.342393 
L 520.636406 119.057048 
L 526.393501 233.153884 
L 532.150596 154.610118 
L 537.907691 160.123063 
L 543.664786 146.416804 
L 549.421882 119.16844 
L 555.178977 145.242462 
L 560.936072 137.680272 
L 566.693167 254.463797 
L 572.450263 279.88523 
L 578.207358 353.3544 
L 583.964453 118.236579 
L 589.721548 250.520364 
L 595.478643 243.952849 
L 601.235739 174.973646 
L 606.992834 163.566714 
L 612.749929 193.74502 
L 618.507024 142.065586 
L 624.264119 132.414028 
L 630.021215 112.974713 
L 635.77831 264.44518 
L 641.535405 159.076378 
L 647.2925 130.539626 
L 653.049595 167.159833 
L 658.806691 329.986145 
L 664.563786 241.399869 
L 670.320881 221.033139 
L 676.077976 112.843177 
L 681.835072 154.079329 
L 687.592167 156.063937 
L 693.349262 152.820951 
L 699.106357 173.557543 
L 704.863452 143.068974 
L 710.620548 327.988845 
L 716.377643 337.059444 
L 722.134738 264.462224 
L 727.891833 129.860144 
L 733.648928 198.153704 
" style="fill:none;stroke:#ff0000;stroke-linecap:square;stroke-width:1.5;"/>
   </g>
   <g id="line2d_34">
    <defs>
     <path d="M 0 3 
C 0.795609 3 1.55874 2.683901 2.12132 2.12132 
C 2.683901 1.55874 3 0.795609 3 0 
C 3 -0.795609 2.683901 -1.55874 2.12132 -2.12132 
C 1.55874 -2.683901 0.795609 -3 0 -3 
C -0.795609 -3 -1.55874 -2.683901 -2.12132 -2.12132 
C -2.683901 -1.55874 -3 -0.795609 -3 0 
C -3 0.795609 -2.683901 1.55874 -2.12132 2.12132 
C -1.55874 2.683901 -0.795609 3 0 3 
z
" id="m779cd89f05" style="stroke:#ff0000;"/>
    </defs>
    <g clip-path="url(#pfef3835b47)">
     <use style="fill:#ff0000;stroke:#ff0000;" x="509.122215" xlink:href="#m779cd89f05" y="120.493961"/>
     <use style="fill:#ff0000;stroke:#ff0000;" x="514.87931" xlink:href="#m779cd89f05" y="119.342393"/>
     <use style="fill:#ff0000;stroke:#ff0000;" x="520.636406" xlink:href="#m779cd89f05" y="119.057048"/>
     <use style="fill:#ff0000;stroke:#ff0000;" x="526.393501" xlink:href="#m779cd89f05" y="233.153884"/>
     <use style="fill:#ff0000;stroke:#ff0000;" x="532.150596" xlink:href="#m779cd89f05" y="154.610118"/>
     <use style="fill:#ff0000;stroke:#ff0000;" x="537.907691" xlink:href="#m779cd89f05" y="160.123063"/>
     <use style="fill:#ff0000;stroke:#ff0000;" x="543.664786" xlink:href="#m779cd89f05" y="146.416804"/>
     <use style="fill:#ff0000;stroke:#ff0000;" x="549.421882" xlink:href="#m779cd89f05" y="119.16844"/>
     <use style="fill:#ff0000;stroke:#ff0000;" x="555.178977" xlink:href="#m779cd89f05" y="145.242462"/>
     <use style="fill:#ff0000;stroke:#ff0000;" x="560.936072" xlink:href="#m779cd89f05" y="137.680272"/>
     <use style="fill:#ff0000;stroke:#ff0000;" x="566.693167" xlink:href="#m779cd89f05" y="254.463797"/>
     <use style="fill:#ff0000;stroke:#ff0000;" x="572.450263" xlink:href="#m779cd89f05" y="279.88523"/>
     <use style="fill:#ff0000;stroke:#ff0000;" x="578.207358" xlink:href="#m779cd89f05" y="353.3544"/>
     <use style="fill:#ff0000;stroke:#ff0000;" x="583.964453" xlink:href="#m779cd89f05" y="118.236579"/>
     <use style="fill:#ff0000;stroke:#ff0000;" x="589.721548" xlink:href="#m779cd89f05" y="250.520364"/>
     <use style="fill:#ff0000;stroke:#ff0000;" x="595.478643" xlink:href="#m779cd89f05" y="243.952849"/>
     <use style="fill:#ff0000;stroke:#ff0000;" x="601.235739" xlink:href="#m779cd89f05" y="174.973646"/>
     <use style="fill:#ff0000;stroke:#ff0000;" x="606.992834" xlink:href="#m779cd89f05" y="163.566714"/>
     <use style="fill:#ff0000;stroke:#ff0000;" x="612.749929" xlink:href="#m779cd89f05" y="193.74502"/>
     <use style="fill:#ff0000;stroke:#ff0000;" x="618.507024" xlink:href="#m779cd89f05" y="142.065586"/>
     <use style="fill:#ff0000;stroke:#ff0000;" x="624.264119" xlink:href="#m779cd89f05" y="132.414028"/>
     <use style="fill:#ff0000;stroke:#ff0000;" x="630.021215" xlink:href="#m779cd89f05" y="112.974713"/>
     <use style="fill:#ff0000;stroke:#ff0000;" x="635.77831" xlink:href="#m779cd89f05" y="264.44518"/>
     <use style="fill:#ff0000;stroke:#ff0000;" x="641.535405" xlink:href="#m779cd89f05" y="159.076378"/>
     <use style="fill:#ff0000;stroke:#ff0000;" x="647.2925" xlink:href="#m779cd89f05" y="130.539626"/>
     <use style="fill:#ff0000;stroke:#ff0000;" x="653.049595" xlink:href="#m779cd89f05" y="167.159833"/>
     <use style="fill:#ff0000;stroke:#ff0000;" x="658.806691" xlink:href="#m779cd89f05" y="329.986145"/>
     <use style="fill:#ff0000;stroke:#ff0000;" x="664.563786" xlink:href="#m779cd89f05" y="241.399869"/>
     <use style="fill:#ff0000;stroke:#ff0000;" x="670.320881" xlink:href="#m779cd89f05" y="221.033139"/>
     <use style="fill:#ff0000;stroke:#ff0000;" x="676.077976" xlink:href="#m779cd89f05" y="112.843177"/>
     <use style="fill:#ff0000;stroke:#ff0000;" x="681.835072" xlink:href="#m779cd89f05" y="154.079329"/>
     <use style="fill:#ff0000;stroke:#ff0000;" x="687.592167" xlink:href="#m779cd89f05" y="156.063937"/>
     <use style="fill:#ff0000;stroke:#ff0000;" x="693.349262" xlink:href="#m779cd89f05" y="152.820951"/>
     <use style="fill:#ff0000;stroke:#ff0000;" x="699.106357" xlink:href="#m779cd89f05" y="173.557543"/>
     <use style="fill:#ff0000;stroke:#ff0000;" x="704.863452" xlink:href="#m779cd89f05" y="143.068974"/>
     <use style="fill:#ff0000;stroke:#ff0000;" x="710.620548" xlink:href="#m779cd89f05" y="327.988845"/>
     <use style="fill:#ff0000;stroke:#ff0000;" x="716.377643" xlink:href="#m779cd89f05" y="337.059444"/>
     <use style="fill:#ff0000;stroke:#ff0000;" x="722.134738" xlink:href="#m779cd89f05" y="264.462224"/>
     <use style="fill:#ff0000;stroke:#ff0000;" x="727.891833" xlink:href="#m779cd89f05" y="129.860144"/>
     <use style="fill:#ff0000;stroke:#ff0000;" x="733.648928" xlink:href="#m779cd89f05" y="198.153704"/>
    </g>
   </g>
   <g id="line2d_35">
    <path clip-path="url(#pfef3835b47)" d="M 509.122215 188.475995 
L 514.87931 188.475995 
L 520.636406 188.475995 
L 526.393501 188.475995 
L 532.150596 188.475995 
L 537.907691 188.475995 
L 543.664786 188.475995 
L 549.421882 188.475995 
L 555.178977 188.475995 
L 560.936072 188.475995 
L 566.693167 188.475995 
L 572.450263 188.475995 
L 578.207358 188.475995 
L 583.964453 188.475995 
L 589.721548 188.475995 
L 595.478643 188.475995 
L 601.235739 188.475995 
L 606.992834 188.475995 
L 612.749929 188.475995 
L 618.507024 188.475995 
L 624.264119 188.475995 
L 630.021215 188.475995 
L 635.77831 188.475995 
L 641.535405 188.475995 
L 647.2925 188.475995 
L 653.049595 188.475995 
L 658.806691 188.475995 
L 664.563786 188.475995 
L 670.320881 188.475995 
L 676.077976 188.475995 
L 681.835072 188.475995 
L 687.592167 188.475995 
L 693.349262 188.475995 
L 699.106357 188.475995 
L 704.863452 188.475995 
L 710.620548 188.475995 
L 716.377643 188.475995 
L 722.134738 188.475995 
L 727.891833 188.475995 
L 733.648928 188.475995 
" style="fill:none;stroke:#ff0000;stroke-dasharray:5.55,2.4;stroke-dashoffset:0;stroke-width:1.5;"/>
   </g>
   <g id="line2d_36">
    <path clip-path="url(#pfef3835b47)" d="M 739.406024 158.538638 
L 745.163119 296.800785 
L 750.920214 196.649243 
L 756.677309 195.849682 
L 762.434405 157.005504 
L 768.1915 211.459951 
L 773.948595 278.124265 
L 779.70569 266.965444 
L 785.462785 120.952437 
L 791.219881 271.837369 
L 796.976976 168.581107 
L 802.734071 169.416653 
L 808.491166 145.872642 
L 814.248261 108.306194 
L 820.005357 245.41729 
L 825.762452 247.034638 
L 831.519547 121.282221 
L 837.276642 179.742584 
L 843.033737 157.744217 
L 848.790833 233.622599 
L 854.547928 252.109325 
L 860.305023 176.451132 
L 866.062118 243.130554 
L 871.819214 168.682083 
L 877.576309 142.04356 
L 883.333404 248.953889 
L 889.090499 112.23141 
L 894.847594 285.324037 
L 900.60469 114.39938 
L 906.361785 198.751354 
L 912.11888 194.561393 
L 917.875975 162.449606 
L 923.63307 125.274497 
L 929.390166 237.48637 
L 935.147261 278.368248 
L 940.904356 143.461651 
L 946.661451 190.788292 
L 952.418547 238.057818 
L 958.175642 145.114561 
L 963.932737 153.95118 
" style="fill:none;stroke:#000000;stroke-linecap:square;stroke-width:1.5;"/>
   </g>
   <g id="line2d_37">
    <defs>
     <path d="M 0 3 
C 0.795609 3 1.55874 2.683901 2.12132 2.12132 
C 2.683901 1.55874 3 0.795609 3 0 
C 3 -0.795609 2.683901 -1.55874 2.12132 -2.12132 
C 1.55874 -2.683901 0.795609 -3 0 -3 
C -0.795609 -3 -1.55874 -2.683901 -2.12132 -2.12132 
C -2.683901 -1.55874 -3 -0.795609 -3 0 
C -3 0.795609 -2.683901 1.55874 -2.12132 2.12132 
C -1.55874 2.683901 -0.795609 3 0 3 
z
" id="me071e1c66e" style="stroke:#000000;"/>
    </defs>
    <g clip-path="url(#pfef3835b47)">
     <use style="stroke:#000000;" x="739.406024" xlink:href="#me071e1c66e" y="158.538638"/>
     <use style="stroke:#000000;" x="745.163119" xlink:href="#me071e1c66e" y="296.800785"/>
     <use style="stroke:#000000;" x="750.920214" xlink:href="#me071e1c66e" y="196.649243"/>
     <use style="stroke:#000000;" x="756.677309" xlink:href="#me071e1c66e" y="195.849682"/>
     <use style="stroke:#000000;" x="762.434405" xlink:href="#me071e1c66e" y="157.005504"/>
     <use style="stroke:#000000;" x="768.1915" xlink:href="#me071e1c66e" y="211.459951"/>
     <use style="stroke:#000000;" x="773.948595" xlink:href="#me071e1c66e" y="278.124265"/>
     <use style="stroke:#000000;" x="779.70569" xlink:href="#me071e1c66e" y="266.965444"/>
     <use style="stroke:#000000;" x="785.462785" xlink:href="#me071e1c66e" y="120.952437"/>
     <use style="stroke:#000000;" x="791.219881" xlink:href="#me071e1c66e" y="271.837369"/>
     <use style="stroke:#000000;" x="796.976976" xlink:href="#me071e1c66e" y="168.581107"/>
     <use style="stroke:#000000;" x="802.734071" xlink:href="#me071e1c66e" y="169.416653"/>
     <use style="stroke:#000000;" x="808.491166" xlink:href="#me071e1c66e" y="145.872642"/>
     <use style="stroke:#000000;" x="814.248261" xlink:href="#me071e1c66e" y="108.306194"/>
     <use style="stroke:#000000;" x="820.005357" xlink:href="#me071e1c66e" y="245.41729"/>
     <use style="stroke:#000000;" x="825.762452" xlink:href="#me071e1c66e" y="247.034638"/>
     <use style="stroke:#000000;" x="831.519547" xlink:href="#me071e1c66e" y="121.282221"/>
     <use style="stroke:#000000;" x="837.276642" xlink:href="#me071e1c66e" y="179.742584"/>
     <use style="stroke:#000000;" x="843.033737" xlink:href="#me071e1c66e" y="157.744217"/>
     <use style="stroke:#000000;" x="848.790833" xlink:href="#me071e1c66e" y="233.622599"/>
     <use style="stroke:#000000;" x="854.547928" xlink:href="#me071e1c66e" y="252.109325"/>
     <use style="stroke:#000000;" x="860.305023" xlink:href="#me071e1c66e" y="176.451132"/>
     <use style="stroke:#000000;" x="866.062118" xlink:href="#me071e1c66e" y="243.130554"/>
     <use style="stroke:#000000;" x="871.819214" xlink:href="#me071e1c66e" y="168.682083"/>
     <use style="stroke:#000000;" x="877.576309" xlink:href="#me071e1c66e" y="142.04356"/>
     <use style="stroke:#000000;" x="883.333404" xlink:href="#me071e1c66e" y="248.953889"/>
     <use style="stroke:#000000;" x="889.090499" xlink:href="#me071e1c66e" y="112.23141"/>
     <use style="stroke:#000000;" x="894.847594" xlink:href="#me071e1c66e" y="285.324037"/>
     <use style="stroke:#000000;" x="900.60469" xlink:href="#me071e1c66e" y="114.39938"/>
     <use style="stroke:#000000;" x="906.361785" xlink:href="#me071e1c66e" y="198.751354"/>
     <use style="stroke:#000000;" x="912.11888" xlink:href="#me071e1c66e" y="194.561393"/>
     <use style="stroke:#000000;" x="917.875975" xlink:href="#me071e1c66e" y="162.449606"/>
     <use style="stroke:#000000;" x="923.63307" xlink:href="#me071e1c66e" y="125.274497"/>
     <use style="stroke:#000000;" x="929.390166" xlink:href="#me071e1c66e" y="237.48637"/>
     <use style="stroke:#000000;" x="935.147261" xlink:href="#me071e1c66e" y="278.368248"/>
     <use style="stroke:#000000;" x="940.904356" xlink:href="#me071e1c66e" y="143.461651"/>
     <use style="stroke:#000000;" x="946.661451" xlink:href="#me071e1c66e" y="190.788292"/>
     <use style="stroke:#000000;" x="952.418547" xlink:href="#me071e1c66e" y="238.057818"/>
     <use style="stroke:#000000;" x="958.175642" xlink:href="#me071e1c66e" y="145.114561"/>
     <use style="stroke:#000000;" x="963.932737" xlink:href="#me071e1c66e" y="153.95118"/>
    </g>
   </g>
   <g id="line2d_38">
    <path clip-path="url(#pfef3835b47)" d="M 739.406024 193.569845 
L 745.163119 193.569845 
L 750.920214 193.569845 
L 756.677309 193.569845 
L 762.434405 193.569845 
L 768.1915 193.569845 
L 773.948595 193.569845 
L 779.70569 193.569845 
L 785.462785 193.569845 
L 791.219881 193.569845 
L 796.976976 193.569845 
L 802.734071 193.569845 
L 808.491166 193.569845 
L 814.248261 193.569845 
L 820.005357 193.569845 
L 825.762452 193.569845 
L 831.519547 193.569845 
L 837.276642 193.569845 
L 843.033737 193.569845 
L 848.790833 193.569845 
L 854.547928 193.569845 
L 860.305023 193.569845 
L 866.062118 193.569845 
L 871.819214 193.569845 
L 877.576309 193.569845 
L 883.333404 193.569845 
L 889.090499 193.569845 
L 894.847594 193.569845 
L 900.60469 193.569845 
L 906.361785 193.569845 
L 912.11888 193.569845 
L 917.875975 193.569845 
L 923.63307 193.569845 
L 929.390166 193.569845 
L 935.147261 193.569845 
L 940.904356 193.569845 
L 946.661451 193.569845 
L 952.418547 193.569845 
L 958.175642 193.569845 
L 963.932737 193.569845 
" style="fill:none;stroke:#000000;stroke-dasharray:5.55,2.4;stroke-dashoffset:0;stroke-width:1.5;"/>
   </g>
   <g id="line2d_39">
    <path clip-path="url(#pfef3835b47)" d="M 969.689832 245.70661 
L 975.446927 298.446144 
L 981.204023 130.40208 
L 986.961118 122.918183 
L 992.718213 215.980193 
L 998.475308 127.541389 
L 1004.232403 267.54101 
L 1009.989499 187.721689 
L 1015.746594 175.876348 
L 1021.503689 171.332668 
L 1027.260784 179.183126 
L 1033.01788 174.975935 
L 1038.774975 203.321475 
L 1044.53207 163.250357 
L 1050.289165 198.406228 
L 1056.04626 169.802894 
L 1061.803356 168.817981 
L 1067.560451 181.51348 
L 1073.317546 164.582752 
L 1079.074641 170.341249 
L 1084.831736 170.068336 
L 1090.588832 183.462053 
L 1096.345927 162.506392 
L 1102.103022 254.330154 
L 1107.860117 150.320078 
L 1113.617212 152.606049 
L 1119.374308 181.791064 
L 1125.131403 324.178169 
L 1130.888498 146.135936 
L 1136.645593 266.172638 
L 1142.402689 266.305333 
L 1148.159784 130.971312 
L 1153.916879 113.453659 
L 1159.673974 212.879463 
L 1165.431069 167.277909 
L 1171.188165 122.631953 
L 1176.94526 150.291333 
L 1182.702355 168.721194 
L 1188.45945 154.21032 
L 1194.216545 112.028628 
" style="fill:none;stroke:#bfbf00;stroke-linecap:square;stroke-width:1.5;"/>
   </g>
   <g id="line2d_40">
    <defs>
     <path d="M 0 3 
C 0.795609 3 1.55874 2.683901 2.12132 2.12132 
C 2.683901 1.55874 3 0.795609 3 0 
C 3 -0.795609 2.683901 -1.55874 2.12132 -2.12132 
C 1.55874 -2.683901 0.795609 -3 0 -3 
C -0.795609 -3 -1.55874 -2.683901 -2.12132 -2.12132 
C -2.683901 -1.55874 -3 -0.795609 -3 0 
C -3 0.795609 -2.683901 1.55874 -2.12132 2.12132 
C -1.55874 2.683901 -0.795609 3 0 3 
z
" id="mfe22f61455" style="stroke:#bfbf00;"/>
    </defs>
    <g clip-path="url(#pfef3835b47)">
     <use style="fill:#bfbf00;stroke:#bfbf00;" x="969.689832" xlink:href="#mfe22f61455" y="245.70661"/>
     <use style="fill:#bfbf00;stroke:#bfbf00;" x="975.446927" xlink:href="#mfe22f61455" y="298.446144"/>
     <use style="fill:#bfbf00;stroke:#bfbf00;" x="981.204023" xlink:href="#mfe22f61455" y="130.40208"/>
     <use style="fill:#bfbf00;stroke:#bfbf00;" x="986.961118" xlink:href="#mfe22f61455" y="122.918183"/>
     <use style="fill:#bfbf00;stroke:#bfbf00;" x="992.718213" xlink:href="#mfe22f61455" y="215.980193"/>
     <use style="fill:#bfbf00;stroke:#bfbf00;" x="998.475308" xlink:href="#mfe22f61455" y="127.541389"/>
     <use style="fill:#bfbf00;stroke:#bfbf00;" x="1004.232403" xlink:href="#mfe22f61455" y="267.54101"/>
     <use style="fill:#bfbf00;stroke:#bfbf00;" x="1009.989499" xlink:href="#mfe22f61455" y="187.721689"/>
     <use style="fill:#bfbf00;stroke:#bfbf00;" x="1015.746594" xlink:href="#mfe22f61455" y="175.876348"/>
     <use style="fill:#bfbf00;stroke:#bfbf00;" x="1021.503689" xlink:href="#mfe22f61455" y="171.332668"/>
     <use style="fill:#bfbf00;stroke:#bfbf00;" x="1027.260784" xlink:href="#mfe22f61455" y="179.183126"/>
     <use style="fill:#bfbf00;stroke:#bfbf00;" x="1033.01788" xlink:href="#mfe22f61455" y="174.975935"/>
     <use style="fill:#bfbf00;stroke:#bfbf00;" x="1038.774975" xlink:href="#mfe22f61455" y="203.321475"/>
     <use style="fill:#bfbf00;stroke:#bfbf00;" x="1044.53207" xlink:href="#mfe22f61455" y="163.250357"/>
     <use style="fill:#bfbf00;stroke:#bfbf00;" x="1050.289165" xlink:href="#mfe22f61455" y="198.406228"/>
     <use style="fill:#bfbf00;stroke:#bfbf00;" x="1056.04626" xlink:href="#mfe22f61455" y="169.802894"/>
     <use style="fill:#bfbf00;stroke:#bfbf00;" x="1061.803356" xlink:href="#mfe22f61455" y="168.817981"/>
     <use style="fill:#bfbf00;stroke:#bfbf00;" x="1067.560451" xlink:href="#mfe22f61455" y="181.51348"/>
     <use style="fill:#bfbf00;stroke:#bfbf00;" x="1073.317546" xlink:href="#mfe22f61455" y="164.582752"/>
     <use style="fill:#bfbf00;stroke:#bfbf00;" x="1079.074641" xlink:href="#mfe22f61455" y="170.341249"/>
     <use style="fill:#bfbf00;stroke:#bfbf00;" x="1084.831736" xlink:href="#mfe22f61455" y="170.068336"/>
     <use style="fill:#bfbf00;stroke:#bfbf00;" x="1090.588832" xlink:href="#mfe22f61455" y="183.462053"/>
     <use style="fill:#bfbf00;stroke:#bfbf00;" x="1096.345927" xlink:href="#mfe22f61455" y="162.506392"/>
     <use style="fill:#bfbf00;stroke:#bfbf00;" x="1102.103022" xlink:href="#mfe22f61455" y="254.330154"/>
     <use style="fill:#bfbf00;stroke:#bfbf00;" x="1107.860117" xlink:href="#mfe22f61455" y="150.320078"/>
     <use style="fill:#bfbf00;stroke:#bfbf00;" x="1113.617212" xlink:href="#mfe22f61455" y="152.606049"/>
     <use style="fill:#bfbf00;stroke:#bfbf00;" x="1119.374308" xlink:href="#mfe22f61455" y="181.791064"/>
     <use style="fill:#bfbf00;stroke:#bfbf00;" x="1125.131403" xlink:href="#mfe22f61455" y="324.178169"/>
     <use style="fill:#bfbf00;stroke:#bfbf00;" x="1130.888498" xlink:href="#mfe22f61455" y="146.135936"/>
     <use style="fill:#bfbf00;stroke:#bfbf00;" x="1136.645593" xlink:href="#mfe22f61455" y="266.172638"/>
     <use style="fill:#bfbf00;stroke:#bfbf00;" x="1142.402689" xlink:href="#mfe22f61455" y="266.305333"/>
     <use style="fill:#bfbf00;stroke:#bfbf00;" x="1148.159784" xlink:href="#mfe22f61455" y="130.971312"/>
     <use style="fill:#bfbf00;stroke:#bfbf00;" x="1153.916879" xlink:href="#mfe22f61455" y="113.453659"/>
     <use style="fill:#bfbf00;stroke:#bfbf00;" x="1159.673974" xlink:href="#mfe22f61455" y="212.879463"/>
     <use style="fill:#bfbf00;stroke:#bfbf00;" x="1165.431069" xlink:href="#mfe22f61455" y="167.277909"/>
     <use style="fill:#bfbf00;stroke:#bfbf00;" x="1171.188165" xlink:href="#mfe22f61455" y="122.631953"/>
     <use style="fill:#bfbf00;stroke:#bfbf00;" x="1176.94526" xlink:href="#mfe22f61455" y="150.291333"/>
     <use style="fill:#bfbf00;stroke:#bfbf00;" x="1182.702355" xlink:href="#mfe22f61455" y="168.721194"/>
     <use style="fill:#bfbf00;stroke:#bfbf00;" x="1188.45945" xlink:href="#mfe22f61455" y="154.21032"/>
     <use style="fill:#bfbf00;stroke:#bfbf00;" x="1194.216545" xlink:href="#mfe22f61455" y="112.028628"/>
    </g>
   </g>
   <g id="line2d_41">
    <path clip-path="url(#pfef3835b47)" d="M 969.689832 182.700094 
L 975.446927 182.700094 
L 981.204023 182.700094 
L 986.961118 182.700094 
L 992.718213 182.700094 
L 998.475308 182.700094 
L 1004.232403 182.700094 
L 1009.989499 182.700094 
L 1015.746594 182.700094 
L 1021.503689 182.700094 
L 1027.260784 182.700094 
L 1033.01788 182.700094 
L 1038.774975 182.700094 
L 1044.53207 182.700094 
L 1050.289165 182.700094 
L 1056.04626 182.700094 
L 1061.803356 182.700094 
L 1067.560451 182.700094 
L 1073.317546 182.700094 
L 1079.074641 182.700094 
L 1084.831736 182.700094 
L 1090.588832 182.700094 
L 1096.345927 182.700094 
L 1102.103022 182.700094 
L 1107.860117 182.700094 
L 1113.617212 182.700094 
L 1119.374308 182.700094 
L 1125.131403 182.700094 
L 1130.888498 182.700094 
L 1136.645593 182.700094 
L 1142.402689 182.700094 
L 1148.159784 182.700094 
L 1153.916879 182.700094 
L 1159.673974 182.700094 
L 1165.431069 182.700094 
L 1171.188165 182.700094 
L 1176.94526 182.700094 
L 1182.702355 182.700094 
L 1188.45945 182.700094 
L 1194.216545 182.700094 
" style="fill:none;stroke:#bfbf00;stroke-dasharray:5.55,2.4;stroke-dashoffset:0;stroke-width:1.5;"/>
   </g>
   <g id="patch_3">
    <path d="M 172.62 367.8192 
L 172.62 49.5936 
" style="fill:none;stroke:#000000;stroke-linecap:square;stroke-linejoin:miter;stroke-width:0.8;"/>
   </g>
   <g id="patch_4">
    <path d="M 1242.864 367.8192 
L 1242.864 49.5936 
" style="fill:none;stroke:#000000;stroke-linecap:square;stroke-linejoin:miter;stroke-width:0.8;"/>
   </g>
   <g id="patch_5">
    <path d="M 172.62 367.8192 
L 1242.864 367.8192 
" style="fill:none;stroke:#000000;stroke-linecap:square;stroke-linejoin:miter;stroke-width:0.8;"/>
   </g>
   <g id="patch_6">
    <path d="M 172.62 49.5936 
L 1242.864 49.5936 
" style="fill:none;stroke:#000000;stroke-linecap:square;stroke-linejoin:miter;stroke-width:0.8;"/>
   </g>
   <g id="text_16">
    <!-- Q20 Rotation Error (+157.41 A) -->
    <defs>
     <path d="M 39.40625 66.21875 
Q 28.65625 66.21875 22.328125 58.203125 
Q 16.015625 50.203125 16.015625 36.375 
Q 16.015625 22.609375 22.328125 14.59375 
Q 28.65625 6.59375 39.40625 6.59375 
Q 50.140625 6.59375 56.421875 14.59375 
Q 62.703125 22.609375 62.703125 36.375 
Q 62.703125 50.203125 56.421875 58.203125 
Q 50.140625 66.21875 39.40625 66.21875 
z
M 53.21875 1.3125 
L 66.21875 -12.890625 
L 54.296875 -12.890625 
L 43.5 -1.21875 
Q 41.890625 -1.3125 41.03125 -1.359375 
Q 40.1875 -1.421875 39.40625 -1.421875 
Q 24.03125 -1.421875 14.8125 8.859375 
Q 5.609375 19.140625 5.609375 36.375 
Q 5.609375 53.65625 14.8125 63.9375 
Q 24.03125 74.21875 39.40625 74.21875 
Q 54.734375 74.21875 63.90625 63.9375 
Q 73.09375 53.65625 73.09375 36.375 
Q 73.09375 23.6875 67.984375 14.640625 
Q 62.890625 5.609375 53.21875 1.3125 
z
" id="DejaVuSans-81"/>
     <path d="M 9.421875 54.6875 
L 18.40625 54.6875 
L 18.40625 0 
L 9.421875 0 
z
M 9.421875 75.984375 
L 18.40625 75.984375 
L 18.40625 64.59375 
L 9.421875 64.59375 
z
" id="DejaVuSans-105"/>
     <path d="M 9.8125 72.90625 
L 55.90625 72.90625 
L 55.90625 64.59375 
L 19.671875 64.59375 
L 19.671875 43.015625 
L 54.390625 43.015625 
L 54.390625 34.71875 
L 19.671875 34.71875 
L 19.671875 8.296875 
L 56.78125 8.296875 
L 56.78125 0 
L 9.8125 0 
z
" id="DejaVuSans-69"/>
     <path d="M 31 75.875 
Q 24.46875 64.65625 21.28125 53.65625 
Q 18.109375 42.671875 18.109375 31.390625 
Q 18.109375 20.125 21.3125 9.0625 
Q 24.515625 -2 31 -13.1875 
L 23.1875 -13.1875 
Q 15.875 -1.703125 12.234375 9.375 
Q 8.59375 20.453125 8.59375 31.390625 
Q 8.59375 42.28125 12.203125 53.3125 
Q 15.828125 64.359375 23.1875 75.875 
z
" id="DejaVuSans-40"/>
     <path d="M 46 62.703125 
L 46 35.5 
L 73.1875 35.5 
L 73.1875 27.203125 
L 46 27.203125 
L 46 0 
L 37.796875 0 
L 37.796875 27.203125 
L 10.59375 27.203125 
L 10.59375 35.5 
L 37.796875 35.5 
L 37.796875 62.703125 
z
" id="DejaVuSans-43"/>
     <path d="M 37.796875 64.3125 
L 12.890625 25.390625 
L 37.796875 25.390625 
z
M 35.203125 72.90625 
L 47.609375 72.90625 
L 47.609375 25.390625 
L 58.015625 25.390625 
L 58.015625 17.1875 
L 47.609375 17.1875 
L 47.609375 0 
L 37.796875 0 
L 37.796875 17.1875 
L 4.890625 17.1875 
L 4.890625 26.703125 
z
" id="DejaVuSans-52"/>
     <path d="M 34.1875 63.1875 
L 20.796875 26.90625 
L 47.609375 26.90625 
z
M 28.609375 72.90625 
L 39.796875 72.90625 
L 67.578125 0 
L 57.328125 0 
L 50.6875 18.703125 
L 17.828125 18.703125 
L 11.1875 0 
L 0.78125 0 
z
" id="DejaVuSans-65"/>
     <path d="M 8.015625 75.875 
L 15.828125 75.875 
Q 23.140625 64.359375 26.78125 53.3125 
Q 30.421875 42.28125 30.421875 31.390625 
Q 30.421875 20.453125 26.78125 9.375 
Q 23.140625 -1.703125 15.828125 -13.1875 
L 8.015625 -13.1875 
Q 14.5 -2 17.703125 9.0625 
Q 20.90625 20.125 20.90625 31.390625 
Q 20.90625 42.671875 17.703125 53.65625 
Q 14.5 64.65625 8.015625 75.875 
z
" id="DejaVuSans-41"/>
    </defs>
    <g transform="translate(612.730125 43.5936)scale(0.12 -0.12)">
     <use xlink:href="#DejaVuSans-81"/>
     <use x="78.710938" xlink:href="#DejaVuSans-50"/>
     <use x="142.333984" xlink:href="#DejaVuSans-48"/>
     <use x="205.957031" xlink:href="#DejaVuSans-32"/>
     <use x="237.744141" xlink:href="#DejaVuSans-82"/>
     <use x="307.164062" xlink:href="#DejaVuSans-111"/>
     <use x="368.345703" xlink:href="#DejaVuSans-116"/>
     <use x="407.554688" xlink:href="#DejaVuSans-97"/>
     <use x="468.833984" xlink:href="#DejaVuSans-116"/>
     <use x="508.042969" xlink:href="#DejaVuSans-105"/>
     <use x="535.826172" xlink:href="#DejaVuSans-111"/>
     <use x="597.007812" xlink:href="#DejaVuSans-110"/>
     <use x="660.386719" xlink:href="#DejaVuSans-32"/>
     <use x="692.173828" xlink:href="#DejaVuSans-69"/>
     <use x="755.357422" xlink:href="#DejaVuSans-114"/>
     <use x="796.455078" xlink:href="#DejaVuSans-114"/>
     <use x="837.537109" xlink:href="#DejaVuSans-111"/>
     <use x="898.71875" xlink:href="#DejaVuSans-114"/>
     <use x="939.832031" xlink:href="#DejaVuSans-32"/>
     <use x="971.619141" xlink:href="#DejaVuSans-40"/>
     <use x="1010.632812" xlink:href="#DejaVuSans-43"/>
     <use x="1094.421875" xlink:href="#DejaVuSans-49"/>
     <use x="1158.044922" xlink:href="#DejaVuSans-53"/>
     <use x="1221.667969" xlink:href="#DejaVuSans-55"/>
     <use x="1285.291016" xlink:href="#DejaVuSans-46"/>
     <use x="1317.078125" xlink:href="#DejaVuSans-52"/>
     <use x="1380.701172" xlink:href="#DejaVuSans-49"/>
     <use x="1444.324219" xlink:href="#DejaVuSans-32"/>
     <use x="1476.111328" xlink:href="#DejaVuSans-65"/>
     <use x="1544.519531" xlink:href="#DejaVuSans-41"/>
    </g>
   </g>
   <g id="legend_1">
    <g id="patch_7">
     <path d="M 179.62 130.984225 
L 232.07 130.984225 
Q 234.07 130.984225 234.07 128.984225 
L 234.07 56.5936 
Q 234.07 54.5936 232.07 54.5936 
L 179.62 54.5936 
Q 177.62 54.5936 177.62 56.5936 
L 177.62 128.984225 
Q 177.62 130.984225 179.62 130.984225 
z
" style="fill:#ffffff;opacity:0.8;stroke:#cccccc;stroke-linejoin:miter;"/>
    </g>
    <g id="line2d_42"/>
    <g id="line2d_43">
     <g>
      <use style="fill:#0000ff;stroke:#0000ff;" x="191.62" xlink:href="#mc31895cfb4" y="62.692037"/>
     </g>
    </g>
    <g id="text_17">
     <!-- QFA -->
     <defs>
      <path d="M 9.8125 72.90625 
L 51.703125 72.90625 
L 51.703125 64.59375 
L 19.671875 64.59375 
L 19.671875 43.109375 
L 48.578125 43.109375 
L 48.578125 34.8125 
L 19.671875 34.8125 
L 19.671875 0 
L 9.8125 0 
z
" id="DejaVuSans-70"/>
     </defs>
     <g transform="translate(209.62 66.192037)scale(0.1 -0.1)">
      <use xlink:href="#DejaVuSans-81"/>
      <use x="78.710938" xlink:href="#DejaVuSans-70"/>
      <use x="136.089844" xlink:href="#DejaVuSans-65"/>
     </g>
    </g>
    <g id="line2d_44"/>
    <g id="line2d_45">
     <g>
      <use style="fill:#008000;stroke:#008000;" x="191.62" xlink:href="#m045e79d9e7" y="77.370162"/>
     </g>
    </g>
    <g id="text_18">
     <!-- Q1 -->
     <g transform="translate(209.62 80.870162)scale(0.1 -0.1)">
      <use xlink:href="#DejaVuSans-81"/>
      <use x="78.710938" xlink:href="#DejaVuSans-49"/>
     </g>
    </g>
    <g id="line2d_46"/>
    <g id="line2d_47">
     <g>
      <use style="fill:#ff0000;stroke:#ff0000;" x="191.62" xlink:href="#m779cd89f05" y="92.048287"/>
     </g>
    </g>
    <g id="text_19">
     <!-- Q2 -->
     <g transform="translate(209.62 95.548287)scale(0.1 -0.1)">
      <use xlink:href="#DejaVuSans-81"/>
      <use x="78.710938" xlink:href="#DejaVuSans-50"/>
     </g>
    </g>
    <g id="line2d_48"/>
    <g id="line2d_49">
     <g>
      <use style="stroke:#000000;" x="191.62" xlink:href="#me071e1c66e" y="106.726412"/>
     </g>
    </g>
    <g id="text_20">
     <!-- Q3 -->
     <defs>
      <path d="M 40.578125 39.3125 
Q 47.65625 37.796875 51.625 33 
Q 55.609375 28.21875 55.609375 21.1875 
Q 55.609375 10.40625 48.1875 4.484375 
Q 40.765625 -1.421875 27.09375 -1.421875 
Q 22.515625 -1.421875 17.65625 -0.515625 
Q 12.796875 0.390625 7.625 2.203125 
L 7.625 11.71875 
Q 11.71875 9.328125 16.59375 8.109375 
Q 21.484375 6.890625 26.8125 6.890625 
Q 36.078125 6.890625 40.9375 10.546875 
Q 45.796875 14.203125 45.796875 21.1875 
Q 45.796875 27.640625 41.28125 31.265625 
Q 36.765625 34.90625 28.71875 34.90625 
L 20.21875 34.90625 
L 20.21875 43.015625 
L 29.109375 43.015625 
Q 36.375 43.015625 40.234375 45.921875 
Q 44.09375 48.828125 44.09375 54.296875 
Q 44.09375 59.90625 40.109375 62.90625 
Q 36.140625 65.921875 28.71875 65.921875 
Q 24.65625 65.921875 20.015625 65.03125 
Q 15.375 64.15625 9.8125 62.3125 
L 9.8125 71.09375 
Q 15.4375 72.65625 20.34375 73.4375 
Q 25.25 74.21875 29.59375 74.21875 
Q 40.828125 74.21875 47.359375 69.109375 
Q 53.90625 64.015625 53.90625 55.328125 
Q 53.90625 49.265625 50.4375 45.09375 
Q 46.96875 40.921875 40.578125 39.3125 
z
" id="DejaVuSans-51"/>
     </defs>
     <g transform="translate(209.62 110.226412)scale(0.1 -0.1)">
      <use xlink:href="#DejaVuSans-81"/>
      <use x="78.710938" xlink:href="#DejaVuSans-51"/>
     </g>
    </g>
    <g id="line2d_50"/>
    <g id="line2d_51">
     <g>
      <use style="fill:#bfbf00;stroke:#bfbf00;" x="191.62" xlink:href="#mfe22f61455" y="121.404538"/>
     </g>
    </g>
    <g id="text_21">
     <!-- Q4 -->
     <g transform="translate(209.62 124.904538)scale(0.1 -0.1)">
      <use xlink:href="#DejaVuSans-81"/>
      <use x="78.710938" xlink:href="#DejaVuSans-52"/>
     </g>
    </g>
   </g>
  </g>
 </g>
 <defs>
  <clipPath id="pfef3835b47">
   <rect height="318.2256" width="1070.244" x="172.62" y="49.5936"/>
  </clipPath>
 </defs>
</svg>
