<?xml version="1.0" encoding="utf-8" standalone="no"?>
<!DOCTYPE svg PUBLIC "-//W3C//DTD SVG 1.1//EN"
  "http://www.w3.org/Graphics/SVG/1.1/DTD/svg11.dtd">
<!-- Created with matplotlib (https://matplotlib.org/) -->
<svg height="413.28pt" version="1.1" viewBox="0 0 1380.96 413.28" width="1380.96pt" xmlns="http://www.w3.org/2000/svg" xmlns:xlink="http://www.w3.org/1999/xlink">
 <defs>
  <style type="text/css">
*{stroke-linecap:butt;stroke-linejoin:round;}
  </style>
 </defs>
 <g id="figure_1">
  <g id="patch_1">
   <path d="M 0 413.28 
L 1380.96 413.28 
L 1380.96 0 
L 0 0 
z
" style="fill:#ffffff;"/>
  </g>
  <g id="axes_1">
   <g id="patch_2">
    <path d="M 172.62 367.8192 
L 1242.864 367.8192 
L 1242.864 49.5936 
L 172.62 49.5936 
z
" style="fill:#ffffff;"/>
   </g>
   <g id="matplotlib.axis_1">
    <g id="xtick_1">
     <g id="line2d_1">
      <path clip-path="url(#p7086005a10)" d="M 221.267455 367.8192 
L 221.267455 49.5936 
" style="fill:none;stroke:#b0b0b0;stroke-linecap:square;stroke-width:0.8;"/>
     </g>
     <g id="line2d_2">
      <defs>
       <path d="M 0 0 
L 0 3.5 
" id="mc6ceec6206" style="stroke:#000000;stroke-width:0.8;"/>
      </defs>
      <g>
       <use style="stroke:#000000;stroke-width:0.8;" x="221.267455" xlink:href="#mc6ceec6206" y="367.8192"/>
      </g>
     </g>
     <g id="text_1">
      <!-- 0 -->
      <defs>
       <path d="M 31.78125 66.40625 
Q 24.171875 66.40625 20.328125 58.90625 
Q 16.5 51.421875 16.5 36.375 
Q 16.5 21.390625 20.328125 13.890625 
Q 24.171875 6.390625 31.78125 6.390625 
Q 39.453125 6.390625 43.28125 13.890625 
Q 47.125 21.390625 47.125 36.375 
Q 47.125 51.421875 43.28125 58.90625 
Q 39.453125 66.40625 31.78125 66.40625 
z
M 31.78125 74.21875 
Q 44.046875 74.21875 50.515625 64.515625 
Q 56.984375 54.828125 56.984375 36.375 
Q 56.984375 17.96875 50.515625 8.265625 
Q 44.046875 -1.421875 31.78125 -1.421875 
Q 19.53125 -1.421875 13.0625 8.265625 
Q 6.59375 17.96875 6.59375 36.375 
Q 6.59375 54.828125 13.0625 64.515625 
Q 19.53125 74.21875 31.78125 74.21875 
z
" id="DejaVuSans-48"/>
      </defs>
      <g transform="translate(218.086205 382.417638)scale(0.1 -0.1)">
       <use xlink:href="#DejaVuSans-48"/>
      </g>
     </g>
    </g>
    <g id="xtick_2">
     <g id="line2d_3">
      <path clip-path="url(#p7086005a10)" d="M 395.631091 367.8192 
L 395.631091 49.5936 
" style="fill:none;stroke:#b0b0b0;stroke-linecap:square;stroke-width:0.8;"/>
     </g>
     <g id="line2d_4">
      <g>
       <use style="stroke:#000000;stroke-width:0.8;" x="395.631091" xlink:href="#mc6ceec6206" y="367.8192"/>
      </g>
     </g>
     <g id="text_2">
      <!-- 50 -->
      <defs>
       <path d="M 10.796875 72.90625 
L 49.515625 72.90625 
L 49.515625 64.59375 
L 19.828125 64.59375 
L 19.828125 46.734375 
Q 21.96875 47.46875 24.109375 47.828125 
Q 26.265625 48.1875 28.421875 48.1875 
Q 40.625 48.1875 47.75 41.5 
Q 54.890625 34.8125 54.890625 23.390625 
Q 54.890625 11.625 47.5625 5.09375 
Q 40.234375 -1.421875 26.90625 -1.421875 
Q 22.3125 -1.421875 17.546875 -0.640625 
Q 12.796875 0.140625 7.71875 1.703125 
L 7.71875 11.625 
Q 12.109375 9.234375 16.796875 8.0625 
Q 21.484375 6.890625 26.703125 6.890625 
Q 35.15625 6.890625 40.078125 11.328125 
Q 45.015625 15.765625 45.015625 23.390625 
Q 45.015625 31 40.078125 35.4375 
Q 35.15625 39.890625 26.703125 39.890625 
Q 22.75 39.890625 18.8125 39.015625 
Q 14.890625 38.140625 10.796875 36.28125 
z
" id="DejaVuSans-53"/>
      </defs>
      <g transform="translate(389.268591 382.417638)scale(0.1 -0.1)">
       <use xlink:href="#DejaVuSans-53"/>
       <use x="63.623047" xlink:href="#DejaVuSans-48"/>
      </g>
     </g>
    </g>
    <g id="xtick_3">
     <g id="line2d_5">
      <path clip-path="url(#p7086005a10)" d="M 569.994727 367.8192 
L 569.994727 49.5936 
" style="fill:none;stroke:#b0b0b0;stroke-linecap:square;stroke-width:0.8;"/>
     </g>
     <g id="line2d_6">
      <g>
       <use style="stroke:#000000;stroke-width:0.8;" x="569.994727" xlink:href="#mc6ceec6206" y="367.8192"/>
      </g>
     </g>
     <g id="text_3">
      <!-- 100 -->
      <defs>
       <path d="M 12.40625 8.296875 
L 28.515625 8.296875 
L 28.515625 63.921875 
L 10.984375 60.40625 
L 10.984375 69.390625 
L 28.421875 72.90625 
L 38.28125 72.90625 
L 38.28125 8.296875 
L 54.390625 8.296875 
L 54.390625 0 
L 12.40625 0 
z
" id="DejaVuSans-49"/>
      </defs>
      <g transform="translate(560.450977 382.417638)scale(0.1 -0.1)">
       <use xlink:href="#DejaVuSans-49"/>
       <use x="63.623047" xlink:href="#DejaVuSans-48"/>
       <use x="127.246094" xlink:href="#DejaVuSans-48"/>
      </g>
     </g>
    </g>
    <g id="xtick_4">
     <g id="line2d_7">
      <path clip-path="url(#p7086005a10)" d="M 744.358364 367.8192 
L 744.358364 49.5936 
" style="fill:none;stroke:#b0b0b0;stroke-linecap:square;stroke-width:0.8;"/>
     </g>
     <g id="line2d_8">
      <g>
       <use style="stroke:#000000;stroke-width:0.8;" x="744.358364" xlink:href="#mc6ceec6206" y="367.8192"/>
      </g>
     </g>
     <g id="text_4">
      <!-- 150 -->
      <g transform="translate(734.814614 382.417638)scale(0.1 -0.1)">
       <use xlink:href="#DejaVuSans-49"/>
       <use x="63.623047" xlink:href="#DejaVuSans-53"/>
       <use x="127.246094" xlink:href="#DejaVuSans-48"/>
      </g>
     </g>
    </g>
    <g id="xtick_5">
     <g id="line2d_9">
      <path clip-path="url(#p7086005a10)" d="M 918.722 367.8192 
L 918.722 49.5936 
" style="fill:none;stroke:#b0b0b0;stroke-linecap:square;stroke-width:0.8;"/>
     </g>
     <g id="line2d_10">
      <g>
       <use style="stroke:#000000;stroke-width:0.8;" x="918.722" xlink:href="#mc6ceec6206" y="367.8192"/>
      </g>
     </g>
     <g id="text_5">
      <!-- 200 -->
      <defs>
       <path d="M 19.1875 8.296875 
L 53.609375 8.296875 
L 53.609375 0 
L 7.328125 0 
L 7.328125 8.296875 
Q 12.9375 14.109375 22.625 23.890625 
Q 32.328125 33.6875 34.8125 36.53125 
Q 39.546875 41.84375 41.421875 45.53125 
Q 43.3125 49.21875 43.3125 52.78125 
Q 43.3125 58.59375 39.234375 62.25 
Q 35.15625 65.921875 28.609375 65.921875 
Q 23.96875 65.921875 18.8125 64.3125 
Q 13.671875 62.703125 7.8125 59.421875 
L 7.8125 69.390625 
Q 13.765625 71.78125 18.9375 73 
Q 24.125 74.21875 28.421875 74.21875 
Q 39.75 74.21875 46.484375 68.546875 
Q 53.21875 62.890625 53.21875 53.421875 
Q 53.21875 48.921875 51.53125 44.890625 
Q 49.859375 40.875 45.40625 35.40625 
Q 44.1875 33.984375 37.640625 27.21875 
Q 31.109375 20.453125 19.1875 8.296875 
z
" id="DejaVuSans-50"/>
      </defs>
      <g transform="translate(909.17825 382.417638)scale(0.1 -0.1)">
       <use xlink:href="#DejaVuSans-50"/>
       <use x="63.623047" xlink:href="#DejaVuSans-48"/>
       <use x="127.246094" xlink:href="#DejaVuSans-48"/>
      </g>
     </g>
    </g>
    <g id="xtick_6">
     <g id="line2d_11">
      <path clip-path="url(#p7086005a10)" d="M 1093.085636 367.8192 
L 1093.085636 49.5936 
" style="fill:none;stroke:#b0b0b0;stroke-linecap:square;stroke-width:0.8;"/>
     </g>
     <g id="line2d_12">
      <g>
       <use style="stroke:#000000;stroke-width:0.8;" x="1093.085636" xlink:href="#mc6ceec6206" y="367.8192"/>
      </g>
     </g>
     <g id="text_6">
      <!-- 250 -->
      <g transform="translate(1083.541886 382.417638)scale(0.1 -0.1)">
       <use xlink:href="#DejaVuSans-50"/>
       <use x="63.623047" xlink:href="#DejaVuSans-53"/>
       <use x="127.246094" xlink:href="#DejaVuSans-48"/>
      </g>
     </g>
    </g>
    <g id="text_7">
     <!-- Magnet Index -->
     <defs>
      <path d="M 9.8125 72.90625 
L 24.515625 72.90625 
L 43.109375 23.296875 
L 61.8125 72.90625 
L 76.515625 72.90625 
L 76.515625 0 
L 66.890625 0 
L 66.890625 64.015625 
L 48.09375 14.015625 
L 38.1875 14.015625 
L 19.390625 64.015625 
L 19.390625 0 
L 9.8125 0 
z
" id="DejaVuSans-77"/>
      <path d="M 34.28125 27.484375 
Q 23.390625 27.484375 19.1875 25 
Q 14.984375 22.515625 14.984375 16.5 
Q 14.984375 11.71875 18.140625 8.90625 
Q 21.296875 6.109375 26.703125 6.109375 
Q 34.1875 6.109375 38.703125 11.40625 
Q 43.21875 16.703125 43.21875 25.484375 
L 43.21875 27.484375 
z
M 52.203125 31.203125 
L 52.203125 0 
L 43.21875 0 
L 43.21875 8.296875 
Q 40.140625 3.328125 35.546875 0.953125 
Q 30.953125 -1.421875 24.3125 -1.421875 
Q 15.921875 -1.421875 10.953125 3.296875 
Q 6 8.015625 6 15.921875 
Q 6 25.140625 12.171875 29.828125 
Q 18.359375 34.515625 30.609375 34.515625 
L 43.21875 34.515625 
L 43.21875 35.40625 
Q 43.21875 41.609375 39.140625 45 
Q 35.0625 48.390625 27.6875 48.390625 
Q 23 48.390625 18.546875 47.265625 
Q 14.109375 46.140625 10.015625 43.890625 
L 10.015625 52.203125 
Q 14.9375 54.109375 19.578125 55.046875 
Q 24.21875 56 28.609375 56 
Q 40.484375 56 46.34375 49.84375 
Q 52.203125 43.703125 52.203125 31.203125 
z
" id="DejaVuSans-97"/>
      <path d="M 45.40625 27.984375 
Q 45.40625 37.75 41.375 43.109375 
Q 37.359375 48.484375 30.078125 48.484375 
Q 22.859375 48.484375 18.828125 43.109375 
Q 14.796875 37.75 14.796875 27.984375 
Q 14.796875 18.265625 18.828125 12.890625 
Q 22.859375 7.515625 30.078125 7.515625 
Q 37.359375 7.515625 41.375 12.890625 
Q 45.40625 18.265625 45.40625 27.984375 
z
M 54.390625 6.78125 
Q 54.390625 -7.171875 48.1875 -13.984375 
Q 42 -20.796875 29.203125 -20.796875 
Q 24.46875 -20.796875 20.265625 -20.09375 
Q 16.0625 -19.390625 12.109375 -17.921875 
L 12.109375 -9.1875 
Q 16.0625 -11.328125 19.921875 -12.34375 
Q 23.78125 -13.375 27.78125 -13.375 
Q 36.625 -13.375 41.015625 -8.765625 
Q 45.40625 -4.15625 45.40625 5.171875 
L 45.40625 9.625 
Q 42.625 4.78125 38.28125 2.390625 
Q 33.9375 0 27.875 0 
Q 17.828125 0 11.671875 7.65625 
Q 5.515625 15.328125 5.515625 27.984375 
Q 5.515625 40.671875 11.671875 48.328125 
Q 17.828125 56 27.875 56 
Q 33.9375 56 38.28125 53.609375 
Q 42.625 51.21875 45.40625 46.390625 
L 45.40625 54.6875 
L 54.390625 54.6875 
z
" id="DejaVuSans-103"/>
      <path d="M 54.890625 33.015625 
L 54.890625 0 
L 45.90625 0 
L 45.90625 32.71875 
Q 45.90625 40.484375 42.875 44.328125 
Q 39.84375 48.1875 33.796875 48.1875 
Q 26.515625 48.1875 22.3125 43.546875 
Q 18.109375 38.921875 18.109375 30.90625 
L 18.109375 0 
L 9.078125 0 
L 9.078125 54.6875 
L 18.109375 54.6875 
L 18.109375 46.1875 
Q 21.34375 51.125 25.703125 53.5625 
Q 30.078125 56 35.796875 56 
Q 45.21875 56 50.046875 50.171875 
Q 54.890625 44.34375 54.890625 33.015625 
z
" id="DejaVuSans-110"/>
      <path d="M 56.203125 29.59375 
L 56.203125 25.203125 
L 14.890625 25.203125 
Q 15.484375 15.921875 20.484375 11.0625 
Q 25.484375 6.203125 34.421875 6.203125 
Q 39.59375 6.203125 44.453125 7.46875 
Q 49.3125 8.734375 54.109375 11.28125 
L 54.109375 2.78125 
Q 49.265625 0.734375 44.1875 -0.34375 
Q 39.109375 -1.421875 33.890625 -1.421875 
Q 20.796875 -1.421875 13.15625 6.1875 
Q 5.515625 13.8125 5.515625 26.8125 
Q 5.515625 40.234375 12.765625 48.109375 
Q 20.015625 56 32.328125 56 
Q 43.359375 56 49.78125 48.890625 
Q 56.203125 41.796875 56.203125 29.59375 
z
M 47.21875 32.234375 
Q 47.125 39.59375 43.09375 43.984375 
Q 39.0625 48.390625 32.421875 48.390625 
Q 24.90625 48.390625 20.390625 44.140625 
Q 15.875 39.890625 15.1875 32.171875 
z
" id="DejaVuSans-101"/>
      <path d="M 18.3125 70.21875 
L 18.3125 54.6875 
L 36.8125 54.6875 
L 36.8125 47.703125 
L 18.3125 47.703125 
L 18.3125 18.015625 
Q 18.3125 11.328125 20.140625 9.421875 
Q 21.96875 7.515625 27.59375 7.515625 
L 36.8125 7.515625 
L 36.8125 0 
L 27.59375 0 
Q 17.1875 0 13.234375 3.875 
Q 9.28125 7.765625 9.28125 18.015625 
L 9.28125 47.703125 
L 2.6875 47.703125 
L 2.6875 54.6875 
L 9.28125 54.6875 
L 9.28125 70.21875 
z
" id="DejaVuSans-116"/>
      <path id="DejaVuSans-32"/>
      <path d="M 9.8125 72.90625 
L 19.671875 72.90625 
L 19.671875 0 
L 9.8125 0 
z
" id="DejaVuSans-73"/>
      <path d="M 45.40625 46.390625 
L 45.40625 75.984375 
L 54.390625 75.984375 
L 54.390625 0 
L 45.40625 0 
L 45.40625 8.203125 
Q 42.578125 3.328125 38.25 0.953125 
Q 33.9375 -1.421875 27.875 -1.421875 
Q 17.96875 -1.421875 11.734375 6.484375 
Q 5.515625 14.40625 5.515625 27.296875 
Q 5.515625 40.1875 11.734375 48.09375 
Q 17.96875 56 27.875 56 
Q 33.9375 56 38.25 53.625 
Q 42.578125 51.265625 45.40625 46.390625 
z
M 14.796875 27.296875 
Q 14.796875 17.390625 18.875 11.75 
Q 22.953125 6.109375 30.078125 6.109375 
Q 37.203125 6.109375 41.296875 11.75 
Q 45.40625 17.390625 45.40625 27.296875 
Q 45.40625 37.203125 41.296875 42.84375 
Q 37.203125 48.484375 30.078125 48.484375 
Q 22.953125 48.484375 18.875 42.84375 
Q 14.796875 37.203125 14.796875 27.296875 
z
" id="DejaVuSans-100"/>
      <path d="M 54.890625 54.6875 
L 35.109375 28.078125 
L 55.90625 0 
L 45.3125 0 
L 29.390625 21.484375 
L 13.484375 0 
L 2.875 0 
L 24.125 28.609375 
L 4.6875 54.6875 
L 15.28125 54.6875 
L 29.78125 35.203125 
L 44.28125 54.6875 
z
" id="DejaVuSans-120"/>
     </defs>
     <g transform="translate(673.542 396.095763)scale(0.1 -0.1)">
      <use xlink:href="#DejaVuSans-77"/>
      <use x="86.279297" xlink:href="#DejaVuSans-97"/>
      <use x="147.558594" xlink:href="#DejaVuSans-103"/>
      <use x="211.035156" xlink:href="#DejaVuSans-110"/>
      <use x="274.414062" xlink:href="#DejaVuSans-101"/>
      <use x="335.9375" xlink:href="#DejaVuSans-116"/>
      <use x="375.146484" xlink:href="#DejaVuSans-32"/>
      <use x="406.933594" xlink:href="#DejaVuSans-73"/>
      <use x="436.425781" xlink:href="#DejaVuSans-110"/>
      <use x="499.804688" xlink:href="#DejaVuSans-100"/>
      <use x="563.28125" xlink:href="#DejaVuSans-101"/>
      <use x="624.789062" xlink:href="#DejaVuSans-120"/>
     </g>
    </g>
   </g>
   <g id="matplotlib.axis_2">
    <g id="ytick_1">
     <g id="line2d_13">
      <path clip-path="url(#p7086005a10)" d="M 172.62 326.668759 
L 1242.864 326.668759 
" style="fill:none;stroke:#b0b0b0;stroke-linecap:square;stroke-width:0.8;"/>
     </g>
     <g id="line2d_14">
      <defs>
       <path d="M 0 0 
L -3.5 0 
" id="m270931ccb2" style="stroke:#000000;stroke-width:0.8;"/>
      </defs>
      <g>
       <use style="stroke:#000000;stroke-width:0.8;" x="172.62" xlink:href="#m270931ccb2" y="326.668759"/>
      </g>
     </g>
     <g id="text_8">
      <!-- −0.10 -->
      <defs>
       <path d="M 10.59375 35.5 
L 73.1875 35.5 
L 73.1875 27.203125 
L 10.59375 27.203125 
z
" id="DejaVuSans-8722"/>
       <path d="M 10.6875 12.40625 
L 21 12.40625 
L 21 0 
L 10.6875 0 
z
" id="DejaVuSans-46"/>
      </defs>
      <g transform="translate(134.974688 330.467977)scale(0.1 -0.1)">
       <use xlink:href="#DejaVuSans-8722"/>
       <use x="83.789062" xlink:href="#DejaVuSans-48"/>
       <use x="147.412109" xlink:href="#DejaVuSans-46"/>
       <use x="179.199219" xlink:href="#DejaVuSans-49"/>
       <use x="242.822266" xlink:href="#DejaVuSans-48"/>
      </g>
     </g>
    </g>
    <g id="ytick_2">
     <g id="line2d_15">
      <path clip-path="url(#p7086005a10)" d="M 172.62 278.85475 
L 1242.864 278.85475 
" style="fill:none;stroke:#b0b0b0;stroke-linecap:square;stroke-width:0.8;"/>
     </g>
     <g id="line2d_16">
      <g>
       <use style="stroke:#000000;stroke-width:0.8;" x="172.62" xlink:href="#m270931ccb2" y="278.85475"/>
      </g>
     </g>
     <g id="text_9">
      <!-- −0.05 -->
      <g transform="translate(134.974688 282.653969)scale(0.1 -0.1)">
       <use xlink:href="#DejaVuSans-8722"/>
       <use x="83.789062" xlink:href="#DejaVuSans-48"/>
       <use x="147.412109" xlink:href="#DejaVuSans-46"/>
       <use x="179.199219" xlink:href="#DejaVuSans-48"/>
       <use x="242.822266" xlink:href="#DejaVuSans-53"/>
      </g>
     </g>
    </g>
    <g id="ytick_3">
     <g id="line2d_17">
      <path clip-path="url(#p7086005a10)" d="M 172.62 231.040742 
L 1242.864 231.040742 
" style="fill:none;stroke:#b0b0b0;stroke-linecap:square;stroke-width:0.8;"/>
     </g>
     <g id="line2d_18">
      <g>
       <use style="stroke:#000000;stroke-width:0.8;" x="172.62" xlink:href="#m270931ccb2" y="231.040742"/>
      </g>
     </g>
     <g id="text_10">
      <!-- 0.00 -->
      <g transform="translate(143.354375 234.839961)scale(0.1 -0.1)">
       <use xlink:href="#DejaVuSans-48"/>
       <use x="63.623047" xlink:href="#DejaVuSans-46"/>
       <use x="95.410156" xlink:href="#DejaVuSans-48"/>
       <use x="159.033203" xlink:href="#DejaVuSans-48"/>
      </g>
     </g>
    </g>
    <g id="ytick_4">
     <g id="line2d_19">
      <path clip-path="url(#p7086005a10)" d="M 172.62 183.226734 
L 1242.864 183.226734 
" style="fill:none;stroke:#b0b0b0;stroke-linecap:square;stroke-width:0.8;"/>
     </g>
     <g id="line2d_20">
      <g>
       <use style="stroke:#000000;stroke-width:0.8;" x="172.62" xlink:href="#m270931ccb2" y="183.226734"/>
      </g>
     </g>
     <g id="text_11">
      <!-- 0.05 -->
      <g transform="translate(143.354375 187.025952)scale(0.1 -0.1)">
       <use xlink:href="#DejaVuSans-48"/>
       <use x="63.623047" xlink:href="#DejaVuSans-46"/>
       <use x="95.410156" xlink:href="#DejaVuSans-48"/>
       <use x="159.033203" xlink:href="#DejaVuSans-53"/>
      </g>
     </g>
    </g>
    <g id="ytick_5">
     <g id="line2d_21">
      <path clip-path="url(#p7086005a10)" d="M 172.62 135.412725 
L 1242.864 135.412725 
" style="fill:none;stroke:#b0b0b0;stroke-linecap:square;stroke-width:0.8;"/>
     </g>
     <g id="line2d_22">
      <g>
       <use style="stroke:#000000;stroke-width:0.8;" x="172.62" xlink:href="#m270931ccb2" y="135.412725"/>
      </g>
     </g>
     <g id="text_12">
      <!-- 0.10 -->
      <g transform="translate(143.354375 139.211944)scale(0.1 -0.1)">
       <use xlink:href="#DejaVuSans-48"/>
       <use x="63.623047" xlink:href="#DejaVuSans-46"/>
       <use x="95.410156" xlink:href="#DejaVuSans-49"/>
       <use x="159.033203" xlink:href="#DejaVuSans-48"/>
      </g>
     </g>
    </g>
    <g id="ytick_6">
     <g id="line2d_23">
      <path clip-path="url(#p7086005a10)" d="M 172.62 87.598717 
L 1242.864 87.598717 
" style="fill:none;stroke:#b0b0b0;stroke-linecap:square;stroke-width:0.8;"/>
     </g>
     <g id="line2d_24">
      <g>
       <use style="stroke:#000000;stroke-width:0.8;" x="172.62" xlink:href="#m270931ccb2" y="87.598717"/>
      </g>
     </g>
     <g id="text_13">
      <!-- 0.15 -->
      <g transform="translate(143.354375 91.397936)scale(0.1 -0.1)">
       <use xlink:href="#DejaVuSans-48"/>
       <use x="63.623047" xlink:href="#DejaVuSans-46"/>
       <use x="95.410156" xlink:href="#DejaVuSans-49"/>
       <use x="159.033203" xlink:href="#DejaVuSans-53"/>
      </g>
     </g>
    </g>
    <g id="text_14">
     <!-- Relative Error [%] -->
     <defs>
      <path d="M 44.390625 34.1875 
Q 47.5625 33.109375 50.5625 29.59375 
Q 53.5625 26.078125 56.59375 19.921875 
L 66.609375 0 
L 56 0 
L 46.6875 18.703125 
Q 43.0625 26.03125 39.671875 28.421875 
Q 36.28125 30.8125 30.421875 30.8125 
L 19.671875 30.8125 
L 19.671875 0 
L 9.8125 0 
L 9.8125 72.90625 
L 32.078125 72.90625 
Q 44.578125 72.90625 50.734375 67.671875 
Q 56.890625 62.453125 56.890625 51.90625 
Q 56.890625 45.015625 53.6875 40.46875 
Q 50.484375 35.9375 44.390625 34.1875 
z
M 19.671875 64.796875 
L 19.671875 38.921875 
L 32.078125 38.921875 
Q 39.203125 38.921875 42.84375 42.21875 
Q 46.484375 45.515625 46.484375 51.90625 
Q 46.484375 58.296875 42.84375 61.546875 
Q 39.203125 64.796875 32.078125 64.796875 
z
" id="DejaVuSans-82"/>
      <path d="M 9.421875 75.984375 
L 18.40625 75.984375 
L 18.40625 0 
L 9.421875 0 
z
" id="DejaVuSans-108"/>
      <path d="M 9.421875 54.6875 
L 18.40625 54.6875 
L 18.40625 0 
L 9.421875 0 
z
M 9.421875 75.984375 
L 18.40625 75.984375 
L 18.40625 64.59375 
L 9.421875 64.59375 
z
" id="DejaVuSans-105"/>
      <path d="M 2.984375 54.6875 
L 12.5 54.6875 
L 29.59375 8.796875 
L 46.6875 54.6875 
L 56.203125 54.6875 
L 35.6875 0 
L 23.484375 0 
z
" id="DejaVuSans-118"/>
      <path d="M 9.8125 72.90625 
L 55.90625 72.90625 
L 55.90625 64.59375 
L 19.671875 64.59375 
L 19.671875 43.015625 
L 54.390625 43.015625 
L 54.390625 34.71875 
L 19.671875 34.71875 
L 19.671875 8.296875 
L 56.78125 8.296875 
L 56.78125 0 
L 9.8125 0 
z
" id="DejaVuSans-69"/>
      <path d="M 41.109375 46.296875 
Q 39.59375 47.171875 37.8125 47.578125 
Q 36.03125 48 33.890625 48 
Q 26.265625 48 22.1875 43.046875 
Q 18.109375 38.09375 18.109375 28.8125 
L 18.109375 0 
L 9.078125 0 
L 9.078125 54.6875 
L 18.109375 54.6875 
L 18.109375 46.1875 
Q 20.953125 51.171875 25.484375 53.578125 
Q 30.03125 56 36.53125 56 
Q 37.453125 56 38.578125 55.875 
Q 39.703125 55.765625 41.0625 55.515625 
z
" id="DejaVuSans-114"/>
      <path d="M 30.609375 48.390625 
Q 23.390625 48.390625 19.1875 42.75 
Q 14.984375 37.109375 14.984375 27.296875 
Q 14.984375 17.484375 19.15625 11.84375 
Q 23.34375 6.203125 30.609375 6.203125 
Q 37.796875 6.203125 41.984375 11.859375 
Q 46.1875 17.53125 46.1875 27.296875 
Q 46.1875 37.015625 41.984375 42.703125 
Q 37.796875 48.390625 30.609375 48.390625 
z
M 30.609375 56 
Q 42.328125 56 49.015625 48.375 
Q 55.71875 40.765625 55.71875 27.296875 
Q 55.71875 13.875 49.015625 6.21875 
Q 42.328125 -1.421875 30.609375 -1.421875 
Q 18.84375 -1.421875 12.171875 6.21875 
Q 5.515625 13.875 5.515625 27.296875 
Q 5.515625 40.765625 12.171875 48.375 
Q 18.84375 56 30.609375 56 
z
" id="DejaVuSans-111"/>
      <path d="M 8.59375 75.984375 
L 29.296875 75.984375 
L 29.296875 69 
L 17.578125 69 
L 17.578125 -6.203125 
L 29.296875 -6.203125 
L 29.296875 -13.1875 
L 8.59375 -13.1875 
z
" id="DejaVuSans-91"/>
      <path d="M 72.703125 32.078125 
Q 68.453125 32.078125 66.03125 28.46875 
Q 63.625 24.859375 63.625 18.40625 
Q 63.625 12.0625 66.03125 8.421875 
Q 68.453125 4.78125 72.703125 4.78125 
Q 76.859375 4.78125 79.265625 8.421875 
Q 81.6875 12.0625 81.6875 18.40625 
Q 81.6875 24.8125 79.265625 28.4375 
Q 76.859375 32.078125 72.703125 32.078125 
z
M 72.703125 38.28125 
Q 80.421875 38.28125 84.953125 32.90625 
Q 89.5 27.546875 89.5 18.40625 
Q 89.5 9.28125 84.9375 3.921875 
Q 80.375 -1.421875 72.703125 -1.421875 
Q 64.890625 -1.421875 60.34375 3.921875 
Q 55.8125 9.28125 55.8125 18.40625 
Q 55.8125 27.59375 60.375 32.9375 
Q 64.9375 38.28125 72.703125 38.28125 
z
M 22.3125 68.015625 
Q 18.109375 68.015625 15.6875 64.375 
Q 13.28125 60.75 13.28125 54.390625 
Q 13.28125 47.953125 15.671875 44.328125 
Q 18.0625 40.71875 22.3125 40.71875 
Q 26.5625 40.71875 28.96875 44.328125 
Q 31.390625 47.953125 31.390625 54.390625 
Q 31.390625 60.6875 28.953125 64.34375 
Q 26.515625 68.015625 22.3125 68.015625 
z
M 66.40625 74.21875 
L 74.21875 74.21875 
L 28.609375 -1.421875 
L 20.796875 -1.421875 
z
M 22.3125 74.21875 
Q 30.03125 74.21875 34.609375 68.875 
Q 39.203125 63.53125 39.203125 54.390625 
Q 39.203125 45.171875 34.640625 39.84375 
Q 30.078125 34.515625 22.3125 34.515625 
Q 14.546875 34.515625 10.03125 39.859375 
Q 5.515625 45.21875 5.515625 54.390625 
Q 5.515625 63.484375 10.046875 68.84375 
Q 14.59375 74.21875 22.3125 74.21875 
z
" id="DejaVuSans-37"/>
      <path d="M 30.421875 75.984375 
L 30.421875 -13.1875 
L 9.71875 -13.1875 
L 9.71875 -6.203125 
L 21.390625 -6.203125 
L 21.390625 69 
L 9.71875 69 
L 9.71875 75.984375 
z
" id="DejaVuSans-93"/>
     </defs>
     <g transform="translate(128.895 253.305619)rotate(-90)scale(0.1 -0.1)">
      <use xlink:href="#DejaVuSans-82"/>
      <use x="69.419922" xlink:href="#DejaVuSans-101"/>
      <use x="130.943359" xlink:href="#DejaVuSans-108"/>
      <use x="158.726562" xlink:href="#DejaVuSans-97"/>
      <use x="220.005859" xlink:href="#DejaVuSans-116"/>
      <use x="259.214844" xlink:href="#DejaVuSans-105"/>
      <use x="286.998047" xlink:href="#DejaVuSans-118"/>
      <use x="346.177734" xlink:href="#DejaVuSans-101"/>
      <use x="407.701172" xlink:href="#DejaVuSans-32"/>
      <use x="439.488281" xlink:href="#DejaVuSans-69"/>
      <use x="502.671875" xlink:href="#DejaVuSans-114"/>
      <use x="543.769531" xlink:href="#DejaVuSans-114"/>
      <use x="584.851562" xlink:href="#DejaVuSans-111"/>
      <use x="646.033203" xlink:href="#DejaVuSans-114"/>
      <use x="687.146484" xlink:href="#DejaVuSans-32"/>
      <use x="718.933594" xlink:href="#DejaVuSans-91"/>
      <use x="757.947266" xlink:href="#DejaVuSans-37"/>
      <use x="852.966797" xlink:href="#DejaVuSans-93"/>
     </g>
    </g>
   </g>
   <g id="line2d_25">
    <path clip-path="url(#p7086005a10)" d="M 221.267455 254.867794 
L 224.754727 253.638065 
L 228.242 236.973122 
L 231.729273 202.243891 
L 235.216545 221.537908 
L 238.703818 239.008535 
L 242.191091 254.782985 
L 245.678364 260.677201 
L 249.165636 196.434483 
L 252.652909 190.243436 
" style="fill:none;stroke:#0000ff;stroke-linecap:square;stroke-width:1.5;"/>
   </g>
   <g id="line2d_26">
    <defs>
     <path d="M 0 3 
C 0.795609 3 1.55874 2.683901 2.12132 2.12132 
C 2.683901 1.55874 3 0.795609 3 0 
C 3 -0.795609 2.683901 -1.55874 2.12132 -2.12132 
C 1.55874 -2.683901 0.795609 -3 0 -3 
C -0.795609 -3 -1.55874 -2.683901 -2.12132 -2.12132 
C -2.683901 -1.55874 -3 -0.795609 -3 0 
C -3 0.795609 -2.683901 1.55874 -2.12132 2.12132 
C -1.55874 2.683901 -0.795609 3 0 3 
z
" id="mdd1d8472cd" style="stroke:#0000ff;"/>
    </defs>
    <g clip-path="url(#p7086005a10)">
     <use style="fill:#0000ff;stroke:#0000ff;" x="221.267455" xlink:href="#mdd1d8472cd" y="254.867794"/>
     <use style="fill:#0000ff;stroke:#0000ff;" x="224.754727" xlink:href="#mdd1d8472cd" y="253.638065"/>
     <use style="fill:#0000ff;stroke:#0000ff;" x="228.242" xlink:href="#mdd1d8472cd" y="236.973122"/>
     <use style="fill:#0000ff;stroke:#0000ff;" x="231.729273" xlink:href="#mdd1d8472cd" y="202.243891"/>
     <use style="fill:#0000ff;stroke:#0000ff;" x="235.216545" xlink:href="#mdd1d8472cd" y="221.537908"/>
     <use style="fill:#0000ff;stroke:#0000ff;" x="238.703818" xlink:href="#mdd1d8472cd" y="239.008535"/>
     <use style="fill:#0000ff;stroke:#0000ff;" x="242.191091" xlink:href="#mdd1d8472cd" y="254.782985"/>
     <use style="fill:#0000ff;stroke:#0000ff;" x="245.678364" xlink:href="#mdd1d8472cd" y="260.677201"/>
     <use style="fill:#0000ff;stroke:#0000ff;" x="249.165636" xlink:href="#mdd1d8472cd" y="196.434483"/>
     <use style="fill:#0000ff;stroke:#0000ff;" x="252.652909" xlink:href="#mdd1d8472cd" y="190.243436"/>
    </g>
   </g>
   <g id="line2d_27">
    <path clip-path="url(#p7086005a10)" d="M 256.140182 235.861434 
L 259.627455 218.393315 
L 263.114727 220.725224 
L 266.602 248.199353 
L 270.089273 262.148409 
L 273.576545 239.04131 
L 277.063818 207.708932 
L 280.551091 214.577464 
L 284.038364 221.827581 
L 287.525636 241.924398 
" style="fill:none;stroke:#008000;stroke-linecap:square;stroke-width:1.5;"/>
   </g>
   <g id="line2d_28">
    <defs>
     <path d="M 0 3 
C 0.795609 3 1.55874 2.683901 2.12132 2.12132 
C 2.683901 1.55874 3 0.795609 3 0 
C 3 -0.795609 2.683901 -1.55874 2.12132 -2.12132 
C 1.55874 -2.683901 0.795609 -3 0 -3 
C -0.795609 -3 -1.55874 -2.683901 -2.12132 -2.12132 
C -2.683901 -1.55874 -3 -0.795609 -3 0 
C -3 0.795609 -2.683901 1.55874 -2.12132 2.12132 
C -1.55874 2.683901 -0.795609 3 0 3 
z
" id="m44f761875d" style="stroke:#008000;"/>
    </defs>
    <g clip-path="url(#p7086005a10)">
     <use style="fill:#008000;stroke:#008000;" x="256.140182" xlink:href="#m44f761875d" y="235.861434"/>
     <use style="fill:#008000;stroke:#008000;" x="259.627455" xlink:href="#m44f761875d" y="218.393315"/>
     <use style="fill:#008000;stroke:#008000;" x="263.114727" xlink:href="#m44f761875d" y="220.725224"/>
     <use style="fill:#008000;stroke:#008000;" x="266.602" xlink:href="#m44f761875d" y="248.199353"/>
     <use style="fill:#008000;stroke:#008000;" x="270.089273" xlink:href="#m44f761875d" y="262.148409"/>
     <use style="fill:#008000;stroke:#008000;" x="273.576545" xlink:href="#m44f761875d" y="239.04131"/>
     <use style="fill:#008000;stroke:#008000;" x="277.063818" xlink:href="#m44f761875d" y="207.708932"/>
     <use style="fill:#008000;stroke:#008000;" x="280.551091" xlink:href="#m44f761875d" y="214.577464"/>
     <use style="fill:#008000;stroke:#008000;" x="284.038364" xlink:href="#m44f761875d" y="221.827581"/>
     <use style="fill:#008000;stroke:#008000;" x="287.525636" xlink:href="#m44f761875d" y="241.924398"/>
    </g>
   </g>
   <g id="line2d_29">
    <path clip-path="url(#p7086005a10)" d="M 291.012909 252.278255 
L 294.500182 177.26736 
L 297.987455 273.175967 
L 301.474727 230.021341 
L 304.962 222.503262 
L 308.449273 205.428302 
L 311.936545 249.899653 
L 315.423818 195.404196 
L 318.911091 270.50004 
L 322.398364 197.315572 
L 325.885636 244.29295 
L 329.372909 181.005162 
L 332.860182 211.799556 
L 336.347455 244.675225 
L 339.834727 254.529431 
L 343.322 257.757533 
L 346.809273 227.89759 
L 350.296545 236.85982 
L 353.783818 252.533105 
L 357.271091 235.67052 
" style="fill:none;stroke:#ff0000;stroke-linecap:square;stroke-width:1.5;"/>
   </g>
   <g id="line2d_30">
    <defs>
     <path d="M 0 3 
C 0.795609 3 1.55874 2.683901 2.12132 2.12132 
C 2.683901 1.55874 3 0.795609 3 0 
C 3 -0.795609 2.683901 -1.55874 2.12132 -2.12132 
C 1.55874 -2.683901 0.795609 -3 0 -3 
C -0.795609 -3 -1.55874 -2.683901 -2.12132 -2.12132 
C -2.683901 -1.55874 -3 -0.795609 -3 0 
C -3 0.795609 -2.683901 1.55874 -2.12132 2.12132 
C -1.55874 2.683901 -0.795609 3 0 3 
z
" id="mba527c9914" style="stroke:#ff0000;"/>
    </defs>
    <g clip-path="url(#p7086005a10)">
     <use style="fill:#ff0000;stroke:#ff0000;" x="291.012909" xlink:href="#mba527c9914" y="252.278255"/>
     <use style="fill:#ff0000;stroke:#ff0000;" x="294.500182" xlink:href="#mba527c9914" y="177.26736"/>
     <use style="fill:#ff0000;stroke:#ff0000;" x="297.987455" xlink:href="#mba527c9914" y="273.175967"/>
     <use style="fill:#ff0000;stroke:#ff0000;" x="301.474727" xlink:href="#mba527c9914" y="230.021341"/>
     <use style="fill:#ff0000;stroke:#ff0000;" x="304.962" xlink:href="#mba527c9914" y="222.503262"/>
     <use style="fill:#ff0000;stroke:#ff0000;" x="308.449273" xlink:href="#mba527c9914" y="205.428302"/>
     <use style="fill:#ff0000;stroke:#ff0000;" x="311.936545" xlink:href="#mba527c9914" y="249.899653"/>
     <use style="fill:#ff0000;stroke:#ff0000;" x="315.423818" xlink:href="#mba527c9914" y="195.404196"/>
     <use style="fill:#ff0000;stroke:#ff0000;" x="318.911091" xlink:href="#mba527c9914" y="270.50004"/>
     <use style="fill:#ff0000;stroke:#ff0000;" x="322.398364" xlink:href="#mba527c9914" y="197.315572"/>
     <use style="fill:#ff0000;stroke:#ff0000;" x="325.885636" xlink:href="#mba527c9914" y="244.29295"/>
     <use style="fill:#ff0000;stroke:#ff0000;" x="329.372909" xlink:href="#mba527c9914" y="181.005162"/>
     <use style="fill:#ff0000;stroke:#ff0000;" x="332.860182" xlink:href="#mba527c9914" y="211.799556"/>
     <use style="fill:#ff0000;stroke:#ff0000;" x="336.347455" xlink:href="#mba527c9914" y="244.675225"/>
     <use style="fill:#ff0000;stroke:#ff0000;" x="339.834727" xlink:href="#mba527c9914" y="254.529431"/>
     <use style="fill:#ff0000;stroke:#ff0000;" x="343.322" xlink:href="#mba527c9914" y="257.757533"/>
     <use style="fill:#ff0000;stroke:#ff0000;" x="346.809273" xlink:href="#mba527c9914" y="227.89759"/>
     <use style="fill:#ff0000;stroke:#ff0000;" x="350.296545" xlink:href="#mba527c9914" y="236.85982"/>
     <use style="fill:#ff0000;stroke:#ff0000;" x="353.783818" xlink:href="#mba527c9914" y="252.533105"/>
     <use style="fill:#ff0000;stroke:#ff0000;" x="357.271091" xlink:href="#mba527c9914" y="235.67052"/>
    </g>
   </g>
   <g id="line2d_31">
    <path clip-path="url(#p7086005a10)" d="M 360.758364 244.127615 
L 364.245636 254.20589 
L 367.732909 197.776057 
L 371.220182 196.712948 
L 374.707455 267.856211 
L 378.194727 213.892792 
L 381.682 194.331584 
L 385.169273 258.841046 
L 388.656545 190.249245 
L 392.143818 173.409596 
L 395.631091 236.345657 
L 399.118364 222.35514 
L 402.605636 229.967002 
L 406.092909 301.705606 
L 409.580182 186.677198 
L 413.067455 243.702372 
L 416.554727 275.3405 
L 420.042 221.121934 
L 423.529273 259.096192 
L 427.016545 253.100256 
" style="fill:none;stroke:#000000;stroke-linecap:square;stroke-width:1.5;"/>
   </g>
   <g id="line2d_32">
    <defs>
     <path d="M 0 3 
C 0.795609 3 1.55874 2.683901 2.12132 2.12132 
C 2.683901 1.55874 3 0.795609 3 0 
C 3 -0.795609 2.683901 -1.55874 2.12132 -2.12132 
C 1.55874 -2.683901 0.795609 -3 0 -3 
C -0.795609 -3 -1.55874 -2.683901 -2.12132 -2.12132 
C -2.683901 -1.55874 -3 -0.795609 -3 0 
C -3 0.795609 -2.683901 1.55874 -2.12132 2.12132 
C -1.55874 2.683901 -0.795609 3 0 3 
z
" id="m5c01ef4d04" style="stroke:#000000;"/>
    </defs>
    <g clip-path="url(#p7086005a10)">
     <use style="stroke:#000000;" x="360.758364" xlink:href="#m5c01ef4d04" y="244.127615"/>
     <use style="stroke:#000000;" x="364.245636" xlink:href="#m5c01ef4d04" y="254.20589"/>
     <use style="stroke:#000000;" x="367.732909" xlink:href="#m5c01ef4d04" y="197.776057"/>
     <use style="stroke:#000000;" x="371.220182" xlink:href="#m5c01ef4d04" y="196.712948"/>
     <use style="stroke:#000000;" x="374.707455" xlink:href="#m5c01ef4d04" y="267.856211"/>
     <use style="stroke:#000000;" x="378.194727" xlink:href="#m5c01ef4d04" y="213.892792"/>
     <use style="stroke:#000000;" x="381.682" xlink:href="#m5c01ef4d04" y="194.331584"/>
     <use style="stroke:#000000;" x="385.169273" xlink:href="#m5c01ef4d04" y="258.841046"/>
     <use style="stroke:#000000;" x="388.656545" xlink:href="#m5c01ef4d04" y="190.249245"/>
     <use style="stroke:#000000;" x="392.143818" xlink:href="#m5c01ef4d04" y="173.409596"/>
     <use style="stroke:#000000;" x="395.631091" xlink:href="#m5c01ef4d04" y="236.345657"/>
     <use style="stroke:#000000;" x="399.118364" xlink:href="#m5c01ef4d04" y="222.35514"/>
     <use style="stroke:#000000;" x="402.605636" xlink:href="#m5c01ef4d04" y="229.967002"/>
     <use style="stroke:#000000;" x="406.092909" xlink:href="#m5c01ef4d04" y="301.705606"/>
     <use style="stroke:#000000;" x="409.580182" xlink:href="#m5c01ef4d04" y="186.677198"/>
     <use style="stroke:#000000;" x="413.067455" xlink:href="#m5c01ef4d04" y="243.702372"/>
     <use style="stroke:#000000;" x="416.554727" xlink:href="#m5c01ef4d04" y="275.3405"/>
     <use style="stroke:#000000;" x="420.042" xlink:href="#m5c01ef4d04" y="221.121934"/>
     <use style="stroke:#000000;" x="423.529273" xlink:href="#m5c01ef4d04" y="259.096192"/>
     <use style="stroke:#000000;" x="427.016545" xlink:href="#m5c01ef4d04" y="253.100256"/>
    </g>
   </g>
   <g id="line2d_33">
    <path clip-path="url(#p7086005a10)" d="M 430.503818 223.339459 
L 433.991091 242.995987 
L 437.478364 232.170037 
L 440.965636 231.618126 
L 444.452909 238.750516 
L 447.940182 224.358371 
L 451.427455 224.655554 
L 454.914727 229.792574 
L 458.402 229.198208 
L 461.889273 233.528588 
" style="fill:none;stroke:#bfbf00;stroke-linecap:square;stroke-width:1.5;"/>
   </g>
   <g id="line2d_34">
    <defs>
     <path d="M 0 3 
C 0.795609 3 1.55874 2.683901 2.12132 2.12132 
C 2.683901 1.55874 3 0.795609 3 0 
C 3 -0.795609 2.683901 -1.55874 2.12132 -2.12132 
C 1.55874 -2.683901 0.795609 -3 0 -3 
C -0.795609 -3 -1.55874 -2.683901 -2.12132 -2.12132 
C -2.683901 -1.55874 -3 -0.795609 -3 0 
C -3 0.795609 -2.683901 1.55874 -2.12132 2.12132 
C -1.55874 2.683901 -0.795609 3 0 3 
z
" id="m4dbc0d0f14" style="stroke:#bfbf00;"/>
    </defs>
    <g clip-path="url(#p7086005a10)">
     <use style="fill:#bfbf00;stroke:#bfbf00;" x="430.503818" xlink:href="#m4dbc0d0f14" y="223.339459"/>
     <use style="fill:#bfbf00;stroke:#bfbf00;" x="433.991091" xlink:href="#m4dbc0d0f14" y="242.995987"/>
     <use style="fill:#bfbf00;stroke:#bfbf00;" x="437.478364" xlink:href="#m4dbc0d0f14" y="232.170037"/>
     <use style="fill:#bfbf00;stroke:#bfbf00;" x="440.965636" xlink:href="#m4dbc0d0f14" y="231.618126"/>
     <use style="fill:#bfbf00;stroke:#bfbf00;" x="444.452909" xlink:href="#m4dbc0d0f14" y="238.750516"/>
     <use style="fill:#bfbf00;stroke:#bfbf00;" x="447.940182" xlink:href="#m4dbc0d0f14" y="224.358371"/>
     <use style="fill:#bfbf00;stroke:#bfbf00;" x="451.427455" xlink:href="#m4dbc0d0f14" y="224.655554"/>
     <use style="fill:#bfbf00;stroke:#bfbf00;" x="454.914727" xlink:href="#m4dbc0d0f14" y="229.792574"/>
     <use style="fill:#bfbf00;stroke:#bfbf00;" x="458.402" xlink:href="#m4dbc0d0f14" y="229.198208"/>
     <use style="fill:#bfbf00;stroke:#bfbf00;" x="461.889273" xlink:href="#m4dbc0d0f14" y="233.528588"/>
    </g>
   </g>
   <g id="line2d_35">
    <path clip-path="url(#p7086005a10)" d="M 465.376545 210.920582 
L 468.863818 225.386056 
L 472.351091 261.655795 
L 475.838364 234.888304 
L 479.325636 239.597007 
L 482.812909 235.694298 
L 486.300182 216.901907 
L 489.787455 236.669975 
L 493.274727 216.52012 
L 496.762 232.173376 
" style="fill:none;stroke:#0000ff;stroke-linecap:square;stroke-width:1.5;"/>
   </g>
   <g id="line2d_36">
    <g clip-path="url(#p7086005a10)">
     <use style="fill:#0000ff;stroke:#0000ff;" x="465.376545" xlink:href="#mdd1d8472cd" y="210.920582"/>
     <use style="fill:#0000ff;stroke:#0000ff;" x="468.863818" xlink:href="#mdd1d8472cd" y="225.386056"/>
     <use style="fill:#0000ff;stroke:#0000ff;" x="472.351091" xlink:href="#mdd1d8472cd" y="261.655795"/>
     <use style="fill:#0000ff;stroke:#0000ff;" x="475.838364" xlink:href="#mdd1d8472cd" y="234.888304"/>
     <use style="fill:#0000ff;stroke:#0000ff;" x="479.325636" xlink:href="#mdd1d8472cd" y="239.597007"/>
     <use style="fill:#0000ff;stroke:#0000ff;" x="482.812909" xlink:href="#mdd1d8472cd" y="235.694298"/>
     <use style="fill:#0000ff;stroke:#0000ff;" x="486.300182" xlink:href="#mdd1d8472cd" y="216.901907"/>
     <use style="fill:#0000ff;stroke:#0000ff;" x="489.787455" xlink:href="#mdd1d8472cd" y="236.669975"/>
     <use style="fill:#0000ff;stroke:#0000ff;" x="493.274727" xlink:href="#mdd1d8472cd" y="216.52012"/>
     <use style="fill:#0000ff;stroke:#0000ff;" x="496.762" xlink:href="#mdd1d8472cd" y="232.173376"/>
    </g>
   </g>
   <g id="line2d_37">
    <path clip-path="url(#p7086005a10)" d="M 500.249273 230.491658 
L 503.736545 248.283669 
L 507.223818 227.980346 
L 510.711091 235.258896 
L 514.198364 224.404918 
L 517.685636 205.548792 
L 521.172909 252.965777 
L 524.660182 221.170007 
L 528.147455 245.34671 
L 531.634727 218.956647 
" style="fill:none;stroke:#008000;stroke-linecap:square;stroke-width:1.5;"/>
   </g>
   <g id="line2d_38">
    <g clip-path="url(#p7086005a10)">
     <use style="fill:#008000;stroke:#008000;" x="500.249273" xlink:href="#m44f761875d" y="230.491658"/>
     <use style="fill:#008000;stroke:#008000;" x="503.736545" xlink:href="#m44f761875d" y="248.283669"/>
     <use style="fill:#008000;stroke:#008000;" x="507.223818" xlink:href="#m44f761875d" y="227.980346"/>
     <use style="fill:#008000;stroke:#008000;" x="510.711091" xlink:href="#m44f761875d" y="235.258896"/>
     <use style="fill:#008000;stroke:#008000;" x="514.198364" xlink:href="#m44f761875d" y="224.404918"/>
     <use style="fill:#008000;stroke:#008000;" x="517.685636" xlink:href="#m44f761875d" y="205.548792"/>
     <use style="fill:#008000;stroke:#008000;" x="521.172909" xlink:href="#m44f761875d" y="252.965777"/>
     <use style="fill:#008000;stroke:#008000;" x="524.660182" xlink:href="#m44f761875d" y="221.170007"/>
     <use style="fill:#008000;stroke:#008000;" x="528.147455" xlink:href="#m44f761875d" y="245.34671"/>
     <use style="fill:#008000;stroke:#008000;" x="531.634727" xlink:href="#m44f761875d" y="218.956647"/>
    </g>
   </g>
   <g id="line2d_39">
    <path clip-path="url(#p7086005a10)" d="M 535.122 234.175292 
L 538.609273 242.996566 
L 542.096545 243.724535 
L 545.583818 193.494658 
L 549.071091 239.784937 
L 552.558364 224.583227 
L 556.045636 225.268374 
L 559.532909 222.399319 
L 563.020182 236.316378 
L 566.507455 247.664133 
" style="fill:none;stroke:#ff0000;stroke-linecap:square;stroke-width:1.5;"/>
   </g>
   <g id="line2d_40">
    <g clip-path="url(#p7086005a10)">
     <use style="fill:#ff0000;stroke:#ff0000;" x="535.122" xlink:href="#mba527c9914" y="234.175292"/>
     <use style="fill:#ff0000;stroke:#ff0000;" x="538.609273" xlink:href="#mba527c9914" y="242.996566"/>
     <use style="fill:#ff0000;stroke:#ff0000;" x="542.096545" xlink:href="#mba527c9914" y="243.724535"/>
     <use style="fill:#ff0000;stroke:#ff0000;" x="545.583818" xlink:href="#mba527c9914" y="193.494658"/>
     <use style="fill:#ff0000;stroke:#ff0000;" x="549.071091" xlink:href="#mba527c9914" y="239.784937"/>
     <use style="fill:#ff0000;stroke:#ff0000;" x="552.558364" xlink:href="#mba527c9914" y="224.583227"/>
     <use style="fill:#ff0000;stroke:#ff0000;" x="556.045636" xlink:href="#mba527c9914" y="225.268374"/>
     <use style="fill:#ff0000;stroke:#ff0000;" x="559.532909" xlink:href="#mba527c9914" y="222.399319"/>
     <use style="fill:#ff0000;stroke:#ff0000;" x="563.020182" xlink:href="#mba527c9914" y="236.316378"/>
     <use style="fill:#ff0000;stroke:#ff0000;" x="566.507455" xlink:href="#mba527c9914" y="247.664133"/>
    </g>
   </g>
   <g id="line2d_41">
    <path clip-path="url(#p7086005a10)" d="M 569.994727 197.336875 
L 573.482 269.444318 
L 576.969273 199.033521 
L 580.456545 244.715706 
L 583.943818 231.269789 
L 587.431091 252.477861 
L 590.918364 218.460114 
L 594.405636 247.64242 
L 597.892909 263.675722 
L 601.380182 227.155423 
L 604.867455 220.665753 
L 608.354727 217.908704 
L 611.842 212.56427 
L 615.329273 252.986854 
L 618.816545 192.713515 
L 622.303818 216.424139 
L 625.791091 265.796529 
L 629.278364 220.15676 
L 632.765636 223.12589 
L 636.252909 247.260675 
" style="fill:none;stroke:#000000;stroke-linecap:square;stroke-width:1.5;"/>
   </g>
   <g id="line2d_42">
    <g clip-path="url(#p7086005a10)">
     <use style="stroke:#000000;" x="569.994727" xlink:href="#m5c01ef4d04" y="197.336875"/>
     <use style="stroke:#000000;" x="573.482" xlink:href="#m5c01ef4d04" y="269.444318"/>
     <use style="stroke:#000000;" x="576.969273" xlink:href="#m5c01ef4d04" y="199.033521"/>
     <use style="stroke:#000000;" x="580.456545" xlink:href="#m5c01ef4d04" y="244.715706"/>
     <use style="stroke:#000000;" x="583.943818" xlink:href="#m5c01ef4d04" y="231.269789"/>
     <use style="stroke:#000000;" x="587.431091" xlink:href="#m5c01ef4d04" y="252.477861"/>
     <use style="stroke:#000000;" x="590.918364" xlink:href="#m5c01ef4d04" y="218.460114"/>
     <use style="stroke:#000000;" x="594.405636" xlink:href="#m5c01ef4d04" y="247.64242"/>
     <use style="stroke:#000000;" x="597.892909" xlink:href="#m5c01ef4d04" y="263.675722"/>
     <use style="stroke:#000000;" x="601.380182" xlink:href="#m5c01ef4d04" y="227.155423"/>
     <use style="stroke:#000000;" x="604.867455" xlink:href="#m5c01ef4d04" y="220.665753"/>
     <use style="stroke:#000000;" x="608.354727" xlink:href="#m5c01ef4d04" y="217.908704"/>
     <use style="stroke:#000000;" x="611.842" xlink:href="#m5c01ef4d04" y="212.56427"/>
     <use style="stroke:#000000;" x="615.329273" xlink:href="#m5c01ef4d04" y="252.986854"/>
     <use style="stroke:#000000;" x="618.816545" xlink:href="#m5c01ef4d04" y="192.713515"/>
     <use style="stroke:#000000;" x="622.303818" xlink:href="#m5c01ef4d04" y="216.424139"/>
     <use style="stroke:#000000;" x="625.791091" xlink:href="#m5c01ef4d04" y="265.796529"/>
     <use style="stroke:#000000;" x="629.278364" xlink:href="#m5c01ef4d04" y="220.15676"/>
     <use style="stroke:#000000;" x="632.765636" xlink:href="#m5c01ef4d04" y="223.12589"/>
     <use style="stroke:#000000;" x="636.252909" xlink:href="#m5c01ef4d04" y="247.260675"/>
    </g>
   </g>
   <g id="line2d_43">
    <path clip-path="url(#p7086005a10)" d="M 639.740182 197.889905 
L 643.227455 266.342961 
L 646.714727 281.641675 
L 650.202 257.302811 
L 653.689273 175.637229 
L 657.176545 294.941126 
L 660.663818 353.3544 
L 664.151091 246.263398 
L 667.638364 187.58935 
L 671.125636 158.295789 
L 674.612909 193.891377 
L 678.100182 213.623242 
L 681.587455 257.563585 
L 685.074727 206.408508 
L 688.562 230.964683 
L 692.049273 189.414765 
L 695.536545 237.788257 
L 699.023818 204.061546 
L 702.511091 259.954009 
L 705.998364 207.886224 
" style="fill:none;stroke:#bfbf00;stroke-linecap:square;stroke-width:1.5;"/>
   </g>
   <g id="line2d_44">
    <g clip-path="url(#p7086005a10)">
     <use style="fill:#bfbf00;stroke:#bfbf00;" x="639.740182" xlink:href="#m4dbc0d0f14" y="197.889905"/>
     <use style="fill:#bfbf00;stroke:#bfbf00;" x="643.227455" xlink:href="#m4dbc0d0f14" y="266.342961"/>
     <use style="fill:#bfbf00;stroke:#bfbf00;" x="646.714727" xlink:href="#m4dbc0d0f14" y="281.641675"/>
     <use style="fill:#bfbf00;stroke:#bfbf00;" x="650.202" xlink:href="#m4dbc0d0f14" y="257.302811"/>
     <use style="fill:#bfbf00;stroke:#bfbf00;" x="653.689273" xlink:href="#m4dbc0d0f14" y="175.637229"/>
     <use style="fill:#bfbf00;stroke:#bfbf00;" x="657.176545" xlink:href="#m4dbc0d0f14" y="294.941126"/>
     <use style="fill:#bfbf00;stroke:#bfbf00;" x="660.663818" xlink:href="#m4dbc0d0f14" y="353.3544"/>
     <use style="fill:#bfbf00;stroke:#bfbf00;" x="664.151091" xlink:href="#m4dbc0d0f14" y="246.263398"/>
     <use style="fill:#bfbf00;stroke:#bfbf00;" x="667.638364" xlink:href="#m4dbc0d0f14" y="187.58935"/>
     <use style="fill:#bfbf00;stroke:#bfbf00;" x="671.125636" xlink:href="#m4dbc0d0f14" y="158.295789"/>
     <use style="fill:#bfbf00;stroke:#bfbf00;" x="674.612909" xlink:href="#m4dbc0d0f14" y="193.891377"/>
     <use style="fill:#bfbf00;stroke:#bfbf00;" x="678.100182" xlink:href="#m4dbc0d0f14" y="213.623242"/>
     <use style="fill:#bfbf00;stroke:#bfbf00;" x="681.587455" xlink:href="#m4dbc0d0f14" y="257.563585"/>
     <use style="fill:#bfbf00;stroke:#bfbf00;" x="685.074727" xlink:href="#m4dbc0d0f14" y="206.408508"/>
     <use style="fill:#bfbf00;stroke:#bfbf00;" x="688.562" xlink:href="#m4dbc0d0f14" y="230.964683"/>
     <use style="fill:#bfbf00;stroke:#bfbf00;" x="692.049273" xlink:href="#m4dbc0d0f14" y="189.414765"/>
     <use style="fill:#bfbf00;stroke:#bfbf00;" x="695.536545" xlink:href="#m4dbc0d0f14" y="237.788257"/>
     <use style="fill:#bfbf00;stroke:#bfbf00;" x="699.023818" xlink:href="#m4dbc0d0f14" y="204.061546"/>
     <use style="fill:#bfbf00;stroke:#bfbf00;" x="702.511091" xlink:href="#m4dbc0d0f14" y="259.954009"/>
     <use style="fill:#bfbf00;stroke:#bfbf00;" x="705.998364" xlink:href="#m4dbc0d0f14" y="207.886224"/>
    </g>
   </g>
   <g id="line2d_45">
    <path clip-path="url(#p7086005a10)" d="M 709.485636 206.601634 
L 712.972909 221.274428 
L 716.460182 243.580468 
L 719.947455 207.831434 
L 723.434727 225.3879 
L 726.922 216.270412 
L 730.409273 250.068727 
L 733.896545 248.118009 
L 737.383818 259.483063 
L 740.871091 231.791344 
" style="fill:none;stroke:#0000ff;stroke-linecap:square;stroke-width:1.5;"/>
   </g>
   <g id="line2d_46">
    <g clip-path="url(#p7086005a10)">
     <use style="fill:#0000ff;stroke:#0000ff;" x="709.485636" xlink:href="#mdd1d8472cd" y="206.601634"/>
     <use style="fill:#0000ff;stroke:#0000ff;" x="712.972909" xlink:href="#mdd1d8472cd" y="221.274428"/>
     <use style="fill:#0000ff;stroke:#0000ff;" x="716.460182" xlink:href="#mdd1d8472cd" y="243.580468"/>
     <use style="fill:#0000ff;stroke:#0000ff;" x="719.947455" xlink:href="#mdd1d8472cd" y="207.831434"/>
     <use style="fill:#0000ff;stroke:#0000ff;" x="723.434727" xlink:href="#mdd1d8472cd" y="225.3879"/>
     <use style="fill:#0000ff;stroke:#0000ff;" x="726.922" xlink:href="#mdd1d8472cd" y="216.270412"/>
     <use style="fill:#0000ff;stroke:#0000ff;" x="730.409273" xlink:href="#mdd1d8472cd" y="250.068727"/>
     <use style="fill:#0000ff;stroke:#0000ff;" x="733.896545" xlink:href="#mdd1d8472cd" y="248.118009"/>
     <use style="fill:#0000ff;stroke:#0000ff;" x="737.383818" xlink:href="#mdd1d8472cd" y="259.483063"/>
     <use style="fill:#0000ff;stroke:#0000ff;" x="740.871091" xlink:href="#mdd1d8472cd" y="231.791344"/>
    </g>
   </g>
   <g id="line2d_47">
    <path clip-path="url(#p7086005a10)" d="M 744.358364 236.570919 
L 747.845636 217.080735 
L 751.332909 225.067804 
L 754.820182 236.614327 
L 758.307455 238.04679 
L 761.794727 217.297775 
L 765.282 240.824901 
L 768.769273 232.533977 
L 772.256545 211.047026 
L 775.743818 255.323167 
" style="fill:none;stroke:#008000;stroke-linecap:square;stroke-width:1.5;"/>
   </g>
   <g id="line2d_48">
    <g clip-path="url(#p7086005a10)">
     <use style="fill:#008000;stroke:#008000;" x="744.358364" xlink:href="#m44f761875d" y="236.570919"/>
     <use style="fill:#008000;stroke:#008000;" x="747.845636" xlink:href="#m44f761875d" y="217.080735"/>
     <use style="fill:#008000;stroke:#008000;" x="751.332909" xlink:href="#m44f761875d" y="225.067804"/>
     <use style="fill:#008000;stroke:#008000;" x="754.820182" xlink:href="#m44f761875d" y="236.614327"/>
     <use style="fill:#008000;stroke:#008000;" x="758.307455" xlink:href="#m44f761875d" y="238.04679"/>
     <use style="fill:#008000;stroke:#008000;" x="761.794727" xlink:href="#m44f761875d" y="217.297775"/>
     <use style="fill:#008000;stroke:#008000;" x="765.282" xlink:href="#m44f761875d" y="240.824901"/>
     <use style="fill:#008000;stroke:#008000;" x="768.769273" xlink:href="#m44f761875d" y="232.533977"/>
     <use style="fill:#008000;stroke:#008000;" x="772.256545" xlink:href="#m44f761875d" y="211.047026"/>
     <use style="fill:#008000;stroke:#008000;" x="775.743818" xlink:href="#m44f761875d" y="255.323167"/>
    </g>
   </g>
   <g id="line2d_49">
    <path clip-path="url(#p7086005a10)" d="M 779.231091 236.469224 
L 782.718364 168.54968 
L 786.205636 286.816068 
L 789.692909 239.094543 
L 793.180182 179.728458 
L 796.667455 294.056868 
L 800.154727 200.222884 
L 803.642 293.464054 
L 807.129273 245.615497 
L 810.616545 166.390143 
" style="fill:none;stroke:#ff0000;stroke-linecap:square;stroke-width:1.5;"/>
   </g>
   <g id="line2d_50">
    <g clip-path="url(#p7086005a10)">
     <use style="fill:#ff0000;stroke:#ff0000;" x="779.231091" xlink:href="#mba527c9914" y="236.469224"/>
     <use style="fill:#ff0000;stroke:#ff0000;" x="782.718364" xlink:href="#mba527c9914" y="168.54968"/>
     <use style="fill:#ff0000;stroke:#ff0000;" x="786.205636" xlink:href="#mba527c9914" y="286.816068"/>
     <use style="fill:#ff0000;stroke:#ff0000;" x="789.692909" xlink:href="#mba527c9914" y="239.094543"/>
     <use style="fill:#ff0000;stroke:#ff0000;" x="793.180182" xlink:href="#mba527c9914" y="179.728458"/>
     <use style="fill:#ff0000;stroke:#ff0000;" x="796.667455" xlink:href="#mba527c9914" y="294.056868"/>
     <use style="fill:#ff0000;stroke:#ff0000;" x="800.154727" xlink:href="#mba527c9914" y="200.222884"/>
     <use style="fill:#ff0000;stroke:#ff0000;" x="803.642" xlink:href="#mba527c9914" y="293.464054"/>
     <use style="fill:#ff0000;stroke:#ff0000;" x="807.129273" xlink:href="#mba527c9914" y="245.615497"/>
     <use style="fill:#ff0000;stroke:#ff0000;" x="810.616545" xlink:href="#mba527c9914" y="166.390143"/>
    </g>
   </g>
   <g id="line2d_51">
    <path clip-path="url(#p7086005a10)" d="M 814.103818 223.800986 
L 817.591091 245.537268 
L 821.078364 253.619251 
L 824.565636 234.307565 
L 828.052909 210.827276 
L 831.540182 201.724411 
L 835.027455 259.78708 
L 838.514727 242.644768 
L 842.002 208.700439 
L 845.489273 229.458375 
" style="fill:none;stroke:#000000;stroke-linecap:square;stroke-width:1.5;"/>
   </g>
   <g id="line2d_52">
    <g clip-path="url(#p7086005a10)">
     <use style="stroke:#000000;" x="814.103818" xlink:href="#m5c01ef4d04" y="223.800986"/>
     <use style="stroke:#000000;" x="817.591091" xlink:href="#m5c01ef4d04" y="245.537268"/>
     <use style="stroke:#000000;" x="821.078364" xlink:href="#m5c01ef4d04" y="253.619251"/>
     <use style="stroke:#000000;" x="824.565636" xlink:href="#m5c01ef4d04" y="234.307565"/>
     <use style="stroke:#000000;" x="828.052909" xlink:href="#m5c01ef4d04" y="210.827276"/>
     <use style="stroke:#000000;" x="831.540182" xlink:href="#m5c01ef4d04" y="201.724411"/>
     <use style="stroke:#000000;" x="835.027455" xlink:href="#m5c01ef4d04" y="259.78708"/>
     <use style="stroke:#000000;" x="838.514727" xlink:href="#m5c01ef4d04" y="242.644768"/>
     <use style="stroke:#000000;" x="842.002" xlink:href="#m5c01ef4d04" y="208.700439"/>
     <use style="stroke:#000000;" x="845.489273" xlink:href="#m5c01ef4d04" y="229.458375"/>
    </g>
   </g>
   <g id="line2d_53">
    <path clip-path="url(#p7086005a10)" d="M 848.976545 220.922658 
L 852.463818 230.387141 
L 855.951091 248.891691 
L 859.438364 266.377642 
L 862.925636 275.247942 
L 866.412909 64.0584 
L 869.900182 214.895947 
L 873.387455 222.365673 
L 876.874727 221.644165 
L 880.362 252.074813 
L 883.849273 219.352318 
L 887.336545 261.199763 
L 890.823818 246.302751 
L 894.311091 222.195907 
L 897.798364 242.440563 
L 901.285636 246.854493 
L 904.772909 267.481124 
L 908.260182 250.16494 
L 911.747455 227.883085 
L 915.234727 220.073825 
" style="fill:none;stroke:#bfbf00;stroke-linecap:square;stroke-width:1.5;"/>
   </g>
   <g id="line2d_54">
    <g clip-path="url(#p7086005a10)">
     <use style="fill:#bfbf00;stroke:#bfbf00;" x="848.976545" xlink:href="#m4dbc0d0f14" y="220.922658"/>
     <use style="fill:#bfbf00;stroke:#bfbf00;" x="852.463818" xlink:href="#m4dbc0d0f14" y="230.387141"/>
     <use style="fill:#bfbf00;stroke:#bfbf00;" x="855.951091" xlink:href="#m4dbc0d0f14" y="248.891691"/>
     <use style="fill:#bfbf00;stroke:#bfbf00;" x="859.438364" xlink:href="#m4dbc0d0f14" y="266.377642"/>
     <use style="fill:#bfbf00;stroke:#bfbf00;" x="862.925636" xlink:href="#m4dbc0d0f14" y="275.247942"/>
     <use style="fill:#bfbf00;stroke:#bfbf00;" x="866.412909" xlink:href="#m4dbc0d0f14" y="64.0584"/>
     <use style="fill:#bfbf00;stroke:#bfbf00;" x="869.900182" xlink:href="#m4dbc0d0f14" y="214.895947"/>
     <use style="fill:#bfbf00;stroke:#bfbf00;" x="873.387455" xlink:href="#m4dbc0d0f14" y="222.365673"/>
     <use style="fill:#bfbf00;stroke:#bfbf00;" x="876.874727" xlink:href="#m4dbc0d0f14" y="221.644165"/>
     <use style="fill:#bfbf00;stroke:#bfbf00;" x="880.362" xlink:href="#m4dbc0d0f14" y="252.074813"/>
     <use style="fill:#bfbf00;stroke:#bfbf00;" x="883.849273" xlink:href="#m4dbc0d0f14" y="219.352318"/>
     <use style="fill:#bfbf00;stroke:#bfbf00;" x="887.336545" xlink:href="#m4dbc0d0f14" y="261.199763"/>
     <use style="fill:#bfbf00;stroke:#bfbf00;" x="890.823818" xlink:href="#m4dbc0d0f14" y="246.302751"/>
     <use style="fill:#bfbf00;stroke:#bfbf00;" x="894.311091" xlink:href="#m4dbc0d0f14" y="222.195907"/>
     <use style="fill:#bfbf00;stroke:#bfbf00;" x="897.798364" xlink:href="#m4dbc0d0f14" y="242.440563"/>
     <use style="fill:#bfbf00;stroke:#bfbf00;" x="901.285636" xlink:href="#m4dbc0d0f14" y="246.854493"/>
     <use style="fill:#bfbf00;stroke:#bfbf00;" x="904.772909" xlink:href="#m4dbc0d0f14" y="267.481124"/>
     <use style="fill:#bfbf00;stroke:#bfbf00;" x="908.260182" xlink:href="#m4dbc0d0f14" y="250.16494"/>
     <use style="fill:#bfbf00;stroke:#bfbf00;" x="911.747455" xlink:href="#m4dbc0d0f14" y="227.883085"/>
     <use style="fill:#bfbf00;stroke:#bfbf00;" x="915.234727" xlink:href="#m4dbc0d0f14" y="220.073825"/>
    </g>
   </g>
   <g id="line2d_55">
    <path clip-path="url(#p7086005a10)" d="M 918.722 244.240499 
L 922.209273 232.332232 
L 925.696545 290.202983 
L 929.183818 226.07825 
L 932.671091 223.936475 
L 936.158364 252.59342 
L 939.645636 290.502831 
L 943.132909 206.759443 
L 946.620182 205.517214 
L 950.107455 293.45848 
L 953.594727 209.972105 
L 957.082 218.196519 
L 960.569273 253.021775 
L 964.056545 162.424708 
L 967.543818 192.195375 
L 971.031091 236.658617 
L 974.518364 220.166952 
L 978.005636 260.517986 
L 981.492909 207.958837 
L 984.980182 194.080137 
" style="fill:none;stroke:#0000ff;stroke-linecap:square;stroke-width:1.5;"/>
   </g>
   <g id="line2d_56">
    <g clip-path="url(#p7086005a10)">
     <use style="fill:#0000ff;stroke:#0000ff;" x="918.722" xlink:href="#mdd1d8472cd" y="244.240499"/>
     <use style="fill:#0000ff;stroke:#0000ff;" x="922.209273" xlink:href="#mdd1d8472cd" y="232.332232"/>
     <use style="fill:#0000ff;stroke:#0000ff;" x="925.696545" xlink:href="#mdd1d8472cd" y="290.202983"/>
     <use style="fill:#0000ff;stroke:#0000ff;" x="929.183818" xlink:href="#mdd1d8472cd" y="226.07825"/>
     <use style="fill:#0000ff;stroke:#0000ff;" x="932.671091" xlink:href="#mdd1d8472cd" y="223.936475"/>
     <use style="fill:#0000ff;stroke:#0000ff;" x="936.158364" xlink:href="#mdd1d8472cd" y="252.59342"/>
     <use style="fill:#0000ff;stroke:#0000ff;" x="939.645636" xlink:href="#mdd1d8472cd" y="290.502831"/>
     <use style="fill:#0000ff;stroke:#0000ff;" x="943.132909" xlink:href="#mdd1d8472cd" y="206.759443"/>
     <use style="fill:#0000ff;stroke:#0000ff;" x="946.620182" xlink:href="#mdd1d8472cd" y="205.517214"/>
     <use style="fill:#0000ff;stroke:#0000ff;" x="950.107455" xlink:href="#mdd1d8472cd" y="293.45848"/>
     <use style="fill:#0000ff;stroke:#0000ff;" x="953.594727" xlink:href="#mdd1d8472cd" y="209.972105"/>
     <use style="fill:#0000ff;stroke:#0000ff;" x="957.082" xlink:href="#mdd1d8472cd" y="218.196519"/>
     <use style="fill:#0000ff;stroke:#0000ff;" x="960.569273" xlink:href="#mdd1d8472cd" y="253.021775"/>
     <use style="fill:#0000ff;stroke:#0000ff;" x="964.056545" xlink:href="#mdd1d8472cd" y="162.424708"/>
     <use style="fill:#0000ff;stroke:#0000ff;" x="967.543818" xlink:href="#mdd1d8472cd" y="192.195375"/>
     <use style="fill:#0000ff;stroke:#0000ff;" x="971.031091" xlink:href="#mdd1d8472cd" y="236.658617"/>
     <use style="fill:#0000ff;stroke:#0000ff;" x="974.518364" xlink:href="#mdd1d8472cd" y="220.166952"/>
     <use style="fill:#0000ff;stroke:#0000ff;" x="978.005636" xlink:href="#mdd1d8472cd" y="260.517986"/>
     <use style="fill:#0000ff;stroke:#0000ff;" x="981.492909" xlink:href="#mdd1d8472cd" y="207.958837"/>
     <use style="fill:#0000ff;stroke:#0000ff;" x="984.980182" xlink:href="#mdd1d8472cd" y="194.080137"/>
    </g>
   </g>
   <g id="line2d_57">
    <path clip-path="url(#p7086005a10)" d="M 988.467455 238.156823 
L 991.954727 222.532015 
L 995.442 206.355242 
L 998.929273 238.538952 
L 1002.416545 231.405887 
L 1005.903818 225.843795 
L 1009.391091 244.355796 
L 1012.878364 232.042768 
L 1016.365636 215.908454 
L 1019.852909 255.267687 
" style="fill:none;stroke:#008000;stroke-linecap:square;stroke-width:1.5;"/>
   </g>
   <g id="line2d_58">
    <g clip-path="url(#p7086005a10)">
     <use style="fill:#008000;stroke:#008000;" x="988.467455" xlink:href="#m44f761875d" y="238.156823"/>
     <use style="fill:#008000;stroke:#008000;" x="991.954727" xlink:href="#m44f761875d" y="222.532015"/>
     <use style="fill:#008000;stroke:#008000;" x="995.442" xlink:href="#m44f761875d" y="206.355242"/>
     <use style="fill:#008000;stroke:#008000;" x="998.929273" xlink:href="#m44f761875d" y="238.538952"/>
     <use style="fill:#008000;stroke:#008000;" x="1002.416545" xlink:href="#m44f761875d" y="231.405887"/>
     <use style="fill:#008000;stroke:#008000;" x="1005.903818" xlink:href="#m44f761875d" y="225.843795"/>
     <use style="fill:#008000;stroke:#008000;" x="1009.391091" xlink:href="#m44f761875d" y="244.355796"/>
     <use style="fill:#008000;stroke:#008000;" x="1012.878364" xlink:href="#m44f761875d" y="232.042768"/>
     <use style="fill:#008000;stroke:#008000;" x="1016.365636" xlink:href="#m44f761875d" y="215.908454"/>
     <use style="fill:#008000;stroke:#008000;" x="1019.852909" xlink:href="#m44f761875d" y="255.267687"/>
    </g>
   </g>
   <g id="line2d_59">
    <path clip-path="url(#p7086005a10)" d="M 1023.340182 220.395703 
L 1026.827455 242.646106 
L 1030.314727 213.193261 
L 1033.802 222.496416 
L 1037.289273 247.662093 
L 1040.776545 224.511385 
L 1044.263818 213.579106 
L 1047.751091 242.260261 
L 1051.238364 205.647845 
L 1054.725636 278.015243 
" style="fill:none;stroke:#ff0000;stroke-linecap:square;stroke-width:1.5;"/>
   </g>
   <g id="line2d_60">
    <g clip-path="url(#p7086005a10)">
     <use style="fill:#ff0000;stroke:#ff0000;" x="1023.340182" xlink:href="#mba527c9914" y="220.395703"/>
     <use style="fill:#ff0000;stroke:#ff0000;" x="1026.827455" xlink:href="#mba527c9914" y="242.646106"/>
     <use style="fill:#ff0000;stroke:#ff0000;" x="1030.314727" xlink:href="#mba527c9914" y="213.193261"/>
     <use style="fill:#ff0000;stroke:#ff0000;" x="1033.802" xlink:href="#mba527c9914" y="222.496416"/>
     <use style="fill:#ff0000;stroke:#ff0000;" x="1037.289273" xlink:href="#mba527c9914" y="247.662093"/>
     <use style="fill:#ff0000;stroke:#ff0000;" x="1040.776545" xlink:href="#mba527c9914" y="224.511385"/>
     <use style="fill:#ff0000;stroke:#ff0000;" x="1044.263818" xlink:href="#mba527c9914" y="213.579106"/>
     <use style="fill:#ff0000;stroke:#ff0000;" x="1047.751091" xlink:href="#mba527c9914" y="242.260261"/>
     <use style="fill:#ff0000;stroke:#ff0000;" x="1051.238364" xlink:href="#mba527c9914" y="205.647845"/>
     <use style="fill:#ff0000;stroke:#ff0000;" x="1054.725636" xlink:href="#mba527c9914" y="278.015243"/>
    </g>
   </g>
   <g id="line2d_61">
    <path clip-path="url(#p7086005a10)" d="M 1058.212909 253.806387 
L 1061.700182 246.621711 
L 1065.187455 275.062825 
L 1068.674727 224.685067 
L 1072.162 205.936889 
L 1075.649273 189.059277 
L 1079.136545 202.238269 
L 1082.623818 255.124286 
L 1086.111091 248.874893 
L 1089.598364 208.997816 
" style="fill:none;stroke:#000000;stroke-linecap:square;stroke-width:1.5;"/>
   </g>
   <g id="line2d_62">
    <g clip-path="url(#p7086005a10)">
     <use style="stroke:#000000;" x="1058.212909" xlink:href="#m5c01ef4d04" y="253.806387"/>
     <use style="stroke:#000000;" x="1061.700182" xlink:href="#m5c01ef4d04" y="246.621711"/>
     <use style="stroke:#000000;" x="1065.187455" xlink:href="#m5c01ef4d04" y="275.062825"/>
     <use style="stroke:#000000;" x="1068.674727" xlink:href="#m5c01ef4d04" y="224.685067"/>
     <use style="stroke:#000000;" x="1072.162" xlink:href="#m5c01ef4d04" y="205.936889"/>
     <use style="stroke:#000000;" x="1075.649273" xlink:href="#m5c01ef4d04" y="189.059277"/>
     <use style="stroke:#000000;" x="1079.136545" xlink:href="#m5c01ef4d04" y="202.238269"/>
     <use style="stroke:#000000;" x="1082.623818" xlink:href="#m5c01ef4d04" y="255.124286"/>
     <use style="stroke:#000000;" x="1086.111091" xlink:href="#m5c01ef4d04" y="248.874893"/>
     <use style="stroke:#000000;" x="1089.598364" xlink:href="#m5c01ef4d04" y="208.997816"/>
    </g>
   </g>
   <g id="line2d_63">
    <path clip-path="url(#p7086005a10)" d="M 1093.085636 209.054787 
L 1096.572909 225.798281 
L 1100.060182 198.872357 
L 1103.547455 201.045176 
L 1107.034727 251.147847 
L 1110.522 245.737099 
L 1114.009273 257.11245 
L 1117.496545 264.312579 
L 1120.983818 189.627221 
L 1124.471091 270.4476 
L 1127.958364 185.707624 
L 1131.445636 219.0668 
L 1134.932909 250.508782 
L 1138.420182 226.352137 
L 1141.907455 252.638998 
L 1145.394727 224.775778 
L 1148.882 225.755677 
L 1152.369273 210.929377 
L 1155.856545 244.799804 
L 1159.343818 267.124464 
" style="fill:none;stroke:#bfbf00;stroke-linecap:square;stroke-width:1.5;"/>
   </g>
   <g id="line2d_64">
    <g clip-path="url(#p7086005a10)">
     <use style="fill:#bfbf00;stroke:#bfbf00;" x="1093.085636" xlink:href="#m4dbc0d0f14" y="209.054787"/>
     <use style="fill:#bfbf00;stroke:#bfbf00;" x="1096.572909" xlink:href="#m4dbc0d0f14" y="225.798281"/>
     <use style="fill:#bfbf00;stroke:#bfbf00;" x="1100.060182" xlink:href="#m4dbc0d0f14" y="198.872357"/>
     <use style="fill:#bfbf00;stroke:#bfbf00;" x="1103.547455" xlink:href="#m4dbc0d0f14" y="201.045176"/>
     <use style="fill:#bfbf00;stroke:#bfbf00;" x="1107.034727" xlink:href="#m4dbc0d0f14" y="251.147847"/>
     <use style="fill:#bfbf00;stroke:#bfbf00;" x="1110.522" xlink:href="#m4dbc0d0f14" y="245.737099"/>
     <use style="fill:#bfbf00;stroke:#bfbf00;" x="1114.009273" xlink:href="#m4dbc0d0f14" y="257.11245"/>
     <use style="fill:#bfbf00;stroke:#bfbf00;" x="1117.496545" xlink:href="#m4dbc0d0f14" y="264.312579"/>
     <use style="fill:#bfbf00;stroke:#bfbf00;" x="1120.983818" xlink:href="#m4dbc0d0f14" y="189.627221"/>
     <use style="fill:#bfbf00;stroke:#bfbf00;" x="1124.471091" xlink:href="#m4dbc0d0f14" y="270.4476"/>
     <use style="fill:#bfbf00;stroke:#bfbf00;" x="1127.958364" xlink:href="#m4dbc0d0f14" y="185.707624"/>
     <use style="fill:#bfbf00;stroke:#bfbf00;" x="1131.445636" xlink:href="#m4dbc0d0f14" y="219.0668"/>
     <use style="fill:#bfbf00;stroke:#bfbf00;" x="1134.932909" xlink:href="#m4dbc0d0f14" y="250.508782"/>
     <use style="fill:#bfbf00;stroke:#bfbf00;" x="1138.420182" xlink:href="#m4dbc0d0f14" y="226.352137"/>
     <use style="fill:#bfbf00;stroke:#bfbf00;" x="1141.907455" xlink:href="#m4dbc0d0f14" y="252.638998"/>
     <use style="fill:#bfbf00;stroke:#bfbf00;" x="1145.394727" xlink:href="#m4dbc0d0f14" y="224.775778"/>
     <use style="fill:#bfbf00;stroke:#bfbf00;" x="1148.882" xlink:href="#m4dbc0d0f14" y="225.755677"/>
     <use style="fill:#bfbf00;stroke:#bfbf00;" x="1152.369273" xlink:href="#m4dbc0d0f14" y="210.929377"/>
     <use style="fill:#bfbf00;stroke:#bfbf00;" x="1155.856545" xlink:href="#m4dbc0d0f14" y="244.799804"/>
     <use style="fill:#bfbf00;stroke:#bfbf00;" x="1159.343818" xlink:href="#m4dbc0d0f14" y="267.124464"/>
    </g>
   </g>
   <g id="line2d_65">
    <path clip-path="url(#p7086005a10)" d="M 1162.831091 238.398762 
L 1166.318364 262.982204 
L 1169.805636 246.479824 
L 1173.292909 237.420528 
L 1176.780182 225.979445 
L 1180.267455 223.257403 
L 1183.754727 236.952677 
L 1187.242 211.391001 
L 1190.729273 206.159576 
L 1194.216545 221.385999 
" style="fill:none;stroke:#0000ff;stroke-linecap:square;stroke-width:1.5;"/>
   </g>
   <g id="line2d_66">
    <g clip-path="url(#p7086005a10)">
     <use style="fill:#0000ff;stroke:#0000ff;" x="1162.831091" xlink:href="#mdd1d8472cd" y="238.398762"/>
     <use style="fill:#0000ff;stroke:#0000ff;" x="1166.318364" xlink:href="#mdd1d8472cd" y="262.982204"/>
     <use style="fill:#0000ff;stroke:#0000ff;" x="1169.805636" xlink:href="#mdd1d8472cd" y="246.479824"/>
     <use style="fill:#0000ff;stroke:#0000ff;" x="1173.292909" xlink:href="#mdd1d8472cd" y="237.420528"/>
     <use style="fill:#0000ff;stroke:#0000ff;" x="1176.780182" xlink:href="#mdd1d8472cd" y="225.979445"/>
     <use style="fill:#0000ff;stroke:#0000ff;" x="1180.267455" xlink:href="#mdd1d8472cd" y="223.257403"/>
     <use style="fill:#0000ff;stroke:#0000ff;" x="1183.754727" xlink:href="#mdd1d8472cd" y="236.952677"/>
     <use style="fill:#0000ff;stroke:#0000ff;" x="1187.242" xlink:href="#mdd1d8472cd" y="211.391001"/>
     <use style="fill:#0000ff;stroke:#0000ff;" x="1190.729273" xlink:href="#mdd1d8472cd" y="206.159576"/>
     <use style="fill:#0000ff;stroke:#0000ff;" x="1194.216545" xlink:href="#mdd1d8472cd" y="221.385999"/>
    </g>
   </g>
   <g id="patch_3">
    <path d="M 172.62 367.8192 
L 172.62 49.5936 
" style="fill:none;stroke:#000000;stroke-linecap:square;stroke-linejoin:miter;stroke-width:0.8;"/>
   </g>
   <g id="patch_4">
    <path d="M 1242.864 367.8192 
L 1242.864 49.5936 
" style="fill:none;stroke:#000000;stroke-linecap:square;stroke-linejoin:miter;stroke-width:0.8;"/>
   </g>
   <g id="patch_5">
    <path d="M 172.62 367.8192 
L 1242.864 367.8192 
" style="fill:none;stroke:#000000;stroke-linecap:square;stroke-linejoin:miter;stroke-width:0.8;"/>
   </g>
   <g id="patch_6">
    <path d="M 172.62 49.5936 
L 1242.864 49.5936 
" style="fill:none;stroke:#000000;stroke-linecap:square;stroke-linejoin:miter;stroke-width:0.8;"/>
   </g>
   <g id="text_15">
    <!-- Integrated Sextupole Relative Error of S15 Magnets -->
    <defs>
     <path d="M 53.515625 70.515625 
L 53.515625 60.890625 
Q 47.90625 63.578125 42.921875 64.890625 
Q 37.9375 66.21875 33.296875 66.21875 
Q 25.25 66.21875 20.875 63.09375 
Q 16.5 59.96875 16.5 54.203125 
Q 16.5 49.359375 19.40625 46.890625 
Q 22.3125 44.4375 30.421875 42.921875 
L 36.375 41.703125 
Q 47.40625 39.59375 52.65625 34.296875 
Q 57.90625 29 57.90625 20.125 
Q 57.90625 9.515625 50.796875 4.046875 
Q 43.703125 -1.421875 29.984375 -1.421875 
Q 24.8125 -1.421875 18.96875 -0.25 
Q 13.140625 0.921875 6.890625 3.21875 
L 6.890625 13.375 
Q 12.890625 10.015625 18.65625 8.296875 
Q 24.421875 6.59375 29.984375 6.59375 
Q 38.421875 6.59375 43.015625 9.90625 
Q 47.609375 13.234375 47.609375 19.390625 
Q 47.609375 24.75 44.3125 27.78125 
Q 41.015625 30.8125 33.5 32.328125 
L 27.484375 33.5 
Q 16.453125 35.6875 11.515625 40.375 
Q 6.59375 45.0625 6.59375 53.421875 
Q 6.59375 63.09375 13.40625 68.65625 
Q 20.21875 74.21875 32.171875 74.21875 
Q 37.3125 74.21875 42.625 73.28125 
Q 47.953125 72.359375 53.515625 70.515625 
z
" id="DejaVuSans-83"/>
     <path d="M 8.5 21.578125 
L 8.5 54.6875 
L 17.484375 54.6875 
L 17.484375 21.921875 
Q 17.484375 14.15625 20.5 10.265625 
Q 23.53125 6.390625 29.59375 6.390625 
Q 36.859375 6.390625 41.078125 11.03125 
Q 45.3125 15.671875 45.3125 23.6875 
L 45.3125 54.6875 
L 54.296875 54.6875 
L 54.296875 0 
L 45.3125 0 
L 45.3125 8.40625 
Q 42.046875 3.421875 37.71875 1 
Q 33.40625 -1.421875 27.6875 -1.421875 
Q 18.265625 -1.421875 13.375 4.4375 
Q 8.5 10.296875 8.5 21.578125 
z
M 31.109375 56 
z
" id="DejaVuSans-117"/>
     <path d="M 18.109375 8.203125 
L 18.109375 -20.796875 
L 9.078125 -20.796875 
L 9.078125 54.6875 
L 18.109375 54.6875 
L 18.109375 46.390625 
Q 20.953125 51.265625 25.265625 53.625 
Q 29.59375 56 35.59375 56 
Q 45.5625 56 51.78125 48.09375 
Q 58.015625 40.1875 58.015625 27.296875 
Q 58.015625 14.40625 51.78125 6.484375 
Q 45.5625 -1.421875 35.59375 -1.421875 
Q 29.59375 -1.421875 25.265625 0.953125 
Q 20.953125 3.328125 18.109375 8.203125 
z
M 48.6875 27.296875 
Q 48.6875 37.203125 44.609375 42.84375 
Q 40.53125 48.484375 33.40625 48.484375 
Q 26.265625 48.484375 22.1875 42.84375 
Q 18.109375 37.203125 18.109375 27.296875 
Q 18.109375 17.390625 22.1875 11.75 
Q 26.265625 6.109375 33.40625 6.109375 
Q 40.53125 6.109375 44.609375 11.75 
Q 48.6875 17.390625 48.6875 27.296875 
z
" id="DejaVuSans-112"/>
     <path d="M 37.109375 75.984375 
L 37.109375 68.5 
L 28.515625 68.5 
Q 23.6875 68.5 21.796875 66.546875 
Q 19.921875 64.59375 19.921875 59.515625 
L 19.921875 54.6875 
L 34.71875 54.6875 
L 34.71875 47.703125 
L 19.921875 47.703125 
L 19.921875 0 
L 10.890625 0 
L 10.890625 47.703125 
L 2.296875 47.703125 
L 2.296875 54.6875 
L 10.890625 54.6875 
L 10.890625 58.5 
Q 10.890625 67.625 15.140625 71.796875 
Q 19.390625 75.984375 28.609375 75.984375 
z
" id="DejaVuSans-102"/>
     <path d="M 44.28125 53.078125 
L 44.28125 44.578125 
Q 40.484375 46.53125 36.375 47.5 
Q 32.28125 48.484375 27.875 48.484375 
Q 21.1875 48.484375 17.84375 46.4375 
Q 14.5 44.390625 14.5 40.28125 
Q 14.5 37.15625 16.890625 35.375 
Q 19.28125 33.59375 26.515625 31.984375 
L 29.59375 31.296875 
Q 39.15625 29.25 43.1875 25.515625 
Q 47.21875 21.78125 47.21875 15.09375 
Q 47.21875 7.46875 41.1875 3.015625 
Q 35.15625 -1.421875 24.609375 -1.421875 
Q 20.21875 -1.421875 15.453125 -0.5625 
Q 10.6875 0.296875 5.421875 2 
L 5.421875 11.28125 
Q 10.40625 8.6875 15.234375 7.390625 
Q 20.0625 6.109375 24.8125 6.109375 
Q 31.15625 6.109375 34.5625 8.28125 
Q 37.984375 10.453125 37.984375 14.40625 
Q 37.984375 18.0625 35.515625 20.015625 
Q 33.0625 21.96875 24.703125 23.78125 
L 21.578125 24.515625 
Q 13.234375 26.265625 9.515625 29.90625 
Q 5.8125 33.546875 5.8125 39.890625 
Q 5.8125 47.609375 11.28125 51.796875 
Q 16.75 56 26.8125 56 
Q 31.78125 56 36.171875 55.265625 
Q 40.578125 54.546875 44.28125 53.078125 
z
" id="DejaVuSans-115"/>
    </defs>
    <g transform="translate(552.648563 43.5936)scale(0.12 -0.12)">
     <use xlink:href="#DejaVuSans-73"/>
     <use x="29.492188" xlink:href="#DejaVuSans-110"/>
     <use x="92.871094" xlink:href="#DejaVuSans-116"/>
     <use x="132.080078" xlink:href="#DejaVuSans-101"/>
     <use x="193.603516" xlink:href="#DejaVuSans-103"/>
     <use x="257.080078" xlink:href="#DejaVuSans-114"/>
     <use x="298.193359" xlink:href="#DejaVuSans-97"/>
     <use x="359.472656" xlink:href="#DejaVuSans-116"/>
     <use x="398.681641" xlink:href="#DejaVuSans-101"/>
     <use x="460.205078" xlink:href="#DejaVuSans-100"/>
     <use x="523.681641" xlink:href="#DejaVuSans-32"/>
     <use x="555.46875" xlink:href="#DejaVuSans-83"/>
     <use x="618.945312" xlink:href="#DejaVuSans-101"/>
     <use x="680.453125" xlink:href="#DejaVuSans-120"/>
     <use x="739.632812" xlink:href="#DejaVuSans-116"/>
     <use x="778.841797" xlink:href="#DejaVuSans-117"/>
     <use x="842.220703" xlink:href="#DejaVuSans-112"/>
     <use x="905.697266" xlink:href="#DejaVuSans-111"/>
     <use x="966.878906" xlink:href="#DejaVuSans-108"/>
     <use x="994.662109" xlink:href="#DejaVuSans-101"/>
     <use x="1056.185547" xlink:href="#DejaVuSans-32"/>
     <use x="1087.972656" xlink:href="#DejaVuSans-82"/>
     <use x="1157.392578" xlink:href="#DejaVuSans-101"/>
     <use x="1218.916016" xlink:href="#DejaVuSans-108"/>
     <use x="1246.699219" xlink:href="#DejaVuSans-97"/>
     <use x="1307.978516" xlink:href="#DejaVuSans-116"/>
     <use x="1347.1875" xlink:href="#DejaVuSans-105"/>
     <use x="1374.970703" xlink:href="#DejaVuSans-118"/>
     <use x="1434.150391" xlink:href="#DejaVuSans-101"/>
     <use x="1495.673828" xlink:href="#DejaVuSans-32"/>
     <use x="1527.460938" xlink:href="#DejaVuSans-69"/>
     <use x="1590.644531" xlink:href="#DejaVuSans-114"/>
     <use x="1631.742188" xlink:href="#DejaVuSans-114"/>
     <use x="1672.824219" xlink:href="#DejaVuSans-111"/>
     <use x="1734.005859" xlink:href="#DejaVuSans-114"/>
     <use x="1775.119141" xlink:href="#DejaVuSans-32"/>
     <use x="1806.90625" xlink:href="#DejaVuSans-111"/>
     <use x="1868.087891" xlink:href="#DejaVuSans-102"/>
     <use x="1903.292969" xlink:href="#DejaVuSans-32"/>
     <use x="1935.080078" xlink:href="#DejaVuSans-83"/>
     <use x="1998.556641" xlink:href="#DejaVuSans-49"/>
     <use x="2062.179688" xlink:href="#DejaVuSans-53"/>
     <use x="2125.802734" xlink:href="#DejaVuSans-32"/>
     <use x="2157.589844" xlink:href="#DejaVuSans-77"/>
     <use x="2243.869141" xlink:href="#DejaVuSans-97"/>
     <use x="2305.148438" xlink:href="#DejaVuSans-103"/>
     <use x="2368.625" xlink:href="#DejaVuSans-110"/>
     <use x="2432.003906" xlink:href="#DejaVuSans-101"/>
     <use x="2493.527344" xlink:href="#DejaVuSans-116"/>
     <use x="2532.736328" xlink:href="#DejaVuSans-115"/>
    </g>
   </g>
   <g id="legend_1">
    <g id="patch_7">
     <path d="M 875.5265 130.984225 
L 1235.864 130.984225 
Q 1237.864 130.984225 1237.864 128.984225 
L 1237.864 56.5936 
Q 1237.864 54.5936 1235.864 54.5936 
L 875.5265 54.5936 
Q 873.5265 54.5936 873.5265 56.5936 
L 873.5265 128.984225 
Q 873.5265 130.984225 875.5265 130.984225 
z
" style="fill:#ffffff;opacity:0.8;stroke:#cccccc;stroke-linejoin:miter;"/>
    </g>
    <g id="line2d_67"/>
    <g id="line2d_68">
     <g>
      <use style="fill:#0000ff;stroke:#0000ff;" x="887.5265" xlink:href="#mdd1d8472cd" y="62.692037"/>
     </g>
    </g>
    <g id="text_16">
     <!-- SDA0 -->
     <defs>
      <path d="M 19.671875 64.796875 
L 19.671875 8.109375 
L 31.59375 8.109375 
Q 46.6875 8.109375 53.6875 14.9375 
Q 60.6875 21.78125 60.6875 36.53125 
Q 60.6875 51.171875 53.6875 57.984375 
Q 46.6875 64.796875 31.59375 64.796875 
z
M 9.8125 72.90625 
L 30.078125 72.90625 
Q 51.265625 72.90625 61.171875 64.09375 
Q 71.09375 55.28125 71.09375 36.53125 
Q 71.09375 17.671875 61.125 8.828125 
Q 51.171875 0 30.078125 0 
L 9.8125 0 
z
" id="DejaVuSans-68"/>
      <path d="M 34.1875 63.1875 
L 20.796875 26.90625 
L 47.609375 26.90625 
z
M 28.609375 72.90625 
L 39.796875 72.90625 
L 67.578125 0 
L 57.328125 0 
L 50.6875 18.703125 
L 17.828125 18.703125 
L 11.1875 0 
L 0.78125 0 
z
" id="DejaVuSans-65"/>
     </defs>
     <g transform="translate(905.5265 66.192037)scale(0.1 -0.1)">
      <use xlink:href="#DejaVuSans-83"/>
      <use x="63.476562" xlink:href="#DejaVuSans-68"/>
      <use x="140.462891" xlink:href="#DejaVuSans-65"/>
      <use x="208.871094" xlink:href="#DejaVuSans-48"/>
     </g>
    </g>
    <g id="line2d_69"/>
    <g id="line2d_70">
     <g>
      <use style="fill:#008000;stroke:#008000;" x="887.5265" xlink:href="#m44f761875d" y="77.370162"/>
     </g>
    </g>
    <g id="text_17">
     <!-- SFA0 -->
     <defs>
      <path d="M 9.8125 72.90625 
L 51.703125 72.90625 
L 51.703125 64.59375 
L 19.671875 64.59375 
L 19.671875 43.109375 
L 48.578125 43.109375 
L 48.578125 34.8125 
L 19.671875 34.8125 
L 19.671875 0 
L 9.8125 0 
z
" id="DejaVuSans-70"/>
     </defs>
     <g transform="translate(905.5265 80.870162)scale(0.1 -0.1)">
      <use xlink:href="#DejaVuSans-83"/>
      <use x="63.476562" xlink:href="#DejaVuSans-70"/>
      <use x="120.855469" xlink:href="#DejaVuSans-65"/>
      <use x="189.263672" xlink:href="#DejaVuSans-48"/>
     </g>
    </g>
    <g id="line2d_71"/>
    <g id="line2d_72">
     <g>
      <use style="fill:#ff0000;stroke:#ff0000;" x="887.5265" xlink:href="#mba527c9914" y="92.048287"/>
     </g>
    </g>
    <g id="text_18">
     <!-- SDB0 -->
     <defs>
      <path d="M 19.671875 34.8125 
L 19.671875 8.109375 
L 35.5 8.109375 
Q 43.453125 8.109375 47.28125 11.40625 
Q 51.125 14.703125 51.125 21.484375 
Q 51.125 28.328125 47.28125 31.5625 
Q 43.453125 34.8125 35.5 34.8125 
z
M 19.671875 64.796875 
L 19.671875 42.828125 
L 34.28125 42.828125 
Q 41.5 42.828125 45.03125 45.53125 
Q 48.578125 48.25 48.578125 53.8125 
Q 48.578125 59.328125 45.03125 62.0625 
Q 41.5 64.796875 34.28125 64.796875 
z
M 9.8125 72.90625 
L 35.015625 72.90625 
Q 46.296875 72.90625 52.390625 68.21875 
Q 58.5 63.53125 58.5 54.890625 
Q 58.5 48.1875 55.375 44.234375 
Q 52.25 40.28125 46.1875 39.3125 
Q 53.46875 37.75 57.5 32.78125 
Q 61.53125 27.828125 61.53125 20.40625 
Q 61.53125 10.640625 54.890625 5.3125 
Q 48.25 0 35.984375 0 
L 9.8125 0 
z
" id="DejaVuSans-66"/>
     </defs>
     <g transform="translate(905.5265 95.548287)scale(0.1 -0.1)">
      <use xlink:href="#DejaVuSans-83"/>
      <use x="63.476562" xlink:href="#DejaVuSans-68"/>
      <use x="140.478516" xlink:href="#DejaVuSans-66"/>
      <use x="209.082031" xlink:href="#DejaVuSans-48"/>
     </g>
    </g>
    <g id="line2d_73"/>
    <g id="line2d_74">
     <g>
      <use style="stroke:#000000;" x="887.5265" xlink:href="#m5c01ef4d04" y="106.726412"/>
     </g>
    </g>
    <g id="text_19">
     <!-- SFB0 -->
     <g transform="translate(905.5265 110.226412)scale(0.1 -0.1)">
      <use xlink:href="#DejaVuSans-83"/>
      <use x="63.476562" xlink:href="#DejaVuSans-70"/>
      <use x="120.996094" xlink:href="#DejaVuSans-66"/>
      <use x="189.599609" xlink:href="#DejaVuSans-48"/>
     </g>
    </g>
    <g id="line2d_75"/>
    <g id="line2d_76">
     <g>
      <use style="fill:#bfbf00;stroke:#bfbf00;" x="887.5265" xlink:href="#m4dbc0d0f14" y="121.404538"/>
     </g>
    </g>
    <g id="text_20">
     <!-- SDP0 -->
     <defs>
      <path d="M 19.671875 64.796875 
L 19.671875 37.40625 
L 32.078125 37.40625 
Q 38.96875 37.40625 42.71875 40.96875 
Q 46.484375 44.53125 46.484375 51.125 
Q 46.484375 57.671875 42.71875 61.234375 
Q 38.96875 64.796875 32.078125 64.796875 
z
M 9.8125 72.90625 
L 32.078125 72.90625 
Q 44.34375 72.90625 50.609375 67.359375 
Q 56.890625 61.8125 56.890625 51.125 
Q 56.890625 40.328125 50.609375 34.8125 
Q 44.34375 29.296875 32.078125 29.296875 
L 19.671875 29.296875 
L 19.671875 0 
L 9.8125 0 
z
" id="DejaVuSans-80"/>
     </defs>
     <g transform="translate(905.5265 124.904538)scale(0.1 -0.1)">
      <use xlink:href="#DejaVuSans-83"/>
      <use x="63.476562" xlink:href="#DejaVuSans-68"/>
      <use x="140.478516" xlink:href="#DejaVuSans-80"/>
      <use x="200.78125" xlink:href="#DejaVuSans-48"/>
     </g>
    </g>
    <g id="line2d_77"/>
    <g id="line2d_78">
     <g>
      <use style="fill:#0000ff;stroke:#0000ff;" x="962.798375" xlink:href="#mdd1d8472cd" y="62.692037"/>
     </g>
    </g>
    <g id="text_21">
     <!-- SFP0 -->
     <g transform="translate(980.798375 66.192037)scale(0.1 -0.1)">
      <use xlink:href="#DejaVuSans-83"/>
      <use x="63.476562" xlink:href="#DejaVuSans-70"/>
      <use x="120.996094" xlink:href="#DejaVuSans-80"/>
      <use x="181.298828" xlink:href="#DejaVuSans-48"/>
     </g>
    </g>
    <g id="line2d_79"/>
    <g id="line2d_80">
     <g>
      <use style="fill:#008000;stroke:#008000;" x="962.798375" xlink:href="#m44f761875d" y="77.370162"/>
     </g>
    </g>
    <g id="text_22">
     <!-- SDA1 -->
     <g transform="translate(980.798375 80.870162)scale(0.1 -0.1)">
      <use xlink:href="#DejaVuSans-83"/>
      <use x="63.476562" xlink:href="#DejaVuSans-68"/>
      <use x="140.462891" xlink:href="#DejaVuSans-65"/>
      <use x="208.871094" xlink:href="#DejaVuSans-49"/>
     </g>
    </g>
    <g id="line2d_81"/>
    <g id="line2d_82">
     <g>
      <use style="fill:#ff0000;stroke:#ff0000;" x="962.798375" xlink:href="#mba527c9914" y="92.048287"/>
     </g>
    </g>
    <g id="text_23">
     <!-- SFA1 -->
     <g transform="translate(980.798375 95.548287)scale(0.1 -0.1)">
      <use xlink:href="#DejaVuSans-83"/>
      <use x="63.476562" xlink:href="#DejaVuSans-70"/>
      <use x="120.855469" xlink:href="#DejaVuSans-65"/>
      <use x="189.263672" xlink:href="#DejaVuSans-49"/>
     </g>
    </g>
    <g id="line2d_83"/>
    <g id="line2d_84">
     <g>
      <use style="stroke:#000000;" x="962.798375" xlink:href="#m5c01ef4d04" y="106.726412"/>
     </g>
    </g>
    <g id="text_24">
     <!-- SDB1 -->
     <g transform="translate(980.798375 110.226412)scale(0.1 -0.1)">
      <use xlink:href="#DejaVuSans-83"/>
      <use x="63.476562" xlink:href="#DejaVuSans-68"/>
      <use x="140.478516" xlink:href="#DejaVuSans-66"/>
      <use x="209.082031" xlink:href="#DejaVuSans-49"/>
     </g>
    </g>
    <g id="line2d_85"/>
    <g id="line2d_86">
     <g>
      <use style="fill:#bfbf00;stroke:#bfbf00;" x="1038.07025" xlink:href="#m4dbc0d0f14" y="62.692037"/>
     </g>
    </g>
    <g id="text_25">
     <!-- SFB1 -->
     <g transform="translate(1056.07025 66.192037)scale(0.1 -0.1)">
      <use xlink:href="#DejaVuSans-83"/>
      <use x="63.476562" xlink:href="#DejaVuSans-70"/>
      <use x="120.996094" xlink:href="#DejaVuSans-66"/>
      <use x="189.599609" xlink:href="#DejaVuSans-49"/>
     </g>
    </g>
    <g id="line2d_87"/>
    <g id="line2d_88">
     <g>
      <use style="fill:#0000ff;stroke:#0000ff;" x="1038.07025" xlink:href="#mdd1d8472cd" y="77.370162"/>
     </g>
    </g>
    <g id="text_26">
     <!-- SDP1 -->
     <g transform="translate(1056.07025 80.870162)scale(0.1 -0.1)">
      <use xlink:href="#DejaVuSans-83"/>
      <use x="63.476562" xlink:href="#DejaVuSans-68"/>
      <use x="140.478516" xlink:href="#DejaVuSans-80"/>
      <use x="200.78125" xlink:href="#DejaVuSans-49"/>
     </g>
    </g>
    <g id="line2d_89"/>
    <g id="line2d_90">
     <g>
      <use style="fill:#008000;stroke:#008000;" x="1038.07025" xlink:href="#m44f761875d" y="92.048287"/>
     </g>
    </g>
    <g id="text_27">
     <!-- SFP1 -->
     <g transform="translate(1056.07025 95.548287)scale(0.1 -0.1)">
      <use xlink:href="#DejaVuSans-83"/>
      <use x="63.476562" xlink:href="#DejaVuSans-70"/>
      <use x="120.996094" xlink:href="#DejaVuSans-80"/>
      <use x="181.298828" xlink:href="#DejaVuSans-49"/>
     </g>
    </g>
    <g id="line2d_91"/>
    <g id="line2d_92">
     <g>
      <use style="fill:#ff0000;stroke:#ff0000;" x="1038.07025" xlink:href="#mba527c9914" y="106.726412"/>
     </g>
    </g>
    <g id="text_28">
     <!-- SDA2 -->
     <g transform="translate(1056.07025 110.226412)scale(0.1 -0.1)">
      <use xlink:href="#DejaVuSans-83"/>
      <use x="63.476562" xlink:href="#DejaVuSans-68"/>
      <use x="140.462891" xlink:href="#DejaVuSans-65"/>
      <use x="208.871094" xlink:href="#DejaVuSans-50"/>
     </g>
    </g>
    <g id="line2d_93"/>
    <g id="line2d_94">
     <g>
      <use style="stroke:#000000;" x="1113.32025" xlink:href="#m5c01ef4d04" y="62.692037"/>
     </g>
    </g>
    <g id="text_29">
     <!-- SFA2 -->
     <g transform="translate(1131.32025 66.192037)scale(0.1 -0.1)">
      <use xlink:href="#DejaVuSans-83"/>
      <use x="63.476562" xlink:href="#DejaVuSans-70"/>
      <use x="120.855469" xlink:href="#DejaVuSans-65"/>
      <use x="189.263672" xlink:href="#DejaVuSans-50"/>
     </g>
    </g>
    <g id="line2d_95"/>
    <g id="line2d_96">
     <g>
      <use style="fill:#bfbf00;stroke:#bfbf00;" x="1113.32025" xlink:href="#m4dbc0d0f14" y="77.370162"/>
     </g>
    </g>
    <g id="text_30">
     <!-- SDB2 -->
     <g transform="translate(1131.32025 80.870162)scale(0.1 -0.1)">
      <use xlink:href="#DejaVuSans-83"/>
      <use x="63.476562" xlink:href="#DejaVuSans-68"/>
      <use x="140.478516" xlink:href="#DejaVuSans-66"/>
      <use x="209.082031" xlink:href="#DejaVuSans-50"/>
     </g>
    </g>
    <g id="line2d_97"/>
    <g id="line2d_98">
     <g>
      <use style="fill:#0000ff;stroke:#0000ff;" x="1113.32025" xlink:href="#mdd1d8472cd" y="92.048287"/>
     </g>
    </g>
    <g id="text_31">
     <!-- SFB2 -->
     <g transform="translate(1131.32025 95.548287)scale(0.1 -0.1)">
      <use xlink:href="#DejaVuSans-83"/>
      <use x="63.476562" xlink:href="#DejaVuSans-70"/>
      <use x="120.996094" xlink:href="#DejaVuSans-66"/>
      <use x="189.599609" xlink:href="#DejaVuSans-50"/>
     </g>
    </g>
    <g id="line2d_99"/>
    <g id="line2d_100">
     <g>
      <use style="fill:#008000;stroke:#008000;" x="1113.32025" xlink:href="#m44f761875d" y="106.726412"/>
     </g>
    </g>
    <g id="text_32">
     <!-- SDP2 -->
     <g transform="translate(1131.32025 110.226412)scale(0.1 -0.1)">
      <use xlink:href="#DejaVuSans-83"/>
      <use x="63.476562" xlink:href="#DejaVuSans-68"/>
      <use x="140.478516" xlink:href="#DejaVuSans-80"/>
      <use x="200.78125" xlink:href="#DejaVuSans-50"/>
     </g>
    </g>
    <g id="line2d_101"/>
    <g id="line2d_102">
     <g>
      <use style="fill:#ff0000;stroke:#ff0000;" x="1188.592125" xlink:href="#mba527c9914" y="62.692037"/>
     </g>
    </g>
    <g id="text_33">
     <!-- SFP2 -->
     <g transform="translate(1206.592125 66.192037)scale(0.1 -0.1)">
      <use xlink:href="#DejaVuSans-83"/>
      <use x="63.476562" xlink:href="#DejaVuSans-70"/>
      <use x="120.996094" xlink:href="#DejaVuSans-80"/>
      <use x="181.298828" xlink:href="#DejaVuSans-50"/>
     </g>
    </g>
    <g id="line2d_103"/>
    <g id="line2d_104">
     <g>
      <use style="stroke:#000000;" x="1188.592125" xlink:href="#m5c01ef4d04" y="77.370162"/>
     </g>
    </g>
    <g id="text_34">
     <!-- SDA3 -->
     <defs>
      <path d="M 40.578125 39.3125 
Q 47.65625 37.796875 51.625 33 
Q 55.609375 28.21875 55.609375 21.1875 
Q 55.609375 10.40625 48.1875 4.484375 
Q 40.765625 -1.421875 27.09375 -1.421875 
Q 22.515625 -1.421875 17.65625 -0.515625 
Q 12.796875 0.390625 7.625 2.203125 
L 7.625 11.71875 
Q 11.71875 9.328125 16.59375 8.109375 
Q 21.484375 6.890625 26.8125 6.890625 
Q 36.078125 6.890625 40.9375 10.546875 
Q 45.796875 14.203125 45.796875 21.1875 
Q 45.796875 27.640625 41.28125 31.265625 
Q 36.765625 34.90625 28.71875 34.90625 
L 20.21875 34.90625 
L 20.21875 43.015625 
L 29.109375 43.015625 
Q 36.375 43.015625 40.234375 45.921875 
Q 44.09375 48.828125 44.09375 54.296875 
Q 44.09375 59.90625 40.109375 62.90625 
Q 36.140625 65.921875 28.71875 65.921875 
Q 24.65625 65.921875 20.015625 65.03125 
Q 15.375 64.15625 9.8125 62.3125 
L 9.8125 71.09375 
Q 15.4375 72.65625 20.34375 73.4375 
Q 25.25 74.21875 29.59375 74.21875 
Q 40.828125 74.21875 47.359375 69.109375 
Q 53.90625 64.015625 53.90625 55.328125 
Q 53.90625 49.265625 50.4375 45.09375 
Q 46.96875 40.921875 40.578125 39.3125 
z
" id="DejaVuSans-51"/>
     </defs>
     <g transform="translate(1206.592125 80.870162)scale(0.1 -0.1)">
      <use xlink:href="#DejaVuSans-83"/>
      <use x="63.476562" xlink:href="#DejaVuSans-68"/>
      <use x="140.462891" xlink:href="#DejaVuSans-65"/>
      <use x="208.871094" xlink:href="#DejaVuSans-51"/>
     </g>
    </g>
    <g id="line2d_105"/>
    <g id="line2d_106">
     <g>
      <use style="fill:#bfbf00;stroke:#bfbf00;" x="1188.592125" xlink:href="#m4dbc0d0f14" y="92.048287"/>
     </g>
    </g>
    <g id="text_35">
     <!-- SDB3 -->
     <g transform="translate(1206.592125 95.548287)scale(0.1 -0.1)">
      <use xlink:href="#DejaVuSans-83"/>
      <use x="63.476562" xlink:href="#DejaVuSans-68"/>
      <use x="140.478516" xlink:href="#DejaVuSans-66"/>
      <use x="209.082031" xlink:href="#DejaVuSans-51"/>
     </g>
    </g>
    <g id="line2d_107"/>
    <g id="line2d_108">
     <g>
      <use style="fill:#0000ff;stroke:#0000ff;" x="1188.592125" xlink:href="#mdd1d8472cd" y="106.726412"/>
     </g>
    </g>
    <g id="text_36">
     <!-- SDP3 -->
     <g transform="translate(1206.592125 110.226412)scale(0.1 -0.1)">
      <use xlink:href="#DejaVuSans-83"/>
      <use x="63.476562" xlink:href="#DejaVuSans-68"/>
      <use x="140.478516" xlink:href="#DejaVuSans-80"/>
      <use x="200.78125" xlink:href="#DejaVuSans-51"/>
     </g>
    </g>
   </g>
  </g>
 </g>
 <defs>
  <clipPath id="p7086005a10">
   <rect height="318.2256" width="1070.244" x="172.62" y="49.5936"/>
  </clipPath>
 </defs>
</svg>
