<?xml version="1.0" encoding="utf-8" standalone="no"?>
<!DOCTYPE svg PUBLIC "-//W3C//DTD SVG 1.1//EN"
  "http://www.w3.org/Graphics/SVG/1.1/DTD/svg11.dtd">
<!-- Created with matplotlib (https://matplotlib.org/) -->
<svg height="414pt" version="1.1" viewBox="0 0 1380.96 414" width="1380.96pt" xmlns="http://www.w3.org/2000/svg" xmlns:xlink="http://www.w3.org/1999/xlink">
 <defs>
  <style type="text/css">
*{stroke-linecap:butt;stroke-linejoin:round;}
  </style>
 </defs>
 <g id="figure_1">
  <g id="patch_1">
   <path d="M 0 414 
L 1380.96 414 
L 1380.96 0 
L 0 0 
z
" style="fill:#ffffff;"/>
  </g>
  <g id="axes_1">
   <g id="patch_2">
    <path d="M 172.62 368.46 
L 1242.864 368.46 
L 1242.864 49.68 
L 172.62 49.68 
z
" style="fill:#ffffff;"/>
   </g>
   <g id="matplotlib.axis_1">
    <g id="xtick_1">
     <g id="line2d_1">
      <path clip-path="url(#pc2938f23ab)" d="M 221.267455 368.46 
L 221.267455 49.68 
" style="fill:none;stroke:#b0b0b0;stroke-linecap:square;stroke-width:0.8;"/>
     </g>
     <g id="line2d_2">
      <defs>
       <path d="M 0 0 
L 0 3.5 
" id="m250595c5f2" style="stroke:#000000;stroke-width:0.8;"/>
      </defs>
      <g>
       <use style="stroke:#000000;stroke-width:0.8;" x="221.267455" xlink:href="#m250595c5f2" y="368.46"/>
      </g>
     </g>
     <g id="text_1">
      <!-- 0 -->
      <defs>
       <path d="M 31.78125 66.40625 
Q 24.171875 66.40625 20.328125 58.90625 
Q 16.5 51.421875 16.5 36.375 
Q 16.5 21.390625 20.328125 13.890625 
Q 24.171875 6.390625 31.78125 6.390625 
Q 39.453125 6.390625 43.28125 13.890625 
Q 47.125 21.390625 47.125 36.375 
Q 47.125 51.421875 43.28125 58.90625 
Q 39.453125 66.40625 31.78125 66.40625 
z
M 31.78125 74.21875 
Q 44.046875 74.21875 50.515625 64.515625 
Q 56.984375 54.828125 56.984375 36.375 
Q 56.984375 17.96875 50.515625 8.265625 
Q 44.046875 -1.421875 31.78125 -1.421875 
Q 19.53125 -1.421875 13.0625 8.265625 
Q 6.59375 17.96875 6.59375 36.375 
Q 6.59375 54.828125 13.0625 64.515625 
Q 19.53125 74.21875 31.78125 74.21875 
z
" id="DejaVuSans-48"/>
      </defs>
      <g transform="translate(218.086205 383.058438)scale(0.1 -0.1)">
       <use xlink:href="#DejaVuSans-48"/>
      </g>
     </g>
    </g>
    <g id="xtick_2">
     <g id="line2d_3">
      <path clip-path="url(#pc2938f23ab)" d="M 395.631091 368.46 
L 395.631091 49.68 
" style="fill:none;stroke:#b0b0b0;stroke-linecap:square;stroke-width:0.8;"/>
     </g>
     <g id="line2d_4">
      <g>
       <use style="stroke:#000000;stroke-width:0.8;" x="395.631091" xlink:href="#m250595c5f2" y="368.46"/>
      </g>
     </g>
     <g id="text_2">
      <!-- 50 -->
      <defs>
       <path d="M 10.796875 72.90625 
L 49.515625 72.90625 
L 49.515625 64.59375 
L 19.828125 64.59375 
L 19.828125 46.734375 
Q 21.96875 47.46875 24.109375 47.828125 
Q 26.265625 48.1875 28.421875 48.1875 
Q 40.625 48.1875 47.75 41.5 
Q 54.890625 34.8125 54.890625 23.390625 
Q 54.890625 11.625 47.5625 5.09375 
Q 40.234375 -1.421875 26.90625 -1.421875 
Q 22.3125 -1.421875 17.546875 -0.640625 
Q 12.796875 0.140625 7.71875 1.703125 
L 7.71875 11.625 
Q 12.109375 9.234375 16.796875 8.0625 
Q 21.484375 6.890625 26.703125 6.890625 
Q 35.15625 6.890625 40.078125 11.328125 
Q 45.015625 15.765625 45.015625 23.390625 
Q 45.015625 31 40.078125 35.4375 
Q 35.15625 39.890625 26.703125 39.890625 
Q 22.75 39.890625 18.8125 39.015625 
Q 14.890625 38.140625 10.796875 36.28125 
z
" id="DejaVuSans-53"/>
      </defs>
      <g transform="translate(389.268591 383.058438)scale(0.1 -0.1)">
       <use xlink:href="#DejaVuSans-53"/>
       <use x="63.623047" xlink:href="#DejaVuSans-48"/>
      </g>
     </g>
    </g>
    <g id="xtick_3">
     <g id="line2d_5">
      <path clip-path="url(#pc2938f23ab)" d="M 569.994727 368.46 
L 569.994727 49.68 
" style="fill:none;stroke:#b0b0b0;stroke-linecap:square;stroke-width:0.8;"/>
     </g>
     <g id="line2d_6">
      <g>
       <use style="stroke:#000000;stroke-width:0.8;" x="569.994727" xlink:href="#m250595c5f2" y="368.46"/>
      </g>
     </g>
     <g id="text_3">
      <!-- 100 -->
      <defs>
       <path d="M 12.40625 8.296875 
L 28.515625 8.296875 
L 28.515625 63.921875 
L 10.984375 60.40625 
L 10.984375 69.390625 
L 28.421875 72.90625 
L 38.28125 72.90625 
L 38.28125 8.296875 
L 54.390625 8.296875 
L 54.390625 0 
L 12.40625 0 
z
" id="DejaVuSans-49"/>
      </defs>
      <g transform="translate(560.450977 383.058438)scale(0.1 -0.1)">
       <use xlink:href="#DejaVuSans-49"/>
       <use x="63.623047" xlink:href="#DejaVuSans-48"/>
       <use x="127.246094" xlink:href="#DejaVuSans-48"/>
      </g>
     </g>
    </g>
    <g id="xtick_4">
     <g id="line2d_7">
      <path clip-path="url(#pc2938f23ab)" d="M 744.358364 368.46 
L 744.358364 49.68 
" style="fill:none;stroke:#b0b0b0;stroke-linecap:square;stroke-width:0.8;"/>
     </g>
     <g id="line2d_8">
      <g>
       <use style="stroke:#000000;stroke-width:0.8;" x="744.358364" xlink:href="#m250595c5f2" y="368.46"/>
      </g>
     </g>
     <g id="text_4">
      <!-- 150 -->
      <g transform="translate(734.814614 383.058438)scale(0.1 -0.1)">
       <use xlink:href="#DejaVuSans-49"/>
       <use x="63.623047" xlink:href="#DejaVuSans-53"/>
       <use x="127.246094" xlink:href="#DejaVuSans-48"/>
      </g>
     </g>
    </g>
    <g id="xtick_5">
     <g id="line2d_9">
      <path clip-path="url(#pc2938f23ab)" d="M 918.722 368.46 
L 918.722 49.68 
" style="fill:none;stroke:#b0b0b0;stroke-linecap:square;stroke-width:0.8;"/>
     </g>
     <g id="line2d_10">
      <g>
       <use style="stroke:#000000;stroke-width:0.8;" x="918.722" xlink:href="#m250595c5f2" y="368.46"/>
      </g>
     </g>
     <g id="text_5">
      <!-- 200 -->
      <defs>
       <path d="M 19.1875 8.296875 
L 53.609375 8.296875 
L 53.609375 0 
L 7.328125 0 
L 7.328125 8.296875 
Q 12.9375 14.109375 22.625 23.890625 
Q 32.328125 33.6875 34.8125 36.53125 
Q 39.546875 41.84375 41.421875 45.53125 
Q 43.3125 49.21875 43.3125 52.78125 
Q 43.3125 58.59375 39.234375 62.25 
Q 35.15625 65.921875 28.609375 65.921875 
Q 23.96875 65.921875 18.8125 64.3125 
Q 13.671875 62.703125 7.8125 59.421875 
L 7.8125 69.390625 
Q 13.765625 71.78125 18.9375 73 
Q 24.125 74.21875 28.421875 74.21875 
Q 39.75 74.21875 46.484375 68.546875 
Q 53.21875 62.890625 53.21875 53.421875 
Q 53.21875 48.921875 51.53125 44.890625 
Q 49.859375 40.875 45.40625 35.40625 
Q 44.1875 33.984375 37.640625 27.21875 
Q 31.109375 20.453125 19.1875 8.296875 
z
" id="DejaVuSans-50"/>
      </defs>
      <g transform="translate(909.17825 383.058438)scale(0.1 -0.1)">
       <use xlink:href="#DejaVuSans-50"/>
       <use x="63.623047" xlink:href="#DejaVuSans-48"/>
       <use x="127.246094" xlink:href="#DejaVuSans-48"/>
      </g>
     </g>
    </g>
    <g id="xtick_6">
     <g id="line2d_11">
      <path clip-path="url(#pc2938f23ab)" d="M 1093.085636 368.46 
L 1093.085636 49.68 
" style="fill:none;stroke:#b0b0b0;stroke-linecap:square;stroke-width:0.8;"/>
     </g>
     <g id="line2d_12">
      <g>
       <use style="stroke:#000000;stroke-width:0.8;" x="1093.085636" xlink:href="#m250595c5f2" y="368.46"/>
      </g>
     </g>
     <g id="text_6">
      <!-- 250 -->
      <g transform="translate(1083.541886 383.058438)scale(0.1 -0.1)">
       <use xlink:href="#DejaVuSans-50"/>
       <use x="63.623047" xlink:href="#DejaVuSans-53"/>
       <use x="127.246094" xlink:href="#DejaVuSans-48"/>
      </g>
     </g>
    </g>
    <g id="text_7">
     <!-- Magnet Index -->
     <defs>
      <path d="M 9.8125 72.90625 
L 24.515625 72.90625 
L 43.109375 23.296875 
L 61.8125 72.90625 
L 76.515625 72.90625 
L 76.515625 0 
L 66.890625 0 
L 66.890625 64.015625 
L 48.09375 14.015625 
L 38.1875 14.015625 
L 19.390625 64.015625 
L 19.390625 0 
L 9.8125 0 
z
" id="DejaVuSans-77"/>
      <path d="M 34.28125 27.484375 
Q 23.390625 27.484375 19.1875 25 
Q 14.984375 22.515625 14.984375 16.5 
Q 14.984375 11.71875 18.140625 8.90625 
Q 21.296875 6.109375 26.703125 6.109375 
Q 34.1875 6.109375 38.703125 11.40625 
Q 43.21875 16.703125 43.21875 25.484375 
L 43.21875 27.484375 
z
M 52.203125 31.203125 
L 52.203125 0 
L 43.21875 0 
L 43.21875 8.296875 
Q 40.140625 3.328125 35.546875 0.953125 
Q 30.953125 -1.421875 24.3125 -1.421875 
Q 15.921875 -1.421875 10.953125 3.296875 
Q 6 8.015625 6 15.921875 
Q 6 25.140625 12.171875 29.828125 
Q 18.359375 34.515625 30.609375 34.515625 
L 43.21875 34.515625 
L 43.21875 35.40625 
Q 43.21875 41.609375 39.140625 45 
Q 35.0625 48.390625 27.6875 48.390625 
Q 23 48.390625 18.546875 47.265625 
Q 14.109375 46.140625 10.015625 43.890625 
L 10.015625 52.203125 
Q 14.9375 54.109375 19.578125 55.046875 
Q 24.21875 56 28.609375 56 
Q 40.484375 56 46.34375 49.84375 
Q 52.203125 43.703125 52.203125 31.203125 
z
" id="DejaVuSans-97"/>
      <path d="M 45.40625 27.984375 
Q 45.40625 37.75 41.375 43.109375 
Q 37.359375 48.484375 30.078125 48.484375 
Q 22.859375 48.484375 18.828125 43.109375 
Q 14.796875 37.75 14.796875 27.984375 
Q 14.796875 18.265625 18.828125 12.890625 
Q 22.859375 7.515625 30.078125 7.515625 
Q 37.359375 7.515625 41.375 12.890625 
Q 45.40625 18.265625 45.40625 27.984375 
z
M 54.390625 6.78125 
Q 54.390625 -7.171875 48.1875 -13.984375 
Q 42 -20.796875 29.203125 -20.796875 
Q 24.46875 -20.796875 20.265625 -20.09375 
Q 16.0625 -19.390625 12.109375 -17.921875 
L 12.109375 -9.1875 
Q 16.0625 -11.328125 19.921875 -12.34375 
Q 23.78125 -13.375 27.78125 -13.375 
Q 36.625 -13.375 41.015625 -8.765625 
Q 45.40625 -4.15625 45.40625 5.171875 
L 45.40625 9.625 
Q 42.625 4.78125 38.28125 2.390625 
Q 33.9375 0 27.875 0 
Q 17.828125 0 11.671875 7.65625 
Q 5.515625 15.328125 5.515625 27.984375 
Q 5.515625 40.671875 11.671875 48.328125 
Q 17.828125 56 27.875 56 
Q 33.9375 56 38.28125 53.609375 
Q 42.625 51.21875 45.40625 46.390625 
L 45.40625 54.6875 
L 54.390625 54.6875 
z
" id="DejaVuSans-103"/>
      <path d="M 54.890625 33.015625 
L 54.890625 0 
L 45.90625 0 
L 45.90625 32.71875 
Q 45.90625 40.484375 42.875 44.328125 
Q 39.84375 48.1875 33.796875 48.1875 
Q 26.515625 48.1875 22.3125 43.546875 
Q 18.109375 38.921875 18.109375 30.90625 
L 18.109375 0 
L 9.078125 0 
L 9.078125 54.6875 
L 18.109375 54.6875 
L 18.109375 46.1875 
Q 21.34375 51.125 25.703125 53.5625 
Q 30.078125 56 35.796875 56 
Q 45.21875 56 50.046875 50.171875 
Q 54.890625 44.34375 54.890625 33.015625 
z
" id="DejaVuSans-110"/>
      <path d="M 56.203125 29.59375 
L 56.203125 25.203125 
L 14.890625 25.203125 
Q 15.484375 15.921875 20.484375 11.0625 
Q 25.484375 6.203125 34.421875 6.203125 
Q 39.59375 6.203125 44.453125 7.46875 
Q 49.3125 8.734375 54.109375 11.28125 
L 54.109375 2.78125 
Q 49.265625 0.734375 44.1875 -0.34375 
Q 39.109375 -1.421875 33.890625 -1.421875 
Q 20.796875 -1.421875 13.15625 6.1875 
Q 5.515625 13.8125 5.515625 26.8125 
Q 5.515625 40.234375 12.765625 48.109375 
Q 20.015625 56 32.328125 56 
Q 43.359375 56 49.78125 48.890625 
Q 56.203125 41.796875 56.203125 29.59375 
z
M 47.21875 32.234375 
Q 47.125 39.59375 43.09375 43.984375 
Q 39.0625 48.390625 32.421875 48.390625 
Q 24.90625 48.390625 20.390625 44.140625 
Q 15.875 39.890625 15.1875 32.171875 
z
" id="DejaVuSans-101"/>
      <path d="M 18.3125 70.21875 
L 18.3125 54.6875 
L 36.8125 54.6875 
L 36.8125 47.703125 
L 18.3125 47.703125 
L 18.3125 18.015625 
Q 18.3125 11.328125 20.140625 9.421875 
Q 21.96875 7.515625 27.59375 7.515625 
L 36.8125 7.515625 
L 36.8125 0 
L 27.59375 0 
Q 17.1875 0 13.234375 3.875 
Q 9.28125 7.765625 9.28125 18.015625 
L 9.28125 47.703125 
L 2.6875 47.703125 
L 2.6875 54.6875 
L 9.28125 54.6875 
L 9.28125 70.21875 
z
" id="DejaVuSans-116"/>
      <path id="DejaVuSans-32"/>
      <path d="M 9.8125 72.90625 
L 19.671875 72.90625 
L 19.671875 0 
L 9.8125 0 
z
" id="DejaVuSans-73"/>
      <path d="M 45.40625 46.390625 
L 45.40625 75.984375 
L 54.390625 75.984375 
L 54.390625 0 
L 45.40625 0 
L 45.40625 8.203125 
Q 42.578125 3.328125 38.25 0.953125 
Q 33.9375 -1.421875 27.875 -1.421875 
Q 17.96875 -1.421875 11.734375 6.484375 
Q 5.515625 14.40625 5.515625 27.296875 
Q 5.515625 40.1875 11.734375 48.09375 
Q 17.96875 56 27.875 56 
Q 33.9375 56 38.25 53.625 
Q 42.578125 51.265625 45.40625 46.390625 
z
M 14.796875 27.296875 
Q 14.796875 17.390625 18.875 11.75 
Q 22.953125 6.109375 30.078125 6.109375 
Q 37.203125 6.109375 41.296875 11.75 
Q 45.40625 17.390625 45.40625 27.296875 
Q 45.40625 37.203125 41.296875 42.84375 
Q 37.203125 48.484375 30.078125 48.484375 
Q 22.953125 48.484375 18.875 42.84375 
Q 14.796875 37.203125 14.796875 27.296875 
z
" id="DejaVuSans-100"/>
      <path d="M 54.890625 54.6875 
L 35.109375 28.078125 
L 55.90625 0 
L 45.3125 0 
L 29.390625 21.484375 
L 13.484375 0 
L 2.875 0 
L 24.125 28.609375 
L 4.6875 54.6875 
L 15.28125 54.6875 
L 29.78125 35.203125 
L 44.28125 54.6875 
z
" id="DejaVuSans-120"/>
     </defs>
     <g transform="translate(673.542 396.736562)scale(0.1 -0.1)">
      <use xlink:href="#DejaVuSans-77"/>
      <use x="86.279297" xlink:href="#DejaVuSans-97"/>
      <use x="147.558594" xlink:href="#DejaVuSans-103"/>
      <use x="211.035156" xlink:href="#DejaVuSans-110"/>
      <use x="274.414062" xlink:href="#DejaVuSans-101"/>
      <use x="335.9375" xlink:href="#DejaVuSans-116"/>
      <use x="375.146484" xlink:href="#DejaVuSans-32"/>
      <use x="406.933594" xlink:href="#DejaVuSans-73"/>
      <use x="436.425781" xlink:href="#DejaVuSans-110"/>
      <use x="499.804688" xlink:href="#DejaVuSans-100"/>
      <use x="563.28125" xlink:href="#DejaVuSans-101"/>
      <use x="624.789062" xlink:href="#DejaVuSans-120"/>
     </g>
    </g>
   </g>
   <g id="matplotlib.axis_2">
    <g id="ytick_1">
     <g id="line2d_13">
      <path clip-path="url(#pc2938f23ab)" d="M 172.62 359.419534 
L 1242.864 359.419534 
" style="fill:none;stroke:#b0b0b0;stroke-linecap:square;stroke-width:0.8;"/>
     </g>
     <g id="line2d_14">
      <defs>
       <path d="M 0 0 
L -3.5 0 
" id="m91d4da4c97" style="stroke:#000000;stroke-width:0.8;"/>
      </defs>
      <g>
       <use style="stroke:#000000;stroke-width:0.8;" x="172.62" xlink:href="#m91d4da4c97" y="359.419534"/>
      </g>
     </g>
     <g id="text_8">
      <!-- −5 -->
      <defs>
       <path d="M 10.59375 35.5 
L 73.1875 35.5 
L 73.1875 27.203125 
L 10.59375 27.203125 
z
" id="DejaVuSans-8722"/>
      </defs>
      <g transform="translate(150.877813 363.218753)scale(0.1 -0.1)">
       <use xlink:href="#DejaVuSans-8722"/>
       <use x="83.789062" xlink:href="#DejaVuSans-53"/>
      </g>
     </g>
    </g>
    <g id="ytick_2">
     <g id="line2d_15">
      <path clip-path="url(#pc2938f23ab)" d="M 172.62 322.666423 
L 1242.864 322.666423 
" style="fill:none;stroke:#b0b0b0;stroke-linecap:square;stroke-width:0.8;"/>
     </g>
     <g id="line2d_16">
      <g>
       <use style="stroke:#000000;stroke-width:0.8;" x="172.62" xlink:href="#m91d4da4c97" y="322.666423"/>
      </g>
     </g>
     <g id="text_9">
      <!-- 0 -->
      <g transform="translate(159.2575 326.465641)scale(0.1 -0.1)">
       <use xlink:href="#DejaVuSans-48"/>
      </g>
     </g>
    </g>
    <g id="ytick_3">
     <g id="line2d_17">
      <path clip-path="url(#pc2938f23ab)" d="M 172.62 285.913312 
L 1242.864 285.913312 
" style="fill:none;stroke:#b0b0b0;stroke-linecap:square;stroke-width:0.8;"/>
     </g>
     <g id="line2d_18">
      <g>
       <use style="stroke:#000000;stroke-width:0.8;" x="172.62" xlink:href="#m91d4da4c97" y="285.913312"/>
      </g>
     </g>
     <g id="text_10">
      <!-- 5 -->
      <g transform="translate(159.2575 289.71253)scale(0.1 -0.1)">
       <use xlink:href="#DejaVuSans-53"/>
      </g>
     </g>
    </g>
    <g id="ytick_4">
     <g id="line2d_19">
      <path clip-path="url(#pc2938f23ab)" d="M 172.62 249.1602 
L 1242.864 249.1602 
" style="fill:none;stroke:#b0b0b0;stroke-linecap:square;stroke-width:0.8;"/>
     </g>
     <g id="line2d_20">
      <g>
       <use style="stroke:#000000;stroke-width:0.8;" x="172.62" xlink:href="#m91d4da4c97" y="249.1602"/>
      </g>
     </g>
     <g id="text_11">
      <!-- 10 -->
      <g transform="translate(152.895 252.959419)scale(0.1 -0.1)">
       <use xlink:href="#DejaVuSans-49"/>
       <use x="63.623047" xlink:href="#DejaVuSans-48"/>
      </g>
     </g>
    </g>
    <g id="ytick_5">
     <g id="line2d_21">
      <path clip-path="url(#pc2938f23ab)" d="M 172.62 212.407089 
L 1242.864 212.407089 
" style="fill:none;stroke:#b0b0b0;stroke-linecap:square;stroke-width:0.8;"/>
     </g>
     <g id="line2d_22">
      <g>
       <use style="stroke:#000000;stroke-width:0.8;" x="172.62" xlink:href="#m91d4da4c97" y="212.407089"/>
      </g>
     </g>
     <g id="text_12">
      <!-- 15 -->
      <g transform="translate(152.895 216.206308)scale(0.1 -0.1)">
       <use xlink:href="#DejaVuSans-49"/>
       <use x="63.623047" xlink:href="#DejaVuSans-53"/>
      </g>
     </g>
    </g>
    <g id="ytick_6">
     <g id="line2d_23">
      <path clip-path="url(#pc2938f23ab)" d="M 172.62 175.653978 
L 1242.864 175.653978 
" style="fill:none;stroke:#b0b0b0;stroke-linecap:square;stroke-width:0.8;"/>
     </g>
     <g id="line2d_24">
      <g>
       <use style="stroke:#000000;stroke-width:0.8;" x="172.62" xlink:href="#m91d4da4c97" y="175.653978"/>
      </g>
     </g>
     <g id="text_13">
      <!-- 20 -->
      <g transform="translate(152.895 179.453197)scale(0.1 -0.1)">
       <use xlink:href="#DejaVuSans-50"/>
       <use x="63.623047" xlink:href="#DejaVuSans-48"/>
      </g>
     </g>
    </g>
    <g id="ytick_7">
     <g id="line2d_25">
      <path clip-path="url(#pc2938f23ab)" d="M 172.62 138.900867 
L 1242.864 138.900867 
" style="fill:none;stroke:#b0b0b0;stroke-linecap:square;stroke-width:0.8;"/>
     </g>
     <g id="line2d_26">
      <g>
       <use style="stroke:#000000;stroke-width:0.8;" x="172.62" xlink:href="#m91d4da4c97" y="138.900867"/>
      </g>
     </g>
     <g id="text_14">
      <!-- 25 -->
      <g transform="translate(152.895 142.700086)scale(0.1 -0.1)">
       <use xlink:href="#DejaVuSans-50"/>
       <use x="63.623047" xlink:href="#DejaVuSans-53"/>
      </g>
     </g>
    </g>
    <g id="ytick_8">
     <g id="line2d_27">
      <path clip-path="url(#pc2938f23ab)" d="M 172.62 102.147756 
L 1242.864 102.147756 
" style="fill:none;stroke:#b0b0b0;stroke-linecap:square;stroke-width:0.8;"/>
     </g>
     <g id="line2d_28">
      <g>
       <use style="stroke:#000000;stroke-width:0.8;" x="172.62" xlink:href="#m91d4da4c97" y="102.147756"/>
      </g>
     </g>
     <g id="text_15">
      <!-- 30 -->
      <defs>
       <path d="M 40.578125 39.3125 
Q 47.65625 37.796875 51.625 33 
Q 55.609375 28.21875 55.609375 21.1875 
Q 55.609375 10.40625 48.1875 4.484375 
Q 40.765625 -1.421875 27.09375 -1.421875 
Q 22.515625 -1.421875 17.65625 -0.515625 
Q 12.796875 0.390625 7.625 2.203125 
L 7.625 11.71875 
Q 11.71875 9.328125 16.59375 8.109375 
Q 21.484375 6.890625 26.8125 6.890625 
Q 36.078125 6.890625 40.9375 10.546875 
Q 45.796875 14.203125 45.796875 21.1875 
Q 45.796875 27.640625 41.28125 31.265625 
Q 36.765625 34.90625 28.71875 34.90625 
L 20.21875 34.90625 
L 20.21875 43.015625 
L 29.109375 43.015625 
Q 36.375 43.015625 40.234375 45.921875 
Q 44.09375 48.828125 44.09375 54.296875 
Q 44.09375 59.90625 40.109375 62.90625 
Q 36.140625 65.921875 28.71875 65.921875 
Q 24.65625 65.921875 20.015625 65.03125 
Q 15.375 64.15625 9.8125 62.3125 
L 9.8125 71.09375 
Q 15.4375 72.65625 20.34375 73.4375 
Q 25.25 74.21875 29.59375 74.21875 
Q 40.828125 74.21875 47.359375 69.109375 
Q 53.90625 64.015625 53.90625 55.328125 
Q 53.90625 49.265625 50.4375 45.09375 
Q 46.96875 40.921875 40.578125 39.3125 
z
" id="DejaVuSans-51"/>
      </defs>
      <g transform="translate(152.895 105.946974)scale(0.1 -0.1)">
       <use xlink:href="#DejaVuSans-51"/>
       <use x="63.623047" xlink:href="#DejaVuSans-48"/>
      </g>
     </g>
    </g>
    <g id="ytick_9">
     <g id="line2d_29">
      <path clip-path="url(#pc2938f23ab)" d="M 172.62 65.394644 
L 1242.864 65.394644 
" style="fill:none;stroke:#b0b0b0;stroke-linecap:square;stroke-width:0.8;"/>
     </g>
     <g id="line2d_30">
      <g>
       <use style="stroke:#000000;stroke-width:0.8;" x="172.62" xlink:href="#m91d4da4c97" y="65.394644"/>
      </g>
     </g>
     <g id="text_16">
      <!-- 35 -->
      <g transform="translate(152.895 69.193863)scale(0.1 -0.1)">
       <use xlink:href="#DejaVuSans-51"/>
       <use x="63.623047" xlink:href="#DejaVuSans-53"/>
      </g>
     </g>
    </g>
    <g id="text_17">
     <!-- X [um] -->
     <defs>
      <path d="M 6.296875 72.90625 
L 16.890625 72.90625 
L 35.015625 45.796875 
L 53.21875 72.90625 
L 63.8125 72.90625 
L 40.375 37.890625 
L 65.375 0 
L 54.78125 0 
L 34.28125 31 
L 13.625 0 
L 2.984375 0 
L 29 38.921875 
z
" id="DejaVuSans-88"/>
      <path d="M 8.59375 75.984375 
L 29.296875 75.984375 
L 29.296875 69 
L 17.578125 69 
L 17.578125 -6.203125 
L 29.296875 -6.203125 
L 29.296875 -13.1875 
L 8.59375 -13.1875 
z
" id="DejaVuSans-91"/>
      <path d="M 8.5 21.578125 
L 8.5 54.6875 
L 17.484375 54.6875 
L 17.484375 21.921875 
Q 17.484375 14.15625 20.5 10.265625 
Q 23.53125 6.390625 29.59375 6.390625 
Q 36.859375 6.390625 41.078125 11.03125 
Q 45.3125 15.671875 45.3125 23.6875 
L 45.3125 54.6875 
L 54.296875 54.6875 
L 54.296875 0 
L 45.3125 0 
L 45.3125 8.40625 
Q 42.046875 3.421875 37.71875 1 
Q 33.40625 -1.421875 27.6875 -1.421875 
Q 18.265625 -1.421875 13.375 4.4375 
Q 8.5 10.296875 8.5 21.578125 
z
M 31.109375 56 
z
" id="DejaVuSans-117"/>
      <path d="M 52 44.1875 
Q 55.375 50.25 60.0625 53.125 
Q 64.75 56 71.09375 56 
Q 79.640625 56 84.28125 50.015625 
Q 88.921875 44.046875 88.921875 33.015625 
L 88.921875 0 
L 79.890625 0 
L 79.890625 32.71875 
Q 79.890625 40.578125 77.09375 44.375 
Q 74.3125 48.1875 68.609375 48.1875 
Q 61.625 48.1875 57.5625 43.546875 
Q 53.515625 38.921875 53.515625 30.90625 
L 53.515625 0 
L 44.484375 0 
L 44.484375 32.71875 
Q 44.484375 40.625 41.703125 44.40625 
Q 38.921875 48.1875 33.109375 48.1875 
Q 26.21875 48.1875 22.15625 43.53125 
Q 18.109375 38.875 18.109375 30.90625 
L 18.109375 0 
L 9.078125 0 
L 9.078125 54.6875 
L 18.109375 54.6875 
L 18.109375 46.1875 
Q 21.1875 51.21875 25.484375 53.609375 
Q 29.78125 56 35.6875 56 
Q 41.65625 56 45.828125 52.96875 
Q 50 49.953125 52 44.1875 
z
" id="DejaVuSans-109"/>
      <path d="M 30.421875 75.984375 
L 30.421875 -13.1875 
L 9.71875 -13.1875 
L 9.71875 -6.203125 
L 21.390625 -6.203125 
L 21.390625 69 
L 9.71875 69 
L 9.71875 75.984375 
z
" id="DejaVuSans-93"/>
     </defs>
     <g transform="translate(144.798125 226.024688)rotate(-90)scale(0.1 -0.1)">
      <use xlink:href="#DejaVuSans-88"/>
      <use x="68.505859" xlink:href="#DejaVuSans-32"/>
      <use x="100.292969" xlink:href="#DejaVuSans-91"/>
      <use x="139.306641" xlink:href="#DejaVuSans-117"/>
      <use x="202.685547" xlink:href="#DejaVuSans-109"/>
      <use x="300.097656" xlink:href="#DejaVuSans-93"/>
     </g>
    </g>
   </g>
   <g id="line2d_31">
    <path clip-path="url(#pc2938f23ab)" d="M 221.267455 205.274058 
L 224.754727 196.135194 
L 228.242 233.739293 
L 231.729273 149.882892 
L 235.216545 274.327771 
L 238.703818 299.742492 
L 242.191091 211.579076 
L 245.678364 353.97 
L 249.165636 221.008205 
L 252.652909 255.18229 
" style="fill:none;stroke:#0000ff;stroke-linecap:square;stroke-width:1.5;"/>
   </g>
   <g id="line2d_32">
    <defs>
     <path d="M 0 3 
C 0.795609 3 1.55874 2.683901 2.12132 2.12132 
C 2.683901 1.55874 3 0.795609 3 0 
C 3 -0.795609 2.683901 -1.55874 2.12132 -2.12132 
C 1.55874 -2.683901 0.795609 -3 0 -3 
C -0.795609 -3 -1.55874 -2.683901 -2.12132 -2.12132 
C -2.683901 -1.55874 -3 -0.795609 -3 0 
C -3 0.795609 -2.683901 1.55874 -2.12132 2.12132 
C -1.55874 2.683901 -0.795609 3 0 3 
z
" id="ma2fe97d978" style="stroke:#0000ff;"/>
    </defs>
    <g clip-path="url(#pc2938f23ab)">
     <use style="fill:#0000ff;stroke:#0000ff;" x="221.267455" xlink:href="#ma2fe97d978" y="205.274058"/>
     <use style="fill:#0000ff;stroke:#0000ff;" x="224.754727" xlink:href="#ma2fe97d978" y="196.135194"/>
     <use style="fill:#0000ff;stroke:#0000ff;" x="228.242" xlink:href="#ma2fe97d978" y="233.739293"/>
     <use style="fill:#0000ff;stroke:#0000ff;" x="231.729273" xlink:href="#ma2fe97d978" y="149.882892"/>
     <use style="fill:#0000ff;stroke:#0000ff;" x="235.216545" xlink:href="#ma2fe97d978" y="274.327771"/>
     <use style="fill:#0000ff;stroke:#0000ff;" x="238.703818" xlink:href="#ma2fe97d978" y="299.742492"/>
     <use style="fill:#0000ff;stroke:#0000ff;" x="242.191091" xlink:href="#ma2fe97d978" y="211.579076"/>
     <use style="fill:#0000ff;stroke:#0000ff;" x="245.678364" xlink:href="#ma2fe97d978" y="353.97"/>
     <use style="fill:#0000ff;stroke:#0000ff;" x="249.165636" xlink:href="#ma2fe97d978" y="221.008205"/>
     <use style="fill:#0000ff;stroke:#0000ff;" x="252.652909" xlink:href="#ma2fe97d978" y="255.18229"/>
    </g>
   </g>
   <g id="line2d_33">
    <path clip-path="url(#pc2938f23ab)" d="M 256.140182 208.312455 
L 259.627455 218.385649 
L 263.114727 281.3348 
L 266.602 159.286516 
L 270.089273 194.402741 
L 273.576545 215.923928 
L 277.063818 261.652424 
L 280.551091 210.78392 
L 284.038364 165.130966 
L 287.525636 184.00159 
" style="fill:none;stroke:#008000;stroke-linecap:square;stroke-width:1.5;"/>
   </g>
   <g id="line2d_34">
    <defs>
     <path d="M 0 3 
C 0.795609 3 1.55874 2.683901 2.12132 2.12132 
C 2.683901 1.55874 3 0.795609 3 0 
C 3 -0.795609 2.683901 -1.55874 2.12132 -2.12132 
C 1.55874 -2.683901 0.795609 -3 0 -3 
C -0.795609 -3 -1.55874 -2.683901 -2.12132 -2.12132 
C -2.683901 -1.55874 -3 -0.795609 -3 0 
C -3 0.795609 -2.683901 1.55874 -2.12132 2.12132 
C -1.55874 2.683901 -0.795609 3 0 3 
z
" id="mf95fb73374" style="stroke:#008000;"/>
    </defs>
    <g clip-path="url(#pc2938f23ab)">
     <use style="fill:#008000;stroke:#008000;" x="256.140182" xlink:href="#mf95fb73374" y="208.312455"/>
     <use style="fill:#008000;stroke:#008000;" x="259.627455" xlink:href="#mf95fb73374" y="218.385649"/>
     <use style="fill:#008000;stroke:#008000;" x="263.114727" xlink:href="#mf95fb73374" y="281.3348"/>
     <use style="fill:#008000;stroke:#008000;" x="266.602" xlink:href="#mf95fb73374" y="159.286516"/>
     <use style="fill:#008000;stroke:#008000;" x="270.089273" xlink:href="#mf95fb73374" y="194.402741"/>
     <use style="fill:#008000;stroke:#008000;" x="273.576545" xlink:href="#mf95fb73374" y="215.923928"/>
     <use style="fill:#008000;stroke:#008000;" x="277.063818" xlink:href="#mf95fb73374" y="261.652424"/>
     <use style="fill:#008000;stroke:#008000;" x="280.551091" xlink:href="#mf95fb73374" y="210.78392"/>
     <use style="fill:#008000;stroke:#008000;" x="284.038364" xlink:href="#mf95fb73374" y="165.130966"/>
     <use style="fill:#008000;stroke:#008000;" x="287.525636" xlink:href="#mf95fb73374" y="184.00159"/>
    </g>
   </g>
   <g id="line2d_35">
    <path clip-path="url(#pc2938f23ab)" d="M 291.012909 206.973597 
L 294.500182 183.298746 
L 297.987455 212.633881 
L 301.474727 261.900436 
L 304.962 87.625144 
L 308.449273 214.710829 
L 311.936545 248.34922 
L 315.423818 274.575054 
L 318.911091 262.079254 
L 322.398364 216.440471 
L 325.885636 215.646847 
L 329.372909 251.942402 
L 332.860182 220.631964 
L 336.347455 235.062747 
L 339.834727 211.436149 
L 343.322 279.749642 
L 346.809273 230.732258 
L 350.296545 156.929331 
L 353.783818 177.491261 
L 357.271091 168.742056 
" style="fill:none;stroke:#ff0000;stroke-linecap:square;stroke-width:1.5;"/>
   </g>
   <g id="line2d_36">
    <defs>
     <path d="M 0 3 
C 0.795609 3 1.55874 2.683901 2.12132 2.12132 
C 2.683901 1.55874 3 0.795609 3 0 
C 3 -0.795609 2.683901 -1.55874 2.12132 -2.12132 
C 1.55874 -2.683901 0.795609 -3 0 -3 
C -0.795609 -3 -1.55874 -2.683901 -2.12132 -2.12132 
C -2.683901 -1.55874 -3 -0.795609 -3 0 
C -3 0.795609 -2.683901 1.55874 -2.12132 2.12132 
C -1.55874 2.683901 -0.795609 3 0 3 
z
" id="m24069ac234" style="stroke:#ff0000;"/>
    </defs>
    <g clip-path="url(#pc2938f23ab)">
     <use style="fill:#ff0000;stroke:#ff0000;" x="291.012909" xlink:href="#m24069ac234" y="206.973597"/>
     <use style="fill:#ff0000;stroke:#ff0000;" x="294.500182" xlink:href="#m24069ac234" y="183.298746"/>
     <use style="fill:#ff0000;stroke:#ff0000;" x="297.987455" xlink:href="#m24069ac234" y="212.633881"/>
     <use style="fill:#ff0000;stroke:#ff0000;" x="301.474727" xlink:href="#m24069ac234" y="261.900436"/>
     <use style="fill:#ff0000;stroke:#ff0000;" x="304.962" xlink:href="#m24069ac234" y="87.625144"/>
     <use style="fill:#ff0000;stroke:#ff0000;" x="308.449273" xlink:href="#m24069ac234" y="214.710829"/>
     <use style="fill:#ff0000;stroke:#ff0000;" x="311.936545" xlink:href="#m24069ac234" y="248.34922"/>
     <use style="fill:#ff0000;stroke:#ff0000;" x="315.423818" xlink:href="#m24069ac234" y="274.575054"/>
     <use style="fill:#ff0000;stroke:#ff0000;" x="318.911091" xlink:href="#m24069ac234" y="262.079254"/>
     <use style="fill:#ff0000;stroke:#ff0000;" x="322.398364" xlink:href="#m24069ac234" y="216.440471"/>
     <use style="fill:#ff0000;stroke:#ff0000;" x="325.885636" xlink:href="#m24069ac234" y="215.646847"/>
     <use style="fill:#ff0000;stroke:#ff0000;" x="329.372909" xlink:href="#m24069ac234" y="251.942402"/>
     <use style="fill:#ff0000;stroke:#ff0000;" x="332.860182" xlink:href="#m24069ac234" y="220.631964"/>
     <use style="fill:#ff0000;stroke:#ff0000;" x="336.347455" xlink:href="#m24069ac234" y="235.062747"/>
     <use style="fill:#ff0000;stroke:#ff0000;" x="339.834727" xlink:href="#m24069ac234" y="211.436149"/>
     <use style="fill:#ff0000;stroke:#ff0000;" x="343.322" xlink:href="#m24069ac234" y="279.749642"/>
     <use style="fill:#ff0000;stroke:#ff0000;" x="346.809273" xlink:href="#m24069ac234" y="230.732258"/>
     <use style="fill:#ff0000;stroke:#ff0000;" x="350.296545" xlink:href="#m24069ac234" y="156.929331"/>
     <use style="fill:#ff0000;stroke:#ff0000;" x="353.783818" xlink:href="#m24069ac234" y="177.491261"/>
     <use style="fill:#ff0000;stroke:#ff0000;" x="357.271091" xlink:href="#m24069ac234" y="168.742056"/>
    </g>
   </g>
   <g id="line2d_37">
    <path clip-path="url(#pc2938f23ab)" d="M 360.758364 155.806338 
L 364.245636 239.506876 
L 367.732909 217.272656 
L 371.220182 267.948425 
L 374.707455 156.457784 
L 378.194727 179.900689 
L 381.682 259.913608 
L 385.169273 64.17 
L 388.656545 149.282877 
L 392.143818 200.856236 
L 395.631091 216.20648 
L 399.118364 102.840933 
L 402.605636 104.870124 
L 406.092909 162.365977 
L 409.580182 222.994338 
L 413.067455 225.884147 
L 416.554727 145.405765 
L 420.042 190.159766 
L 423.529273 128.614932 
L 427.016545 74.887513 
" style="fill:none;stroke:#000000;stroke-linecap:square;stroke-width:1.5;"/>
   </g>
   <g id="line2d_38">
    <defs>
     <path d="M 0 3 
C 0.795609 3 1.55874 2.683901 2.12132 2.12132 
C 2.683901 1.55874 3 0.795609 3 0 
C 3 -0.795609 2.683901 -1.55874 2.12132 -2.12132 
C 1.55874 -2.683901 0.795609 -3 0 -3 
C -0.795609 -3 -1.55874 -2.683901 -2.12132 -2.12132 
C -2.683901 -1.55874 -3 -0.795609 -3 0 
C -3 0.795609 -2.683901 1.55874 -2.12132 2.12132 
C -1.55874 2.683901 -0.795609 3 0 3 
z
" id="mb6bccf4ee0" style="stroke:#000000;"/>
    </defs>
    <g clip-path="url(#pc2938f23ab)">
     <use style="stroke:#000000;" x="360.758364" xlink:href="#mb6bccf4ee0" y="155.806338"/>
     <use style="stroke:#000000;" x="364.245636" xlink:href="#mb6bccf4ee0" y="239.506876"/>
     <use style="stroke:#000000;" x="367.732909" xlink:href="#mb6bccf4ee0" y="217.272656"/>
     <use style="stroke:#000000;" x="371.220182" xlink:href="#mb6bccf4ee0" y="267.948425"/>
     <use style="stroke:#000000;" x="374.707455" xlink:href="#mb6bccf4ee0" y="156.457784"/>
     <use style="stroke:#000000;" x="378.194727" xlink:href="#mb6bccf4ee0" y="179.900689"/>
     <use style="stroke:#000000;" x="381.682" xlink:href="#mb6bccf4ee0" y="259.913608"/>
     <use style="stroke:#000000;" x="385.169273" xlink:href="#mb6bccf4ee0" y="64.17"/>
     <use style="stroke:#000000;" x="388.656545" xlink:href="#mb6bccf4ee0" y="149.282877"/>
     <use style="stroke:#000000;" x="392.143818" xlink:href="#mb6bccf4ee0" y="200.856236"/>
     <use style="stroke:#000000;" x="395.631091" xlink:href="#mb6bccf4ee0" y="216.20648"/>
     <use style="stroke:#000000;" x="399.118364" xlink:href="#mb6bccf4ee0" y="102.840933"/>
     <use style="stroke:#000000;" x="402.605636" xlink:href="#mb6bccf4ee0" y="104.870124"/>
     <use style="stroke:#000000;" x="406.092909" xlink:href="#mb6bccf4ee0" y="162.365977"/>
     <use style="stroke:#000000;" x="409.580182" xlink:href="#mb6bccf4ee0" y="222.994338"/>
     <use style="stroke:#000000;" x="413.067455" xlink:href="#mb6bccf4ee0" y="225.884147"/>
     <use style="stroke:#000000;" x="416.554727" xlink:href="#mb6bccf4ee0" y="145.405765"/>
     <use style="stroke:#000000;" x="420.042" xlink:href="#mb6bccf4ee0" y="190.159766"/>
     <use style="stroke:#000000;" x="423.529273" xlink:href="#mb6bccf4ee0" y="128.614932"/>
     <use style="stroke:#000000;" x="427.016545" xlink:href="#mb6bccf4ee0" y="74.887513"/>
    </g>
   </g>
   <g id="line2d_39">
    <path clip-path="url(#pc2938f23ab)" d="M 430.503818 210.097489 
L 433.991091 295.548713 
L 437.478364 184.381425 
L 440.965636 272.993367 
L 444.452909 227.910646 
L 447.940182 205.90512 
L 451.427455 254.501345 
L 454.914727 259.743656 
L 458.402 242.640053 
L 461.889273 184.733007 
" style="fill:none;stroke:#bfbf00;stroke-linecap:square;stroke-width:1.5;"/>
   </g>
   <g id="line2d_40">
    <defs>
     <path d="M 0 3 
C 0.795609 3 1.55874 2.683901 2.12132 2.12132 
C 2.683901 1.55874 3 0.795609 3 0 
C 3 -0.795609 2.683901 -1.55874 2.12132 -2.12132 
C 1.55874 -2.683901 0.795609 -3 0 -3 
C -0.795609 -3 -1.55874 -2.683901 -2.12132 -2.12132 
C -2.683901 -1.55874 -3 -0.795609 -3 0 
C -3 0.795609 -2.683901 1.55874 -2.12132 2.12132 
C -1.55874 2.683901 -0.795609 3 0 3 
z
" id="ma3a9f9bc56" style="stroke:#bfbf00;"/>
    </defs>
    <g clip-path="url(#pc2938f23ab)">
     <use style="fill:#bfbf00;stroke:#bfbf00;" x="430.503818" xlink:href="#ma3a9f9bc56" y="210.097489"/>
     <use style="fill:#bfbf00;stroke:#bfbf00;" x="433.991091" xlink:href="#ma3a9f9bc56" y="295.548713"/>
     <use style="fill:#bfbf00;stroke:#bfbf00;" x="437.478364" xlink:href="#ma3a9f9bc56" y="184.381425"/>
     <use style="fill:#bfbf00;stroke:#bfbf00;" x="440.965636" xlink:href="#ma3a9f9bc56" y="272.993367"/>
     <use style="fill:#bfbf00;stroke:#bfbf00;" x="444.452909" xlink:href="#ma3a9f9bc56" y="227.910646"/>
     <use style="fill:#bfbf00;stroke:#bfbf00;" x="447.940182" xlink:href="#ma3a9f9bc56" y="205.90512"/>
     <use style="fill:#bfbf00;stroke:#bfbf00;" x="451.427455" xlink:href="#ma3a9f9bc56" y="254.501345"/>
     <use style="fill:#bfbf00;stroke:#bfbf00;" x="454.914727" xlink:href="#ma3a9f9bc56" y="259.743656"/>
     <use style="fill:#bfbf00;stroke:#bfbf00;" x="458.402" xlink:href="#ma3a9f9bc56" y="242.640053"/>
     <use style="fill:#bfbf00;stroke:#bfbf00;" x="461.889273" xlink:href="#ma3a9f9bc56" y="184.733007"/>
    </g>
   </g>
   <g id="line2d_41">
    <path clip-path="url(#pc2938f23ab)" d="M 465.376545 200.991807 
L 468.863818 265.367966 
L 472.351091 224.302247 
L 475.838364 204.359419 
L 479.325636 194.38962 
L 482.812909 253.198493 
L 486.300182 142.160562 
L 489.787455 87.860938 
L 493.274727 227.550163 
L 496.762 240.328883 
" style="fill:none;stroke:#0000ff;stroke-linecap:square;stroke-width:1.5;"/>
   </g>
   <g id="line2d_42">
    <g clip-path="url(#pc2938f23ab)">
     <use style="fill:#0000ff;stroke:#0000ff;" x="465.376545" xlink:href="#ma2fe97d978" y="200.991807"/>
     <use style="fill:#0000ff;stroke:#0000ff;" x="468.863818" xlink:href="#ma2fe97d978" y="265.367966"/>
     <use style="fill:#0000ff;stroke:#0000ff;" x="472.351091" xlink:href="#ma2fe97d978" y="224.302247"/>
     <use style="fill:#0000ff;stroke:#0000ff;" x="475.838364" xlink:href="#ma2fe97d978" y="204.359419"/>
     <use style="fill:#0000ff;stroke:#0000ff;" x="479.325636" xlink:href="#ma2fe97d978" y="194.38962"/>
     <use style="fill:#0000ff;stroke:#0000ff;" x="482.812909" xlink:href="#ma2fe97d978" y="253.198493"/>
     <use style="fill:#0000ff;stroke:#0000ff;" x="486.300182" xlink:href="#ma2fe97d978" y="142.160562"/>
     <use style="fill:#0000ff;stroke:#0000ff;" x="489.787455" xlink:href="#ma2fe97d978" y="87.860938"/>
     <use style="fill:#0000ff;stroke:#0000ff;" x="493.274727" xlink:href="#ma2fe97d978" y="227.550163"/>
     <use style="fill:#0000ff;stroke:#0000ff;" x="496.762" xlink:href="#ma2fe97d978" y="240.328883"/>
    </g>
   </g>
   <g id="line2d_43">
    <path clip-path="url(#pc2938f23ab)" d="M 500.249273 249.030201 
L 503.736545 213.966258 
L 507.223818 340.613296 
L 510.711091 258.541322 
L 514.198364 207.795139 
L 517.685636 185.277882 
L 521.172909 225.456913 
L 524.660182 276.747943 
L 528.147455 215.007406 
L 531.634727 302.038235 
" style="fill:none;stroke:#008000;stroke-linecap:square;stroke-width:1.5;"/>
   </g>
   <g id="line2d_44">
    <g clip-path="url(#pc2938f23ab)">
     <use style="fill:#008000;stroke:#008000;" x="500.249273" xlink:href="#mf95fb73374" y="249.030201"/>
     <use style="fill:#008000;stroke:#008000;" x="503.736545" xlink:href="#mf95fb73374" y="213.966258"/>
     <use style="fill:#008000;stroke:#008000;" x="507.223818" xlink:href="#mf95fb73374" y="340.613296"/>
     <use style="fill:#008000;stroke:#008000;" x="510.711091" xlink:href="#mf95fb73374" y="258.541322"/>
     <use style="fill:#008000;stroke:#008000;" x="514.198364" xlink:href="#mf95fb73374" y="207.795139"/>
     <use style="fill:#008000;stroke:#008000;" x="517.685636" xlink:href="#mf95fb73374" y="185.277882"/>
     <use style="fill:#008000;stroke:#008000;" x="521.172909" xlink:href="#mf95fb73374" y="225.456913"/>
     <use style="fill:#008000;stroke:#008000;" x="524.660182" xlink:href="#mf95fb73374" y="276.747943"/>
     <use style="fill:#008000;stroke:#008000;" x="528.147455" xlink:href="#mf95fb73374" y="215.007406"/>
     <use style="fill:#008000;stroke:#008000;" x="531.634727" xlink:href="#mf95fb73374" y="302.038235"/>
    </g>
   </g>
   <g id="line2d_45">
    <path clip-path="url(#pc2938f23ab)" d="M 535.122 227.765754 
L 538.609273 179.65047 
L 542.096545 246.415078 
L 545.583818 230.669431 
L 549.071091 228.152032 
L 552.558364 230.153748 
L 556.045636 256.85233 
L 559.532909 242.498367 
L 563.020182 257.792647 
L 566.507455 251.085563 
" style="fill:none;stroke:#ff0000;stroke-linecap:square;stroke-width:1.5;"/>
   </g>
   <g id="line2d_46">
    <g clip-path="url(#pc2938f23ab)">
     <use style="fill:#ff0000;stroke:#ff0000;" x="535.122" xlink:href="#m24069ac234" y="227.765754"/>
     <use style="fill:#ff0000;stroke:#ff0000;" x="538.609273" xlink:href="#m24069ac234" y="179.65047"/>
     <use style="fill:#ff0000;stroke:#ff0000;" x="542.096545" xlink:href="#m24069ac234" y="246.415078"/>
     <use style="fill:#ff0000;stroke:#ff0000;" x="545.583818" xlink:href="#m24069ac234" y="230.669431"/>
     <use style="fill:#ff0000;stroke:#ff0000;" x="549.071091" xlink:href="#m24069ac234" y="228.152032"/>
     <use style="fill:#ff0000;stroke:#ff0000;" x="552.558364" xlink:href="#m24069ac234" y="230.153748"/>
     <use style="fill:#ff0000;stroke:#ff0000;" x="556.045636" xlink:href="#m24069ac234" y="256.85233"/>
     <use style="fill:#ff0000;stroke:#ff0000;" x="559.532909" xlink:href="#m24069ac234" y="242.498367"/>
     <use style="fill:#ff0000;stroke:#ff0000;" x="563.020182" xlink:href="#m24069ac234" y="257.792647"/>
     <use style="fill:#ff0000;stroke:#ff0000;" x="566.507455" xlink:href="#m24069ac234" y="251.085563"/>
    </g>
   </g>
   <g id="line2d_47">
    <path clip-path="url(#pc2938f23ab)" d="M 569.994727 240.692097 
L 573.482 173.258221 
L 576.969273 217.675008 
L 580.456545 254.4312 
L 583.943818 277.184184 
L 587.431091 322.471565 
L 590.918364 240.931327 
L 594.405636 285.701397 
L 597.892909 215.474765 
L 601.380182 250.940694 
L 604.867455 226.020127 
L 608.354727 276.828705 
L 611.842 266.76323 
L 615.329273 207.545132 
L 618.816545 180.935717 
L 622.303818 172.296285 
L 625.791091 241.227236 
L 629.278364 266.417517 
L 632.765636 206.522324 
L 636.252909 264.838075 
" style="fill:none;stroke:#000000;stroke-linecap:square;stroke-width:1.5;"/>
   </g>
   <g id="line2d_48">
    <g clip-path="url(#pc2938f23ab)">
     <use style="stroke:#000000;" x="569.994727" xlink:href="#mb6bccf4ee0" y="240.692097"/>
     <use style="stroke:#000000;" x="573.482" xlink:href="#mb6bccf4ee0" y="173.258221"/>
     <use style="stroke:#000000;" x="576.969273" xlink:href="#mb6bccf4ee0" y="217.675008"/>
     <use style="stroke:#000000;" x="580.456545" xlink:href="#mb6bccf4ee0" y="254.4312"/>
     <use style="stroke:#000000;" x="583.943818" xlink:href="#mb6bccf4ee0" y="277.184184"/>
     <use style="stroke:#000000;" x="587.431091" xlink:href="#mb6bccf4ee0" y="322.471565"/>
     <use style="stroke:#000000;" x="590.918364" xlink:href="#mb6bccf4ee0" y="240.931327"/>
     <use style="stroke:#000000;" x="594.405636" xlink:href="#mb6bccf4ee0" y="285.701397"/>
     <use style="stroke:#000000;" x="597.892909" xlink:href="#mb6bccf4ee0" y="215.474765"/>
     <use style="stroke:#000000;" x="601.380182" xlink:href="#mb6bccf4ee0" y="250.940694"/>
     <use style="stroke:#000000;" x="604.867455" xlink:href="#mb6bccf4ee0" y="226.020127"/>
     <use style="stroke:#000000;" x="608.354727" xlink:href="#mb6bccf4ee0" y="276.828705"/>
     <use style="stroke:#000000;" x="611.842" xlink:href="#mb6bccf4ee0" y="266.76323"/>
     <use style="stroke:#000000;" x="615.329273" xlink:href="#mb6bccf4ee0" y="207.545132"/>
     <use style="stroke:#000000;" x="618.816545" xlink:href="#mb6bccf4ee0" y="180.935717"/>
     <use style="stroke:#000000;" x="622.303818" xlink:href="#mb6bccf4ee0" y="172.296285"/>
     <use style="stroke:#000000;" x="625.791091" xlink:href="#mb6bccf4ee0" y="241.227236"/>
     <use style="stroke:#000000;" x="629.278364" xlink:href="#mb6bccf4ee0" y="266.417517"/>
     <use style="stroke:#000000;" x="632.765636" xlink:href="#mb6bccf4ee0" y="206.522324"/>
     <use style="stroke:#000000;" x="636.252909" xlink:href="#mb6bccf4ee0" y="264.838075"/>
    </g>
   </g>
   <g id="line2d_49">
    <path clip-path="url(#pc2938f23ab)" d="M 639.740182 244.344223 
L 643.227455 115.485035 
L 646.714727 169.94679 
L 650.202 224.941674 
L 653.689273 186.298304 
L 657.176545 174.582136 
L 660.663818 184.413653 
L 664.151091 119.752757 
L 667.638364 219.140343 
L 671.125636 196.196718 
L 674.612909 206.573181 
L 678.100182 200.807301 
L 681.587455 211.792606 
L 685.074727 206.160705 
L 688.562 144.501394 
L 692.049273 218.635507 
L 695.536545 247.284095 
L 699.023818 133.760157 
L 702.511091 140.760577 
L 705.998364 169.529617 
" style="fill:none;stroke:#bfbf00;stroke-linecap:square;stroke-width:1.5;"/>
   </g>
   <g id="line2d_50">
    <g clip-path="url(#pc2938f23ab)">
     <use style="fill:#bfbf00;stroke:#bfbf00;" x="639.740182" xlink:href="#ma3a9f9bc56" y="244.344223"/>
     <use style="fill:#bfbf00;stroke:#bfbf00;" x="643.227455" xlink:href="#ma3a9f9bc56" y="115.485035"/>
     <use style="fill:#bfbf00;stroke:#bfbf00;" x="646.714727" xlink:href="#ma3a9f9bc56" y="169.94679"/>
     <use style="fill:#bfbf00;stroke:#bfbf00;" x="650.202" xlink:href="#ma3a9f9bc56" y="224.941674"/>
     <use style="fill:#bfbf00;stroke:#bfbf00;" x="653.689273" xlink:href="#ma3a9f9bc56" y="186.298304"/>
     <use style="fill:#bfbf00;stroke:#bfbf00;" x="657.176545" xlink:href="#ma3a9f9bc56" y="174.582136"/>
     <use style="fill:#bfbf00;stroke:#bfbf00;" x="660.663818" xlink:href="#ma3a9f9bc56" y="184.413653"/>
     <use style="fill:#bfbf00;stroke:#bfbf00;" x="664.151091" xlink:href="#ma3a9f9bc56" y="119.752757"/>
     <use style="fill:#bfbf00;stroke:#bfbf00;" x="667.638364" xlink:href="#ma3a9f9bc56" y="219.140343"/>
     <use style="fill:#bfbf00;stroke:#bfbf00;" x="671.125636" xlink:href="#ma3a9f9bc56" y="196.196718"/>
     <use style="fill:#bfbf00;stroke:#bfbf00;" x="674.612909" xlink:href="#ma3a9f9bc56" y="206.573181"/>
     <use style="fill:#bfbf00;stroke:#bfbf00;" x="678.100182" xlink:href="#ma3a9f9bc56" y="200.807301"/>
     <use style="fill:#bfbf00;stroke:#bfbf00;" x="681.587455" xlink:href="#ma3a9f9bc56" y="211.792606"/>
     <use style="fill:#bfbf00;stroke:#bfbf00;" x="685.074727" xlink:href="#ma3a9f9bc56" y="206.160705"/>
     <use style="fill:#bfbf00;stroke:#bfbf00;" x="688.562" xlink:href="#ma3a9f9bc56" y="144.501394"/>
     <use style="fill:#bfbf00;stroke:#bfbf00;" x="692.049273" xlink:href="#ma3a9f9bc56" y="218.635507"/>
     <use style="fill:#bfbf00;stroke:#bfbf00;" x="695.536545" xlink:href="#ma3a9f9bc56" y="247.284095"/>
     <use style="fill:#bfbf00;stroke:#bfbf00;" x="699.023818" xlink:href="#ma3a9f9bc56" y="133.760157"/>
     <use style="fill:#bfbf00;stroke:#bfbf00;" x="702.511091" xlink:href="#ma3a9f9bc56" y="140.760577"/>
     <use style="fill:#bfbf00;stroke:#bfbf00;" x="705.998364" xlink:href="#ma3a9f9bc56" y="169.529617"/>
    </g>
   </g>
   <g id="line2d_51">
    <path clip-path="url(#pc2938f23ab)" d="M 709.485636 299.227841 
L 712.972909 160.924958 
L 716.460182 216.061956 
L 719.947455 223.639025 
L 723.434727 202.095092 
L 726.922 153.331562 
L 730.409273 302.466771 
L 733.896545 217.450736 
L 737.383818 223.846262 
L 740.871091 220.639285 
" style="fill:none;stroke:#0000ff;stroke-linecap:square;stroke-width:1.5;"/>
   </g>
   <g id="line2d_52">
    <g clip-path="url(#pc2938f23ab)">
     <use style="fill:#0000ff;stroke:#0000ff;" x="709.485636" xlink:href="#ma2fe97d978" y="299.227841"/>
     <use style="fill:#0000ff;stroke:#0000ff;" x="712.972909" xlink:href="#ma2fe97d978" y="160.924958"/>
     <use style="fill:#0000ff;stroke:#0000ff;" x="716.460182" xlink:href="#ma2fe97d978" y="216.061956"/>
     <use style="fill:#0000ff;stroke:#0000ff;" x="719.947455" xlink:href="#ma2fe97d978" y="223.639025"/>
     <use style="fill:#0000ff;stroke:#0000ff;" x="723.434727" xlink:href="#ma2fe97d978" y="202.095092"/>
     <use style="fill:#0000ff;stroke:#0000ff;" x="726.922" xlink:href="#ma2fe97d978" y="153.331562"/>
     <use style="fill:#0000ff;stroke:#0000ff;" x="730.409273" xlink:href="#ma2fe97d978" y="302.466771"/>
     <use style="fill:#0000ff;stroke:#0000ff;" x="733.896545" xlink:href="#ma2fe97d978" y="217.450736"/>
     <use style="fill:#0000ff;stroke:#0000ff;" x="737.383818" xlink:href="#ma2fe97d978" y="223.846262"/>
     <use style="fill:#0000ff;stroke:#0000ff;" x="740.871091" xlink:href="#ma2fe97d978" y="220.639285"/>
    </g>
   </g>
   <g id="line2d_53">
    <path clip-path="url(#pc2938f23ab)" d="M 744.358364 165.973017 
L 747.845636 244.962651 
L 751.332909 248.675688 
L 754.820182 259.343784 
L 758.307455 228.198893 
L 761.794727 225.442239 
L 765.282 250.718693 
L 768.769273 193.851012 
L 772.256545 234.440987 
L 775.743818 250.908442 
" style="fill:none;stroke:#008000;stroke-linecap:square;stroke-width:1.5;"/>
   </g>
   <g id="line2d_54">
    <g clip-path="url(#pc2938f23ab)">
     <use style="fill:#008000;stroke:#008000;" x="744.358364" xlink:href="#mf95fb73374" y="165.973017"/>
     <use style="fill:#008000;stroke:#008000;" x="747.845636" xlink:href="#mf95fb73374" y="244.962651"/>
     <use style="fill:#008000;stroke:#008000;" x="751.332909" xlink:href="#mf95fb73374" y="248.675688"/>
     <use style="fill:#008000;stroke:#008000;" x="754.820182" xlink:href="#mf95fb73374" y="259.343784"/>
     <use style="fill:#008000;stroke:#008000;" x="758.307455" xlink:href="#mf95fb73374" y="228.198893"/>
     <use style="fill:#008000;stroke:#008000;" x="761.794727" xlink:href="#mf95fb73374" y="225.442239"/>
     <use style="fill:#008000;stroke:#008000;" x="765.282" xlink:href="#mf95fb73374" y="250.718693"/>
     <use style="fill:#008000;stroke:#008000;" x="768.769273" xlink:href="#mf95fb73374" y="193.851012"/>
     <use style="fill:#008000;stroke:#008000;" x="772.256545" xlink:href="#mf95fb73374" y="234.440987"/>
     <use style="fill:#008000;stroke:#008000;" x="775.743818" xlink:href="#mf95fb73374" y="250.908442"/>
    </g>
   </g>
   <g id="line2d_55">
    <path clip-path="url(#pc2938f23ab)" d="M 779.231091 171.43685 
L 782.718364 245.919298 
L 786.205636 235.047175 
L 789.692909 288.259288 
L 793.180182 246.032367 
L 796.667455 197.463442 
L 800.154727 248.468818 
L 803.642 245.403486 
L 807.129273 192.798732 
L 810.616545 300.712458 
" style="fill:none;stroke:#ff0000;stroke-linecap:square;stroke-width:1.5;"/>
   </g>
   <g id="line2d_56">
    <g clip-path="url(#pc2938f23ab)">
     <use style="fill:#ff0000;stroke:#ff0000;" x="779.231091" xlink:href="#m24069ac234" y="171.43685"/>
     <use style="fill:#ff0000;stroke:#ff0000;" x="782.718364" xlink:href="#m24069ac234" y="245.919298"/>
     <use style="fill:#ff0000;stroke:#ff0000;" x="786.205636" xlink:href="#m24069ac234" y="235.047175"/>
     <use style="fill:#ff0000;stroke:#ff0000;" x="789.692909" xlink:href="#m24069ac234" y="288.259288"/>
     <use style="fill:#ff0000;stroke:#ff0000;" x="793.180182" xlink:href="#m24069ac234" y="246.032367"/>
     <use style="fill:#ff0000;stroke:#ff0000;" x="796.667455" xlink:href="#m24069ac234" y="197.463442"/>
     <use style="fill:#ff0000;stroke:#ff0000;" x="800.154727" xlink:href="#m24069ac234" y="248.468818"/>
     <use style="fill:#ff0000;stroke:#ff0000;" x="803.642" xlink:href="#m24069ac234" y="245.403486"/>
     <use style="fill:#ff0000;stroke:#ff0000;" x="807.129273" xlink:href="#m24069ac234" y="192.798732"/>
     <use style="fill:#ff0000;stroke:#ff0000;" x="810.616545" xlink:href="#m24069ac234" y="300.712458"/>
    </g>
   </g>
   <g id="line2d_57">
    <path clip-path="url(#pc2938f23ab)" d="M 814.103818 300.076995 
L 817.591091 258.55428 
L 821.078364 152.271572 
L 824.565636 254.141802 
L 828.052909 217.731143 
L 831.540182 324.713896 
L 835.027455 252.482141 
L 838.514727 261.281586 
L 842.002 289.752244 
L 845.489273 203.010987 
" style="fill:none;stroke:#000000;stroke-linecap:square;stroke-width:1.5;"/>
   </g>
   <g id="line2d_58">
    <g clip-path="url(#pc2938f23ab)">
     <use style="stroke:#000000;" x="814.103818" xlink:href="#mb6bccf4ee0" y="300.076995"/>
     <use style="stroke:#000000;" x="817.591091" xlink:href="#mb6bccf4ee0" y="258.55428"/>
     <use style="stroke:#000000;" x="821.078364" xlink:href="#mb6bccf4ee0" y="152.271572"/>
     <use style="stroke:#000000;" x="824.565636" xlink:href="#mb6bccf4ee0" y="254.141802"/>
     <use style="stroke:#000000;" x="828.052909" xlink:href="#mb6bccf4ee0" y="217.731143"/>
     <use style="stroke:#000000;" x="831.540182" xlink:href="#mb6bccf4ee0" y="324.713896"/>
     <use style="stroke:#000000;" x="835.027455" xlink:href="#mb6bccf4ee0" y="252.482141"/>
     <use style="stroke:#000000;" x="838.514727" xlink:href="#mb6bccf4ee0" y="261.281586"/>
     <use style="stroke:#000000;" x="842.002" xlink:href="#mb6bccf4ee0" y="289.752244"/>
     <use style="stroke:#000000;" x="845.489273" xlink:href="#mb6bccf4ee0" y="203.010987"/>
    </g>
   </g>
   <g id="line2d_59">
    <path clip-path="url(#pc2938f23ab)" d="M 848.976545 270.262096 
L 852.463818 220.325451 
L 855.951091 221.919692 
L 859.438364 200.55095 
L 862.925636 227.00166 
L 866.412909 182.537785 
L 869.900182 232.140332 
L 873.387455 235.571015 
L 876.874727 240.82937 
L 880.362 207.021396 
L 883.849273 316.420286 
L 887.336545 179.030055 
L 890.823818 277.351534 
L 894.311091 207.040437 
L 897.798364 253.365321 
L 901.285636 206.301202 
L 904.772909 255.297119 
L 908.260182 132.379232 
L 911.747455 184.628851 
L 915.234727 232.28165 
" style="fill:none;stroke:#bfbf00;stroke-linecap:square;stroke-width:1.5;"/>
   </g>
   <g id="line2d_60">
    <g clip-path="url(#pc2938f23ab)">
     <use style="fill:#bfbf00;stroke:#bfbf00;" x="848.976545" xlink:href="#ma3a9f9bc56" y="270.262096"/>
     <use style="fill:#bfbf00;stroke:#bfbf00;" x="852.463818" xlink:href="#ma3a9f9bc56" y="220.325451"/>
     <use style="fill:#bfbf00;stroke:#bfbf00;" x="855.951091" xlink:href="#ma3a9f9bc56" y="221.919692"/>
     <use style="fill:#bfbf00;stroke:#bfbf00;" x="859.438364" xlink:href="#ma3a9f9bc56" y="200.55095"/>
     <use style="fill:#bfbf00;stroke:#bfbf00;" x="862.925636" xlink:href="#ma3a9f9bc56" y="227.00166"/>
     <use style="fill:#bfbf00;stroke:#bfbf00;" x="866.412909" xlink:href="#ma3a9f9bc56" y="182.537785"/>
     <use style="fill:#bfbf00;stroke:#bfbf00;" x="869.900182" xlink:href="#ma3a9f9bc56" y="232.140332"/>
     <use style="fill:#bfbf00;stroke:#bfbf00;" x="873.387455" xlink:href="#ma3a9f9bc56" y="235.571015"/>
     <use style="fill:#bfbf00;stroke:#bfbf00;" x="876.874727" xlink:href="#ma3a9f9bc56" y="240.82937"/>
     <use style="fill:#bfbf00;stroke:#bfbf00;" x="880.362" xlink:href="#ma3a9f9bc56" y="207.021396"/>
     <use style="fill:#bfbf00;stroke:#bfbf00;" x="883.849273" xlink:href="#ma3a9f9bc56" y="316.420286"/>
     <use style="fill:#bfbf00;stroke:#bfbf00;" x="887.336545" xlink:href="#ma3a9f9bc56" y="179.030055"/>
     <use style="fill:#bfbf00;stroke:#bfbf00;" x="890.823818" xlink:href="#ma3a9f9bc56" y="277.351534"/>
     <use style="fill:#bfbf00;stroke:#bfbf00;" x="894.311091" xlink:href="#ma3a9f9bc56" y="207.040437"/>
     <use style="fill:#bfbf00;stroke:#bfbf00;" x="897.798364" xlink:href="#ma3a9f9bc56" y="253.365321"/>
     <use style="fill:#bfbf00;stroke:#bfbf00;" x="901.285636" xlink:href="#ma3a9f9bc56" y="206.301202"/>
     <use style="fill:#bfbf00;stroke:#bfbf00;" x="904.772909" xlink:href="#ma3a9f9bc56" y="255.297119"/>
     <use style="fill:#bfbf00;stroke:#bfbf00;" x="908.260182" xlink:href="#ma3a9f9bc56" y="132.379232"/>
     <use style="fill:#bfbf00;stroke:#bfbf00;" x="911.747455" xlink:href="#ma3a9f9bc56" y="184.628851"/>
     <use style="fill:#bfbf00;stroke:#bfbf00;" x="915.234727" xlink:href="#ma3a9f9bc56" y="232.28165"/>
    </g>
   </g>
   <g id="line2d_61">
    <path clip-path="url(#pc2938f23ab)" d="M 918.722 281.45864 
L 922.209273 211.702056 
L 925.696545 120.937974 
L 929.183818 107.243854 
L 932.671091 201.82104 
L 936.158364 265.521979 
L 939.645636 229.795604 
L 943.132909 232.287721 
L 946.620182 240.260409 
L 950.107455 259.095455 
L 953.594727 214.143163 
L 957.082 211.314284 
L 960.569273 137.008167 
L 964.056545 187.010887 
L 967.543818 208.604484 
L 971.031091 297.035475 
L 974.518364 139.318456 
L 978.005636 270.003386 
L 981.492909 190.359076 
L 984.980182 175.275023 
" style="fill:none;stroke:#0000ff;stroke-linecap:square;stroke-width:1.5;"/>
   </g>
   <g id="line2d_62">
    <g clip-path="url(#pc2938f23ab)">
     <use style="fill:#0000ff;stroke:#0000ff;" x="918.722" xlink:href="#ma2fe97d978" y="281.45864"/>
     <use style="fill:#0000ff;stroke:#0000ff;" x="922.209273" xlink:href="#ma2fe97d978" y="211.702056"/>
     <use style="fill:#0000ff;stroke:#0000ff;" x="925.696545" xlink:href="#ma2fe97d978" y="120.937974"/>
     <use style="fill:#0000ff;stroke:#0000ff;" x="929.183818" xlink:href="#ma2fe97d978" y="107.243854"/>
     <use style="fill:#0000ff;stroke:#0000ff;" x="932.671091" xlink:href="#ma2fe97d978" y="201.82104"/>
     <use style="fill:#0000ff;stroke:#0000ff;" x="936.158364" xlink:href="#ma2fe97d978" y="265.521979"/>
     <use style="fill:#0000ff;stroke:#0000ff;" x="939.645636" xlink:href="#ma2fe97d978" y="229.795604"/>
     <use style="fill:#0000ff;stroke:#0000ff;" x="943.132909" xlink:href="#ma2fe97d978" y="232.287721"/>
     <use style="fill:#0000ff;stroke:#0000ff;" x="946.620182" xlink:href="#ma2fe97d978" y="240.260409"/>
     <use style="fill:#0000ff;stroke:#0000ff;" x="950.107455" xlink:href="#ma2fe97d978" y="259.095455"/>
     <use style="fill:#0000ff;stroke:#0000ff;" x="953.594727" xlink:href="#ma2fe97d978" y="214.143163"/>
     <use style="fill:#0000ff;stroke:#0000ff;" x="957.082" xlink:href="#ma2fe97d978" y="211.314284"/>
     <use style="fill:#0000ff;stroke:#0000ff;" x="960.569273" xlink:href="#ma2fe97d978" y="137.008167"/>
     <use style="fill:#0000ff;stroke:#0000ff;" x="964.056545" xlink:href="#ma2fe97d978" y="187.010887"/>
     <use style="fill:#0000ff;stroke:#0000ff;" x="967.543818" xlink:href="#ma2fe97d978" y="208.604484"/>
     <use style="fill:#0000ff;stroke:#0000ff;" x="971.031091" xlink:href="#ma2fe97d978" y="297.035475"/>
     <use style="fill:#0000ff;stroke:#0000ff;" x="974.518364" xlink:href="#ma2fe97d978" y="139.318456"/>
     <use style="fill:#0000ff;stroke:#0000ff;" x="978.005636" xlink:href="#ma2fe97d978" y="270.003386"/>
     <use style="fill:#0000ff;stroke:#0000ff;" x="981.492909" xlink:href="#ma2fe97d978" y="190.359076"/>
     <use style="fill:#0000ff;stroke:#0000ff;" x="984.980182" xlink:href="#ma2fe97d978" y="175.275023"/>
    </g>
   </g>
   <g id="line2d_63">
    <path clip-path="url(#pc2938f23ab)" d="M 988.467455 221.85331 
L 991.954727 207.479045 
L 995.442 199.797792 
L 998.929273 127.349009 
L 1002.416545 113.323232 
L 1005.903818 236.72206 
L 1009.391091 146.494065 
L 1012.878364 184.15641 
L 1016.365636 223.792094 
L 1019.852909 118.823743 
" style="fill:none;stroke:#008000;stroke-linecap:square;stroke-width:1.5;"/>
   </g>
   <g id="line2d_64">
    <g clip-path="url(#pc2938f23ab)">
     <use style="fill:#008000;stroke:#008000;" x="988.467455" xlink:href="#mf95fb73374" y="221.85331"/>
     <use style="fill:#008000;stroke:#008000;" x="991.954727" xlink:href="#mf95fb73374" y="207.479045"/>
     <use style="fill:#008000;stroke:#008000;" x="995.442" xlink:href="#mf95fb73374" y="199.797792"/>
     <use style="fill:#008000;stroke:#008000;" x="998.929273" xlink:href="#mf95fb73374" y="127.349009"/>
     <use style="fill:#008000;stroke:#008000;" x="1002.416545" xlink:href="#mf95fb73374" y="113.323232"/>
     <use style="fill:#008000;stroke:#008000;" x="1005.903818" xlink:href="#mf95fb73374" y="236.72206"/>
     <use style="fill:#008000;stroke:#008000;" x="1009.391091" xlink:href="#mf95fb73374" y="146.494065"/>
     <use style="fill:#008000;stroke:#008000;" x="1012.878364" xlink:href="#mf95fb73374" y="184.15641"/>
     <use style="fill:#008000;stroke:#008000;" x="1016.365636" xlink:href="#mf95fb73374" y="223.792094"/>
     <use style="fill:#008000;stroke:#008000;" x="1019.852909" xlink:href="#mf95fb73374" y="118.823743"/>
    </g>
   </g>
   <g id="line2d_65">
    <path clip-path="url(#pc2938f23ab)" d="M 1023.340182 177.503901 
L 1026.827455 173.001445 
L 1030.314727 280.448715 
L 1033.802 226.829647 
L 1037.289273 233.85005 
L 1040.776545 245.812658 
L 1044.263818 217.638398 
L 1047.751091 248.102575 
L 1051.238364 186.608241 
L 1054.725636 208.081934 
" style="fill:none;stroke:#ff0000;stroke-linecap:square;stroke-width:1.5;"/>
   </g>
   <g id="line2d_66">
    <g clip-path="url(#pc2938f23ab)">
     <use style="fill:#ff0000;stroke:#ff0000;" x="1023.340182" xlink:href="#m24069ac234" y="177.503901"/>
     <use style="fill:#ff0000;stroke:#ff0000;" x="1026.827455" xlink:href="#m24069ac234" y="173.001445"/>
     <use style="fill:#ff0000;stroke:#ff0000;" x="1030.314727" xlink:href="#m24069ac234" y="280.448715"/>
     <use style="fill:#ff0000;stroke:#ff0000;" x="1033.802" xlink:href="#m24069ac234" y="226.829647"/>
     <use style="fill:#ff0000;stroke:#ff0000;" x="1037.289273" xlink:href="#m24069ac234" y="233.85005"/>
     <use style="fill:#ff0000;stroke:#ff0000;" x="1040.776545" xlink:href="#m24069ac234" y="245.812658"/>
     <use style="fill:#ff0000;stroke:#ff0000;" x="1044.263818" xlink:href="#m24069ac234" y="217.638398"/>
     <use style="fill:#ff0000;stroke:#ff0000;" x="1047.751091" xlink:href="#m24069ac234" y="248.102575"/>
     <use style="fill:#ff0000;stroke:#ff0000;" x="1051.238364" xlink:href="#m24069ac234" y="186.608241"/>
     <use style="fill:#ff0000;stroke:#ff0000;" x="1054.725636" xlink:href="#m24069ac234" y="208.081934"/>
    </g>
   </g>
   <g id="line2d_67">
    <path clip-path="url(#pc2938f23ab)" d="M 1058.212909 213.110453 
L 1061.700182 214.850413 
L 1065.187455 207.813394 
L 1068.674727 202.978214 
L 1072.162 222.540114 
L 1075.649273 205.306631 
L 1079.136545 211.76813 
L 1082.623818 226.591298 
L 1086.111091 165.640302 
L 1089.598364 159.976798 
" style="fill:none;stroke:#000000;stroke-linecap:square;stroke-width:1.5;"/>
   </g>
   <g id="line2d_68">
    <g clip-path="url(#pc2938f23ab)">
     <use style="stroke:#000000;" x="1058.212909" xlink:href="#mb6bccf4ee0" y="213.110453"/>
     <use style="stroke:#000000;" x="1061.700182" xlink:href="#mb6bccf4ee0" y="214.850413"/>
     <use style="stroke:#000000;" x="1065.187455" xlink:href="#mb6bccf4ee0" y="207.813394"/>
     <use style="stroke:#000000;" x="1068.674727" xlink:href="#mb6bccf4ee0" y="202.978214"/>
     <use style="stroke:#000000;" x="1072.162" xlink:href="#mb6bccf4ee0" y="222.540114"/>
     <use style="stroke:#000000;" x="1075.649273" xlink:href="#mb6bccf4ee0" y="205.306631"/>
     <use style="stroke:#000000;" x="1079.136545" xlink:href="#mb6bccf4ee0" y="211.76813"/>
     <use style="stroke:#000000;" x="1082.623818" xlink:href="#mb6bccf4ee0" y="226.591298"/>
     <use style="stroke:#000000;" x="1086.111091" xlink:href="#mb6bccf4ee0" y="165.640302"/>
     <use style="stroke:#000000;" x="1089.598364" xlink:href="#mb6bccf4ee0" y="159.976798"/>
    </g>
   </g>
   <g id="line2d_69">
    <path clip-path="url(#pc2938f23ab)" d="M 1093.085636 164.093195 
L 1096.572909 278.17996 
L 1100.060182 242.34003 
L 1103.547455 304.122098 
L 1107.034727 215.277411 
L 1110.522 220.603011 
L 1114.009273 197.178762 
L 1117.496545 195.567003 
L 1120.983818 271.273432 
L 1124.471091 148.300921 
L 1127.958364 153.497843 
L 1131.445636 231.697698 
L 1134.932909 146.420196 
L 1138.420182 240.051807 
L 1141.907455 188.992244 
L 1145.394727 236.805183 
L 1148.882 256.128807 
L 1152.369273 251.994212 
L 1155.856545 224.645179 
L 1159.343818 134.298447 
" style="fill:none;stroke:#bfbf00;stroke-linecap:square;stroke-width:1.5;"/>
   </g>
   <g id="line2d_70">
    <g clip-path="url(#pc2938f23ab)">
     <use style="fill:#bfbf00;stroke:#bfbf00;" x="1093.085636" xlink:href="#ma3a9f9bc56" y="164.093195"/>
     <use style="fill:#bfbf00;stroke:#bfbf00;" x="1096.572909" xlink:href="#ma3a9f9bc56" y="278.17996"/>
     <use style="fill:#bfbf00;stroke:#bfbf00;" x="1100.060182" xlink:href="#ma3a9f9bc56" y="242.34003"/>
     <use style="fill:#bfbf00;stroke:#bfbf00;" x="1103.547455" xlink:href="#ma3a9f9bc56" y="304.122098"/>
     <use style="fill:#bfbf00;stroke:#bfbf00;" x="1107.034727" xlink:href="#ma3a9f9bc56" y="215.277411"/>
     <use style="fill:#bfbf00;stroke:#bfbf00;" x="1110.522" xlink:href="#ma3a9f9bc56" y="220.603011"/>
     <use style="fill:#bfbf00;stroke:#bfbf00;" x="1114.009273" xlink:href="#ma3a9f9bc56" y="197.178762"/>
     <use style="fill:#bfbf00;stroke:#bfbf00;" x="1117.496545" xlink:href="#ma3a9f9bc56" y="195.567003"/>
     <use style="fill:#bfbf00;stroke:#bfbf00;" x="1120.983818" xlink:href="#ma3a9f9bc56" y="271.273432"/>
     <use style="fill:#bfbf00;stroke:#bfbf00;" x="1124.471091" xlink:href="#ma3a9f9bc56" y="148.300921"/>
     <use style="fill:#bfbf00;stroke:#bfbf00;" x="1127.958364" xlink:href="#ma3a9f9bc56" y="153.497843"/>
     <use style="fill:#bfbf00;stroke:#bfbf00;" x="1131.445636" xlink:href="#ma3a9f9bc56" y="231.697698"/>
     <use style="fill:#bfbf00;stroke:#bfbf00;" x="1134.932909" xlink:href="#ma3a9f9bc56" y="146.420196"/>
     <use style="fill:#bfbf00;stroke:#bfbf00;" x="1138.420182" xlink:href="#ma3a9f9bc56" y="240.051807"/>
     <use style="fill:#bfbf00;stroke:#bfbf00;" x="1141.907455" xlink:href="#ma3a9f9bc56" y="188.992244"/>
     <use style="fill:#bfbf00;stroke:#bfbf00;" x="1145.394727" xlink:href="#ma3a9f9bc56" y="236.805183"/>
     <use style="fill:#bfbf00;stroke:#bfbf00;" x="1148.882" xlink:href="#ma3a9f9bc56" y="256.128807"/>
     <use style="fill:#bfbf00;stroke:#bfbf00;" x="1152.369273" xlink:href="#ma3a9f9bc56" y="251.994212"/>
     <use style="fill:#bfbf00;stroke:#bfbf00;" x="1155.856545" xlink:href="#ma3a9f9bc56" y="224.645179"/>
     <use style="fill:#bfbf00;stroke:#bfbf00;" x="1159.343818" xlink:href="#ma3a9f9bc56" y="134.298447"/>
    </g>
   </g>
   <g id="line2d_71">
    <path clip-path="url(#pc2938f23ab)" d="M 1162.831091 167.785406 
L 1166.318364 262.318505 
L 1169.805636 175.81162 
L 1173.292909 300.397785 
L 1176.780182 235.648862 
L 1180.267455 229.94477 
L 1183.754727 262.094337 
L 1187.242 251.242062 
L 1190.729273 256.945835 
L 1194.216545 256.01385 
" style="fill:none;stroke:#0000ff;stroke-linecap:square;stroke-width:1.5;"/>
   </g>
   <g id="line2d_72">
    <g clip-path="url(#pc2938f23ab)">
     <use style="fill:#0000ff;stroke:#0000ff;" x="1162.831091" xlink:href="#ma2fe97d978" y="167.785406"/>
     <use style="fill:#0000ff;stroke:#0000ff;" x="1166.318364" xlink:href="#ma2fe97d978" y="262.318505"/>
     <use style="fill:#0000ff;stroke:#0000ff;" x="1169.805636" xlink:href="#ma2fe97d978" y="175.81162"/>
     <use style="fill:#0000ff;stroke:#0000ff;" x="1173.292909" xlink:href="#ma2fe97d978" y="300.397785"/>
     <use style="fill:#0000ff;stroke:#0000ff;" x="1176.780182" xlink:href="#ma2fe97d978" y="235.648862"/>
     <use style="fill:#0000ff;stroke:#0000ff;" x="1180.267455" xlink:href="#ma2fe97d978" y="229.94477"/>
     <use style="fill:#0000ff;stroke:#0000ff;" x="1183.754727" xlink:href="#ma2fe97d978" y="262.094337"/>
     <use style="fill:#0000ff;stroke:#0000ff;" x="1187.242" xlink:href="#ma2fe97d978" y="251.242062"/>
     <use style="fill:#0000ff;stroke:#0000ff;" x="1190.729273" xlink:href="#ma2fe97d978" y="256.945835"/>
     <use style="fill:#0000ff;stroke:#0000ff;" x="1194.216545" xlink:href="#ma2fe97d978" y="256.01385"/>
    </g>
   </g>
   <g id="patch_3">
    <path d="M 172.62 368.46 
L 172.62 49.68 
" style="fill:none;stroke:#000000;stroke-linecap:square;stroke-linejoin:miter;stroke-width:0.8;"/>
   </g>
   <g id="patch_4">
    <path d="M 1242.864 368.46 
L 1242.864 49.68 
" style="fill:none;stroke:#000000;stroke-linecap:square;stroke-linejoin:miter;stroke-width:0.8;"/>
   </g>
   <g id="patch_5">
    <path d="M 172.62 368.46 
L 1242.864 368.46 
" style="fill:none;stroke:#000000;stroke-linecap:square;stroke-linejoin:miter;stroke-width:0.8;"/>
   </g>
   <g id="patch_6">
    <path d="M 172.62 49.68 
L 1242.864 49.68 
" style="fill:none;stroke:#000000;stroke-linecap:square;stroke-linejoin:miter;stroke-width:0.8;"/>
   </g>
   <g id="text_18">
    <!-- Horizontal Magnetic Center of S15 Magnets -->
    <defs>
     <path d="M 9.8125 72.90625 
L 19.671875 72.90625 
L 19.671875 43.015625 
L 55.515625 43.015625 
L 55.515625 72.90625 
L 65.375 72.90625 
L 65.375 0 
L 55.515625 0 
L 55.515625 34.71875 
L 19.671875 34.71875 
L 19.671875 0 
L 9.8125 0 
z
" id="DejaVuSans-72"/>
     <path d="M 30.609375 48.390625 
Q 23.390625 48.390625 19.1875 42.75 
Q 14.984375 37.109375 14.984375 27.296875 
Q 14.984375 17.484375 19.15625 11.84375 
Q 23.34375 6.203125 30.609375 6.203125 
Q 37.796875 6.203125 41.984375 11.859375 
Q 46.1875 17.53125 46.1875 27.296875 
Q 46.1875 37.015625 41.984375 42.703125 
Q 37.796875 48.390625 30.609375 48.390625 
z
M 30.609375 56 
Q 42.328125 56 49.015625 48.375 
Q 55.71875 40.765625 55.71875 27.296875 
Q 55.71875 13.875 49.015625 6.21875 
Q 42.328125 -1.421875 30.609375 -1.421875 
Q 18.84375 -1.421875 12.171875 6.21875 
Q 5.515625 13.875 5.515625 27.296875 
Q 5.515625 40.765625 12.171875 48.375 
Q 18.84375 56 30.609375 56 
z
" id="DejaVuSans-111"/>
     <path d="M 41.109375 46.296875 
Q 39.59375 47.171875 37.8125 47.578125 
Q 36.03125 48 33.890625 48 
Q 26.265625 48 22.1875 43.046875 
Q 18.109375 38.09375 18.109375 28.8125 
L 18.109375 0 
L 9.078125 0 
L 9.078125 54.6875 
L 18.109375 54.6875 
L 18.109375 46.1875 
Q 20.953125 51.171875 25.484375 53.578125 
Q 30.03125 56 36.53125 56 
Q 37.453125 56 38.578125 55.875 
Q 39.703125 55.765625 41.0625 55.515625 
z
" id="DejaVuSans-114"/>
     <path d="M 9.421875 54.6875 
L 18.40625 54.6875 
L 18.40625 0 
L 9.421875 0 
z
M 9.421875 75.984375 
L 18.40625 75.984375 
L 18.40625 64.59375 
L 9.421875 64.59375 
z
" id="DejaVuSans-105"/>
     <path d="M 5.515625 54.6875 
L 48.1875 54.6875 
L 48.1875 46.484375 
L 14.40625 7.171875 
L 48.1875 7.171875 
L 48.1875 0 
L 4.296875 0 
L 4.296875 8.203125 
L 38.09375 47.515625 
L 5.515625 47.515625 
z
" id="DejaVuSans-122"/>
     <path d="M 9.421875 75.984375 
L 18.40625 75.984375 
L 18.40625 0 
L 9.421875 0 
z
" id="DejaVuSans-108"/>
     <path d="M 48.78125 52.59375 
L 48.78125 44.1875 
Q 44.96875 46.296875 41.140625 47.34375 
Q 37.3125 48.390625 33.40625 48.390625 
Q 24.65625 48.390625 19.8125 42.84375 
Q 14.984375 37.3125 14.984375 27.296875 
Q 14.984375 17.28125 19.8125 11.734375 
Q 24.65625 6.203125 33.40625 6.203125 
Q 37.3125 6.203125 41.140625 7.25 
Q 44.96875 8.296875 48.78125 10.40625 
L 48.78125 2.09375 
Q 45.015625 0.34375 40.984375 -0.53125 
Q 36.96875 -1.421875 32.421875 -1.421875 
Q 20.0625 -1.421875 12.78125 6.34375 
Q 5.515625 14.109375 5.515625 27.296875 
Q 5.515625 40.671875 12.859375 48.328125 
Q 20.21875 56 33.015625 56 
Q 37.15625 56 41.109375 55.140625 
Q 45.0625 54.296875 48.78125 52.59375 
z
" id="DejaVuSans-99"/>
     <path d="M 64.40625 67.28125 
L 64.40625 56.890625 
Q 59.421875 61.53125 53.78125 63.8125 
Q 48.140625 66.109375 41.796875 66.109375 
Q 29.296875 66.109375 22.65625 58.46875 
Q 16.015625 50.828125 16.015625 36.375 
Q 16.015625 21.96875 22.65625 14.328125 
Q 29.296875 6.6875 41.796875 6.6875 
Q 48.140625 6.6875 53.78125 8.984375 
Q 59.421875 11.28125 64.40625 15.921875 
L 64.40625 5.609375 
Q 59.234375 2.09375 53.4375 0.328125 
Q 47.65625 -1.421875 41.21875 -1.421875 
Q 24.65625 -1.421875 15.125 8.703125 
Q 5.609375 18.84375 5.609375 36.375 
Q 5.609375 53.953125 15.125 64.078125 
Q 24.65625 74.21875 41.21875 74.21875 
Q 47.75 74.21875 53.53125 72.484375 
Q 59.328125 70.75 64.40625 67.28125 
z
" id="DejaVuSans-67"/>
     <path d="M 37.109375 75.984375 
L 37.109375 68.5 
L 28.515625 68.5 
Q 23.6875 68.5 21.796875 66.546875 
Q 19.921875 64.59375 19.921875 59.515625 
L 19.921875 54.6875 
L 34.71875 54.6875 
L 34.71875 47.703125 
L 19.921875 47.703125 
L 19.921875 0 
L 10.890625 0 
L 10.890625 47.703125 
L 2.296875 47.703125 
L 2.296875 54.6875 
L 10.890625 54.6875 
L 10.890625 58.5 
Q 10.890625 67.625 15.140625 71.796875 
Q 19.390625 75.984375 28.609375 75.984375 
z
" id="DejaVuSans-102"/>
     <path d="M 53.515625 70.515625 
L 53.515625 60.890625 
Q 47.90625 63.578125 42.921875 64.890625 
Q 37.9375 66.21875 33.296875 66.21875 
Q 25.25 66.21875 20.875 63.09375 
Q 16.5 59.96875 16.5 54.203125 
Q 16.5 49.359375 19.40625 46.890625 
Q 22.3125 44.4375 30.421875 42.921875 
L 36.375 41.703125 
Q 47.40625 39.59375 52.65625 34.296875 
Q 57.90625 29 57.90625 20.125 
Q 57.90625 9.515625 50.796875 4.046875 
Q 43.703125 -1.421875 29.984375 -1.421875 
Q 24.8125 -1.421875 18.96875 -0.25 
Q 13.140625 0.921875 6.890625 3.21875 
L 6.890625 13.375 
Q 12.890625 10.015625 18.65625 8.296875 
Q 24.421875 6.59375 29.984375 6.59375 
Q 38.421875 6.59375 43.015625 9.90625 
Q 47.609375 13.234375 47.609375 19.390625 
Q 47.609375 24.75 44.3125 27.78125 
Q 41.015625 30.8125 33.5 32.328125 
L 27.484375 33.5 
Q 16.453125 35.6875 11.515625 40.375 
Q 6.59375 45.0625 6.59375 53.421875 
Q 6.59375 63.09375 13.40625 68.65625 
Q 20.21875 74.21875 32.171875 74.21875 
Q 37.3125 74.21875 42.625 73.28125 
Q 47.953125 72.359375 53.515625 70.515625 
z
" id="DejaVuSans-83"/>
     <path d="M 44.28125 53.078125 
L 44.28125 44.578125 
Q 40.484375 46.53125 36.375 47.5 
Q 32.28125 48.484375 27.875 48.484375 
Q 21.1875 48.484375 17.84375 46.4375 
Q 14.5 44.390625 14.5 40.28125 
Q 14.5 37.15625 16.890625 35.375 
Q 19.28125 33.59375 26.515625 31.984375 
L 29.59375 31.296875 
Q 39.15625 29.25 43.1875 25.515625 
Q 47.21875 21.78125 47.21875 15.09375 
Q 47.21875 7.46875 41.1875 3.015625 
Q 35.15625 -1.421875 24.609375 -1.421875 
Q 20.21875 -1.421875 15.453125 -0.5625 
Q 10.6875 0.296875 5.421875 2 
L 5.421875 11.28125 
Q 10.40625 8.6875 15.234375 7.390625 
Q 20.0625 6.109375 24.8125 6.109375 
Q 31.15625 6.109375 34.5625 8.28125 
Q 37.984375 10.453125 37.984375 14.40625 
Q 37.984375 18.0625 35.515625 20.015625 
Q 33.0625 21.96875 24.703125 23.78125 
L 21.578125 24.515625 
Q 13.234375 26.265625 9.515625 29.90625 
Q 5.8125 33.546875 5.8125 39.890625 
Q 5.8125 47.609375 11.28125 51.796875 
Q 16.75 56 26.8125 56 
Q 31.78125 56 36.171875 55.265625 
Q 40.578125 54.546875 44.28125 53.078125 
z
" id="DejaVuSans-115"/>
    </defs>
    <g transform="translate(577.0395 43.68)scale(0.12 -0.12)">
     <use xlink:href="#DejaVuSans-72"/>
     <use x="75.195312" xlink:href="#DejaVuSans-111"/>
     <use x="136.376953" xlink:href="#DejaVuSans-114"/>
     <use x="177.490234" xlink:href="#DejaVuSans-105"/>
     <use x="205.273438" xlink:href="#DejaVuSans-122"/>
     <use x="257.763672" xlink:href="#DejaVuSans-111"/>
     <use x="318.945312" xlink:href="#DejaVuSans-110"/>
     <use x="382.324219" xlink:href="#DejaVuSans-116"/>
     <use x="421.533203" xlink:href="#DejaVuSans-97"/>
     <use x="482.8125" xlink:href="#DejaVuSans-108"/>
     <use x="510.595703" xlink:href="#DejaVuSans-32"/>
     <use x="542.382812" xlink:href="#DejaVuSans-77"/>
     <use x="628.662109" xlink:href="#DejaVuSans-97"/>
     <use x="689.941406" xlink:href="#DejaVuSans-103"/>
     <use x="753.417969" xlink:href="#DejaVuSans-110"/>
     <use x="816.796875" xlink:href="#DejaVuSans-101"/>
     <use x="878.320312" xlink:href="#DejaVuSans-116"/>
     <use x="917.529297" xlink:href="#DejaVuSans-105"/>
     <use x="945.3125" xlink:href="#DejaVuSans-99"/>
     <use x="1000.292969" xlink:href="#DejaVuSans-32"/>
     <use x="1032.080078" xlink:href="#DejaVuSans-67"/>
     <use x="1101.904297" xlink:href="#DejaVuSans-101"/>
     <use x="1163.427734" xlink:href="#DejaVuSans-110"/>
     <use x="1226.806641" xlink:href="#DejaVuSans-116"/>
     <use x="1266.015625" xlink:href="#DejaVuSans-101"/>
     <use x="1327.539062" xlink:href="#DejaVuSans-114"/>
     <use x="1368.652344" xlink:href="#DejaVuSans-32"/>
     <use x="1400.439453" xlink:href="#DejaVuSans-111"/>
     <use x="1461.621094" xlink:href="#DejaVuSans-102"/>
     <use x="1496.826172" xlink:href="#DejaVuSans-32"/>
     <use x="1528.613281" xlink:href="#DejaVuSans-83"/>
     <use x="1592.089844" xlink:href="#DejaVuSans-49"/>
     <use x="1655.712891" xlink:href="#DejaVuSans-53"/>
     <use x="1719.335938" xlink:href="#DejaVuSans-32"/>
     <use x="1751.123047" xlink:href="#DejaVuSans-77"/>
     <use x="1837.402344" xlink:href="#DejaVuSans-97"/>
     <use x="1898.681641" xlink:href="#DejaVuSans-103"/>
     <use x="1962.158203" xlink:href="#DejaVuSans-110"/>
     <use x="2025.537109" xlink:href="#DejaVuSans-101"/>
     <use x="2087.060547" xlink:href="#DejaVuSans-116"/>
     <use x="2126.269531" xlink:href="#DejaVuSans-115"/>
    </g>
   </g>
   <g id="legend_1">
    <g id="patch_7">
     <path d="M 527.57325 131.070625 
L 887.91075 131.070625 
Q 889.91075 131.070625 889.91075 129.070625 
L 889.91075 56.68 
Q 889.91075 54.68 887.91075 54.68 
L 527.57325 54.68 
Q 525.57325 54.68 525.57325 56.68 
L 525.57325 129.070625 
Q 525.57325 131.070625 527.57325 131.070625 
z
" style="fill:#ffffff;opacity:0.8;stroke:#cccccc;stroke-linejoin:miter;"/>
    </g>
    <g id="line2d_73"/>
    <g id="line2d_74">
     <g>
      <use style="fill:#0000ff;stroke:#0000ff;" x="539.57325" xlink:href="#ma2fe97d978" y="62.778438"/>
     </g>
    </g>
    <g id="text_19">
     <!-- SDA0 -->
     <defs>
      <path d="M 19.671875 64.796875 
L 19.671875 8.109375 
L 31.59375 8.109375 
Q 46.6875 8.109375 53.6875 14.9375 
Q 60.6875 21.78125 60.6875 36.53125 
Q 60.6875 51.171875 53.6875 57.984375 
Q 46.6875 64.796875 31.59375 64.796875 
z
M 9.8125 72.90625 
L 30.078125 72.90625 
Q 51.265625 72.90625 61.171875 64.09375 
Q 71.09375 55.28125 71.09375 36.53125 
Q 71.09375 17.671875 61.125 8.828125 
Q 51.171875 0 30.078125 0 
L 9.8125 0 
z
" id="DejaVuSans-68"/>
      <path d="M 34.1875 63.1875 
L 20.796875 26.90625 
L 47.609375 26.90625 
z
M 28.609375 72.90625 
L 39.796875 72.90625 
L 67.578125 0 
L 57.328125 0 
L 50.6875 18.703125 
L 17.828125 18.703125 
L 11.1875 0 
L 0.78125 0 
z
" id="DejaVuSans-65"/>
     </defs>
     <g transform="translate(557.57325 66.278438)scale(0.1 -0.1)">
      <use xlink:href="#DejaVuSans-83"/>
      <use x="63.476562" xlink:href="#DejaVuSans-68"/>
      <use x="140.462891" xlink:href="#DejaVuSans-65"/>
      <use x="208.871094" xlink:href="#DejaVuSans-48"/>
     </g>
    </g>
    <g id="line2d_75"/>
    <g id="line2d_76">
     <g>
      <use style="fill:#008000;stroke:#008000;" x="539.57325" xlink:href="#mf95fb73374" y="77.456563"/>
     </g>
    </g>
    <g id="text_20">
     <!-- SFA0 -->
     <defs>
      <path d="M 9.8125 72.90625 
L 51.703125 72.90625 
L 51.703125 64.59375 
L 19.671875 64.59375 
L 19.671875 43.109375 
L 48.578125 43.109375 
L 48.578125 34.8125 
L 19.671875 34.8125 
L 19.671875 0 
L 9.8125 0 
z
" id="DejaVuSans-70"/>
     </defs>
     <g transform="translate(557.57325 80.956563)scale(0.1 -0.1)">
      <use xlink:href="#DejaVuSans-83"/>
      <use x="63.476562" xlink:href="#DejaVuSans-70"/>
      <use x="120.855469" xlink:href="#DejaVuSans-65"/>
      <use x="189.263672" xlink:href="#DejaVuSans-48"/>
     </g>
    </g>
    <g id="line2d_77"/>
    <g id="line2d_78">
     <g>
      <use style="fill:#ff0000;stroke:#ff0000;" x="539.57325" xlink:href="#m24069ac234" y="92.134688"/>
     </g>
    </g>
    <g id="text_21">
     <!-- SDB0 -->
     <defs>
      <path d="M 19.671875 34.8125 
L 19.671875 8.109375 
L 35.5 8.109375 
Q 43.453125 8.109375 47.28125 11.40625 
Q 51.125 14.703125 51.125 21.484375 
Q 51.125 28.328125 47.28125 31.5625 
Q 43.453125 34.8125 35.5 34.8125 
z
M 19.671875 64.796875 
L 19.671875 42.828125 
L 34.28125 42.828125 
Q 41.5 42.828125 45.03125 45.53125 
Q 48.578125 48.25 48.578125 53.8125 
Q 48.578125 59.328125 45.03125 62.0625 
Q 41.5 64.796875 34.28125 64.796875 
z
M 9.8125 72.90625 
L 35.015625 72.90625 
Q 46.296875 72.90625 52.390625 68.21875 
Q 58.5 63.53125 58.5 54.890625 
Q 58.5 48.1875 55.375 44.234375 
Q 52.25 40.28125 46.1875 39.3125 
Q 53.46875 37.75 57.5 32.78125 
Q 61.53125 27.828125 61.53125 20.40625 
Q 61.53125 10.640625 54.890625 5.3125 
Q 48.25 0 35.984375 0 
L 9.8125 0 
z
" id="DejaVuSans-66"/>
     </defs>
     <g transform="translate(557.57325 95.634688)scale(0.1 -0.1)">
      <use xlink:href="#DejaVuSans-83"/>
      <use x="63.476562" xlink:href="#DejaVuSans-68"/>
      <use x="140.478516" xlink:href="#DejaVuSans-66"/>
      <use x="209.082031" xlink:href="#DejaVuSans-48"/>
     </g>
    </g>
    <g id="line2d_79"/>
    <g id="line2d_80">
     <g>
      <use style="stroke:#000000;" x="539.57325" xlink:href="#mb6bccf4ee0" y="106.812813"/>
     </g>
    </g>
    <g id="text_22">
     <!-- SFB0 -->
     <g transform="translate(557.57325 110.312813)scale(0.1 -0.1)">
      <use xlink:href="#DejaVuSans-83"/>
      <use x="63.476562" xlink:href="#DejaVuSans-70"/>
      <use x="120.996094" xlink:href="#DejaVuSans-66"/>
      <use x="189.599609" xlink:href="#DejaVuSans-48"/>
     </g>
    </g>
    <g id="line2d_81"/>
    <g id="line2d_82">
     <g>
      <use style="fill:#bfbf00;stroke:#bfbf00;" x="539.57325" xlink:href="#ma3a9f9bc56" y="121.490938"/>
     </g>
    </g>
    <g id="text_23">
     <!-- SDP0 -->
     <defs>
      <path d="M 19.671875 64.796875 
L 19.671875 37.40625 
L 32.078125 37.40625 
Q 38.96875 37.40625 42.71875 40.96875 
Q 46.484375 44.53125 46.484375 51.125 
Q 46.484375 57.671875 42.71875 61.234375 
Q 38.96875 64.796875 32.078125 64.796875 
z
M 9.8125 72.90625 
L 32.078125 72.90625 
Q 44.34375 72.90625 50.609375 67.359375 
Q 56.890625 61.8125 56.890625 51.125 
Q 56.890625 40.328125 50.609375 34.8125 
Q 44.34375 29.296875 32.078125 29.296875 
L 19.671875 29.296875 
L 19.671875 0 
L 9.8125 0 
z
" id="DejaVuSans-80"/>
     </defs>
     <g transform="translate(557.57325 124.990938)scale(0.1 -0.1)">
      <use xlink:href="#DejaVuSans-83"/>
      <use x="63.476562" xlink:href="#DejaVuSans-68"/>
      <use x="140.478516" xlink:href="#DejaVuSans-80"/>
      <use x="200.78125" xlink:href="#DejaVuSans-48"/>
     </g>
    </g>
    <g id="line2d_83"/>
    <g id="line2d_84">
     <g>
      <use style="fill:#0000ff;stroke:#0000ff;" x="614.845125" xlink:href="#ma2fe97d978" y="62.778438"/>
     </g>
    </g>
    <g id="text_24">
     <!-- SFP0 -->
     <g transform="translate(632.845125 66.278438)scale(0.1 -0.1)">
      <use xlink:href="#DejaVuSans-83"/>
      <use x="63.476562" xlink:href="#DejaVuSans-70"/>
      <use x="120.996094" xlink:href="#DejaVuSans-80"/>
      <use x="181.298828" xlink:href="#DejaVuSans-48"/>
     </g>
    </g>
    <g id="line2d_85"/>
    <g id="line2d_86">
     <g>
      <use style="fill:#008000;stroke:#008000;" x="614.845125" xlink:href="#mf95fb73374" y="77.456563"/>
     </g>
    </g>
    <g id="text_25">
     <!-- SDA1 -->
     <g transform="translate(632.845125 80.956563)scale(0.1 -0.1)">
      <use xlink:href="#DejaVuSans-83"/>
      <use x="63.476562" xlink:href="#DejaVuSans-68"/>
      <use x="140.462891" xlink:href="#DejaVuSans-65"/>
      <use x="208.871094" xlink:href="#DejaVuSans-49"/>
     </g>
    </g>
    <g id="line2d_87"/>
    <g id="line2d_88">
     <g>
      <use style="fill:#ff0000;stroke:#ff0000;" x="614.845125" xlink:href="#m24069ac234" y="92.134688"/>
     </g>
    </g>
    <g id="text_26">
     <!-- SFA1 -->
     <g transform="translate(632.845125 95.634688)scale(0.1 -0.1)">
      <use xlink:href="#DejaVuSans-83"/>
      <use x="63.476562" xlink:href="#DejaVuSans-70"/>
      <use x="120.855469" xlink:href="#DejaVuSans-65"/>
      <use x="189.263672" xlink:href="#DejaVuSans-49"/>
     </g>
    </g>
    <g id="line2d_89"/>
    <g id="line2d_90">
     <g>
      <use style="stroke:#000000;" x="614.845125" xlink:href="#mb6bccf4ee0" y="106.812813"/>
     </g>
    </g>
    <g id="text_27">
     <!-- SDB1 -->
     <g transform="translate(632.845125 110.312813)scale(0.1 -0.1)">
      <use xlink:href="#DejaVuSans-83"/>
      <use x="63.476562" xlink:href="#DejaVuSans-68"/>
      <use x="140.478516" xlink:href="#DejaVuSans-66"/>
      <use x="209.082031" xlink:href="#DejaVuSans-49"/>
     </g>
    </g>
    <g id="line2d_91"/>
    <g id="line2d_92">
     <g>
      <use style="fill:#bfbf00;stroke:#bfbf00;" x="690.117" xlink:href="#ma3a9f9bc56" y="62.778438"/>
     </g>
    </g>
    <g id="text_28">
     <!-- SFB1 -->
     <g transform="translate(708.117 66.278438)scale(0.1 -0.1)">
      <use xlink:href="#DejaVuSans-83"/>
      <use x="63.476562" xlink:href="#DejaVuSans-70"/>
      <use x="120.996094" xlink:href="#DejaVuSans-66"/>
      <use x="189.599609" xlink:href="#DejaVuSans-49"/>
     </g>
    </g>
    <g id="line2d_93"/>
    <g id="line2d_94">
     <g>
      <use style="fill:#0000ff;stroke:#0000ff;" x="690.117" xlink:href="#ma2fe97d978" y="77.456563"/>
     </g>
    </g>
    <g id="text_29">
     <!-- SDP1 -->
     <g transform="translate(708.117 80.956563)scale(0.1 -0.1)">
      <use xlink:href="#DejaVuSans-83"/>
      <use x="63.476562" xlink:href="#DejaVuSans-68"/>
      <use x="140.478516" xlink:href="#DejaVuSans-80"/>
      <use x="200.78125" xlink:href="#DejaVuSans-49"/>
     </g>
    </g>
    <g id="line2d_95"/>
    <g id="line2d_96">
     <g>
      <use style="fill:#008000;stroke:#008000;" x="690.117" xlink:href="#mf95fb73374" y="92.134688"/>
     </g>
    </g>
    <g id="text_30">
     <!-- SFP1 -->
     <g transform="translate(708.117 95.634688)scale(0.1 -0.1)">
      <use xlink:href="#DejaVuSans-83"/>
      <use x="63.476562" xlink:href="#DejaVuSans-70"/>
      <use x="120.996094" xlink:href="#DejaVuSans-80"/>
      <use x="181.298828" xlink:href="#DejaVuSans-49"/>
     </g>
    </g>
    <g id="line2d_97"/>
    <g id="line2d_98">
     <g>
      <use style="fill:#ff0000;stroke:#ff0000;" x="690.117" xlink:href="#m24069ac234" y="106.812813"/>
     </g>
    </g>
    <g id="text_31">
     <!-- SDA2 -->
     <g transform="translate(708.117 110.312813)scale(0.1 -0.1)">
      <use xlink:href="#DejaVuSans-83"/>
      <use x="63.476562" xlink:href="#DejaVuSans-68"/>
      <use x="140.462891" xlink:href="#DejaVuSans-65"/>
      <use x="208.871094" xlink:href="#DejaVuSans-50"/>
     </g>
    </g>
    <g id="line2d_99"/>
    <g id="line2d_100">
     <g>
      <use style="stroke:#000000;" x="765.367" xlink:href="#mb6bccf4ee0" y="62.778438"/>
     </g>
    </g>
    <g id="text_32">
     <!-- SFA2 -->
     <g transform="translate(783.367 66.278438)scale(0.1 -0.1)">
      <use xlink:href="#DejaVuSans-83"/>
      <use x="63.476562" xlink:href="#DejaVuSans-70"/>
      <use x="120.855469" xlink:href="#DejaVuSans-65"/>
      <use x="189.263672" xlink:href="#DejaVuSans-50"/>
     </g>
    </g>
    <g id="line2d_101"/>
    <g id="line2d_102">
     <g>
      <use style="fill:#bfbf00;stroke:#bfbf00;" x="765.367" xlink:href="#ma3a9f9bc56" y="77.456563"/>
     </g>
    </g>
    <g id="text_33">
     <!-- SDB2 -->
     <g transform="translate(783.367 80.956563)scale(0.1 -0.1)">
      <use xlink:href="#DejaVuSans-83"/>
      <use x="63.476562" xlink:href="#DejaVuSans-68"/>
      <use x="140.478516" xlink:href="#DejaVuSans-66"/>
      <use x="209.082031" xlink:href="#DejaVuSans-50"/>
     </g>
    </g>
    <g id="line2d_103"/>
    <g id="line2d_104">
     <g>
      <use style="fill:#0000ff;stroke:#0000ff;" x="765.367" xlink:href="#ma2fe97d978" y="92.134688"/>
     </g>
    </g>
    <g id="text_34">
     <!-- SFB2 -->
     <g transform="translate(783.367 95.634688)scale(0.1 -0.1)">
      <use xlink:href="#DejaVuSans-83"/>
      <use x="63.476562" xlink:href="#DejaVuSans-70"/>
      <use x="120.996094" xlink:href="#DejaVuSans-66"/>
      <use x="189.599609" xlink:href="#DejaVuSans-50"/>
     </g>
    </g>
    <g id="line2d_105"/>
    <g id="line2d_106">
     <g>
      <use style="fill:#008000;stroke:#008000;" x="765.367" xlink:href="#mf95fb73374" y="106.812813"/>
     </g>
    </g>
    <g id="text_35">
     <!-- SDP2 -->
     <g transform="translate(783.367 110.312813)scale(0.1 -0.1)">
      <use xlink:href="#DejaVuSans-83"/>
      <use x="63.476562" xlink:href="#DejaVuSans-68"/>
      <use x="140.478516" xlink:href="#DejaVuSans-80"/>
      <use x="200.78125" xlink:href="#DejaVuSans-50"/>
     </g>
    </g>
    <g id="line2d_107"/>
    <g id="line2d_108">
     <g>
      <use style="fill:#ff0000;stroke:#ff0000;" x="840.638875" xlink:href="#m24069ac234" y="62.778438"/>
     </g>
    </g>
    <g id="text_36">
     <!-- SFP2 -->
     <g transform="translate(858.638875 66.278438)scale(0.1 -0.1)">
      <use xlink:href="#DejaVuSans-83"/>
      <use x="63.476562" xlink:href="#DejaVuSans-70"/>
      <use x="120.996094" xlink:href="#DejaVuSans-80"/>
      <use x="181.298828" xlink:href="#DejaVuSans-50"/>
     </g>
    </g>
    <g id="line2d_109"/>
    <g id="line2d_110">
     <g>
      <use style="stroke:#000000;" x="840.638875" xlink:href="#mb6bccf4ee0" y="77.456563"/>
     </g>
    </g>
    <g id="text_37">
     <!-- SDA3 -->
     <g transform="translate(858.638875 80.956563)scale(0.1 -0.1)">
      <use xlink:href="#DejaVuSans-83"/>
      <use x="63.476562" xlink:href="#DejaVuSans-68"/>
      <use x="140.462891" xlink:href="#DejaVuSans-65"/>
      <use x="208.871094" xlink:href="#DejaVuSans-51"/>
     </g>
    </g>
    <g id="line2d_111"/>
    <g id="line2d_112">
     <g>
      <use style="fill:#bfbf00;stroke:#bfbf00;" x="840.638875" xlink:href="#ma3a9f9bc56" y="92.134688"/>
     </g>
    </g>
    <g id="text_38">
     <!-- SDB3 -->
     <g transform="translate(858.638875 95.634688)scale(0.1 -0.1)">
      <use xlink:href="#DejaVuSans-83"/>
      <use x="63.476562" xlink:href="#DejaVuSans-68"/>
      <use x="140.478516" xlink:href="#DejaVuSans-66"/>
      <use x="209.082031" xlink:href="#DejaVuSans-51"/>
     </g>
    </g>
    <g id="line2d_113"/>
    <g id="line2d_114">
     <g>
      <use style="fill:#0000ff;stroke:#0000ff;" x="840.638875" xlink:href="#ma2fe97d978" y="106.812813"/>
     </g>
    </g>
    <g id="text_39">
     <!-- SDP3 -->
     <g transform="translate(858.638875 110.312813)scale(0.1 -0.1)">
      <use xlink:href="#DejaVuSans-83"/>
      <use x="63.476562" xlink:href="#DejaVuSans-68"/>
      <use x="140.478516" xlink:href="#DejaVuSans-80"/>
      <use x="200.78125" xlink:href="#DejaVuSans-51"/>
     </g>
    </g>
   </g>
  </g>
 </g>
 <defs>
  <clipPath id="pc2938f23ab">
   <rect height="318.78" width="1070.244" x="172.62" y="49.68"/>
  </clipPath>
 </defs>
</svg>
