<?xml version="1.0" encoding="utf-8" standalone="no"?>
<!DOCTYPE svg PUBLIC "-//W3C//DTD SVG 1.1//EN"
  "http://www.w3.org/Graphics/SVG/1.1/DTD/svg11.dtd">
<!-- Created with matplotlib (https://matplotlib.org/) -->
<svg height="413.28pt" version="1.1" viewBox="0 0 1380.96 413.28" width="1380.96pt" xmlns="http://www.w3.org/2000/svg" xmlns:xlink="http://www.w3.org/1999/xlink">
 <defs>
  <style type="text/css">
*{stroke-linecap:butt;stroke-linejoin:round;}
  </style>
 </defs>
 <g id="figure_1">
  <g id="patch_1">
   <path d="M 0 413.28 
L 1380.96 413.28 
L 1380.96 0 
L 0 0 
z
" style="fill:#ffffff;"/>
  </g>
  <g id="axes_1">
   <g id="patch_2">
    <path d="M 172.62 367.8192 
L 1242.864 367.8192 
L 1242.864 49.5936 
L 172.62 49.5936 
z
" style="fill:#ffffff;"/>
   </g>
   <g id="matplotlib.axis_1">
    <g id="xtick_1">
     <g id="line2d_1">
      <path clip-path="url(#p20e8869479)" d="M 221.267455 367.8192 
L 221.267455 49.5936 
" style="fill:none;stroke:#b0b0b0;stroke-linecap:square;stroke-width:0.8;"/>
     </g>
     <g id="line2d_2">
      <defs>
       <path d="M 0 0 
L 0 3.5 
" id="m347c01f9ef" style="stroke:#000000;stroke-width:0.8;"/>
      </defs>
      <g>
       <use style="stroke:#000000;stroke-width:0.8;" x="221.267455" xlink:href="#m347c01f9ef" y="367.8192"/>
      </g>
     </g>
     <g id="text_1">
      <!-- 0 -->
      <defs>
       <path d="M 31.78125 66.40625 
Q 24.171875 66.40625 20.328125 58.90625 
Q 16.5 51.421875 16.5 36.375 
Q 16.5 21.390625 20.328125 13.890625 
Q 24.171875 6.390625 31.78125 6.390625 
Q 39.453125 6.390625 43.28125 13.890625 
Q 47.125 21.390625 47.125 36.375 
Q 47.125 51.421875 43.28125 58.90625 
Q 39.453125 66.40625 31.78125 66.40625 
z
M 31.78125 74.21875 
Q 44.046875 74.21875 50.515625 64.515625 
Q 56.984375 54.828125 56.984375 36.375 
Q 56.984375 17.96875 50.515625 8.265625 
Q 44.046875 -1.421875 31.78125 -1.421875 
Q 19.53125 -1.421875 13.0625 8.265625 
Q 6.59375 17.96875 6.59375 36.375 
Q 6.59375 54.828125 13.0625 64.515625 
Q 19.53125 74.21875 31.78125 74.21875 
z
" id="DejaVuSans-48"/>
      </defs>
      <g transform="translate(218.086205 382.417638)scale(0.1 -0.1)">
       <use xlink:href="#DejaVuSans-48"/>
      </g>
     </g>
    </g>
    <g id="xtick_2">
     <g id="line2d_3">
      <path clip-path="url(#p20e8869479)" d="M 395.631091 367.8192 
L 395.631091 49.5936 
" style="fill:none;stroke:#b0b0b0;stroke-linecap:square;stroke-width:0.8;"/>
     </g>
     <g id="line2d_4">
      <g>
       <use style="stroke:#000000;stroke-width:0.8;" x="395.631091" xlink:href="#m347c01f9ef" y="367.8192"/>
      </g>
     </g>
     <g id="text_2">
      <!-- 50 -->
      <defs>
       <path d="M 10.796875 72.90625 
L 49.515625 72.90625 
L 49.515625 64.59375 
L 19.828125 64.59375 
L 19.828125 46.734375 
Q 21.96875 47.46875 24.109375 47.828125 
Q 26.265625 48.1875 28.421875 48.1875 
Q 40.625 48.1875 47.75 41.5 
Q 54.890625 34.8125 54.890625 23.390625 
Q 54.890625 11.625 47.5625 5.09375 
Q 40.234375 -1.421875 26.90625 -1.421875 
Q 22.3125 -1.421875 17.546875 -0.640625 
Q 12.796875 0.140625 7.71875 1.703125 
L 7.71875 11.625 
Q 12.109375 9.234375 16.796875 8.0625 
Q 21.484375 6.890625 26.703125 6.890625 
Q 35.15625 6.890625 40.078125 11.328125 
Q 45.015625 15.765625 45.015625 23.390625 
Q 45.015625 31 40.078125 35.4375 
Q 35.15625 39.890625 26.703125 39.890625 
Q 22.75 39.890625 18.8125 39.015625 
Q 14.890625 38.140625 10.796875 36.28125 
z
" id="DejaVuSans-53"/>
      </defs>
      <g transform="translate(389.268591 382.417638)scale(0.1 -0.1)">
       <use xlink:href="#DejaVuSans-53"/>
       <use x="63.623047" xlink:href="#DejaVuSans-48"/>
      </g>
     </g>
    </g>
    <g id="xtick_3">
     <g id="line2d_5">
      <path clip-path="url(#p20e8869479)" d="M 569.994727 367.8192 
L 569.994727 49.5936 
" style="fill:none;stroke:#b0b0b0;stroke-linecap:square;stroke-width:0.8;"/>
     </g>
     <g id="line2d_6">
      <g>
       <use style="stroke:#000000;stroke-width:0.8;" x="569.994727" xlink:href="#m347c01f9ef" y="367.8192"/>
      </g>
     </g>
     <g id="text_3">
      <!-- 100 -->
      <defs>
       <path d="M 12.40625 8.296875 
L 28.515625 8.296875 
L 28.515625 63.921875 
L 10.984375 60.40625 
L 10.984375 69.390625 
L 28.421875 72.90625 
L 38.28125 72.90625 
L 38.28125 8.296875 
L 54.390625 8.296875 
L 54.390625 0 
L 12.40625 0 
z
" id="DejaVuSans-49"/>
      </defs>
      <g transform="translate(560.450977 382.417638)scale(0.1 -0.1)">
       <use xlink:href="#DejaVuSans-49"/>
       <use x="63.623047" xlink:href="#DejaVuSans-48"/>
       <use x="127.246094" xlink:href="#DejaVuSans-48"/>
      </g>
     </g>
    </g>
    <g id="xtick_4">
     <g id="line2d_7">
      <path clip-path="url(#p20e8869479)" d="M 744.358364 367.8192 
L 744.358364 49.5936 
" style="fill:none;stroke:#b0b0b0;stroke-linecap:square;stroke-width:0.8;"/>
     </g>
     <g id="line2d_8">
      <g>
       <use style="stroke:#000000;stroke-width:0.8;" x="744.358364" xlink:href="#m347c01f9ef" y="367.8192"/>
      </g>
     </g>
     <g id="text_4">
      <!-- 150 -->
      <g transform="translate(734.814614 382.417638)scale(0.1 -0.1)">
       <use xlink:href="#DejaVuSans-49"/>
       <use x="63.623047" xlink:href="#DejaVuSans-53"/>
       <use x="127.246094" xlink:href="#DejaVuSans-48"/>
      </g>
     </g>
    </g>
    <g id="xtick_5">
     <g id="line2d_9">
      <path clip-path="url(#p20e8869479)" d="M 918.722 367.8192 
L 918.722 49.5936 
" style="fill:none;stroke:#b0b0b0;stroke-linecap:square;stroke-width:0.8;"/>
     </g>
     <g id="line2d_10">
      <g>
       <use style="stroke:#000000;stroke-width:0.8;" x="918.722" xlink:href="#m347c01f9ef" y="367.8192"/>
      </g>
     </g>
     <g id="text_5">
      <!-- 200 -->
      <defs>
       <path d="M 19.1875 8.296875 
L 53.609375 8.296875 
L 53.609375 0 
L 7.328125 0 
L 7.328125 8.296875 
Q 12.9375 14.109375 22.625 23.890625 
Q 32.328125 33.6875 34.8125 36.53125 
Q 39.546875 41.84375 41.421875 45.53125 
Q 43.3125 49.21875 43.3125 52.78125 
Q 43.3125 58.59375 39.234375 62.25 
Q 35.15625 65.921875 28.609375 65.921875 
Q 23.96875 65.921875 18.8125 64.3125 
Q 13.671875 62.703125 7.8125 59.421875 
L 7.8125 69.390625 
Q 13.765625 71.78125 18.9375 73 
Q 24.125 74.21875 28.421875 74.21875 
Q 39.75 74.21875 46.484375 68.546875 
Q 53.21875 62.890625 53.21875 53.421875 
Q 53.21875 48.921875 51.53125 44.890625 
Q 49.859375 40.875 45.40625 35.40625 
Q 44.1875 33.984375 37.640625 27.21875 
Q 31.109375 20.453125 19.1875 8.296875 
z
" id="DejaVuSans-50"/>
      </defs>
      <g transform="translate(909.17825 382.417638)scale(0.1 -0.1)">
       <use xlink:href="#DejaVuSans-50"/>
       <use x="63.623047" xlink:href="#DejaVuSans-48"/>
       <use x="127.246094" xlink:href="#DejaVuSans-48"/>
      </g>
     </g>
    </g>
    <g id="xtick_6">
     <g id="line2d_11">
      <path clip-path="url(#p20e8869479)" d="M 1093.085636 367.8192 
L 1093.085636 49.5936 
" style="fill:none;stroke:#b0b0b0;stroke-linecap:square;stroke-width:0.8;"/>
     </g>
     <g id="line2d_12">
      <g>
       <use style="stroke:#000000;stroke-width:0.8;" x="1093.085636" xlink:href="#m347c01f9ef" y="367.8192"/>
      </g>
     </g>
     <g id="text_6">
      <!-- 250 -->
      <g transform="translate(1083.541886 382.417638)scale(0.1 -0.1)">
       <use xlink:href="#DejaVuSans-50"/>
       <use x="63.623047" xlink:href="#DejaVuSans-53"/>
       <use x="127.246094" xlink:href="#DejaVuSans-48"/>
      </g>
     </g>
    </g>
    <g id="text_7">
     <!-- Magnet Index -->
     <defs>
      <path d="M 9.8125 72.90625 
L 24.515625 72.90625 
L 43.109375 23.296875 
L 61.8125 72.90625 
L 76.515625 72.90625 
L 76.515625 0 
L 66.890625 0 
L 66.890625 64.015625 
L 48.09375 14.015625 
L 38.1875 14.015625 
L 19.390625 64.015625 
L 19.390625 0 
L 9.8125 0 
z
" id="DejaVuSans-77"/>
      <path d="M 34.28125 27.484375 
Q 23.390625 27.484375 19.1875 25 
Q 14.984375 22.515625 14.984375 16.5 
Q 14.984375 11.71875 18.140625 8.90625 
Q 21.296875 6.109375 26.703125 6.109375 
Q 34.1875 6.109375 38.703125 11.40625 
Q 43.21875 16.703125 43.21875 25.484375 
L 43.21875 27.484375 
z
M 52.203125 31.203125 
L 52.203125 0 
L 43.21875 0 
L 43.21875 8.296875 
Q 40.140625 3.328125 35.546875 0.953125 
Q 30.953125 -1.421875 24.3125 -1.421875 
Q 15.921875 -1.421875 10.953125 3.296875 
Q 6 8.015625 6 15.921875 
Q 6 25.140625 12.171875 29.828125 
Q 18.359375 34.515625 30.609375 34.515625 
L 43.21875 34.515625 
L 43.21875 35.40625 
Q 43.21875 41.609375 39.140625 45 
Q 35.0625 48.390625 27.6875 48.390625 
Q 23 48.390625 18.546875 47.265625 
Q 14.109375 46.140625 10.015625 43.890625 
L 10.015625 52.203125 
Q 14.9375 54.109375 19.578125 55.046875 
Q 24.21875 56 28.609375 56 
Q 40.484375 56 46.34375 49.84375 
Q 52.203125 43.703125 52.203125 31.203125 
z
" id="DejaVuSans-97"/>
      <path d="M 45.40625 27.984375 
Q 45.40625 37.75 41.375 43.109375 
Q 37.359375 48.484375 30.078125 48.484375 
Q 22.859375 48.484375 18.828125 43.109375 
Q 14.796875 37.75 14.796875 27.984375 
Q 14.796875 18.265625 18.828125 12.890625 
Q 22.859375 7.515625 30.078125 7.515625 
Q 37.359375 7.515625 41.375 12.890625 
Q 45.40625 18.265625 45.40625 27.984375 
z
M 54.390625 6.78125 
Q 54.390625 -7.171875 48.1875 -13.984375 
Q 42 -20.796875 29.203125 -20.796875 
Q 24.46875 -20.796875 20.265625 -20.09375 
Q 16.0625 -19.390625 12.109375 -17.921875 
L 12.109375 -9.1875 
Q 16.0625 -11.328125 19.921875 -12.34375 
Q 23.78125 -13.375 27.78125 -13.375 
Q 36.625 -13.375 41.015625 -8.765625 
Q 45.40625 -4.15625 45.40625 5.171875 
L 45.40625 9.625 
Q 42.625 4.78125 38.28125 2.390625 
Q 33.9375 0 27.875 0 
Q 17.828125 0 11.671875 7.65625 
Q 5.515625 15.328125 5.515625 27.984375 
Q 5.515625 40.671875 11.671875 48.328125 
Q 17.828125 56 27.875 56 
Q 33.9375 56 38.28125 53.609375 
Q 42.625 51.21875 45.40625 46.390625 
L 45.40625 54.6875 
L 54.390625 54.6875 
z
" id="DejaVuSans-103"/>
      <path d="M 54.890625 33.015625 
L 54.890625 0 
L 45.90625 0 
L 45.90625 32.71875 
Q 45.90625 40.484375 42.875 44.328125 
Q 39.84375 48.1875 33.796875 48.1875 
Q 26.515625 48.1875 22.3125 43.546875 
Q 18.109375 38.921875 18.109375 30.90625 
L 18.109375 0 
L 9.078125 0 
L 9.078125 54.6875 
L 18.109375 54.6875 
L 18.109375 46.1875 
Q 21.34375 51.125 25.703125 53.5625 
Q 30.078125 56 35.796875 56 
Q 45.21875 56 50.046875 50.171875 
Q 54.890625 44.34375 54.890625 33.015625 
z
" id="DejaVuSans-110"/>
      <path d="M 56.203125 29.59375 
L 56.203125 25.203125 
L 14.890625 25.203125 
Q 15.484375 15.921875 20.484375 11.0625 
Q 25.484375 6.203125 34.421875 6.203125 
Q 39.59375 6.203125 44.453125 7.46875 
Q 49.3125 8.734375 54.109375 11.28125 
L 54.109375 2.78125 
Q 49.265625 0.734375 44.1875 -0.34375 
Q 39.109375 -1.421875 33.890625 -1.421875 
Q 20.796875 -1.421875 13.15625 6.1875 
Q 5.515625 13.8125 5.515625 26.8125 
Q 5.515625 40.234375 12.765625 48.109375 
Q 20.015625 56 32.328125 56 
Q 43.359375 56 49.78125 48.890625 
Q 56.203125 41.796875 56.203125 29.59375 
z
M 47.21875 32.234375 
Q 47.125 39.59375 43.09375 43.984375 
Q 39.0625 48.390625 32.421875 48.390625 
Q 24.90625 48.390625 20.390625 44.140625 
Q 15.875 39.890625 15.1875 32.171875 
z
" id="DejaVuSans-101"/>
      <path d="M 18.3125 70.21875 
L 18.3125 54.6875 
L 36.8125 54.6875 
L 36.8125 47.703125 
L 18.3125 47.703125 
L 18.3125 18.015625 
Q 18.3125 11.328125 20.140625 9.421875 
Q 21.96875 7.515625 27.59375 7.515625 
L 36.8125 7.515625 
L 36.8125 0 
L 27.59375 0 
Q 17.1875 0 13.234375 3.875 
Q 9.28125 7.765625 9.28125 18.015625 
L 9.28125 47.703125 
L 2.6875 47.703125 
L 2.6875 54.6875 
L 9.28125 54.6875 
L 9.28125 70.21875 
z
" id="DejaVuSans-116"/>
      <path id="DejaVuSans-32"/>
      <path d="M 9.8125 72.90625 
L 19.671875 72.90625 
L 19.671875 0 
L 9.8125 0 
z
" id="DejaVuSans-73"/>
      <path d="M 45.40625 46.390625 
L 45.40625 75.984375 
L 54.390625 75.984375 
L 54.390625 0 
L 45.40625 0 
L 45.40625 8.203125 
Q 42.578125 3.328125 38.25 0.953125 
Q 33.9375 -1.421875 27.875 -1.421875 
Q 17.96875 -1.421875 11.734375 6.484375 
Q 5.515625 14.40625 5.515625 27.296875 
Q 5.515625 40.1875 11.734375 48.09375 
Q 17.96875 56 27.875 56 
Q 33.9375 56 38.25 53.625 
Q 42.578125 51.265625 45.40625 46.390625 
z
M 14.796875 27.296875 
Q 14.796875 17.390625 18.875 11.75 
Q 22.953125 6.109375 30.078125 6.109375 
Q 37.203125 6.109375 41.296875 11.75 
Q 45.40625 17.390625 45.40625 27.296875 
Q 45.40625 37.203125 41.296875 42.84375 
Q 37.203125 48.484375 30.078125 48.484375 
Q 22.953125 48.484375 18.875 42.84375 
Q 14.796875 37.203125 14.796875 27.296875 
z
" id="DejaVuSans-100"/>
      <path d="M 54.890625 54.6875 
L 35.109375 28.078125 
L 55.90625 0 
L 45.3125 0 
L 29.390625 21.484375 
L 13.484375 0 
L 2.875 0 
L 24.125 28.609375 
L 4.6875 54.6875 
L 15.28125 54.6875 
L 29.78125 35.203125 
L 44.28125 54.6875 
z
" id="DejaVuSans-120"/>
     </defs>
     <g transform="translate(673.542 396.095763)scale(0.1 -0.1)">
      <use xlink:href="#DejaVuSans-77"/>
      <use x="86.279297" xlink:href="#DejaVuSans-97"/>
      <use x="147.558594" xlink:href="#DejaVuSans-103"/>
      <use x="211.035156" xlink:href="#DejaVuSans-110"/>
      <use x="274.414062" xlink:href="#DejaVuSans-101"/>
      <use x="335.9375" xlink:href="#DejaVuSans-116"/>
      <use x="375.146484" xlink:href="#DejaVuSans-32"/>
      <use x="406.933594" xlink:href="#DejaVuSans-73"/>
      <use x="436.425781" xlink:href="#DejaVuSans-110"/>
      <use x="499.804688" xlink:href="#DejaVuSans-100"/>
      <use x="563.28125" xlink:href="#DejaVuSans-101"/>
      <use x="624.789062" xlink:href="#DejaVuSans-120"/>
     </g>
    </g>
   </g>
   <g id="matplotlib.axis_2">
    <g id="ytick_1">
     <g id="line2d_13">
      <path clip-path="url(#p20e8869479)" d="M 172.62 337.714635 
L 1242.864 337.714635 
" style="fill:none;stroke:#b0b0b0;stroke-linecap:square;stroke-width:0.8;"/>
     </g>
     <g id="line2d_14">
      <defs>
       <path d="M 0 0 
L -3.5 0 
" id="m6b679a4c78" style="stroke:#000000;stroke-width:0.8;"/>
      </defs>
      <g>
       <use style="stroke:#000000;stroke-width:0.8;" x="172.62" xlink:href="#m6b679a4c78" y="337.714635"/>
      </g>
     </g>
     <g id="text_8">
      <!-- −0.2 -->
      <defs>
       <path d="M 10.59375 35.5 
L 73.1875 35.5 
L 73.1875 27.203125 
L 10.59375 27.203125 
z
" id="DejaVuSans-8722"/>
       <path d="M 10.6875 12.40625 
L 21 12.40625 
L 21 0 
L 10.6875 0 
z
" id="DejaVuSans-46"/>
      </defs>
      <g transform="translate(141.337187 341.513854)scale(0.1 -0.1)">
       <use xlink:href="#DejaVuSans-8722"/>
       <use x="83.789062" xlink:href="#DejaVuSans-48"/>
       <use x="147.412109" xlink:href="#DejaVuSans-46"/>
       <use x="179.199219" xlink:href="#DejaVuSans-50"/>
      </g>
     </g>
    </g>
    <g id="ytick_2">
     <g id="line2d_15">
      <path clip-path="url(#p20e8869479)" d="M 172.62 289.664878 
L 1242.864 289.664878 
" style="fill:none;stroke:#b0b0b0;stroke-linecap:square;stroke-width:0.8;"/>
     </g>
     <g id="line2d_16">
      <g>
       <use style="stroke:#000000;stroke-width:0.8;" x="172.62" xlink:href="#m6b679a4c78" y="289.664878"/>
      </g>
     </g>
     <g id="text_9">
      <!-- −0.1 -->
      <g transform="translate(141.337187 293.464097)scale(0.1 -0.1)">
       <use xlink:href="#DejaVuSans-8722"/>
       <use x="83.789062" xlink:href="#DejaVuSans-48"/>
       <use x="147.412109" xlink:href="#DejaVuSans-46"/>
       <use x="179.199219" xlink:href="#DejaVuSans-49"/>
      </g>
     </g>
    </g>
    <g id="ytick_3">
     <g id="line2d_17">
      <path clip-path="url(#p20e8869479)" d="M 172.62 241.615121 
L 1242.864 241.615121 
" style="fill:none;stroke:#b0b0b0;stroke-linecap:square;stroke-width:0.8;"/>
     </g>
     <g id="line2d_18">
      <g>
       <use style="stroke:#000000;stroke-width:0.8;" x="172.62" xlink:href="#m6b679a4c78" y="241.615121"/>
      </g>
     </g>
     <g id="text_10">
      <!-- 0.0 -->
      <g transform="translate(149.716875 245.41434)scale(0.1 -0.1)">
       <use xlink:href="#DejaVuSans-48"/>
       <use x="63.623047" xlink:href="#DejaVuSans-46"/>
       <use x="95.410156" xlink:href="#DejaVuSans-48"/>
      </g>
     </g>
    </g>
    <g id="ytick_4">
     <g id="line2d_19">
      <path clip-path="url(#p20e8869479)" d="M 172.62 193.565364 
L 1242.864 193.565364 
" style="fill:none;stroke:#b0b0b0;stroke-linecap:square;stroke-width:0.8;"/>
     </g>
     <g id="line2d_20">
      <g>
       <use style="stroke:#000000;stroke-width:0.8;" x="172.62" xlink:href="#m6b679a4c78" y="193.565364"/>
      </g>
     </g>
     <g id="text_11">
      <!-- 0.1 -->
      <g transform="translate(149.716875 197.364583)scale(0.1 -0.1)">
       <use xlink:href="#DejaVuSans-48"/>
       <use x="63.623047" xlink:href="#DejaVuSans-46"/>
       <use x="95.410156" xlink:href="#DejaVuSans-49"/>
      </g>
     </g>
    </g>
    <g id="ytick_5">
     <g id="line2d_21">
      <path clip-path="url(#p20e8869479)" d="M 172.62 145.515607 
L 1242.864 145.515607 
" style="fill:none;stroke:#b0b0b0;stroke-linecap:square;stroke-width:0.8;"/>
     </g>
     <g id="line2d_22">
      <g>
       <use style="stroke:#000000;stroke-width:0.8;" x="172.62" xlink:href="#m6b679a4c78" y="145.515607"/>
      </g>
     </g>
     <g id="text_12">
      <!-- 0.2 -->
      <g transform="translate(149.716875 149.314826)scale(0.1 -0.1)">
       <use xlink:href="#DejaVuSans-48"/>
       <use x="63.623047" xlink:href="#DejaVuSans-46"/>
       <use x="95.410156" xlink:href="#DejaVuSans-50"/>
      </g>
     </g>
    </g>
    <g id="ytick_6">
     <g id="line2d_23">
      <path clip-path="url(#p20e8869479)" d="M 172.62 97.46585 
L 1242.864 97.46585 
" style="fill:none;stroke:#b0b0b0;stroke-linecap:square;stroke-width:0.8;"/>
     </g>
     <g id="line2d_24">
      <g>
       <use style="stroke:#000000;stroke-width:0.8;" x="172.62" xlink:href="#m6b679a4c78" y="97.46585"/>
      </g>
     </g>
     <g id="text_13">
      <!-- 0.3 -->
      <defs>
       <path d="M 40.578125 39.3125 
Q 47.65625 37.796875 51.625 33 
Q 55.609375 28.21875 55.609375 21.1875 
Q 55.609375 10.40625 48.1875 4.484375 
Q 40.765625 -1.421875 27.09375 -1.421875 
Q 22.515625 -1.421875 17.65625 -0.515625 
Q 12.796875 0.390625 7.625 2.203125 
L 7.625 11.71875 
Q 11.71875 9.328125 16.59375 8.109375 
Q 21.484375 6.890625 26.8125 6.890625 
Q 36.078125 6.890625 40.9375 10.546875 
Q 45.796875 14.203125 45.796875 21.1875 
Q 45.796875 27.640625 41.28125 31.265625 
Q 36.765625 34.90625 28.71875 34.90625 
L 20.21875 34.90625 
L 20.21875 43.015625 
L 29.109375 43.015625 
Q 36.375 43.015625 40.234375 45.921875 
Q 44.09375 48.828125 44.09375 54.296875 
Q 44.09375 59.90625 40.109375 62.90625 
Q 36.140625 65.921875 28.71875 65.921875 
Q 24.65625 65.921875 20.015625 65.03125 
Q 15.375 64.15625 9.8125 62.3125 
L 9.8125 71.09375 
Q 15.4375 72.65625 20.34375 73.4375 
Q 25.25 74.21875 29.59375 74.21875 
Q 40.828125 74.21875 47.359375 69.109375 
Q 53.90625 64.015625 53.90625 55.328125 
Q 53.90625 49.265625 50.4375 45.09375 
Q 46.96875 40.921875 40.578125 39.3125 
z
" id="DejaVuSans-51"/>
      </defs>
      <g transform="translate(149.716875 101.265069)scale(0.1 -0.1)">
       <use xlink:href="#DejaVuSans-48"/>
       <use x="63.623047" xlink:href="#DejaVuSans-46"/>
       <use x="95.410156" xlink:href="#DejaVuSans-51"/>
      </g>
     </g>
    </g>
    <g id="ytick_7">
     <g id="line2d_25">
      <path clip-path="url(#p20e8869479)" d="M 172.62 49.416093 
L 1242.864 49.416093 
" style="fill:none;stroke:#b0b0b0;stroke-linecap:square;stroke-width:0.8;"/>
     </g>
     <g id="line2d_26">
      <g>
       <use style="stroke:#000000;stroke-width:0.8;" x="172.62" xlink:href="#m6b679a4c78" y="49.416093"/>
      </g>
     </g>
     <g id="text_14">
      <!-- 0.4 -->
      <defs>
       <path d="M 37.796875 64.3125 
L 12.890625 25.390625 
L 37.796875 25.390625 
z
M 35.203125 72.90625 
L 47.609375 72.90625 
L 47.609375 25.390625 
L 58.015625 25.390625 
L 58.015625 17.1875 
L 47.609375 17.1875 
L 47.609375 0 
L 37.796875 0 
L 37.796875 17.1875 
L 4.890625 17.1875 
L 4.890625 26.703125 
z
" id="DejaVuSans-52"/>
      </defs>
      <g transform="translate(149.716875 53.215311)scale(0.1 -0.1)">
       <use xlink:href="#DejaVuSans-48"/>
       <use x="63.623047" xlink:href="#DejaVuSans-46"/>
       <use x="95.410156" xlink:href="#DejaVuSans-52"/>
      </g>
     </g>
    </g>
    <g id="text_15">
     <!-- Error [mrad] -->
     <defs>
      <path d="M 9.8125 72.90625 
L 55.90625 72.90625 
L 55.90625 64.59375 
L 19.671875 64.59375 
L 19.671875 43.015625 
L 54.390625 43.015625 
L 54.390625 34.71875 
L 19.671875 34.71875 
L 19.671875 8.296875 
L 56.78125 8.296875 
L 56.78125 0 
L 9.8125 0 
z
" id="DejaVuSans-69"/>
      <path d="M 41.109375 46.296875 
Q 39.59375 47.171875 37.8125 47.578125 
Q 36.03125 48 33.890625 48 
Q 26.265625 48 22.1875 43.046875 
Q 18.109375 38.09375 18.109375 28.8125 
L 18.109375 0 
L 9.078125 0 
L 9.078125 54.6875 
L 18.109375 54.6875 
L 18.109375 46.1875 
Q 20.953125 51.171875 25.484375 53.578125 
Q 30.03125 56 36.53125 56 
Q 37.453125 56 38.578125 55.875 
Q 39.703125 55.765625 41.0625 55.515625 
z
" id="DejaVuSans-114"/>
      <path d="M 30.609375 48.390625 
Q 23.390625 48.390625 19.1875 42.75 
Q 14.984375 37.109375 14.984375 27.296875 
Q 14.984375 17.484375 19.15625 11.84375 
Q 23.34375 6.203125 30.609375 6.203125 
Q 37.796875 6.203125 41.984375 11.859375 
Q 46.1875 17.53125 46.1875 27.296875 
Q 46.1875 37.015625 41.984375 42.703125 
Q 37.796875 48.390625 30.609375 48.390625 
z
M 30.609375 56 
Q 42.328125 56 49.015625 48.375 
Q 55.71875 40.765625 55.71875 27.296875 
Q 55.71875 13.875 49.015625 6.21875 
Q 42.328125 -1.421875 30.609375 -1.421875 
Q 18.84375 -1.421875 12.171875 6.21875 
Q 5.515625 13.875 5.515625 27.296875 
Q 5.515625 40.765625 12.171875 48.375 
Q 18.84375 56 30.609375 56 
z
" id="DejaVuSans-111"/>
      <path d="M 8.59375 75.984375 
L 29.296875 75.984375 
L 29.296875 69 
L 17.578125 69 
L 17.578125 -6.203125 
L 29.296875 -6.203125 
L 29.296875 -13.1875 
L 8.59375 -13.1875 
z
" id="DejaVuSans-91"/>
      <path d="M 52 44.1875 
Q 55.375 50.25 60.0625 53.125 
Q 64.75 56 71.09375 56 
Q 79.640625 56 84.28125 50.015625 
Q 88.921875 44.046875 88.921875 33.015625 
L 88.921875 0 
L 79.890625 0 
L 79.890625 32.71875 
Q 79.890625 40.578125 77.09375 44.375 
Q 74.3125 48.1875 68.609375 48.1875 
Q 61.625 48.1875 57.5625 43.546875 
Q 53.515625 38.921875 53.515625 30.90625 
L 53.515625 0 
L 44.484375 0 
L 44.484375 32.71875 
Q 44.484375 40.625 41.703125 44.40625 
Q 38.921875 48.1875 33.109375 48.1875 
Q 26.21875 48.1875 22.15625 43.53125 
Q 18.109375 38.875 18.109375 30.90625 
L 18.109375 0 
L 9.078125 0 
L 9.078125 54.6875 
L 18.109375 54.6875 
L 18.109375 46.1875 
Q 21.1875 51.21875 25.484375 53.609375 
Q 29.78125 56 35.6875 56 
Q 41.65625 56 45.828125 52.96875 
Q 50 49.953125 52 44.1875 
z
" id="DejaVuSans-109"/>
      <path d="M 30.421875 75.984375 
L 30.421875 -13.1875 
L 9.71875 -13.1875 
L 9.71875 -6.203125 
L 21.390625 -6.203125 
L 21.390625 69 
L 9.71875 69 
L 9.71875 75.984375 
z
" id="DejaVuSans-93"/>
     </defs>
     <g transform="translate(135.2575 239.7439)rotate(-90)scale(0.1 -0.1)">
      <use xlink:href="#DejaVuSans-69"/>
      <use x="63.183594" xlink:href="#DejaVuSans-114"/>
      <use x="104.28125" xlink:href="#DejaVuSans-114"/>
      <use x="145.363281" xlink:href="#DejaVuSans-111"/>
      <use x="206.544922" xlink:href="#DejaVuSans-114"/>
      <use x="247.658203" xlink:href="#DejaVuSans-32"/>
      <use x="279.445312" xlink:href="#DejaVuSans-91"/>
      <use x="318.458984" xlink:href="#DejaVuSans-109"/>
      <use x="415.871094" xlink:href="#DejaVuSans-114"/>
      <use x="456.984375" xlink:href="#DejaVuSans-97"/>
      <use x="518.263672" xlink:href="#DejaVuSans-100"/>
      <use x="581.740234" xlink:href="#DejaVuSans-93"/>
     </g>
    </g>
   </g>
   <g id="line2d_27">
    <path clip-path="url(#p20e8869479)" d="M 221.267455 286.568553 
L 224.754727 279.866568 
L 228.242 217.489903 
L 231.729273 241.287554 
L 235.216545 251.479339 
L 238.703818 230.333284 
L 242.191091 234.494596 
L 245.678364 293.008282 
L 249.165636 248.059687 
L 252.652909 239.771673 
" style="fill:none;stroke:#0000ff;stroke-linecap:square;stroke-width:1.5;"/>
   </g>
   <g id="line2d_28">
    <defs>
     <path d="M 0 3 
C 0.795609 3 1.55874 2.683901 2.12132 2.12132 
C 2.683901 1.55874 3 0.795609 3 0 
C 3 -0.795609 2.683901 -1.55874 2.12132 -2.12132 
C 1.55874 -2.683901 0.795609 -3 0 -3 
C -0.795609 -3 -1.55874 -2.683901 -2.12132 -2.12132 
C -2.683901 -1.55874 -3 -0.795609 -3 0 
C -3 0.795609 -2.683901 1.55874 -2.12132 2.12132 
C -1.55874 2.683901 -0.795609 3 0 3 
z
" id="m52be428072" style="stroke:#0000ff;"/>
    </defs>
    <g clip-path="url(#p20e8869479)">
     <use style="fill:#0000ff;stroke:#0000ff;" x="221.267455" xlink:href="#m52be428072" y="286.568553"/>
     <use style="fill:#0000ff;stroke:#0000ff;" x="224.754727" xlink:href="#m52be428072" y="279.866568"/>
     <use style="fill:#0000ff;stroke:#0000ff;" x="228.242" xlink:href="#m52be428072" y="217.489903"/>
     <use style="fill:#0000ff;stroke:#0000ff;" x="231.729273" xlink:href="#m52be428072" y="241.287554"/>
     <use style="fill:#0000ff;stroke:#0000ff;" x="235.216545" xlink:href="#m52be428072" y="251.479339"/>
     <use style="fill:#0000ff;stroke:#0000ff;" x="238.703818" xlink:href="#m52be428072" y="230.333284"/>
     <use style="fill:#0000ff;stroke:#0000ff;" x="242.191091" xlink:href="#m52be428072" y="234.494596"/>
     <use style="fill:#0000ff;stroke:#0000ff;" x="245.678364" xlink:href="#m52be428072" y="293.008282"/>
     <use style="fill:#0000ff;stroke:#0000ff;" x="249.165636" xlink:href="#m52be428072" y="248.059687"/>
     <use style="fill:#0000ff;stroke:#0000ff;" x="252.652909" xlink:href="#m52be428072" y="239.771673"/>
    </g>
   </g>
   <g id="line2d_29">
    <path clip-path="url(#p20e8869479)" d="M 256.140182 157.079574 
L 259.627455 159.537727 
L 263.114727 77.001164 
L 266.602 193.016079 
L 270.089273 175.632608 
L 273.576545 156.892542 
L 277.063818 111.112211 
L 280.551091 167.121894 
L 284.038364 204.840524 
L 287.525636 184.269768 
" style="fill:none;stroke:#008000;stroke-linecap:square;stroke-width:1.5;"/>
   </g>
   <g id="line2d_30">
    <defs>
     <path d="M 0 3 
C 0.795609 3 1.55874 2.683901 2.12132 2.12132 
C 2.683901 1.55874 3 0.795609 3 0 
C 3 -0.795609 2.683901 -1.55874 2.12132 -2.12132 
C 1.55874 -2.683901 0.795609 -3 0 -3 
C -0.795609 -3 -1.55874 -2.683901 -2.12132 -2.12132 
C -2.683901 -1.55874 -3 -0.795609 -3 0 
C -3 0.795609 -2.683901 1.55874 -2.12132 2.12132 
C -1.55874 2.683901 -0.795609 3 0 3 
z
" id="mdf9922b10a" style="stroke:#008000;"/>
    </defs>
    <g clip-path="url(#p20e8869479)">
     <use style="fill:#008000;stroke:#008000;" x="256.140182" xlink:href="#mdf9922b10a" y="157.079574"/>
     <use style="fill:#008000;stroke:#008000;" x="259.627455" xlink:href="#mdf9922b10a" y="159.537727"/>
     <use style="fill:#008000;stroke:#008000;" x="263.114727" xlink:href="#mdf9922b10a" y="77.001164"/>
     <use style="fill:#008000;stroke:#008000;" x="266.602" xlink:href="#mdf9922b10a" y="193.016079"/>
     <use style="fill:#008000;stroke:#008000;" x="270.089273" xlink:href="#mdf9922b10a" y="175.632608"/>
     <use style="fill:#008000;stroke:#008000;" x="273.576545" xlink:href="#mdf9922b10a" y="156.892542"/>
     <use style="fill:#008000;stroke:#008000;" x="277.063818" xlink:href="#mdf9922b10a" y="111.112211"/>
     <use style="fill:#008000;stroke:#008000;" x="280.551091" xlink:href="#mdf9922b10a" y="167.121894"/>
     <use style="fill:#008000;stroke:#008000;" x="284.038364" xlink:href="#mdf9922b10a" y="204.840524"/>
     <use style="fill:#008000;stroke:#008000;" x="287.525636" xlink:href="#mdf9922b10a" y="184.269768"/>
    </g>
   </g>
   <g id="line2d_31">
    <path clip-path="url(#p20e8869479)" d="M 291.012909 181.741816 
L 294.500182 159.694885 
L 297.987455 142.836715 
L 301.474727 125.604952 
L 304.962 157.87671 
L 308.449273 142.109971 
L 311.936545 172.883007 
L 315.423818 171.536834 
L 318.911091 155.903819 
L 322.398364 175.803369 
L 325.885636 195.081421 
L 329.372909 168.362973 
L 332.860182 138.420489 
L 336.347455 176.668723 
L 339.834727 159.243929 
L 343.322 135.324282 
L 346.809273 185.289572 
L 350.296545 166.561408 
L 353.783818 178.931229 
L 357.271091 161.550163 
" style="fill:none;stroke:#ff0000;stroke-linecap:square;stroke-width:1.5;"/>
   </g>
   <g id="line2d_32">
    <defs>
     <path d="M 0 3 
C 0.795609 3 1.55874 2.683901 2.12132 2.12132 
C 2.683901 1.55874 3 0.795609 3 0 
C 3 -0.795609 2.683901 -1.55874 2.12132 -2.12132 
C 1.55874 -2.683901 0.795609 -3 0 -3 
C -0.795609 -3 -1.55874 -2.683901 -2.12132 -2.12132 
C -2.683901 -1.55874 -3 -0.795609 -3 0 
C -3 0.795609 -2.683901 1.55874 -2.12132 2.12132 
C -1.55874 2.683901 -0.795609 3 0 3 
z
" id="me315918b4e" style="stroke:#ff0000;"/>
    </defs>
    <g clip-path="url(#p20e8869479)">
     <use style="fill:#ff0000;stroke:#ff0000;" x="291.012909" xlink:href="#me315918b4e" y="181.741816"/>
     <use style="fill:#ff0000;stroke:#ff0000;" x="294.500182" xlink:href="#me315918b4e" y="159.694885"/>
     <use style="fill:#ff0000;stroke:#ff0000;" x="297.987455" xlink:href="#me315918b4e" y="142.836715"/>
     <use style="fill:#ff0000;stroke:#ff0000;" x="301.474727" xlink:href="#me315918b4e" y="125.604952"/>
     <use style="fill:#ff0000;stroke:#ff0000;" x="304.962" xlink:href="#me315918b4e" y="157.87671"/>
     <use style="fill:#ff0000;stroke:#ff0000;" x="308.449273" xlink:href="#me315918b4e" y="142.109971"/>
     <use style="fill:#ff0000;stroke:#ff0000;" x="311.936545" xlink:href="#me315918b4e" y="172.883007"/>
     <use style="fill:#ff0000;stroke:#ff0000;" x="315.423818" xlink:href="#me315918b4e" y="171.536834"/>
     <use style="fill:#ff0000;stroke:#ff0000;" x="318.911091" xlink:href="#me315918b4e" y="155.903819"/>
     <use style="fill:#ff0000;stroke:#ff0000;" x="322.398364" xlink:href="#me315918b4e" y="175.803369"/>
     <use style="fill:#ff0000;stroke:#ff0000;" x="325.885636" xlink:href="#me315918b4e" y="195.081421"/>
     <use style="fill:#ff0000;stroke:#ff0000;" x="329.372909" xlink:href="#me315918b4e" y="168.362973"/>
     <use style="fill:#ff0000;stroke:#ff0000;" x="332.860182" xlink:href="#me315918b4e" y="138.420489"/>
     <use style="fill:#ff0000;stroke:#ff0000;" x="336.347455" xlink:href="#me315918b4e" y="176.668723"/>
     <use style="fill:#ff0000;stroke:#ff0000;" x="339.834727" xlink:href="#me315918b4e" y="159.243929"/>
     <use style="fill:#ff0000;stroke:#ff0000;" x="343.322" xlink:href="#me315918b4e" y="135.324282"/>
     <use style="fill:#ff0000;stroke:#ff0000;" x="346.809273" xlink:href="#me315918b4e" y="185.289572"/>
     <use style="fill:#ff0000;stroke:#ff0000;" x="350.296545" xlink:href="#me315918b4e" y="166.561408"/>
     <use style="fill:#ff0000;stroke:#ff0000;" x="353.783818" xlink:href="#me315918b4e" y="178.931229"/>
     <use style="fill:#ff0000;stroke:#ff0000;" x="357.271091" xlink:href="#me315918b4e" y="161.550163"/>
    </g>
   </g>
   <g id="line2d_33">
    <path clip-path="url(#p20e8869479)" d="M 360.758364 187.801779 
L 364.245636 186.523841 
L 367.732909 220.271006 
L 371.220182 203.151099 
L 374.707455 185.32838 
L 378.194727 204.076016 
L 381.682 204.439487 
L 385.169273 232.287594 
L 388.656545 223.680602 
L 392.143818 210.142446 
L 395.631091 175.644455 
L 399.118364 209.610202 
L 402.605636 290.565415 
L 406.092909 195.325456 
L 409.580182 267.533111 
L 413.067455 230.156196 
L 416.554727 243.387758 
L 420.042 201.71677 
L 423.529273 198.470662 
L 427.016545 196.207793 
" style="fill:none;stroke:#000000;stroke-linecap:square;stroke-width:1.5;"/>
   </g>
   <g id="line2d_34">
    <defs>
     <path d="M 0 3 
C 0.795609 3 1.55874 2.683901 2.12132 2.12132 
C 2.683901 1.55874 3 0.795609 3 0 
C 3 -0.795609 2.683901 -1.55874 2.12132 -2.12132 
C 1.55874 -2.683901 0.795609 -3 0 -3 
C -0.795609 -3 -1.55874 -2.683901 -2.12132 -2.12132 
C -2.683901 -1.55874 -3 -0.795609 -3 0 
C -3 0.795609 -2.683901 1.55874 -2.12132 2.12132 
C -1.55874 2.683901 -0.795609 3 0 3 
z
" id="mf1400015ef" style="stroke:#000000;"/>
    </defs>
    <g clip-path="url(#p20e8869479)">
     <use style="stroke:#000000;" x="360.758364" xlink:href="#mf1400015ef" y="187.801779"/>
     <use style="stroke:#000000;" x="364.245636" xlink:href="#mf1400015ef" y="186.523841"/>
     <use style="stroke:#000000;" x="367.732909" xlink:href="#mf1400015ef" y="220.271006"/>
     <use style="stroke:#000000;" x="371.220182" xlink:href="#mf1400015ef" y="203.151099"/>
     <use style="stroke:#000000;" x="374.707455" xlink:href="#mf1400015ef" y="185.32838"/>
     <use style="stroke:#000000;" x="378.194727" xlink:href="#mf1400015ef" y="204.076016"/>
     <use style="stroke:#000000;" x="381.682" xlink:href="#mf1400015ef" y="204.439487"/>
     <use style="stroke:#000000;" x="385.169273" xlink:href="#mf1400015ef" y="232.287594"/>
     <use style="stroke:#000000;" x="388.656545" xlink:href="#mf1400015ef" y="223.680602"/>
     <use style="stroke:#000000;" x="392.143818" xlink:href="#mf1400015ef" y="210.142446"/>
     <use style="stroke:#000000;" x="395.631091" xlink:href="#mf1400015ef" y="175.644455"/>
     <use style="stroke:#000000;" x="399.118364" xlink:href="#mf1400015ef" y="209.610202"/>
     <use style="stroke:#000000;" x="402.605636" xlink:href="#mf1400015ef" y="290.565415"/>
     <use style="stroke:#000000;" x="406.092909" xlink:href="#mf1400015ef" y="195.325456"/>
     <use style="stroke:#000000;" x="409.580182" xlink:href="#mf1400015ef" y="267.533111"/>
     <use style="stroke:#000000;" x="413.067455" xlink:href="#mf1400015ef" y="230.156196"/>
     <use style="stroke:#000000;" x="416.554727" xlink:href="#mf1400015ef" y="243.387758"/>
     <use style="stroke:#000000;" x="420.042" xlink:href="#mf1400015ef" y="201.71677"/>
     <use style="stroke:#000000;" x="423.529273" xlink:href="#mf1400015ef" y="198.470662"/>
     <use style="stroke:#000000;" x="427.016545" xlink:href="#mf1400015ef" y="196.207793"/>
    </g>
   </g>
   <g id="line2d_35">
    <path clip-path="url(#p20e8869479)" d="M 430.503818 201.578588 
L 433.991091 193.9973 
L 437.478364 226.640176 
L 440.965636 186.58204 
L 444.452909 198.315271 
L 447.940182 220.092331 
L 451.427455 216.240628 
L 454.914727 232.910045 
L 458.402 193.923779 
L 461.889273 192.142831 
" style="fill:none;stroke:#bfbf00;stroke-linecap:square;stroke-width:1.5;"/>
   </g>
   <g id="line2d_36">
    <defs>
     <path d="M 0 3 
C 0.795609 3 1.55874 2.683901 2.12132 2.12132 
C 2.683901 1.55874 3 0.795609 3 0 
C 3 -0.795609 2.683901 -1.55874 2.12132 -2.12132 
C 1.55874 -2.683901 0.795609 -3 0 -3 
C -0.795609 -3 -1.55874 -2.683901 -2.12132 -2.12132 
C -2.683901 -1.55874 -3 -0.795609 -3 0 
C -3 0.795609 -2.683901 1.55874 -2.12132 2.12132 
C -1.55874 2.683901 -0.795609 3 0 3 
z
" id="m7e8799ff95" style="stroke:#bfbf00;"/>
    </defs>
    <g clip-path="url(#p20e8869479)">
     <use style="fill:#bfbf00;stroke:#bfbf00;" x="430.503818" xlink:href="#m7e8799ff95" y="201.578588"/>
     <use style="fill:#bfbf00;stroke:#bfbf00;" x="433.991091" xlink:href="#m7e8799ff95" y="193.9973"/>
     <use style="fill:#bfbf00;stroke:#bfbf00;" x="437.478364" xlink:href="#m7e8799ff95" y="226.640176"/>
     <use style="fill:#bfbf00;stroke:#bfbf00;" x="440.965636" xlink:href="#m7e8799ff95" y="186.58204"/>
     <use style="fill:#bfbf00;stroke:#bfbf00;" x="444.452909" xlink:href="#m7e8799ff95" y="198.315271"/>
     <use style="fill:#bfbf00;stroke:#bfbf00;" x="447.940182" xlink:href="#m7e8799ff95" y="220.092331"/>
     <use style="fill:#bfbf00;stroke:#bfbf00;" x="451.427455" xlink:href="#m7e8799ff95" y="216.240628"/>
     <use style="fill:#bfbf00;stroke:#bfbf00;" x="454.914727" xlink:href="#m7e8799ff95" y="232.910045"/>
     <use style="fill:#bfbf00;stroke:#bfbf00;" x="458.402" xlink:href="#m7e8799ff95" y="193.923779"/>
     <use style="fill:#bfbf00;stroke:#bfbf00;" x="461.889273" xlink:href="#m7e8799ff95" y="192.142831"/>
    </g>
   </g>
   <g id="line2d_37">
    <path clip-path="url(#p20e8869479)" d="M 465.376545 169.69059 
L 468.863818 197.763693 
L 472.351091 157.793391 
L 475.838364 173.126469 
L 479.325636 159.350455 
L 482.812909 174.491344 
L 486.300182 188.445298 
L 489.787455 147.536408 
L 493.274727 172.05301 
L 496.762 104.930624 
" style="fill:none;stroke:#0000ff;stroke-linecap:square;stroke-width:1.5;"/>
   </g>
   <g id="line2d_38">
    <g clip-path="url(#p20e8869479)">
     <use style="fill:#0000ff;stroke:#0000ff;" x="465.376545" xlink:href="#m52be428072" y="169.69059"/>
     <use style="fill:#0000ff;stroke:#0000ff;" x="468.863818" xlink:href="#m52be428072" y="197.763693"/>
     <use style="fill:#0000ff;stroke:#0000ff;" x="472.351091" xlink:href="#m52be428072" y="157.793391"/>
     <use style="fill:#0000ff;stroke:#0000ff;" x="475.838364" xlink:href="#m52be428072" y="173.126469"/>
     <use style="fill:#0000ff;stroke:#0000ff;" x="479.325636" xlink:href="#m52be428072" y="159.350455"/>
     <use style="fill:#0000ff;stroke:#0000ff;" x="482.812909" xlink:href="#m52be428072" y="174.491344"/>
     <use style="fill:#0000ff;stroke:#0000ff;" x="486.300182" xlink:href="#m52be428072" y="188.445298"/>
     <use style="fill:#0000ff;stroke:#0000ff;" x="489.787455" xlink:href="#m52be428072" y="147.536408"/>
     <use style="fill:#0000ff;stroke:#0000ff;" x="493.274727" xlink:href="#m52be428072" y="172.05301"/>
     <use style="fill:#0000ff;stroke:#0000ff;" x="496.762" xlink:href="#m52be428072" y="104.930624"/>
    </g>
   </g>
   <g id="line2d_39">
    <path clip-path="url(#p20e8869479)" d="M 500.249273 139.562145 
L 503.736545 159.219893 
L 507.223818 162.145245 
L 510.711091 146.012009 
L 514.198364 164.855224 
L 517.685636 163.986372 
L 521.172909 178.459901 
L 524.660182 148.105716 
L 528.147455 160.701502 
L 531.634727 154.325433 
" style="fill:none;stroke:#008000;stroke-linecap:square;stroke-width:1.5;"/>
   </g>
   <g id="line2d_40">
    <g clip-path="url(#p20e8869479)">
     <use style="fill:#008000;stroke:#008000;" x="500.249273" xlink:href="#mdf9922b10a" y="139.562145"/>
     <use style="fill:#008000;stroke:#008000;" x="503.736545" xlink:href="#mdf9922b10a" y="159.219893"/>
     <use style="fill:#008000;stroke:#008000;" x="507.223818" xlink:href="#mdf9922b10a" y="162.145245"/>
     <use style="fill:#008000;stroke:#008000;" x="510.711091" xlink:href="#mdf9922b10a" y="146.012009"/>
     <use style="fill:#008000;stroke:#008000;" x="514.198364" xlink:href="#mdf9922b10a" y="164.855224"/>
     <use style="fill:#008000;stroke:#008000;" x="517.685636" xlink:href="#mdf9922b10a" y="163.986372"/>
     <use style="fill:#008000;stroke:#008000;" x="521.172909" xlink:href="#mdf9922b10a" y="178.459901"/>
     <use style="fill:#008000;stroke:#008000;" x="524.660182" xlink:href="#mdf9922b10a" y="148.105716"/>
     <use style="fill:#008000;stroke:#008000;" x="528.147455" xlink:href="#mdf9922b10a" y="160.701502"/>
     <use style="fill:#008000;stroke:#008000;" x="531.634727" xlink:href="#mdf9922b10a" y="154.325433"/>
    </g>
   </g>
   <g id="line2d_41">
    <path clip-path="url(#p20e8869479)" d="M 535.122 192.939425 
L 538.609273 176.787945 
L 542.096545 195.43831 
L 545.583818 177.257994 
L 549.071091 181.999402 
L 552.558364 188.786345 
L 556.045636 171.55763 
L 559.532909 204.66427 
L 563.020182 172.532553 
L 566.507455 198.27727 
" style="fill:none;stroke:#ff0000;stroke-linecap:square;stroke-width:1.5;"/>
   </g>
   <g id="line2d_42">
    <g clip-path="url(#p20e8869479)">
     <use style="fill:#ff0000;stroke:#ff0000;" x="535.122" xlink:href="#me315918b4e" y="192.939425"/>
     <use style="fill:#ff0000;stroke:#ff0000;" x="538.609273" xlink:href="#me315918b4e" y="176.787945"/>
     <use style="fill:#ff0000;stroke:#ff0000;" x="542.096545" xlink:href="#me315918b4e" y="195.43831"/>
     <use style="fill:#ff0000;stroke:#ff0000;" x="545.583818" xlink:href="#me315918b4e" y="177.257994"/>
     <use style="fill:#ff0000;stroke:#ff0000;" x="549.071091" xlink:href="#me315918b4e" y="181.999402"/>
     <use style="fill:#ff0000;stroke:#ff0000;" x="552.558364" xlink:href="#me315918b4e" y="188.786345"/>
     <use style="fill:#ff0000;stroke:#ff0000;" x="556.045636" xlink:href="#me315918b4e" y="171.55763"/>
     <use style="fill:#ff0000;stroke:#ff0000;" x="559.532909" xlink:href="#me315918b4e" y="204.66427"/>
     <use style="fill:#ff0000;stroke:#ff0000;" x="563.020182" xlink:href="#me315918b4e" y="172.532553"/>
     <use style="fill:#ff0000;stroke:#ff0000;" x="566.507455" xlink:href="#me315918b4e" y="198.27727"/>
    </g>
   </g>
   <g id="line2d_43">
    <path clip-path="url(#p20e8869479)" d="M 569.994727 227.5204 
L 573.482 229.603709 
L 576.969273 227.178601 
L 580.456545 225.930676 
L 583.943818 259.588709 
L 587.431091 194.311198 
L 590.918364 194.623931 
L 594.405636 246.541345 
L 597.892909 215.490082 
L 601.380182 230.225136 
L 604.867455 222.673636 
L 608.354727 250.196727 
L 611.842 251.951728 
L 615.329273 238.803591 
L 618.816545 250.347394 
L 622.303818 226.958841 
L 625.791091 251.059008 
L 629.278364 239.570013 
L 632.765636 239.174345 
L 636.252909 206.362315 
" style="fill:none;stroke:#000000;stroke-linecap:square;stroke-width:1.5;"/>
   </g>
   <g id="line2d_44">
    <g clip-path="url(#p20e8869479)">
     <use style="stroke:#000000;" x="569.994727" xlink:href="#mf1400015ef" y="227.5204"/>
     <use style="stroke:#000000;" x="573.482" xlink:href="#mf1400015ef" y="229.603709"/>
     <use style="stroke:#000000;" x="576.969273" xlink:href="#mf1400015ef" y="227.178601"/>
     <use style="stroke:#000000;" x="580.456545" xlink:href="#mf1400015ef" y="225.930676"/>
     <use style="stroke:#000000;" x="583.943818" xlink:href="#mf1400015ef" y="259.588709"/>
     <use style="stroke:#000000;" x="587.431091" xlink:href="#mf1400015ef" y="194.311198"/>
     <use style="stroke:#000000;" x="590.918364" xlink:href="#mf1400015ef" y="194.623931"/>
     <use style="stroke:#000000;" x="594.405636" xlink:href="#mf1400015ef" y="246.541345"/>
     <use style="stroke:#000000;" x="597.892909" xlink:href="#mf1400015ef" y="215.490082"/>
     <use style="stroke:#000000;" x="601.380182" xlink:href="#mf1400015ef" y="230.225136"/>
     <use style="stroke:#000000;" x="604.867455" xlink:href="#mf1400015ef" y="222.673636"/>
     <use style="stroke:#000000;" x="608.354727" xlink:href="#mf1400015ef" y="250.196727"/>
     <use style="stroke:#000000;" x="611.842" xlink:href="#mf1400015ef" y="251.951728"/>
     <use style="stroke:#000000;" x="615.329273" xlink:href="#mf1400015ef" y="238.803591"/>
     <use style="stroke:#000000;" x="618.816545" xlink:href="#mf1400015ef" y="250.347394"/>
     <use style="stroke:#000000;" x="622.303818" xlink:href="#mf1400015ef" y="226.958841"/>
     <use style="stroke:#000000;" x="625.791091" xlink:href="#mf1400015ef" y="251.059008"/>
     <use style="stroke:#000000;" x="629.278364" xlink:href="#mf1400015ef" y="239.570013"/>
     <use style="stroke:#000000;" x="632.765636" xlink:href="#mf1400015ef" y="239.174345"/>
     <use style="stroke:#000000;" x="636.252909" xlink:href="#mf1400015ef" y="206.362315"/>
    </g>
   </g>
   <g id="line2d_45">
    <path clip-path="url(#p20e8869479)" d="M 639.740182 276.105629 
L 643.227455 262.276194 
L 646.714727 211.977981 
L 650.202 254.519524 
L 653.689273 236.902426 
L 657.176545 318.661295 
L 660.663818 275.03389 
L 664.151091 240.697407 
L 667.638364 192.732483 
L 671.125636 200.761062 
L 674.612909 208.265744 
L 678.100182 286.810028 
L 681.587455 220.959148 
L 685.074727 237.590212 
L 688.562 267.884426 
L 692.049273 162.479931 
L 695.536545 275.148942 
L 699.023818 219.14085 
L 702.511091 183.482899 
L 705.998364 225.250634 
" style="fill:none;stroke:#bfbf00;stroke-linecap:square;stroke-width:1.5;"/>
   </g>
   <g id="line2d_46">
    <g clip-path="url(#p20e8869479)">
     <use style="fill:#bfbf00;stroke:#bfbf00;" x="639.740182" xlink:href="#m7e8799ff95" y="276.105629"/>
     <use style="fill:#bfbf00;stroke:#bfbf00;" x="643.227455" xlink:href="#m7e8799ff95" y="262.276194"/>
     <use style="fill:#bfbf00;stroke:#bfbf00;" x="646.714727" xlink:href="#m7e8799ff95" y="211.977981"/>
     <use style="fill:#bfbf00;stroke:#bfbf00;" x="650.202" xlink:href="#m7e8799ff95" y="254.519524"/>
     <use style="fill:#bfbf00;stroke:#bfbf00;" x="653.689273" xlink:href="#m7e8799ff95" y="236.902426"/>
     <use style="fill:#bfbf00;stroke:#bfbf00;" x="657.176545" xlink:href="#m7e8799ff95" y="318.661295"/>
     <use style="fill:#bfbf00;stroke:#bfbf00;" x="660.663818" xlink:href="#m7e8799ff95" y="275.03389"/>
     <use style="fill:#bfbf00;stroke:#bfbf00;" x="664.151091" xlink:href="#m7e8799ff95" y="240.697407"/>
     <use style="fill:#bfbf00;stroke:#bfbf00;" x="667.638364" xlink:href="#m7e8799ff95" y="192.732483"/>
     <use style="fill:#bfbf00;stroke:#bfbf00;" x="671.125636" xlink:href="#m7e8799ff95" y="200.761062"/>
     <use style="fill:#bfbf00;stroke:#bfbf00;" x="674.612909" xlink:href="#m7e8799ff95" y="208.265744"/>
     <use style="fill:#bfbf00;stroke:#bfbf00;" x="678.100182" xlink:href="#m7e8799ff95" y="286.810028"/>
     <use style="fill:#bfbf00;stroke:#bfbf00;" x="681.587455" xlink:href="#m7e8799ff95" y="220.959148"/>
     <use style="fill:#bfbf00;stroke:#bfbf00;" x="685.074727" xlink:href="#m7e8799ff95" y="237.590212"/>
     <use style="fill:#bfbf00;stroke:#bfbf00;" x="688.562" xlink:href="#m7e8799ff95" y="267.884426"/>
     <use style="fill:#bfbf00;stroke:#bfbf00;" x="692.049273" xlink:href="#m7e8799ff95" y="162.479931"/>
     <use style="fill:#bfbf00;stroke:#bfbf00;" x="695.536545" xlink:href="#m7e8799ff95" y="275.148942"/>
     <use style="fill:#bfbf00;stroke:#bfbf00;" x="699.023818" xlink:href="#m7e8799ff95" y="219.14085"/>
     <use style="fill:#bfbf00;stroke:#bfbf00;" x="702.511091" xlink:href="#m7e8799ff95" y="183.482899"/>
     <use style="fill:#bfbf00;stroke:#bfbf00;" x="705.998364" xlink:href="#m7e8799ff95" y="225.250634"/>
    </g>
   </g>
   <g id="line2d_47">
    <path clip-path="url(#p20e8869479)" d="M 709.485636 118.124061 
L 712.972909 114.560608 
L 716.460182 132.447799 
L 719.947455 100.723821 
L 723.434727 89.022367 
L 726.922 90.373428 
L 730.409273 98.407882 
L 733.896545 140.745341 
L 737.383818 96.451334 
L 740.871091 109.155316 
" style="fill:none;stroke:#0000ff;stroke-linecap:square;stroke-width:1.5;"/>
   </g>
   <g id="line2d_48">
    <g clip-path="url(#p20e8869479)">
     <use style="fill:#0000ff;stroke:#0000ff;" x="709.485636" xlink:href="#m52be428072" y="118.124061"/>
     <use style="fill:#0000ff;stroke:#0000ff;" x="712.972909" xlink:href="#m52be428072" y="114.560608"/>
     <use style="fill:#0000ff;stroke:#0000ff;" x="716.460182" xlink:href="#m52be428072" y="132.447799"/>
     <use style="fill:#0000ff;stroke:#0000ff;" x="719.947455" xlink:href="#m52be428072" y="100.723821"/>
     <use style="fill:#0000ff;stroke:#0000ff;" x="723.434727" xlink:href="#m52be428072" y="89.022367"/>
     <use style="fill:#0000ff;stroke:#0000ff;" x="726.922" xlink:href="#m52be428072" y="90.373428"/>
     <use style="fill:#0000ff;stroke:#0000ff;" x="730.409273" xlink:href="#m52be428072" y="98.407882"/>
     <use style="fill:#0000ff;stroke:#0000ff;" x="733.896545" xlink:href="#m52be428072" y="140.745341"/>
     <use style="fill:#0000ff;stroke:#0000ff;" x="737.383818" xlink:href="#m52be428072" y="96.451334"/>
     <use style="fill:#0000ff;stroke:#0000ff;" x="740.871091" xlink:href="#m52be428072" y="109.155316"/>
    </g>
   </g>
   <g id="line2d_49">
    <path clip-path="url(#p20e8869479)" d="M 744.358364 202.330645 
L 747.845636 192.964284 
L 751.332909 192.680883 
L 754.820182 195.986237 
L 758.307455 224.87488 
L 761.794727 252.398269 
L 765.282 203.782902 
L 768.769273 232.953735 
L 772.256545 229.967391 
L 775.743818 242.30448 
" style="fill:none;stroke:#008000;stroke-linecap:square;stroke-width:1.5;"/>
   </g>
   <g id="line2d_50">
    <g clip-path="url(#p20e8869479)">
     <use style="fill:#008000;stroke:#008000;" x="744.358364" xlink:href="#mdf9922b10a" y="202.330645"/>
     <use style="fill:#008000;stroke:#008000;" x="747.845636" xlink:href="#mdf9922b10a" y="192.964284"/>
     <use style="fill:#008000;stroke:#008000;" x="751.332909" xlink:href="#mdf9922b10a" y="192.680883"/>
     <use style="fill:#008000;stroke:#008000;" x="754.820182" xlink:href="#mdf9922b10a" y="195.986237"/>
     <use style="fill:#008000;stroke:#008000;" x="758.307455" xlink:href="#mdf9922b10a" y="224.87488"/>
     <use style="fill:#008000;stroke:#008000;" x="761.794727" xlink:href="#mdf9922b10a" y="252.398269"/>
     <use style="fill:#008000;stroke:#008000;" x="765.282" xlink:href="#mdf9922b10a" y="203.782902"/>
     <use style="fill:#008000;stroke:#008000;" x="768.769273" xlink:href="#mdf9922b10a" y="232.953735"/>
     <use style="fill:#008000;stroke:#008000;" x="772.256545" xlink:href="#mdf9922b10a" y="229.967391"/>
     <use style="fill:#008000;stroke:#008000;" x="775.743818" xlink:href="#mdf9922b10a" y="242.30448"/>
    </g>
   </g>
   <g id="line2d_51">
    <path clip-path="url(#p20e8869479)" d="M 779.231091 217.696673 
L 782.718364 200.634674 
L 786.205636 154.977364 
L 789.692909 194.792921 
L 793.180182 210.33214 
L 796.667455 214.782117 
L 800.154727 183.905642 
L 803.642 249.981103 
L 807.129273 222.354573 
L 810.616545 127.729444 
" style="fill:none;stroke:#ff0000;stroke-linecap:square;stroke-width:1.5;"/>
   </g>
   <g id="line2d_52">
    <g clip-path="url(#p20e8869479)">
     <use style="fill:#ff0000;stroke:#ff0000;" x="779.231091" xlink:href="#me315918b4e" y="217.696673"/>
     <use style="fill:#ff0000;stroke:#ff0000;" x="782.718364" xlink:href="#me315918b4e" y="200.634674"/>
     <use style="fill:#ff0000;stroke:#ff0000;" x="786.205636" xlink:href="#me315918b4e" y="154.977364"/>
     <use style="fill:#ff0000;stroke:#ff0000;" x="789.692909" xlink:href="#me315918b4e" y="194.792921"/>
     <use style="fill:#ff0000;stroke:#ff0000;" x="793.180182" xlink:href="#me315918b4e" y="210.33214"/>
     <use style="fill:#ff0000;stroke:#ff0000;" x="796.667455" xlink:href="#me315918b4e" y="214.782117"/>
     <use style="fill:#ff0000;stroke:#ff0000;" x="800.154727" xlink:href="#me315918b4e" y="183.905642"/>
     <use style="fill:#ff0000;stroke:#ff0000;" x="803.642" xlink:href="#me315918b4e" y="249.981103"/>
     <use style="fill:#ff0000;stroke:#ff0000;" x="807.129273" xlink:href="#me315918b4e" y="222.354573"/>
     <use style="fill:#ff0000;stroke:#ff0000;" x="810.616545" xlink:href="#me315918b4e" y="127.729444"/>
    </g>
   </g>
   <g id="line2d_53">
    <path clip-path="url(#p20e8869479)" d="M 814.103818 216.336102 
L 817.591091 208.684045 
L 821.078364 201.603551 
L 824.565636 222.949117 
L 828.052909 182.266974 
L 831.540182 225.587417 
L 835.027455 194.299115 
L 838.514727 219.52425 
L 842.002 200.919974 
L 845.489273 216.403164 
" style="fill:none;stroke:#000000;stroke-linecap:square;stroke-width:1.5;"/>
   </g>
   <g id="line2d_54">
    <g clip-path="url(#p20e8869479)">
     <use style="stroke:#000000;" x="814.103818" xlink:href="#mf1400015ef" y="216.336102"/>
     <use style="stroke:#000000;" x="817.591091" xlink:href="#mf1400015ef" y="208.684045"/>
     <use style="stroke:#000000;" x="821.078364" xlink:href="#mf1400015ef" y="201.603551"/>
     <use style="stroke:#000000;" x="824.565636" xlink:href="#mf1400015ef" y="222.949117"/>
     <use style="stroke:#000000;" x="828.052909" xlink:href="#mf1400015ef" y="182.266974"/>
     <use style="stroke:#000000;" x="831.540182" xlink:href="#mf1400015ef" y="225.587417"/>
     <use style="stroke:#000000;" x="835.027455" xlink:href="#mf1400015ef" y="194.299115"/>
     <use style="stroke:#000000;" x="838.514727" xlink:href="#mf1400015ef" y="219.52425"/>
     <use style="stroke:#000000;" x="842.002" xlink:href="#mf1400015ef" y="200.919974"/>
     <use style="stroke:#000000;" x="845.489273" xlink:href="#mf1400015ef" y="216.403164"/>
    </g>
   </g>
   <g id="line2d_55">
    <path clip-path="url(#p20e8869479)" d="M 848.976545 107.917058 
L 852.463818 127.199868 
L 855.951091 127.225359 
L 859.438364 138.55568 
L 862.925636 91.866058 
L 866.412909 353.3544 
L 869.900182 125.183301 
L 873.387455 95.690424 
L 876.874727 119.54935 
L 880.362 132.062067 
L 883.849273 103.279549 
L 887.336545 123.028888 
L 890.823818 114.191703 
L 894.311091 132.153228 
L 897.798364 105.916763 
L 901.285636 116.846352 
L 904.772909 98.306168 
L 908.260182 116.647861 
L 911.747455 120.171532 
L 915.234727 123.615871 
" style="fill:none;stroke:#bfbf00;stroke-linecap:square;stroke-width:1.5;"/>
   </g>
   <g id="line2d_56">
    <g clip-path="url(#p20e8869479)">
     <use style="fill:#bfbf00;stroke:#bfbf00;" x="848.976545" xlink:href="#m7e8799ff95" y="107.917058"/>
     <use style="fill:#bfbf00;stroke:#bfbf00;" x="852.463818" xlink:href="#m7e8799ff95" y="127.199868"/>
     <use style="fill:#bfbf00;stroke:#bfbf00;" x="855.951091" xlink:href="#m7e8799ff95" y="127.225359"/>
     <use style="fill:#bfbf00;stroke:#bfbf00;" x="859.438364" xlink:href="#m7e8799ff95" y="138.55568"/>
     <use style="fill:#bfbf00;stroke:#bfbf00;" x="862.925636" xlink:href="#m7e8799ff95" y="91.866058"/>
     <use style="fill:#bfbf00;stroke:#bfbf00;" x="866.412909" xlink:href="#m7e8799ff95" y="353.3544"/>
     <use style="fill:#bfbf00;stroke:#bfbf00;" x="869.900182" xlink:href="#m7e8799ff95" y="125.183301"/>
     <use style="fill:#bfbf00;stroke:#bfbf00;" x="873.387455" xlink:href="#m7e8799ff95" y="95.690424"/>
     <use style="fill:#bfbf00;stroke:#bfbf00;" x="876.874727" xlink:href="#m7e8799ff95" y="119.54935"/>
     <use style="fill:#bfbf00;stroke:#bfbf00;" x="880.362" xlink:href="#m7e8799ff95" y="132.062067"/>
     <use style="fill:#bfbf00;stroke:#bfbf00;" x="883.849273" xlink:href="#m7e8799ff95" y="103.279549"/>
     <use style="fill:#bfbf00;stroke:#bfbf00;" x="887.336545" xlink:href="#m7e8799ff95" y="123.028888"/>
     <use style="fill:#bfbf00;stroke:#bfbf00;" x="890.823818" xlink:href="#m7e8799ff95" y="114.191703"/>
     <use style="fill:#bfbf00;stroke:#bfbf00;" x="894.311091" xlink:href="#m7e8799ff95" y="132.153228"/>
     <use style="fill:#bfbf00;stroke:#bfbf00;" x="897.798364" xlink:href="#m7e8799ff95" y="105.916763"/>
     <use style="fill:#bfbf00;stroke:#bfbf00;" x="901.285636" xlink:href="#m7e8799ff95" y="116.846352"/>
     <use style="fill:#bfbf00;stroke:#bfbf00;" x="904.772909" xlink:href="#m7e8799ff95" y="98.306168"/>
     <use style="fill:#bfbf00;stroke:#bfbf00;" x="908.260182" xlink:href="#m7e8799ff95" y="116.647861"/>
     <use style="fill:#bfbf00;stroke:#bfbf00;" x="911.747455" xlink:href="#m7e8799ff95" y="120.171532"/>
     <use style="fill:#bfbf00;stroke:#bfbf00;" x="915.234727" xlink:href="#m7e8799ff95" y="123.615871"/>
    </g>
   </g>
   <g id="line2d_57">
    <path clip-path="url(#p20e8869479)" d="M 918.722 258.816594 
L 922.209273 271.204613 
L 925.696545 305.830444 
L 929.183818 259.203676 
L 932.671091 259.392157 
L 936.158364 251.93927 
L 939.645636 312.016957 
L 943.132909 242.19462 
L 946.620182 274.147651 
L 950.107455 350.236853 
L 953.594727 282.778442 
L 957.082 236.873311 
L 960.569273 283.499668 
L 964.056545 331.690187 
L 967.543818 291.819277 
L 971.031091 316.986557 
L 974.518364 294.989828 
L 978.005636 221.551968 
L 981.492909 281.609305 
L 984.980182 281.900066 
" style="fill:none;stroke:#0000ff;stroke-linecap:square;stroke-width:1.5;"/>
   </g>
   <g id="line2d_58">
    <g clip-path="url(#p20e8869479)">
     <use style="fill:#0000ff;stroke:#0000ff;" x="918.722" xlink:href="#m52be428072" y="258.816594"/>
     <use style="fill:#0000ff;stroke:#0000ff;" x="922.209273" xlink:href="#m52be428072" y="271.204613"/>
     <use style="fill:#0000ff;stroke:#0000ff;" x="925.696545" xlink:href="#m52be428072" y="305.830444"/>
     <use style="fill:#0000ff;stroke:#0000ff;" x="929.183818" xlink:href="#m52be428072" y="259.203676"/>
     <use style="fill:#0000ff;stroke:#0000ff;" x="932.671091" xlink:href="#m52be428072" y="259.392157"/>
     <use style="fill:#0000ff;stroke:#0000ff;" x="936.158364" xlink:href="#m52be428072" y="251.93927"/>
     <use style="fill:#0000ff;stroke:#0000ff;" x="939.645636" xlink:href="#m52be428072" y="312.016957"/>
     <use style="fill:#0000ff;stroke:#0000ff;" x="943.132909" xlink:href="#m52be428072" y="242.19462"/>
     <use style="fill:#0000ff;stroke:#0000ff;" x="946.620182" xlink:href="#m52be428072" y="274.147651"/>
     <use style="fill:#0000ff;stroke:#0000ff;" x="950.107455" xlink:href="#m52be428072" y="350.236853"/>
     <use style="fill:#0000ff;stroke:#0000ff;" x="953.594727" xlink:href="#m52be428072" y="282.778442"/>
     <use style="fill:#0000ff;stroke:#0000ff;" x="957.082" xlink:href="#m52be428072" y="236.873311"/>
     <use style="fill:#0000ff;stroke:#0000ff;" x="960.569273" xlink:href="#m52be428072" y="283.499668"/>
     <use style="fill:#0000ff;stroke:#0000ff;" x="964.056545" xlink:href="#m52be428072" y="331.690187"/>
     <use style="fill:#0000ff;stroke:#0000ff;" x="967.543818" xlink:href="#m52be428072" y="291.819277"/>
     <use style="fill:#0000ff;stroke:#0000ff;" x="971.031091" xlink:href="#m52be428072" y="316.986557"/>
     <use style="fill:#0000ff;stroke:#0000ff;" x="974.518364" xlink:href="#m52be428072" y="294.989828"/>
     <use style="fill:#0000ff;stroke:#0000ff;" x="978.005636" xlink:href="#m52be428072" y="221.551968"/>
     <use style="fill:#0000ff;stroke:#0000ff;" x="981.492909" xlink:href="#m52be428072" y="281.609305"/>
     <use style="fill:#0000ff;stroke:#0000ff;" x="984.980182" xlink:href="#m52be428072" y="281.900066"/>
    </g>
   </g>
   <g id="line2d_59">
    <path clip-path="url(#p20e8869479)" d="M 988.467455 172.573671 
L 991.954727 178.707109 
L 995.442 225.676164 
L 998.929273 201.439029 
L 1002.416545 173.957504 
L 1005.903818 192.167465 
L 1009.391091 204.382194 
L 1012.878364 235.759137 
L 1016.365636 212.394034 
L 1019.852909 206.18346 
" style="fill:none;stroke:#008000;stroke-linecap:square;stroke-width:1.5;"/>
   </g>
   <g id="line2d_60">
    <g clip-path="url(#p20e8869479)">
     <use style="fill:#008000;stroke:#008000;" x="988.467455" xlink:href="#mdf9922b10a" y="172.573671"/>
     <use style="fill:#008000;stroke:#008000;" x="991.954727" xlink:href="#mdf9922b10a" y="178.707109"/>
     <use style="fill:#008000;stroke:#008000;" x="995.442" xlink:href="#mdf9922b10a" y="225.676164"/>
     <use style="fill:#008000;stroke:#008000;" x="998.929273" xlink:href="#mdf9922b10a" y="201.439029"/>
     <use style="fill:#008000;stroke:#008000;" x="1002.416545" xlink:href="#mdf9922b10a" y="173.957504"/>
     <use style="fill:#008000;stroke:#008000;" x="1005.903818" xlink:href="#mdf9922b10a" y="192.167465"/>
     <use style="fill:#008000;stroke:#008000;" x="1009.391091" xlink:href="#mdf9922b10a" y="204.382194"/>
     <use style="fill:#008000;stroke:#008000;" x="1012.878364" xlink:href="#mdf9922b10a" y="235.759137"/>
     <use style="fill:#008000;stroke:#008000;" x="1016.365636" xlink:href="#mdf9922b10a" y="212.394034"/>
     <use style="fill:#008000;stroke:#008000;" x="1019.852909" xlink:href="#mdf9922b10a" y="206.18346"/>
    </g>
   </g>
   <g id="line2d_61">
    <path clip-path="url(#p20e8869479)" d="M 1023.340182 233.805383 
L 1026.827455 248.450019 
L 1030.314727 270.176043 
L 1033.802 257.992983 
L 1037.289273 228.71223 
L 1040.776545 241.840717 
L 1044.263818 251.667156 
L 1047.751091 256.36228 
L 1051.238364 259.015691 
L 1054.725636 222.236879 
" style="fill:none;stroke:#ff0000;stroke-linecap:square;stroke-width:1.5;"/>
   </g>
   <g id="line2d_62">
    <g clip-path="url(#p20e8869479)">
     <use style="fill:#ff0000;stroke:#ff0000;" x="1023.340182" xlink:href="#me315918b4e" y="233.805383"/>
     <use style="fill:#ff0000;stroke:#ff0000;" x="1026.827455" xlink:href="#me315918b4e" y="248.450019"/>
     <use style="fill:#ff0000;stroke:#ff0000;" x="1030.314727" xlink:href="#me315918b4e" y="270.176043"/>
     <use style="fill:#ff0000;stroke:#ff0000;" x="1033.802" xlink:href="#me315918b4e" y="257.992983"/>
     <use style="fill:#ff0000;stroke:#ff0000;" x="1037.289273" xlink:href="#me315918b4e" y="228.71223"/>
     <use style="fill:#ff0000;stroke:#ff0000;" x="1040.776545" xlink:href="#me315918b4e" y="241.840717"/>
     <use style="fill:#ff0000;stroke:#ff0000;" x="1044.263818" xlink:href="#me315918b4e" y="251.667156"/>
     <use style="fill:#ff0000;stroke:#ff0000;" x="1047.751091" xlink:href="#me315918b4e" y="256.36228"/>
     <use style="fill:#ff0000;stroke:#ff0000;" x="1051.238364" xlink:href="#me315918b4e" y="259.015691"/>
     <use style="fill:#ff0000;stroke:#ff0000;" x="1054.725636" xlink:href="#me315918b4e" y="222.236879"/>
    </g>
   </g>
   <g id="line2d_63">
    <path clip-path="url(#p20e8869479)" d="M 1058.212909 153.367414 
L 1061.700182 168.337468 
L 1065.187455 110.41751 
L 1068.674727 132.640377 
L 1072.162 152.150457 
L 1075.649273 131.263692 
L 1079.136545 107.885128 
L 1082.623818 64.0584 
L 1086.111091 142.243677 
L 1089.598364 135.771004 
" style="fill:none;stroke:#000000;stroke-linecap:square;stroke-width:1.5;"/>
   </g>
   <g id="line2d_64">
    <g clip-path="url(#p20e8869479)">
     <use style="stroke:#000000;" x="1058.212909" xlink:href="#mf1400015ef" y="153.367414"/>
     <use style="stroke:#000000;" x="1061.700182" xlink:href="#mf1400015ef" y="168.337468"/>
     <use style="stroke:#000000;" x="1065.187455" xlink:href="#mf1400015ef" y="110.41751"/>
     <use style="stroke:#000000;" x="1068.674727" xlink:href="#mf1400015ef" y="132.640377"/>
     <use style="stroke:#000000;" x="1072.162" xlink:href="#mf1400015ef" y="152.150457"/>
     <use style="stroke:#000000;" x="1075.649273" xlink:href="#mf1400015ef" y="131.263692"/>
     <use style="stroke:#000000;" x="1079.136545" xlink:href="#mf1400015ef" y="107.885128"/>
     <use style="stroke:#000000;" x="1082.623818" xlink:href="#mf1400015ef" y="64.0584"/>
     <use style="stroke:#000000;" x="1086.111091" xlink:href="#mf1400015ef" y="142.243677"/>
     <use style="stroke:#000000;" x="1089.598364" xlink:href="#mf1400015ef" y="135.771004"/>
    </g>
   </g>
   <g id="line2d_65">
    <path clip-path="url(#p20e8869479)" d="M 1093.085636 164.982672 
L 1096.572909 144.68849 
L 1100.060182 163.113694 
L 1103.547455 132.350594 
L 1107.034727 121.974548 
L 1110.522 151.343063 
L 1114.009273 134.245306 
L 1117.496545 65.69066 
L 1120.983818 147.314926 
L 1124.471091 113.262135 
L 1127.958364 142.656589 
L 1131.445636 151.930961 
L 1134.932909 98.607159 
L 1138.420182 125.745432 
L 1141.907455 121.440879 
L 1145.394727 131.46882 
L 1148.882 166.501102 
L 1152.369273 129.2367 
L 1155.856545 138.3218 
L 1159.343818 176.508628 
" style="fill:none;stroke:#bfbf00;stroke-linecap:square;stroke-width:1.5;"/>
   </g>
   <g id="line2d_66">
    <g clip-path="url(#p20e8869479)">
     <use style="fill:#bfbf00;stroke:#bfbf00;" x="1093.085636" xlink:href="#m7e8799ff95" y="164.982672"/>
     <use style="fill:#bfbf00;stroke:#bfbf00;" x="1096.572909" xlink:href="#m7e8799ff95" y="144.68849"/>
     <use style="fill:#bfbf00;stroke:#bfbf00;" x="1100.060182" xlink:href="#m7e8799ff95" y="163.113694"/>
     <use style="fill:#bfbf00;stroke:#bfbf00;" x="1103.547455" xlink:href="#m7e8799ff95" y="132.350594"/>
     <use style="fill:#bfbf00;stroke:#bfbf00;" x="1107.034727" xlink:href="#m7e8799ff95" y="121.974548"/>
     <use style="fill:#bfbf00;stroke:#bfbf00;" x="1110.522" xlink:href="#m7e8799ff95" y="151.343063"/>
     <use style="fill:#bfbf00;stroke:#bfbf00;" x="1114.009273" xlink:href="#m7e8799ff95" y="134.245306"/>
     <use style="fill:#bfbf00;stroke:#bfbf00;" x="1117.496545" xlink:href="#m7e8799ff95" y="65.69066"/>
     <use style="fill:#bfbf00;stroke:#bfbf00;" x="1120.983818" xlink:href="#m7e8799ff95" y="147.314926"/>
     <use style="fill:#bfbf00;stroke:#bfbf00;" x="1124.471091" xlink:href="#m7e8799ff95" y="113.262135"/>
     <use style="fill:#bfbf00;stroke:#bfbf00;" x="1127.958364" xlink:href="#m7e8799ff95" y="142.656589"/>
     <use style="fill:#bfbf00;stroke:#bfbf00;" x="1131.445636" xlink:href="#m7e8799ff95" y="151.930961"/>
     <use style="fill:#bfbf00;stroke:#bfbf00;" x="1134.932909" xlink:href="#m7e8799ff95" y="98.607159"/>
     <use style="fill:#bfbf00;stroke:#bfbf00;" x="1138.420182" xlink:href="#m7e8799ff95" y="125.745432"/>
     <use style="fill:#bfbf00;stroke:#bfbf00;" x="1141.907455" xlink:href="#m7e8799ff95" y="121.440879"/>
     <use style="fill:#bfbf00;stroke:#bfbf00;" x="1145.394727" xlink:href="#m7e8799ff95" y="131.46882"/>
     <use style="fill:#bfbf00;stroke:#bfbf00;" x="1148.882" xlink:href="#m7e8799ff95" y="166.501102"/>
     <use style="fill:#bfbf00;stroke:#bfbf00;" x="1152.369273" xlink:href="#m7e8799ff95" y="129.2367"/>
     <use style="fill:#bfbf00;stroke:#bfbf00;" x="1155.856545" xlink:href="#m7e8799ff95" y="138.3218"/>
     <use style="fill:#bfbf00;stroke:#bfbf00;" x="1159.343818" xlink:href="#m7e8799ff95" y="176.508628"/>
    </g>
   </g>
   <g id="line2d_67">
    <path clip-path="url(#p20e8869479)" d="M 1162.831091 114.36372 
L 1166.318364 156.198047 
L 1169.805636 132.582203 
L 1173.292909 120.678589 
L 1176.780182 123.41427 
L 1180.267455 157.097478 
L 1183.754727 147.66269 
L 1187.242 159.663885 
L 1190.729273 148.27521 
L 1194.216545 121.575834 
" style="fill:none;stroke:#0000ff;stroke-linecap:square;stroke-width:1.5;"/>
   </g>
   <g id="line2d_68">
    <g clip-path="url(#p20e8869479)">
     <use style="fill:#0000ff;stroke:#0000ff;" x="1162.831091" xlink:href="#m52be428072" y="114.36372"/>
     <use style="fill:#0000ff;stroke:#0000ff;" x="1166.318364" xlink:href="#m52be428072" y="156.198047"/>
     <use style="fill:#0000ff;stroke:#0000ff;" x="1169.805636" xlink:href="#m52be428072" y="132.582203"/>
     <use style="fill:#0000ff;stroke:#0000ff;" x="1173.292909" xlink:href="#m52be428072" y="120.678589"/>
     <use style="fill:#0000ff;stroke:#0000ff;" x="1176.780182" xlink:href="#m52be428072" y="123.41427"/>
     <use style="fill:#0000ff;stroke:#0000ff;" x="1180.267455" xlink:href="#m52be428072" y="157.097478"/>
     <use style="fill:#0000ff;stroke:#0000ff;" x="1183.754727" xlink:href="#m52be428072" y="147.66269"/>
     <use style="fill:#0000ff;stroke:#0000ff;" x="1187.242" xlink:href="#m52be428072" y="159.663885"/>
     <use style="fill:#0000ff;stroke:#0000ff;" x="1190.729273" xlink:href="#m52be428072" y="148.27521"/>
     <use style="fill:#0000ff;stroke:#0000ff;" x="1194.216545" xlink:href="#m52be428072" y="121.575834"/>
    </g>
   </g>
   <g id="patch_3">
    <path d="M 172.62 367.8192 
L 172.62 49.5936 
" style="fill:none;stroke:#000000;stroke-linecap:square;stroke-linejoin:miter;stroke-width:0.8;"/>
   </g>
   <g id="patch_4">
    <path d="M 1242.864 367.8192 
L 1242.864 49.5936 
" style="fill:none;stroke:#000000;stroke-linecap:square;stroke-linejoin:miter;stroke-width:0.8;"/>
   </g>
   <g id="patch_5">
    <path d="M 172.62 367.8192 
L 1242.864 367.8192 
" style="fill:none;stroke:#000000;stroke-linecap:square;stroke-linejoin:miter;stroke-width:0.8;"/>
   </g>
   <g id="patch_6">
    <path d="M 172.62 49.5936 
L 1242.864 49.5936 
" style="fill:none;stroke:#000000;stroke-linecap:square;stroke-linejoin:miter;stroke-width:0.8;"/>
   </g>
   <g id="text_16">
    <!-- Roll Angle Error of S15 Magnets -->
    <defs>
     <path d="M 44.390625 34.1875 
Q 47.5625 33.109375 50.5625 29.59375 
Q 53.5625 26.078125 56.59375 19.921875 
L 66.609375 0 
L 56 0 
L 46.6875 18.703125 
Q 43.0625 26.03125 39.671875 28.421875 
Q 36.28125 30.8125 30.421875 30.8125 
L 19.671875 30.8125 
L 19.671875 0 
L 9.8125 0 
L 9.8125 72.90625 
L 32.078125 72.90625 
Q 44.578125 72.90625 50.734375 67.671875 
Q 56.890625 62.453125 56.890625 51.90625 
Q 56.890625 45.015625 53.6875 40.46875 
Q 50.484375 35.9375 44.390625 34.1875 
z
M 19.671875 64.796875 
L 19.671875 38.921875 
L 32.078125 38.921875 
Q 39.203125 38.921875 42.84375 42.21875 
Q 46.484375 45.515625 46.484375 51.90625 
Q 46.484375 58.296875 42.84375 61.546875 
Q 39.203125 64.796875 32.078125 64.796875 
z
" id="DejaVuSans-82"/>
     <path d="M 9.421875 75.984375 
L 18.40625 75.984375 
L 18.40625 0 
L 9.421875 0 
z
" id="DejaVuSans-108"/>
     <path d="M 34.1875 63.1875 
L 20.796875 26.90625 
L 47.609375 26.90625 
z
M 28.609375 72.90625 
L 39.796875 72.90625 
L 67.578125 0 
L 57.328125 0 
L 50.6875 18.703125 
L 17.828125 18.703125 
L 11.1875 0 
L 0.78125 0 
z
" id="DejaVuSans-65"/>
     <path d="M 37.109375 75.984375 
L 37.109375 68.5 
L 28.515625 68.5 
Q 23.6875 68.5 21.796875 66.546875 
Q 19.921875 64.59375 19.921875 59.515625 
L 19.921875 54.6875 
L 34.71875 54.6875 
L 34.71875 47.703125 
L 19.921875 47.703125 
L 19.921875 0 
L 10.890625 0 
L 10.890625 47.703125 
L 2.296875 47.703125 
L 2.296875 54.6875 
L 10.890625 54.6875 
L 10.890625 58.5 
Q 10.890625 67.625 15.140625 71.796875 
Q 19.390625 75.984375 28.609375 75.984375 
z
" id="DejaVuSans-102"/>
     <path d="M 53.515625 70.515625 
L 53.515625 60.890625 
Q 47.90625 63.578125 42.921875 64.890625 
Q 37.9375 66.21875 33.296875 66.21875 
Q 25.25 66.21875 20.875 63.09375 
Q 16.5 59.96875 16.5 54.203125 
Q 16.5 49.359375 19.40625 46.890625 
Q 22.3125 44.4375 30.421875 42.921875 
L 36.375 41.703125 
Q 47.40625 39.59375 52.65625 34.296875 
Q 57.90625 29 57.90625 20.125 
Q 57.90625 9.515625 50.796875 4.046875 
Q 43.703125 -1.421875 29.984375 -1.421875 
Q 24.8125 -1.421875 18.96875 -0.25 
Q 13.140625 0.921875 6.890625 3.21875 
L 6.890625 13.375 
Q 12.890625 10.015625 18.65625 8.296875 
Q 24.421875 6.59375 29.984375 6.59375 
Q 38.421875 6.59375 43.015625 9.90625 
Q 47.609375 13.234375 47.609375 19.390625 
Q 47.609375 24.75 44.3125 27.78125 
Q 41.015625 30.8125 33.5 32.328125 
L 27.484375 33.5 
Q 16.453125 35.6875 11.515625 40.375 
Q 6.59375 45.0625 6.59375 53.421875 
Q 6.59375 63.09375 13.40625 68.65625 
Q 20.21875 74.21875 32.171875 74.21875 
Q 37.3125 74.21875 42.625 73.28125 
Q 47.953125 72.359375 53.515625 70.515625 
z
" id="DejaVuSans-83"/>
     <path d="M 44.28125 53.078125 
L 44.28125 44.578125 
Q 40.484375 46.53125 36.375 47.5 
Q 32.28125 48.484375 27.875 48.484375 
Q 21.1875 48.484375 17.84375 46.4375 
Q 14.5 44.390625 14.5 40.28125 
Q 14.5 37.15625 16.890625 35.375 
Q 19.28125 33.59375 26.515625 31.984375 
L 29.59375 31.296875 
Q 39.15625 29.25 43.1875 25.515625 
Q 47.21875 21.78125 47.21875 15.09375 
Q 47.21875 7.46875 41.1875 3.015625 
Q 35.15625 -1.421875 24.609375 -1.421875 
Q 20.21875 -1.421875 15.453125 -0.5625 
Q 10.6875 0.296875 5.421875 2 
L 5.421875 11.28125 
Q 10.40625 8.6875 15.234375 7.390625 
Q 20.0625 6.109375 24.8125 6.109375 
Q 31.15625 6.109375 34.5625 8.28125 
Q 37.984375 10.453125 37.984375 14.40625 
Q 37.984375 18.0625 35.515625 20.015625 
Q 33.0625 21.96875 24.703125 23.78125 
L 21.578125 24.515625 
Q 13.234375 26.265625 9.515625 29.90625 
Q 5.8125 33.546875 5.8125 39.890625 
Q 5.8125 47.609375 11.28125 51.796875 
Q 16.75 56 26.8125 56 
Q 31.78125 56 36.171875 55.265625 
Q 40.578125 54.546875 44.28125 53.078125 
z
" id="DejaVuSans-115"/>
    </defs>
    <g transform="translate(612.24075 43.5936)scale(0.12 -0.12)">
     <use xlink:href="#DejaVuSans-82"/>
     <use x="69.419922" xlink:href="#DejaVuSans-111"/>
     <use x="130.601562" xlink:href="#DejaVuSans-108"/>
     <use x="158.384766" xlink:href="#DejaVuSans-108"/>
     <use x="186.167969" xlink:href="#DejaVuSans-32"/>
     <use x="217.955078" xlink:href="#DejaVuSans-65"/>
     <use x="286.363281" xlink:href="#DejaVuSans-110"/>
     <use x="349.742188" xlink:href="#DejaVuSans-103"/>
     <use x="413.21875" xlink:href="#DejaVuSans-108"/>
     <use x="441.001953" xlink:href="#DejaVuSans-101"/>
     <use x="502.525391" xlink:href="#DejaVuSans-32"/>
     <use x="534.3125" xlink:href="#DejaVuSans-69"/>
     <use x="597.496094" xlink:href="#DejaVuSans-114"/>
     <use x="638.59375" xlink:href="#DejaVuSans-114"/>
     <use x="679.675781" xlink:href="#DejaVuSans-111"/>
     <use x="740.857422" xlink:href="#DejaVuSans-114"/>
     <use x="781.970703" xlink:href="#DejaVuSans-32"/>
     <use x="813.757812" xlink:href="#DejaVuSans-111"/>
     <use x="874.939453" xlink:href="#DejaVuSans-102"/>
     <use x="910.144531" xlink:href="#DejaVuSans-32"/>
     <use x="941.931641" xlink:href="#DejaVuSans-83"/>
     <use x="1005.408203" xlink:href="#DejaVuSans-49"/>
     <use x="1069.03125" xlink:href="#DejaVuSans-53"/>
     <use x="1132.654297" xlink:href="#DejaVuSans-32"/>
     <use x="1164.441406" xlink:href="#DejaVuSans-77"/>
     <use x="1250.720703" xlink:href="#DejaVuSans-97"/>
     <use x="1312" xlink:href="#DejaVuSans-103"/>
     <use x="1375.476562" xlink:href="#DejaVuSans-110"/>
     <use x="1438.855469" xlink:href="#DejaVuSans-101"/>
     <use x="1500.378906" xlink:href="#DejaVuSans-116"/>
     <use x="1539.587891" xlink:href="#DejaVuSans-115"/>
    </g>
   </g>
   <g id="legend_1">
    <g id="patch_7">
     <path d="M 179.62 362.8192 
L 539.9575 362.8192 
Q 541.9575 362.8192 541.9575 360.8192 
L 541.9575 288.428575 
Q 541.9575 286.428575 539.9575 286.428575 
L 179.62 286.428575 
Q 177.62 286.428575 177.62 288.428575 
L 177.62 360.8192 
Q 177.62 362.8192 179.62 362.8192 
z
" style="fill:#ffffff;opacity:0.8;stroke:#cccccc;stroke-linejoin:miter;"/>
    </g>
    <g id="line2d_69"/>
    <g id="line2d_70">
     <g>
      <use style="fill:#0000ff;stroke:#0000ff;" x="191.62" xlink:href="#m52be428072" y="294.527013"/>
     </g>
    </g>
    <g id="text_17">
     <!-- SDA0 -->
     <defs>
      <path d="M 19.671875 64.796875 
L 19.671875 8.109375 
L 31.59375 8.109375 
Q 46.6875 8.109375 53.6875 14.9375 
Q 60.6875 21.78125 60.6875 36.53125 
Q 60.6875 51.171875 53.6875 57.984375 
Q 46.6875 64.796875 31.59375 64.796875 
z
M 9.8125 72.90625 
L 30.078125 72.90625 
Q 51.265625 72.90625 61.171875 64.09375 
Q 71.09375 55.28125 71.09375 36.53125 
Q 71.09375 17.671875 61.125 8.828125 
Q 51.171875 0 30.078125 0 
L 9.8125 0 
z
" id="DejaVuSans-68"/>
     </defs>
     <g transform="translate(209.62 298.027013)scale(0.1 -0.1)">
      <use xlink:href="#DejaVuSans-83"/>
      <use x="63.476562" xlink:href="#DejaVuSans-68"/>
      <use x="140.462891" xlink:href="#DejaVuSans-65"/>
      <use x="208.871094" xlink:href="#DejaVuSans-48"/>
     </g>
    </g>
    <g id="line2d_71"/>
    <g id="line2d_72">
     <g>
      <use style="fill:#008000;stroke:#008000;" x="191.62" xlink:href="#mdf9922b10a" y="309.205138"/>
     </g>
    </g>
    <g id="text_18">
     <!-- SFA0 -->
     <defs>
      <path d="M 9.8125 72.90625 
L 51.703125 72.90625 
L 51.703125 64.59375 
L 19.671875 64.59375 
L 19.671875 43.109375 
L 48.578125 43.109375 
L 48.578125 34.8125 
L 19.671875 34.8125 
L 19.671875 0 
L 9.8125 0 
z
" id="DejaVuSans-70"/>
     </defs>
     <g transform="translate(209.62 312.705138)scale(0.1 -0.1)">
      <use xlink:href="#DejaVuSans-83"/>
      <use x="63.476562" xlink:href="#DejaVuSans-70"/>
      <use x="120.855469" xlink:href="#DejaVuSans-65"/>
      <use x="189.263672" xlink:href="#DejaVuSans-48"/>
     </g>
    </g>
    <g id="line2d_73"/>
    <g id="line2d_74">
     <g>
      <use style="fill:#ff0000;stroke:#ff0000;" x="191.62" xlink:href="#me315918b4e" y="323.883263"/>
     </g>
    </g>
    <g id="text_19">
     <!-- SDB0 -->
     <defs>
      <path d="M 19.671875 34.8125 
L 19.671875 8.109375 
L 35.5 8.109375 
Q 43.453125 8.109375 47.28125 11.40625 
Q 51.125 14.703125 51.125 21.484375 
Q 51.125 28.328125 47.28125 31.5625 
Q 43.453125 34.8125 35.5 34.8125 
z
M 19.671875 64.796875 
L 19.671875 42.828125 
L 34.28125 42.828125 
Q 41.5 42.828125 45.03125 45.53125 
Q 48.578125 48.25 48.578125 53.8125 
Q 48.578125 59.328125 45.03125 62.0625 
Q 41.5 64.796875 34.28125 64.796875 
z
M 9.8125 72.90625 
L 35.015625 72.90625 
Q 46.296875 72.90625 52.390625 68.21875 
Q 58.5 63.53125 58.5 54.890625 
Q 58.5 48.1875 55.375 44.234375 
Q 52.25 40.28125 46.1875 39.3125 
Q 53.46875 37.75 57.5 32.78125 
Q 61.53125 27.828125 61.53125 20.40625 
Q 61.53125 10.640625 54.890625 5.3125 
Q 48.25 0 35.984375 0 
L 9.8125 0 
z
" id="DejaVuSans-66"/>
     </defs>
     <g transform="translate(209.62 327.383263)scale(0.1 -0.1)">
      <use xlink:href="#DejaVuSans-83"/>
      <use x="63.476562" xlink:href="#DejaVuSans-68"/>
      <use x="140.478516" xlink:href="#DejaVuSans-66"/>
      <use x="209.082031" xlink:href="#DejaVuSans-48"/>
     </g>
    </g>
    <g id="line2d_75"/>
    <g id="line2d_76">
     <g>
      <use style="stroke:#000000;" x="191.62" xlink:href="#mf1400015ef" y="338.561388"/>
     </g>
    </g>
    <g id="text_20">
     <!-- SFB0 -->
     <g transform="translate(209.62 342.061388)scale(0.1 -0.1)">
      <use xlink:href="#DejaVuSans-83"/>
      <use x="63.476562" xlink:href="#DejaVuSans-70"/>
      <use x="120.996094" xlink:href="#DejaVuSans-66"/>
      <use x="189.599609" xlink:href="#DejaVuSans-48"/>
     </g>
    </g>
    <g id="line2d_77"/>
    <g id="line2d_78">
     <g>
      <use style="fill:#bfbf00;stroke:#bfbf00;" x="191.62" xlink:href="#m7e8799ff95" y="353.239513"/>
     </g>
    </g>
    <g id="text_21">
     <!-- SDP0 -->
     <defs>
      <path d="M 19.671875 64.796875 
L 19.671875 37.40625 
L 32.078125 37.40625 
Q 38.96875 37.40625 42.71875 40.96875 
Q 46.484375 44.53125 46.484375 51.125 
Q 46.484375 57.671875 42.71875 61.234375 
Q 38.96875 64.796875 32.078125 64.796875 
z
M 9.8125 72.90625 
L 32.078125 72.90625 
Q 44.34375 72.90625 50.609375 67.359375 
Q 56.890625 61.8125 56.890625 51.125 
Q 56.890625 40.328125 50.609375 34.8125 
Q 44.34375 29.296875 32.078125 29.296875 
L 19.671875 29.296875 
L 19.671875 0 
L 9.8125 0 
z
" id="DejaVuSans-80"/>
     </defs>
     <g transform="translate(209.62 356.739513)scale(0.1 -0.1)">
      <use xlink:href="#DejaVuSans-83"/>
      <use x="63.476562" xlink:href="#DejaVuSans-68"/>
      <use x="140.478516" xlink:href="#DejaVuSans-80"/>
      <use x="200.78125" xlink:href="#DejaVuSans-48"/>
     </g>
    </g>
    <g id="line2d_79"/>
    <g id="line2d_80">
     <g>
      <use style="fill:#0000ff;stroke:#0000ff;" x="266.891875" xlink:href="#m52be428072" y="294.527013"/>
     </g>
    </g>
    <g id="text_22">
     <!-- SFP0 -->
     <g transform="translate(284.891875 298.027013)scale(0.1 -0.1)">
      <use xlink:href="#DejaVuSans-83"/>
      <use x="63.476562" xlink:href="#DejaVuSans-70"/>
      <use x="120.996094" xlink:href="#DejaVuSans-80"/>
      <use x="181.298828" xlink:href="#DejaVuSans-48"/>
     </g>
    </g>
    <g id="line2d_81"/>
    <g id="line2d_82">
     <g>
      <use style="fill:#008000;stroke:#008000;" x="266.891875" xlink:href="#mdf9922b10a" y="309.205138"/>
     </g>
    </g>
    <g id="text_23">
     <!-- SDA1 -->
     <g transform="translate(284.891875 312.705138)scale(0.1 -0.1)">
      <use xlink:href="#DejaVuSans-83"/>
      <use x="63.476562" xlink:href="#DejaVuSans-68"/>
      <use x="140.462891" xlink:href="#DejaVuSans-65"/>
      <use x="208.871094" xlink:href="#DejaVuSans-49"/>
     </g>
    </g>
    <g id="line2d_83"/>
    <g id="line2d_84">
     <g>
      <use style="fill:#ff0000;stroke:#ff0000;" x="266.891875" xlink:href="#me315918b4e" y="323.883263"/>
     </g>
    </g>
    <g id="text_24">
     <!-- SFA1 -->
     <g transform="translate(284.891875 327.383263)scale(0.1 -0.1)">
      <use xlink:href="#DejaVuSans-83"/>
      <use x="63.476562" xlink:href="#DejaVuSans-70"/>
      <use x="120.855469" xlink:href="#DejaVuSans-65"/>
      <use x="189.263672" xlink:href="#DejaVuSans-49"/>
     </g>
    </g>
    <g id="line2d_85"/>
    <g id="line2d_86">
     <g>
      <use style="stroke:#000000;" x="266.891875" xlink:href="#mf1400015ef" y="338.561388"/>
     </g>
    </g>
    <g id="text_25">
     <!-- SDB1 -->
     <g transform="translate(284.891875 342.061388)scale(0.1 -0.1)">
      <use xlink:href="#DejaVuSans-83"/>
      <use x="63.476562" xlink:href="#DejaVuSans-68"/>
      <use x="140.478516" xlink:href="#DejaVuSans-66"/>
      <use x="209.082031" xlink:href="#DejaVuSans-49"/>
     </g>
    </g>
    <g id="line2d_87"/>
    <g id="line2d_88">
     <g>
      <use style="fill:#bfbf00;stroke:#bfbf00;" x="342.16375" xlink:href="#m7e8799ff95" y="294.527013"/>
     </g>
    </g>
    <g id="text_26">
     <!-- SFB1 -->
     <g transform="translate(360.16375 298.027013)scale(0.1 -0.1)">
      <use xlink:href="#DejaVuSans-83"/>
      <use x="63.476562" xlink:href="#DejaVuSans-70"/>
      <use x="120.996094" xlink:href="#DejaVuSans-66"/>
      <use x="189.599609" xlink:href="#DejaVuSans-49"/>
     </g>
    </g>
    <g id="line2d_89"/>
    <g id="line2d_90">
     <g>
      <use style="fill:#0000ff;stroke:#0000ff;" x="342.16375" xlink:href="#m52be428072" y="309.205138"/>
     </g>
    </g>
    <g id="text_27">
     <!-- SDP1 -->
     <g transform="translate(360.16375 312.705138)scale(0.1 -0.1)">
      <use xlink:href="#DejaVuSans-83"/>
      <use x="63.476562" xlink:href="#DejaVuSans-68"/>
      <use x="140.478516" xlink:href="#DejaVuSans-80"/>
      <use x="200.78125" xlink:href="#DejaVuSans-49"/>
     </g>
    </g>
    <g id="line2d_91"/>
    <g id="line2d_92">
     <g>
      <use style="fill:#008000;stroke:#008000;" x="342.16375" xlink:href="#mdf9922b10a" y="323.883263"/>
     </g>
    </g>
    <g id="text_28">
     <!-- SFP1 -->
     <g transform="translate(360.16375 327.383263)scale(0.1 -0.1)">
      <use xlink:href="#DejaVuSans-83"/>
      <use x="63.476562" xlink:href="#DejaVuSans-70"/>
      <use x="120.996094" xlink:href="#DejaVuSans-80"/>
      <use x="181.298828" xlink:href="#DejaVuSans-49"/>
     </g>
    </g>
    <g id="line2d_93"/>
    <g id="line2d_94">
     <g>
      <use style="fill:#ff0000;stroke:#ff0000;" x="342.16375" xlink:href="#me315918b4e" y="338.561388"/>
     </g>
    </g>
    <g id="text_29">
     <!-- SDA2 -->
     <g transform="translate(360.16375 342.061388)scale(0.1 -0.1)">
      <use xlink:href="#DejaVuSans-83"/>
      <use x="63.476562" xlink:href="#DejaVuSans-68"/>
      <use x="140.462891" xlink:href="#DejaVuSans-65"/>
      <use x="208.871094" xlink:href="#DejaVuSans-50"/>
     </g>
    </g>
    <g id="line2d_95"/>
    <g id="line2d_96">
     <g>
      <use style="stroke:#000000;" x="417.41375" xlink:href="#mf1400015ef" y="294.527013"/>
     </g>
    </g>
    <g id="text_30">
     <!-- SFA2 -->
     <g transform="translate(435.41375 298.027013)scale(0.1 -0.1)">
      <use xlink:href="#DejaVuSans-83"/>
      <use x="63.476562" xlink:href="#DejaVuSans-70"/>
      <use x="120.855469" xlink:href="#DejaVuSans-65"/>
      <use x="189.263672" xlink:href="#DejaVuSans-50"/>
     </g>
    </g>
    <g id="line2d_97"/>
    <g id="line2d_98">
     <g>
      <use style="fill:#bfbf00;stroke:#bfbf00;" x="417.41375" xlink:href="#m7e8799ff95" y="309.205138"/>
     </g>
    </g>
    <g id="text_31">
     <!-- SDB2 -->
     <g transform="translate(435.41375 312.705138)scale(0.1 -0.1)">
      <use xlink:href="#DejaVuSans-83"/>
      <use x="63.476562" xlink:href="#DejaVuSans-68"/>
      <use x="140.478516" xlink:href="#DejaVuSans-66"/>
      <use x="209.082031" xlink:href="#DejaVuSans-50"/>
     </g>
    </g>
    <g id="line2d_99"/>
    <g id="line2d_100">
     <g>
      <use style="fill:#0000ff;stroke:#0000ff;" x="417.41375" xlink:href="#m52be428072" y="323.883263"/>
     </g>
    </g>
    <g id="text_32">
     <!-- SFB2 -->
     <g transform="translate(435.41375 327.383263)scale(0.1 -0.1)">
      <use xlink:href="#DejaVuSans-83"/>
      <use x="63.476562" xlink:href="#DejaVuSans-70"/>
      <use x="120.996094" xlink:href="#DejaVuSans-66"/>
      <use x="189.599609" xlink:href="#DejaVuSans-50"/>
     </g>
    </g>
    <g id="line2d_101"/>
    <g id="line2d_102">
     <g>
      <use style="fill:#008000;stroke:#008000;" x="417.41375" xlink:href="#mdf9922b10a" y="338.561388"/>
     </g>
    </g>
    <g id="text_33">
     <!-- SDP2 -->
     <g transform="translate(435.41375 342.061388)scale(0.1 -0.1)">
      <use xlink:href="#DejaVuSans-83"/>
      <use x="63.476562" xlink:href="#DejaVuSans-68"/>
      <use x="140.478516" xlink:href="#DejaVuSans-80"/>
      <use x="200.78125" xlink:href="#DejaVuSans-50"/>
     </g>
    </g>
    <g id="line2d_103"/>
    <g id="line2d_104">
     <g>
      <use style="fill:#ff0000;stroke:#ff0000;" x="492.685625" xlink:href="#me315918b4e" y="294.527013"/>
     </g>
    </g>
    <g id="text_34">
     <!-- SFP2 -->
     <g transform="translate(510.685625 298.027013)scale(0.1 -0.1)">
      <use xlink:href="#DejaVuSans-83"/>
      <use x="63.476562" xlink:href="#DejaVuSans-70"/>
      <use x="120.996094" xlink:href="#DejaVuSans-80"/>
      <use x="181.298828" xlink:href="#DejaVuSans-50"/>
     </g>
    </g>
    <g id="line2d_105"/>
    <g id="line2d_106">
     <g>
      <use style="stroke:#000000;" x="492.685625" xlink:href="#mf1400015ef" y="309.205138"/>
     </g>
    </g>
    <g id="text_35">
     <!-- SDA3 -->
     <g transform="translate(510.685625 312.705138)scale(0.1 -0.1)">
      <use xlink:href="#DejaVuSans-83"/>
      <use x="63.476562" xlink:href="#DejaVuSans-68"/>
      <use x="140.462891" xlink:href="#DejaVuSans-65"/>
      <use x="208.871094" xlink:href="#DejaVuSans-51"/>
     </g>
    </g>
    <g id="line2d_107"/>
    <g id="line2d_108">
     <g>
      <use style="fill:#bfbf00;stroke:#bfbf00;" x="492.685625" xlink:href="#m7e8799ff95" y="323.883263"/>
     </g>
    </g>
    <g id="text_36">
     <!-- SDB3 -->
     <g transform="translate(510.685625 327.383263)scale(0.1 -0.1)">
      <use xlink:href="#DejaVuSans-83"/>
      <use x="63.476562" xlink:href="#DejaVuSans-68"/>
      <use x="140.478516" xlink:href="#DejaVuSans-66"/>
      <use x="209.082031" xlink:href="#DejaVuSans-51"/>
     </g>
    </g>
    <g id="line2d_109"/>
    <g id="line2d_110">
     <g>
      <use style="fill:#0000ff;stroke:#0000ff;" x="492.685625" xlink:href="#m52be428072" y="338.561388"/>
     </g>
    </g>
    <g id="text_37">
     <!-- SDP3 -->
     <g transform="translate(510.685625 342.061388)scale(0.1 -0.1)">
      <use xlink:href="#DejaVuSans-83"/>
      <use x="63.476562" xlink:href="#DejaVuSans-68"/>
      <use x="140.478516" xlink:href="#DejaVuSans-80"/>
      <use x="200.78125" xlink:href="#DejaVuSans-51"/>
     </g>
    </g>
   </g>
  </g>
 </g>
 <defs>
  <clipPath id="p20e8869479">
   <rect height="318.2256" width="1070.244" x="172.62" y="49.5936"/>
  </clipPath>
 </defs>
</svg>
