<?xml version="1.0" encoding="utf-8" standalone="no"?>
<!DOCTYPE svg PUBLIC "-//W3C//DTD SVG 1.1//EN"
  "http://www.w3.org/Graphics/SVG/1.1/DTD/svg11.dtd">
<!-- Created with matplotlib (https://matplotlib.org/) -->
<svg height="416.16pt" version="1.1" viewBox="0 0 1380.96 416.16" width="1380.96pt" xmlns="http://www.w3.org/2000/svg" xmlns:xlink="http://www.w3.org/1999/xlink">
 <defs>
  <style type="text/css">
*{stroke-linecap:butt;stroke-linejoin:round;}
  </style>
 </defs>
 <g id="figure_1">
  <g id="patch_1">
   <path d="M 0 416.16 
L 1380.96 416.16 
L 1380.96 0 
L 0 0 
z
" style="fill:#ffffff;"/>
  </g>
  <g id="axes_1">
   <g id="patch_2">
    <path d="M 172.62 370.3824 
L 1242.864 370.3824 
L 1242.864 49.9392 
L 172.62 49.9392 
z
" style="fill:#ffffff;"/>
   </g>
   <g id="matplotlib.axis_1">
    <g id="xtick_1">
     <g id="line2d_1">
      <path clip-path="url(#pd8e8dd445d)" d="M 221.267455 370.3824 
L 221.267455 49.9392 
" style="fill:none;stroke:#b0b0b0;stroke-linecap:square;stroke-width:0.8;"/>
     </g>
     <g id="line2d_2">
      <defs>
       <path d="M 0 0 
L 0 3.5 
" id="med0b60ee26" style="stroke:#000000;stroke-width:0.8;"/>
      </defs>
      <g>
       <use style="stroke:#000000;stroke-width:0.8;" x="221.267455" xlink:href="#med0b60ee26" y="370.3824"/>
      </g>
     </g>
     <g id="text_1">
      <!-- 0 -->
      <defs>
       <path d="M 31.78125 66.40625 
Q 24.171875 66.40625 20.328125 58.90625 
Q 16.5 51.421875 16.5 36.375 
Q 16.5 21.390625 20.328125 13.890625 
Q 24.171875 6.390625 31.78125 6.390625 
Q 39.453125 6.390625 43.28125 13.890625 
Q 47.125 21.390625 47.125 36.375 
Q 47.125 51.421875 43.28125 58.90625 
Q 39.453125 66.40625 31.78125 66.40625 
z
M 31.78125 74.21875 
Q 44.046875 74.21875 50.515625 64.515625 
Q 56.984375 54.828125 56.984375 36.375 
Q 56.984375 17.96875 50.515625 8.265625 
Q 44.046875 -1.421875 31.78125 -1.421875 
Q 19.53125 -1.421875 13.0625 8.265625 
Q 6.59375 17.96875 6.59375 36.375 
Q 6.59375 54.828125 13.0625 64.515625 
Q 19.53125 74.21875 31.78125 74.21875 
z
" id="DejaVuSans-48"/>
      </defs>
      <g transform="translate(218.086205 384.980838)scale(0.1 -0.1)">
       <use xlink:href="#DejaVuSans-48"/>
      </g>
     </g>
    </g>
    <g id="xtick_2">
     <g id="line2d_3">
      <path clip-path="url(#pd8e8dd445d)" d="M 395.631091 370.3824 
L 395.631091 49.9392 
" style="fill:none;stroke:#b0b0b0;stroke-linecap:square;stroke-width:0.8;"/>
     </g>
     <g id="line2d_4">
      <g>
       <use style="stroke:#000000;stroke-width:0.8;" x="395.631091" xlink:href="#med0b60ee26" y="370.3824"/>
      </g>
     </g>
     <g id="text_2">
      <!-- 50 -->
      <defs>
       <path d="M 10.796875 72.90625 
L 49.515625 72.90625 
L 49.515625 64.59375 
L 19.828125 64.59375 
L 19.828125 46.734375 
Q 21.96875 47.46875 24.109375 47.828125 
Q 26.265625 48.1875 28.421875 48.1875 
Q 40.625 48.1875 47.75 41.5 
Q 54.890625 34.8125 54.890625 23.390625 
Q 54.890625 11.625 47.5625 5.09375 
Q 40.234375 -1.421875 26.90625 -1.421875 
Q 22.3125 -1.421875 17.546875 -0.640625 
Q 12.796875 0.140625 7.71875 1.703125 
L 7.71875 11.625 
Q 12.109375 9.234375 16.796875 8.0625 
Q 21.484375 6.890625 26.703125 6.890625 
Q 35.15625 6.890625 40.078125 11.328125 
Q 45.015625 15.765625 45.015625 23.390625 
Q 45.015625 31 40.078125 35.4375 
Q 35.15625 39.890625 26.703125 39.890625 
Q 22.75 39.890625 18.8125 39.015625 
Q 14.890625 38.140625 10.796875 36.28125 
z
" id="DejaVuSans-53"/>
      </defs>
      <g transform="translate(389.268591 384.980838)scale(0.1 -0.1)">
       <use xlink:href="#DejaVuSans-53"/>
       <use x="63.623047" xlink:href="#DejaVuSans-48"/>
      </g>
     </g>
    </g>
    <g id="xtick_3">
     <g id="line2d_5">
      <path clip-path="url(#pd8e8dd445d)" d="M 569.994727 370.3824 
L 569.994727 49.9392 
" style="fill:none;stroke:#b0b0b0;stroke-linecap:square;stroke-width:0.8;"/>
     </g>
     <g id="line2d_6">
      <g>
       <use style="stroke:#000000;stroke-width:0.8;" x="569.994727" xlink:href="#med0b60ee26" y="370.3824"/>
      </g>
     </g>
     <g id="text_3">
      <!-- 100 -->
      <defs>
       <path d="M 12.40625 8.296875 
L 28.515625 8.296875 
L 28.515625 63.921875 
L 10.984375 60.40625 
L 10.984375 69.390625 
L 28.421875 72.90625 
L 38.28125 72.90625 
L 38.28125 8.296875 
L 54.390625 8.296875 
L 54.390625 0 
L 12.40625 0 
z
" id="DejaVuSans-49"/>
      </defs>
      <g transform="translate(560.450977 384.980838)scale(0.1 -0.1)">
       <use xlink:href="#DejaVuSans-49"/>
       <use x="63.623047" xlink:href="#DejaVuSans-48"/>
       <use x="127.246094" xlink:href="#DejaVuSans-48"/>
      </g>
     </g>
    </g>
    <g id="xtick_4">
     <g id="line2d_7">
      <path clip-path="url(#pd8e8dd445d)" d="M 744.358364 370.3824 
L 744.358364 49.9392 
" style="fill:none;stroke:#b0b0b0;stroke-linecap:square;stroke-width:0.8;"/>
     </g>
     <g id="line2d_8">
      <g>
       <use style="stroke:#000000;stroke-width:0.8;" x="744.358364" xlink:href="#med0b60ee26" y="370.3824"/>
      </g>
     </g>
     <g id="text_4">
      <!-- 150 -->
      <g transform="translate(734.814614 384.980838)scale(0.1 -0.1)">
       <use xlink:href="#DejaVuSans-49"/>
       <use x="63.623047" xlink:href="#DejaVuSans-53"/>
       <use x="127.246094" xlink:href="#DejaVuSans-48"/>
      </g>
     </g>
    </g>
    <g id="xtick_5">
     <g id="line2d_9">
      <path clip-path="url(#pd8e8dd445d)" d="M 918.722 370.3824 
L 918.722 49.9392 
" style="fill:none;stroke:#b0b0b0;stroke-linecap:square;stroke-width:0.8;"/>
     </g>
     <g id="line2d_10">
      <g>
       <use style="stroke:#000000;stroke-width:0.8;" x="918.722" xlink:href="#med0b60ee26" y="370.3824"/>
      </g>
     </g>
     <g id="text_5">
      <!-- 200 -->
      <defs>
       <path d="M 19.1875 8.296875 
L 53.609375 8.296875 
L 53.609375 0 
L 7.328125 0 
L 7.328125 8.296875 
Q 12.9375 14.109375 22.625 23.890625 
Q 32.328125 33.6875 34.8125 36.53125 
Q 39.546875 41.84375 41.421875 45.53125 
Q 43.3125 49.21875 43.3125 52.78125 
Q 43.3125 58.59375 39.234375 62.25 
Q 35.15625 65.921875 28.609375 65.921875 
Q 23.96875 65.921875 18.8125 64.3125 
Q 13.671875 62.703125 7.8125 59.421875 
L 7.8125 69.390625 
Q 13.765625 71.78125 18.9375 73 
Q 24.125 74.21875 28.421875 74.21875 
Q 39.75 74.21875 46.484375 68.546875 
Q 53.21875 62.890625 53.21875 53.421875 
Q 53.21875 48.921875 51.53125 44.890625 
Q 49.859375 40.875 45.40625 35.40625 
Q 44.1875 33.984375 37.640625 27.21875 
Q 31.109375 20.453125 19.1875 8.296875 
z
" id="DejaVuSans-50"/>
      </defs>
      <g transform="translate(909.17825 384.980838)scale(0.1 -0.1)">
       <use xlink:href="#DejaVuSans-50"/>
       <use x="63.623047" xlink:href="#DejaVuSans-48"/>
       <use x="127.246094" xlink:href="#DejaVuSans-48"/>
      </g>
     </g>
    </g>
    <g id="xtick_6">
     <g id="line2d_11">
      <path clip-path="url(#pd8e8dd445d)" d="M 1093.085636 370.3824 
L 1093.085636 49.9392 
" style="fill:none;stroke:#b0b0b0;stroke-linecap:square;stroke-width:0.8;"/>
     </g>
     <g id="line2d_12">
      <g>
       <use style="stroke:#000000;stroke-width:0.8;" x="1093.085636" xlink:href="#med0b60ee26" y="370.3824"/>
      </g>
     </g>
     <g id="text_6">
      <!-- 250 -->
      <g transform="translate(1083.541886 384.980838)scale(0.1 -0.1)">
       <use xlink:href="#DejaVuSans-50"/>
       <use x="63.623047" xlink:href="#DejaVuSans-53"/>
       <use x="127.246094" xlink:href="#DejaVuSans-48"/>
      </g>
     </g>
    </g>
    <g id="text_7">
     <!-- Magnet Index -->
     <defs>
      <path d="M 9.8125 72.90625 
L 24.515625 72.90625 
L 43.109375 23.296875 
L 61.8125 72.90625 
L 76.515625 72.90625 
L 76.515625 0 
L 66.890625 0 
L 66.890625 64.015625 
L 48.09375 14.015625 
L 38.1875 14.015625 
L 19.390625 64.015625 
L 19.390625 0 
L 9.8125 0 
z
" id="DejaVuSans-77"/>
      <path d="M 34.28125 27.484375 
Q 23.390625 27.484375 19.1875 25 
Q 14.984375 22.515625 14.984375 16.5 
Q 14.984375 11.71875 18.140625 8.90625 
Q 21.296875 6.109375 26.703125 6.109375 
Q 34.1875 6.109375 38.703125 11.40625 
Q 43.21875 16.703125 43.21875 25.484375 
L 43.21875 27.484375 
z
M 52.203125 31.203125 
L 52.203125 0 
L 43.21875 0 
L 43.21875 8.296875 
Q 40.140625 3.328125 35.546875 0.953125 
Q 30.953125 -1.421875 24.3125 -1.421875 
Q 15.921875 -1.421875 10.953125 3.296875 
Q 6 8.015625 6 15.921875 
Q 6 25.140625 12.171875 29.828125 
Q 18.359375 34.515625 30.609375 34.515625 
L 43.21875 34.515625 
L 43.21875 35.40625 
Q 43.21875 41.609375 39.140625 45 
Q 35.0625 48.390625 27.6875 48.390625 
Q 23 48.390625 18.546875 47.265625 
Q 14.109375 46.140625 10.015625 43.890625 
L 10.015625 52.203125 
Q 14.9375 54.109375 19.578125 55.046875 
Q 24.21875 56 28.609375 56 
Q 40.484375 56 46.34375 49.84375 
Q 52.203125 43.703125 52.203125 31.203125 
z
" id="DejaVuSans-97"/>
      <path d="M 45.40625 27.984375 
Q 45.40625 37.75 41.375 43.109375 
Q 37.359375 48.484375 30.078125 48.484375 
Q 22.859375 48.484375 18.828125 43.109375 
Q 14.796875 37.75 14.796875 27.984375 
Q 14.796875 18.265625 18.828125 12.890625 
Q 22.859375 7.515625 30.078125 7.515625 
Q 37.359375 7.515625 41.375 12.890625 
Q 45.40625 18.265625 45.40625 27.984375 
z
M 54.390625 6.78125 
Q 54.390625 -7.171875 48.1875 -13.984375 
Q 42 -20.796875 29.203125 -20.796875 
Q 24.46875 -20.796875 20.265625 -20.09375 
Q 16.0625 -19.390625 12.109375 -17.921875 
L 12.109375 -9.1875 
Q 16.0625 -11.328125 19.921875 -12.34375 
Q 23.78125 -13.375 27.78125 -13.375 
Q 36.625 -13.375 41.015625 -8.765625 
Q 45.40625 -4.15625 45.40625 5.171875 
L 45.40625 9.625 
Q 42.625 4.78125 38.28125 2.390625 
Q 33.9375 0 27.875 0 
Q 17.828125 0 11.671875 7.65625 
Q 5.515625 15.328125 5.515625 27.984375 
Q 5.515625 40.671875 11.671875 48.328125 
Q 17.828125 56 27.875 56 
Q 33.9375 56 38.28125 53.609375 
Q 42.625 51.21875 45.40625 46.390625 
L 45.40625 54.6875 
L 54.390625 54.6875 
z
" id="DejaVuSans-103"/>
      <path d="M 54.890625 33.015625 
L 54.890625 0 
L 45.90625 0 
L 45.90625 32.71875 
Q 45.90625 40.484375 42.875 44.328125 
Q 39.84375 48.1875 33.796875 48.1875 
Q 26.515625 48.1875 22.3125 43.546875 
Q 18.109375 38.921875 18.109375 30.90625 
L 18.109375 0 
L 9.078125 0 
L 9.078125 54.6875 
L 18.109375 54.6875 
L 18.109375 46.1875 
Q 21.34375 51.125 25.703125 53.5625 
Q 30.078125 56 35.796875 56 
Q 45.21875 56 50.046875 50.171875 
Q 54.890625 44.34375 54.890625 33.015625 
z
" id="DejaVuSans-110"/>
      <path d="M 56.203125 29.59375 
L 56.203125 25.203125 
L 14.890625 25.203125 
Q 15.484375 15.921875 20.484375 11.0625 
Q 25.484375 6.203125 34.421875 6.203125 
Q 39.59375 6.203125 44.453125 7.46875 
Q 49.3125 8.734375 54.109375 11.28125 
L 54.109375 2.78125 
Q 49.265625 0.734375 44.1875 -0.34375 
Q 39.109375 -1.421875 33.890625 -1.421875 
Q 20.796875 -1.421875 13.15625 6.1875 
Q 5.515625 13.8125 5.515625 26.8125 
Q 5.515625 40.234375 12.765625 48.109375 
Q 20.015625 56 32.328125 56 
Q 43.359375 56 49.78125 48.890625 
Q 56.203125 41.796875 56.203125 29.59375 
z
M 47.21875 32.234375 
Q 47.125 39.59375 43.09375 43.984375 
Q 39.0625 48.390625 32.421875 48.390625 
Q 24.90625 48.390625 20.390625 44.140625 
Q 15.875 39.890625 15.1875 32.171875 
z
" id="DejaVuSans-101"/>
      <path d="M 18.3125 70.21875 
L 18.3125 54.6875 
L 36.8125 54.6875 
L 36.8125 47.703125 
L 18.3125 47.703125 
L 18.3125 18.015625 
Q 18.3125 11.328125 20.140625 9.421875 
Q 21.96875 7.515625 27.59375 7.515625 
L 36.8125 7.515625 
L 36.8125 0 
L 27.59375 0 
Q 17.1875 0 13.234375 3.875 
Q 9.28125 7.765625 9.28125 18.015625 
L 9.28125 47.703125 
L 2.6875 47.703125 
L 2.6875 54.6875 
L 9.28125 54.6875 
L 9.28125 70.21875 
z
" id="DejaVuSans-116"/>
      <path id="DejaVuSans-32"/>
      <path d="M 9.8125 72.90625 
L 19.671875 72.90625 
L 19.671875 0 
L 9.8125 0 
z
" id="DejaVuSans-73"/>
      <path d="M 45.40625 46.390625 
L 45.40625 75.984375 
L 54.390625 75.984375 
L 54.390625 0 
L 45.40625 0 
L 45.40625 8.203125 
Q 42.578125 3.328125 38.25 0.953125 
Q 33.9375 -1.421875 27.875 -1.421875 
Q 17.96875 -1.421875 11.734375 6.484375 
Q 5.515625 14.40625 5.515625 27.296875 
Q 5.515625 40.1875 11.734375 48.09375 
Q 17.96875 56 27.875 56 
Q 33.9375 56 38.25 53.625 
Q 42.578125 51.265625 45.40625 46.390625 
z
M 14.796875 27.296875 
Q 14.796875 17.390625 18.875 11.75 
Q 22.953125 6.109375 30.078125 6.109375 
Q 37.203125 6.109375 41.296875 11.75 
Q 45.40625 17.390625 45.40625 27.296875 
Q 45.40625 37.203125 41.296875 42.84375 
Q 37.203125 48.484375 30.078125 48.484375 
Q 22.953125 48.484375 18.875 42.84375 
Q 14.796875 37.203125 14.796875 27.296875 
z
" id="DejaVuSans-100"/>
      <path d="M 54.890625 54.6875 
L 35.109375 28.078125 
L 55.90625 0 
L 45.3125 0 
L 29.390625 21.484375 
L 13.484375 0 
L 2.875 0 
L 24.125 28.609375 
L 4.6875 54.6875 
L 15.28125 54.6875 
L 29.78125 35.203125 
L 44.28125 54.6875 
z
" id="DejaVuSans-120"/>
     </defs>
     <g transform="translate(673.542 398.658963)scale(0.1 -0.1)">
      <use xlink:href="#DejaVuSans-77"/>
      <use x="86.279297" xlink:href="#DejaVuSans-97"/>
      <use x="147.558594" xlink:href="#DejaVuSans-103"/>
      <use x="211.035156" xlink:href="#DejaVuSans-110"/>
      <use x="274.414062" xlink:href="#DejaVuSans-101"/>
      <use x="335.9375" xlink:href="#DejaVuSans-116"/>
      <use x="375.146484" xlink:href="#DejaVuSans-32"/>
      <use x="406.933594" xlink:href="#DejaVuSans-73"/>
      <use x="436.425781" xlink:href="#DejaVuSans-110"/>
      <use x="499.804688" xlink:href="#DejaVuSans-100"/>
      <use x="563.28125" xlink:href="#DejaVuSans-101"/>
      <use x="624.789062" xlink:href="#DejaVuSans-120"/>
     </g>
    </g>
   </g>
   <g id="matplotlib.axis_2">
    <g id="ytick_1">
     <g id="line2d_13">
      <path clip-path="url(#pd8e8dd445d)" d="M 172.62 341.437973 
L 1242.864 341.437973 
" style="fill:none;stroke:#b0b0b0;stroke-linecap:square;stroke-width:0.8;"/>
     </g>
     <g id="line2d_14">
      <defs>
       <path d="M 0 0 
L -3.5 0 
" id="md189781117" style="stroke:#000000;stroke-width:0.8;"/>
      </defs>
      <g>
       <use style="stroke:#000000;stroke-width:0.8;" x="172.62" xlink:href="#md189781117" y="341.437973"/>
      </g>
     </g>
     <g id="text_8">
      <!-- 15 -->
      <g transform="translate(152.895 345.237192)scale(0.1 -0.1)">
       <use xlink:href="#DejaVuSans-49"/>
       <use x="63.623047" xlink:href="#DejaVuSans-53"/>
      </g>
     </g>
    </g>
    <g id="ytick_2">
     <g id="line2d_15">
      <path clip-path="url(#pd8e8dd445d)" d="M 172.62 284.096127 
L 1242.864 284.096127 
" style="fill:none;stroke:#b0b0b0;stroke-linecap:square;stroke-width:0.8;"/>
     </g>
     <g id="line2d_16">
      <g>
       <use style="stroke:#000000;stroke-width:0.8;" x="172.62" xlink:href="#md189781117" y="284.096127"/>
      </g>
     </g>
     <g id="text_9">
      <!-- 20 -->
      <g transform="translate(152.895 287.895345)scale(0.1 -0.1)">
       <use xlink:href="#DejaVuSans-50"/>
       <use x="63.623047" xlink:href="#DejaVuSans-48"/>
      </g>
     </g>
    </g>
    <g id="ytick_3">
     <g id="line2d_17">
      <path clip-path="url(#pd8e8dd445d)" d="M 172.62 226.75428 
L 1242.864 226.75428 
" style="fill:none;stroke:#b0b0b0;stroke-linecap:square;stroke-width:0.8;"/>
     </g>
     <g id="line2d_18">
      <g>
       <use style="stroke:#000000;stroke-width:0.8;" x="172.62" xlink:href="#md189781117" y="226.75428"/>
      </g>
     </g>
     <g id="text_10">
      <!-- 25 -->
      <g transform="translate(152.895 230.553499)scale(0.1 -0.1)">
       <use xlink:href="#DejaVuSans-50"/>
       <use x="63.623047" xlink:href="#DejaVuSans-53"/>
      </g>
     </g>
    </g>
    <g id="ytick_4">
     <g id="line2d_19">
      <path clip-path="url(#pd8e8dd445d)" d="M 172.62 169.412433 
L 1242.864 169.412433 
" style="fill:none;stroke:#b0b0b0;stroke-linecap:square;stroke-width:0.8;"/>
     </g>
     <g id="line2d_20">
      <g>
       <use style="stroke:#000000;stroke-width:0.8;" x="172.62" xlink:href="#md189781117" y="169.412433"/>
      </g>
     </g>
     <g id="text_11">
      <!-- 30 -->
      <defs>
       <path d="M 40.578125 39.3125 
Q 47.65625 37.796875 51.625 33 
Q 55.609375 28.21875 55.609375 21.1875 
Q 55.609375 10.40625 48.1875 4.484375 
Q 40.765625 -1.421875 27.09375 -1.421875 
Q 22.515625 -1.421875 17.65625 -0.515625 
Q 12.796875 0.390625 7.625 2.203125 
L 7.625 11.71875 
Q 11.71875 9.328125 16.59375 8.109375 
Q 21.484375 6.890625 26.8125 6.890625 
Q 36.078125 6.890625 40.9375 10.546875 
Q 45.796875 14.203125 45.796875 21.1875 
Q 45.796875 27.640625 41.28125 31.265625 
Q 36.765625 34.90625 28.71875 34.90625 
L 20.21875 34.90625 
L 20.21875 43.015625 
L 29.109375 43.015625 
Q 36.375 43.015625 40.234375 45.921875 
Q 44.09375 48.828125 44.09375 54.296875 
Q 44.09375 59.90625 40.109375 62.90625 
Q 36.140625 65.921875 28.71875 65.921875 
Q 24.65625 65.921875 20.015625 65.03125 
Q 15.375 64.15625 9.8125 62.3125 
L 9.8125 71.09375 
Q 15.4375 72.65625 20.34375 73.4375 
Q 25.25 74.21875 29.59375 74.21875 
Q 40.828125 74.21875 47.359375 69.109375 
Q 53.90625 64.015625 53.90625 55.328125 
Q 53.90625 49.265625 50.4375 45.09375 
Q 46.96875 40.921875 40.578125 39.3125 
z
" id="DejaVuSans-51"/>
      </defs>
      <g transform="translate(152.895 173.211652)scale(0.1 -0.1)">
       <use xlink:href="#DejaVuSans-51"/>
       <use x="63.623047" xlink:href="#DejaVuSans-48"/>
      </g>
     </g>
    </g>
    <g id="ytick_5">
     <g id="line2d_21">
      <path clip-path="url(#pd8e8dd445d)" d="M 172.62 112.070586 
L 1242.864 112.070586 
" style="fill:none;stroke:#b0b0b0;stroke-linecap:square;stroke-width:0.8;"/>
     </g>
     <g id="line2d_22">
      <g>
       <use style="stroke:#000000;stroke-width:0.8;" x="172.62" xlink:href="#md189781117" y="112.070586"/>
      </g>
     </g>
     <g id="text_12">
      <!-- 35 -->
      <g transform="translate(152.895 115.869805)scale(0.1 -0.1)">
       <use xlink:href="#DejaVuSans-51"/>
       <use x="63.623047" xlink:href="#DejaVuSans-53"/>
      </g>
     </g>
    </g>
    <g id="ytick_6">
     <g id="line2d_23">
      <path clip-path="url(#pd8e8dd445d)" d="M 172.62 54.728739 
L 1242.864 54.728739 
" style="fill:none;stroke:#b0b0b0;stroke-linecap:square;stroke-width:0.8;"/>
     </g>
     <g id="line2d_24">
      <g>
       <use style="stroke:#000000;stroke-width:0.8;" x="172.62" xlink:href="#md189781117" y="54.728739"/>
      </g>
     </g>
     <g id="text_13">
      <!-- 40 -->
      <defs>
       <path d="M 37.796875 64.3125 
L 12.890625 25.390625 
L 37.796875 25.390625 
z
M 35.203125 72.90625 
L 47.609375 72.90625 
L 47.609375 25.390625 
L 58.015625 25.390625 
L 58.015625 17.1875 
L 47.609375 17.1875 
L 47.609375 0 
L 37.796875 0 
L 37.796875 17.1875 
L 4.890625 17.1875 
L 4.890625 26.703125 
z
" id="DejaVuSans-52"/>
      </defs>
      <g transform="translate(152.895 58.527958)scale(0.1 -0.1)">
       <use xlink:href="#DejaVuSans-52"/>
       <use x="63.623047" xlink:href="#DejaVuSans-48"/>
      </g>
     </g>
    </g>
    <g id="text_14">
     <!-- Y [um] -->
     <defs>
      <path d="M -0.203125 72.90625 
L 10.40625 72.90625 
L 30.609375 42.921875 
L 50.6875 72.90625 
L 61.28125 72.90625 
L 35.5 34.71875 
L 35.5 0 
L 25.59375 0 
L 25.59375 34.71875 
z
" id="DejaVuSans-89"/>
      <path d="M 8.59375 75.984375 
L 29.296875 75.984375 
L 29.296875 69 
L 17.578125 69 
L 17.578125 -6.203125 
L 29.296875 -6.203125 
L 29.296875 -13.1875 
L 8.59375 -13.1875 
z
" id="DejaVuSans-91"/>
      <path d="M 8.5 21.578125 
L 8.5 54.6875 
L 17.484375 54.6875 
L 17.484375 21.921875 
Q 17.484375 14.15625 20.5 10.265625 
Q 23.53125 6.390625 29.59375 6.390625 
Q 36.859375 6.390625 41.078125 11.03125 
Q 45.3125 15.671875 45.3125 23.6875 
L 45.3125 54.6875 
L 54.296875 54.6875 
L 54.296875 0 
L 45.3125 0 
L 45.3125 8.40625 
Q 42.046875 3.421875 37.71875 1 
Q 33.40625 -1.421875 27.6875 -1.421875 
Q 18.265625 -1.421875 13.375 4.4375 
Q 8.5 10.296875 8.5 21.578125 
z
M 31.109375 56 
z
" id="DejaVuSans-117"/>
      <path d="M 52 44.1875 
Q 55.375 50.25 60.0625 53.125 
Q 64.75 56 71.09375 56 
Q 79.640625 56 84.28125 50.015625 
Q 88.921875 44.046875 88.921875 33.015625 
L 88.921875 0 
L 79.890625 0 
L 79.890625 32.71875 
Q 79.890625 40.578125 77.09375 44.375 
Q 74.3125 48.1875 68.609375 48.1875 
Q 61.625 48.1875 57.5625 43.546875 
Q 53.515625 38.921875 53.515625 30.90625 
L 53.515625 0 
L 44.484375 0 
L 44.484375 32.71875 
Q 44.484375 40.625 41.703125 44.40625 
Q 38.921875 48.1875 33.109375 48.1875 
Q 26.21875 48.1875 22.15625 43.53125 
Q 18.109375 38.875 18.109375 30.90625 
L 18.109375 0 
L 9.078125 0 
L 9.078125 54.6875 
L 18.109375 54.6875 
L 18.109375 46.1875 
Q 21.1875 51.21875 25.484375 53.609375 
Q 29.78125 56 35.6875 56 
Q 41.65625 56 45.828125 52.96875 
Q 50 49.953125 52 44.1875 
z
" id="DejaVuSans-109"/>
      <path d="M 30.421875 75.984375 
L 30.421875 -13.1875 
L 9.71875 -13.1875 
L 9.71875 -6.203125 
L 21.390625 -6.203125 
L 21.390625 69 
L 9.71875 69 
L 9.71875 75.984375 
z
" id="DejaVuSans-93"/>
     </defs>
     <g transform="translate(146.815313 226.744394)rotate(-90)scale(0.1 -0.1)">
      <use xlink:href="#DejaVuSans-89"/>
      <use x="61.083984" xlink:href="#DejaVuSans-32"/>
      <use x="92.871094" xlink:href="#DejaVuSans-91"/>
      <use x="131.884766" xlink:href="#DejaVuSans-117"/>
      <use x="195.263672" xlink:href="#DejaVuSans-109"/>
      <use x="292.675781" xlink:href="#DejaVuSans-93"/>
     </g>
    </g>
   </g>
   <g id="line2d_25">
    <path clip-path="url(#pd8e8dd445d)" d="M 221.267455 155.531056 
L 224.754727 231.440881 
L 228.242 187.30546 
L 231.729273 218.772218 
L 235.216545 253.913564 
L 238.703818 269.736522 
L 242.191091 90.893837 
L 245.678364 331.898082 
L 249.165636 182.645198 
L 252.652909 96.807726 
" style="fill:none;stroke:#0000ff;stroke-linecap:square;stroke-width:1.5;"/>
   </g>
   <g id="line2d_26">
    <defs>
     <path d="M 0 3 
C 0.795609 3 1.55874 2.683901 2.12132 2.12132 
C 2.683901 1.55874 3 0.795609 3 0 
C 3 -0.795609 2.683901 -1.55874 2.12132 -2.12132 
C 1.55874 -2.683901 0.795609 -3 0 -3 
C -0.795609 -3 -1.55874 -2.683901 -2.12132 -2.12132 
C -2.683901 -1.55874 -3 -0.795609 -3 0 
C -3 0.795609 -2.683901 1.55874 -2.12132 2.12132 
C -1.55874 2.683901 -0.795609 3 0 3 
z
" id="m1b404d8353" style="stroke:#0000ff;"/>
    </defs>
    <g clip-path="url(#pd8e8dd445d)">
     <use style="fill:#0000ff;stroke:#0000ff;" x="221.267455" xlink:href="#m1b404d8353" y="155.531056"/>
     <use style="fill:#0000ff;stroke:#0000ff;" x="224.754727" xlink:href="#m1b404d8353" y="231.440881"/>
     <use style="fill:#0000ff;stroke:#0000ff;" x="228.242" xlink:href="#m1b404d8353" y="187.30546"/>
     <use style="fill:#0000ff;stroke:#0000ff;" x="231.729273" xlink:href="#m1b404d8353" y="218.772218"/>
     <use style="fill:#0000ff;stroke:#0000ff;" x="235.216545" xlink:href="#m1b404d8353" y="253.913564"/>
     <use style="fill:#0000ff;stroke:#0000ff;" x="238.703818" xlink:href="#m1b404d8353" y="269.736522"/>
     <use style="fill:#0000ff;stroke:#0000ff;" x="242.191091" xlink:href="#m1b404d8353" y="90.893837"/>
     <use style="fill:#0000ff;stroke:#0000ff;" x="245.678364" xlink:href="#m1b404d8353" y="331.898082"/>
     <use style="fill:#0000ff;stroke:#0000ff;" x="249.165636" xlink:href="#m1b404d8353" y="182.645198"/>
     <use style="fill:#0000ff;stroke:#0000ff;" x="252.652909" xlink:href="#m1b404d8353" y="96.807726"/>
    </g>
   </g>
   <g id="line2d_27">
    <path clip-path="url(#pd8e8dd445d)" d="M 256.140182 289.469547 
L 259.627455 271.882049 
L 263.114727 267.794811 
L 266.602 266.035885 
L 270.089273 222.467541 
L 273.576545 192.060488 
L 277.063818 325.675117 
L 280.551091 213.100494 
L 284.038364 310.225311 
L 287.525636 182.322952 
" style="fill:none;stroke:#008000;stroke-linecap:square;stroke-width:1.5;"/>
   </g>
   <g id="line2d_28">
    <defs>
     <path d="M 0 3 
C 0.795609 3 1.55874 2.683901 2.12132 2.12132 
C 2.683901 1.55874 3 0.795609 3 0 
C 3 -0.795609 2.683901 -1.55874 2.12132 -2.12132 
C 1.55874 -2.683901 0.795609 -3 0 -3 
C -0.795609 -3 -1.55874 -2.683901 -2.12132 -2.12132 
C -2.683901 -1.55874 -3 -0.795609 -3 0 
C -3 0.795609 -2.683901 1.55874 -2.12132 2.12132 
C -1.55874 2.683901 -0.795609 3 0 3 
z
" id="m7a1a9ceee6" style="stroke:#008000;"/>
    </defs>
    <g clip-path="url(#pd8e8dd445d)">
     <use style="fill:#008000;stroke:#008000;" x="256.140182" xlink:href="#m7a1a9ceee6" y="289.469547"/>
     <use style="fill:#008000;stroke:#008000;" x="259.627455" xlink:href="#m7a1a9ceee6" y="271.882049"/>
     <use style="fill:#008000;stroke:#008000;" x="263.114727" xlink:href="#m7a1a9ceee6" y="267.794811"/>
     <use style="fill:#008000;stroke:#008000;" x="266.602" xlink:href="#m7a1a9ceee6" y="266.035885"/>
     <use style="fill:#008000;stroke:#008000;" x="270.089273" xlink:href="#m7a1a9ceee6" y="222.467541"/>
     <use style="fill:#008000;stroke:#008000;" x="273.576545" xlink:href="#m7a1a9ceee6" y="192.060488"/>
     <use style="fill:#008000;stroke:#008000;" x="277.063818" xlink:href="#m7a1a9ceee6" y="325.675117"/>
     <use style="fill:#008000;stroke:#008000;" x="280.551091" xlink:href="#m7a1a9ceee6" y="213.100494"/>
     <use style="fill:#008000;stroke:#008000;" x="284.038364" xlink:href="#m7a1a9ceee6" y="310.225311"/>
     <use style="fill:#008000;stroke:#008000;" x="287.525636" xlink:href="#m7a1a9ceee6" y="182.322952"/>
    </g>
   </g>
   <g id="line2d_29">
    <path clip-path="url(#pd8e8dd445d)" d="M 291.012909 193.588922 
L 294.500182 280.233585 
L 297.987455 242.080039 
L 301.474727 266.299824 
L 304.962 165.4502 
L 308.449273 307.985621 
L 311.936545 237.568036 
L 315.423818 237.171605 
L 318.911091 354.670178 
L 322.398364 321.06457 
L 325.885636 227.912905 
L 329.372909 269.793973 
L 332.860182 306.345305 
L 336.347455 283.48479 
L 339.834727 240.198296 
L 343.322 319.330324 
L 346.809273 202.634465 
L 350.296545 224.928063 
L 353.783818 144.426796 
L 357.271091 248.571942 
" style="fill:none;stroke:#ff0000;stroke-linecap:square;stroke-width:1.5;"/>
   </g>
   <g id="line2d_30">
    <defs>
     <path d="M 0 3 
C 0.795609 3 1.55874 2.683901 2.12132 2.12132 
C 2.683901 1.55874 3 0.795609 3 0 
C 3 -0.795609 2.683901 -1.55874 2.12132 -2.12132 
C 1.55874 -2.683901 0.795609 -3 0 -3 
C -0.795609 -3 -1.55874 -2.683901 -2.12132 -2.12132 
C -2.683901 -1.55874 -3 -0.795609 -3 0 
C -3 0.795609 -2.683901 1.55874 -2.12132 2.12132 
C -1.55874 2.683901 -0.795609 3 0 3 
z
" id="m8b1c154c5b" style="stroke:#ff0000;"/>
    </defs>
    <g clip-path="url(#pd8e8dd445d)">
     <use style="fill:#ff0000;stroke:#ff0000;" x="291.012909" xlink:href="#m8b1c154c5b" y="193.588922"/>
     <use style="fill:#ff0000;stroke:#ff0000;" x="294.500182" xlink:href="#m8b1c154c5b" y="280.233585"/>
     <use style="fill:#ff0000;stroke:#ff0000;" x="297.987455" xlink:href="#m8b1c154c5b" y="242.080039"/>
     <use style="fill:#ff0000;stroke:#ff0000;" x="301.474727" xlink:href="#m8b1c154c5b" y="266.299824"/>
     <use style="fill:#ff0000;stroke:#ff0000;" x="304.962" xlink:href="#m8b1c154c5b" y="165.4502"/>
     <use style="fill:#ff0000;stroke:#ff0000;" x="308.449273" xlink:href="#m8b1c154c5b" y="307.985621"/>
     <use style="fill:#ff0000;stroke:#ff0000;" x="311.936545" xlink:href="#m8b1c154c5b" y="237.568036"/>
     <use style="fill:#ff0000;stroke:#ff0000;" x="315.423818" xlink:href="#m8b1c154c5b" y="237.171605"/>
     <use style="fill:#ff0000;stroke:#ff0000;" x="318.911091" xlink:href="#m8b1c154c5b" y="354.670178"/>
     <use style="fill:#ff0000;stroke:#ff0000;" x="322.398364" xlink:href="#m8b1c154c5b" y="321.06457"/>
     <use style="fill:#ff0000;stroke:#ff0000;" x="325.885636" xlink:href="#m8b1c154c5b" y="227.912905"/>
     <use style="fill:#ff0000;stroke:#ff0000;" x="329.372909" xlink:href="#m8b1c154c5b" y="269.793973"/>
     <use style="fill:#ff0000;stroke:#ff0000;" x="332.860182" xlink:href="#m8b1c154c5b" y="306.345305"/>
     <use style="fill:#ff0000;stroke:#ff0000;" x="336.347455" xlink:href="#m8b1c154c5b" y="283.48479"/>
     <use style="fill:#ff0000;stroke:#ff0000;" x="339.834727" xlink:href="#m8b1c154c5b" y="240.198296"/>
     <use style="fill:#ff0000;stroke:#ff0000;" x="343.322" xlink:href="#m8b1c154c5b" y="319.330324"/>
     <use style="fill:#ff0000;stroke:#ff0000;" x="346.809273" xlink:href="#m8b1c154c5b" y="202.634465"/>
     <use style="fill:#ff0000;stroke:#ff0000;" x="350.296545" xlink:href="#m8b1c154c5b" y="224.928063"/>
     <use style="fill:#ff0000;stroke:#ff0000;" x="353.783818" xlink:href="#m8b1c154c5b" y="144.426796"/>
     <use style="fill:#ff0000;stroke:#ff0000;" x="357.271091" xlink:href="#m8b1c154c5b" y="248.571942"/>
    </g>
   </g>
   <g id="line2d_31">
    <path clip-path="url(#pd8e8dd445d)" d="M 360.758364 204.484162 
L 364.245636 236.674923 
L 367.732909 246.036591 
L 371.220182 349.793399 
L 374.707455 204.739405 
L 378.194727 201.224412 
L 381.682 201.179516 
L 385.169273 156.28804 
L 388.656545 240.617143 
L 392.143818 137.461142 
L 395.631091 249.30609 
L 399.118364 181.802172 
L 402.605636 64.5048 
L 406.092909 179.806206 
L 409.580182 213.008438 
L 413.067455 179.903314 
L 416.554727 132.340264 
L 420.042 191.008158 
L 423.529273 172.376535 
L 427.016545 161.44915 
" style="fill:none;stroke:#000000;stroke-linecap:square;stroke-width:1.5;"/>
   </g>
   <g id="line2d_32">
    <defs>
     <path d="M 0 3 
C 0.795609 3 1.55874 2.683901 2.12132 2.12132 
C 2.683901 1.55874 3 0.795609 3 0 
C 3 -0.795609 2.683901 -1.55874 2.12132 -2.12132 
C 1.55874 -2.683901 0.795609 -3 0 -3 
C -0.795609 -3 -1.55874 -2.683901 -2.12132 -2.12132 
C -2.683901 -1.55874 -3 -0.795609 -3 0 
C -3 0.795609 -2.683901 1.55874 -2.12132 2.12132 
C -1.55874 2.683901 -0.795609 3 0 3 
z
" id="m727e7a6cb9" style="stroke:#000000;"/>
    </defs>
    <g clip-path="url(#pd8e8dd445d)">
     <use style="stroke:#000000;" x="360.758364" xlink:href="#m727e7a6cb9" y="204.484162"/>
     <use style="stroke:#000000;" x="364.245636" xlink:href="#m727e7a6cb9" y="236.674923"/>
     <use style="stroke:#000000;" x="367.732909" xlink:href="#m727e7a6cb9" y="246.036591"/>
     <use style="stroke:#000000;" x="371.220182" xlink:href="#m727e7a6cb9" y="349.793399"/>
     <use style="stroke:#000000;" x="374.707455" xlink:href="#m727e7a6cb9" y="204.739405"/>
     <use style="stroke:#000000;" x="378.194727" xlink:href="#m727e7a6cb9" y="201.224412"/>
     <use style="stroke:#000000;" x="381.682" xlink:href="#m727e7a6cb9" y="201.179516"/>
     <use style="stroke:#000000;" x="385.169273" xlink:href="#m727e7a6cb9" y="156.28804"/>
     <use style="stroke:#000000;" x="388.656545" xlink:href="#m727e7a6cb9" y="240.617143"/>
     <use style="stroke:#000000;" x="392.143818" xlink:href="#m727e7a6cb9" y="137.461142"/>
     <use style="stroke:#000000;" x="395.631091" xlink:href="#m727e7a6cb9" y="249.30609"/>
     <use style="stroke:#000000;" x="399.118364" xlink:href="#m727e7a6cb9" y="181.802172"/>
     <use style="stroke:#000000;" x="402.605636" xlink:href="#m727e7a6cb9" y="64.5048"/>
     <use style="stroke:#000000;" x="406.092909" xlink:href="#m727e7a6cb9" y="179.806206"/>
     <use style="stroke:#000000;" x="409.580182" xlink:href="#m727e7a6cb9" y="213.008438"/>
     <use style="stroke:#000000;" x="413.067455" xlink:href="#m727e7a6cb9" y="179.903314"/>
     <use style="stroke:#000000;" x="416.554727" xlink:href="#m727e7a6cb9" y="132.340264"/>
     <use style="stroke:#000000;" x="420.042" xlink:href="#m727e7a6cb9" y="191.008158"/>
     <use style="stroke:#000000;" x="423.529273" xlink:href="#m727e7a6cb9" y="172.376535"/>
     <use style="stroke:#000000;" x="427.016545" xlink:href="#m727e7a6cb9" y="161.44915"/>
    </g>
   </g>
   <g id="line2d_33">
    <path clip-path="url(#pd8e8dd445d)" d="M 430.503818 179.26241 
L 433.991091 273.740432 
L 437.478364 289.879059 
L 440.965636 273.919153 
L 444.452909 213.893483 
L 447.940182 219.814001 
L 451.427455 288.070303 
L 454.914727 162.63593 
L 458.402 206.451084 
L 461.889273 132.597903 
" style="fill:none;stroke:#bfbf00;stroke-linecap:square;stroke-width:1.5;"/>
   </g>
   <g id="line2d_34">
    <defs>
     <path d="M 0 3 
C 0.795609 3 1.55874 2.683901 2.12132 2.12132 
C 2.683901 1.55874 3 0.795609 3 0 
C 3 -0.795609 2.683901 -1.55874 2.12132 -2.12132 
C 1.55874 -2.683901 0.795609 -3 0 -3 
C -0.795609 -3 -1.55874 -2.683901 -2.12132 -2.12132 
C -2.683901 -1.55874 -3 -0.795609 -3 0 
C -3 0.795609 -2.683901 1.55874 -2.12132 2.12132 
C -1.55874 2.683901 -0.795609 3 0 3 
z
" id="m40f65e5209" style="stroke:#bfbf00;"/>
    </defs>
    <g clip-path="url(#pd8e8dd445d)">
     <use style="fill:#bfbf00;stroke:#bfbf00;" x="430.503818" xlink:href="#m40f65e5209" y="179.26241"/>
     <use style="fill:#bfbf00;stroke:#bfbf00;" x="433.991091" xlink:href="#m40f65e5209" y="273.740432"/>
     <use style="fill:#bfbf00;stroke:#bfbf00;" x="437.478364" xlink:href="#m40f65e5209" y="289.879059"/>
     <use style="fill:#bfbf00;stroke:#bfbf00;" x="440.965636" xlink:href="#m40f65e5209" y="273.919153"/>
     <use style="fill:#bfbf00;stroke:#bfbf00;" x="444.452909" xlink:href="#m40f65e5209" y="213.893483"/>
     <use style="fill:#bfbf00;stroke:#bfbf00;" x="447.940182" xlink:href="#m40f65e5209" y="219.814001"/>
     <use style="fill:#bfbf00;stroke:#bfbf00;" x="451.427455" xlink:href="#m40f65e5209" y="288.070303"/>
     <use style="fill:#bfbf00;stroke:#bfbf00;" x="454.914727" xlink:href="#m40f65e5209" y="162.63593"/>
     <use style="fill:#bfbf00;stroke:#bfbf00;" x="458.402" xlink:href="#m40f65e5209" y="206.451084"/>
     <use style="fill:#bfbf00;stroke:#bfbf00;" x="461.889273" xlink:href="#m40f65e5209" y="132.597903"/>
    </g>
   </g>
   <g id="line2d_35">
    <path clip-path="url(#pd8e8dd445d)" d="M 465.376545 175.273296 
L 468.863818 289.856674 
L 472.351091 150.476568 
L 475.838364 215.964585 
L 479.325636 226.260652 
L 482.812909 284.391962 
L 486.300182 232.672476 
L 489.787455 319.826266 
L 493.274727 178.785442 
L 496.762 355.8168 
" style="fill:none;stroke:#0000ff;stroke-linecap:square;stroke-width:1.5;"/>
   </g>
   <g id="line2d_36">
    <g clip-path="url(#pd8e8dd445d)">
     <use style="fill:#0000ff;stroke:#0000ff;" x="465.376545" xlink:href="#m1b404d8353" y="175.273296"/>
     <use style="fill:#0000ff;stroke:#0000ff;" x="468.863818" xlink:href="#m1b404d8353" y="289.856674"/>
     <use style="fill:#0000ff;stroke:#0000ff;" x="472.351091" xlink:href="#m1b404d8353" y="150.476568"/>
     <use style="fill:#0000ff;stroke:#0000ff;" x="475.838364" xlink:href="#m1b404d8353" y="215.964585"/>
     <use style="fill:#0000ff;stroke:#0000ff;" x="479.325636" xlink:href="#m1b404d8353" y="226.260652"/>
     <use style="fill:#0000ff;stroke:#0000ff;" x="482.812909" xlink:href="#m1b404d8353" y="284.391962"/>
     <use style="fill:#0000ff;stroke:#0000ff;" x="486.300182" xlink:href="#m1b404d8353" y="232.672476"/>
     <use style="fill:#0000ff;stroke:#0000ff;" x="489.787455" xlink:href="#m1b404d8353" y="319.826266"/>
     <use style="fill:#0000ff;stroke:#0000ff;" x="493.274727" xlink:href="#m1b404d8353" y="178.785442"/>
     <use style="fill:#0000ff;stroke:#0000ff;" x="496.762" xlink:href="#m1b404d8353" y="355.8168"/>
    </g>
   </g>
   <g id="line2d_37">
    <path clip-path="url(#pd8e8dd445d)" d="M 500.249273 289.359137 
L 503.736545 257.615557 
L 507.223818 118.874719 
L 510.711091 182.948643 
L 514.198364 208.634072 
L 517.685636 204.308047 
L 521.172909 288.584482 
L 524.660182 196.931802 
L 528.147455 168.75532 
L 531.634727 283.624857 
" style="fill:none;stroke:#008000;stroke-linecap:square;stroke-width:1.5;"/>
   </g>
   <g id="line2d_38">
    <g clip-path="url(#pd8e8dd445d)">
     <use style="fill:#008000;stroke:#008000;" x="500.249273" xlink:href="#m7a1a9ceee6" y="289.359137"/>
     <use style="fill:#008000;stroke:#008000;" x="503.736545" xlink:href="#m7a1a9ceee6" y="257.615557"/>
     <use style="fill:#008000;stroke:#008000;" x="507.223818" xlink:href="#m7a1a9ceee6" y="118.874719"/>
     <use style="fill:#008000;stroke:#008000;" x="510.711091" xlink:href="#m7a1a9ceee6" y="182.948643"/>
     <use style="fill:#008000;stroke:#008000;" x="514.198364" xlink:href="#m7a1a9ceee6" y="208.634072"/>
     <use style="fill:#008000;stroke:#008000;" x="517.685636" xlink:href="#m7a1a9ceee6" y="204.308047"/>
     <use style="fill:#008000;stroke:#008000;" x="521.172909" xlink:href="#m7a1a9ceee6" y="288.584482"/>
     <use style="fill:#008000;stroke:#008000;" x="524.660182" xlink:href="#m7a1a9ceee6" y="196.931802"/>
     <use style="fill:#008000;stroke:#008000;" x="528.147455" xlink:href="#m7a1a9ceee6" y="168.75532"/>
     <use style="fill:#008000;stroke:#008000;" x="531.634727" xlink:href="#m7a1a9ceee6" y="283.624857"/>
    </g>
   </g>
   <g id="line2d_39">
    <path clip-path="url(#pd8e8dd445d)" d="M 535.122 275.241311 
L 538.609273 176.912673 
L 542.096545 260.044985 
L 545.583818 241.148551 
L 549.071091 173.226369 
L 552.558364 260.519423 
L 556.045636 301.782926 
L 559.532909 200.499325 
L 563.020182 276.667562 
L 566.507455 331.338221 
" style="fill:none;stroke:#ff0000;stroke-linecap:square;stroke-width:1.5;"/>
   </g>
   <g id="line2d_40">
    <g clip-path="url(#pd8e8dd445d)">
     <use style="fill:#ff0000;stroke:#ff0000;" x="535.122" xlink:href="#m8b1c154c5b" y="275.241311"/>
     <use style="fill:#ff0000;stroke:#ff0000;" x="538.609273" xlink:href="#m8b1c154c5b" y="176.912673"/>
     <use style="fill:#ff0000;stroke:#ff0000;" x="542.096545" xlink:href="#m8b1c154c5b" y="260.044985"/>
     <use style="fill:#ff0000;stroke:#ff0000;" x="545.583818" xlink:href="#m8b1c154c5b" y="241.148551"/>
     <use style="fill:#ff0000;stroke:#ff0000;" x="549.071091" xlink:href="#m8b1c154c5b" y="173.226369"/>
     <use style="fill:#ff0000;stroke:#ff0000;" x="552.558364" xlink:href="#m8b1c154c5b" y="260.519423"/>
     <use style="fill:#ff0000;stroke:#ff0000;" x="556.045636" xlink:href="#m8b1c154c5b" y="301.782926"/>
     <use style="fill:#ff0000;stroke:#ff0000;" x="559.532909" xlink:href="#m8b1c154c5b" y="200.499325"/>
     <use style="fill:#ff0000;stroke:#ff0000;" x="563.020182" xlink:href="#m8b1c154c5b" y="276.667562"/>
     <use style="fill:#ff0000;stroke:#ff0000;" x="566.507455" xlink:href="#m8b1c154c5b" y="331.338221"/>
    </g>
   </g>
   <g id="line2d_41">
    <path clip-path="url(#pd8e8dd445d)" d="M 569.994727 213.911308 
L 573.482 142.220288 
L 576.969273 136.119675 
L 580.456545 247.172319 
L 583.943818 227.259325 
L 587.431091 298.994039 
L 590.918364 301.774349 
L 594.405636 282.746947 
L 597.892909 214.132386 
L 601.380182 207.32127 
L 604.867455 226.445573 
L 608.354727 237.206147 
L 611.842 285.90658 
L 615.329273 161.234382 
L 618.816545 148.449435 
L 622.303818 196.089016 
L 625.791091 182.588197 
L 629.278364 167.929028 
L 632.765636 203.427947 
L 636.252909 223.290464 
" style="fill:none;stroke:#000000;stroke-linecap:square;stroke-width:1.5;"/>
   </g>
   <g id="line2d_42">
    <g clip-path="url(#pd8e8dd445d)">
     <use style="stroke:#000000;" x="569.994727" xlink:href="#m727e7a6cb9" y="213.911308"/>
     <use style="stroke:#000000;" x="573.482" xlink:href="#m727e7a6cb9" y="142.220288"/>
     <use style="stroke:#000000;" x="576.969273" xlink:href="#m727e7a6cb9" y="136.119675"/>
     <use style="stroke:#000000;" x="580.456545" xlink:href="#m727e7a6cb9" y="247.172319"/>
     <use style="stroke:#000000;" x="583.943818" xlink:href="#m727e7a6cb9" y="227.259325"/>
     <use style="stroke:#000000;" x="587.431091" xlink:href="#m727e7a6cb9" y="298.994039"/>
     <use style="stroke:#000000;" x="590.918364" xlink:href="#m727e7a6cb9" y="301.774349"/>
     <use style="stroke:#000000;" x="594.405636" xlink:href="#m727e7a6cb9" y="282.746947"/>
     <use style="stroke:#000000;" x="597.892909" xlink:href="#m727e7a6cb9" y="214.132386"/>
     <use style="stroke:#000000;" x="601.380182" xlink:href="#m727e7a6cb9" y="207.32127"/>
     <use style="stroke:#000000;" x="604.867455" xlink:href="#m727e7a6cb9" y="226.445573"/>
     <use style="stroke:#000000;" x="608.354727" xlink:href="#m727e7a6cb9" y="237.206147"/>
     <use style="stroke:#000000;" x="611.842" xlink:href="#m727e7a6cb9" y="285.90658"/>
     <use style="stroke:#000000;" x="615.329273" xlink:href="#m727e7a6cb9" y="161.234382"/>
     <use style="stroke:#000000;" x="618.816545" xlink:href="#m727e7a6cb9" y="148.449435"/>
     <use style="stroke:#000000;" x="622.303818" xlink:href="#m727e7a6cb9" y="196.089016"/>
     <use style="stroke:#000000;" x="625.791091" xlink:href="#m727e7a6cb9" y="182.588197"/>
     <use style="stroke:#000000;" x="629.278364" xlink:href="#m727e7a6cb9" y="167.929028"/>
     <use style="stroke:#000000;" x="632.765636" xlink:href="#m727e7a6cb9" y="203.427947"/>
     <use style="stroke:#000000;" x="636.252909" xlink:href="#m727e7a6cb9" y="223.290464"/>
    </g>
   </g>
   <g id="line2d_43">
    <path clip-path="url(#pd8e8dd445d)" d="M 639.740182 233.178939 
L 643.227455 121.362703 
L 646.714727 281.149906 
L 650.202 222.323103 
L 653.689273 234.829055 
L 657.176545 200.747324 
L 660.663818 210.659642 
L 664.151091 220.832422 
L 667.638364 197.894741 
L 671.125636 251.181942 
L 674.612909 223.412744 
L 678.100182 190.267998 
L 681.587455 257.291299 
L 685.074727 206.503753 
L 688.562 284.603325 
L 692.049273 262.786589 
L 695.536545 284.361874 
L 699.023818 163.552793 
L 702.511091 191.997228 
L 705.998364 175.436096 
" style="fill:none;stroke:#bfbf00;stroke-linecap:square;stroke-width:1.5;"/>
   </g>
   <g id="line2d_44">
    <g clip-path="url(#pd8e8dd445d)">
     <use style="fill:#bfbf00;stroke:#bfbf00;" x="639.740182" xlink:href="#m40f65e5209" y="233.178939"/>
     <use style="fill:#bfbf00;stroke:#bfbf00;" x="643.227455" xlink:href="#m40f65e5209" y="121.362703"/>
     <use style="fill:#bfbf00;stroke:#bfbf00;" x="646.714727" xlink:href="#m40f65e5209" y="281.149906"/>
     <use style="fill:#bfbf00;stroke:#bfbf00;" x="650.202" xlink:href="#m40f65e5209" y="222.323103"/>
     <use style="fill:#bfbf00;stroke:#bfbf00;" x="653.689273" xlink:href="#m40f65e5209" y="234.829055"/>
     <use style="fill:#bfbf00;stroke:#bfbf00;" x="657.176545" xlink:href="#m40f65e5209" y="200.747324"/>
     <use style="fill:#bfbf00;stroke:#bfbf00;" x="660.663818" xlink:href="#m40f65e5209" y="210.659642"/>
     <use style="fill:#bfbf00;stroke:#bfbf00;" x="664.151091" xlink:href="#m40f65e5209" y="220.832422"/>
     <use style="fill:#bfbf00;stroke:#bfbf00;" x="667.638364" xlink:href="#m40f65e5209" y="197.894741"/>
     <use style="fill:#bfbf00;stroke:#bfbf00;" x="671.125636" xlink:href="#m40f65e5209" y="251.181942"/>
     <use style="fill:#bfbf00;stroke:#bfbf00;" x="674.612909" xlink:href="#m40f65e5209" y="223.412744"/>
     <use style="fill:#bfbf00;stroke:#bfbf00;" x="678.100182" xlink:href="#m40f65e5209" y="190.267998"/>
     <use style="fill:#bfbf00;stroke:#bfbf00;" x="681.587455" xlink:href="#m40f65e5209" y="257.291299"/>
     <use style="fill:#bfbf00;stroke:#bfbf00;" x="685.074727" xlink:href="#m40f65e5209" y="206.503753"/>
     <use style="fill:#bfbf00;stroke:#bfbf00;" x="688.562" xlink:href="#m40f65e5209" y="284.603325"/>
     <use style="fill:#bfbf00;stroke:#bfbf00;" x="692.049273" xlink:href="#m40f65e5209" y="262.786589"/>
     <use style="fill:#bfbf00;stroke:#bfbf00;" x="695.536545" xlink:href="#m40f65e5209" y="284.361874"/>
     <use style="fill:#bfbf00;stroke:#bfbf00;" x="699.023818" xlink:href="#m40f65e5209" y="163.552793"/>
     <use style="fill:#bfbf00;stroke:#bfbf00;" x="702.511091" xlink:href="#m40f65e5209" y="191.997228"/>
     <use style="fill:#bfbf00;stroke:#bfbf00;" x="705.998364" xlink:href="#m40f65e5209" y="175.436096"/>
    </g>
   </g>
   <g id="line2d_45">
    <path clip-path="url(#pd8e8dd445d)" d="M 709.485636 327.860183 
L 712.972909 175.717661 
L 716.460182 184.185911 
L 719.947455 235.371763 
L 723.434727 211.201598 
L 726.922 221.352856 
L 730.409273 347.24436 
L 733.896545 266.265118 
L 737.383818 297.804048 
L 740.871091 152.470185 
" style="fill:none;stroke:#0000ff;stroke-linecap:square;stroke-width:1.5;"/>
   </g>
   <g id="line2d_46">
    <g clip-path="url(#pd8e8dd445d)">
     <use style="fill:#0000ff;stroke:#0000ff;" x="709.485636" xlink:href="#m1b404d8353" y="327.860183"/>
     <use style="fill:#0000ff;stroke:#0000ff;" x="712.972909" xlink:href="#m1b404d8353" y="175.717661"/>
     <use style="fill:#0000ff;stroke:#0000ff;" x="716.460182" xlink:href="#m1b404d8353" y="184.185911"/>
     <use style="fill:#0000ff;stroke:#0000ff;" x="719.947455" xlink:href="#m1b404d8353" y="235.371763"/>
     <use style="fill:#0000ff;stroke:#0000ff;" x="723.434727" xlink:href="#m1b404d8353" y="211.201598"/>
     <use style="fill:#0000ff;stroke:#0000ff;" x="726.922" xlink:href="#m1b404d8353" y="221.352856"/>
     <use style="fill:#0000ff;stroke:#0000ff;" x="730.409273" xlink:href="#m1b404d8353" y="347.24436"/>
     <use style="fill:#0000ff;stroke:#0000ff;" x="733.896545" xlink:href="#m1b404d8353" y="266.265118"/>
     <use style="fill:#0000ff;stroke:#0000ff;" x="737.383818" xlink:href="#m1b404d8353" y="297.804048"/>
     <use style="fill:#0000ff;stroke:#0000ff;" x="740.871091" xlink:href="#m1b404d8353" y="152.470185"/>
    </g>
   </g>
   <g id="line2d_47">
    <path clip-path="url(#pd8e8dd445d)" d="M 744.358364 138.666118 
L 747.845636 292.620003 
L 751.332909 186.268048 
L 754.820182 198.421355 
L 758.307455 204.301178 
L 761.794727 214.020358 
L 765.282 247.698732 
L 768.769273 213.128776 
L 772.256545 253.789775 
L 775.743818 210.203533 
" style="fill:none;stroke:#008000;stroke-linecap:square;stroke-width:1.5;"/>
   </g>
   <g id="line2d_48">
    <g clip-path="url(#pd8e8dd445d)">
     <use style="fill:#008000;stroke:#008000;" x="744.358364" xlink:href="#m7a1a9ceee6" y="138.666118"/>
     <use style="fill:#008000;stroke:#008000;" x="747.845636" xlink:href="#m7a1a9ceee6" y="292.620003"/>
     <use style="fill:#008000;stroke:#008000;" x="751.332909" xlink:href="#m7a1a9ceee6" y="186.268048"/>
     <use style="fill:#008000;stroke:#008000;" x="754.820182" xlink:href="#m7a1a9ceee6" y="198.421355"/>
     <use style="fill:#008000;stroke:#008000;" x="758.307455" xlink:href="#m7a1a9ceee6" y="204.301178"/>
     <use style="fill:#008000;stroke:#008000;" x="761.794727" xlink:href="#m7a1a9ceee6" y="214.020358"/>
     <use style="fill:#008000;stroke:#008000;" x="765.282" xlink:href="#m7a1a9ceee6" y="247.698732"/>
     <use style="fill:#008000;stroke:#008000;" x="768.769273" xlink:href="#m7a1a9ceee6" y="213.128776"/>
     <use style="fill:#008000;stroke:#008000;" x="772.256545" xlink:href="#m7a1a9ceee6" y="253.789775"/>
     <use style="fill:#008000;stroke:#008000;" x="775.743818" xlink:href="#m7a1a9ceee6" y="210.203533"/>
    </g>
   </g>
   <g id="line2d_49">
    <path clip-path="url(#pd8e8dd445d)" d="M 779.231091 177.622964 
L 782.718364 234.409625 
L 786.205636 232.310638 
L 789.692909 299.961045 
L 793.180182 173.818177 
L 796.667455 200.733317 
L 800.154727 313.392358 
L 803.642 221.184521 
L 807.129273 263.439402 
L 810.616545 260.88035 
" style="fill:none;stroke:#ff0000;stroke-linecap:square;stroke-width:1.5;"/>
   </g>
   <g id="line2d_50">
    <g clip-path="url(#pd8e8dd445d)">
     <use style="fill:#ff0000;stroke:#ff0000;" x="779.231091" xlink:href="#m8b1c154c5b" y="177.622964"/>
     <use style="fill:#ff0000;stroke:#ff0000;" x="782.718364" xlink:href="#m8b1c154c5b" y="234.409625"/>
     <use style="fill:#ff0000;stroke:#ff0000;" x="786.205636" xlink:href="#m8b1c154c5b" y="232.310638"/>
     <use style="fill:#ff0000;stroke:#ff0000;" x="789.692909" xlink:href="#m8b1c154c5b" y="299.961045"/>
     <use style="fill:#ff0000;stroke:#ff0000;" x="793.180182" xlink:href="#m8b1c154c5b" y="173.818177"/>
     <use style="fill:#ff0000;stroke:#ff0000;" x="796.667455" xlink:href="#m8b1c154c5b" y="200.733317"/>
     <use style="fill:#ff0000;stroke:#ff0000;" x="800.154727" xlink:href="#m8b1c154c5b" y="313.392358"/>
     <use style="fill:#ff0000;stroke:#ff0000;" x="803.642" xlink:href="#m8b1c154c5b" y="221.184521"/>
     <use style="fill:#ff0000;stroke:#ff0000;" x="807.129273" xlink:href="#m8b1c154c5b" y="263.439402"/>
     <use style="fill:#ff0000;stroke:#ff0000;" x="810.616545" xlink:href="#m8b1c154c5b" y="260.88035"/>
    </g>
   </g>
   <g id="line2d_51">
    <path clip-path="url(#pd8e8dd445d)" d="M 814.103818 153.364195 
L 817.591091 239.651969 
L 821.078364 256.182291 
L 824.565636 261.308542 
L 828.052909 248.873915 
L 831.540182 206.987891 
L 835.027455 177.802101 
L 838.514727 289.132992 
L 842.002 186.97985 
L 845.489273 239.708361 
" style="fill:none;stroke:#000000;stroke-linecap:square;stroke-width:1.5;"/>
   </g>
   <g id="line2d_52">
    <g clip-path="url(#pd8e8dd445d)">
     <use style="stroke:#000000;" x="814.103818" xlink:href="#m727e7a6cb9" y="153.364195"/>
     <use style="stroke:#000000;" x="817.591091" xlink:href="#m727e7a6cb9" y="239.651969"/>
     <use style="stroke:#000000;" x="821.078364" xlink:href="#m727e7a6cb9" y="256.182291"/>
     <use style="stroke:#000000;" x="824.565636" xlink:href="#m727e7a6cb9" y="261.308542"/>
     <use style="stroke:#000000;" x="828.052909" xlink:href="#m727e7a6cb9" y="248.873915"/>
     <use style="stroke:#000000;" x="831.540182" xlink:href="#m727e7a6cb9" y="206.987891"/>
     <use style="stroke:#000000;" x="835.027455" xlink:href="#m727e7a6cb9" y="177.802101"/>
     <use style="stroke:#000000;" x="838.514727" xlink:href="#m727e7a6cb9" y="289.132992"/>
     <use style="stroke:#000000;" x="842.002" xlink:href="#m727e7a6cb9" y="186.97985"/>
     <use style="stroke:#000000;" x="845.489273" xlink:href="#m727e7a6cb9" y="239.708361"/>
    </g>
   </g>
   <g id="line2d_53">
    <path clip-path="url(#pd8e8dd445d)" d="M 848.976545 260.16324 
L 852.463818 239.89265 
L 855.951091 167.623773 
L 859.438364 297.663013 
L 862.925636 239.313561 
L 866.412909 250.227734 
L 869.900182 198.170838 
L 873.387455 296.622362 
L 876.874727 202.424925 
L 880.362 225.804252 
L 883.849273 247.064939 
L 887.336545 198.392923 
L 890.823818 272.107996 
L 894.311091 191.444765 
L 897.798364 215.750253 
L 901.285636 176.122384 
L 904.772909 342.23146 
L 908.260182 145.89625 
L 911.747455 255.62362 
L 915.234727 246.450991 
" style="fill:none;stroke:#bfbf00;stroke-linecap:square;stroke-width:1.5;"/>
   </g>
   <g id="line2d_54">
    <g clip-path="url(#pd8e8dd445d)">
     <use style="fill:#bfbf00;stroke:#bfbf00;" x="848.976545" xlink:href="#m40f65e5209" y="260.16324"/>
     <use style="fill:#bfbf00;stroke:#bfbf00;" x="852.463818" xlink:href="#m40f65e5209" y="239.89265"/>
     <use style="fill:#bfbf00;stroke:#bfbf00;" x="855.951091" xlink:href="#m40f65e5209" y="167.623773"/>
     <use style="fill:#bfbf00;stroke:#bfbf00;" x="859.438364" xlink:href="#m40f65e5209" y="297.663013"/>
     <use style="fill:#bfbf00;stroke:#bfbf00;" x="862.925636" xlink:href="#m40f65e5209" y="239.313561"/>
     <use style="fill:#bfbf00;stroke:#bfbf00;" x="866.412909" xlink:href="#m40f65e5209" y="250.227734"/>
     <use style="fill:#bfbf00;stroke:#bfbf00;" x="869.900182" xlink:href="#m40f65e5209" y="198.170838"/>
     <use style="fill:#bfbf00;stroke:#bfbf00;" x="873.387455" xlink:href="#m40f65e5209" y="296.622362"/>
     <use style="fill:#bfbf00;stroke:#bfbf00;" x="876.874727" xlink:href="#m40f65e5209" y="202.424925"/>
     <use style="fill:#bfbf00;stroke:#bfbf00;" x="880.362" xlink:href="#m40f65e5209" y="225.804252"/>
     <use style="fill:#bfbf00;stroke:#bfbf00;" x="883.849273" xlink:href="#m40f65e5209" y="247.064939"/>
     <use style="fill:#bfbf00;stroke:#bfbf00;" x="887.336545" xlink:href="#m40f65e5209" y="198.392923"/>
     <use style="fill:#bfbf00;stroke:#bfbf00;" x="890.823818" xlink:href="#m40f65e5209" y="272.107996"/>
     <use style="fill:#bfbf00;stroke:#bfbf00;" x="894.311091" xlink:href="#m40f65e5209" y="191.444765"/>
     <use style="fill:#bfbf00;stroke:#bfbf00;" x="897.798364" xlink:href="#m40f65e5209" y="215.750253"/>
     <use style="fill:#bfbf00;stroke:#bfbf00;" x="901.285636" xlink:href="#m40f65e5209" y="176.122384"/>
     <use style="fill:#bfbf00;stroke:#bfbf00;" x="904.772909" xlink:href="#m40f65e5209" y="342.23146"/>
     <use style="fill:#bfbf00;stroke:#bfbf00;" x="908.260182" xlink:href="#m40f65e5209" y="145.89625"/>
     <use style="fill:#bfbf00;stroke:#bfbf00;" x="911.747455" xlink:href="#m40f65e5209" y="255.62362"/>
     <use style="fill:#bfbf00;stroke:#bfbf00;" x="915.234727" xlink:href="#m40f65e5209" y="246.450991"/>
    </g>
   </g>
   <g id="line2d_55">
    <path clip-path="url(#pd8e8dd445d)" d="M 918.722 285.796936 
L 922.209273 196.370713 
L 925.696545 125.465437 
L 929.183818 270.686686 
L 932.671091 228.810653 
L 936.158364 153.541717 
L 939.645636 178.012758 
L 943.132909 194.544072 
L 946.620182 246.983844 
L 950.107455 180.869256 
L 953.594727 159.30776 
L 957.082 192.683016 
L 960.569273 248.643641 
L 964.056545 181.959407 
L 967.543818 215.446982 
L 971.031091 187.098273 
L 974.518364 137.524268 
L 978.005636 224.296706 
L 981.492909 120.108294 
L 984.980182 157.943435 
" style="fill:none;stroke:#0000ff;stroke-linecap:square;stroke-width:1.5;"/>
   </g>
   <g id="line2d_56">
    <g clip-path="url(#pd8e8dd445d)">
     <use style="fill:#0000ff;stroke:#0000ff;" x="918.722" xlink:href="#m1b404d8353" y="285.796936"/>
     <use style="fill:#0000ff;stroke:#0000ff;" x="922.209273" xlink:href="#m1b404d8353" y="196.370713"/>
     <use style="fill:#0000ff;stroke:#0000ff;" x="925.696545" xlink:href="#m1b404d8353" y="125.465437"/>
     <use style="fill:#0000ff;stroke:#0000ff;" x="929.183818" xlink:href="#m1b404d8353" y="270.686686"/>
     <use style="fill:#0000ff;stroke:#0000ff;" x="932.671091" xlink:href="#m1b404d8353" y="228.810653"/>
     <use style="fill:#0000ff;stroke:#0000ff;" x="936.158364" xlink:href="#m1b404d8353" y="153.541717"/>
     <use style="fill:#0000ff;stroke:#0000ff;" x="939.645636" xlink:href="#m1b404d8353" y="178.012758"/>
     <use style="fill:#0000ff;stroke:#0000ff;" x="943.132909" xlink:href="#m1b404d8353" y="194.544072"/>
     <use style="fill:#0000ff;stroke:#0000ff;" x="946.620182" xlink:href="#m1b404d8353" y="246.983844"/>
     <use style="fill:#0000ff;stroke:#0000ff;" x="950.107455" xlink:href="#m1b404d8353" y="180.869256"/>
     <use style="fill:#0000ff;stroke:#0000ff;" x="953.594727" xlink:href="#m1b404d8353" y="159.30776"/>
     <use style="fill:#0000ff;stroke:#0000ff;" x="957.082" xlink:href="#m1b404d8353" y="192.683016"/>
     <use style="fill:#0000ff;stroke:#0000ff;" x="960.569273" xlink:href="#m1b404d8353" y="248.643641"/>
     <use style="fill:#0000ff;stroke:#0000ff;" x="964.056545" xlink:href="#m1b404d8353" y="181.959407"/>
     <use style="fill:#0000ff;stroke:#0000ff;" x="967.543818" xlink:href="#m1b404d8353" y="215.446982"/>
     <use style="fill:#0000ff;stroke:#0000ff;" x="971.031091" xlink:href="#m1b404d8353" y="187.098273"/>
     <use style="fill:#0000ff;stroke:#0000ff;" x="974.518364" xlink:href="#m1b404d8353" y="137.524268"/>
     <use style="fill:#0000ff;stroke:#0000ff;" x="978.005636" xlink:href="#m1b404d8353" y="224.296706"/>
     <use style="fill:#0000ff;stroke:#0000ff;" x="981.492909" xlink:href="#m1b404d8353" y="120.108294"/>
     <use style="fill:#0000ff;stroke:#0000ff;" x="984.980182" xlink:href="#m1b404d8353" y="157.943435"/>
    </g>
   </g>
   <g id="line2d_57">
    <path clip-path="url(#pd8e8dd445d)" d="M 988.467455 276.161778 
L 991.954727 222.04434 
L 995.442 257.493512 
L 998.929273 157.06463 
L 1002.416545 180.713 
L 1005.903818 176.346315 
L 1009.391091 90.347995 
L 1012.878364 181.336112 
L 1016.365636 179.880461 
L 1019.852909 178.501323 
" style="fill:none;stroke:#008000;stroke-linecap:square;stroke-width:1.5;"/>
   </g>
   <g id="line2d_58">
    <g clip-path="url(#pd8e8dd445d)">
     <use style="fill:#008000;stroke:#008000;" x="988.467455" xlink:href="#m7a1a9ceee6" y="276.161778"/>
     <use style="fill:#008000;stroke:#008000;" x="991.954727" xlink:href="#m7a1a9ceee6" y="222.04434"/>
     <use style="fill:#008000;stroke:#008000;" x="995.442" xlink:href="#m7a1a9ceee6" y="257.493512"/>
     <use style="fill:#008000;stroke:#008000;" x="998.929273" xlink:href="#m7a1a9ceee6" y="157.06463"/>
     <use style="fill:#008000;stroke:#008000;" x="1002.416545" xlink:href="#m7a1a9ceee6" y="180.713"/>
     <use style="fill:#008000;stroke:#008000;" x="1005.903818" xlink:href="#m7a1a9ceee6" y="176.346315"/>
     <use style="fill:#008000;stroke:#008000;" x="1009.391091" xlink:href="#m7a1a9ceee6" y="90.347995"/>
     <use style="fill:#008000;stroke:#008000;" x="1012.878364" xlink:href="#m7a1a9ceee6" y="181.336112"/>
     <use style="fill:#008000;stroke:#008000;" x="1016.365636" xlink:href="#m7a1a9ceee6" y="179.880461"/>
     <use style="fill:#008000;stroke:#008000;" x="1019.852909" xlink:href="#m7a1a9ceee6" y="178.501323"/>
    </g>
   </g>
   <g id="line2d_59">
    <path clip-path="url(#pd8e8dd445d)" d="M 1023.340182 238.907345 
L 1026.827455 170.608494 
L 1030.314727 192.013266 
L 1033.802 251.754747 
L 1037.289273 216.718813 
L 1040.776545 235.514572 
L 1044.263818 248.253636 
L 1047.751091 177.057287 
L 1051.238364 188.443883 
L 1054.725636 260.330155 
" style="fill:none;stroke:#ff0000;stroke-linecap:square;stroke-width:1.5;"/>
   </g>
   <g id="line2d_60">
    <g clip-path="url(#pd8e8dd445d)">
     <use style="fill:#ff0000;stroke:#ff0000;" x="1023.340182" xlink:href="#m8b1c154c5b" y="238.907345"/>
     <use style="fill:#ff0000;stroke:#ff0000;" x="1026.827455" xlink:href="#m8b1c154c5b" y="170.608494"/>
     <use style="fill:#ff0000;stroke:#ff0000;" x="1030.314727" xlink:href="#m8b1c154c5b" y="192.013266"/>
     <use style="fill:#ff0000;stroke:#ff0000;" x="1033.802" xlink:href="#m8b1c154c5b" y="251.754747"/>
     <use style="fill:#ff0000;stroke:#ff0000;" x="1037.289273" xlink:href="#m8b1c154c5b" y="216.718813"/>
     <use style="fill:#ff0000;stroke:#ff0000;" x="1040.776545" xlink:href="#m8b1c154c5b" y="235.514572"/>
     <use style="fill:#ff0000;stroke:#ff0000;" x="1044.263818" xlink:href="#m8b1c154c5b" y="248.253636"/>
     <use style="fill:#ff0000;stroke:#ff0000;" x="1047.751091" xlink:href="#m8b1c154c5b" y="177.057287"/>
     <use style="fill:#ff0000;stroke:#ff0000;" x="1051.238364" xlink:href="#m8b1c154c5b" y="188.443883"/>
     <use style="fill:#ff0000;stroke:#ff0000;" x="1054.725636" xlink:href="#m8b1c154c5b" y="260.330155"/>
    </g>
   </g>
   <g id="line2d_61">
    <path clip-path="url(#pd8e8dd445d)" d="M 1058.212909 227.765884 
L 1061.700182 150.653413 
L 1065.187455 268.519231 
L 1068.674727 259.642141 
L 1072.162 266.318718 
L 1075.649273 212.492718 
L 1079.136545 237.335032 
L 1082.623818 230.254776 
L 1086.111091 187.464812 
L 1089.598364 203.896669 
" style="fill:none;stroke:#000000;stroke-linecap:square;stroke-width:1.5;"/>
   </g>
   <g id="line2d_62">
    <g clip-path="url(#pd8e8dd445d)">
     <use style="stroke:#000000;" x="1058.212909" xlink:href="#m727e7a6cb9" y="227.765884"/>
     <use style="stroke:#000000;" x="1061.700182" xlink:href="#m727e7a6cb9" y="150.653413"/>
     <use style="stroke:#000000;" x="1065.187455" xlink:href="#m727e7a6cb9" y="268.519231"/>
     <use style="stroke:#000000;" x="1068.674727" xlink:href="#m727e7a6cb9" y="259.642141"/>
     <use style="stroke:#000000;" x="1072.162" xlink:href="#m727e7a6cb9" y="266.318718"/>
     <use style="stroke:#000000;" x="1075.649273" xlink:href="#m727e7a6cb9" y="212.492718"/>
     <use style="stroke:#000000;" x="1079.136545" xlink:href="#m727e7a6cb9" y="237.335032"/>
     <use style="stroke:#000000;" x="1082.623818" xlink:href="#m727e7a6cb9" y="230.254776"/>
     <use style="stroke:#000000;" x="1086.111091" xlink:href="#m727e7a6cb9" y="187.464812"/>
     <use style="stroke:#000000;" x="1089.598364" xlink:href="#m727e7a6cb9" y="203.896669"/>
    </g>
   </g>
   <g id="line2d_63">
    <path clip-path="url(#pd8e8dd445d)" d="M 1093.085636 239.72342 
L 1096.572909 270.864426 
L 1100.060182 170.966119 
L 1103.547455 254.138545 
L 1107.034727 208.146471 
L 1110.522 290.016191 
L 1114.009273 172.681198 
L 1117.496545 274.051606 
L 1120.983818 141.40416 
L 1124.471091 235.440652 
L 1127.958364 196.868131 
L 1131.445636 238.656322 
L 1134.932909 186.276346 
L 1138.420182 312.853246 
L 1141.907455 250.239302 
L 1145.394727 187.211665 
L 1148.882 212.16968 
L 1152.369273 259.636609 
L 1155.856545 313.312419 
L 1159.343818 191.25582 
" style="fill:none;stroke:#bfbf00;stroke-linecap:square;stroke-width:1.5;"/>
   </g>
   <g id="line2d_64">
    <g clip-path="url(#pd8e8dd445d)">
     <use style="fill:#bfbf00;stroke:#bfbf00;" x="1093.085636" xlink:href="#m40f65e5209" y="239.72342"/>
     <use style="fill:#bfbf00;stroke:#bfbf00;" x="1096.572909" xlink:href="#m40f65e5209" y="270.864426"/>
     <use style="fill:#bfbf00;stroke:#bfbf00;" x="1100.060182" xlink:href="#m40f65e5209" y="170.966119"/>
     <use style="fill:#bfbf00;stroke:#bfbf00;" x="1103.547455" xlink:href="#m40f65e5209" y="254.138545"/>
     <use style="fill:#bfbf00;stroke:#bfbf00;" x="1107.034727" xlink:href="#m40f65e5209" y="208.146471"/>
     <use style="fill:#bfbf00;stroke:#bfbf00;" x="1110.522" xlink:href="#m40f65e5209" y="290.016191"/>
     <use style="fill:#bfbf00;stroke:#bfbf00;" x="1114.009273" xlink:href="#m40f65e5209" y="172.681198"/>
     <use style="fill:#bfbf00;stroke:#bfbf00;" x="1117.496545" xlink:href="#m40f65e5209" y="274.051606"/>
     <use style="fill:#bfbf00;stroke:#bfbf00;" x="1120.983818" xlink:href="#m40f65e5209" y="141.40416"/>
     <use style="fill:#bfbf00;stroke:#bfbf00;" x="1124.471091" xlink:href="#m40f65e5209" y="235.440652"/>
     <use style="fill:#bfbf00;stroke:#bfbf00;" x="1127.958364" xlink:href="#m40f65e5209" y="196.868131"/>
     <use style="fill:#bfbf00;stroke:#bfbf00;" x="1131.445636" xlink:href="#m40f65e5209" y="238.656322"/>
     <use style="fill:#bfbf00;stroke:#bfbf00;" x="1134.932909" xlink:href="#m40f65e5209" y="186.276346"/>
     <use style="fill:#bfbf00;stroke:#bfbf00;" x="1138.420182" xlink:href="#m40f65e5209" y="312.853246"/>
     <use style="fill:#bfbf00;stroke:#bfbf00;" x="1141.907455" xlink:href="#m40f65e5209" y="250.239302"/>
     <use style="fill:#bfbf00;stroke:#bfbf00;" x="1145.394727" xlink:href="#m40f65e5209" y="187.211665"/>
     <use style="fill:#bfbf00;stroke:#bfbf00;" x="1148.882" xlink:href="#m40f65e5209" y="212.16968"/>
     <use style="fill:#bfbf00;stroke:#bfbf00;" x="1152.369273" xlink:href="#m40f65e5209" y="259.636609"/>
     <use style="fill:#bfbf00;stroke:#bfbf00;" x="1155.856545" xlink:href="#m40f65e5209" y="313.312419"/>
     <use style="fill:#bfbf00;stroke:#bfbf00;" x="1159.343818" xlink:href="#m40f65e5209" y="191.25582"/>
    </g>
   </g>
   <g id="line2d_65">
    <path clip-path="url(#pd8e8dd445d)" d="M 1162.831091 214.610503 
L 1166.318364 239.903688 
L 1169.805636 241.401951 
L 1173.292909 251.106827 
L 1176.780182 276.681471 
L 1180.267455 342.59838 
L 1183.754727 247.621424 
L 1187.242 263.581429 
L 1190.729273 265.330814 
L 1194.216545 269.245079 
" style="fill:none;stroke:#0000ff;stroke-linecap:square;stroke-width:1.5;"/>
   </g>
   <g id="line2d_66">
    <g clip-path="url(#pd8e8dd445d)">
     <use style="fill:#0000ff;stroke:#0000ff;" x="1162.831091" xlink:href="#m1b404d8353" y="214.610503"/>
     <use style="fill:#0000ff;stroke:#0000ff;" x="1166.318364" xlink:href="#m1b404d8353" y="239.903688"/>
     <use style="fill:#0000ff;stroke:#0000ff;" x="1169.805636" xlink:href="#m1b404d8353" y="241.401951"/>
     <use style="fill:#0000ff;stroke:#0000ff;" x="1173.292909" xlink:href="#m1b404d8353" y="251.106827"/>
     <use style="fill:#0000ff;stroke:#0000ff;" x="1176.780182" xlink:href="#m1b404d8353" y="276.681471"/>
     <use style="fill:#0000ff;stroke:#0000ff;" x="1180.267455" xlink:href="#m1b404d8353" y="342.59838"/>
     <use style="fill:#0000ff;stroke:#0000ff;" x="1183.754727" xlink:href="#m1b404d8353" y="247.621424"/>
     <use style="fill:#0000ff;stroke:#0000ff;" x="1187.242" xlink:href="#m1b404d8353" y="263.581429"/>
     <use style="fill:#0000ff;stroke:#0000ff;" x="1190.729273" xlink:href="#m1b404d8353" y="265.330814"/>
     <use style="fill:#0000ff;stroke:#0000ff;" x="1194.216545" xlink:href="#m1b404d8353" y="269.245079"/>
    </g>
   </g>
   <g id="patch_3">
    <path d="M 172.62 370.3824 
L 172.62 49.9392 
" style="fill:none;stroke:#000000;stroke-linecap:square;stroke-linejoin:miter;stroke-width:0.8;"/>
   </g>
   <g id="patch_4">
    <path d="M 1242.864 370.3824 
L 1242.864 49.9392 
" style="fill:none;stroke:#000000;stroke-linecap:square;stroke-linejoin:miter;stroke-width:0.8;"/>
   </g>
   <g id="patch_5">
    <path d="M 172.62 370.3824 
L 1242.864 370.3824 
" style="fill:none;stroke:#000000;stroke-linecap:square;stroke-linejoin:miter;stroke-width:0.8;"/>
   </g>
   <g id="patch_6">
    <path d="M 172.62 49.9392 
L 1242.864 49.9392 
" style="fill:none;stroke:#000000;stroke-linecap:square;stroke-linejoin:miter;stroke-width:0.8;"/>
   </g>
   <g id="text_15">
    <!-- Vertical Magnetic Center of S15 Magnets -->
    <defs>
     <path d="M 28.609375 0 
L 0.78125 72.90625 
L 11.078125 72.90625 
L 34.1875 11.53125 
L 57.328125 72.90625 
L 67.578125 72.90625 
L 39.796875 0 
z
" id="DejaVuSans-86"/>
     <path d="M 41.109375 46.296875 
Q 39.59375 47.171875 37.8125 47.578125 
Q 36.03125 48 33.890625 48 
Q 26.265625 48 22.1875 43.046875 
Q 18.109375 38.09375 18.109375 28.8125 
L 18.109375 0 
L 9.078125 0 
L 9.078125 54.6875 
L 18.109375 54.6875 
L 18.109375 46.1875 
Q 20.953125 51.171875 25.484375 53.578125 
Q 30.03125 56 36.53125 56 
Q 37.453125 56 38.578125 55.875 
Q 39.703125 55.765625 41.0625 55.515625 
z
" id="DejaVuSans-114"/>
     <path d="M 9.421875 54.6875 
L 18.40625 54.6875 
L 18.40625 0 
L 9.421875 0 
z
M 9.421875 75.984375 
L 18.40625 75.984375 
L 18.40625 64.59375 
L 9.421875 64.59375 
z
" id="DejaVuSans-105"/>
     <path d="M 48.78125 52.59375 
L 48.78125 44.1875 
Q 44.96875 46.296875 41.140625 47.34375 
Q 37.3125 48.390625 33.40625 48.390625 
Q 24.65625 48.390625 19.8125 42.84375 
Q 14.984375 37.3125 14.984375 27.296875 
Q 14.984375 17.28125 19.8125 11.734375 
Q 24.65625 6.203125 33.40625 6.203125 
Q 37.3125 6.203125 41.140625 7.25 
Q 44.96875 8.296875 48.78125 10.40625 
L 48.78125 2.09375 
Q 45.015625 0.34375 40.984375 -0.53125 
Q 36.96875 -1.421875 32.421875 -1.421875 
Q 20.0625 -1.421875 12.78125 6.34375 
Q 5.515625 14.109375 5.515625 27.296875 
Q 5.515625 40.671875 12.859375 48.328125 
Q 20.21875 56 33.015625 56 
Q 37.15625 56 41.109375 55.140625 
Q 45.0625 54.296875 48.78125 52.59375 
z
" id="DejaVuSans-99"/>
     <path d="M 9.421875 75.984375 
L 18.40625 75.984375 
L 18.40625 0 
L 9.421875 0 
z
" id="DejaVuSans-108"/>
     <path d="M 64.40625 67.28125 
L 64.40625 56.890625 
Q 59.421875 61.53125 53.78125 63.8125 
Q 48.140625 66.109375 41.796875 66.109375 
Q 29.296875 66.109375 22.65625 58.46875 
Q 16.015625 50.828125 16.015625 36.375 
Q 16.015625 21.96875 22.65625 14.328125 
Q 29.296875 6.6875 41.796875 6.6875 
Q 48.140625 6.6875 53.78125 8.984375 
Q 59.421875 11.28125 64.40625 15.921875 
L 64.40625 5.609375 
Q 59.234375 2.09375 53.4375 0.328125 
Q 47.65625 -1.421875 41.21875 -1.421875 
Q 24.65625 -1.421875 15.125 8.703125 
Q 5.609375 18.84375 5.609375 36.375 
Q 5.609375 53.953125 15.125 64.078125 
Q 24.65625 74.21875 41.21875 74.21875 
Q 47.75 74.21875 53.53125 72.484375 
Q 59.328125 70.75 64.40625 67.28125 
z
" id="DejaVuSans-67"/>
     <path d="M 30.609375 48.390625 
Q 23.390625 48.390625 19.1875 42.75 
Q 14.984375 37.109375 14.984375 27.296875 
Q 14.984375 17.484375 19.15625 11.84375 
Q 23.34375 6.203125 30.609375 6.203125 
Q 37.796875 6.203125 41.984375 11.859375 
Q 46.1875 17.53125 46.1875 27.296875 
Q 46.1875 37.015625 41.984375 42.703125 
Q 37.796875 48.390625 30.609375 48.390625 
z
M 30.609375 56 
Q 42.328125 56 49.015625 48.375 
Q 55.71875 40.765625 55.71875 27.296875 
Q 55.71875 13.875 49.015625 6.21875 
Q 42.328125 -1.421875 30.609375 -1.421875 
Q 18.84375 -1.421875 12.171875 6.21875 
Q 5.515625 13.875 5.515625 27.296875 
Q 5.515625 40.765625 12.171875 48.375 
Q 18.84375 56 30.609375 56 
z
" id="DejaVuSans-111"/>
     <path d="M 37.109375 75.984375 
L 37.109375 68.5 
L 28.515625 68.5 
Q 23.6875 68.5 21.796875 66.546875 
Q 19.921875 64.59375 19.921875 59.515625 
L 19.921875 54.6875 
L 34.71875 54.6875 
L 34.71875 47.703125 
L 19.921875 47.703125 
L 19.921875 0 
L 10.890625 0 
L 10.890625 47.703125 
L 2.296875 47.703125 
L 2.296875 54.6875 
L 10.890625 54.6875 
L 10.890625 58.5 
Q 10.890625 67.625 15.140625 71.796875 
Q 19.390625 75.984375 28.609375 75.984375 
z
" id="DejaVuSans-102"/>
     <path d="M 53.515625 70.515625 
L 53.515625 60.890625 
Q 47.90625 63.578125 42.921875 64.890625 
Q 37.9375 66.21875 33.296875 66.21875 
Q 25.25 66.21875 20.875 63.09375 
Q 16.5 59.96875 16.5 54.203125 
Q 16.5 49.359375 19.40625 46.890625 
Q 22.3125 44.4375 30.421875 42.921875 
L 36.375 41.703125 
Q 47.40625 39.59375 52.65625 34.296875 
Q 57.90625 29 57.90625 20.125 
Q 57.90625 9.515625 50.796875 4.046875 
Q 43.703125 -1.421875 29.984375 -1.421875 
Q 24.8125 -1.421875 18.96875 -0.25 
Q 13.140625 0.921875 6.890625 3.21875 
L 6.890625 13.375 
Q 12.890625 10.015625 18.65625 8.296875 
Q 24.421875 6.59375 29.984375 6.59375 
Q 38.421875 6.59375 43.015625 9.90625 
Q 47.609375 13.234375 47.609375 19.390625 
Q 47.609375 24.75 44.3125 27.78125 
Q 41.015625 30.8125 33.5 32.328125 
L 27.484375 33.5 
Q 16.453125 35.6875 11.515625 40.375 
Q 6.59375 45.0625 6.59375 53.421875 
Q 6.59375 63.09375 13.40625 68.65625 
Q 20.21875 74.21875 32.171875 74.21875 
Q 37.3125 74.21875 42.625 73.28125 
Q 47.953125 72.359375 53.515625 70.515625 
z
" id="DejaVuSans-83"/>
     <path d="M 44.28125 53.078125 
L 44.28125 44.578125 
Q 40.484375 46.53125 36.375 47.5 
Q 32.28125 48.484375 27.875 48.484375 
Q 21.1875 48.484375 17.84375 46.4375 
Q 14.5 44.390625 14.5 40.28125 
Q 14.5 37.15625 16.890625 35.375 
Q 19.28125 33.59375 26.515625 31.984375 
L 29.59375 31.296875 
Q 39.15625 29.25 43.1875 25.515625 
Q 47.21875 21.78125 47.21875 15.09375 
Q 47.21875 7.46875 41.1875 3.015625 
Q 35.15625 -1.421875 24.609375 -1.421875 
Q 20.21875 -1.421875 15.453125 -0.5625 
Q 10.6875 0.296875 5.421875 2 
L 5.421875 11.28125 
Q 10.40625 8.6875 15.234375 7.390625 
Q 20.0625 6.109375 24.8125 6.109375 
Q 31.15625 6.109375 34.5625 8.28125 
Q 37.984375 10.453125 37.984375 14.40625 
Q 37.984375 18.0625 35.515625 20.015625 
Q 33.0625 21.96875 24.703125 23.78125 
L 21.578125 24.515625 
Q 13.234375 26.265625 9.515625 29.90625 
Q 5.8125 33.546875 5.8125 39.890625 
Q 5.8125 47.609375 11.28125 51.796875 
Q 16.75 56 26.8125 56 
Q 31.78125 56 36.171875 55.265625 
Q 40.578125 54.546875 44.28125 53.078125 
z
" id="DejaVuSans-115"/>
    </defs>
    <g transform="translate(584.757 43.9392)scale(0.12 -0.12)">
     <use xlink:href="#DejaVuSans-86"/>
     <use x="68.298828" xlink:href="#DejaVuSans-101"/>
     <use x="129.822266" xlink:href="#DejaVuSans-114"/>
     <use x="170.935547" xlink:href="#DejaVuSans-116"/>
     <use x="210.144531" xlink:href="#DejaVuSans-105"/>
     <use x="237.927734" xlink:href="#DejaVuSans-99"/>
     <use x="292.908203" xlink:href="#DejaVuSans-97"/>
     <use x="354.1875" xlink:href="#DejaVuSans-108"/>
     <use x="381.970703" xlink:href="#DejaVuSans-32"/>
     <use x="413.757812" xlink:href="#DejaVuSans-77"/>
     <use x="500.037109" xlink:href="#DejaVuSans-97"/>
     <use x="561.316406" xlink:href="#DejaVuSans-103"/>
     <use x="624.792969" xlink:href="#DejaVuSans-110"/>
     <use x="688.171875" xlink:href="#DejaVuSans-101"/>
     <use x="749.695312" xlink:href="#DejaVuSans-116"/>
     <use x="788.904297" xlink:href="#DejaVuSans-105"/>
     <use x="816.6875" xlink:href="#DejaVuSans-99"/>
     <use x="871.667969" xlink:href="#DejaVuSans-32"/>
     <use x="903.455078" xlink:href="#DejaVuSans-67"/>
     <use x="973.279297" xlink:href="#DejaVuSans-101"/>
     <use x="1034.802734" xlink:href="#DejaVuSans-110"/>
     <use x="1098.181641" xlink:href="#DejaVuSans-116"/>
     <use x="1137.390625" xlink:href="#DejaVuSans-101"/>
     <use x="1198.914062" xlink:href="#DejaVuSans-114"/>
     <use x="1240.027344" xlink:href="#DejaVuSans-32"/>
     <use x="1271.814453" xlink:href="#DejaVuSans-111"/>
     <use x="1332.996094" xlink:href="#DejaVuSans-102"/>
     <use x="1368.201172" xlink:href="#DejaVuSans-32"/>
     <use x="1399.988281" xlink:href="#DejaVuSans-83"/>
     <use x="1463.464844" xlink:href="#DejaVuSans-49"/>
     <use x="1527.087891" xlink:href="#DejaVuSans-53"/>
     <use x="1590.710938" xlink:href="#DejaVuSans-32"/>
     <use x="1622.498047" xlink:href="#DejaVuSans-77"/>
     <use x="1708.777344" xlink:href="#DejaVuSans-97"/>
     <use x="1770.056641" xlink:href="#DejaVuSans-103"/>
     <use x="1833.533203" xlink:href="#DejaVuSans-110"/>
     <use x="1896.912109" xlink:href="#DejaVuSans-101"/>
     <use x="1958.435547" xlink:href="#DejaVuSans-116"/>
     <use x="1997.644531" xlink:href="#DejaVuSans-115"/>
    </g>
   </g>
   <g id="legend_1">
    <g id="patch_7">
     <path d="M 527.57325 131.329825 
L 887.91075 131.329825 
Q 889.91075 131.329825 889.91075 129.329825 
L 889.91075 56.9392 
Q 889.91075 54.9392 887.91075 54.9392 
L 527.57325 54.9392 
Q 525.57325 54.9392 525.57325 56.9392 
L 525.57325 129.329825 
Q 525.57325 131.329825 527.57325 131.329825 
z
" style="fill:#ffffff;opacity:0.8;stroke:#cccccc;stroke-linejoin:miter;"/>
    </g>
    <g id="line2d_67"/>
    <g id="line2d_68">
     <g>
      <use style="fill:#0000ff;stroke:#0000ff;" x="539.57325" xlink:href="#m1b404d8353" y="63.037638"/>
     </g>
    </g>
    <g id="text_16">
     <!-- SDA0 -->
     <defs>
      <path d="M 19.671875 64.796875 
L 19.671875 8.109375 
L 31.59375 8.109375 
Q 46.6875 8.109375 53.6875 14.9375 
Q 60.6875 21.78125 60.6875 36.53125 
Q 60.6875 51.171875 53.6875 57.984375 
Q 46.6875 64.796875 31.59375 64.796875 
z
M 9.8125 72.90625 
L 30.078125 72.90625 
Q 51.265625 72.90625 61.171875 64.09375 
Q 71.09375 55.28125 71.09375 36.53125 
Q 71.09375 17.671875 61.125 8.828125 
Q 51.171875 0 30.078125 0 
L 9.8125 0 
z
" id="DejaVuSans-68"/>
      <path d="M 34.1875 63.1875 
L 20.796875 26.90625 
L 47.609375 26.90625 
z
M 28.609375 72.90625 
L 39.796875 72.90625 
L 67.578125 0 
L 57.328125 0 
L 50.6875 18.703125 
L 17.828125 18.703125 
L 11.1875 0 
L 0.78125 0 
z
" id="DejaVuSans-65"/>
     </defs>
     <g transform="translate(557.57325 66.537638)scale(0.1 -0.1)">
      <use xlink:href="#DejaVuSans-83"/>
      <use x="63.476562" xlink:href="#DejaVuSans-68"/>
      <use x="140.462891" xlink:href="#DejaVuSans-65"/>
      <use x="208.871094" xlink:href="#DejaVuSans-48"/>
     </g>
    </g>
    <g id="line2d_69"/>
    <g id="line2d_70">
     <g>
      <use style="fill:#008000;stroke:#008000;" x="539.57325" xlink:href="#m7a1a9ceee6" y="77.715763"/>
     </g>
    </g>
    <g id="text_17">
     <!-- SFA0 -->
     <defs>
      <path d="M 9.8125 72.90625 
L 51.703125 72.90625 
L 51.703125 64.59375 
L 19.671875 64.59375 
L 19.671875 43.109375 
L 48.578125 43.109375 
L 48.578125 34.8125 
L 19.671875 34.8125 
L 19.671875 0 
L 9.8125 0 
z
" id="DejaVuSans-70"/>
     </defs>
     <g transform="translate(557.57325 81.215763)scale(0.1 -0.1)">
      <use xlink:href="#DejaVuSans-83"/>
      <use x="63.476562" xlink:href="#DejaVuSans-70"/>
      <use x="120.855469" xlink:href="#DejaVuSans-65"/>
      <use x="189.263672" xlink:href="#DejaVuSans-48"/>
     </g>
    </g>
    <g id="line2d_71"/>
    <g id="line2d_72">
     <g>
      <use style="fill:#ff0000;stroke:#ff0000;" x="539.57325" xlink:href="#m8b1c154c5b" y="92.393888"/>
     </g>
    </g>
    <g id="text_18">
     <!-- SDB0 -->
     <defs>
      <path d="M 19.671875 34.8125 
L 19.671875 8.109375 
L 35.5 8.109375 
Q 43.453125 8.109375 47.28125 11.40625 
Q 51.125 14.703125 51.125 21.484375 
Q 51.125 28.328125 47.28125 31.5625 
Q 43.453125 34.8125 35.5 34.8125 
z
M 19.671875 64.796875 
L 19.671875 42.828125 
L 34.28125 42.828125 
Q 41.5 42.828125 45.03125 45.53125 
Q 48.578125 48.25 48.578125 53.8125 
Q 48.578125 59.328125 45.03125 62.0625 
Q 41.5 64.796875 34.28125 64.796875 
z
M 9.8125 72.90625 
L 35.015625 72.90625 
Q 46.296875 72.90625 52.390625 68.21875 
Q 58.5 63.53125 58.5 54.890625 
Q 58.5 48.1875 55.375 44.234375 
Q 52.25 40.28125 46.1875 39.3125 
Q 53.46875 37.75 57.5 32.78125 
Q 61.53125 27.828125 61.53125 20.40625 
Q 61.53125 10.640625 54.890625 5.3125 
Q 48.25 0 35.984375 0 
L 9.8125 0 
z
" id="DejaVuSans-66"/>
     </defs>
     <g transform="translate(557.57325 95.893888)scale(0.1 -0.1)">
      <use xlink:href="#DejaVuSans-83"/>
      <use x="63.476562" xlink:href="#DejaVuSans-68"/>
      <use x="140.478516" xlink:href="#DejaVuSans-66"/>
      <use x="209.082031" xlink:href="#DejaVuSans-48"/>
     </g>
    </g>
    <g id="line2d_73"/>
    <g id="line2d_74">
     <g>
      <use style="stroke:#000000;" x="539.57325" xlink:href="#m727e7a6cb9" y="107.072013"/>
     </g>
    </g>
    <g id="text_19">
     <!-- SFB0 -->
     <g transform="translate(557.57325 110.572013)scale(0.1 -0.1)">
      <use xlink:href="#DejaVuSans-83"/>
      <use x="63.476562" xlink:href="#DejaVuSans-70"/>
      <use x="120.996094" xlink:href="#DejaVuSans-66"/>
      <use x="189.599609" xlink:href="#DejaVuSans-48"/>
     </g>
    </g>
    <g id="line2d_75"/>
    <g id="line2d_76">
     <g>
      <use style="fill:#bfbf00;stroke:#bfbf00;" x="539.57325" xlink:href="#m40f65e5209" y="121.750137"/>
     </g>
    </g>
    <g id="text_20">
     <!-- SDP0 -->
     <defs>
      <path d="M 19.671875 64.796875 
L 19.671875 37.40625 
L 32.078125 37.40625 
Q 38.96875 37.40625 42.71875 40.96875 
Q 46.484375 44.53125 46.484375 51.125 
Q 46.484375 57.671875 42.71875 61.234375 
Q 38.96875 64.796875 32.078125 64.796875 
z
M 9.8125 72.90625 
L 32.078125 72.90625 
Q 44.34375 72.90625 50.609375 67.359375 
Q 56.890625 61.8125 56.890625 51.125 
Q 56.890625 40.328125 50.609375 34.8125 
Q 44.34375 29.296875 32.078125 29.296875 
L 19.671875 29.296875 
L 19.671875 0 
L 9.8125 0 
z
" id="DejaVuSans-80"/>
     </defs>
     <g transform="translate(557.57325 125.250137)scale(0.1 -0.1)">
      <use xlink:href="#DejaVuSans-83"/>
      <use x="63.476562" xlink:href="#DejaVuSans-68"/>
      <use x="140.478516" xlink:href="#DejaVuSans-80"/>
      <use x="200.78125" xlink:href="#DejaVuSans-48"/>
     </g>
    </g>
    <g id="line2d_77"/>
    <g id="line2d_78">
     <g>
      <use style="fill:#0000ff;stroke:#0000ff;" x="614.845125" xlink:href="#m1b404d8353" y="63.037638"/>
     </g>
    </g>
    <g id="text_21">
     <!-- SFP0 -->
     <g transform="translate(632.845125 66.537638)scale(0.1 -0.1)">
      <use xlink:href="#DejaVuSans-83"/>
      <use x="63.476562" xlink:href="#DejaVuSans-70"/>
      <use x="120.996094" xlink:href="#DejaVuSans-80"/>
      <use x="181.298828" xlink:href="#DejaVuSans-48"/>
     </g>
    </g>
    <g id="line2d_79"/>
    <g id="line2d_80">
     <g>
      <use style="fill:#008000;stroke:#008000;" x="614.845125" xlink:href="#m7a1a9ceee6" y="77.715763"/>
     </g>
    </g>
    <g id="text_22">
     <!-- SDA1 -->
     <g transform="translate(632.845125 81.215763)scale(0.1 -0.1)">
      <use xlink:href="#DejaVuSans-83"/>
      <use x="63.476562" xlink:href="#DejaVuSans-68"/>
      <use x="140.462891" xlink:href="#DejaVuSans-65"/>
      <use x="208.871094" xlink:href="#DejaVuSans-49"/>
     </g>
    </g>
    <g id="line2d_81"/>
    <g id="line2d_82">
     <g>
      <use style="fill:#ff0000;stroke:#ff0000;" x="614.845125" xlink:href="#m8b1c154c5b" y="92.393888"/>
     </g>
    </g>
    <g id="text_23">
     <!-- SFA1 -->
     <g transform="translate(632.845125 95.893888)scale(0.1 -0.1)">
      <use xlink:href="#DejaVuSans-83"/>
      <use x="63.476562" xlink:href="#DejaVuSans-70"/>
      <use x="120.855469" xlink:href="#DejaVuSans-65"/>
      <use x="189.263672" xlink:href="#DejaVuSans-49"/>
     </g>
    </g>
    <g id="line2d_83"/>
    <g id="line2d_84">
     <g>
      <use style="stroke:#000000;" x="614.845125" xlink:href="#m727e7a6cb9" y="107.072013"/>
     </g>
    </g>
    <g id="text_24">
     <!-- SDB1 -->
     <g transform="translate(632.845125 110.572013)scale(0.1 -0.1)">
      <use xlink:href="#DejaVuSans-83"/>
      <use x="63.476562" xlink:href="#DejaVuSans-68"/>
      <use x="140.478516" xlink:href="#DejaVuSans-66"/>
      <use x="209.082031" xlink:href="#DejaVuSans-49"/>
     </g>
    </g>
    <g id="line2d_85"/>
    <g id="line2d_86">
     <g>
      <use style="fill:#bfbf00;stroke:#bfbf00;" x="690.117" xlink:href="#m40f65e5209" y="63.037638"/>
     </g>
    </g>
    <g id="text_25">
     <!-- SFB1 -->
     <g transform="translate(708.117 66.537638)scale(0.1 -0.1)">
      <use xlink:href="#DejaVuSans-83"/>
      <use x="63.476562" xlink:href="#DejaVuSans-70"/>
      <use x="120.996094" xlink:href="#DejaVuSans-66"/>
      <use x="189.599609" xlink:href="#DejaVuSans-49"/>
     </g>
    </g>
    <g id="line2d_87"/>
    <g id="line2d_88">
     <g>
      <use style="fill:#0000ff;stroke:#0000ff;" x="690.117" xlink:href="#m1b404d8353" y="77.715763"/>
     </g>
    </g>
    <g id="text_26">
     <!-- SDP1 -->
     <g transform="translate(708.117 81.215763)scale(0.1 -0.1)">
      <use xlink:href="#DejaVuSans-83"/>
      <use x="63.476562" xlink:href="#DejaVuSans-68"/>
      <use x="140.478516" xlink:href="#DejaVuSans-80"/>
      <use x="200.78125" xlink:href="#DejaVuSans-49"/>
     </g>
    </g>
    <g id="line2d_89"/>
    <g id="line2d_90">
     <g>
      <use style="fill:#008000;stroke:#008000;" x="690.117" xlink:href="#m7a1a9ceee6" y="92.393888"/>
     </g>
    </g>
    <g id="text_27">
     <!-- SFP1 -->
     <g transform="translate(708.117 95.893888)scale(0.1 -0.1)">
      <use xlink:href="#DejaVuSans-83"/>
      <use x="63.476562" xlink:href="#DejaVuSans-70"/>
      <use x="120.996094" xlink:href="#DejaVuSans-80"/>
      <use x="181.298828" xlink:href="#DejaVuSans-49"/>
     </g>
    </g>
    <g id="line2d_91"/>
    <g id="line2d_92">
     <g>
      <use style="fill:#ff0000;stroke:#ff0000;" x="690.117" xlink:href="#m8b1c154c5b" y="107.072013"/>
     </g>
    </g>
    <g id="text_28">
     <!-- SDA2 -->
     <g transform="translate(708.117 110.572013)scale(0.1 -0.1)">
      <use xlink:href="#DejaVuSans-83"/>
      <use x="63.476562" xlink:href="#DejaVuSans-68"/>
      <use x="140.462891" xlink:href="#DejaVuSans-65"/>
      <use x="208.871094" xlink:href="#DejaVuSans-50"/>
     </g>
    </g>
    <g id="line2d_93"/>
    <g id="line2d_94">
     <g>
      <use style="stroke:#000000;" x="765.367" xlink:href="#m727e7a6cb9" y="63.037638"/>
     </g>
    </g>
    <g id="text_29">
     <!-- SFA2 -->
     <g transform="translate(783.367 66.537638)scale(0.1 -0.1)">
      <use xlink:href="#DejaVuSans-83"/>
      <use x="63.476562" xlink:href="#DejaVuSans-70"/>
      <use x="120.855469" xlink:href="#DejaVuSans-65"/>
      <use x="189.263672" xlink:href="#DejaVuSans-50"/>
     </g>
    </g>
    <g id="line2d_95"/>
    <g id="line2d_96">
     <g>
      <use style="fill:#bfbf00;stroke:#bfbf00;" x="765.367" xlink:href="#m40f65e5209" y="77.715763"/>
     </g>
    </g>
    <g id="text_30">
     <!-- SDB2 -->
     <g transform="translate(783.367 81.215763)scale(0.1 -0.1)">
      <use xlink:href="#DejaVuSans-83"/>
      <use x="63.476562" xlink:href="#DejaVuSans-68"/>
      <use x="140.478516" xlink:href="#DejaVuSans-66"/>
      <use x="209.082031" xlink:href="#DejaVuSans-50"/>
     </g>
    </g>
    <g id="line2d_97"/>
    <g id="line2d_98">
     <g>
      <use style="fill:#0000ff;stroke:#0000ff;" x="765.367" xlink:href="#m1b404d8353" y="92.393888"/>
     </g>
    </g>
    <g id="text_31">
     <!-- SFB2 -->
     <g transform="translate(783.367 95.893888)scale(0.1 -0.1)">
      <use xlink:href="#DejaVuSans-83"/>
      <use x="63.476562" xlink:href="#DejaVuSans-70"/>
      <use x="120.996094" xlink:href="#DejaVuSans-66"/>
      <use x="189.599609" xlink:href="#DejaVuSans-50"/>
     </g>
    </g>
    <g id="line2d_99"/>
    <g id="line2d_100">
     <g>
      <use style="fill:#008000;stroke:#008000;" x="765.367" xlink:href="#m7a1a9ceee6" y="107.072013"/>
     </g>
    </g>
    <g id="text_32">
     <!-- SDP2 -->
     <g transform="translate(783.367 110.572013)scale(0.1 -0.1)">
      <use xlink:href="#DejaVuSans-83"/>
      <use x="63.476562" xlink:href="#DejaVuSans-68"/>
      <use x="140.478516" xlink:href="#DejaVuSans-80"/>
      <use x="200.78125" xlink:href="#DejaVuSans-50"/>
     </g>
    </g>
    <g id="line2d_101"/>
    <g id="line2d_102">
     <g>
      <use style="fill:#ff0000;stroke:#ff0000;" x="840.638875" xlink:href="#m8b1c154c5b" y="63.037638"/>
     </g>
    </g>
    <g id="text_33">
     <!-- SFP2 -->
     <g transform="translate(858.638875 66.537638)scale(0.1 -0.1)">
      <use xlink:href="#DejaVuSans-83"/>
      <use x="63.476562" xlink:href="#DejaVuSans-70"/>
      <use x="120.996094" xlink:href="#DejaVuSans-80"/>
      <use x="181.298828" xlink:href="#DejaVuSans-50"/>
     </g>
    </g>
    <g id="line2d_103"/>
    <g id="line2d_104">
     <g>
      <use style="stroke:#000000;" x="840.638875" xlink:href="#m727e7a6cb9" y="77.715763"/>
     </g>
    </g>
    <g id="text_34">
     <!-- SDA3 -->
     <g transform="translate(858.638875 81.215763)scale(0.1 -0.1)">
      <use xlink:href="#DejaVuSans-83"/>
      <use x="63.476562" xlink:href="#DejaVuSans-68"/>
      <use x="140.462891" xlink:href="#DejaVuSans-65"/>
      <use x="208.871094" xlink:href="#DejaVuSans-51"/>
     </g>
    </g>
    <g id="line2d_105"/>
    <g id="line2d_106">
     <g>
      <use style="fill:#bfbf00;stroke:#bfbf00;" x="840.638875" xlink:href="#m40f65e5209" y="92.393888"/>
     </g>
    </g>
    <g id="text_35">
     <!-- SDB3 -->
     <g transform="translate(858.638875 95.893888)scale(0.1 -0.1)">
      <use xlink:href="#DejaVuSans-83"/>
      <use x="63.476562" xlink:href="#DejaVuSans-68"/>
      <use x="140.478516" xlink:href="#DejaVuSans-66"/>
      <use x="209.082031" xlink:href="#DejaVuSans-51"/>
     </g>
    </g>
    <g id="line2d_107"/>
    <g id="line2d_108">
     <g>
      <use style="fill:#0000ff;stroke:#0000ff;" x="840.638875" xlink:href="#m1b404d8353" y="107.072013"/>
     </g>
    </g>
    <g id="text_36">
     <!-- SDP3 -->
     <g transform="translate(858.638875 110.572013)scale(0.1 -0.1)">
      <use xlink:href="#DejaVuSans-83"/>
      <use x="63.476562" xlink:href="#DejaVuSans-68"/>
      <use x="140.478516" xlink:href="#DejaVuSans-80"/>
      <use x="200.78125" xlink:href="#DejaVuSans-51"/>
     </g>
    </g>
   </g>
  </g>
 </g>
 <defs>
  <clipPath id="pd8e8dd445d">
   <rect height="320.4432" width="1070.244" x="172.62" y="49.9392"/>
  </clipPath>
 </defs>
</svg>
