<?xml version="1.0"?>
<!-- Created by MetaPost 1.803 on 2015.11.18:1449 -->
<svg version="1.1" xmlns="http://www.w3.org/2000/svg" xmlns:xlink="http://www.w3.org/1999/xlink" width="432.852081" height="336.475601" viewBox="0 0 432.852081 336.475601">
<!-- Original BoundingBox: -216.426041 -54.853714 216.426041 281.621887 -->
  <defs>
    <g transform="scale(0.009963,0.009963)" id="GLYPHptmr8r_32">
      <path style="fill-rule: evenodd;" d=""></path>
    </g>
    <g transform="scale(0.009963,0.009963)" id="GLYPHptmr8r_65">
      <path style="fill-rule: evenodd;" d="M706.000000 -19.000000C661.000000 -22.000000,651.000000 -32.000000,616.000000 -106.000000L367.000000 -674.000000L347.000000 -674.000000L139.000000 -183.000000C75.000000 -37.000000,63.000000 -21.000000,15.000000 -19.000000L15.000000 -0.000000L213.000000 -0.000000L213.000000 -19.000000C165.000000 -19.000000,145.000000 -32.000000,145.000000 -60.000000C145.000000 -72.000000,148.000000 -86.000000,153.000000 -99.000000L199.000000 -216.000000L461.000000 -216.000000L502.000000 -120.000000C514.000000 -93.000000,521.000000 -67.000000,521.000000 -53.000000C521.000000 -28.000000,504.000000 -20.000000,451.000000 -19.000000L451.000000 -0.000000L706.000000 -0.000000M216.000000 -257.000000L331.000000 -532.000000L447.000000 -257.000000"></path>
    </g>
    <g transform="scale(0.009963,0.009963)" id="GLYPHptmr8r_66">
      <path style="fill-rule: evenodd;" d="M17.000000 -662.000000L17.000000 -643.000000C101.000000 -638.000000,113.000000 -627.000000,113.000000 -553.000000L113.000000 -109.000000C113.000000 -35.000000,100.000000 -22.000000,17.000000 -19.000000L17.000000 -0.000000L351.000000 -0.000000C429.000000 -0.000000,500.000000 -21.000000,537.000000 -55.000000C573.000000 -87.000000,593.000000 -132.000000,593.000000 -180.000000C593.000000 -224.000000,575.000000 -264.000000,544.000000 -293.000000C514.000000 -320.000000,487.000000 -332.000000,422.000000 -348.000000C474.000000 -361.000000,495.000000 -371.000000,519.000000 -392.000000C544.000000 -414.000000,559.000000 -451.000000,559.000000 -492.000000C559.000000 -604.000000,470.000000 -662.000000,297.000000 -662.000000M215.000000 -326.000000C312.000000 -326.000000,358.000000 -321.000000,394.000000 -306.000000C451.000000 -282.000000,478.000000 -242.000000,478.000000 -179.000000C478.000000 -125.000000,457.000000 -86.000000,417.000000 -63.000000C385.000000 -45.000000,344.000000 -37.000000,278.000000 -37.000000C229.000000 -37.000000,215.000000 -46.000000,215.000000 -78.000000M215.000000 -366.000000L215.000000 -595.000000C215.000000 -616.000000,222.000000 -625.000000,237.000000 -625.000000L281.000000 -625.000000C396.000000 -625.000000,457.000000 -577.000000,457.000000 -488.000000C457.000000 -410.000000,404.000000 -366.000000,310.000000 -366.000000"></path>
    </g>
    <g transform="scale(0.009963,0.009963)" id="GLYPHptmr8r_97">
      <path style="fill-rule: evenodd;" d="M442.000000 -66.000000C425.000000 -52.000000,413.000000 -47.000000,398.000000 -47.000000C375.000000 -47.000000,368.000000 -61.000000,368.000000 -105.000000L368.000000 -300.000000C368.000000 -352.000000,363.000000 -381.000000,348.000000 -405.000000C326.000000 -441.000000,283.000000 -460.000000,224.000000 -460.000000C130.000000 -460.000000,56.000000 -411.000000,56.000000 -348.000000C56.000000 -325.000000,76.000000 -305.000000,99.000000 -305.000000C123.000000 -305.000000,144.000000 -325.000000,144.000000 -347.000000C144.000000 -351.000000,143.000000 -356.000000,142.000000 -363.000000C140.000000 -372.000000,139.000000 -380.000000,139.000000 -387.000000C139.000000 -414.000000,171.000000 -436.000000,211.000000 -436.000000C260.000000 -436.000000,287.000000 -407.000000,287.000000 -353.000000L287.000000 -292.000000C133.000000 -230.000000,116.000000 -222.000000,73.000000 -184.000000C51.000000 -164.000000,37.000000 -130.000000,37.000000 -97.000000C37.000000 -34.000000,81.000000 10.000000,142.000000 10.000000C186.000000 10.000000,227.000000 -11.000000,288.000000 -63.000000C293.000000 -11.000000,311.000000 10.000000,352.000000 10.000000C386.000000 10.000000,407.000000 -2.000000,442.000000 -40.000000M287.000000 -123.000000C287.000000 -92.000000,282.000000 -83.000000,261.000000 -71.000000C237.000000 -57.000000,209.000000 -48.000000,188.000000 -48.000000C153.000000 -48.000000,125.000000 -82.000000,125.000000 -125.000000L125.000000 -129.000000C125.000000 -188.000000,166.000000 -224.000000,287.000000 -268.000000"></path>
    </g>
    <g transform="scale(0.009963,0.009963)" id="GLYPHptmr8r_99">
      <path style="fill-rule: evenodd;" d="M398.000000 -156.000000C350.000000 -86.000000,314.000000 -62.000000,257.000000 -62.000000C166.000000 -62.000000,102.000000 -142.000000,102.000000 -257.000000C102.000000 -360.000000,157.000000 -431.000000,238.000000 -431.000000C274.000000 -431.000000,287.000000 -420.000000,297.000000 -383.000000L303.000000 -361.000000C311.000000 -333.000000,329.000000 -315.000000,350.000000 -315.000000C376.000000 -315.000000,398.000000 -334.000000,398.000000 -357.000000C398.000000 -413.000000,328.000000 -460.000000,244.000000 -460.000000C195.000000 -460.000000,144.000000 -440.000000,103.000000 -404.000000C53.000000 -360.000000,25.000000 -292.000000,25.000000 -213.000000C25.000000 -83.000000,104.000000 10.000000,215.000000 10.000000C260.000000 10.000000,300.000000 -6.000000,336.000000 -37.000000C363.000000 -61.000000,382.000000 -88.000000,412.000000 -147.000000"></path>
    </g>
    <g transform="scale(0.009963,0.009963)" id="GLYPHptmr8r_101">
      <path style="fill-rule: evenodd;" d="M408.000000 -164.000000C360.000000 -88.000000,317.000000 -59.000000,253.000000 -59.000000C196.000000 -59.000000,153.000000 -88.000000,124.000000 -145.000000C106.000000 -183.000000,99.000000 -216.000000,97.000000 -277.000000L405.000000 -277.000000C397.000000 -342.000000,387.000000 -371.000000,362.000000 -403.000000C332.000000 -439.000000,286.000000 -460.000000,234.000000 -460.000000C184.000000 -460.000000,137.000000 -442.000000,99.000000 -408.000000C52.000000 -367.000000,25.000000 -296.000000,25.000000 -214.000000C25.000000 -76.000000,97.000000 10.000000,212.000000 10.000000C307.000000 10.000000,382.000000 -49.000000,424.000000 -157.000000M99.000000 -309.000000C110.000000 -387.000000,144.000000 -424.000000,205.000000 -424.000000C266.000000 -424.000000,290.000000 -396.000000,303.000000 -309.000000"></path>
    </g>
    <g transform="scale(0.009963,0.009963)" id="GLYPHptmr8r_104">
      <path style="fill-rule: evenodd;" d="M157.000000 -343.000000C199.000000 -389.000000,229.000000 -406.000000,268.000000 -406.000000C318.000000 -406.000000,343.000000 -370.000000,343.000000 -300.000000L343.000000 -102.000000C343.000000 -34.000000,333.000000 -21.000000,275.000000 -15.000000L275.000000 -0.000000L487.000000 -0.000000L487.000000 -15.000000C433.000000 -25.000000,427.000000 -33.000000,427.000000 -102.000000L427.000000 -301.000000C427.000000 -406.000000,385.000000 -460.000000,304.000000 -460.000000C245.000000 -460.000000,203.000000 -436.000000,157.000000 -376.000000L157.000000 -680.000000L152.000000 -683.000000C118.000000 -671.000000,93.000000 -663.000000,37.000000 -647.000000L10.000000 -639.000000L10.000000 -623.000000C14.000000 -624.000000,17.000000 -624.000000,22.000000 -624.000000C65.000000 -624.000000,73.000000 -616.000000,73.000000 -573.000000L73.000000 -102.000000C73.000000 -32.000000,67.000000 -23.000000,9.000000 -15.000000L9.000000 -0.000000L225.000000 -0.000000L225.000000 -15.000000C167.000000 -21.000000,157.000000 -33.000000,157.000000 -102.000000"></path>
    </g>
    <g transform="scale(0.009963,0.009963)" id="GLYPHptmr8r_105">
      <path style="fill-rule: evenodd;" d="M175.000000 -460.000000L20.000000 -405.000000L20.000000 -390.000000L28.000000 -391.000000C40.000000 -393.000000,53.000000 -394.000000,62.000000 -394.000000C86.000000 -394.000000,95.000000 -378.000000,95.000000 -334.000000L95.000000 -102.000000C95.000000 -30.000000,85.000000 -19.000000,16.000000 -15.000000L16.000000 -0.000000L253.000000 -0.000000L253.000000 -15.000000C187.000000 -20.000000,179.000000 -30.000000,179.000000 -102.000000L179.000000 -457.000000M128.000000 -683.000000C101.000000 -683.000000,78.000000 -660.000000,78.000000 -632.000000C78.000000 -604.000000,100.000000 -581.000000,128.000000 -581.000000C157.000000 -581.000000,180.000000 -603.000000,180.000000 -632.000000C180.000000 -660.000000,157.000000 -683.000000,128.000000 -683.000000"></path>
    </g>
    <g transform="scale(0.009963,0.009963)" id="GLYPHptmr8r_107">
      <path style="fill-rule: evenodd;" d="M7.000000 -623.000000C20.000000 -624.000000,29.000000 -625.000000,39.000000 -625.000000C72.000000 -625.000000,82.000000 -612.000000,82.000000 -564.000000L82.000000 -82.000000C82.000000 -30.000000,79.000000 -27.000000,7.000000 -15.000000L7.000000 -0.000000L241.000000 -0.000000L241.000000 -15.000000L221.000000 -16.000000C181.000000 -18.000000,166.000000 -32.000000,166.000000 -67.000000L166.000000 -251.000000L306.000000 -64.000000L309.000000 -60.000000C311.000000 -57.000000,313.000000 -54.000000,316.000000 -51.000000C324.000000 -41.000000,327.000000 -35.000000,327.000000 -30.000000C327.000000 -21.000000,318.000000 -15.000000,306.000000 -15.000000L287.000000 -15.000000L287.000000 -0.000000L505.000000 -0.000000L505.000000 -15.000000C461.000000 -18.000000,430.000000 -37.000000,388.000000 -88.000000L235.000000 -282.000000L264.000000 -309.000000C335.000000 -375.000000,397.000000 -421.000000,426.000000 -429.000000C441.000000 -433.000000,455.000000 -435.000000,472.000000 -435.000000L480.000000 -435.000000L480.000000 -450.000000L276.000000 -450.000000L276.000000 -436.000000C315.000000 -435.000000,326.000000 -431.000000,326.000000 -417.000000C326.000000 -409.000000,317.000000 -395.000000,303.000000 -383.000000L166.000000 -261.000000L166.000000 -681.000000L162.000000 -683.000000C124.000000 -671.000000,95.000000 -663.000000,37.000000 -647.000000L7.000000 -639.000000"></path>
    </g>
    <g transform="scale(0.009963,0.009963)" id="GLYPHptmr8r_108">
      <path style="fill-rule: evenodd;" d="M19.000000 -623.000000L25.000000 -623.000000C36.000000 -624.000000,48.000000 -625.000000,56.000000 -625.000000C88.000000 -625.000000,98.000000 -611.000000,98.000000 -564.000000L98.000000 -87.000000C98.000000 -33.000000,84.000000 -20.000000,21.000000 -15.000000L21.000000 -0.000000L257.000000 -0.000000L257.000000 -15.000000C194.000000 -19.000000,182.000000 -29.000000,182.000000 -84.000000L182.000000 -681.000000L178.000000 -683.000000C126.000000 -666.000000,88.000000 -656.000000,19.000000 -639.000000"></path>
    </g>
    <g transform="scale(0.009963,0.009963)" id="GLYPHptmr8r_109">
      <path style="fill-rule: evenodd;" d="M19.000000 -398.000000C32.000000 -401.000000,40.000000 -402.000000,51.000000 -402.000000C77.000000 -402.000000,86.000000 -386.000000,86.000000 -338.000000L86.000000 -85.000000C86.000000 -31.000000,72.000000 -16.000000,16.000000 -15.000000L16.000000 -0.000000L238.000000 -0.000000L238.000000 -15.000000C185.000000 -17.000000,170.000000 -28.000000,170.000000 -67.000000L170.000000 -349.000000C170.000000 -351.000000,178.000000 -361.000000,185.000000 -368.000000C210.000000 -391.000000,253.000000 -408.000000,288.000000 -408.000000C332.000000 -408.000000,354.000000 -373.000000,354.000000 -303.000000L354.000000 -86.000000C354.000000 -30.000000,343.000000 -19.000000,286.000000 -15.000000L286.000000 -0.000000L510.000000 -0.000000L510.000000 -15.000000C453.000000 -16.000000,438.000000 -33.000000,438.000000 -95.000000L438.000000 -347.000000C468.000000 -390.000000,501.000000 -408.000000,547.000000 -408.000000C604.000000 -408.000000,622.000000 -381.000000,622.000000 -298.000000L622.000000 -87.000000C622.000000 -30.000000,614.000000 -22.000000,556.000000 -15.000000L556.000000 -0.000000L775.000000 -0.000000L775.000000 -15.000000L749.000000 -17.000000C719.000000 -19.000000,706.000000 -37.000000,706.000000 -76.000000L706.000000 -282.000000C706.000000 -400.000000,667.000000 -460.000000,590.000000 -460.000000C532.000000 -460.000000,481.000000 -434.000000,427.000000 -376.000000C409.000000 -433.000000,375.000000 -460.000000,321.000000 -460.000000C277.000000 -460.000000,249.000000 -446.000000,166.000000 -383.000000L166.000000 -458.000000L159.000000 -460.000000C108.000000 -441.000000,74.000000 -430.000000,19.000000 -415.000000"></path>
    </g>
    <g transform="scale(0.009963,0.009963)" id="GLYPHptmr8r_110">
      <path style="fill-rule: evenodd;" d="M16.000000 -398.000000C22.000000 -401.000000,32.000000 -402.000000,43.000000 -402.000000C71.000000 -402.000000,80.000000 -387.000000,80.000000 -338.000000L80.000000 -90.000000C80.000000 -33.000000,69.000000 -19.000000,18.000000 -15.000000L18.000000 -0.000000L230.000000 -0.000000L230.000000 -15.000000C179.000000 -19.000000,164.000000 -31.000000,164.000000 -67.000000L164.000000 -348.000000C212.000000 -393.000000,234.000000 -405.000000,267.000000 -405.000000C316.000000 -405.000000,340.000000 -374.000000,340.000000 -308.000000L340.000000 -99.000000C340.000000 -36.000000,327.000000 -19.000000,277.000000 -15.000000L277.000000 -0.000000L485.000000 -0.000000L485.000000 -15.000000C436.000000 -20.000000,424.000000 -32.000000,424.000000 -81.000000L424.000000 -310.000000C424.000000 -404.000000,380.000000 -460.000000,306.000000 -460.000000C260.000000 -460.000000,229.000000 -443.000000,161.000000 -379.000000L161.000000 -458.000000L154.000000 -460.000000C105.000000 -442.000000,71.000000 -431.000000,16.000000 -415.000000"></path>
    </g>
    <g transform="scale(0.009963,0.009963)" id="GLYPHptmr8r_112">
      <path style="fill-rule: evenodd;" d="M9.000000 -393.000000C18.000000 -394.000000,25.000000 -394.000000,34.000000 -394.000000C68.000000 -394.000000,75.000000 -384.000000,75.000000 -337.000000L75.000000 131.000000C75.000000 183.000000,64.000000 194.000000,5.000000 200.000000L5.000000 217.000000L247.000000 217.000000L247.000000 199.000000C172.000000 198.000000,159.000000 187.000000,159.000000 124.000000L159.000000 -33.000000C194.000000 -0.000000,218.000000 10.000000,260.000000 10.000000C378.000000 10.000000,470.000000 -102.000000,470.000000 -247.000000C470.000000 -371.000000,400.000000 -460.000000,303.000000 -460.000000C247.000000 -460.000000,203.000000 -435.000000,159.000000 -381.000000L159.000000 -458.000000L153.000000 -460.000000C99.000000 -439.000000,64.000000 -426.000000,9.000000 -409.000000M159.000000 -334.000000C159.000000 -364.000000,215.000000 -400.000000,261.000000 -400.000000C335.000000 -400.000000,384.000000 -324.000000,384.000000 -208.000000C384.000000 -97.000000,335.000000 -22.000000,263.000000 -22.000000C216.000000 -22.000000,159.000000 -58.000000,159.000000 -88.000000"></path>
    </g>
    <g transform="scale(0.009963,0.009963)" id="GLYPHptmr8r_114">
      <path style="fill-rule: evenodd;" d="M7.000000 -390.000000C21.000000 -393.000000,30.000000 -394.000000,42.000000 -394.000000C67.000000 -394.000000,76.000000 -378.000000,76.000000 -334.000000L76.000000 -84.000000C76.000000 -34.000000,69.000000 -27.000000,5.000000 -15.000000L5.000000 -0.000000L245.000000 -0.000000L245.000000 -15.000000C177.000000 -18.000000,160.000000 -33.000000,160.000000 -90.000000L160.000000 -315.000000C160.000000 -347.000000,203.000000 -397.000000,230.000000 -397.000000C236.000000 -397.000000,245.000000 -392.000000,256.000000 -382.000000C272.000000 -368.000000,283.000000 -362.000000,296.000000 -362.000000C320.000000 -362.000000,335.000000 -379.000000,335.000000 -407.000000C335.000000 -440.000000,314.000000 -460.000000,280.000000 -460.000000C238.000000 -460.000000,209.000000 -437.000000,160.000000 -366.000000L160.000000 -458.000000L155.000000 -460.000000C102.000000 -438.000000,66.000000 -425.000000,7.000000 -406.000000"></path>
    </g>
    <g transform="scale(0.009963,0.009963)" id="GLYPHptmr8r_115">
      <path style="fill-rule: evenodd;" d="M315.000000 -314.000000L311.000000 -450.000000L300.000000 -450.000000L298.000000 -448.000000C289.000000 -441.000000,288.000000 -440.000000,284.000000 -440.000000C278.000000 -440.000000,268.000000 -442.000000,257.000000 -447.000000C235.000000 -455.000000,213.000000 -459.000000,187.000000 -459.000000C108.000000 -459.000000,51.000000 -408.000000,51.000000 -336.000000C51.000000 -280.000000,83.000000 -240.000000,168.000000 -192.000000L226.000000 -159.000000C261.000000 -139.000000,278.000000 -115.000000,278.000000 -84.000000C278.000000 -40.000000,246.000000 -12.000000,195.000000 -12.000000C161.000000 -12.000000,130.000000 -25.000000,111.000000 -47.000000C90.000000 -72.000000,81.000000 -95.000000,68.000000 -152.000000L52.000000 -152.000000L52.000000 4.000000L65.000000 4.000000C72.000000 -6.000000,76.000000 -8.000000,88.000000 -8.000000C97.000000 -8.000000,111.000000 -6.000000,134.000000 -0.000000C162.000000 6.000000,189.000000 10.000000,207.000000 10.000000C284.000000 10.000000,348.000000 -48.000000,348.000000 -118.000000C348.000000 -168.000000,324.000000 -201.000000,264.000000 -237.000000L156.000000 -301.000000C128.000000 -317.000000,113.000000 -342.000000,113.000000 -369.000000C113.000000 -409.000000,144.000000 -437.000000,190.000000 -437.000000C247.000000 -437.000000,277.000000 -403.000000,300.000000 -314.000000"></path>
    </g>
    <g transform="scale(0.009963,0.009963)" id="GLYPHptmr8r_116">
      <path style="fill-rule: evenodd;" d="M255.000000 -450.000000L154.000000 -450.000000L154.000000 -566.000000C154.000000 -576.000000,153.000000 -579.000000,147.000000 -579.000000C140.000000 -570.000000,134.000000 -561.000000,127.000000 -551.000000C89.000000 -496.000000,46.000000 -448.000000,30.000000 -444.000000C19.000000 -437.000000,13.000000 -430.000000,13.000000 -425.000000C13.000000 -422.000000,14.000000 -420.000000,17.000000 -418.000000L70.000000 -418.000000L70.000000 -117.000000C70.000000 -33.000000,100.000000 10.000000,159.000000 10.000000C208.000000 10.000000,246.000000 -14.000000,279.000000 -66.000000L266.000000 -77.000000C245.000000 -52.000000,228.000000 -42.000000,206.000000 -42.000000C169.000000 -42.000000,154.000000 -69.000000,154.000000 -132.000000L154.000000 -418.000000L255.000000 -418.000000"></path>
    </g>
    <g transform="scale(0.009963,0.009963)" id="GLYPHptmr8r_117">
      <path style="fill-rule: evenodd;" d="M479.000000 -50.000000L474.000000 -50.000000C428.000000 -50.000000,417.000000 -61.000000,417.000000 -107.000000L417.000000 -450.000000L259.000000 -450.000000L259.000000 -433.000000C321.000000 -430.000000,333.000000 -420.000000,333.000000 -370.000000L333.000000 -135.000000C333.000000 -107.000000,328.000000 -93.000000,314.000000 -82.000000C287.000000 -60.000000,256.000000 -48.000000,226.000000 -48.000000C187.000000 -48.000000,155.000000 -82.000000,155.000000 -124.000000L155.000000 -450.000000L9.000000 -450.000000L9.000000 -436.000000C57.000000 -433.000000,71.000000 -418.000000,71.000000 -372.000000L71.000000 -120.000000C71.000000 -41.000000,119.000000 10.000000,192.000000 10.000000C229.000000 10.000000,268.000000 -6.000000,295.000000 -33.000000L338.000000 -76.000000L338.000000 7.000000L342.000000 9.000000C392.000000 -11.000000,428.000000 -22.000000,479.000000 -36.000000"></path>
    </g>
    <g transform="scale(0.009963,0.009963)" id="GLYPHptmr8r_118">
      <path style="fill-rule: evenodd;" d="M477.000000 -450.000000L338.000000 -450.000000L338.000000 -435.000000C370.000000 -432.000000,385.000000 -422.000000,385.000000 -403.000000C385.000000 -393.000000,383.000000 -383.000000,379.000000 -373.000000L280.000000 -114.000000L178.000000 -370.000000C172.000000 -384.000000,169.000000 -398.000000,169.000000 -407.000000C169.000000 -425.000000,180.000000 -432.000000,215.000000 -435.000000L215.000000 -450.000000L19.000000 -450.000000L19.000000 -435.000000C57.000000 -433.000000,64.000000 -423.000000,110.000000 -320.000000L230.000000 -33.000000C232.000000 -27.000000,235.000000 -20.000000,238.000000 -12.000000C244.000000 6.000000,250.000000 14.000000,256.000000 14.000000C262.000000 14.000000,269.000000 1.000000,284.000000 -36.000000L412.000000 -357.000000C441.000000 -425.000000,447.000000 -432.000000,477.000000 -435.000000"></path>
    </g>
    <g transform="scale(0.009963,0.009963)" id="GLYPHptmr8r_121">
      <path style="fill-rule: evenodd;" d="M475.000000 -450.000000L340.000000 -450.000000L340.000000 -435.000000C372.000000 -435.000000,388.000000 -426.000000,388.000000 -410.000000C388.000000 -406.000000,387.000000 -400.000000,384.000000 -393.000000L287.000000 -117.000000L172.000000 -370.000000C166.000000 -384.000000,162.000000 -397.000000,162.000000 -408.000000C162.000000 -426.000000,177.000000 -433.000000,220.000000 -435.000000L220.000000 -450.000000L14.000000 -450.000000L14.000000 -436.000000C40.000000 -432.000000,57.000000 -421.000000,65.000000 -404.000000L179.000000 -158.000000L182.000000 -150.000000L197.000000 -120.000000C225.000000 -70.000000,241.000000 -34.000000,241.000000 -19.000000C241.000000 -4.000000,218.000000 59.000000,201.000000 89.000000C187.000000 115.000000,165.000000 134.000000,151.000000 134.000000C145.000000 134.000000,136.000000 132.000000,126.000000 127.000000C107.000000 120.000000,90.000000 116.000000,73.000000 116.000000C50.000000 116.000000,30.000000 136.000000,30.000000 160.000000C30.000000 193.000000,62.000000 218.000000,104.000000 218.000000C171.000000 218.000000,219.000000 162.000000,273.000000 18.000000L427.000000 -390.000000C440.000000 -422.000000,451.000000 -432.000000,475.000000 -435.000000"></path>
    </g>
  </defs>
  <g transform="matrix(2.000000,-0.000000,-0.000000,2.000000,323.429047 285.597748)" style="fill: rgb(0.000000%,0.000000%,0.000000%);">
    <use xlink:href="#GLYPHptmr8r_116"></use>
    <use xlink:href="#GLYPHptmr8r_114" x="2.779944"></use>
    <use xlink:href="#GLYPHptmr8r_97" x="6.109956"></use>
    <use xlink:href="#GLYPHptmr8r_99" x="10.549966"></use>
    <use xlink:href="#GLYPHptmr8r_107" x="14.989977"></use>
    <use xlink:href="#GLYPHptmr8r_99" x="19.990056"></use>
    <use xlink:href="#GLYPHptmr8r_112" x="24.430067"></use>
    <use xlink:href="#GLYPHptmr8r_112" x="29.430146"></use>
  </g>
  <path d="M312.376480 255.488586L403.083755 255.488586L403.083755 306.511429L312.376480 306.511429Z" style="stroke:rgb(0.000000%,0.000000%,0.000000%); stroke-width: 1.992523;stroke-linecap: round;stroke-linejoin: round;stroke-miterlimit: 10.000000;fill: none;"></path>
  <g transform="matrix(2.000000,-0.000000,-0.000000,2.000000,59.874161 174.300735)" style="fill: rgb(0.000000%,0.000000%,0.000000%);">
    <use xlink:href="#GLYPHptmr8r_108"></use>
    <use xlink:href="#GLYPHptmr8r_110" x="2.779944"></use>
    <use xlink:href="#GLYPHptmr8r_108" x="7.780024"></use>
    <use xlink:href="#GLYPHptmr8r_115" x="10.559968"></use>
  </g>
  <path d="M28.916245 142.104492L119.623520 142.104492L119.623520 193.127335L28.916245 193.127335Z" style="stroke:rgb(0.000000%,0.000000%,0.000000%); stroke-width: 1.992523;stroke-linecap: round;stroke-linejoin: round;stroke-miterlimit: 10.000000;fill: none;"></path>
  <g transform="matrix(2.000000,-0.000000,-0.000000,2.000000,177.255630 172.213654)" style="fill: rgb(0.000000%,0.000000%,0.000000%);">
    <use xlink:href="#GLYPHptmr8r_109"></use>
    <use xlink:href="#GLYPHptmr8r_97" x="7.780024"></use>
    <use xlink:href="#GLYPHptmr8r_116" x="12.220034"></use>
    <use xlink:href="#GLYPHptmr8r_104" x="14.999978"></use>
    <use xlink:href="#GLYPHptmr8r_112" x="20.000058"></use>
    <use xlink:href="#GLYPHptmr8r_104" x="25.000137"></use>
    <use xlink:href="#GLYPHptmr8r_121" x="30.000217"></use>
    <use xlink:href="#GLYPHptmr8r_115" x="35.000296"></use>
  </g>
  <path d="M170.646362 142.104492L261.353638 142.104492L261.353638 193.127335L170.646362 193.127335Z" style="stroke:rgb(0.000000%,0.000000%,0.000000%); stroke-width: 1.992523;stroke-linecap: round;stroke-linejoin: round;stroke-miterlimit: 10.000000;fill: none;"></path>
  <g transform="matrix(2.000000,-0.000000,-0.000000,2.000000,327.304535 172.213654)" style="fill: rgb(0.000000%,0.000000%,0.000000%);">
    <use xlink:href="#GLYPHptmr8r_112"></use>
    <use xlink:href="#GLYPHptmr8r_121" x="5.000079"></use>
    <use xlink:href="#GLYPHptmr8r_97" x="10.000159"></use>
    <use xlink:href="#GLYPHptmr8r_99" x="14.440169"></use>
    <use xlink:href="#GLYPHptmr8r_99" x="18.880180"></use>
    <use xlink:href="#GLYPHptmr8r_101" x="23.320190"></use>
    <use xlink:href="#GLYPHptmr8r_108" x="27.760201"></use>
  </g>
  <path d="M312.376480 142.104492L403.083755 142.104492L403.083755 193.127335L312.376480 193.127335Z" style="stroke:rgb(0.000000%,0.000000%,0.000000%); stroke-width: 1.992523;stroke-linecap: round;stroke-linejoin: round;stroke-miterlimit: 10.000000;fill: none;"></path>
  <g transform="matrix(2.000000,-0.000000,-0.000000,2.000000,123.546326 60.916641)" style="fill: rgb(0.000000%,0.000000%,0.000000%);">
    <use xlink:href="#GLYPHptmr8r_115"></use>
    <use xlink:href="#GLYPHptmr8r_105" x="3.889958"></use>
    <use xlink:href="#GLYPHptmr8r_114" x="6.669902"></use>
    <use xlink:href="#GLYPHptmr8r_105" x="9.999914"></use>
    <use xlink:href="#GLYPHptmr8r_117" x="12.779858"></use>
    <use xlink:href="#GLYPHptmr8r_115" x="17.779938"></use>
  </g>
  <path d="M99.781296 28.720398L190.488571 28.720398L190.488571 79.743240L99.781296 79.743240Z" style="stroke:rgb(0.000000%,0.000000%,0.000000%); stroke-width: 1.992523;stroke-linecap: round;stroke-linejoin: round;stroke-miterlimit: 10.000000;fill: none;"></path>
  <g transform="matrix(2.000000,-0.000000,-0.000000,2.000000,277.460388 58.729889)" style="fill: rgb(0.000000%,0.000000%,0.000000%);">
    <use xlink:href="#GLYPHptmr8r_118"></use>
    <use xlink:href="#GLYPHptmr8r_97" x="5.000079"></use>
  </g>
  <path d="M241.511429 28.720398L332.218704 28.720398L332.218704 79.743240L241.511429 79.743240Z" style="stroke:rgb(0.000000%,0.000000%,0.000000%); stroke-width: 1.992523;stroke-linecap: round;stroke-linejoin: round;stroke-miterlimit: 10.000000;fill: none;"></path>
  <path d="M357.730118 195.395020L357.730118 253.220901" style="stroke:rgb(0.000000%,0.000000%,0.000000%); stroke-width: 1.992523;stroke-linecap: round;stroke-linejoin: round;stroke-miterlimit: 10.000000;fill: none;"></path>
  <path d="M356.199463 249.525681L357.730118 253.220901L359.260773 249.525681Z" style="stroke:rgb(0.000000%,0.000000%,0.000000%); stroke-width: 1.992523;fill: rgb(0.000000%,0.000000%,0.000000%);"></path>
  <path d="M122.458130 167.615906L167.811752 167.615906" style="stroke:rgb(0.000000%,0.000000%,0.000000%); stroke-width: 1.992523;stroke-linecap: round;stroke-linejoin: round;stroke-miterlimit: 10.000000;fill: none;"></path>
  <path d="M164.116272 169.146667L167.811752 167.615906L164.116272 166.085144Z" style="stroke:rgb(0.000000%,0.000000%,0.000000%); stroke-width: 1.992523;fill: rgb(0.000000%,0.000000%,0.000000%);"></path>
  <path d="M309.541870 167.615906L264.188248 167.615906" style="stroke:rgb(0.000000%,0.000000%,0.000000%); stroke-width: 1.992523;stroke-linecap: round;stroke-linejoin: round;stroke-miterlimit: 10.000000;fill: none;"></path>
  <path d="M267.883728 166.085144L264.188248 167.615906L267.883728 169.146667Z" style="stroke:rgb(0.000000%,0.000000%,0.000000%); stroke-width: 1.992523;fill: rgb(0.000000%,0.000000%,0.000000%);"></path>
  <path d="M142.300323 82.010925L74.269882 139.836807" style="stroke:rgb(0.000000%,0.000000%,0.000000%); stroke-width: 1.992523;stroke-linecap: round;stroke-linejoin: round;stroke-miterlimit: 10.000000;fill: none;"></path>
  <path d="M76.094223 136.277100L74.269882 139.836807L78.077011 138.609772Z" style="stroke:rgb(0.000000%,0.000000%,0.000000%); stroke-width: 1.992523;fill: rgb(0.000000%,0.000000%,0.000000%);"></path>
  <path d="M145.134933 82.010925L214.582687 139.836807" style="stroke:rgb(0.000000%,0.000000%,0.000000%); stroke-width: 1.992523;stroke-linecap: round;stroke-linejoin: round;stroke-miterlimit: 10.000000;fill: none;"></path>
  <path d="M210.762970 138.648392L214.582687 139.836807L212.722137 136.295486Z" style="stroke:rgb(0.000000%,0.000000%,0.000000%); stroke-width: 1.992523;fill: rgb(0.000000%,0.000000%,0.000000%);"></path>
  <path d="M150.804153 82.010925L356.312805 139.836807" style="stroke:rgb(0.000000%,0.000000%,0.000000%); stroke-width: 1.992523;stroke-linecap: round;stroke-linejoin: round;stroke-miterlimit: 10.000000;fill: none;"></path>
  <path d="M352.340500 140.309433L356.312805 139.836807L353.169815 137.362106Z" style="stroke:rgb(0.000000%,0.000000%,0.000000%); stroke-width: 1.992523;fill: rgb(0.000000%,0.000000%,0.000000%);"></path>
  <path d="M285.447754 82.010925L217.417313 139.836807" style="stroke:rgb(0.000000%,0.000000%,0.000000%); stroke-width: 1.992523;stroke-linecap: round;stroke-linejoin: round;stroke-miterlimit: 10.000000;fill: none;"></path>
  <path d="M219.241653 136.277100L217.417313 139.836807L221.224442 138.609772Z" style="stroke:rgb(0.000000%,0.000000%,0.000000%); stroke-width: 1.992523;fill: rgb(0.000000%,0.000000%,0.000000%);"></path>
  <path d="M288.282379 82.010925L360.564728 139.836807" style="stroke:rgb(0.000000%,0.000000%,0.000000%); stroke-width: 1.992523;stroke-linecap: round;stroke-linejoin: round;stroke-miterlimit: 10.000000;fill: none;"></path>
  <path d="M356.722672 138.723557L360.564728 139.836807L358.635239 136.332840Z" style="stroke:rgb(0.000000%,0.000000%,0.000000%); stroke-width: 1.992523;fill: rgb(0.000000%,0.000000%,0.000000%);"></path>
  <path d="M238.676819 54.231812L193.323181 54.231812" style="stroke:rgb(0.000000%,0.000000%,0.000000%); stroke-width: 1.992523;stroke-linecap: round;stroke-linejoin: round;stroke-miterlimit: 10.000000;fill: none;"></path>
  <path d="M197.018661 52.701050L193.323181 54.231812L197.018661 55.762573Z" style="stroke:rgb(0.000000%,0.000000%,0.000000%); stroke-width: 1.992523;fill: rgb(0.000000%,0.000000%,0.000000%);"></path>
  <path d="M77.104492 281.000000L204.660736 281.000000" style="stroke:rgb(0.000000%,0.000000%,0.000000%); stroke-width: 1.992523;stroke-linecap: round;stroke-linejoin: round;stroke-miterlimit: 10.000000;fill: none;"></path>
  <path d="M200.965469 282.530670L204.660736 281.000000L200.965469 279.469330Z" style="stroke:rgb(0.000000%,0.000000%,0.000000%); stroke-width: 1.992523;fill: rgb(0.000000%,0.000000%,0.000000%);"></path>
  <g transform="matrix(1.500000,-0.000000,-0.000000,1.500000,63.315002 286.065933)" style="fill: rgb(0.000000%,0.000000%,0.000000%);">
    <use xlink:href="#GLYPHptmr8r_65"></use>
  </g>
  <g transform="matrix(1.500000,-0.000000,-0.000000,1.500000,207.660736 285.864182)" style="fill: rgb(0.000000%,0.000000%,0.000000%);">
    <use xlink:href="#GLYPHptmr8r_66"></use>
  </g>
  <g transform="matrix(1.500000,-0.000000,-0.000000,1.500000,113.901566 277.895355)" style="fill: rgb(0.000000%,0.000000%,0.000000%);">
    <use xlink:href="#GLYPHptmr8r_65"></use>
    <use xlink:href="#GLYPHptmr8r_32" x="7.220077"></use>
    <use xlink:href="#GLYPHptmr8r_117" x="9.720117"></use>
    <use xlink:href="#GLYPHptmr8r_115" x="14.720196"></use>
    <use xlink:href="#GLYPHptmr8r_101" x="18.610154"></use>
    <use xlink:href="#GLYPHptmr8r_115" x="23.050165"></use>
    <use xlink:href="#GLYPHptmr8r_32" x="26.940123"></use>
    <use xlink:href="#GLYPHptmr8r_66" x="29.440163"></use>
  </g>
</svg>
