<?xml version="1.0" encoding="UTF-8" standalone="no"?>
<svg
   xmlns:dc="http://purl.org/dc/elements/1.1/"
   xmlns:cc="http://creativecommons.org/ns#"
   xmlns:rdf="http://www.w3.org/1999/02/22-rdf-syntax-ns#"
   xmlns:svg="http://www.w3.org/2000/svg"
   xmlns="http://www.w3.org/2000/svg"
   viewBox="0 0 774.52463 384.20595"
   height="384.20593"
   width="774.52466"
   xml:space="preserve"
   id="svg10"
   version="1.1"><metadata
     id="metadata16"><rdf:RDF><cc:Work
         rdf:about=""><dc:format>image/svg+xml</dc:format><dc:type
           rdf:resource="http://purl.org/dc/dcmitype/StillImage" /><dc:title></dc:title></cc:Work></rdf:RDF></metadata><defs
     id="defs14"><clipPath
       id="clipPath30"
       clipPathUnits="userSpaceOnUse"><path
         id="path28"
         d="M 0,0 H 800 V 575 H 0 Z" /></clipPath><clipPath
       id="clipPath84"
       clipPathUnits="userSpaceOnUse"><path
         id="path82"
         d="M 10.358,564.5969 H 788.3382 V 10.9052 H 10.358 Z" /></clipPath></defs><g
     transform="matrix(1.3333333,0,0,-1.3333333,-325.36669,731.75237)"
     id="g18"><g
       id="g20"><g
         id="g22"><g
           transform="matrix(1.3929,0,0,1.3872,0,1.3872)"
           id="g24"><g
             clip-path="url(#clipPath30)"
             id="g26"><g
               id="g32"><g
                 id="g78"><g
                   clip-path="url(#clipPath84)"
                   id="g80" /></g><path
                 id="path182"
                 style="fill:#c0c0c0;fill-opacity:1;fill-rule:evenodd;stroke:none"
                 d="M 373.6077,347.2711 V 274.8119 L 324.6522,235.9945 V 380.9129 Z" /><path
                 id="path184"
                 style="fill:none;stroke:#0000ff;stroke-width:0.0515;stroke-linecap:round;stroke-linejoin:miter;stroke-miterlimit:10;stroke-dasharray:none;stroke-opacity:1"
                 d="m 324.6522,235.9945 v 144.9184 l 48.9555,-33.6418 v -72.4592 z" /><text
                 id="text188"
                 style="font-variant:normal;font-weight:normal;font-size:9.31620026px;font-family:'Times New Roman';-inkscape-font-specification:'Times New Bold';writing-mode:lr-tb;fill:#080d02;fill-opacity:1;fill-rule:nonzero;stroke:none"
                 transform="matrix(1,0,0,-1,327.2288,388.1588)"><tspan
                   id="tspan186"
                   y="0"
                   x="0 8.793561 13.972437 16.561409 19.662771 22.251743 27.43062 30.01959 34.155052 38.812222 41.401192 46.580067">Multiplexing</tspan></text>
<path
                 id="path194"
                 style="fill:none;stroke:#000000;stroke-width:2.57660007;stroke-linecap:round;stroke-linejoin:miter;stroke-miterlimit:10;stroke-dasharray:none;stroke-opacity:1"
                 d="M 247.3541,321.3929 H 319.499" /><path
                 id="path196"
                 style="fill:#000000;fill-opacity:1;fill-rule:evenodd;stroke:none"
                 d="m 323.3639,321.3929 -14.1713,-5.1757 v 10.3513 z" /><path
                 id="path198"
                 style="fill:none;stroke:#000000;stroke-width:0.0515;stroke-linecap:round;stroke-linejoin:miter;stroke-miterlimit:10;stroke-dasharray:none;stroke-opacity:1"
                 d="m 323.3639,321.3929 -14.1713,5.1756 v -10.3513 z" /><path
                 id="path200"
                 style="fill:none;stroke:#000000;stroke-width:2.57660007;stroke-linecap:round;stroke-linejoin:miter;stroke-miterlimit:10;stroke-dasharray:none;stroke-opacity:1"
                 d="m 373.6077,308.4537 h 54.1088" /><path
                 id="path202"
                 style="fill:#000000;fill-opacity:1;fill-rule:evenodd;stroke:none"
                 d="M 431.5814,308.4537 417.41,303.2781 v 10.3513 z" /><path
                 id="path204"
                 style="fill:none;stroke:#000000;stroke-width:0.0515;stroke-linecap:round;stroke-linejoin:miter;stroke-miterlimit:10;stroke-dasharray:none;stroke-opacity:1"
                 d="M 431.5814,308.4537 417.41,313.6294 V 303.2781 Z" /><text
                 id="text208"
                 style="font-variant:normal;font-weight:normal;font-size:9.31620026px;font-family:'Times New Roman';-inkscape-font-specification:'Times New Bold';writing-mode:lr-tb;fill:#080d02;fill-opacity:1;fill-rule:nonzero;stroke:none"
                 transform="matrix(1,0,0,-1,183.2825,344.1657)"><tspan
                   id="tspan206"
                   y="0"
                   x="0 5.1704912 7.7510786 12.399862 17.570353 22.219137 24.799725 28.41441 30.734144 33.827122 37.955132 42.615093">Signals from</tspan></text>
<text
                 id="text212"
                 style="font-variant:normal;font-weight:normal;font-size:9.31620026px;font-family:'Times New Roman';-inkscape-font-specification:'Times New Bold';writing-mode:lr-tb;fill:#080d02;fill-opacity:1;fill-rule:nonzero;stroke:none"
                 transform="matrix(1,0,0,-1,183.1107,333.8144)"><tspan
                   id="tspan210"
                   y="0"
                   x="0 8.7944927 13.9743 16.564203 19.666498 22.256401 27.436209 30.026114 34.162506 38.820606 42.956997 47.093391">Multiplexers</tspan></text>
<path
                 id="path218"
                 style="fill:#a4c2f4;fill-opacity:1;fill-rule:nonzero;stroke:#000000;stroke-width:0.0515;stroke-linecap:round;stroke-linejoin:miter;stroke-miterlimit:10;stroke-dasharray:none;stroke-opacity:1"
                 d="m 432.8697,342.0955 h 64.2605 v -67.1283 h -64.2605 z" /><text
                 id="text222"
                 style="font-variant:normal;font-weight:normal;font-size:9.31620026px;font-family:'Times New Roman';-inkscape-font-specification:'Times New Bold';writing-mode:lr-tb;fill:#080d02;fill-opacity:1;fill-rule:nonzero;stroke:none"
                 transform="matrix(1,0,0,-1,457.0897,305.3483)"><tspan
                   id="tspan220"
                   y="0"
                   x="0 5.69313 9.3180628">PIC</tspan></text>
<path
                 id="path224"
                 style="fill:none;stroke:#000000;stroke-width:2.57660007;stroke-linecap:round;stroke-linejoin:miter;stroke-miterlimit:10;stroke-dasharray:none;stroke-opacity:1"
                 d="m 497.2848,308.4537 h 56.6853" /><path
                 id="path226"
                 style="fill:#000000;fill-opacity:1;fill-rule:evenodd;stroke:none"
                 d="m 557.835,308.4537 -14.1713,-5.1756 v 10.3513 z" /><path
                 id="path228"
                 style="fill:none;stroke:#000000;stroke-width:0.0515;stroke-linecap:round;stroke-linejoin:miter;stroke-miterlimit:10;stroke-dasharray:none;stroke-opacity:1"
                 d="m 557.835,308.4537 -14.1713,5.1757 v -10.3513 z" /><text
                 id="text232"
                 style="font-variant:normal;font-weight:normal;font-size:9.31620026px;font-family:'Times New Roman';-inkscape-font-specification:'Times New Bold';writing-mode:lr-tb;fill:#080d02;fill-opacity:1;fill-rule:nonzero;stroke:none"
                 transform="matrix(1,0,0,-1,561.6999,305.3483)"><tspan
                   id="tspan230"
                   y="0"
                   x="0 5.3484306 10.022368 12.367255 18.596998 24.826742">To BBB</tspan></text>
<text
                 id="text236"
                 style="font-variant:normal;font-weight:normal;font-size:6.55579996px;font-family:'Times New Roman';-inkscape-font-specification:'Times New Bold';writing-mode:lr-tb;fill:#080d02;fill-opacity:1;fill-rule:nonzero;stroke:none"
                 transform="matrix(1,0,0,-1,510.1678,312.4217)"><tspan
                   id="tspan234"
                   y="0"
                   x="0 4.3687849 8.0098763 10.189024 13.462991 16.736958">RS-485</tspan></text>
<text
                 id="text240"
                 style="font-variant:normal;font-weight:normal;font-size:6.55579996px;font-family:'Times New Roman';-inkscape-font-specification:'Times New Bold';writing-mode:lr-tb;fill:#080d02;fill-opacity:1;fill-rule:nonzero;stroke:none"
                 transform="matrix(0,1,1,0,441.8019,300.6902)"><tspan
                   id="tspan238"
                   y="0"
                   x="0">A</tspan></text>
<text
                 id="text244"
                 style="font-variant:normal;font-weight:normal;font-size:6.55579996px;font-family:'Times New Roman';-inkscape-font-specification:'Times New Bold';writing-mode:lr-tb;fill:#080d02;fill-opacity:1;fill-rule:nonzero;stroke:none"
                 transform="matrix(0,1,1,0,441.8019,305.3483)"><tspan
                   id="tspan242"
                   y="0"
                   x="0">D</tspan></text>
<text
                 id="text248"
                 style="font-variant:normal;font-weight:normal;font-size:6.55579996px;font-family:'Times New Roman';-inkscape-font-specification:'Times New Bold';writing-mode:lr-tb;fill:#080d02;fill-opacity:1;fill-rule:nonzero;stroke:none"
                 transform="matrix(0,1,1,0,441.8019,310.1789)"><tspan
                   id="tspan246"
                   y="0"
                   x="0">C</tspan></text>
<path
                 id="path250"
                 style="fill:none;stroke:#000000;stroke-width:2.57660007;stroke-linecap:round;stroke-linejoin:miter;stroke-miterlimit:10;stroke-dasharray:none;stroke-opacity:1"
                 d="M 247.3541,360.2103 H 319.499" /><path
                 id="path252"
                 style="fill:#000000;fill-opacity:1;fill-rule:evenodd;stroke:none"
                 d="m 323.3639,360.2103 -14.1713,-5.1757 v 10.3513 z" /><path
                 id="path254"
                 style="fill:none;stroke:#000000;stroke-width:0.0515;stroke-linecap:round;stroke-linejoin:miter;stroke-miterlimit:10;stroke-dasharray:none;stroke-opacity:1"
                 d="m 323.3639,360.2103 -14.1713,5.1756 v -10.3513 z" /><text
                 id="text258"
                 style="font-variant:normal;font-weight:normal;font-size:11.21389961px;font-family:'Times New Roman';-inkscape-font-specification:'Times New';writing-mode:lr-tb;fill:#000000;fill-opacity:1;fill-rule:nonzero;stroke:none"
                 transform="matrix(1,0,0,-1,328.603,357.4499)"><tspan
                   id="tspan256"
                   y="0"
                   x="0">1</tspan></text>
<text
                 id="text262"
                 style="font-variant:normal;font-weight:normal;font-size:11.21389961px;font-family:'Times New Roman';-inkscape-font-specification:'Times New';writing-mode:lr-tb;fill:#000000;fill-opacity:1;fill-rule:nonzero;stroke:none"
                 transform="matrix(1,0,0,-1,328.603,318.6325)"><tspan
                   id="tspan260"
                   y="0"
                   x="0">8</tspan></text>
<path
                 id="path264"
                 style="fill:#000000;fill-opacity:1;fill-rule:nonzero;stroke:#000000;stroke-width:0.0515;stroke-linecap:round;stroke-linejoin:miter;stroke-miterlimit:10;stroke-dasharray:none;stroke-opacity:1"
                 d="m 333.3612,349.9366 c 0,-1.1005 -0.8883,-1.9926 -1.984,-1.9926 -1.0957,0 -1.984,0.8921 -1.984,1.9926 0,1.1005 0.8883,1.9926 1.984,1.9926 1.0957,0 1.984,-0.8921 1.984,-1.9926" /><path
                 id="path266"
                 style="fill:#000000;fill-opacity:1;fill-rule:nonzero;stroke:#000000;stroke-width:0.0515;stroke-linecap:round;stroke-linejoin:miter;stroke-miterlimit:10;stroke-dasharray:none;stroke-opacity:1"
                 d="m 333.3612,342.1731 c 0,-1.1005 -0.8883,-1.9926 -1.984,-1.9926 -1.0957,0 -1.984,0.8921 -1.984,1.9926 0,1.1005 0.8883,1.9926 1.984,1.9926 1.0957,0 1.984,-0.8921 1.984,-1.9926" /><path
                 id="path268"
                 style="fill:#000000;fill-opacity:1;fill-rule:nonzero;stroke:#000000;stroke-width:0.0515;stroke-linecap:round;stroke-linejoin:miter;stroke-miterlimit:10;stroke-dasharray:none;stroke-opacity:1"
                 d="m 333.3612,334.4096 c 0,-1.1005 -0.8883,-1.9926 -1.984,-1.9926 -1.0957,0 -1.984,0.8921 -1.984,1.9926 0,1.1005 0.8883,1.9927 1.984,1.9927 1.0957,0 1.984,-0.8922 1.984,-1.9927" /><path
                 id="path270"
                 style="fill:#000000;fill-opacity:1;fill-rule:nonzero;stroke:#000000;stroke-width:0.0515;stroke-linecap:round;stroke-linejoin:miter;stroke-miterlimit:10;stroke-dasharray:none;stroke-opacity:1"
                 d="m 287.9099,349.9366 c 0,-1.1005 -0.8883,-1.9926 -1.984,-1.9926 -1.0958,0 -1.984,0.8921 -1.984,1.9926 0,1.1005 0.8882,1.9926 1.984,1.9926 1.0957,0 1.984,-0.8921 1.984,-1.9926" /><path
                 id="path272"
                 style="fill:#000000;fill-opacity:1;fill-rule:nonzero;stroke:#000000;stroke-width:0.0515;stroke-linecap:round;stroke-linejoin:miter;stroke-miterlimit:10;stroke-dasharray:none;stroke-opacity:1"
                 d="m 287.9099,342.1731 c 0,-1.1005 -0.8883,-1.9926 -1.984,-1.9926 -1.0958,0 -1.984,0.8921 -1.984,1.9926 0,1.1005 0.8882,1.9926 1.984,1.9926 1.0957,0 1.984,-0.8921 1.984,-1.9926" /><path
                 id="path274"
                 style="fill:#000000;fill-opacity:1;fill-rule:nonzero;stroke:#000000;stroke-width:0.0515;stroke-linecap:round;stroke-linejoin:miter;stroke-miterlimit:10;stroke-dasharray:none;stroke-opacity:1"
                 d="m 287.9099,334.4096 c 0,-1.1005 -0.8883,-1.9926 -1.984,-1.9926 -1.0958,0 -1.984,0.8921 -1.984,1.9926 0,1.1005 0.8882,1.9927 1.984,1.9927 1.0957,0 1.984,-0.8922 1.984,-1.9927" /><path
                 id="path276"
                 style="fill:none;stroke:#000000;stroke-width:2.57660007;stroke-linecap:round;stroke-linejoin:miter;stroke-miterlimit:10;stroke-dasharray:none;stroke-opacity:1"
                 d="M 247.3541,259.285 H 319.499" /><path
                 id="path278"
                 style="fill:#000000;fill-opacity:1;fill-rule:evenodd;stroke:none"
                 d="m 323.3639,259.285 -14.1713,-5.1757 v 10.3513 z" /><path
                 id="path280"
                 style="fill:none;stroke:#000000;stroke-width:0.0515;stroke-linecap:round;stroke-linejoin:miter;stroke-miterlimit:10;stroke-dasharray:none;stroke-opacity:1"
                 d="m 323.3639,259.285 -14.1713,5.1756 v -10.3513 z" /><text
                 id="text284"
                 style="font-variant:normal;font-weight:normal;font-size:9.31620026px;font-family:'Times New Roman';-inkscape-font-specification:'Times New Bold';writing-mode:lr-tb;fill:#080d02;fill-opacity:1;fill-rule:nonzero;stroke:none"
                 transform="matrix(1,0,0,-1,180.7059,282.0579)"><tspan
                   id="tspan282"
                   y="0"
                   x="0 5.1704912 7.7510786 12.399862 17.570353 22.219137 24.799725 28.41441 30.734144 33.827122 37.955132 42.615093">Signals from</tspan></text>
<text
                 id="text288"
                 style="font-variant:normal;font-weight:normal;font-size:9.31620026px;font-family:'Times New Roman';-inkscape-font-specification:'Times New Bold';writing-mode:lr-tb;fill:#080d02;fill-opacity:1;fill-rule:nonzero;stroke:none"
                 transform="matrix(1,0,0,-1,175.0374,271.7065)"><tspan
                   id="tspan286"
                   y="0"
                   x="0 5.6595917 10.285085 16.978775 21.082561 25.18821 27.529371 34.26778 38.416283 41.530689 45.679192 49.827694 52.942101 57.612312">Power Detector</tspan></text>
<path
                 id="path290"
                 style="fill:none;stroke:#000000;stroke-width:2.57660007;stroke-linecap:round;stroke-linejoin:miter;stroke-miterlimit:10;stroke-dasharray:none;stroke-opacity:1"
                 d="M 247.3541,298.1024 H 319.499" /><path
                 id="path292"
                 style="fill:#000000;fill-opacity:1;fill-rule:evenodd;stroke:none"
                 d="m 323.3639,298.1024 -14.1713,-5.1757 v 10.3514 z" /><path
                 id="path294"
                 style="fill:none;stroke:#000000;stroke-width:0.0515;stroke-linecap:round;stroke-linejoin:miter;stroke-miterlimit:10;stroke-dasharray:none;stroke-opacity:1"
                 d="m 323.3639,298.1024 -14.1713,5.1757 v -10.3514 z" /><text
                 id="text298"
                 style="font-variant:normal;font-weight:normal;font-size:11.21389961px;font-family:'Times New Roman';-inkscape-font-specification:'Times New';writing-mode:lr-tb;fill:#000000;fill-opacity:1;fill-rule:nonzero;stroke:none"
                 transform="matrix(1,0,0,-1,327.2288,295.342)"><tspan
                   id="tspan296"
                   y="0"
                   x="0 7.4796715 13.7146">RF1</tspan></text>
<text
                 id="text302"
                 style="font-variant:normal;font-weight:normal;font-size:11.21389961px;font-family:'Times New Roman';-inkscape-font-specification:'Times New';writing-mode:lr-tb;fill:#000000;fill-opacity:1;fill-rule:nonzero;stroke:none"
                 transform="matrix(1,0,0,-1,327.2288,282.4029)"><tspan
                   id="tspan300"
                   y="0"
                   x="0 7.4796715 13.7146">RF2</tspan></text>
<text
                 id="text306"
                 style="font-variant:normal;font-weight:normal;font-size:11.21389961px;font-family:'Times New Roman';-inkscape-font-specification:'Times New';writing-mode:lr-tb;fill:#000000;fill-opacity:1;fill-rule:nonzero;stroke:none"
                 transform="matrix(1,0,0,-1,327.2288,269.4638)"><tspan
                   id="tspan304"
                   y="0"
                   x="0 7.4796715 13.7146">RF3</tspan></text>
<text
                 id="text310"
                 style="font-variant:normal;font-weight:normal;font-size:11.21389961px;font-family:'Times New Roman';-inkscape-font-specification:'Times New';writing-mode:lr-tb;fill:#000000;fill-opacity:1;fill-rule:nonzero;stroke:none"
                 transform="matrix(1,0,0,-1,327.2288,256.5246)"><tspan
                   id="tspan308"
                   y="0"
                   x="0 7.4796715 13.7146">RF4</tspan></text>
<path
                 id="path312"
                 style="fill:none;stroke:#000000;stroke-width:2.57660007;stroke-linecap:round;stroke-linejoin:miter;stroke-miterlimit:10;stroke-dasharray:none;stroke-opacity:1"
                 d="M 247.3541,285.1633 H 319.499" /><path
                 id="path314"
                 style="fill:#000000;fill-opacity:1;fill-rule:evenodd;stroke:none"
                 d="m 323.3639,285.1633 -14.1713,-5.1757 v 10.3513 z" /><path
                 id="path316"
                 style="fill:none;stroke:#000000;stroke-width:0.0515;stroke-linecap:round;stroke-linejoin:miter;stroke-miterlimit:10;stroke-dasharray:none;stroke-opacity:1"
                 d="m 323.3639,285.1633 -14.1713,5.1756 v -10.3513 z" /><path
                 id="path318"
                 style="fill:none;stroke:#000000;stroke-width:2.57660007;stroke-linecap:round;stroke-linejoin:miter;stroke-miterlimit:10;stroke-dasharray:none;stroke-opacity:1"
                 d="M 247.3541,272.2241 H 319.499" /><path
                 id="path320"
                 style="fill:#000000;fill-opacity:1;fill-rule:evenodd;stroke:none"
                 d="m 323.3639,272.2241 -14.1713,-5.1756 v 10.3513 z" /><path
                 id="path322"
                 style="fill:none;stroke:#000000;stroke-width:0.0515;stroke-linecap:round;stroke-linejoin:miter;stroke-miterlimit:10;stroke-dasharray:none;stroke-opacity:1"
                 d="m 323.3639,272.2241 -14.1713,5.1757 v -10.3513 z" /><path
                 id="path324"
                 style="fill:none;stroke:#000000;stroke-width:2.57660007;stroke-linecap:round;stroke-linejoin:miter;stroke-miterlimit:10;stroke-dasharray:none;stroke-opacity:1"
                 d="M 463.7889,274.8119 V 197.1771 H 304.0394" /><path
                 id="path326"
                 style="fill:#000000;fill-opacity:1;fill-rule:evenodd;stroke:none"
                 d="m 314.3458,192.0014 -14.1713,5.1757 14.1713,5.1757 z" /><path
                 id="path328"
                 style="fill:none;stroke:#000000;stroke-width:0.0515;stroke-linecap:round;stroke-linejoin:miter;stroke-miterlimit:10;stroke-dasharray:none;stroke-opacity:1"
                 d="m 300.1745,197.1771 14.1713,-5.1757 v 10.3514 z" /><text
                 id="text332"
                 style="font-variant:normal;font-weight:normal;font-size:9.31620026px;font-family:'Times New Roman';-inkscape-font-specification:'Times New Bold';writing-mode:lr-tb;fill:#080d02;fill-opacity:1;fill-rule:nonzero;stroke:none"
                 transform="matrix(1,0,0,-1,234.1275,199.2474)"><tspan
                   id="tspan330"
                   y="0"
                   x="0 6.6927581 11.31732 16.463589 19.532345 23.635199 28.301683 30.899973 33.237408 36.869793 39.468082 44.134567 49.322758 53.989243">Control signal</tspan></text>
<text
                 id="text336"
                 style="font-variant:normal;font-weight:normal;font-size:9.31620026px;font-family:'Times New Roman';-inkscape-font-specification:'Times New Bold';writing-mode:lr-tb;fill:#080d02;fill-opacity:1;fill-rule:nonzero;stroke:none"
                 transform="matrix(1,0,0,-1,232.0662,188.896)"><tspan
                   id="tspan334"
                   y="0"
                   x="0 3.1088159 7.7734375 10.109009 18.910023 24.096352 26.692776 29.801592 32.398018 37.584347 40.180771 44.323685 48.988308 53.131222 57.274136">to Multiplexers</tspan></text>
</g></g></g></g></g></g></svg>