<?xml version="1.0" encoding="utf-8" standalone="no"?>
<!DOCTYPE svg PUBLIC "-//W3C//DTD SVG 1.1//EN"
  "http://www.w3.org/Graphics/SVG/1.1/DTD/svg11.dtd">
<!-- Created with matplotlib (https://matplotlib.org/) -->
<svg height="720pt" version="1.1" viewBox="0 0 648 720" width="648pt" xmlns="http://www.w3.org/2000/svg" xmlns:xlink="http://www.w3.org/1999/xlink">
 <defs>
  <style type="text/css">
*{stroke-linecap:butt;stroke-linejoin:round;}
  </style>
 </defs>
 <g id="figure_1">
  <g id="patch_1">
   <path d="M 0 720 
L 648 720 
L 648 0 
L 0 0 
z
" style="fill:#ffffff;"/>
  </g>
  <g id="axes_1">
   <g id="patch_2">
    <path d="M 90.72 264 
L 635.04 264 
L 635.04 72 
L 90.72 72 
z
" style="fill:#ffffff;"/>
   </g>
   <g id="matplotlib.axis_1">
    <g id="xtick_1">
     <g id="line2d_1">
      <path clip-path="url(#p88e22ac5ac)" d="M 115.461818 264 
L 115.461818 72 
" style="fill:none;stroke:#b0b0b0;stroke-linecap:square;stroke-width:0.8;"/>
     </g>
     <g id="line2d_2">
      <defs>
       <path d="M 0 0 
L 0 3.5 
" id="mb1c24c50a3" style="stroke:#000000;stroke-width:0.8;"/>
      </defs>
      <g>
       <use style="stroke:#000000;stroke-width:0.8;" x="115.461818" xlink:href="#mb1c24c50a3" y="264"/>
      </g>
     </g>
     <g id="text_1">
      <!-- 0 -->
      <defs>
       <path d="M 31.78125 66.40625 
Q 24.171875 66.40625 20.328125 58.90625 
Q 16.5 51.421875 16.5 36.375 
Q 16.5 21.390625 20.328125 13.890625 
Q 24.171875 6.390625 31.78125 6.390625 
Q 39.453125 6.390625 43.28125 13.890625 
Q 47.125 21.390625 47.125 36.375 
Q 47.125 51.421875 43.28125 58.90625 
Q 39.453125 66.40625 31.78125 66.40625 
z
M 31.78125 74.21875 
Q 44.046875 74.21875 50.515625 64.515625 
Q 56.984375 54.828125 56.984375 36.375 
Q 56.984375 17.96875 50.515625 8.265625 
Q 44.046875 -1.421875 31.78125 -1.421875 
Q 19.53125 -1.421875 13.0625 8.265625 
Q 6.59375 17.96875 6.59375 36.375 
Q 6.59375 54.828125 13.0625 64.515625 
Q 19.53125 74.21875 31.78125 74.21875 
z
" id="DejaVuSans-48"/>
      </defs>
      <g transform="translate(110.371818 283.1575)scale(0.16 -0.16)">
       <use xlink:href="#DejaVuSans-48"/>
      </g>
     </g>
    </g>
    <g id="xtick_2">
     <g id="line2d_3">
      <path clip-path="url(#p88e22ac5ac)" d="M 205.432066 264 
L 205.432066 72 
" style="fill:none;stroke:#b0b0b0;stroke-linecap:square;stroke-width:0.8;"/>
     </g>
     <g id="line2d_4">
      <g>
       <use style="stroke:#000000;stroke-width:0.8;" x="205.432066" xlink:href="#mb1c24c50a3" y="264"/>
      </g>
     </g>
     <g id="text_2">
      <!-- 2 -->
      <defs>
       <path d="M 19.1875 8.296875 
L 53.609375 8.296875 
L 53.609375 0 
L 7.328125 0 
L 7.328125 8.296875 
Q 12.9375 14.109375 22.625 23.890625 
Q 32.328125 33.6875 34.8125 36.53125 
Q 39.546875 41.84375 41.421875 45.53125 
Q 43.3125 49.21875 43.3125 52.78125 
Q 43.3125 58.59375 39.234375 62.25 
Q 35.15625 65.921875 28.609375 65.921875 
Q 23.96875 65.921875 18.8125 64.3125 
Q 13.671875 62.703125 7.8125 59.421875 
L 7.8125 69.390625 
Q 13.765625 71.78125 18.9375 73 
Q 24.125 74.21875 28.421875 74.21875 
Q 39.75 74.21875 46.484375 68.546875 
Q 53.21875 62.890625 53.21875 53.421875 
Q 53.21875 48.921875 51.53125 44.890625 
Q 49.859375 40.875 45.40625 35.40625 
Q 44.1875 33.984375 37.640625 27.21875 
Q 31.109375 20.453125 19.1875 8.296875 
z
" id="DejaVuSans-50"/>
      </defs>
      <g transform="translate(200.342066 283.1575)scale(0.16 -0.16)">
       <use xlink:href="#DejaVuSans-50"/>
      </g>
     </g>
    </g>
    <g id="xtick_3">
     <g id="line2d_5">
      <path clip-path="url(#p88e22ac5ac)" d="M 295.402314 264 
L 295.402314 72 
" style="fill:none;stroke:#b0b0b0;stroke-linecap:square;stroke-width:0.8;"/>
     </g>
     <g id="line2d_6">
      <g>
       <use style="stroke:#000000;stroke-width:0.8;" x="295.402314" xlink:href="#mb1c24c50a3" y="264"/>
      </g>
     </g>
     <g id="text_3">
      <!-- 4 -->
      <defs>
       <path d="M 37.796875 64.3125 
L 12.890625 25.390625 
L 37.796875 25.390625 
z
M 35.203125 72.90625 
L 47.609375 72.90625 
L 47.609375 25.390625 
L 58.015625 25.390625 
L 58.015625 17.1875 
L 47.609375 17.1875 
L 47.609375 0 
L 37.796875 0 
L 37.796875 17.1875 
L 4.890625 17.1875 
L 4.890625 26.703125 
z
" id="DejaVuSans-52"/>
      </defs>
      <g transform="translate(290.312314 283.1575)scale(0.16 -0.16)">
       <use xlink:href="#DejaVuSans-52"/>
      </g>
     </g>
    </g>
    <g id="xtick_4">
     <g id="line2d_7">
      <path clip-path="url(#p88e22ac5ac)" d="M 385.372562 264 
L 385.372562 72 
" style="fill:none;stroke:#b0b0b0;stroke-linecap:square;stroke-width:0.8;"/>
     </g>
     <g id="line2d_8">
      <g>
       <use style="stroke:#000000;stroke-width:0.8;" x="385.372562" xlink:href="#mb1c24c50a3" y="264"/>
      </g>
     </g>
     <g id="text_4">
      <!-- 6 -->
      <defs>
       <path d="M 33.015625 40.375 
Q 26.375 40.375 22.484375 35.828125 
Q 18.609375 31.296875 18.609375 23.390625 
Q 18.609375 15.53125 22.484375 10.953125 
Q 26.375 6.390625 33.015625 6.390625 
Q 39.65625 6.390625 43.53125 10.953125 
Q 47.40625 15.53125 47.40625 23.390625 
Q 47.40625 31.296875 43.53125 35.828125 
Q 39.65625 40.375 33.015625 40.375 
z
M 52.59375 71.296875 
L 52.59375 62.3125 
Q 48.875 64.0625 45.09375 64.984375 
Q 41.3125 65.921875 37.59375 65.921875 
Q 27.828125 65.921875 22.671875 59.328125 
Q 17.53125 52.734375 16.796875 39.40625 
Q 19.671875 43.65625 24.015625 45.921875 
Q 28.375 48.1875 33.59375 48.1875 
Q 44.578125 48.1875 50.953125 41.515625 
Q 57.328125 34.859375 57.328125 23.390625 
Q 57.328125 12.15625 50.6875 5.359375 
Q 44.046875 -1.421875 33.015625 -1.421875 
Q 20.359375 -1.421875 13.671875 8.265625 
Q 6.984375 17.96875 6.984375 36.375 
Q 6.984375 53.65625 15.1875 63.9375 
Q 23.390625 74.21875 37.203125 74.21875 
Q 40.921875 74.21875 44.703125 73.484375 
Q 48.484375 72.75 52.59375 71.296875 
z
" id="DejaVuSans-54"/>
      </defs>
      <g transform="translate(380.282562 283.1575)scale(0.16 -0.16)">
       <use xlink:href="#DejaVuSans-54"/>
      </g>
     </g>
    </g>
    <g id="xtick_5">
     <g id="line2d_9">
      <path clip-path="url(#p88e22ac5ac)" d="M 475.34281 264 
L 475.34281 72 
" style="fill:none;stroke:#b0b0b0;stroke-linecap:square;stroke-width:0.8;"/>
     </g>
     <g id="line2d_10">
      <g>
       <use style="stroke:#000000;stroke-width:0.8;" x="475.34281" xlink:href="#mb1c24c50a3" y="264"/>
      </g>
     </g>
     <g id="text_5">
      <!-- 8 -->
      <defs>
       <path d="M 31.78125 34.625 
Q 24.75 34.625 20.71875 30.859375 
Q 16.703125 27.09375 16.703125 20.515625 
Q 16.703125 13.921875 20.71875 10.15625 
Q 24.75 6.390625 31.78125 6.390625 
Q 38.8125 6.390625 42.859375 10.171875 
Q 46.921875 13.96875 46.921875 20.515625 
Q 46.921875 27.09375 42.890625 30.859375 
Q 38.875 34.625 31.78125 34.625 
z
M 21.921875 38.8125 
Q 15.578125 40.375 12.03125 44.71875 
Q 8.5 49.078125 8.5 55.328125 
Q 8.5 64.0625 14.71875 69.140625 
Q 20.953125 74.21875 31.78125 74.21875 
Q 42.671875 74.21875 48.875 69.140625 
Q 55.078125 64.0625 55.078125 55.328125 
Q 55.078125 49.078125 51.53125 44.71875 
Q 48 40.375 41.703125 38.8125 
Q 48.828125 37.15625 52.796875 32.3125 
Q 56.78125 27.484375 56.78125 20.515625 
Q 56.78125 9.90625 50.3125 4.234375 
Q 43.84375 -1.421875 31.78125 -1.421875 
Q 19.734375 -1.421875 13.25 4.234375 
Q 6.78125 9.90625 6.78125 20.515625 
Q 6.78125 27.484375 10.78125 32.3125 
Q 14.796875 37.15625 21.921875 38.8125 
z
M 18.3125 54.390625 
Q 18.3125 48.734375 21.84375 45.5625 
Q 25.390625 42.390625 31.78125 42.390625 
Q 38.140625 42.390625 41.71875 45.5625 
Q 45.3125 48.734375 45.3125 54.390625 
Q 45.3125 60.0625 41.71875 63.234375 
Q 38.140625 66.40625 31.78125 66.40625 
Q 25.390625 66.40625 21.84375 63.234375 
Q 18.3125 60.0625 18.3125 54.390625 
z
" id="DejaVuSans-56"/>
      </defs>
      <g transform="translate(470.25281 283.1575)scale(0.16 -0.16)">
       <use xlink:href="#DejaVuSans-56"/>
      </g>
     </g>
    </g>
    <g id="xtick_6">
     <g id="line2d_11">
      <path clip-path="url(#p88e22ac5ac)" d="M 565.313058 264 
L 565.313058 72 
" style="fill:none;stroke:#b0b0b0;stroke-linecap:square;stroke-width:0.8;"/>
     </g>
     <g id="line2d_12">
      <g>
       <use style="stroke:#000000;stroke-width:0.8;" x="565.313058" xlink:href="#mb1c24c50a3" y="264"/>
      </g>
     </g>
     <g id="text_6">
      <!-- 10 -->
      <defs>
       <path d="M 12.40625 8.296875 
L 28.515625 8.296875 
L 28.515625 63.921875 
L 10.984375 60.40625 
L 10.984375 69.390625 
L 28.421875 72.90625 
L 38.28125 72.90625 
L 38.28125 8.296875 
L 54.390625 8.296875 
L 54.390625 0 
L 12.40625 0 
z
" id="DejaVuSans-49"/>
      </defs>
      <g transform="translate(555.133058 283.1575)scale(0.16 -0.16)">
       <use xlink:href="#DejaVuSans-49"/>
       <use x="63.623047" xlink:href="#DejaVuSans-48"/>
      </g>
     </g>
    </g>
   </g>
   <g id="matplotlib.axis_2">
    <g id="ytick_1">
     <g id="line2d_13">
      <path clip-path="url(#p88e22ac5ac)" d="M 90.72 229.162907 
L 635.04 229.162907 
" style="fill:none;stroke:#b0b0b0;stroke-linecap:square;stroke-width:0.8;"/>
     </g>
     <g id="line2d_14">
      <defs>
       <path d="M 0 0 
L -3.5 0 
" id="m10cb0bdd92" style="stroke:#000000;stroke-width:0.8;"/>
      </defs>
      <g>
       <use style="stroke:#000000;stroke-width:0.8;" x="90.72" xlink:href="#m10cb0bdd92" y="229.162907"/>
      </g>
     </g>
     <g id="text_7">
      <!-- 0.025 -->
      <defs>
       <path d="M 10.6875 12.40625 
L 21 12.40625 
L 21 0 
L 10.6875 0 
z
" id="DejaVuSans-46"/>
       <path d="M 10.796875 72.90625 
L 49.515625 72.90625 
L 49.515625 64.59375 
L 19.828125 64.59375 
L 19.828125 46.734375 
Q 21.96875 47.46875 24.109375 47.828125 
Q 26.265625 48.1875 28.421875 48.1875 
Q 40.625 48.1875 47.75 41.5 
Q 54.890625 34.8125 54.890625 23.390625 
Q 54.890625 11.625 47.5625 5.09375 
Q 40.234375 -1.421875 26.90625 -1.421875 
Q 22.3125 -1.421875 17.546875 -0.640625 
Q 12.796875 0.140625 7.71875 1.703125 
L 7.71875 11.625 
Q 12.109375 9.234375 16.796875 8.0625 
Q 21.484375 6.890625 26.703125 6.890625 
Q 35.15625 6.890625 40.078125 11.328125 
Q 45.015625 15.765625 45.015625 23.390625 
Q 45.015625 31 40.078125 35.4375 
Q 35.15625 39.890625 26.703125 39.890625 
Q 22.75 39.890625 18.8125 39.015625 
Q 14.890625 38.140625 10.796875 36.28125 
z
" id="DejaVuSans-53"/>
      </defs>
      <g transform="translate(37.915 235.241657)scale(0.16 -0.16)">
       <use xlink:href="#DejaVuSans-48"/>
       <use x="63.623047" xlink:href="#DejaVuSans-46"/>
       <use x="95.410156" xlink:href="#DejaVuSans-48"/>
       <use x="159.033203" xlink:href="#DejaVuSans-50"/>
       <use x="222.65625" xlink:href="#DejaVuSans-53"/>
      </g>
     </g>
    </g>
    <g id="ytick_2">
     <g id="line2d_15">
      <path clip-path="url(#p88e22ac5ac)" d="M 90.72 191.272053 
L 635.04 191.272053 
" style="fill:none;stroke:#b0b0b0;stroke-linecap:square;stroke-width:0.8;"/>
     </g>
     <g id="line2d_16">
      <g>
       <use style="stroke:#000000;stroke-width:0.8;" x="90.72" xlink:href="#m10cb0bdd92" y="191.272053"/>
      </g>
     </g>
     <g id="text_8">
      <!-- 0.050 -->
      <g transform="translate(37.915 197.350803)scale(0.16 -0.16)">
       <use xlink:href="#DejaVuSans-48"/>
       <use x="63.623047" xlink:href="#DejaVuSans-46"/>
       <use x="95.410156" xlink:href="#DejaVuSans-48"/>
       <use x="159.033203" xlink:href="#DejaVuSans-53"/>
       <use x="222.65625" xlink:href="#DejaVuSans-48"/>
      </g>
     </g>
    </g>
    <g id="ytick_3">
     <g id="line2d_17">
      <path clip-path="url(#p88e22ac5ac)" d="M 90.72 153.381199 
L 635.04 153.381199 
" style="fill:none;stroke:#b0b0b0;stroke-linecap:square;stroke-width:0.8;"/>
     </g>
     <g id="line2d_18">
      <g>
       <use style="stroke:#000000;stroke-width:0.8;" x="90.72" xlink:href="#m10cb0bdd92" y="153.381199"/>
      </g>
     </g>
     <g id="text_9">
      <!-- 0.075 -->
      <defs>
       <path d="M 8.203125 72.90625 
L 55.078125 72.90625 
L 55.078125 68.703125 
L 28.609375 0 
L 18.3125 0 
L 43.21875 64.59375 
L 8.203125 64.59375 
z
" id="DejaVuSans-55"/>
      </defs>
      <g transform="translate(37.915 159.459949)scale(0.16 -0.16)">
       <use xlink:href="#DejaVuSans-48"/>
       <use x="63.623047" xlink:href="#DejaVuSans-46"/>
       <use x="95.410156" xlink:href="#DejaVuSans-48"/>
       <use x="159.033203" xlink:href="#DejaVuSans-55"/>
       <use x="222.65625" xlink:href="#DejaVuSans-53"/>
      </g>
     </g>
    </g>
    <g id="ytick_4">
     <g id="line2d_19">
      <path clip-path="url(#p88e22ac5ac)" d="M 90.72 115.490345 
L 635.04 115.490345 
" style="fill:none;stroke:#b0b0b0;stroke-linecap:square;stroke-width:0.8;"/>
     </g>
     <g id="line2d_20">
      <g>
       <use style="stroke:#000000;stroke-width:0.8;" x="90.72" xlink:href="#m10cb0bdd92" y="115.490345"/>
      </g>
     </g>
     <g id="text_10">
      <!-- 0.100 -->
      <g transform="translate(37.915 121.569095)scale(0.16 -0.16)">
       <use xlink:href="#DejaVuSans-48"/>
       <use x="63.623047" xlink:href="#DejaVuSans-46"/>
       <use x="95.410156" xlink:href="#DejaVuSans-49"/>
       <use x="159.033203" xlink:href="#DejaVuSans-48"/>
       <use x="222.65625" xlink:href="#DejaVuSans-48"/>
      </g>
     </g>
    </g>
    <g id="ytick_5">
     <g id="line2d_21">
      <path clip-path="url(#p88e22ac5ac)" d="M 90.72 77.599491 
L 635.04 77.599491 
" style="fill:none;stroke:#b0b0b0;stroke-linecap:square;stroke-width:0.8;"/>
     </g>
     <g id="line2d_22">
      <g>
       <use style="stroke:#000000;stroke-width:0.8;" x="90.72" xlink:href="#m10cb0bdd92" y="77.599491"/>
      </g>
     </g>
     <g id="text_11">
      <!-- 0.125 -->
      <g transform="translate(37.915 83.678241)scale(0.16 -0.16)">
       <use xlink:href="#DejaVuSans-48"/>
       <use x="63.623047" xlink:href="#DejaVuSans-46"/>
       <use x="95.410156" xlink:href="#DejaVuSans-49"/>
       <use x="159.033203" xlink:href="#DejaVuSans-50"/>
       <use x="222.65625" xlink:href="#DejaVuSans-53"/>
      </g>
     </g>
    </g>
    <g id="text_12">
     <!-- Bx -->
     <defs>
      <path d="M 19.671875 34.8125 
L 19.671875 8.109375 
L 35.5 8.109375 
Q 43.453125 8.109375 47.28125 11.40625 
Q 51.125 14.703125 51.125 21.484375 
Q 51.125 28.328125 47.28125 31.5625 
Q 43.453125 34.8125 35.5 34.8125 
z
M 19.671875 64.796875 
L 19.671875 42.828125 
L 34.28125 42.828125 
Q 41.5 42.828125 45.03125 45.53125 
Q 48.578125 48.25 48.578125 53.8125 
Q 48.578125 59.328125 45.03125 62.0625 
Q 41.5 64.796875 34.28125 64.796875 
z
M 9.8125 72.90625 
L 35.015625 72.90625 
Q 46.296875 72.90625 52.390625 68.21875 
Q 58.5 63.53125 58.5 54.890625 
Q 58.5 48.1875 55.375 44.234375 
Q 52.25 40.28125 46.1875 39.3125 
Q 53.46875 37.75 57.5 32.78125 
Q 61.53125 27.828125 61.53125 20.40625 
Q 61.53125 10.640625 54.890625 5.3125 
Q 48.25 0 35.984375 0 
L 9.8125 0 
z
" id="DejaVuSans-66"/>
      <path d="M 54.890625 54.6875 
L 35.109375 28.078125 
L 55.90625 0 
L 45.3125 0 
L 29.390625 21.484375 
L 13.484375 0 
L 2.875 0 
L 24.125 28.609375 
L 4.6875 54.6875 
L 15.28125 54.6875 
L 29.78125 35.203125 
L 44.28125 54.6875 
z
" id="DejaVuSans-120"/>
     </defs>
     <g transform="translate(30.5875 178.22375)rotate(-90)scale(0.16 -0.16)">
      <use xlink:href="#DejaVuSans-66"/>
      <use x="68.603516" xlink:href="#DejaVuSans-120"/>
     </g>
    </g>
   </g>
   <g id="line2d_23">
    <path clip-path="url(#p88e22ac5ac)" d="M 115.461818 180.157858 
L 160.446942 177.096637 
L 205.432066 168.40761 
L 250.41719 156.022646 
L 295.402314 141.909418 
L 340.387438 127.529703 
L 385.372562 113.917444 
L 430.357686 101.996442 
L 475.34281 92.400415 
L 520.327934 85.465796 
L 565.313058 81.516859 
L 610.298182 80.727273 
" style="fill:none;stroke:#1f77b4;stroke-linecap:square;stroke-width:2;"/>
    <defs>
     <path d="M 0 3 
C 0.795609 3 1.55874 2.683901 2.12132 2.12132 
C 2.683901 1.55874 3 0.795609 3 0 
C 3 -0.795609 2.683901 -1.55874 2.12132 -2.12132 
C 1.55874 -2.683901 0.795609 -3 0 -3 
C -0.795609 -3 -1.55874 -2.683901 -2.12132 -2.12132 
C -2.683901 -1.55874 -3 -0.795609 -3 0 
C -3 0.795609 -2.683901 1.55874 -2.12132 2.12132 
C -1.55874 2.683901 -0.795609 3 0 3 
z
" id="mfdafdbc4dd" style="stroke:#1f77b4;"/>
    </defs>
    <g clip-path="url(#p88e22ac5ac)">
     <use style="fill:#1f77b4;stroke:#1f77b4;" x="115.461818" xlink:href="#mfdafdbc4dd" y="180.157858"/>
     <use style="fill:#1f77b4;stroke:#1f77b4;" x="160.446942" xlink:href="#mfdafdbc4dd" y="177.096637"/>
     <use style="fill:#1f77b4;stroke:#1f77b4;" x="205.432066" xlink:href="#mfdafdbc4dd" y="168.40761"/>
     <use style="fill:#1f77b4;stroke:#1f77b4;" x="250.41719" xlink:href="#mfdafdbc4dd" y="156.022646"/>
     <use style="fill:#1f77b4;stroke:#1f77b4;" x="295.402314" xlink:href="#mfdafdbc4dd" y="141.909418"/>
     <use style="fill:#1f77b4;stroke:#1f77b4;" x="340.387438" xlink:href="#mfdafdbc4dd" y="127.529703"/>
     <use style="fill:#1f77b4;stroke:#1f77b4;" x="385.372562" xlink:href="#mfdafdbc4dd" y="113.917444"/>
     <use style="fill:#1f77b4;stroke:#1f77b4;" x="430.357686" xlink:href="#mfdafdbc4dd" y="101.996442"/>
     <use style="fill:#1f77b4;stroke:#1f77b4;" x="475.34281" xlink:href="#mfdafdbc4dd" y="92.400415"/>
     <use style="fill:#1f77b4;stroke:#1f77b4;" x="520.327934" xlink:href="#mfdafdbc4dd" y="85.465796"/>
     <use style="fill:#1f77b4;stroke:#1f77b4;" x="565.313058" xlink:href="#mfdafdbc4dd" y="81.516859"/>
     <use style="fill:#1f77b4;stroke:#1f77b4;" x="610.298182" xlink:href="#mfdafdbc4dd" y="80.727273"/>
    </g>
   </g>
   <g id="line2d_24">
    <path clip-path="url(#p88e22ac5ac)" d="M 115.461818 255.272727 
L 160.446942 251.537013 
L 205.432066 247.946541 
L 250.41719 244.673542 
L 295.402314 241.821281 
L 340.387438 239.456405 
L 385.372562 237.614057 
L 430.357686 236.370697 
L 475.34281 235.77112 
L 520.327934 235.834806 
L 565.313058 236.565458 
L 610.298182 237.937919 
" style="fill:none;stroke:#ff7f0e;stroke-linecap:square;stroke-width:2;"/>
    <defs>
     <path d="M 0 3 
C 0.795609 3 1.55874 2.683901 2.12132 2.12132 
C 2.683901 1.55874 3 0.795609 3 0 
C 3 -0.795609 2.683901 -1.55874 2.12132 -2.12132 
C 1.55874 -2.683901 0.795609 -3 0 -3 
C -0.795609 -3 -1.55874 -2.683901 -2.12132 -2.12132 
C -2.683901 -1.55874 -3 -0.795609 -3 0 
C -3 0.795609 -2.683901 1.55874 -2.12132 2.12132 
C -1.55874 2.683901 -0.795609 3 0 3 
z
" id="me55adee6dd" style="stroke:#ff7f0e;"/>
    </defs>
    <g clip-path="url(#p88e22ac5ac)">
     <use style="fill:#ff7f0e;stroke:#ff7f0e;" x="115.461818" xlink:href="#me55adee6dd" y="255.272727"/>
     <use style="fill:#ff7f0e;stroke:#ff7f0e;" x="160.446942" xlink:href="#me55adee6dd" y="251.537013"/>
     <use style="fill:#ff7f0e;stroke:#ff7f0e;" x="205.432066" xlink:href="#me55adee6dd" y="247.946541"/>
     <use style="fill:#ff7f0e;stroke:#ff7f0e;" x="250.41719" xlink:href="#me55adee6dd" y="244.673542"/>
     <use style="fill:#ff7f0e;stroke:#ff7f0e;" x="295.402314" xlink:href="#me55adee6dd" y="241.821281"/>
     <use style="fill:#ff7f0e;stroke:#ff7f0e;" x="340.387438" xlink:href="#me55adee6dd" y="239.456405"/>
     <use style="fill:#ff7f0e;stroke:#ff7f0e;" x="385.372562" xlink:href="#me55adee6dd" y="237.614057"/>
     <use style="fill:#ff7f0e;stroke:#ff7f0e;" x="430.357686" xlink:href="#me55adee6dd" y="236.370697"/>
     <use style="fill:#ff7f0e;stroke:#ff7f0e;" x="475.34281" xlink:href="#me55adee6dd" y="235.77112"/>
     <use style="fill:#ff7f0e;stroke:#ff7f0e;" x="520.327934" xlink:href="#me55adee6dd" y="235.834806"/>
     <use style="fill:#ff7f0e;stroke:#ff7f0e;" x="565.313058" xlink:href="#me55adee6dd" y="236.565458"/>
     <use style="fill:#ff7f0e;stroke:#ff7f0e;" x="610.298182" xlink:href="#me55adee6dd" y="237.937919"/>
    </g>
   </g>
   <g id="line2d_25">
    <path clip-path="url(#p88e22ac5ac)" d="M 115.461818 252.055829 
L 160.446942 250.300868 
L 205.432066 248.565879 
L 250.41719 246.964951 
L 295.402314 245.602429 
L 340.387438 244.534044 
L 385.372562 243.782197 
L 430.357686 243.398361 
L 475.34281 243.407392 
L 520.327934 243.808932 
L 565.313058 244.581344 
L 610.298182 245.700343 
" style="fill:none;stroke:#2ca02c;stroke-linecap:square;stroke-width:2;"/>
    <defs>
     <path d="M 0 3 
C 0.795609 3 1.55874 2.683901 2.12132 2.12132 
C 2.683901 1.55874 3 0.795609 3 0 
C 3 -0.795609 2.683901 -1.55874 2.12132 -2.12132 
C 1.55874 -2.683901 0.795609 -3 0 -3 
C -0.795609 -3 -1.55874 -2.683901 -2.12132 -2.12132 
C -2.683901 -1.55874 -3 -0.795609 -3 0 
C -3 0.795609 -2.683901 1.55874 -2.12132 2.12132 
C -1.55874 2.683901 -0.795609 3 0 3 
z
" id="m4277ffdf09" style="stroke:#2ca02c;"/>
    </defs>
    <g clip-path="url(#p88e22ac5ac)">
     <use style="fill:#2ca02c;stroke:#2ca02c;" x="115.461818" xlink:href="#m4277ffdf09" y="252.055829"/>
     <use style="fill:#2ca02c;stroke:#2ca02c;" x="160.446942" xlink:href="#m4277ffdf09" y="250.300868"/>
     <use style="fill:#2ca02c;stroke:#2ca02c;" x="205.432066" xlink:href="#m4277ffdf09" y="248.565879"/>
     <use style="fill:#2ca02c;stroke:#2ca02c;" x="250.41719" xlink:href="#m4277ffdf09" y="246.964951"/>
     <use style="fill:#2ca02c;stroke:#2ca02c;" x="295.402314" xlink:href="#m4277ffdf09" y="245.602429"/>
     <use style="fill:#2ca02c;stroke:#2ca02c;" x="340.387438" xlink:href="#m4277ffdf09" y="244.534044"/>
     <use style="fill:#2ca02c;stroke:#2ca02c;" x="385.372562" xlink:href="#m4277ffdf09" y="243.782197"/>
     <use style="fill:#2ca02c;stroke:#2ca02c;" x="430.357686" xlink:href="#m4277ffdf09" y="243.398361"/>
     <use style="fill:#2ca02c;stroke:#2ca02c;" x="475.34281" xlink:href="#m4277ffdf09" y="243.407392"/>
     <use style="fill:#2ca02c;stroke:#2ca02c;" x="520.327934" xlink:href="#m4277ffdf09" y="243.808932"/>
     <use style="fill:#2ca02c;stroke:#2ca02c;" x="565.313058" xlink:href="#m4277ffdf09" y="244.581344"/>
     <use style="fill:#2ca02c;stroke:#2ca02c;" x="610.298182" xlink:href="#m4277ffdf09" y="245.700343"/>
    </g>
   </g>
   <g id="line2d_26">
    <path clip-path="url(#p88e22ac5ac)" d="M 115.461818 247.394907 
L 160.446942 246.52625 
L 205.432066 244.971375 
L 250.41719 242.939642 
L 295.402314 240.708022 
L 340.387438 238.471375 
L 385.372562 236.375915 
L 430.357686 234.582072 
L 475.34281 233.191829 
L 520.327934 232.261071 
L 565.313058 231.839333 
L 610.298182 231.961953 
" style="fill:none;stroke:#d62728;stroke-linecap:square;stroke-width:2;"/>
    <defs>
     <path d="M 0 3 
C 0.795609 3 1.55874 2.683901 2.12132 2.12132 
C 2.683901 1.55874 3 0.795609 3 0 
C 3 -0.795609 2.683901 -1.55874 2.12132 -2.12132 
C 1.55874 -2.683901 0.795609 -3 0 -3 
C -0.795609 -3 -1.55874 -2.683901 -2.12132 -2.12132 
C -2.683901 -1.55874 -3 -0.795609 -3 0 
C -3 0.795609 -2.683901 1.55874 -2.12132 2.12132 
C -1.55874 2.683901 -0.795609 3 0 3 
z
" id="m787740bd32" style="stroke:#d62728;"/>
    </defs>
    <g clip-path="url(#p88e22ac5ac)">
     <use style="fill:#d62728;stroke:#d62728;" x="115.461818" xlink:href="#m787740bd32" y="247.394907"/>
     <use style="fill:#d62728;stroke:#d62728;" x="160.446942" xlink:href="#m787740bd32" y="246.52625"/>
     <use style="fill:#d62728;stroke:#d62728;" x="205.432066" xlink:href="#m787740bd32" y="244.971375"/>
     <use style="fill:#d62728;stroke:#d62728;" x="250.41719" xlink:href="#m787740bd32" y="242.939642"/>
     <use style="fill:#d62728;stroke:#d62728;" x="295.402314" xlink:href="#m787740bd32" y="240.708022"/>
     <use style="fill:#d62728;stroke:#d62728;" x="340.387438" xlink:href="#m787740bd32" y="238.471375"/>
     <use style="fill:#d62728;stroke:#d62728;" x="385.372562" xlink:href="#m787740bd32" y="236.375915"/>
     <use style="fill:#d62728;stroke:#d62728;" x="430.357686" xlink:href="#m787740bd32" y="234.582072"/>
     <use style="fill:#d62728;stroke:#d62728;" x="475.34281" xlink:href="#m787740bd32" y="233.191829"/>
     <use style="fill:#d62728;stroke:#d62728;" x="520.327934" xlink:href="#m787740bd32" y="232.261071"/>
     <use style="fill:#d62728;stroke:#d62728;" x="565.313058" xlink:href="#m787740bd32" y="231.839333"/>
     <use style="fill:#d62728;stroke:#d62728;" x="610.298182" xlink:href="#m787740bd32" y="231.961953"/>
    </g>
   </g>
   <g id="line2d_27">
    <path clip-path="url(#p88e22ac5ac)" d="M 115.461818 206.615415 
L 160.446942 203.814137 
L 205.432066 193.815882 
L 250.41719 179.641245 
L 295.402314 163.807933 
L 340.387438 148.040144 
L 385.372562 133.29739 
L 430.357686 120.460396 
L 475.34281 110.096783 
L 520.327934 102.48443 
L 565.313058 97.906484 
L 610.298182 96.51896 
" style="fill:none;stroke:#9467bd;stroke-linecap:square;stroke-width:2;"/>
    <defs>
     <path d="M 0 3 
C 0.795609 3 1.55874 2.683901 2.12132 2.12132 
C 2.683901 1.55874 3 0.795609 3 0 
C 3 -0.795609 2.683901 -1.55874 2.12132 -2.12132 
C 1.55874 -2.683901 0.795609 -3 0 -3 
C -0.795609 -3 -1.55874 -2.683901 -2.12132 -2.12132 
C -2.683901 -1.55874 -3 -0.795609 -3 0 
C -3 0.795609 -2.683901 1.55874 -2.12132 2.12132 
C -1.55874 2.683901 -0.795609 3 0 3 
z
" id="m071e6fbfa1" style="stroke:#9467bd;"/>
    </defs>
    <g clip-path="url(#p88e22ac5ac)">
     <use style="fill:#9467bd;stroke:#9467bd;" x="115.461818" xlink:href="#m071e6fbfa1" y="206.615415"/>
     <use style="fill:#9467bd;stroke:#9467bd;" x="160.446942" xlink:href="#m071e6fbfa1" y="203.814137"/>
     <use style="fill:#9467bd;stroke:#9467bd;" x="205.432066" xlink:href="#m071e6fbfa1" y="193.815882"/>
     <use style="fill:#9467bd;stroke:#9467bd;" x="250.41719" xlink:href="#m071e6fbfa1" y="179.641245"/>
     <use style="fill:#9467bd;stroke:#9467bd;" x="295.402314" xlink:href="#m071e6fbfa1" y="163.807933"/>
     <use style="fill:#9467bd;stroke:#9467bd;" x="340.387438" xlink:href="#m071e6fbfa1" y="148.040144"/>
     <use style="fill:#9467bd;stroke:#9467bd;" x="385.372562" xlink:href="#m071e6fbfa1" y="133.29739"/>
     <use style="fill:#9467bd;stroke:#9467bd;" x="430.357686" xlink:href="#m071e6fbfa1" y="120.460396"/>
     <use style="fill:#9467bd;stroke:#9467bd;" x="475.34281" xlink:href="#m071e6fbfa1" y="110.096783"/>
     <use style="fill:#9467bd;stroke:#9467bd;" x="520.327934" xlink:href="#m071e6fbfa1" y="102.48443"/>
     <use style="fill:#9467bd;stroke:#9467bd;" x="565.313058" xlink:href="#m071e6fbfa1" y="97.906484"/>
     <use style="fill:#9467bd;stroke:#9467bd;" x="610.298182" xlink:href="#m071e6fbfa1" y="96.51896"/>
    </g>
   </g>
   <g id="patch_3">
    <path d="M 90.72 264 
L 90.72 72 
" style="fill:none;stroke:#000000;stroke-linecap:square;stroke-linejoin:miter;stroke-width:0.8;"/>
   </g>
   <g id="patch_4">
    <path d="M 635.04 264 
L 635.04 72 
" style="fill:none;stroke:#000000;stroke-linecap:square;stroke-linejoin:miter;stroke-width:0.8;"/>
   </g>
   <g id="patch_5">
    <path d="M 90.72 264 
L 635.04 264 
" style="fill:none;stroke:#000000;stroke-linecap:square;stroke-linejoin:miter;stroke-width:0.8;"/>
   </g>
   <g id="patch_6">
    <path d="M 90.72 72 
L 635.04 72 
" style="fill:none;stroke:#000000;stroke-linecap:square;stroke-linejoin:miter;stroke-width:0.8;"/>
   </g>
   <g id="text_13">
    <!-- Amplitude [T] -->
    <defs>
     <path d="M 34.1875 63.1875 
L 20.796875 26.90625 
L 47.609375 26.90625 
z
M 28.609375 72.90625 
L 39.796875 72.90625 
L 67.578125 0 
L 57.328125 0 
L 50.6875 18.703125 
L 17.828125 18.703125 
L 11.1875 0 
L 0.78125 0 
z
" id="DejaVuSans-65"/>
     <path d="M 52 44.1875 
Q 55.375 50.25 60.0625 53.125 
Q 64.75 56 71.09375 56 
Q 79.640625 56 84.28125 50.015625 
Q 88.921875 44.046875 88.921875 33.015625 
L 88.921875 0 
L 79.890625 0 
L 79.890625 32.71875 
Q 79.890625 40.578125 77.09375 44.375 
Q 74.3125 48.1875 68.609375 48.1875 
Q 61.625 48.1875 57.5625 43.546875 
Q 53.515625 38.921875 53.515625 30.90625 
L 53.515625 0 
L 44.484375 0 
L 44.484375 32.71875 
Q 44.484375 40.625 41.703125 44.40625 
Q 38.921875 48.1875 33.109375 48.1875 
Q 26.21875 48.1875 22.15625 43.53125 
Q 18.109375 38.875 18.109375 30.90625 
L 18.109375 0 
L 9.078125 0 
L 9.078125 54.6875 
L 18.109375 54.6875 
L 18.109375 46.1875 
Q 21.1875 51.21875 25.484375 53.609375 
Q 29.78125 56 35.6875 56 
Q 41.65625 56 45.828125 52.96875 
Q 50 49.953125 52 44.1875 
z
" id="DejaVuSans-109"/>
     <path d="M 18.109375 8.203125 
L 18.109375 -20.796875 
L 9.078125 -20.796875 
L 9.078125 54.6875 
L 18.109375 54.6875 
L 18.109375 46.390625 
Q 20.953125 51.265625 25.265625 53.625 
Q 29.59375 56 35.59375 56 
Q 45.5625 56 51.78125 48.09375 
Q 58.015625 40.1875 58.015625 27.296875 
Q 58.015625 14.40625 51.78125 6.484375 
Q 45.5625 -1.421875 35.59375 -1.421875 
Q 29.59375 -1.421875 25.265625 0.953125 
Q 20.953125 3.328125 18.109375 8.203125 
z
M 48.6875 27.296875 
Q 48.6875 37.203125 44.609375 42.84375 
Q 40.53125 48.484375 33.40625 48.484375 
Q 26.265625 48.484375 22.1875 42.84375 
Q 18.109375 37.203125 18.109375 27.296875 
Q 18.109375 17.390625 22.1875 11.75 
Q 26.265625 6.109375 33.40625 6.109375 
Q 40.53125 6.109375 44.609375 11.75 
Q 48.6875 17.390625 48.6875 27.296875 
z
" id="DejaVuSans-112"/>
     <path d="M 9.421875 75.984375 
L 18.40625 75.984375 
L 18.40625 0 
L 9.421875 0 
z
" id="DejaVuSans-108"/>
     <path d="M 9.421875 54.6875 
L 18.40625 54.6875 
L 18.40625 0 
L 9.421875 0 
z
M 9.421875 75.984375 
L 18.40625 75.984375 
L 18.40625 64.59375 
L 9.421875 64.59375 
z
" id="DejaVuSans-105"/>
     <path d="M 18.3125 70.21875 
L 18.3125 54.6875 
L 36.8125 54.6875 
L 36.8125 47.703125 
L 18.3125 47.703125 
L 18.3125 18.015625 
Q 18.3125 11.328125 20.140625 9.421875 
Q 21.96875 7.515625 27.59375 7.515625 
L 36.8125 7.515625 
L 36.8125 0 
L 27.59375 0 
Q 17.1875 0 13.234375 3.875 
Q 9.28125 7.765625 9.28125 18.015625 
L 9.28125 47.703125 
L 2.6875 47.703125 
L 2.6875 54.6875 
L 9.28125 54.6875 
L 9.28125 70.21875 
z
" id="DejaVuSans-116"/>
     <path d="M 8.5 21.578125 
L 8.5 54.6875 
L 17.484375 54.6875 
L 17.484375 21.921875 
Q 17.484375 14.15625 20.5 10.265625 
Q 23.53125 6.390625 29.59375 6.390625 
Q 36.859375 6.390625 41.078125 11.03125 
Q 45.3125 15.671875 45.3125 23.6875 
L 45.3125 54.6875 
L 54.296875 54.6875 
L 54.296875 0 
L 45.3125 0 
L 45.3125 8.40625 
Q 42.046875 3.421875 37.71875 1 
Q 33.40625 -1.421875 27.6875 -1.421875 
Q 18.265625 -1.421875 13.375 4.4375 
Q 8.5 10.296875 8.5 21.578125 
z
M 31.109375 56 
z
" id="DejaVuSans-117"/>
     <path d="M 45.40625 46.390625 
L 45.40625 75.984375 
L 54.390625 75.984375 
L 54.390625 0 
L 45.40625 0 
L 45.40625 8.203125 
Q 42.578125 3.328125 38.25 0.953125 
Q 33.9375 -1.421875 27.875 -1.421875 
Q 17.96875 -1.421875 11.734375 6.484375 
Q 5.515625 14.40625 5.515625 27.296875 
Q 5.515625 40.1875 11.734375 48.09375 
Q 17.96875 56 27.875 56 
Q 33.9375 56 38.25 53.625 
Q 42.578125 51.265625 45.40625 46.390625 
z
M 14.796875 27.296875 
Q 14.796875 17.390625 18.875 11.75 
Q 22.953125 6.109375 30.078125 6.109375 
Q 37.203125 6.109375 41.296875 11.75 
Q 45.40625 17.390625 45.40625 27.296875 
Q 45.40625 37.203125 41.296875 42.84375 
Q 37.203125 48.484375 30.078125 48.484375 
Q 22.953125 48.484375 18.875 42.84375 
Q 14.796875 37.203125 14.796875 27.296875 
z
" id="DejaVuSans-100"/>
     <path d="M 56.203125 29.59375 
L 56.203125 25.203125 
L 14.890625 25.203125 
Q 15.484375 15.921875 20.484375 11.0625 
Q 25.484375 6.203125 34.421875 6.203125 
Q 39.59375 6.203125 44.453125 7.46875 
Q 49.3125 8.734375 54.109375 11.28125 
L 54.109375 2.78125 
Q 49.265625 0.734375 44.1875 -0.34375 
Q 39.109375 -1.421875 33.890625 -1.421875 
Q 20.796875 -1.421875 13.15625 6.1875 
Q 5.515625 13.8125 5.515625 26.8125 
Q 5.515625 40.234375 12.765625 48.109375 
Q 20.015625 56 32.328125 56 
Q 43.359375 56 49.78125 48.890625 
Q 56.203125 41.796875 56.203125 29.59375 
z
M 47.21875 32.234375 
Q 47.125 39.59375 43.09375 43.984375 
Q 39.0625 48.390625 32.421875 48.390625 
Q 24.90625 48.390625 20.390625 44.140625 
Q 15.875 39.890625 15.1875 32.171875 
z
" id="DejaVuSans-101"/>
     <path id="DejaVuSans-32"/>
     <path d="M 8.59375 75.984375 
L 29.296875 75.984375 
L 29.296875 69 
L 17.578125 69 
L 17.578125 -6.203125 
L 29.296875 -6.203125 
L 29.296875 -13.1875 
L 8.59375 -13.1875 
z
" id="DejaVuSans-91"/>
     <path d="M -0.296875 72.90625 
L 61.375 72.90625 
L 61.375 64.59375 
L 35.5 64.59375 
L 35.5 0 
L 25.59375 0 
L 25.59375 64.59375 
L -0.296875 64.59375 
z
" id="DejaVuSans-84"/>
     <path d="M 30.421875 75.984375 
L 30.421875 -13.1875 
L 9.71875 -13.1875 
L 9.71875 -6.203125 
L 21.390625 -6.203125 
L 21.390625 69 
L 9.71875 69 
L 9.71875 75.984375 
z
" id="DejaVuSans-93"/>
    </defs>
    <g transform="translate(297.279 66)scale(0.192 -0.192)">
     <use xlink:href="#DejaVuSans-65"/>
     <use x="68.408203" xlink:href="#DejaVuSans-109"/>
     <use x="165.820312" xlink:href="#DejaVuSans-112"/>
     <use x="229.296875" xlink:href="#DejaVuSans-108"/>
     <use x="257.080078" xlink:href="#DejaVuSans-105"/>
     <use x="284.863281" xlink:href="#DejaVuSans-116"/>
     <use x="324.072266" xlink:href="#DejaVuSans-117"/>
     <use x="387.451172" xlink:href="#DejaVuSans-100"/>
     <use x="450.927734" xlink:href="#DejaVuSans-101"/>
     <use x="512.451172" xlink:href="#DejaVuSans-32"/>
     <use x="544.238281" xlink:href="#DejaVuSans-91"/>
     <use x="583.251953" xlink:href="#DejaVuSans-84"/>
     <use x="644.335938" xlink:href="#DejaVuSans-93"/>
    </g>
   </g>
  </g>
  <g id="axes_2">
   <g id="patch_7">
    <path d="M 90.72 456 
L 635.04 456 
L 635.04 264 
L 90.72 264 
z
" style="fill:#ffffff;"/>
   </g>
   <g id="matplotlib.axis_3">
    <g id="xtick_7">
     <g id="line2d_28">
      <path clip-path="url(#p1581409bdc)" d="M 115.461818 456 
L 115.461818 264 
" style="fill:none;stroke:#b0b0b0;stroke-linecap:square;stroke-width:0.8;"/>
     </g>
     <g id="line2d_29">
      <g>
       <use style="stroke:#000000;stroke-width:0.8;" x="115.461818" xlink:href="#mb1c24c50a3" y="456"/>
      </g>
     </g>
     <g id="text_14">
      <!-- 0 -->
      <g transform="translate(110.371818 475.1575)scale(0.16 -0.16)">
       <use xlink:href="#DejaVuSans-48"/>
      </g>
     </g>
    </g>
    <g id="xtick_8">
     <g id="line2d_30">
      <path clip-path="url(#p1581409bdc)" d="M 205.432066 456 
L 205.432066 264 
" style="fill:none;stroke:#b0b0b0;stroke-linecap:square;stroke-width:0.8;"/>
     </g>
     <g id="line2d_31">
      <g>
       <use style="stroke:#000000;stroke-width:0.8;" x="205.432066" xlink:href="#mb1c24c50a3" y="456"/>
      </g>
     </g>
     <g id="text_15">
      <!-- 2 -->
      <g transform="translate(200.342066 475.1575)scale(0.16 -0.16)">
       <use xlink:href="#DejaVuSans-50"/>
      </g>
     </g>
    </g>
    <g id="xtick_9">
     <g id="line2d_32">
      <path clip-path="url(#p1581409bdc)" d="M 295.402314 456 
L 295.402314 264 
" style="fill:none;stroke:#b0b0b0;stroke-linecap:square;stroke-width:0.8;"/>
     </g>
     <g id="line2d_33">
      <g>
       <use style="stroke:#000000;stroke-width:0.8;" x="295.402314" xlink:href="#mb1c24c50a3" y="456"/>
      </g>
     </g>
     <g id="text_16">
      <!-- 4 -->
      <g transform="translate(290.312314 475.1575)scale(0.16 -0.16)">
       <use xlink:href="#DejaVuSans-52"/>
      </g>
     </g>
    </g>
    <g id="xtick_10">
     <g id="line2d_34">
      <path clip-path="url(#p1581409bdc)" d="M 385.372562 456 
L 385.372562 264 
" style="fill:none;stroke:#b0b0b0;stroke-linecap:square;stroke-width:0.8;"/>
     </g>
     <g id="line2d_35">
      <g>
       <use style="stroke:#000000;stroke-width:0.8;" x="385.372562" xlink:href="#mb1c24c50a3" y="456"/>
      </g>
     </g>
     <g id="text_17">
      <!-- 6 -->
      <g transform="translate(380.282562 475.1575)scale(0.16 -0.16)">
       <use xlink:href="#DejaVuSans-54"/>
      </g>
     </g>
    </g>
    <g id="xtick_11">
     <g id="line2d_36">
      <path clip-path="url(#p1581409bdc)" d="M 475.34281 456 
L 475.34281 264 
" style="fill:none;stroke:#b0b0b0;stroke-linecap:square;stroke-width:0.8;"/>
     </g>
     <g id="line2d_37">
      <g>
       <use style="stroke:#000000;stroke-width:0.8;" x="475.34281" xlink:href="#mb1c24c50a3" y="456"/>
      </g>
     </g>
     <g id="text_18">
      <!-- 8 -->
      <g transform="translate(470.25281 475.1575)scale(0.16 -0.16)">
       <use xlink:href="#DejaVuSans-56"/>
      </g>
     </g>
    </g>
    <g id="xtick_12">
     <g id="line2d_38">
      <path clip-path="url(#p1581409bdc)" d="M 565.313058 456 
L 565.313058 264 
" style="fill:none;stroke:#b0b0b0;stroke-linecap:square;stroke-width:0.8;"/>
     </g>
     <g id="line2d_39">
      <g>
       <use style="stroke:#000000;stroke-width:0.8;" x="565.313058" xlink:href="#mb1c24c50a3" y="456"/>
      </g>
     </g>
     <g id="text_19">
      <!-- 10 -->
      <g transform="translate(555.133058 475.1575)scale(0.16 -0.16)">
       <use xlink:href="#DejaVuSans-49"/>
       <use x="63.623047" xlink:href="#DejaVuSans-48"/>
      </g>
     </g>
    </g>
   </g>
   <g id="matplotlib.axis_4">
    <g id="ytick_6">
     <g id="line2d_40">
      <path clip-path="url(#p1581409bdc)" d="M 90.72 450.155543 
L 635.04 450.155543 
" style="fill:none;stroke:#b0b0b0;stroke-linecap:square;stroke-width:0.8;"/>
     </g>
     <g id="line2d_41">
      <g>
       <use style="stroke:#000000;stroke-width:0.8;" x="90.72" xlink:href="#m10cb0bdd92" y="450.155543"/>
      </g>
     </g>
     <g id="text_20">
      <!-- 0.3 -->
      <defs>
       <path d="M 40.578125 39.3125 
Q 47.65625 37.796875 51.625 33 
Q 55.609375 28.21875 55.609375 21.1875 
Q 55.609375 10.40625 48.1875 4.484375 
Q 40.765625 -1.421875 27.09375 -1.421875 
Q 22.515625 -1.421875 17.65625 -0.515625 
Q 12.796875 0.390625 7.625 2.203125 
L 7.625 11.71875 
Q 11.71875 9.328125 16.59375 8.109375 
Q 21.484375 6.890625 26.8125 6.890625 
Q 36.078125 6.890625 40.9375 10.546875 
Q 45.796875 14.203125 45.796875 21.1875 
Q 45.796875 27.640625 41.28125 31.265625 
Q 36.765625 34.90625 28.71875 34.90625 
L 20.21875 34.90625 
L 20.21875 43.015625 
L 29.109375 43.015625 
Q 36.375 43.015625 40.234375 45.921875 
Q 44.09375 48.828125 44.09375 54.296875 
Q 44.09375 59.90625 40.109375 62.90625 
Q 36.140625 65.921875 28.71875 65.921875 
Q 24.65625 65.921875 20.015625 65.03125 
Q 15.375 64.15625 9.8125 62.3125 
L 9.8125 71.09375 
Q 15.4375 72.65625 20.34375 73.4375 
Q 25.25 74.21875 29.59375 74.21875 
Q 40.828125 74.21875 47.359375 69.109375 
Q 53.90625 64.015625 53.90625 55.328125 
Q 53.90625 49.265625 50.4375 45.09375 
Q 46.96875 40.921875 40.578125 39.3125 
z
" id="DejaVuSans-51"/>
      </defs>
      <g transform="translate(58.275 456.234293)scale(0.16 -0.16)">
       <use xlink:href="#DejaVuSans-48"/>
       <use x="63.623047" xlink:href="#DejaVuSans-46"/>
       <use x="95.410156" xlink:href="#DejaVuSans-51"/>
      </g>
     </g>
    </g>
    <g id="ytick_7">
     <g id="line2d_42">
      <path clip-path="url(#p1581409bdc)" d="M 90.72 414.365883 
L 635.04 414.365883 
" style="fill:none;stroke:#b0b0b0;stroke-linecap:square;stroke-width:0.8;"/>
     </g>
     <g id="line2d_43">
      <g>
       <use style="stroke:#000000;stroke-width:0.8;" x="90.72" xlink:href="#m10cb0bdd92" y="414.365883"/>
      </g>
     </g>
     <g id="text_21">
      <!-- 0.4 -->
      <g transform="translate(58.275 420.444633)scale(0.16 -0.16)">
       <use xlink:href="#DejaVuSans-48"/>
       <use x="63.623047" xlink:href="#DejaVuSans-46"/>
       <use x="95.410156" xlink:href="#DejaVuSans-52"/>
      </g>
     </g>
    </g>
    <g id="ytick_8">
     <g id="line2d_44">
      <path clip-path="url(#p1581409bdc)" d="M 90.72 378.576223 
L 635.04 378.576223 
" style="fill:none;stroke:#b0b0b0;stroke-linecap:square;stroke-width:0.8;"/>
     </g>
     <g id="line2d_45">
      <g>
       <use style="stroke:#000000;stroke-width:0.8;" x="90.72" xlink:href="#m10cb0bdd92" y="378.576223"/>
      </g>
     </g>
     <g id="text_22">
      <!-- 0.5 -->
      <g transform="translate(58.275 384.654973)scale(0.16 -0.16)">
       <use xlink:href="#DejaVuSans-48"/>
       <use x="63.623047" xlink:href="#DejaVuSans-46"/>
       <use x="95.410156" xlink:href="#DejaVuSans-53"/>
      </g>
     </g>
    </g>
    <g id="ytick_9">
     <g id="line2d_46">
      <path clip-path="url(#p1581409bdc)" d="M 90.72 342.786563 
L 635.04 342.786563 
" style="fill:none;stroke:#b0b0b0;stroke-linecap:square;stroke-width:0.8;"/>
     </g>
     <g id="line2d_47">
      <g>
       <use style="stroke:#000000;stroke-width:0.8;" x="90.72" xlink:href="#m10cb0bdd92" y="342.786563"/>
      </g>
     </g>
     <g id="text_23">
      <!-- 0.6 -->
      <g transform="translate(58.275 348.865313)scale(0.16 -0.16)">
       <use xlink:href="#DejaVuSans-48"/>
       <use x="63.623047" xlink:href="#DejaVuSans-46"/>
       <use x="95.410156" xlink:href="#DejaVuSans-54"/>
      </g>
     </g>
    </g>
    <g id="ytick_10">
     <g id="line2d_48">
      <path clip-path="url(#p1581409bdc)" d="M 90.72 306.996903 
L 635.04 306.996903 
" style="fill:none;stroke:#b0b0b0;stroke-linecap:square;stroke-width:0.8;"/>
     </g>
     <g id="line2d_49">
      <g>
       <use style="stroke:#000000;stroke-width:0.8;" x="90.72" xlink:href="#m10cb0bdd92" y="306.996903"/>
      </g>
     </g>
     <g id="text_24">
      <!-- 0.7 -->
      <g transform="translate(58.275 313.075653)scale(0.16 -0.16)">
       <use xlink:href="#DejaVuSans-48"/>
       <use x="63.623047" xlink:href="#DejaVuSans-46"/>
       <use x="95.410156" xlink:href="#DejaVuSans-55"/>
      </g>
     </g>
    </g>
    <g id="ytick_11">
     <g id="line2d_50">
      <path clip-path="url(#p1581409bdc)" d="M 90.72 271.207243 
L 635.04 271.207243 
" style="fill:none;stroke:#b0b0b0;stroke-linecap:square;stroke-width:0.8;"/>
     </g>
     <g id="line2d_51">
      <g>
       <use style="stroke:#000000;stroke-width:0.8;" x="90.72" xlink:href="#m10cb0bdd92" y="271.207243"/>
      </g>
     </g>
     <g id="text_25">
      <!-- 0.8 -->
      <g transform="translate(58.275 277.285993)scale(0.16 -0.16)">
       <use xlink:href="#DejaVuSans-48"/>
       <use x="63.623047" xlink:href="#DejaVuSans-46"/>
       <use x="95.410156" xlink:href="#DejaVuSans-56"/>
      </g>
     </g>
    </g>
    <g id="text_26">
     <!-- By -->
     <defs>
      <path d="M 32.171875 -5.078125 
Q 28.375 -14.84375 24.75 -17.8125 
Q 21.140625 -20.796875 15.09375 -20.796875 
L 7.90625 -20.796875 
L 7.90625 -13.28125 
L 13.1875 -13.28125 
Q 16.890625 -13.28125 18.9375 -11.515625 
Q 21 -9.765625 23.484375 -3.21875 
L 25.09375 0.875 
L 2.984375 54.6875 
L 12.5 54.6875 
L 29.59375 11.921875 
L 46.6875 54.6875 
L 56.203125 54.6875 
z
" id="DejaVuSans-121"/>
     </defs>
     <g transform="translate(50.9475 370.22375)rotate(-90)scale(0.16 -0.16)">
      <use xlink:href="#DejaVuSans-66"/>
      <use x="68.603516" xlink:href="#DejaVuSans-121"/>
     </g>
    </g>
   </g>
   <g id="line2d_52">
    <path clip-path="url(#p1581409bdc)" d="M 115.461818 307.789672 
L 160.446942 309.570164 
L 205.432066 315.502055 
L 250.41719 325.415343 
L 295.402314 338.928749 
L 340.387438 355.53926 
L 385.372562 374.617553 
L 430.357686 394.986402 
L 475.34281 414.994074 
L 520.327934 432.392367 
L 565.313058 444.171977 
L 610.298182 447.272727 
" style="fill:none;stroke:#1f77b4;stroke-linecap:square;stroke-width:2;"/>
    <g clip-path="url(#p1581409bdc)">
     <use style="fill:#1f77b4;stroke:#1f77b4;" x="115.461818" xlink:href="#mfdafdbc4dd" y="307.789672"/>
     <use style="fill:#1f77b4;stroke:#1f77b4;" x="160.446942" xlink:href="#mfdafdbc4dd" y="309.570164"/>
     <use style="fill:#1f77b4;stroke:#1f77b4;" x="205.432066" xlink:href="#mfdafdbc4dd" y="315.502055"/>
     <use style="fill:#1f77b4;stroke:#1f77b4;" x="250.41719" xlink:href="#mfdafdbc4dd" y="325.415343"/>
     <use style="fill:#1f77b4;stroke:#1f77b4;" x="295.402314" xlink:href="#mfdafdbc4dd" y="338.928749"/>
     <use style="fill:#1f77b4;stroke:#1f77b4;" x="340.387438" xlink:href="#mfdafdbc4dd" y="355.53926"/>
     <use style="fill:#1f77b4;stroke:#1f77b4;" x="385.372562" xlink:href="#mfdafdbc4dd" y="374.617553"/>
     <use style="fill:#1f77b4;stroke:#1f77b4;" x="430.357686" xlink:href="#mfdafdbc4dd" y="394.986402"/>
     <use style="fill:#1f77b4;stroke:#1f77b4;" x="475.34281" xlink:href="#mfdafdbc4dd" y="414.994074"/>
     <use style="fill:#1f77b4;stroke:#1f77b4;" x="520.327934" xlink:href="#mfdafdbc4dd" y="432.392367"/>
     <use style="fill:#1f77b4;stroke:#1f77b4;" x="565.313058" xlink:href="#mfdafdbc4dd" y="444.171977"/>
     <use style="fill:#1f77b4;stroke:#1f77b4;" x="610.298182" xlink:href="#mfdafdbc4dd" y="447.272727"/>
    </g>
   </g>
   <g id="line2d_53">
    <path clip-path="url(#p1581409bdc)" d="M 115.461818 274.042109 
L 160.446942 274.241824 
L 205.432066 279.032824 
L 250.41719 288.243007 
L 295.402314 301.50989 
L 340.387438 318.326682 
L 385.372562 338.082054 
L 430.357686 359.571479 
L 475.34281 381.183666 
L 520.327934 400.734181 
L 565.313058 415.388233 
L 610.298182 421.988765 
" style="fill:none;stroke:#ff7f0e;stroke-linecap:square;stroke-width:2;"/>
    <g clip-path="url(#p1581409bdc)">
     <use style="fill:#ff7f0e;stroke:#ff7f0e;" x="115.461818" xlink:href="#me55adee6dd" y="274.042109"/>
     <use style="fill:#ff7f0e;stroke:#ff7f0e;" x="160.446942" xlink:href="#me55adee6dd" y="274.241824"/>
     <use style="fill:#ff7f0e;stroke:#ff7f0e;" x="205.432066" xlink:href="#me55adee6dd" y="279.032824"/>
     <use style="fill:#ff7f0e;stroke:#ff7f0e;" x="250.41719" xlink:href="#me55adee6dd" y="288.243007"/>
     <use style="fill:#ff7f0e;stroke:#ff7f0e;" x="295.402314" xlink:href="#me55adee6dd" y="301.50989"/>
     <use style="fill:#ff7f0e;stroke:#ff7f0e;" x="340.387438" xlink:href="#me55adee6dd" y="318.326682"/>
     <use style="fill:#ff7f0e;stroke:#ff7f0e;" x="385.372562" xlink:href="#me55adee6dd" y="338.082054"/>
     <use style="fill:#ff7f0e;stroke:#ff7f0e;" x="430.357686" xlink:href="#me55adee6dd" y="359.571479"/>
     <use style="fill:#ff7f0e;stroke:#ff7f0e;" x="475.34281" xlink:href="#me55adee6dd" y="381.183666"/>
     <use style="fill:#ff7f0e;stroke:#ff7f0e;" x="520.327934" xlink:href="#me55adee6dd" y="400.734181"/>
     <use style="fill:#ff7f0e;stroke:#ff7f0e;" x="565.313058" xlink:href="#me55adee6dd" y="415.388233"/>
     <use style="fill:#ff7f0e;stroke:#ff7f0e;" x="610.298182" xlink:href="#me55adee6dd" y="421.988765"/>
    </g>
   </g>
   <g id="line2d_54">
    <path clip-path="url(#p1581409bdc)" d="M 115.461818 272.727273 
L 160.446942 272.954857 
L 205.432066 277.805446 
L 250.41719 287.1291 
L 295.402314 300.557048 
L 340.387438 317.595267 
L 385.372562 337.621797 
L 430.357686 359.446085 
L 475.34281 381.445148 
L 520.327934 401.397382 
L 565.313058 416.428515 
L 610.298182 423.206043 
" style="fill:none;stroke:#2ca02c;stroke-linecap:square;stroke-width:2;"/>
    <g clip-path="url(#p1581409bdc)">
     <use style="fill:#2ca02c;stroke:#2ca02c;" x="115.461818" xlink:href="#m4277ffdf09" y="272.727273"/>
     <use style="fill:#2ca02c;stroke:#2ca02c;" x="160.446942" xlink:href="#m4277ffdf09" y="272.954857"/>
     <use style="fill:#2ca02c;stroke:#2ca02c;" x="205.432066" xlink:href="#m4277ffdf09" y="277.805446"/>
     <use style="fill:#2ca02c;stroke:#2ca02c;" x="250.41719" xlink:href="#m4277ffdf09" y="287.1291"/>
     <use style="fill:#2ca02c;stroke:#2ca02c;" x="295.402314" xlink:href="#m4277ffdf09" y="300.557048"/>
     <use style="fill:#2ca02c;stroke:#2ca02c;" x="340.387438" xlink:href="#m4277ffdf09" y="317.595267"/>
     <use style="fill:#2ca02c;stroke:#2ca02c;" x="385.372562" xlink:href="#m4277ffdf09" y="337.621797"/>
     <use style="fill:#2ca02c;stroke:#2ca02c;" x="430.357686" xlink:href="#m4277ffdf09" y="359.446085"/>
     <use style="fill:#2ca02c;stroke:#2ca02c;" x="475.34281" xlink:href="#m4277ffdf09" y="381.445148"/>
     <use style="fill:#2ca02c;stroke:#2ca02c;" x="520.327934" xlink:href="#m4277ffdf09" y="401.397382"/>
     <use style="fill:#2ca02c;stroke:#2ca02c;" x="565.313058" xlink:href="#m4277ffdf09" y="416.428515"/>
     <use style="fill:#2ca02c;stroke:#2ca02c;" x="610.298182" xlink:href="#m4277ffdf09" y="423.206043"/>
    </g>
   </g>
   <g id="line2d_55">
    <path clip-path="url(#p1581409bdc)" d="M 115.461818 273.755509 
L 160.446942 273.961958 
L 205.432066 278.749407 
L 250.41719 287.96109 
L 295.402314 301.252501 
L 340.387438 318.105584 
L 385.372562 337.912048 
L 430.357686 359.453159 
L 475.34281 381.095835 
L 520.327934 400.770829 
L 565.313058 415.547511 
L 610.298182 422.22524 
" style="fill:none;stroke:#d62728;stroke-linecap:square;stroke-width:2;"/>
    <g clip-path="url(#p1581409bdc)">
     <use style="fill:#d62728;stroke:#d62728;" x="115.461818" xlink:href="#m787740bd32" y="273.755509"/>
     <use style="fill:#d62728;stroke:#d62728;" x="160.446942" xlink:href="#m787740bd32" y="273.961958"/>
     <use style="fill:#d62728;stroke:#d62728;" x="205.432066" xlink:href="#m787740bd32" y="278.749407"/>
     <use style="fill:#d62728;stroke:#d62728;" x="250.41719" xlink:href="#m787740bd32" y="287.96109"/>
     <use style="fill:#d62728;stroke:#d62728;" x="295.402314" xlink:href="#m787740bd32" y="301.252501"/>
     <use style="fill:#d62728;stroke:#d62728;" x="340.387438" xlink:href="#m787740bd32" y="318.105584"/>
     <use style="fill:#d62728;stroke:#d62728;" x="385.372562" xlink:href="#m787740bd32" y="337.912048"/>
     <use style="fill:#d62728;stroke:#d62728;" x="430.357686" xlink:href="#m787740bd32" y="359.453159"/>
     <use style="fill:#d62728;stroke:#d62728;" x="475.34281" xlink:href="#m787740bd32" y="381.095835"/>
     <use style="fill:#d62728;stroke:#d62728;" x="520.327934" xlink:href="#m787740bd32" y="400.770829"/>
     <use style="fill:#d62728;stroke:#d62728;" x="565.313058" xlink:href="#m787740bd32" y="415.547511"/>
     <use style="fill:#d62728;stroke:#d62728;" x="610.298182" xlink:href="#m787740bd32" y="422.22524"/>
    </g>
   </g>
   <g id="line2d_56">
    <path clip-path="url(#p1581409bdc)" d="M 115.461818 303.65223 
L 160.446942 304.592119 
L 205.432066 309.841719 
L 250.41719 319.136223 
L 295.402314 332.131765 
L 340.387438 348.259139 
L 385.372562 366.962069 
L 430.357686 387.059437 
L 475.34281 406.995242 
L 520.327934 424.635014 
L 565.313058 437.122052 
L 610.298182 441.487582 
" style="fill:none;stroke:#9467bd;stroke-linecap:square;stroke-width:2;"/>
    <g clip-path="url(#p1581409bdc)">
     <use style="fill:#9467bd;stroke:#9467bd;" x="115.461818" xlink:href="#m071e6fbfa1" y="303.65223"/>
     <use style="fill:#9467bd;stroke:#9467bd;" x="160.446942" xlink:href="#m071e6fbfa1" y="304.592119"/>
     <use style="fill:#9467bd;stroke:#9467bd;" x="205.432066" xlink:href="#m071e6fbfa1" y="309.841719"/>
     <use style="fill:#9467bd;stroke:#9467bd;" x="250.41719" xlink:href="#m071e6fbfa1" y="319.136223"/>
     <use style="fill:#9467bd;stroke:#9467bd;" x="295.402314" xlink:href="#m071e6fbfa1" y="332.131765"/>
     <use style="fill:#9467bd;stroke:#9467bd;" x="340.387438" xlink:href="#m071e6fbfa1" y="348.259139"/>
     <use style="fill:#9467bd;stroke:#9467bd;" x="385.372562" xlink:href="#m071e6fbfa1" y="366.962069"/>
     <use style="fill:#9467bd;stroke:#9467bd;" x="430.357686" xlink:href="#m071e6fbfa1" y="387.059437"/>
     <use style="fill:#9467bd;stroke:#9467bd;" x="475.34281" xlink:href="#m071e6fbfa1" y="406.995242"/>
     <use style="fill:#9467bd;stroke:#9467bd;" x="520.327934" xlink:href="#m071e6fbfa1" y="424.635014"/>
     <use style="fill:#9467bd;stroke:#9467bd;" x="565.313058" xlink:href="#m071e6fbfa1" y="437.122052"/>
     <use style="fill:#9467bd;stroke:#9467bd;" x="610.298182" xlink:href="#m071e6fbfa1" y="441.487582"/>
    </g>
   </g>
   <g id="patch_8">
    <path d="M 90.72 456 
L 90.72 264 
" style="fill:none;stroke:#000000;stroke-linecap:square;stroke-linejoin:miter;stroke-width:0.8;"/>
   </g>
   <g id="patch_9">
    <path d="M 635.04 456 
L 635.04 264 
" style="fill:none;stroke:#000000;stroke-linecap:square;stroke-linejoin:miter;stroke-width:0.8;"/>
   </g>
   <g id="patch_10">
    <path d="M 90.72 456 
L 635.04 456 
" style="fill:none;stroke:#000000;stroke-linecap:square;stroke-linejoin:miter;stroke-width:0.8;"/>
   </g>
   <g id="patch_11">
    <path d="M 90.72 264 
L 635.04 264 
" style="fill:none;stroke:#000000;stroke-linecap:square;stroke-linejoin:miter;stroke-width:0.8;"/>
   </g>
   <g id="legend_1">
    <g id="patch_12">
     <path d="M 563.004535 370.67474 
L 627.2672 370.67474 
Q 629.488 370.67474 629.488 368.45394 
L 629.488 271.7728 
Q 629.488 269.552 627.2672 269.552 
L 563.004535 269.552 
Q 560.783735 269.552 560.783735 271.7728 
L 560.783735 368.45394 
Q 560.783735 370.67474 563.004535 370.67474 
z
" style="fill:#ffffff;opacity:0.8;stroke:#cccccc;stroke-linejoin:miter;"/>
    </g>
    <g id="text_27">
     <!-- X0 [mm] -->
     <defs>
      <path d="M 6.296875 72.90625 
L 16.890625 72.90625 
L 35.015625 45.796875 
L 53.21875 72.90625 
L 63.8125 72.90625 
L 40.375 37.890625 
L 65.375 0 
L 54.78125 0 
L 34.28125 31 
L 13.625 0 
L 2.984375 0 
L 29 38.921875 
z
" id="DejaVuSans-88"/>
     </defs>
     <g transform="translate(570.887507 282.430905)scale(0.11104 -0.11104)">
      <use xlink:href="#DejaVuSans-88"/>
      <use x="68.505859" xlink:href="#DejaVuSans-48"/>
      <use x="132.128906" xlink:href="#DejaVuSans-32"/>
      <use x="163.916016" xlink:href="#DejaVuSans-91"/>
      <use x="202.929688" xlink:href="#DejaVuSans-109"/>
      <use x="300.341797" xlink:href="#DejaVuSans-109"/>
      <use x="397.753906" xlink:href="#DejaVuSans-93"/>
     </g>
    </g>
    <g id="line2d_57">
     <path d="M 565.225335 294.843095 
L 587.433335 294.843095 
" style="fill:none;stroke:#1f77b4;stroke-linecap:square;stroke-width:2;"/>
    </g>
    <g id="line2d_58">
     <g>
      <use style="fill:#1f77b4;stroke:#1f77b4;" x="576.329335" xlink:href="#mfdafdbc4dd" y="294.843095"/>
     </g>
    </g>
    <g id="text_28">
     <!-- -12.0 -->
     <defs>
      <path d="M 4.890625 31.390625 
L 31.203125 31.390625 
L 31.203125 23.390625 
L 4.890625 23.390625 
z
" id="DejaVuSans-45"/>
     </defs>
     <g transform="translate(596.316535 298.729495)scale(0.11104 -0.11104)">
      <use xlink:href="#DejaVuSans-45"/>
      <use x="36.083984" xlink:href="#DejaVuSans-49"/>
      <use x="99.707031" xlink:href="#DejaVuSans-50"/>
      <use x="163.330078" xlink:href="#DejaVuSans-46"/>
      <use x="195.117188" xlink:href="#DejaVuSans-48"/>
     </g>
    </g>
    <g id="line2d_59">
     <path d="M 565.225335 311.141685 
L 587.433335 311.141685 
" style="fill:none;stroke:#ff7f0e;stroke-linecap:square;stroke-width:2;"/>
    </g>
    <g id="line2d_60">
     <g>
      <use style="fill:#ff7f0e;stroke:#ff7f0e;" x="576.329335" xlink:href="#me55adee6dd" y="311.141685"/>
     </g>
    </g>
    <g id="text_29">
     <!-- -5.0 -->
     <g transform="translate(596.316535 315.028085)scale(0.11104 -0.11104)">
      <use xlink:href="#DejaVuSans-45"/>
      <use x="36.083984" xlink:href="#DejaVuSans-53"/>
      <use x="99.707031" xlink:href="#DejaVuSans-46"/>
      <use x="131.494141" xlink:href="#DejaVuSans-48"/>
     </g>
    </g>
    <g id="line2d_61">
     <path d="M 565.225335 327.440275 
L 587.433335 327.440275 
" style="fill:none;stroke:#2ca02c;stroke-linecap:square;stroke-width:2;"/>
    </g>
    <g id="line2d_62">
     <g>
      <use style="fill:#2ca02c;stroke:#2ca02c;" x="576.329335" xlink:href="#m4277ffdf09" y="327.440275"/>
     </g>
    </g>
    <g id="text_30">
     <!-- 0.0 -->
     <g transform="translate(596.316535 331.326675)scale(0.11104 -0.11104)">
      <use xlink:href="#DejaVuSans-48"/>
      <use x="63.623047" xlink:href="#DejaVuSans-46"/>
      <use x="95.410156" xlink:href="#DejaVuSans-48"/>
     </g>
    </g>
    <g id="line2d_63">
     <path d="M 565.225335 343.738865 
L 587.433335 343.738865 
" style="fill:none;stroke:#d62728;stroke-linecap:square;stroke-width:2;"/>
    </g>
    <g id="line2d_64">
     <g>
      <use style="fill:#d62728;stroke:#d62728;" x="576.329335" xlink:href="#m787740bd32" y="343.738865"/>
     </g>
    </g>
    <g id="text_31">
     <!-- 5.0 -->
     <g transform="translate(596.316535 347.625265)scale(0.11104 -0.11104)">
      <use xlink:href="#DejaVuSans-53"/>
      <use x="63.623047" xlink:href="#DejaVuSans-46"/>
      <use x="95.410156" xlink:href="#DejaVuSans-48"/>
     </g>
    </g>
    <g id="line2d_65">
     <path d="M 565.225335 360.037455 
L 587.433335 360.037455 
" style="fill:none;stroke:#9467bd;stroke-linecap:square;stroke-width:2;"/>
    </g>
    <g id="line2d_66">
     <g>
      <use style="fill:#9467bd;stroke:#9467bd;" x="576.329335" xlink:href="#m071e6fbfa1" y="360.037455"/>
     </g>
    </g>
    <g id="text_32">
     <!-- 12.0 -->
     <g transform="translate(596.316535 363.923855)scale(0.11104 -0.11104)">
      <use xlink:href="#DejaVuSans-49"/>
      <use x="63.623047" xlink:href="#DejaVuSans-50"/>
      <use x="127.246094" xlink:href="#DejaVuSans-46"/>
      <use x="159.033203" xlink:href="#DejaVuSans-48"/>
     </g>
    </g>
   </g>
  </g>
  <g id="axes_3">
   <g id="patch_13">
    <path d="M 90.72 648 
L 635.04 648 
L 635.04 456 
L 90.72 456 
z
" style="fill:#ffffff;"/>
   </g>
   <g id="matplotlib.axis_5">
    <g id="xtick_13">
     <g id="line2d_67">
      <path clip-path="url(#pa9064925e2)" d="M 115.461818 648 
L 115.461818 456 
" style="fill:none;stroke:#b0b0b0;stroke-linecap:square;stroke-width:0.8;"/>
     </g>
     <g id="line2d_68">
      <g>
       <use style="stroke:#000000;stroke-width:0.8;" x="115.461818" xlink:href="#mb1c24c50a3" y="648"/>
      </g>
     </g>
     <g id="text_33">
      <!-- 0 -->
      <g transform="translate(110.371818 667.1575)scale(0.16 -0.16)">
       <use xlink:href="#DejaVuSans-48"/>
      </g>
     </g>
    </g>
    <g id="xtick_14">
     <g id="line2d_69">
      <path clip-path="url(#pa9064925e2)" d="M 205.432066 648 
L 205.432066 456 
" style="fill:none;stroke:#b0b0b0;stroke-linecap:square;stroke-width:0.8;"/>
     </g>
     <g id="line2d_70">
      <g>
       <use style="stroke:#000000;stroke-width:0.8;" x="205.432066" xlink:href="#mb1c24c50a3" y="648"/>
      </g>
     </g>
     <g id="text_34">
      <!-- 2 -->
      <g transform="translate(200.342066 667.1575)scale(0.16 -0.16)">
       <use xlink:href="#DejaVuSans-50"/>
      </g>
     </g>
    </g>
    <g id="xtick_15">
     <g id="line2d_71">
      <path clip-path="url(#pa9064925e2)" d="M 295.402314 648 
L 295.402314 456 
" style="fill:none;stroke:#b0b0b0;stroke-linecap:square;stroke-width:0.8;"/>
     </g>
     <g id="line2d_72">
      <g>
       <use style="stroke:#000000;stroke-width:0.8;" x="295.402314" xlink:href="#mb1c24c50a3" y="648"/>
      </g>
     </g>
     <g id="text_35">
      <!-- 4 -->
      <g transform="translate(290.312314 667.1575)scale(0.16 -0.16)">
       <use xlink:href="#DejaVuSans-52"/>
      </g>
     </g>
    </g>
    <g id="xtick_16">
     <g id="line2d_73">
      <path clip-path="url(#pa9064925e2)" d="M 385.372562 648 
L 385.372562 456 
" style="fill:none;stroke:#b0b0b0;stroke-linecap:square;stroke-width:0.8;"/>
     </g>
     <g id="line2d_74">
      <g>
       <use style="stroke:#000000;stroke-width:0.8;" x="385.372562" xlink:href="#mb1c24c50a3" y="648"/>
      </g>
     </g>
     <g id="text_36">
      <!-- 6 -->
      <g transform="translate(380.282562 667.1575)scale(0.16 -0.16)">
       <use xlink:href="#DejaVuSans-54"/>
      </g>
     </g>
    </g>
    <g id="xtick_17">
     <g id="line2d_75">
      <path clip-path="url(#pa9064925e2)" d="M 475.34281 648 
L 475.34281 456 
" style="fill:none;stroke:#b0b0b0;stroke-linecap:square;stroke-width:0.8;"/>
     </g>
     <g id="line2d_76">
      <g>
       <use style="stroke:#000000;stroke-width:0.8;" x="475.34281" xlink:href="#mb1c24c50a3" y="648"/>
      </g>
     </g>
     <g id="text_37">
      <!-- 8 -->
      <g transform="translate(470.25281 667.1575)scale(0.16 -0.16)">
       <use xlink:href="#DejaVuSans-56"/>
      </g>
     </g>
    </g>
    <g id="xtick_18">
     <g id="line2d_77">
      <path clip-path="url(#pa9064925e2)" d="M 565.313058 648 
L 565.313058 456 
" style="fill:none;stroke:#b0b0b0;stroke-linecap:square;stroke-width:0.8;"/>
     </g>
     <g id="line2d_78">
      <g>
       <use style="stroke:#000000;stroke-width:0.8;" x="565.313058" xlink:href="#mb1c24c50a3" y="648"/>
      </g>
     </g>
     <g id="text_38">
      <!-- 10 -->
      <g transform="translate(555.133058 667.1575)scale(0.16 -0.16)">
       <use xlink:href="#DejaVuSans-49"/>
       <use x="63.623047" xlink:href="#DejaVuSans-48"/>
      </g>
     </g>
    </g>
    <g id="text_39">
     <!-- phase [mm] -->
     <defs>
      <path d="M 54.890625 33.015625 
L 54.890625 0 
L 45.90625 0 
L 45.90625 32.71875 
Q 45.90625 40.484375 42.875 44.328125 
Q 39.84375 48.1875 33.796875 48.1875 
Q 26.515625 48.1875 22.3125 43.546875 
Q 18.109375 38.921875 18.109375 30.90625 
L 18.109375 0 
L 9.078125 0 
L 9.078125 75.984375 
L 18.109375 75.984375 
L 18.109375 46.1875 
Q 21.34375 51.125 25.703125 53.5625 
Q 30.078125 56 35.796875 56 
Q 45.21875 56 50.046875 50.171875 
Q 54.890625 44.34375 54.890625 33.015625 
z
" id="DejaVuSans-104"/>
      <path d="M 34.28125 27.484375 
Q 23.390625 27.484375 19.1875 25 
Q 14.984375 22.515625 14.984375 16.5 
Q 14.984375 11.71875 18.140625 8.90625 
Q 21.296875 6.109375 26.703125 6.109375 
Q 34.1875 6.109375 38.703125 11.40625 
Q 43.21875 16.703125 43.21875 25.484375 
L 43.21875 27.484375 
z
M 52.203125 31.203125 
L 52.203125 0 
L 43.21875 0 
L 43.21875 8.296875 
Q 40.140625 3.328125 35.546875 0.953125 
Q 30.953125 -1.421875 24.3125 -1.421875 
Q 15.921875 -1.421875 10.953125 3.296875 
Q 6 8.015625 6 15.921875 
Q 6 25.140625 12.171875 29.828125 
Q 18.359375 34.515625 30.609375 34.515625 
L 43.21875 34.515625 
L 43.21875 35.40625 
Q 43.21875 41.609375 39.140625 45 
Q 35.0625 48.390625 27.6875 48.390625 
Q 23 48.390625 18.546875 47.265625 
Q 14.109375 46.140625 10.015625 43.890625 
L 10.015625 52.203125 
Q 14.9375 54.109375 19.578125 55.046875 
Q 24.21875 56 28.609375 56 
Q 40.484375 56 46.34375 49.84375 
Q 52.203125 43.703125 52.203125 31.203125 
z
" id="DejaVuSans-97"/>
      <path d="M 44.28125 53.078125 
L 44.28125 44.578125 
Q 40.484375 46.53125 36.375 47.5 
Q 32.28125 48.484375 27.875 48.484375 
Q 21.1875 48.484375 17.84375 46.4375 
Q 14.5 44.390625 14.5 40.28125 
Q 14.5 37.15625 16.890625 35.375 
Q 19.28125 33.59375 26.515625 31.984375 
L 29.59375 31.296875 
Q 39.15625 29.25 43.1875 25.515625 
Q 47.21875 21.78125 47.21875 15.09375 
Q 47.21875 7.46875 41.1875 3.015625 
Q 35.15625 -1.421875 24.609375 -1.421875 
Q 20.21875 -1.421875 15.453125 -0.5625 
Q 10.6875 0.296875 5.421875 2 
L 5.421875 11.28125 
Q 10.40625 8.6875 15.234375 7.390625 
Q 20.0625 6.109375 24.8125 6.109375 
Q 31.15625 6.109375 34.5625 8.28125 
Q 37.984375 10.453125 37.984375 14.40625 
Q 37.984375 18.0625 35.515625 20.015625 
Q 33.0625 21.96875 24.703125 23.78125 
L 21.578125 24.515625 
Q 13.234375 26.265625 9.515625 29.90625 
Q 5.8125 33.546875 5.8125 39.890625 
Q 5.8125 47.609375 11.28125 51.796875 
Q 16.75 56 26.8125 56 
Q 31.78125 56 36.171875 55.265625 
Q 40.578125 54.546875 44.28125 53.078125 
z
" id="DejaVuSans-115"/>
     </defs>
     <g transform="translate(314.36875 686.6425)scale(0.16 -0.16)">
      <use xlink:href="#DejaVuSans-112"/>
      <use x="63.476562" xlink:href="#DejaVuSans-104"/>
      <use x="126.855469" xlink:href="#DejaVuSans-97"/>
      <use x="188.134766" xlink:href="#DejaVuSans-115"/>
      <use x="240.234375" xlink:href="#DejaVuSans-101"/>
      <use x="301.757812" xlink:href="#DejaVuSans-32"/>
      <use x="333.544922" xlink:href="#DejaVuSans-91"/>
      <use x="372.558594" xlink:href="#DejaVuSans-109"/>
      <use x="469.970703" xlink:href="#DejaVuSans-109"/>
      <use x="567.382812" xlink:href="#DejaVuSans-93"/>
     </g>
    </g>
   </g>
   <g id="matplotlib.axis_6">
    <g id="ytick_12">
     <g id="line2d_79">
      <path clip-path="url(#pa9064925e2)" d="M 90.72 633.811552 
L 635.04 633.811552 
" style="fill:none;stroke:#b0b0b0;stroke-linecap:square;stroke-width:0.8;"/>
     </g>
     <g id="line2d_80">
      <g>
       <use style="stroke:#000000;stroke-width:0.8;" x="90.72" xlink:href="#m10cb0bdd92" y="633.811552"/>
      </g>
     </g>
     <g id="text_40">
      <!-- 0.3 -->
      <g transform="translate(58.275 639.890302)scale(0.16 -0.16)">
       <use xlink:href="#DejaVuSans-48"/>
       <use x="63.623047" xlink:href="#DejaVuSans-46"/>
       <use x="95.410156" xlink:href="#DejaVuSans-51"/>
      </g>
     </g>
    </g>
    <g id="ytick_13">
     <g id="line2d_81">
      <path clip-path="url(#pa9064925e2)" d="M 90.72 599.247962 
L 635.04 599.247962 
" style="fill:none;stroke:#b0b0b0;stroke-linecap:square;stroke-width:0.8;"/>
     </g>
     <g id="line2d_82">
      <g>
       <use style="stroke:#000000;stroke-width:0.8;" x="90.72" xlink:href="#m10cb0bdd92" y="599.247962"/>
      </g>
     </g>
     <g id="text_41">
      <!-- 0.4 -->
      <g transform="translate(58.275 605.326712)scale(0.16 -0.16)">
       <use xlink:href="#DejaVuSans-48"/>
       <use x="63.623047" xlink:href="#DejaVuSans-46"/>
       <use x="95.410156" xlink:href="#DejaVuSans-52"/>
      </g>
     </g>
    </g>
    <g id="ytick_14">
     <g id="line2d_83">
      <path clip-path="url(#pa9064925e2)" d="M 90.72 564.684371 
L 635.04 564.684371 
" style="fill:none;stroke:#b0b0b0;stroke-linecap:square;stroke-width:0.8;"/>
     </g>
     <g id="line2d_84">
      <g>
       <use style="stroke:#000000;stroke-width:0.8;" x="90.72" xlink:href="#m10cb0bdd92" y="564.684371"/>
      </g>
     </g>
     <g id="text_42">
      <!-- 0.5 -->
      <g transform="translate(58.275 570.763121)scale(0.16 -0.16)">
       <use xlink:href="#DejaVuSans-48"/>
       <use x="63.623047" xlink:href="#DejaVuSans-46"/>
       <use x="95.410156" xlink:href="#DejaVuSans-53"/>
      </g>
     </g>
    </g>
    <g id="ytick_15">
     <g id="line2d_85">
      <path clip-path="url(#pa9064925e2)" d="M 90.72 530.120781 
L 635.04 530.120781 
" style="fill:none;stroke:#b0b0b0;stroke-linecap:square;stroke-width:0.8;"/>
     </g>
     <g id="line2d_86">
      <g>
       <use style="stroke:#000000;stroke-width:0.8;" x="90.72" xlink:href="#m10cb0bdd92" y="530.120781"/>
      </g>
     </g>
     <g id="text_43">
      <!-- 0.6 -->
      <g transform="translate(58.275 536.199531)scale(0.16 -0.16)">
       <use xlink:href="#DejaVuSans-48"/>
       <use x="63.623047" xlink:href="#DejaVuSans-46"/>
       <use x="95.410156" xlink:href="#DejaVuSans-54"/>
      </g>
     </g>
    </g>
    <g id="ytick_16">
     <g id="line2d_87">
      <path clip-path="url(#pa9064925e2)" d="M 90.72 495.557191 
L 635.04 495.557191 
" style="fill:none;stroke:#b0b0b0;stroke-linecap:square;stroke-width:0.8;"/>
     </g>
     <g id="line2d_88">
      <g>
       <use style="stroke:#000000;stroke-width:0.8;" x="90.72" xlink:href="#m10cb0bdd92" y="495.557191"/>
      </g>
     </g>
     <g id="text_44">
      <!-- 0.7 -->
      <g transform="translate(58.275 501.635941)scale(0.16 -0.16)">
       <use xlink:href="#DejaVuSans-48"/>
       <use x="63.623047" xlink:href="#DejaVuSans-46"/>
       <use x="95.410156" xlink:href="#DejaVuSans-55"/>
      </g>
     </g>
    </g>
    <g id="ytick_17">
     <g id="line2d_89">
      <path clip-path="url(#pa9064925e2)" d="M 90.72 460.9936 
L 635.04 460.9936 
" style="fill:none;stroke:#b0b0b0;stroke-linecap:square;stroke-width:0.8;"/>
     </g>
     <g id="line2d_90">
      <g>
       <use style="stroke:#000000;stroke-width:0.8;" x="90.72" xlink:href="#m10cb0bdd92" y="460.9936"/>
      </g>
     </g>
     <g id="text_45">
      <!-- 0.8 -->
      <g transform="translate(58.275 467.07235)scale(0.16 -0.16)">
       <use xlink:href="#DejaVuSans-48"/>
       <use x="63.623047" xlink:href="#DejaVuSans-46"/>
       <use x="95.410156" xlink:href="#DejaVuSans-56"/>
      </g>
     </g>
    </g>
    <g id="text_46">
     <!-- Bz -->
     <defs>
      <path d="M 5.515625 54.6875 
L 48.1875 54.6875 
L 48.1875 46.484375 
L 14.40625 7.171875 
L 48.1875 7.171875 
L 48.1875 0 
L 4.296875 0 
L 4.296875 8.203125 
L 38.09375 47.515625 
L 5.515625 47.515625 
z
" id="DejaVuSans-122"/>
     </defs>
     <g transform="translate(50.9475 561.6875)rotate(-90)scale(0.16 -0.16)">
      <use xlink:href="#DejaVuSans-66"/>
      <use x="68.603516" xlink:href="#DejaVuSans-122"/>
     </g>
    </g>
   </g>
   <g id="line2d_91">
    <path clip-path="url(#pa9064925e2)" d="M 115.461818 639.272727 
L 160.446942 635.949487 
L 205.432066 625.174542 
L 250.41719 609.553875 
L 295.402314 591.670844 
L 340.387438 573.499671 
L 385.372562 556.295118 
L 430.357686 541.212425 
L 475.34281 528.988529 
L 520.327934 520.092386 
L 565.313058 514.830023 
L 610.298182 513.466981 
" style="fill:none;stroke:#1f77b4;stroke-linecap:square;stroke-width:2;"/>
    <g clip-path="url(#pa9064925e2)">
     <use style="fill:#1f77b4;stroke:#1f77b4;" x="115.461818" xlink:href="#mfdafdbc4dd" y="639.272727"/>
     <use style="fill:#1f77b4;stroke:#1f77b4;" x="160.446942" xlink:href="#mfdafdbc4dd" y="635.949487"/>
     <use style="fill:#1f77b4;stroke:#1f77b4;" x="205.432066" xlink:href="#mfdafdbc4dd" y="625.174542"/>
     <use style="fill:#1f77b4;stroke:#1f77b4;" x="250.41719" xlink:href="#mfdafdbc4dd" y="609.553875"/>
     <use style="fill:#1f77b4;stroke:#1f77b4;" x="295.402314" xlink:href="#mfdafdbc4dd" y="591.670844"/>
     <use style="fill:#1f77b4;stroke:#1f77b4;" x="340.387438" xlink:href="#mfdafdbc4dd" y="573.499671"/>
     <use style="fill:#1f77b4;stroke:#1f77b4;" x="385.372562" xlink:href="#mfdafdbc4dd" y="556.295118"/>
     <use style="fill:#1f77b4;stroke:#1f77b4;" x="430.357686" xlink:href="#mfdafdbc4dd" y="541.212425"/>
     <use style="fill:#1f77b4;stroke:#1f77b4;" x="475.34281" xlink:href="#mfdafdbc4dd" y="528.988529"/>
     <use style="fill:#1f77b4;stroke:#1f77b4;" x="520.327934" xlink:href="#mfdafdbc4dd" y="520.092386"/>
     <use style="fill:#1f77b4;stroke:#1f77b4;" x="565.313058" xlink:href="#mfdafdbc4dd" y="514.830023"/>
     <use style="fill:#1f77b4;stroke:#1f77b4;" x="610.298182" xlink:href="#mfdafdbc4dd" y="513.466981"/>
    </g>
   </g>
   <g id="line2d_92">
    <path clip-path="url(#pa9064925e2)" d="M 115.461818 605.557955 
L 160.446942 605.364956 
L 205.432066 596.795094 
L 250.41719 581.81177 
L 295.402314 563.096463 
L 340.387438 542.992003 
L 385.372562 523.196531 
L 430.357686 505.228858 
L 475.34281 490.121152 
L 520.327934 478.543063 
L 565.313058 470.960823 
L 610.298182 467.742696 
" style="fill:none;stroke:#ff7f0e;stroke-linecap:square;stroke-width:2;"/>
    <g clip-path="url(#pa9064925e2)">
     <use style="fill:#ff7f0e;stroke:#ff7f0e;" x="115.461818" xlink:href="#me55adee6dd" y="605.557955"/>
     <use style="fill:#ff7f0e;stroke:#ff7f0e;" x="160.446942" xlink:href="#me55adee6dd" y="605.364956"/>
     <use style="fill:#ff7f0e;stroke:#ff7f0e;" x="205.432066" xlink:href="#me55adee6dd" y="596.795094"/>
     <use style="fill:#ff7f0e;stroke:#ff7f0e;" x="250.41719" xlink:href="#me55adee6dd" y="581.81177"/>
     <use style="fill:#ff7f0e;stroke:#ff7f0e;" x="295.402314" xlink:href="#me55adee6dd" y="563.096463"/>
     <use style="fill:#ff7f0e;stroke:#ff7f0e;" x="340.387438" xlink:href="#me55adee6dd" y="542.992003"/>
     <use style="fill:#ff7f0e;stroke:#ff7f0e;" x="385.372562" xlink:href="#me55adee6dd" y="523.196531"/>
     <use style="fill:#ff7f0e;stroke:#ff7f0e;" x="430.357686" xlink:href="#me55adee6dd" y="505.228858"/>
     <use style="fill:#ff7f0e;stroke:#ff7f0e;" x="475.34281" xlink:href="#me55adee6dd" y="490.121152"/>
     <use style="fill:#ff7f0e;stroke:#ff7f0e;" x="520.327934" xlink:href="#me55adee6dd" y="478.543063"/>
     <use style="fill:#ff7f0e;stroke:#ff7f0e;" x="565.313058" xlink:href="#me55adee6dd" y="470.960823"/>
     <use style="fill:#ff7f0e;stroke:#ff7f0e;" x="610.298182" xlink:href="#me55adee6dd" y="467.742696"/>
    </g>
   </g>
   <g id="line2d_93">
    <path clip-path="url(#pa9064925e2)" d="M 115.461818 605.447819 
L 160.446942 605.323574 
L 205.432066 596.555016 
L 250.41719 581.196266 
L 295.402314 562.028921 
L 340.387438 541.473413 
L 385.372562 521.259892 
L 430.357686 502.923184 
L 475.34281 487.51681 
L 520.327934 475.717012 
L 565.313058 467.986792 
L 610.298182 464.727273 
" style="fill:none;stroke:#2ca02c;stroke-linecap:square;stroke-width:2;"/>
    <g clip-path="url(#pa9064925e2)">
     <use style="fill:#2ca02c;stroke:#2ca02c;" x="115.461818" xlink:href="#m4277ffdf09" y="605.447819"/>
     <use style="fill:#2ca02c;stroke:#2ca02c;" x="160.446942" xlink:href="#m4277ffdf09" y="605.323574"/>
     <use style="fill:#2ca02c;stroke:#2ca02c;" x="205.432066" xlink:href="#m4277ffdf09" y="596.555016"/>
     <use style="fill:#2ca02c;stroke:#2ca02c;" x="250.41719" xlink:href="#m4277ffdf09" y="581.196266"/>
     <use style="fill:#2ca02c;stroke:#2ca02c;" x="295.402314" xlink:href="#m4277ffdf09" y="562.028921"/>
     <use style="fill:#2ca02c;stroke:#2ca02c;" x="340.387438" xlink:href="#m4277ffdf09" y="541.473413"/>
     <use style="fill:#2ca02c;stroke:#2ca02c;" x="385.372562" xlink:href="#m4277ffdf09" y="521.259892"/>
     <use style="fill:#2ca02c;stroke:#2ca02c;" x="430.357686" xlink:href="#m4277ffdf09" y="502.923184"/>
     <use style="fill:#2ca02c;stroke:#2ca02c;" x="475.34281" xlink:href="#m4277ffdf09" y="487.51681"/>
     <use style="fill:#2ca02c;stroke:#2ca02c;" x="520.327934" xlink:href="#m4277ffdf09" y="475.717012"/>
     <use style="fill:#2ca02c;stroke:#2ca02c;" x="565.313058" xlink:href="#m4277ffdf09" y="467.986792"/>
     <use style="fill:#2ca02c;stroke:#2ca02c;" x="610.298182" xlink:href="#m4277ffdf09" y="464.727273"/>
    </g>
   </g>
   <g id="line2d_94">
    <path clip-path="url(#pa9064925e2)" d="M 115.461818 605.121882 
L 160.446942 605.062232 
L 205.432066 596.573609 
L 250.41719 581.632722 
L 295.402314 562.90408 
L 340.387438 542.772158 
L 385.372562 522.922115 
L 430.357686 504.91299 
L 475.34281 489.786777 
L 520.327934 478.143926 
L 565.313058 470.512893 
L 610.298182 467.262016 
" style="fill:none;stroke:#d62728;stroke-linecap:square;stroke-width:2;"/>
    <g clip-path="url(#pa9064925e2)">
     <use style="fill:#d62728;stroke:#d62728;" x="115.461818" xlink:href="#m787740bd32" y="605.121882"/>
     <use style="fill:#d62728;stroke:#d62728;" x="160.446942" xlink:href="#m787740bd32" y="605.062232"/>
     <use style="fill:#d62728;stroke:#d62728;" x="205.432066" xlink:href="#m787740bd32" y="596.573609"/>
     <use style="fill:#d62728;stroke:#d62728;" x="250.41719" xlink:href="#m787740bd32" y="581.632722"/>
     <use style="fill:#d62728;stroke:#d62728;" x="295.402314" xlink:href="#m787740bd32" y="562.90408"/>
     <use style="fill:#d62728;stroke:#d62728;" x="340.387438" xlink:href="#m787740bd32" y="542.772158"/>
     <use style="fill:#d62728;stroke:#d62728;" x="385.372562" xlink:href="#m787740bd32" y="522.922115"/>
     <use style="fill:#d62728;stroke:#d62728;" x="430.357686" xlink:href="#m787740bd32" y="504.91299"/>
     <use style="fill:#d62728;stroke:#d62728;" x="475.34281" xlink:href="#m787740bd32" y="489.786777"/>
     <use style="fill:#d62728;stroke:#d62728;" x="520.327934" xlink:href="#m787740bd32" y="478.143926"/>
     <use style="fill:#d62728;stroke:#d62728;" x="565.313058" xlink:href="#m787740bd32" y="470.512893"/>
     <use style="fill:#d62728;stroke:#d62728;" x="610.298182" xlink:href="#m787740bd32" y="467.262016"/>
    </g>
   </g>
   <g id="line2d_95">
    <path clip-path="url(#pa9064925e2)" d="M 115.461818 632.496396 
L 160.446942 630.348267 
L 205.432066 620.927406 
L 250.41719 606.307853 
L 295.402314 589.006492 
L 340.387438 571.025317 
L 385.372562 553.693154 
L 430.357686 538.273119 
L 475.34281 525.563416 
L 520.327934 516.089736 
L 565.313058 510.207857 
L 610.298182 508.191109 
" style="fill:none;stroke:#9467bd;stroke-linecap:square;stroke-width:2;"/>
    <g clip-path="url(#pa9064925e2)">
     <use style="fill:#9467bd;stroke:#9467bd;" x="115.461818" xlink:href="#m071e6fbfa1" y="632.496396"/>
     <use style="fill:#9467bd;stroke:#9467bd;" x="160.446942" xlink:href="#m071e6fbfa1" y="630.348267"/>
     <use style="fill:#9467bd;stroke:#9467bd;" x="205.432066" xlink:href="#m071e6fbfa1" y="620.927406"/>
     <use style="fill:#9467bd;stroke:#9467bd;" x="250.41719" xlink:href="#m071e6fbfa1" y="606.307853"/>
     <use style="fill:#9467bd;stroke:#9467bd;" x="295.402314" xlink:href="#m071e6fbfa1" y="589.006492"/>
     <use style="fill:#9467bd;stroke:#9467bd;" x="340.387438" xlink:href="#m071e6fbfa1" y="571.025317"/>
     <use style="fill:#9467bd;stroke:#9467bd;" x="385.372562" xlink:href="#m071e6fbfa1" y="553.693154"/>
     <use style="fill:#9467bd;stroke:#9467bd;" x="430.357686" xlink:href="#m071e6fbfa1" y="538.273119"/>
     <use style="fill:#9467bd;stroke:#9467bd;" x="475.34281" xlink:href="#m071e6fbfa1" y="525.563416"/>
     <use style="fill:#9467bd;stroke:#9467bd;" x="520.327934" xlink:href="#m071e6fbfa1" y="516.089736"/>
     <use style="fill:#9467bd;stroke:#9467bd;" x="565.313058" xlink:href="#m071e6fbfa1" y="510.207857"/>
     <use style="fill:#9467bd;stroke:#9467bd;" x="610.298182" xlink:href="#m071e6fbfa1" y="508.191109"/>
    </g>
   </g>
   <g id="patch_14">
    <path d="M 90.72 648 
L 90.72 456 
" style="fill:none;stroke:#000000;stroke-linecap:square;stroke-linejoin:miter;stroke-width:0.8;"/>
   </g>
   <g id="patch_15">
    <path d="M 635.04 648 
L 635.04 456 
" style="fill:none;stroke:#000000;stroke-linecap:square;stroke-linejoin:miter;stroke-width:0.8;"/>
   </g>
   <g id="patch_16">
    <path d="M 90.72 648 
L 635.04 648 
" style="fill:none;stroke:#000000;stroke-linecap:square;stroke-linejoin:miter;stroke-width:0.8;"/>
   </g>
   <g id="patch_17">
    <path d="M 90.72 456 
L 635.04 456 
" style="fill:none;stroke:#000000;stroke-linecap:square;stroke-linejoin:miter;stroke-width:0.8;"/>
   </g>
  </g>
  <g id="text_47">
   <!-- Amplitudes for 1991d @ y=-01.0 -->
   <defs>
    <path d="M 37.109375 75.984375 
L 37.109375 68.5 
L 28.515625 68.5 
Q 23.6875 68.5 21.796875 66.546875 
Q 19.921875 64.59375 19.921875 59.515625 
L 19.921875 54.6875 
L 34.71875 54.6875 
L 34.71875 47.703125 
L 19.921875 47.703125 
L 19.921875 0 
L 10.890625 0 
L 10.890625 47.703125 
L 2.296875 47.703125 
L 2.296875 54.6875 
L 10.890625 54.6875 
L 10.890625 58.5 
Q 10.890625 67.625 15.140625 71.796875 
Q 19.390625 75.984375 28.609375 75.984375 
z
" id="DejaVuSans-102"/>
    <path d="M 30.609375 48.390625 
Q 23.390625 48.390625 19.1875 42.75 
Q 14.984375 37.109375 14.984375 27.296875 
Q 14.984375 17.484375 19.15625 11.84375 
Q 23.34375 6.203125 30.609375 6.203125 
Q 37.796875 6.203125 41.984375 11.859375 
Q 46.1875 17.53125 46.1875 27.296875 
Q 46.1875 37.015625 41.984375 42.703125 
Q 37.796875 48.390625 30.609375 48.390625 
z
M 30.609375 56 
Q 42.328125 56 49.015625 48.375 
Q 55.71875 40.765625 55.71875 27.296875 
Q 55.71875 13.875 49.015625 6.21875 
Q 42.328125 -1.421875 30.609375 -1.421875 
Q 18.84375 -1.421875 12.171875 6.21875 
Q 5.515625 13.875 5.515625 27.296875 
Q 5.515625 40.765625 12.171875 48.375 
Q 18.84375 56 30.609375 56 
z
" id="DejaVuSans-111"/>
    <path d="M 41.109375 46.296875 
Q 39.59375 47.171875 37.8125 47.578125 
Q 36.03125 48 33.890625 48 
Q 26.265625 48 22.1875 43.046875 
Q 18.109375 38.09375 18.109375 28.8125 
L 18.109375 0 
L 9.078125 0 
L 9.078125 54.6875 
L 18.109375 54.6875 
L 18.109375 46.1875 
Q 20.953125 51.171875 25.484375 53.578125 
Q 30.03125 56 36.53125 56 
Q 37.453125 56 38.578125 55.875 
Q 39.703125 55.765625 41.0625 55.515625 
z
" id="DejaVuSans-114"/>
    <path d="M 10.984375 1.515625 
L 10.984375 10.5 
Q 14.703125 8.734375 18.5 7.8125 
Q 22.3125 6.890625 25.984375 6.890625 
Q 35.75 6.890625 40.890625 13.453125 
Q 46.046875 20.015625 46.78125 33.40625 
Q 43.953125 29.203125 39.59375 26.953125 
Q 35.25 24.703125 29.984375 24.703125 
Q 19.046875 24.703125 12.671875 31.3125 
Q 6.296875 37.9375 6.296875 49.421875 
Q 6.296875 60.640625 12.9375 67.421875 
Q 19.578125 74.21875 30.609375 74.21875 
Q 43.265625 74.21875 49.921875 64.515625 
Q 56.59375 54.828125 56.59375 36.375 
Q 56.59375 19.140625 48.40625 8.859375 
Q 40.234375 -1.421875 26.421875 -1.421875 
Q 22.703125 -1.421875 18.890625 -0.6875 
Q 15.09375 0.046875 10.984375 1.515625 
z
M 30.609375 32.421875 
Q 37.25 32.421875 41.125 36.953125 
Q 45.015625 41.5 45.015625 49.421875 
Q 45.015625 57.28125 41.125 61.84375 
Q 37.25 66.40625 30.609375 66.40625 
Q 23.96875 66.40625 20.09375 61.84375 
Q 16.21875 57.28125 16.21875 49.421875 
Q 16.21875 41.5 20.09375 36.953125 
Q 23.96875 32.421875 30.609375 32.421875 
z
" id="DejaVuSans-57"/>
    <path d="M 37.203125 26.21875 
Q 37.203125 19.234375 40.671875 15.25 
Q 44.140625 11.28125 50.203125 11.28125 
Q 56.203125 11.28125 59.640625 15.28125 
Q 63.09375 19.28125 63.09375 26.21875 
Q 63.09375 33.0625 59.578125 37.078125 
Q 56.0625 41.109375 50.09375 41.109375 
Q 44.1875 41.109375 40.6875 37.109375 
Q 37.203125 33.109375 37.203125 26.21875 
z
M 63.8125 11.625 
Q 60.890625 7.859375 57.109375 6.078125 
Q 53.328125 4.296875 48.296875 4.296875 
Q 39.890625 4.296875 34.640625 10.375 
Q 29.390625 16.453125 29.390625 26.21875 
Q 29.390625 35.984375 34.65625 42.078125 
Q 39.9375 48.1875 48.296875 48.1875 
Q 53.328125 48.1875 57.125 46.359375 
Q 60.9375 44.53125 63.8125 40.828125 
L 63.8125 47.21875 
L 70.796875 47.21875 
L 70.796875 11.28125 
Q 77.9375 12.359375 81.953125 17.796875 
Q 85.984375 23.25 85.984375 31.890625 
Q 85.984375 37.109375 84.4375 41.703125 
Q 82.90625 46.296875 79.78125 50.203125 
Q 74.703125 56.59375 67.40625 59.984375 
Q 60.109375 63.375 51.515625 63.375 
Q 45.515625 63.375 39.984375 61.78125 
Q 34.46875 60.203125 29.78125 57.078125 
Q 22.125 52.09375 17.796875 44.015625 
Q 13.484375 35.9375 13.484375 26.515625 
Q 13.484375 18.75 16.28125 11.953125 
Q 19.09375 5.171875 24.421875 0 
Q 29.546875 -5.078125 36.28125 -7.734375 
Q 43.015625 -10.40625 50.6875 -10.40625 
Q 56.984375 -10.40625 63.0625 -8.28125 
Q 69.140625 -6.15625 74.21875 -2.203125 
L 78.609375 -7.625 
Q 72.515625 -12.359375 65.3125 -14.875 
Q 58.109375 -17.390625 50.6875 -17.390625 
Q 41.65625 -17.390625 33.640625 -14.1875 
Q 25.640625 -10.984375 19.390625 -4.890625 
Q 13.140625 1.21875 9.859375 9.25 
Q 6.59375 17.28125 6.59375 26.515625 
Q 6.59375 35.40625 9.90625 43.453125 
Q 13.234375 51.515625 19.390625 57.625 
Q 25.6875 63.8125 33.9375 67.109375 
Q 42.1875 70.40625 51.421875 70.40625 
Q 61.765625 70.40625 70.625 66.15625 
Q 79.5 61.921875 85.5 54.109375 
Q 89.15625 49.3125 91.078125 43.703125 
Q 93.015625 38.09375 93.015625 32.078125 
Q 93.015625 19.234375 85.25 11.8125 
Q 77.484375 4.390625 63.8125 4.109375 
z
" id="DejaVuSans-64"/>
    <path d="M 10.59375 45.40625 
L 73.1875 45.40625 
L 73.1875 37.203125 
L 10.59375 37.203125 
z
M 10.59375 25.484375 
L 73.1875 25.484375 
L 73.1875 17.1875 
L 10.59375 17.1875 
z
" id="DejaVuSans-61"/>
   </defs>
   <g transform="translate(165.708 28.989)scale(0.192 -0.192)">
    <use xlink:href="#DejaVuSans-65"/>
    <use x="68.408203" xlink:href="#DejaVuSans-109"/>
    <use x="165.820312" xlink:href="#DejaVuSans-112"/>
    <use x="229.296875" xlink:href="#DejaVuSans-108"/>
    <use x="257.080078" xlink:href="#DejaVuSans-105"/>
    <use x="284.863281" xlink:href="#DejaVuSans-116"/>
    <use x="324.072266" xlink:href="#DejaVuSans-117"/>
    <use x="387.451172" xlink:href="#DejaVuSans-100"/>
    <use x="450.927734" xlink:href="#DejaVuSans-101"/>
    <use x="512.451172" xlink:href="#DejaVuSans-115"/>
    <use x="564.550781" xlink:href="#DejaVuSans-32"/>
    <use x="596.337891" xlink:href="#DejaVuSans-102"/>
    <use x="631.542969" xlink:href="#DejaVuSans-111"/>
    <use x="692.724609" xlink:href="#DejaVuSans-114"/>
    <use x="733.837891" xlink:href="#DejaVuSans-32"/>
    <use x="765.625" xlink:href="#DejaVuSans-49"/>
    <use x="829.248047" xlink:href="#DejaVuSans-57"/>
    <use x="892.871094" xlink:href="#DejaVuSans-57"/>
    <use x="956.494141" xlink:href="#DejaVuSans-49"/>
    <use x="1020.117188" xlink:href="#DejaVuSans-100"/>
    <use x="1083.59375" xlink:href="#DejaVuSans-32"/>
    <use x="1115.380859" xlink:href="#DejaVuSans-64"/>
    <use x="1215.380859" xlink:href="#DejaVuSans-32"/>
    <use x="1247.167969" xlink:href="#DejaVuSans-121"/>
    <use x="1306.347656" xlink:href="#DejaVuSans-61"/>
    <use x="1390.136719" xlink:href="#DejaVuSans-45"/>
    <use x="1426.220703" xlink:href="#DejaVuSans-48"/>
    <use x="1489.84375" xlink:href="#DejaVuSans-49"/>
    <use x="1553.466797" xlink:href="#DejaVuSans-46"/>
    <use x="1585.253906" xlink:href="#DejaVuSans-48"/>
   </g>
  </g>
 </g>
 <defs>
  <clipPath id="p88e22ac5ac">
   <rect height="192" width="544.32" x="90.72" y="72"/>
  </clipPath>
  <clipPath id="p1581409bdc">
   <rect height="192" width="544.32" x="90.72" y="264"/>
  </clipPath>
  <clipPath id="pa9064925e2">
   <rect height="192" width="544.32" x="90.72" y="456"/>
  </clipPath>
 </defs>
</svg>
