<?xml version="1.0" encoding="utf-8" standalone="no"?>
<!DOCTYPE svg PUBLIC "-//W3C//DTD SVG 1.1//EN"
  "http://www.w3.org/Graphics/SVG/1.1/DTD/svg11.dtd">
<!-- Created with matplotlib (https://matplotlib.org/) -->
<svg height="720pt" version="1.1" viewBox="0 0 648 720" width="648pt" xmlns="http://www.w3.org/2000/svg" xmlns:xlink="http://www.w3.org/1999/xlink">
 <defs>
  <style type="text/css">
*{stroke-linecap:butt;stroke-linejoin:round;}
  </style>
 </defs>
 <g id="figure_1">
  <g id="patch_1">
   <path d="M 0 720 
L 648 720 
L 648 0 
L 0 0 
z
" style="fill:#ffffff;"/>
  </g>
  <g id="axes_1">
   <g id="patch_2">
    <path d="M 90.72 264 
L 635.04 264 
L 635.04 72 
L 90.72 72 
z
" style="fill:#ffffff;"/>
   </g>
   <g id="matplotlib.axis_1">
    <g id="xtick_1">
     <g id="line2d_1">
      <path clip-path="url(#pd17542ee3c)" d="M 115.461818 264 
L 115.461818 72 
" style="fill:none;stroke:#b0b0b0;stroke-linecap:square;stroke-width:0.8;"/>
     </g>
     <g id="line2d_2">
      <defs>
       <path d="M 0 0 
L 0 3.5 
" id="m8e2cdaf8a8" style="stroke:#000000;stroke-width:0.8;"/>
      </defs>
      <g>
       <use style="stroke:#000000;stroke-width:0.8;" x="115.461818" xlink:href="#m8e2cdaf8a8" y="264"/>
      </g>
     </g>
     <g id="text_1">
      <!-- 0 -->
      <defs>
       <path d="M 31.78125 66.40625 
Q 24.171875 66.40625 20.328125 58.90625 
Q 16.5 51.421875 16.5 36.375 
Q 16.5 21.390625 20.328125 13.890625 
Q 24.171875 6.390625 31.78125 6.390625 
Q 39.453125 6.390625 43.28125 13.890625 
Q 47.125 21.390625 47.125 36.375 
Q 47.125 51.421875 43.28125 58.90625 
Q 39.453125 66.40625 31.78125 66.40625 
z
M 31.78125 74.21875 
Q 44.046875 74.21875 50.515625 64.515625 
Q 56.984375 54.828125 56.984375 36.375 
Q 56.984375 17.96875 50.515625 8.265625 
Q 44.046875 -1.421875 31.78125 -1.421875 
Q 19.53125 -1.421875 13.0625 8.265625 
Q 6.59375 17.96875 6.59375 36.375 
Q 6.59375 54.828125 13.0625 64.515625 
Q 19.53125 74.21875 31.78125 74.21875 
z
" id="DejaVuSans-48"/>
      </defs>
      <g transform="translate(110.371818 283.1575)scale(0.16 -0.16)">
       <use xlink:href="#DejaVuSans-48"/>
      </g>
     </g>
    </g>
    <g id="xtick_2">
     <g id="line2d_3">
      <path clip-path="url(#pd17542ee3c)" d="M 205.432066 264 
L 205.432066 72 
" style="fill:none;stroke:#b0b0b0;stroke-linecap:square;stroke-width:0.8;"/>
     </g>
     <g id="line2d_4">
      <g>
       <use style="stroke:#000000;stroke-width:0.8;" x="205.432066" xlink:href="#m8e2cdaf8a8" y="264"/>
      </g>
     </g>
     <g id="text_2">
      <!-- 2 -->
      <defs>
       <path d="M 19.1875 8.296875 
L 53.609375 8.296875 
L 53.609375 0 
L 7.328125 0 
L 7.328125 8.296875 
Q 12.9375 14.109375 22.625 23.890625 
Q 32.328125 33.6875 34.8125 36.53125 
Q 39.546875 41.84375 41.421875 45.53125 
Q 43.3125 49.21875 43.3125 52.78125 
Q 43.3125 58.59375 39.234375 62.25 
Q 35.15625 65.921875 28.609375 65.921875 
Q 23.96875 65.921875 18.8125 64.3125 
Q 13.671875 62.703125 7.8125 59.421875 
L 7.8125 69.390625 
Q 13.765625 71.78125 18.9375 73 
Q 24.125 74.21875 28.421875 74.21875 
Q 39.75 74.21875 46.484375 68.546875 
Q 53.21875 62.890625 53.21875 53.421875 
Q 53.21875 48.921875 51.53125 44.890625 
Q 49.859375 40.875 45.40625 35.40625 
Q 44.1875 33.984375 37.640625 27.21875 
Q 31.109375 20.453125 19.1875 8.296875 
z
" id="DejaVuSans-50"/>
      </defs>
      <g transform="translate(200.342066 283.1575)scale(0.16 -0.16)">
       <use xlink:href="#DejaVuSans-50"/>
      </g>
     </g>
    </g>
    <g id="xtick_3">
     <g id="line2d_5">
      <path clip-path="url(#pd17542ee3c)" d="M 295.402314 264 
L 295.402314 72 
" style="fill:none;stroke:#b0b0b0;stroke-linecap:square;stroke-width:0.8;"/>
     </g>
     <g id="line2d_6">
      <g>
       <use style="stroke:#000000;stroke-width:0.8;" x="295.402314" xlink:href="#m8e2cdaf8a8" y="264"/>
      </g>
     </g>
     <g id="text_3">
      <!-- 4 -->
      <defs>
       <path d="M 37.796875 64.3125 
L 12.890625 25.390625 
L 37.796875 25.390625 
z
M 35.203125 72.90625 
L 47.609375 72.90625 
L 47.609375 25.390625 
L 58.015625 25.390625 
L 58.015625 17.1875 
L 47.609375 17.1875 
L 47.609375 0 
L 37.796875 0 
L 37.796875 17.1875 
L 4.890625 17.1875 
L 4.890625 26.703125 
z
" id="DejaVuSans-52"/>
      </defs>
      <g transform="translate(290.312314 283.1575)scale(0.16 -0.16)">
       <use xlink:href="#DejaVuSans-52"/>
      </g>
     </g>
    </g>
    <g id="xtick_4">
     <g id="line2d_7">
      <path clip-path="url(#pd17542ee3c)" d="M 385.372562 264 
L 385.372562 72 
" style="fill:none;stroke:#b0b0b0;stroke-linecap:square;stroke-width:0.8;"/>
     </g>
     <g id="line2d_8">
      <g>
       <use style="stroke:#000000;stroke-width:0.8;" x="385.372562" xlink:href="#m8e2cdaf8a8" y="264"/>
      </g>
     </g>
     <g id="text_4">
      <!-- 6 -->
      <defs>
       <path d="M 33.015625 40.375 
Q 26.375 40.375 22.484375 35.828125 
Q 18.609375 31.296875 18.609375 23.390625 
Q 18.609375 15.53125 22.484375 10.953125 
Q 26.375 6.390625 33.015625 6.390625 
Q 39.65625 6.390625 43.53125 10.953125 
Q 47.40625 15.53125 47.40625 23.390625 
Q 47.40625 31.296875 43.53125 35.828125 
Q 39.65625 40.375 33.015625 40.375 
z
M 52.59375 71.296875 
L 52.59375 62.3125 
Q 48.875 64.0625 45.09375 64.984375 
Q 41.3125 65.921875 37.59375 65.921875 
Q 27.828125 65.921875 22.671875 59.328125 
Q 17.53125 52.734375 16.796875 39.40625 
Q 19.671875 43.65625 24.015625 45.921875 
Q 28.375 48.1875 33.59375 48.1875 
Q 44.578125 48.1875 50.953125 41.515625 
Q 57.328125 34.859375 57.328125 23.390625 
Q 57.328125 12.15625 50.6875 5.359375 
Q 44.046875 -1.421875 33.015625 -1.421875 
Q 20.359375 -1.421875 13.671875 8.265625 
Q 6.984375 17.96875 6.984375 36.375 
Q 6.984375 53.65625 15.1875 63.9375 
Q 23.390625 74.21875 37.203125 74.21875 
Q 40.921875 74.21875 44.703125 73.484375 
Q 48.484375 72.75 52.59375 71.296875 
z
" id="DejaVuSans-54"/>
      </defs>
      <g transform="translate(380.282562 283.1575)scale(0.16 -0.16)">
       <use xlink:href="#DejaVuSans-54"/>
      </g>
     </g>
    </g>
    <g id="xtick_5">
     <g id="line2d_9">
      <path clip-path="url(#pd17542ee3c)" d="M 475.34281 264 
L 475.34281 72 
" style="fill:none;stroke:#b0b0b0;stroke-linecap:square;stroke-width:0.8;"/>
     </g>
     <g id="line2d_10">
      <g>
       <use style="stroke:#000000;stroke-width:0.8;" x="475.34281" xlink:href="#m8e2cdaf8a8" y="264"/>
      </g>
     </g>
     <g id="text_5">
      <!-- 8 -->
      <defs>
       <path d="M 31.78125 34.625 
Q 24.75 34.625 20.71875 30.859375 
Q 16.703125 27.09375 16.703125 20.515625 
Q 16.703125 13.921875 20.71875 10.15625 
Q 24.75 6.390625 31.78125 6.390625 
Q 38.8125 6.390625 42.859375 10.171875 
Q 46.921875 13.96875 46.921875 20.515625 
Q 46.921875 27.09375 42.890625 30.859375 
Q 38.875 34.625 31.78125 34.625 
z
M 21.921875 38.8125 
Q 15.578125 40.375 12.03125 44.71875 
Q 8.5 49.078125 8.5 55.328125 
Q 8.5 64.0625 14.71875 69.140625 
Q 20.953125 74.21875 31.78125 74.21875 
Q 42.671875 74.21875 48.875 69.140625 
Q 55.078125 64.0625 55.078125 55.328125 
Q 55.078125 49.078125 51.53125 44.71875 
Q 48 40.375 41.703125 38.8125 
Q 48.828125 37.15625 52.796875 32.3125 
Q 56.78125 27.484375 56.78125 20.515625 
Q 56.78125 9.90625 50.3125 4.234375 
Q 43.84375 -1.421875 31.78125 -1.421875 
Q 19.734375 -1.421875 13.25 4.234375 
Q 6.78125 9.90625 6.78125 20.515625 
Q 6.78125 27.484375 10.78125 32.3125 
Q 14.796875 37.15625 21.921875 38.8125 
z
M 18.3125 54.390625 
Q 18.3125 48.734375 21.84375 45.5625 
Q 25.390625 42.390625 31.78125 42.390625 
Q 38.140625 42.390625 41.71875 45.5625 
Q 45.3125 48.734375 45.3125 54.390625 
Q 45.3125 60.0625 41.71875 63.234375 
Q 38.140625 66.40625 31.78125 66.40625 
Q 25.390625 66.40625 21.84375 63.234375 
Q 18.3125 60.0625 18.3125 54.390625 
z
" id="DejaVuSans-56"/>
      </defs>
      <g transform="translate(470.25281 283.1575)scale(0.16 -0.16)">
       <use xlink:href="#DejaVuSans-56"/>
      </g>
     </g>
    </g>
    <g id="xtick_6">
     <g id="line2d_11">
      <path clip-path="url(#pd17542ee3c)" d="M 565.313058 264 
L 565.313058 72 
" style="fill:none;stroke:#b0b0b0;stroke-linecap:square;stroke-width:0.8;"/>
     </g>
     <g id="line2d_12">
      <g>
       <use style="stroke:#000000;stroke-width:0.8;" x="565.313058" xlink:href="#m8e2cdaf8a8" y="264"/>
      </g>
     </g>
     <g id="text_6">
      <!-- 10 -->
      <defs>
       <path d="M 12.40625 8.296875 
L 28.515625 8.296875 
L 28.515625 63.921875 
L 10.984375 60.40625 
L 10.984375 69.390625 
L 28.421875 72.90625 
L 38.28125 72.90625 
L 38.28125 8.296875 
L 54.390625 8.296875 
L 54.390625 0 
L 12.40625 0 
z
" id="DejaVuSans-49"/>
      </defs>
      <g transform="translate(555.133058 283.1575)scale(0.16 -0.16)">
       <use xlink:href="#DejaVuSans-49"/>
       <use x="63.623047" xlink:href="#DejaVuSans-48"/>
      </g>
     </g>
    </g>
   </g>
   <g id="matplotlib.axis_2">
    <g id="ytick_1">
     <g id="line2d_13">
      <path clip-path="url(#pd17542ee3c)" d="M 90.72 260.490087 
L 635.04 260.490087 
" style="fill:none;stroke:#b0b0b0;stroke-linecap:square;stroke-width:0.8;"/>
     </g>
     <g id="line2d_14">
      <defs>
       <path d="M 0 0 
L -3.5 0 
" id="m27bd1ac792" style="stroke:#000000;stroke-width:0.8;"/>
      </defs>
      <g>
       <use style="stroke:#000000;stroke-width:0.8;" x="90.72" xlink:href="#m27bd1ac792" y="260.490087"/>
      </g>
     </g>
     <g id="text_7">
      <!-- 0.000 -->
      <defs>
       <path d="M 10.6875 12.40625 
L 21 12.40625 
L 21 0 
L 10.6875 0 
z
" id="DejaVuSans-46"/>
      </defs>
      <g transform="translate(37.915 266.568837)scale(0.16 -0.16)">
       <use xlink:href="#DejaVuSans-48"/>
       <use x="63.623047" xlink:href="#DejaVuSans-46"/>
       <use x="95.410156" xlink:href="#DejaVuSans-48"/>
       <use x="159.033203" xlink:href="#DejaVuSans-48"/>
       <use x="222.65625" xlink:href="#DejaVuSans-48"/>
      </g>
     </g>
    </g>
    <g id="ytick_2">
     <g id="line2d_15">
      <path clip-path="url(#pd17542ee3c)" d="M 90.72 228.018762 
L 635.04 228.018762 
" style="fill:none;stroke:#b0b0b0;stroke-linecap:square;stroke-width:0.8;"/>
     </g>
     <g id="line2d_16">
      <g>
       <use style="stroke:#000000;stroke-width:0.8;" x="90.72" xlink:href="#m27bd1ac792" y="228.018762"/>
      </g>
     </g>
     <g id="text_8">
      <!-- 0.025 -->
      <defs>
       <path d="M 10.796875 72.90625 
L 49.515625 72.90625 
L 49.515625 64.59375 
L 19.828125 64.59375 
L 19.828125 46.734375 
Q 21.96875 47.46875 24.109375 47.828125 
Q 26.265625 48.1875 28.421875 48.1875 
Q 40.625 48.1875 47.75 41.5 
Q 54.890625 34.8125 54.890625 23.390625 
Q 54.890625 11.625 47.5625 5.09375 
Q 40.234375 -1.421875 26.90625 -1.421875 
Q 22.3125 -1.421875 17.546875 -0.640625 
Q 12.796875 0.140625 7.71875 1.703125 
L 7.71875 11.625 
Q 12.109375 9.234375 16.796875 8.0625 
Q 21.484375 6.890625 26.703125 6.890625 
Q 35.15625 6.890625 40.078125 11.328125 
Q 45.015625 15.765625 45.015625 23.390625 
Q 45.015625 31 40.078125 35.4375 
Q 35.15625 39.890625 26.703125 39.890625 
Q 22.75 39.890625 18.8125 39.015625 
Q 14.890625 38.140625 10.796875 36.28125 
z
" id="DejaVuSans-53"/>
      </defs>
      <g transform="translate(37.915 234.097512)scale(0.16 -0.16)">
       <use xlink:href="#DejaVuSans-48"/>
       <use x="63.623047" xlink:href="#DejaVuSans-46"/>
       <use x="95.410156" xlink:href="#DejaVuSans-48"/>
       <use x="159.033203" xlink:href="#DejaVuSans-50"/>
       <use x="222.65625" xlink:href="#DejaVuSans-53"/>
      </g>
     </g>
    </g>
    <g id="ytick_3">
     <g id="line2d_17">
      <path clip-path="url(#pd17542ee3c)" d="M 90.72 195.547437 
L 635.04 195.547437 
" style="fill:none;stroke:#b0b0b0;stroke-linecap:square;stroke-width:0.8;"/>
     </g>
     <g id="line2d_18">
      <g>
       <use style="stroke:#000000;stroke-width:0.8;" x="90.72" xlink:href="#m27bd1ac792" y="195.547437"/>
      </g>
     </g>
     <g id="text_9">
      <!-- 0.050 -->
      <g transform="translate(37.915 201.626187)scale(0.16 -0.16)">
       <use xlink:href="#DejaVuSans-48"/>
       <use x="63.623047" xlink:href="#DejaVuSans-46"/>
       <use x="95.410156" xlink:href="#DejaVuSans-48"/>
       <use x="159.033203" xlink:href="#DejaVuSans-53"/>
       <use x="222.65625" xlink:href="#DejaVuSans-48"/>
      </g>
     </g>
    </g>
    <g id="ytick_4">
     <g id="line2d_19">
      <path clip-path="url(#pd17542ee3c)" d="M 90.72 163.076112 
L 635.04 163.076112 
" style="fill:none;stroke:#b0b0b0;stroke-linecap:square;stroke-width:0.8;"/>
     </g>
     <g id="line2d_20">
      <g>
       <use style="stroke:#000000;stroke-width:0.8;" x="90.72" xlink:href="#m27bd1ac792" y="163.076112"/>
      </g>
     </g>
     <g id="text_10">
      <!-- 0.075 -->
      <defs>
       <path d="M 8.203125 72.90625 
L 55.078125 72.90625 
L 55.078125 68.703125 
L 28.609375 0 
L 18.3125 0 
L 43.21875 64.59375 
L 8.203125 64.59375 
z
" id="DejaVuSans-55"/>
      </defs>
      <g transform="translate(37.915 169.154862)scale(0.16 -0.16)">
       <use xlink:href="#DejaVuSans-48"/>
       <use x="63.623047" xlink:href="#DejaVuSans-46"/>
       <use x="95.410156" xlink:href="#DejaVuSans-48"/>
       <use x="159.033203" xlink:href="#DejaVuSans-55"/>
       <use x="222.65625" xlink:href="#DejaVuSans-53"/>
      </g>
     </g>
    </g>
    <g id="ytick_5">
     <g id="line2d_21">
      <path clip-path="url(#pd17542ee3c)" d="M 90.72 130.604787 
L 635.04 130.604787 
" style="fill:none;stroke:#b0b0b0;stroke-linecap:square;stroke-width:0.8;"/>
     </g>
     <g id="line2d_22">
      <g>
       <use style="stroke:#000000;stroke-width:0.8;" x="90.72" xlink:href="#m27bd1ac792" y="130.604787"/>
      </g>
     </g>
     <g id="text_11">
      <!-- 0.100 -->
      <g transform="translate(37.915 136.683537)scale(0.16 -0.16)">
       <use xlink:href="#DejaVuSans-48"/>
       <use x="63.623047" xlink:href="#DejaVuSans-46"/>
       <use x="95.410156" xlink:href="#DejaVuSans-49"/>
       <use x="159.033203" xlink:href="#DejaVuSans-48"/>
       <use x="222.65625" xlink:href="#DejaVuSans-48"/>
      </g>
     </g>
    </g>
    <g id="ytick_6">
     <g id="line2d_23">
      <path clip-path="url(#pd17542ee3c)" d="M 90.72 98.133462 
L 635.04 98.133462 
" style="fill:none;stroke:#b0b0b0;stroke-linecap:square;stroke-width:0.8;"/>
     </g>
     <g id="line2d_24">
      <g>
       <use style="stroke:#000000;stroke-width:0.8;" x="90.72" xlink:href="#m27bd1ac792" y="98.133462"/>
      </g>
     </g>
     <g id="text_12">
      <!-- 0.125 -->
      <g transform="translate(37.915 104.212212)scale(0.16 -0.16)">
       <use xlink:href="#DejaVuSans-48"/>
       <use x="63.623047" xlink:href="#DejaVuSans-46"/>
       <use x="95.410156" xlink:href="#DejaVuSans-49"/>
       <use x="159.033203" xlink:href="#DejaVuSans-50"/>
       <use x="222.65625" xlink:href="#DejaVuSans-53"/>
      </g>
     </g>
    </g>
    <g id="text_13">
     <!-- Bx -->
     <defs>
      <path d="M 19.671875 34.8125 
L 19.671875 8.109375 
L 35.5 8.109375 
Q 43.453125 8.109375 47.28125 11.40625 
Q 51.125 14.703125 51.125 21.484375 
Q 51.125 28.328125 47.28125 31.5625 
Q 43.453125 34.8125 35.5 34.8125 
z
M 19.671875 64.796875 
L 19.671875 42.828125 
L 34.28125 42.828125 
Q 41.5 42.828125 45.03125 45.53125 
Q 48.578125 48.25 48.578125 53.8125 
Q 48.578125 59.328125 45.03125 62.0625 
Q 41.5 64.796875 34.28125 64.796875 
z
M 9.8125 72.90625 
L 35.015625 72.90625 
Q 46.296875 72.90625 52.390625 68.21875 
Q 58.5 63.53125 58.5 54.890625 
Q 58.5 48.1875 55.375 44.234375 
Q 52.25 40.28125 46.1875 39.3125 
Q 53.46875 37.75 57.5 32.78125 
Q 61.53125 27.828125 61.53125 20.40625 
Q 61.53125 10.640625 54.890625 5.3125 
Q 48.25 0 35.984375 0 
L 9.8125 0 
z
" id="DejaVuSans-66"/>
      <path d="M 54.890625 54.6875 
L 35.109375 28.078125 
L 55.90625 0 
L 45.3125 0 
L 29.390625 21.484375 
L 13.484375 0 
L 2.875 0 
L 24.125 28.609375 
L 4.6875 54.6875 
L 15.28125 54.6875 
L 29.78125 35.203125 
L 44.28125 54.6875 
z
" id="DejaVuSans-120"/>
     </defs>
     <g transform="translate(30.5875 178.22375)rotate(-90)scale(0.16 -0.16)">
      <use xlink:href="#DejaVuSans-66"/>
      <use x="68.603516" xlink:href="#DejaVuSans-120"/>
     </g>
    </g>
   </g>
   <g id="line2d_25">
    <path clip-path="url(#pd17542ee3c)" d="M 115.461818 138.063998 
L 160.446942 135.86063 
L 205.432066 130.974805 
L 250.41719 124.124349 
L 295.402314 116.117004 
L 340.387438 107.684789 
L 385.372562 99.550881 
L 430.357686 92.370563 
L 475.34281 86.717623 
L 520.327934 82.800458 
L 565.313058 80.74771 
L 610.298182 80.727273 
" style="fill:none;stroke:#1f77b4;stroke-linecap:square;stroke-width:2;"/>
    <defs>
     <path d="M 0 3 
C 0.795609 3 1.55874 2.683901 2.12132 2.12132 
C 2.683901 1.55874 3 0.795609 3 0 
C 3 -0.795609 2.683901 -1.55874 2.12132 -2.12132 
C 1.55874 -2.683901 0.795609 -3 0 -3 
C -0.795609 -3 -1.55874 -2.683901 -2.12132 -2.12132 
C -2.683901 -1.55874 -3 -0.795609 -3 0 
C -3 0.795609 -2.683901 1.55874 -2.12132 2.12132 
C -1.55874 2.683901 -0.795609 3 0 3 
z
" id="m5071aafc95" style="stroke:#1f77b4;"/>
    </defs>
    <g clip-path="url(#pd17542ee3c)">
     <use style="fill:#1f77b4;stroke:#1f77b4;" x="115.461818" xlink:href="#m5071aafc95" y="138.063998"/>
     <use style="fill:#1f77b4;stroke:#1f77b4;" x="160.446942" xlink:href="#m5071aafc95" y="135.86063"/>
     <use style="fill:#1f77b4;stroke:#1f77b4;" x="205.432066" xlink:href="#m5071aafc95" y="130.974805"/>
     <use style="fill:#1f77b4;stroke:#1f77b4;" x="250.41719" xlink:href="#m5071aafc95" y="124.124349"/>
     <use style="fill:#1f77b4;stroke:#1f77b4;" x="295.402314" xlink:href="#m5071aafc95" y="116.117004"/>
     <use style="fill:#1f77b4;stroke:#1f77b4;" x="340.387438" xlink:href="#m5071aafc95" y="107.684789"/>
     <use style="fill:#1f77b4;stroke:#1f77b4;" x="385.372562" xlink:href="#m5071aafc95" y="99.550881"/>
     <use style="fill:#1f77b4;stroke:#1f77b4;" x="430.357686" xlink:href="#m5071aafc95" y="92.370563"/>
     <use style="fill:#1f77b4;stroke:#1f77b4;" x="475.34281" xlink:href="#m5071aafc95" y="86.717623"/>
     <use style="fill:#1f77b4;stroke:#1f77b4;" x="520.327934" xlink:href="#m5071aafc95" y="82.800458"/>
     <use style="fill:#1f77b4;stroke:#1f77b4;" x="565.313058" xlink:href="#m5071aafc95" y="80.74771"/>
     <use style="fill:#1f77b4;stroke:#1f77b4;" x="610.298182" xlink:href="#m5071aafc95" y="80.727273"/>
    </g>
   </g>
   <g id="line2d_26">
    <path clip-path="url(#pd17542ee3c)" d="M 115.461818 247.861473 
L 160.446942 247.47546 
L 205.432066 246.277129 
L 250.41719 244.508381 
L 295.402314 242.474319 
L 340.387438 240.368302 
L 385.372562 238.383957 
L 430.357686 236.633229 
L 475.34281 235.228171 
L 520.327934 234.223966 
L 565.313058 233.637319 
L 610.298182 233.492592 
" style="fill:none;stroke:#ff7f0e;stroke-linecap:square;stroke-width:2;"/>
    <defs>
     <path d="M 0 3 
C 0.795609 3 1.55874 2.683901 2.12132 2.12132 
C 2.683901 1.55874 3 0.795609 3 0 
C 3 -0.795609 2.683901 -1.55874 2.12132 -2.12132 
C 1.55874 -2.683901 0.795609 -3 0 -3 
C -0.795609 -3 -1.55874 -2.683901 -2.12132 -2.12132 
C -2.683901 -1.55874 -3 -0.795609 -3 0 
C -3 0.795609 -2.683901 1.55874 -2.12132 2.12132 
C -1.55874 2.683901 -0.795609 3 0 3 
z
" id="mf4bcd1169c" style="stroke:#ff7f0e;"/>
    </defs>
    <g clip-path="url(#pd17542ee3c)">
     <use style="fill:#ff7f0e;stroke:#ff7f0e;" x="115.461818" xlink:href="#mf4bcd1169c" y="247.861473"/>
     <use style="fill:#ff7f0e;stroke:#ff7f0e;" x="160.446942" xlink:href="#mf4bcd1169c" y="247.47546"/>
     <use style="fill:#ff7f0e;stroke:#ff7f0e;" x="205.432066" xlink:href="#mf4bcd1169c" y="246.277129"/>
     <use style="fill:#ff7f0e;stroke:#ff7f0e;" x="250.41719" xlink:href="#mf4bcd1169c" y="244.508381"/>
     <use style="fill:#ff7f0e;stroke:#ff7f0e;" x="295.402314" xlink:href="#mf4bcd1169c" y="242.474319"/>
     <use style="fill:#ff7f0e;stroke:#ff7f0e;" x="340.387438" xlink:href="#mf4bcd1169c" y="240.368302"/>
     <use style="fill:#ff7f0e;stroke:#ff7f0e;" x="385.372562" xlink:href="#mf4bcd1169c" y="238.383957"/>
     <use style="fill:#ff7f0e;stroke:#ff7f0e;" x="430.357686" xlink:href="#mf4bcd1169c" y="236.633229"/>
     <use style="fill:#ff7f0e;stroke:#ff7f0e;" x="475.34281" xlink:href="#mf4bcd1169c" y="235.228171"/>
     <use style="fill:#ff7f0e;stroke:#ff7f0e;" x="520.327934" xlink:href="#mf4bcd1169c" y="234.223966"/>
     <use style="fill:#ff7f0e;stroke:#ff7f0e;" x="565.313058" xlink:href="#mf4bcd1169c" y="233.637319"/>
     <use style="fill:#ff7f0e;stroke:#ff7f0e;" x="610.298182" xlink:href="#mf4bcd1169c" y="233.492592"/>
    </g>
   </g>
   <g id="line2d_27">
    <path clip-path="url(#pd17542ee3c)" d="M 115.461818 255.272727 
L 160.446942 254.841891 
L 205.432066 254.230389 
L 250.41719 253.509974 
L 295.402314 252.745163 
L 340.387438 252.000116 
L 385.372562 251.344119 
L 430.357686 250.807098 
L 475.34281 250.405802 
L 520.327934 250.142508 
L 565.313058 250.066444 
L 610.298182 250.149616 
" style="fill:none;stroke:#2ca02c;stroke-linecap:square;stroke-width:2;"/>
    <defs>
     <path d="M 0 3 
C 0.795609 3 1.55874 2.683901 2.12132 2.12132 
C 2.683901 1.55874 3 0.795609 3 0 
C 3 -0.795609 2.683901 -1.55874 2.12132 -2.12132 
C 1.55874 -2.683901 0.795609 -3 0 -3 
C -0.795609 -3 -1.55874 -2.683901 -2.12132 -2.12132 
C -2.683901 -1.55874 -3 -0.795609 -3 0 
C -3 0.795609 -2.683901 1.55874 -2.12132 2.12132 
C -1.55874 2.683901 -0.795609 3 0 3 
z
" id="mc2b0e21e72" style="stroke:#2ca02c;"/>
    </defs>
    <g clip-path="url(#pd17542ee3c)">
     <use style="fill:#2ca02c;stroke:#2ca02c;" x="115.461818" xlink:href="#mc2b0e21e72" y="255.272727"/>
     <use style="fill:#2ca02c;stroke:#2ca02c;" x="160.446942" xlink:href="#mc2b0e21e72" y="254.841891"/>
     <use style="fill:#2ca02c;stroke:#2ca02c;" x="205.432066" xlink:href="#mc2b0e21e72" y="254.230389"/>
     <use style="fill:#2ca02c;stroke:#2ca02c;" x="250.41719" xlink:href="#mc2b0e21e72" y="253.509974"/>
     <use style="fill:#2ca02c;stroke:#2ca02c;" x="295.402314" xlink:href="#mc2b0e21e72" y="252.745163"/>
     <use style="fill:#2ca02c;stroke:#2ca02c;" x="340.387438" xlink:href="#mc2b0e21e72" y="252.000116"/>
     <use style="fill:#2ca02c;stroke:#2ca02c;" x="385.372562" xlink:href="#mc2b0e21e72" y="251.344119"/>
     <use style="fill:#2ca02c;stroke:#2ca02c;" x="430.357686" xlink:href="#mc2b0e21e72" y="250.807098"/>
     <use style="fill:#2ca02c;stroke:#2ca02c;" x="475.34281" xlink:href="#mc2b0e21e72" y="250.405802"/>
     <use style="fill:#2ca02c;stroke:#2ca02c;" x="520.327934" xlink:href="#mc2b0e21e72" y="250.142508"/>
     <use style="fill:#2ca02c;stroke:#2ca02c;" x="565.313058" xlink:href="#mc2b0e21e72" y="250.066444"/>
     <use style="fill:#2ca02c;stroke:#2ca02c;" x="610.298182" xlink:href="#mc2b0e21e72" y="250.149616"/>
    </g>
   </g>
   <g id="line2d_28">
    <path clip-path="url(#pd17542ee3c)" d="M 115.461818 253.712483 
L 160.446942 252.418153 
L 205.432066 250.629114 
L 250.41719 248.684274 
L 295.402314 246.757274 
L 340.387438 244.973969 
L 385.372562 243.437695 
L 430.357686 242.215871 
L 475.34281 241.322534 
L 520.327934 240.774903 
L 565.313058 240.630135 
L 610.298182 240.896355 
" style="fill:none;stroke:#d62728;stroke-linecap:square;stroke-width:2;"/>
    <defs>
     <path d="M 0 3 
C 0.795609 3 1.55874 2.683901 2.12132 2.12132 
C 2.683901 1.55874 3 0.795609 3 0 
C 3 -0.795609 2.683901 -1.55874 2.12132 -2.12132 
C 1.55874 -2.683901 0.795609 -3 0 -3 
C -0.795609 -3 -1.55874 -2.683901 -2.12132 -2.12132 
C -2.683901 -1.55874 -3 -0.795609 -3 0 
C -3 0.795609 -2.683901 1.55874 -2.12132 2.12132 
C -1.55874 2.683901 -0.795609 3 0 3 
z
" id="m327e49b30e" style="stroke:#d62728;"/>
    </defs>
    <g clip-path="url(#pd17542ee3c)">
     <use style="fill:#d62728;stroke:#d62728;" x="115.461818" xlink:href="#m327e49b30e" y="253.712483"/>
     <use style="fill:#d62728;stroke:#d62728;" x="160.446942" xlink:href="#m327e49b30e" y="252.418153"/>
     <use style="fill:#d62728;stroke:#d62728;" x="205.432066" xlink:href="#m327e49b30e" y="250.629114"/>
     <use style="fill:#d62728;stroke:#d62728;" x="250.41719" xlink:href="#m327e49b30e" y="248.684274"/>
     <use style="fill:#d62728;stroke:#d62728;" x="295.402314" xlink:href="#m327e49b30e" y="246.757274"/>
     <use style="fill:#d62728;stroke:#d62728;" x="340.387438" xlink:href="#m327e49b30e" y="244.973969"/>
     <use style="fill:#d62728;stroke:#d62728;" x="385.372562" xlink:href="#m327e49b30e" y="243.437695"/>
     <use style="fill:#d62728;stroke:#d62728;" x="430.357686" xlink:href="#m327e49b30e" y="242.215871"/>
     <use style="fill:#d62728;stroke:#d62728;" x="475.34281" xlink:href="#m327e49b30e" y="241.322534"/>
     <use style="fill:#d62728;stroke:#d62728;" x="520.327934" xlink:href="#m327e49b30e" y="240.774903"/>
     <use style="fill:#d62728;stroke:#d62728;" x="565.313058" xlink:href="#m327e49b30e" y="240.630135"/>
     <use style="fill:#d62728;stroke:#d62728;" x="610.298182" xlink:href="#m327e49b30e" y="240.896355"/>
    </g>
   </g>
   <g id="line2d_29">
    <path clip-path="url(#pd17542ee3c)" d="M 115.461818 244.461487 
L 160.446942 247.32911 
L 205.432066 236.087837 
L 250.41719 221.835775 
L 295.402314 207.676767 
L 340.387438 194.364264 
L 385.372562 182.327194 
L 430.357686 172.053645 
L 475.34281 163.655833 
L 520.327934 157.260591 
L 565.313058 152.922647 
L 610.298182 150.821017 
" style="fill:none;stroke:#9467bd;stroke-linecap:square;stroke-width:2;"/>
    <defs>
     <path d="M 0 3 
C 0.795609 3 1.55874 2.683901 2.12132 2.12132 
C 2.683901 1.55874 3 0.795609 3 0 
C 3 -0.795609 2.683901 -1.55874 2.12132 -2.12132 
C 1.55874 -2.683901 0.795609 -3 0 -3 
C -0.795609 -3 -1.55874 -2.683901 -2.12132 -2.12132 
C -2.683901 -1.55874 -3 -0.795609 -3 0 
C -3 0.795609 -2.683901 1.55874 -2.12132 2.12132 
C -1.55874 2.683901 -0.795609 3 0 3 
z
" id="mcbf09eb76c" style="stroke:#9467bd;"/>
    </defs>
    <g clip-path="url(#pd17542ee3c)">
     <use style="fill:#9467bd;stroke:#9467bd;" x="115.461818" xlink:href="#mcbf09eb76c" y="244.461487"/>
     <use style="fill:#9467bd;stroke:#9467bd;" x="160.446942" xlink:href="#mcbf09eb76c" y="247.32911"/>
     <use style="fill:#9467bd;stroke:#9467bd;" x="205.432066" xlink:href="#mcbf09eb76c" y="236.087837"/>
     <use style="fill:#9467bd;stroke:#9467bd;" x="250.41719" xlink:href="#mcbf09eb76c" y="221.835775"/>
     <use style="fill:#9467bd;stroke:#9467bd;" x="295.402314" xlink:href="#mcbf09eb76c" y="207.676767"/>
     <use style="fill:#9467bd;stroke:#9467bd;" x="340.387438" xlink:href="#mcbf09eb76c" y="194.364264"/>
     <use style="fill:#9467bd;stroke:#9467bd;" x="385.372562" xlink:href="#mcbf09eb76c" y="182.327194"/>
     <use style="fill:#9467bd;stroke:#9467bd;" x="430.357686" xlink:href="#mcbf09eb76c" y="172.053645"/>
     <use style="fill:#9467bd;stroke:#9467bd;" x="475.34281" xlink:href="#mcbf09eb76c" y="163.655833"/>
     <use style="fill:#9467bd;stroke:#9467bd;" x="520.327934" xlink:href="#mcbf09eb76c" y="157.260591"/>
     <use style="fill:#9467bd;stroke:#9467bd;" x="565.313058" xlink:href="#mcbf09eb76c" y="152.922647"/>
     <use style="fill:#9467bd;stroke:#9467bd;" x="610.298182" xlink:href="#mcbf09eb76c" y="150.821017"/>
    </g>
   </g>
   <g id="patch_3">
    <path d="M 90.72 264 
L 90.72 72 
" style="fill:none;stroke:#000000;stroke-linecap:square;stroke-linejoin:miter;stroke-width:0.8;"/>
   </g>
   <g id="patch_4">
    <path d="M 635.04 264 
L 635.04 72 
" style="fill:none;stroke:#000000;stroke-linecap:square;stroke-linejoin:miter;stroke-width:0.8;"/>
   </g>
   <g id="patch_5">
    <path d="M 90.72 264 
L 635.04 264 
" style="fill:none;stroke:#000000;stroke-linecap:square;stroke-linejoin:miter;stroke-width:0.8;"/>
   </g>
   <g id="patch_6">
    <path d="M 90.72 72 
L 635.04 72 
" style="fill:none;stroke:#000000;stroke-linecap:square;stroke-linejoin:miter;stroke-width:0.8;"/>
   </g>
   <g id="text_14">
    <!-- Amplitude [T] -->
    <defs>
     <path d="M 34.1875 63.1875 
L 20.796875 26.90625 
L 47.609375 26.90625 
z
M 28.609375 72.90625 
L 39.796875 72.90625 
L 67.578125 0 
L 57.328125 0 
L 50.6875 18.703125 
L 17.828125 18.703125 
L 11.1875 0 
L 0.78125 0 
z
" id="DejaVuSans-65"/>
     <path d="M 52 44.1875 
Q 55.375 50.25 60.0625 53.125 
Q 64.75 56 71.09375 56 
Q 79.640625 56 84.28125 50.015625 
Q 88.921875 44.046875 88.921875 33.015625 
L 88.921875 0 
L 79.890625 0 
L 79.890625 32.71875 
Q 79.890625 40.578125 77.09375 44.375 
Q 74.3125 48.1875 68.609375 48.1875 
Q 61.625 48.1875 57.5625 43.546875 
Q 53.515625 38.921875 53.515625 30.90625 
L 53.515625 0 
L 44.484375 0 
L 44.484375 32.71875 
Q 44.484375 40.625 41.703125 44.40625 
Q 38.921875 48.1875 33.109375 48.1875 
Q 26.21875 48.1875 22.15625 43.53125 
Q 18.109375 38.875 18.109375 30.90625 
L 18.109375 0 
L 9.078125 0 
L 9.078125 54.6875 
L 18.109375 54.6875 
L 18.109375 46.1875 
Q 21.1875 51.21875 25.484375 53.609375 
Q 29.78125 56 35.6875 56 
Q 41.65625 56 45.828125 52.96875 
Q 50 49.953125 52 44.1875 
z
" id="DejaVuSans-109"/>
     <path d="M 18.109375 8.203125 
L 18.109375 -20.796875 
L 9.078125 -20.796875 
L 9.078125 54.6875 
L 18.109375 54.6875 
L 18.109375 46.390625 
Q 20.953125 51.265625 25.265625 53.625 
Q 29.59375 56 35.59375 56 
Q 45.5625 56 51.78125 48.09375 
Q 58.015625 40.1875 58.015625 27.296875 
Q 58.015625 14.40625 51.78125 6.484375 
Q 45.5625 -1.421875 35.59375 -1.421875 
Q 29.59375 -1.421875 25.265625 0.953125 
Q 20.953125 3.328125 18.109375 8.203125 
z
M 48.6875 27.296875 
Q 48.6875 37.203125 44.609375 42.84375 
Q 40.53125 48.484375 33.40625 48.484375 
Q 26.265625 48.484375 22.1875 42.84375 
Q 18.109375 37.203125 18.109375 27.296875 
Q 18.109375 17.390625 22.1875 11.75 
Q 26.265625 6.109375 33.40625 6.109375 
Q 40.53125 6.109375 44.609375 11.75 
Q 48.6875 17.390625 48.6875 27.296875 
z
" id="DejaVuSans-112"/>
     <path d="M 9.421875 75.984375 
L 18.40625 75.984375 
L 18.40625 0 
L 9.421875 0 
z
" id="DejaVuSans-108"/>
     <path d="M 9.421875 54.6875 
L 18.40625 54.6875 
L 18.40625 0 
L 9.421875 0 
z
M 9.421875 75.984375 
L 18.40625 75.984375 
L 18.40625 64.59375 
L 9.421875 64.59375 
z
" id="DejaVuSans-105"/>
     <path d="M 18.3125 70.21875 
L 18.3125 54.6875 
L 36.8125 54.6875 
L 36.8125 47.703125 
L 18.3125 47.703125 
L 18.3125 18.015625 
Q 18.3125 11.328125 20.140625 9.421875 
Q 21.96875 7.515625 27.59375 7.515625 
L 36.8125 7.515625 
L 36.8125 0 
L 27.59375 0 
Q 17.1875 0 13.234375 3.875 
Q 9.28125 7.765625 9.28125 18.015625 
L 9.28125 47.703125 
L 2.6875 47.703125 
L 2.6875 54.6875 
L 9.28125 54.6875 
L 9.28125 70.21875 
z
" id="DejaVuSans-116"/>
     <path d="M 8.5 21.578125 
L 8.5 54.6875 
L 17.484375 54.6875 
L 17.484375 21.921875 
Q 17.484375 14.15625 20.5 10.265625 
Q 23.53125 6.390625 29.59375 6.390625 
Q 36.859375 6.390625 41.078125 11.03125 
Q 45.3125 15.671875 45.3125 23.6875 
L 45.3125 54.6875 
L 54.296875 54.6875 
L 54.296875 0 
L 45.3125 0 
L 45.3125 8.40625 
Q 42.046875 3.421875 37.71875 1 
Q 33.40625 -1.421875 27.6875 -1.421875 
Q 18.265625 -1.421875 13.375 4.4375 
Q 8.5 10.296875 8.5 21.578125 
z
M 31.109375 56 
z
" id="DejaVuSans-117"/>
     <path d="M 45.40625 46.390625 
L 45.40625 75.984375 
L 54.390625 75.984375 
L 54.390625 0 
L 45.40625 0 
L 45.40625 8.203125 
Q 42.578125 3.328125 38.25 0.953125 
Q 33.9375 -1.421875 27.875 -1.421875 
Q 17.96875 -1.421875 11.734375 6.484375 
Q 5.515625 14.40625 5.515625 27.296875 
Q 5.515625 40.1875 11.734375 48.09375 
Q 17.96875 56 27.875 56 
Q 33.9375 56 38.25 53.625 
Q 42.578125 51.265625 45.40625 46.390625 
z
M 14.796875 27.296875 
Q 14.796875 17.390625 18.875 11.75 
Q 22.953125 6.109375 30.078125 6.109375 
Q 37.203125 6.109375 41.296875 11.75 
Q 45.40625 17.390625 45.40625 27.296875 
Q 45.40625 37.203125 41.296875 42.84375 
Q 37.203125 48.484375 30.078125 48.484375 
Q 22.953125 48.484375 18.875 42.84375 
Q 14.796875 37.203125 14.796875 27.296875 
z
" id="DejaVuSans-100"/>
     <path d="M 56.203125 29.59375 
L 56.203125 25.203125 
L 14.890625 25.203125 
Q 15.484375 15.921875 20.484375 11.0625 
Q 25.484375 6.203125 34.421875 6.203125 
Q 39.59375 6.203125 44.453125 7.46875 
Q 49.3125 8.734375 54.109375 11.28125 
L 54.109375 2.78125 
Q 49.265625 0.734375 44.1875 -0.34375 
Q 39.109375 -1.421875 33.890625 -1.421875 
Q 20.796875 -1.421875 13.15625 6.1875 
Q 5.515625 13.8125 5.515625 26.8125 
Q 5.515625 40.234375 12.765625 48.109375 
Q 20.015625 56 32.328125 56 
Q 43.359375 56 49.78125 48.890625 
Q 56.203125 41.796875 56.203125 29.59375 
z
M 47.21875 32.234375 
Q 47.125 39.59375 43.09375 43.984375 
Q 39.0625 48.390625 32.421875 48.390625 
Q 24.90625 48.390625 20.390625 44.140625 
Q 15.875 39.890625 15.1875 32.171875 
z
" id="DejaVuSans-101"/>
     <path id="DejaVuSans-32"/>
     <path d="M 8.59375 75.984375 
L 29.296875 75.984375 
L 29.296875 69 
L 17.578125 69 
L 17.578125 -6.203125 
L 29.296875 -6.203125 
L 29.296875 -13.1875 
L 8.59375 -13.1875 
z
" id="DejaVuSans-91"/>
     <path d="M -0.296875 72.90625 
L 61.375 72.90625 
L 61.375 64.59375 
L 35.5 64.59375 
L 35.5 0 
L 25.59375 0 
L 25.59375 64.59375 
L -0.296875 64.59375 
z
" id="DejaVuSans-84"/>
     <path d="M 30.421875 75.984375 
L 30.421875 -13.1875 
L 9.71875 -13.1875 
L 9.71875 -6.203125 
L 21.390625 -6.203125 
L 21.390625 69 
L 9.71875 69 
L 9.71875 75.984375 
z
" id="DejaVuSans-93"/>
    </defs>
    <g transform="translate(297.279 66)scale(0.192 -0.192)">
     <use xlink:href="#DejaVuSans-65"/>
     <use x="68.408203" xlink:href="#DejaVuSans-109"/>
     <use x="165.820312" xlink:href="#DejaVuSans-112"/>
     <use x="229.296875" xlink:href="#DejaVuSans-108"/>
     <use x="257.080078" xlink:href="#DejaVuSans-105"/>
     <use x="284.863281" xlink:href="#DejaVuSans-116"/>
     <use x="324.072266" xlink:href="#DejaVuSans-117"/>
     <use x="387.451172" xlink:href="#DejaVuSans-100"/>
     <use x="450.927734" xlink:href="#DejaVuSans-101"/>
     <use x="512.451172" xlink:href="#DejaVuSans-32"/>
     <use x="544.238281" xlink:href="#DejaVuSans-91"/>
     <use x="583.251953" xlink:href="#DejaVuSans-84"/>
     <use x="644.335938" xlink:href="#DejaVuSans-93"/>
    </g>
   </g>
  </g>
  <g id="axes_2">
   <g id="patch_7">
    <path d="M 90.72 456 
L 635.04 456 
L 635.04 264 
L 90.72 264 
z
" style="fill:#ffffff;"/>
   </g>
   <g id="matplotlib.axis_3">
    <g id="xtick_7">
     <g id="line2d_30">
      <path clip-path="url(#p8c57694f0d)" d="M 115.461818 456 
L 115.461818 264 
" style="fill:none;stroke:#b0b0b0;stroke-linecap:square;stroke-width:0.8;"/>
     </g>
     <g id="line2d_31">
      <g>
       <use style="stroke:#000000;stroke-width:0.8;" x="115.461818" xlink:href="#m8e2cdaf8a8" y="456"/>
      </g>
     </g>
     <g id="text_15">
      <!-- 0 -->
      <g transform="translate(110.371818 475.1575)scale(0.16 -0.16)">
       <use xlink:href="#DejaVuSans-48"/>
      </g>
     </g>
    </g>
    <g id="xtick_8">
     <g id="line2d_32">
      <path clip-path="url(#p8c57694f0d)" d="M 205.432066 456 
L 205.432066 264 
" style="fill:none;stroke:#b0b0b0;stroke-linecap:square;stroke-width:0.8;"/>
     </g>
     <g id="line2d_33">
      <g>
       <use style="stroke:#000000;stroke-width:0.8;" x="205.432066" xlink:href="#m8e2cdaf8a8" y="456"/>
      </g>
     </g>
     <g id="text_16">
      <!-- 2 -->
      <g transform="translate(200.342066 475.1575)scale(0.16 -0.16)">
       <use xlink:href="#DejaVuSans-50"/>
      </g>
     </g>
    </g>
    <g id="xtick_9">
     <g id="line2d_34">
      <path clip-path="url(#p8c57694f0d)" d="M 295.402314 456 
L 295.402314 264 
" style="fill:none;stroke:#b0b0b0;stroke-linecap:square;stroke-width:0.8;"/>
     </g>
     <g id="line2d_35">
      <g>
       <use style="stroke:#000000;stroke-width:0.8;" x="295.402314" xlink:href="#m8e2cdaf8a8" y="456"/>
      </g>
     </g>
     <g id="text_17">
      <!-- 4 -->
      <g transform="translate(290.312314 475.1575)scale(0.16 -0.16)">
       <use xlink:href="#DejaVuSans-52"/>
      </g>
     </g>
    </g>
    <g id="xtick_10">
     <g id="line2d_36">
      <path clip-path="url(#p8c57694f0d)" d="M 385.372562 456 
L 385.372562 264 
" style="fill:none;stroke:#b0b0b0;stroke-linecap:square;stroke-width:0.8;"/>
     </g>
     <g id="line2d_37">
      <g>
       <use style="stroke:#000000;stroke-width:0.8;" x="385.372562" xlink:href="#m8e2cdaf8a8" y="456"/>
      </g>
     </g>
     <g id="text_18">
      <!-- 6 -->
      <g transform="translate(380.282562 475.1575)scale(0.16 -0.16)">
       <use xlink:href="#DejaVuSans-54"/>
      </g>
     </g>
    </g>
    <g id="xtick_11">
     <g id="line2d_38">
      <path clip-path="url(#p8c57694f0d)" d="M 475.34281 456 
L 475.34281 264 
" style="fill:none;stroke:#b0b0b0;stroke-linecap:square;stroke-width:0.8;"/>
     </g>
     <g id="line2d_39">
      <g>
       <use style="stroke:#000000;stroke-width:0.8;" x="475.34281" xlink:href="#m8e2cdaf8a8" y="456"/>
      </g>
     </g>
     <g id="text_19">
      <!-- 8 -->
      <g transform="translate(470.25281 475.1575)scale(0.16 -0.16)">
       <use xlink:href="#DejaVuSans-56"/>
      </g>
     </g>
    </g>
    <g id="xtick_12">
     <g id="line2d_40">
      <path clip-path="url(#p8c57694f0d)" d="M 565.313058 456 
L 565.313058 264 
" style="fill:none;stroke:#b0b0b0;stroke-linecap:square;stroke-width:0.8;"/>
     </g>
     <g id="line2d_41">
      <g>
       <use style="stroke:#000000;stroke-width:0.8;" x="565.313058" xlink:href="#m8e2cdaf8a8" y="456"/>
      </g>
     </g>
     <g id="text_20">
      <!-- 10 -->
      <g transform="translate(555.133058 475.1575)scale(0.16 -0.16)">
       <use xlink:href="#DejaVuSans-49"/>
       <use x="63.623047" xlink:href="#DejaVuSans-48"/>
      </g>
     </g>
    </g>
   </g>
   <g id="matplotlib.axis_4">
    <g id="ytick_7">
     <g id="line2d_42">
      <path clip-path="url(#p8c57694f0d)" d="M 90.72 443.670902 
L 635.04 443.670902 
" style="fill:none;stroke:#b0b0b0;stroke-linecap:square;stroke-width:0.8;"/>
     </g>
     <g id="line2d_43">
      <g>
       <use style="stroke:#000000;stroke-width:0.8;" x="90.72" xlink:href="#m27bd1ac792" y="443.670902"/>
      </g>
     </g>
     <g id="text_21">
      <!-- 0.3 -->
      <defs>
       <path d="M 40.578125 39.3125 
Q 47.65625 37.796875 51.625 33 
Q 55.609375 28.21875 55.609375 21.1875 
Q 55.609375 10.40625 48.1875 4.484375 
Q 40.765625 -1.421875 27.09375 -1.421875 
Q 22.515625 -1.421875 17.65625 -0.515625 
Q 12.796875 0.390625 7.625 2.203125 
L 7.625 11.71875 
Q 11.71875 9.328125 16.59375 8.109375 
Q 21.484375 6.890625 26.8125 6.890625 
Q 36.078125 6.890625 40.9375 10.546875 
Q 45.796875 14.203125 45.796875 21.1875 
Q 45.796875 27.640625 41.28125 31.265625 
Q 36.765625 34.90625 28.71875 34.90625 
L 20.21875 34.90625 
L 20.21875 43.015625 
L 29.109375 43.015625 
Q 36.375 43.015625 40.234375 45.921875 
Q 44.09375 48.828125 44.09375 54.296875 
Q 44.09375 59.90625 40.109375 62.90625 
Q 36.140625 65.921875 28.71875 65.921875 
Q 24.65625 65.921875 20.015625 65.03125 
Q 15.375 64.15625 9.8125 62.3125 
L 9.8125 71.09375 
Q 15.4375 72.65625 20.34375 73.4375 
Q 25.25 74.21875 29.59375 74.21875 
Q 40.828125 74.21875 47.359375 69.109375 
Q 53.90625 64.015625 53.90625 55.328125 
Q 53.90625 49.265625 50.4375 45.09375 
Q 46.96875 40.921875 40.578125 39.3125 
z
" id="DejaVuSans-51"/>
      </defs>
      <g transform="translate(58.275 449.749652)scale(0.16 -0.16)">
       <use xlink:href="#DejaVuSans-48"/>
       <use x="63.623047" xlink:href="#DejaVuSans-46"/>
       <use x="95.410156" xlink:href="#DejaVuSans-51"/>
      </g>
     </g>
    </g>
    <g id="ytick_8">
     <g id="line2d_44">
      <path clip-path="url(#p8c57694f0d)" d="M 90.72 409.855105 
L 635.04 409.855105 
" style="fill:none;stroke:#b0b0b0;stroke-linecap:square;stroke-width:0.8;"/>
     </g>
     <g id="line2d_45">
      <g>
       <use style="stroke:#000000;stroke-width:0.8;" x="90.72" xlink:href="#m27bd1ac792" y="409.855105"/>
      </g>
     </g>
     <g id="text_22">
      <!-- 0.4 -->
      <g transform="translate(58.275 415.933855)scale(0.16 -0.16)">
       <use xlink:href="#DejaVuSans-48"/>
       <use x="63.623047" xlink:href="#DejaVuSans-46"/>
       <use x="95.410156" xlink:href="#DejaVuSans-52"/>
      </g>
     </g>
    </g>
    <g id="ytick_9">
     <g id="line2d_46">
      <path clip-path="url(#p8c57694f0d)" d="M 90.72 376.039308 
L 635.04 376.039308 
" style="fill:none;stroke:#b0b0b0;stroke-linecap:square;stroke-width:0.8;"/>
     </g>
     <g id="line2d_47">
      <g>
       <use style="stroke:#000000;stroke-width:0.8;" x="90.72" xlink:href="#m27bd1ac792" y="376.039308"/>
      </g>
     </g>
     <g id="text_23">
      <!-- 0.5 -->
      <g transform="translate(58.275 382.118058)scale(0.16 -0.16)">
       <use xlink:href="#DejaVuSans-48"/>
       <use x="63.623047" xlink:href="#DejaVuSans-46"/>
       <use x="95.410156" xlink:href="#DejaVuSans-53"/>
      </g>
     </g>
    </g>
    <g id="ytick_10">
     <g id="line2d_48">
      <path clip-path="url(#p8c57694f0d)" d="M 90.72 342.223511 
L 635.04 342.223511 
" style="fill:none;stroke:#b0b0b0;stroke-linecap:square;stroke-width:0.8;"/>
     </g>
     <g id="line2d_49">
      <g>
       <use style="stroke:#000000;stroke-width:0.8;" x="90.72" xlink:href="#m27bd1ac792" y="342.223511"/>
      </g>
     </g>
     <g id="text_24">
      <!-- 0.6 -->
      <g transform="translate(58.275 348.302261)scale(0.16 -0.16)">
       <use xlink:href="#DejaVuSans-48"/>
       <use x="63.623047" xlink:href="#DejaVuSans-46"/>
       <use x="95.410156" xlink:href="#DejaVuSans-54"/>
      </g>
     </g>
    </g>
    <g id="ytick_11">
     <g id="line2d_50">
      <path clip-path="url(#p8c57694f0d)" d="M 90.72 308.407714 
L 635.04 308.407714 
" style="fill:none;stroke:#b0b0b0;stroke-linecap:square;stroke-width:0.8;"/>
     </g>
     <g id="line2d_51">
      <g>
       <use style="stroke:#000000;stroke-width:0.8;" x="90.72" xlink:href="#m27bd1ac792" y="308.407714"/>
      </g>
     </g>
     <g id="text_25">
      <!-- 0.7 -->
      <g transform="translate(58.275 314.486464)scale(0.16 -0.16)">
       <use xlink:href="#DejaVuSans-48"/>
       <use x="63.623047" xlink:href="#DejaVuSans-46"/>
       <use x="95.410156" xlink:href="#DejaVuSans-55"/>
      </g>
     </g>
    </g>
    <g id="ytick_12">
     <g id="line2d_52">
      <path clip-path="url(#p8c57694f0d)" d="M 90.72 274.591917 
L 635.04 274.591917 
" style="fill:none;stroke:#b0b0b0;stroke-linecap:square;stroke-width:0.8;"/>
     </g>
     <g id="line2d_53">
      <g>
       <use style="stroke:#000000;stroke-width:0.8;" x="90.72" xlink:href="#m27bd1ac792" y="274.591917"/>
      </g>
     </g>
     <g id="text_26">
      <!-- 0.8 -->
      <g transform="translate(58.275 280.670667)scale(0.16 -0.16)">
       <use xlink:href="#DejaVuSans-48"/>
       <use x="63.623047" xlink:href="#DejaVuSans-46"/>
       <use x="95.410156" xlink:href="#DejaVuSans-56"/>
      </g>
     </g>
    </g>
    <g id="text_27">
     <!-- By -->
     <defs>
      <path d="M 32.171875 -5.078125 
Q 28.375 -14.84375 24.75 -17.8125 
Q 21.140625 -20.796875 15.09375 -20.796875 
L 7.90625 -20.796875 
L 7.90625 -13.28125 
L 13.1875 -13.28125 
Q 16.890625 -13.28125 18.9375 -11.515625 
Q 21 -9.765625 23.484375 -3.21875 
L 25.09375 0.875 
L 2.984375 54.6875 
L 12.5 54.6875 
L 29.59375 11.921875 
L 46.6875 54.6875 
L 56.203125 54.6875 
z
" id="DejaVuSans-121"/>
     </defs>
     <g transform="translate(50.9475 370.22375)rotate(-90)scale(0.16 -0.16)">
      <use xlink:href="#DejaVuSans-66"/>
      <use x="68.603516" xlink:href="#DejaVuSans-121"/>
     </g>
    </g>
   </g>
   <g id="line2d_54">
    <path clip-path="url(#p8c57694f0d)" d="M 115.461818 322.410476 
L 160.446942 323.605229 
L 205.432066 328.585194 
L 250.41719 337.171116 
L 295.402314 349.035535 
L 340.387438 363.725751 
L 385.372562 380.615114 
L 430.357686 398.759858 
L 475.34281 416.707305 
L 520.327934 432.513307 
L 565.313058 443.646919 
L 610.298182 447.272727 
" style="fill:none;stroke:#1f77b4;stroke-linecap:square;stroke-width:2;"/>
    <g clip-path="url(#p8c57694f0d)">
     <use style="fill:#1f77b4;stroke:#1f77b4;" x="115.461818" xlink:href="#m5071aafc95" y="322.410476"/>
     <use style="fill:#1f77b4;stroke:#1f77b4;" x="160.446942" xlink:href="#m5071aafc95" y="323.605229"/>
     <use style="fill:#1f77b4;stroke:#1f77b4;" x="205.432066" xlink:href="#m5071aafc95" y="328.585194"/>
     <use style="fill:#1f77b4;stroke:#1f77b4;" x="250.41719" xlink:href="#m5071aafc95" y="337.171116"/>
     <use style="fill:#1f77b4;stroke:#1f77b4;" x="295.402314" xlink:href="#m5071aafc95" y="349.035535"/>
     <use style="fill:#1f77b4;stroke:#1f77b4;" x="340.387438" xlink:href="#m5071aafc95" y="363.725751"/>
     <use style="fill:#1f77b4;stroke:#1f77b4;" x="385.372562" xlink:href="#m5071aafc95" y="380.615114"/>
     <use style="fill:#1f77b4;stroke:#1f77b4;" x="430.357686" xlink:href="#m5071aafc95" y="398.759858"/>
     <use style="fill:#1f77b4;stroke:#1f77b4;" x="475.34281" xlink:href="#m5071aafc95" y="416.707305"/>
     <use style="fill:#1f77b4;stroke:#1f77b4;" x="520.327934" xlink:href="#m5071aafc95" y="432.513307"/>
     <use style="fill:#1f77b4;stroke:#1f77b4;" x="565.313058" xlink:href="#m5071aafc95" y="443.646919"/>
     <use style="fill:#1f77b4;stroke:#1f77b4;" x="610.298182" xlink:href="#m5071aafc95" y="447.272727"/>
    </g>
   </g>
   <g id="line2d_55">
    <path clip-path="url(#p8c57694f0d)" d="M 115.461818 274.441292 
L 160.446942 275.215159 
L 205.432066 279.911473 
L 250.41719 288.311241 
L 295.402314 300.027895 
L 340.387438 314.550643 
L 385.372562 331.146122 
L 430.357686 348.692855 
L 475.34281 365.684592 
L 520.327934 380.322759 
L 565.313058 390.651889 
L 610.298182 394.699412 
" style="fill:none;stroke:#ff7f0e;stroke-linecap:square;stroke-width:2;"/>
    <g clip-path="url(#p8c57694f0d)">
     <use style="fill:#ff7f0e;stroke:#ff7f0e;" x="115.461818" xlink:href="#mf4bcd1169c" y="274.441292"/>
     <use style="fill:#ff7f0e;stroke:#ff7f0e;" x="160.446942" xlink:href="#mf4bcd1169c" y="275.215159"/>
     <use style="fill:#ff7f0e;stroke:#ff7f0e;" x="205.432066" xlink:href="#mf4bcd1169c" y="279.911473"/>
     <use style="fill:#ff7f0e;stroke:#ff7f0e;" x="250.41719" xlink:href="#mf4bcd1169c" y="288.311241"/>
     <use style="fill:#ff7f0e;stroke:#ff7f0e;" x="295.402314" xlink:href="#mf4bcd1169c" y="300.027895"/>
     <use style="fill:#ff7f0e;stroke:#ff7f0e;" x="340.387438" xlink:href="#mf4bcd1169c" y="314.550643"/>
     <use style="fill:#ff7f0e;stroke:#ff7f0e;" x="385.372562" xlink:href="#mf4bcd1169c" y="331.146122"/>
     <use style="fill:#ff7f0e;stroke:#ff7f0e;" x="430.357686" xlink:href="#mf4bcd1169c" y="348.692855"/>
     <use style="fill:#ff7f0e;stroke:#ff7f0e;" x="475.34281" xlink:href="#mf4bcd1169c" y="365.684592"/>
     <use style="fill:#ff7f0e;stroke:#ff7f0e;" x="520.327934" xlink:href="#mf4bcd1169c" y="380.322759"/>
     <use style="fill:#ff7f0e;stroke:#ff7f0e;" x="565.313058" xlink:href="#mf4bcd1169c" y="390.651889"/>
     <use style="fill:#ff7f0e;stroke:#ff7f0e;" x="610.298182" xlink:href="#mf4bcd1169c" y="394.699412"/>
    </g>
   </g>
   <g id="line2d_56">
    <path clip-path="url(#p8c57694f0d)" d="M 115.461818 273.185677 
L 160.446942 273.917772 
L 205.432066 278.582637 
L 250.41719 286.971325 
L 295.402314 298.686226 
L 340.387438 313.260282 
L 385.372562 329.932622 
L 430.357686 347.591048 
L 475.34281 364.681931 
L 520.327934 379.387634 
L 565.313058 389.694374 
L 610.298182 393.631334 
" style="fill:none;stroke:#2ca02c;stroke-linecap:square;stroke-width:2;"/>
    <g clip-path="url(#p8c57694f0d)">
     <use style="fill:#2ca02c;stroke:#2ca02c;" x="115.461818" xlink:href="#mc2b0e21e72" y="273.185677"/>
     <use style="fill:#2ca02c;stroke:#2ca02c;" x="160.446942" xlink:href="#mc2b0e21e72" y="273.917772"/>
     <use style="fill:#2ca02c;stroke:#2ca02c;" x="205.432066" xlink:href="#mc2b0e21e72" y="278.582637"/>
     <use style="fill:#2ca02c;stroke:#2ca02c;" x="250.41719" xlink:href="#mc2b0e21e72" y="286.971325"/>
     <use style="fill:#2ca02c;stroke:#2ca02c;" x="295.402314" xlink:href="#mc2b0e21e72" y="298.686226"/>
     <use style="fill:#2ca02c;stroke:#2ca02c;" x="340.387438" xlink:href="#mc2b0e21e72" y="313.260282"/>
     <use style="fill:#2ca02c;stroke:#2ca02c;" x="385.372562" xlink:href="#mc2b0e21e72" y="329.932622"/>
     <use style="fill:#2ca02c;stroke:#2ca02c;" x="430.357686" xlink:href="#mc2b0e21e72" y="347.591048"/>
     <use style="fill:#2ca02c;stroke:#2ca02c;" x="475.34281" xlink:href="#mc2b0e21e72" y="364.681931"/>
     <use style="fill:#2ca02c;stroke:#2ca02c;" x="520.327934" xlink:href="#mc2b0e21e72" y="379.387634"/>
     <use style="fill:#2ca02c;stroke:#2ca02c;" x="565.313058" xlink:href="#mc2b0e21e72" y="389.694374"/>
     <use style="fill:#2ca02c;stroke:#2ca02c;" x="610.298182" xlink:href="#mc2b0e21e72" y="393.631334"/>
    </g>
   </g>
   <g id="line2d_57">
    <path clip-path="url(#p8c57694f0d)" d="M 115.461818 272.727273 
L 160.446942 273.509898 
L 205.432066 278.219264 
L 250.41719 286.627833 
L 295.402314 298.373088 
L 340.387438 312.908772 
L 385.372562 329.486434 
L 430.357686 347.004416 
L 475.34281 363.925726 
L 520.327934 378.447958 
L 565.313058 388.630431 
L 610.298182 392.560382 
" style="fill:none;stroke:#d62728;stroke-linecap:square;stroke-width:2;"/>
    <g clip-path="url(#p8c57694f0d)">
     <use style="fill:#d62728;stroke:#d62728;" x="115.461818" xlink:href="#m327e49b30e" y="272.727273"/>
     <use style="fill:#d62728;stroke:#d62728;" x="160.446942" xlink:href="#m327e49b30e" y="273.509898"/>
     <use style="fill:#d62728;stroke:#d62728;" x="205.432066" xlink:href="#m327e49b30e" y="278.219264"/>
     <use style="fill:#d62728;stroke:#d62728;" x="250.41719" xlink:href="#m327e49b30e" y="286.627833"/>
     <use style="fill:#d62728;stroke:#d62728;" x="295.402314" xlink:href="#m327e49b30e" y="298.373088"/>
     <use style="fill:#d62728;stroke:#d62728;" x="340.387438" xlink:href="#m327e49b30e" y="312.908772"/>
     <use style="fill:#d62728;stroke:#d62728;" x="385.372562" xlink:href="#m327e49b30e" y="329.486434"/>
     <use style="fill:#d62728;stroke:#d62728;" x="430.357686" xlink:href="#m327e49b30e" y="347.004416"/>
     <use style="fill:#d62728;stroke:#d62728;" x="475.34281" xlink:href="#m327e49b30e" y="363.925726"/>
     <use style="fill:#d62728;stroke:#d62728;" x="520.327934" xlink:href="#m327e49b30e" y="378.447958"/>
     <use style="fill:#d62728;stroke:#d62728;" x="565.313058" xlink:href="#m327e49b30e" y="388.630431"/>
     <use style="fill:#d62728;stroke:#d62728;" x="610.298182" xlink:href="#m327e49b30e" y="392.560382"/>
    </g>
   </g>
   <g id="line2d_58">
    <path clip-path="url(#p8c57694f0d)" d="M 115.461818 317.235751 
L 160.446942 318.262165 
L 205.432066 323.122798 
L 250.41719 331.651236 
L 295.402314 343.52199 
L 340.387438 358.284992 
L 385.372562 375.348068 
L 430.357686 393.751603 
L 475.34281 412.032289 
L 520.327934 428.216579 
L 565.313058 439.818553 
L 610.298182 444.018566 
" style="fill:none;stroke:#9467bd;stroke-linecap:square;stroke-width:2;"/>
    <g clip-path="url(#p8c57694f0d)">
     <use style="fill:#9467bd;stroke:#9467bd;" x="115.461818" xlink:href="#mcbf09eb76c" y="317.235751"/>
     <use style="fill:#9467bd;stroke:#9467bd;" x="160.446942" xlink:href="#mcbf09eb76c" y="318.262165"/>
     <use style="fill:#9467bd;stroke:#9467bd;" x="205.432066" xlink:href="#mcbf09eb76c" y="323.122798"/>
     <use style="fill:#9467bd;stroke:#9467bd;" x="250.41719" xlink:href="#mcbf09eb76c" y="331.651236"/>
     <use style="fill:#9467bd;stroke:#9467bd;" x="295.402314" xlink:href="#mcbf09eb76c" y="343.52199"/>
     <use style="fill:#9467bd;stroke:#9467bd;" x="340.387438" xlink:href="#mcbf09eb76c" y="358.284992"/>
     <use style="fill:#9467bd;stroke:#9467bd;" x="385.372562" xlink:href="#mcbf09eb76c" y="375.348068"/>
     <use style="fill:#9467bd;stroke:#9467bd;" x="430.357686" xlink:href="#mcbf09eb76c" y="393.751603"/>
     <use style="fill:#9467bd;stroke:#9467bd;" x="475.34281" xlink:href="#mcbf09eb76c" y="412.032289"/>
     <use style="fill:#9467bd;stroke:#9467bd;" x="520.327934" xlink:href="#mcbf09eb76c" y="428.216579"/>
     <use style="fill:#9467bd;stroke:#9467bd;" x="565.313058" xlink:href="#mcbf09eb76c" y="439.818553"/>
     <use style="fill:#9467bd;stroke:#9467bd;" x="610.298182" xlink:href="#mcbf09eb76c" y="444.018566"/>
    </g>
   </g>
   <g id="patch_8">
    <path d="M 90.72 456 
L 90.72 264 
" style="fill:none;stroke:#000000;stroke-linecap:square;stroke-linejoin:miter;stroke-width:0.8;"/>
   </g>
   <g id="patch_9">
    <path d="M 635.04 456 
L 635.04 264 
" style="fill:none;stroke:#000000;stroke-linecap:square;stroke-linejoin:miter;stroke-width:0.8;"/>
   </g>
   <g id="patch_10">
    <path d="M 90.72 456 
L 635.04 456 
" style="fill:none;stroke:#000000;stroke-linecap:square;stroke-linejoin:miter;stroke-width:0.8;"/>
   </g>
   <g id="patch_11">
    <path d="M 90.72 264 
L 635.04 264 
" style="fill:none;stroke:#000000;stroke-linecap:square;stroke-linejoin:miter;stroke-width:0.8;"/>
   </g>
   <g id="legend_1">
    <g id="patch_12">
     <path d="M 563.004535 370.67474 
L 627.2672 370.67474 
Q 629.488 370.67474 629.488 368.45394 
L 629.488 271.7728 
Q 629.488 269.552 627.2672 269.552 
L 563.004535 269.552 
Q 560.783735 269.552 560.783735 271.7728 
L 560.783735 368.45394 
Q 560.783735 370.67474 563.004535 370.67474 
z
" style="fill:#ffffff;opacity:0.8;stroke:#cccccc;stroke-linejoin:miter;"/>
    </g>
    <g id="text_28">
     <!-- X0 [mm] -->
     <defs>
      <path d="M 6.296875 72.90625 
L 16.890625 72.90625 
L 35.015625 45.796875 
L 53.21875 72.90625 
L 63.8125 72.90625 
L 40.375 37.890625 
L 65.375 0 
L 54.78125 0 
L 34.28125 31 
L 13.625 0 
L 2.984375 0 
L 29 38.921875 
z
" id="DejaVuSans-88"/>
     </defs>
     <g transform="translate(570.887507 282.430905)scale(0.11104 -0.11104)">
      <use xlink:href="#DejaVuSans-88"/>
      <use x="68.505859" xlink:href="#DejaVuSans-48"/>
      <use x="132.128906" xlink:href="#DejaVuSans-32"/>
      <use x="163.916016" xlink:href="#DejaVuSans-91"/>
      <use x="202.929688" xlink:href="#DejaVuSans-109"/>
      <use x="300.341797" xlink:href="#DejaVuSans-109"/>
      <use x="397.753906" xlink:href="#DejaVuSans-93"/>
     </g>
    </g>
    <g id="line2d_59">
     <path d="M 565.225335 294.843095 
L 587.433335 294.843095 
" style="fill:none;stroke:#1f77b4;stroke-linecap:square;stroke-width:2;"/>
    </g>
    <g id="line2d_60">
     <g>
      <use style="fill:#1f77b4;stroke:#1f77b4;" x="576.329335" xlink:href="#m5071aafc95" y="294.843095"/>
     </g>
    </g>
    <g id="text_29">
     <!-- -12.0 -->
     <defs>
      <path d="M 4.890625 31.390625 
L 31.203125 31.390625 
L 31.203125 23.390625 
L 4.890625 23.390625 
z
" id="DejaVuSans-45"/>
     </defs>
     <g transform="translate(596.316535 298.729495)scale(0.11104 -0.11104)">
      <use xlink:href="#DejaVuSans-45"/>
      <use x="36.083984" xlink:href="#DejaVuSans-49"/>
      <use x="99.707031" xlink:href="#DejaVuSans-50"/>
      <use x="163.330078" xlink:href="#DejaVuSans-46"/>
      <use x="195.117188" xlink:href="#DejaVuSans-48"/>
     </g>
    </g>
    <g id="line2d_61">
     <path d="M 565.225335 311.141685 
L 587.433335 311.141685 
" style="fill:none;stroke:#ff7f0e;stroke-linecap:square;stroke-width:2;"/>
    </g>
    <g id="line2d_62">
     <g>
      <use style="fill:#ff7f0e;stroke:#ff7f0e;" x="576.329335" xlink:href="#mf4bcd1169c" y="311.141685"/>
     </g>
    </g>
    <g id="text_30">
     <!-- -5.0 -->
     <g transform="translate(596.316535 315.028085)scale(0.11104 -0.11104)">
      <use xlink:href="#DejaVuSans-45"/>
      <use x="36.083984" xlink:href="#DejaVuSans-53"/>
      <use x="99.707031" xlink:href="#DejaVuSans-46"/>
      <use x="131.494141" xlink:href="#DejaVuSans-48"/>
     </g>
    </g>
    <g id="line2d_63">
     <path d="M 565.225335 327.440275 
L 587.433335 327.440275 
" style="fill:none;stroke:#2ca02c;stroke-linecap:square;stroke-width:2;"/>
    </g>
    <g id="line2d_64">
     <g>
      <use style="fill:#2ca02c;stroke:#2ca02c;" x="576.329335" xlink:href="#mc2b0e21e72" y="327.440275"/>
     </g>
    </g>
    <g id="text_31">
     <!-- 0.0 -->
     <g transform="translate(596.316535 331.326675)scale(0.11104 -0.11104)">
      <use xlink:href="#DejaVuSans-48"/>
      <use x="63.623047" xlink:href="#DejaVuSans-46"/>
      <use x="95.410156" xlink:href="#DejaVuSans-48"/>
     </g>
    </g>
    <g id="line2d_65">
     <path d="M 565.225335 343.738865 
L 587.433335 343.738865 
" style="fill:none;stroke:#d62728;stroke-linecap:square;stroke-width:2;"/>
    </g>
    <g id="line2d_66">
     <g>
      <use style="fill:#d62728;stroke:#d62728;" x="576.329335" xlink:href="#m327e49b30e" y="343.738865"/>
     </g>
    </g>
    <g id="text_32">
     <!-- 5.0 -->
     <g transform="translate(596.316535 347.625265)scale(0.11104 -0.11104)">
      <use xlink:href="#DejaVuSans-53"/>
      <use x="63.623047" xlink:href="#DejaVuSans-46"/>
      <use x="95.410156" xlink:href="#DejaVuSans-48"/>
     </g>
    </g>
    <g id="line2d_67">
     <path d="M 565.225335 360.037455 
L 587.433335 360.037455 
" style="fill:none;stroke:#9467bd;stroke-linecap:square;stroke-width:2;"/>
    </g>
    <g id="line2d_68">
     <g>
      <use style="fill:#9467bd;stroke:#9467bd;" x="576.329335" xlink:href="#mcbf09eb76c" y="360.037455"/>
     </g>
    </g>
    <g id="text_33">
     <!-- 12.0 -->
     <g transform="translate(596.316535 363.923855)scale(0.11104 -0.11104)">
      <use xlink:href="#DejaVuSans-49"/>
      <use x="63.623047" xlink:href="#DejaVuSans-50"/>
      <use x="127.246094" xlink:href="#DejaVuSans-46"/>
      <use x="159.033203" xlink:href="#DejaVuSans-48"/>
     </g>
    </g>
   </g>
  </g>
  <g id="axes_3">
   <g id="patch_13">
    <path d="M 90.72 648 
L 635.04 648 
L 635.04 456 
L 90.72 456 
z
" style="fill:#ffffff;"/>
   </g>
   <g id="matplotlib.axis_5">
    <g id="xtick_13">
     <g id="line2d_69">
      <path clip-path="url(#pdca1db11fd)" d="M 115.461818 648 
L 115.461818 456 
" style="fill:none;stroke:#b0b0b0;stroke-linecap:square;stroke-width:0.8;"/>
     </g>
     <g id="line2d_70">
      <g>
       <use style="stroke:#000000;stroke-width:0.8;" x="115.461818" xlink:href="#m8e2cdaf8a8" y="648"/>
      </g>
     </g>
     <g id="text_34">
      <!-- 0 -->
      <g transform="translate(110.371818 667.1575)scale(0.16 -0.16)">
       <use xlink:href="#DejaVuSans-48"/>
      </g>
     </g>
    </g>
    <g id="xtick_14">
     <g id="line2d_71">
      <path clip-path="url(#pdca1db11fd)" d="M 205.432066 648 
L 205.432066 456 
" style="fill:none;stroke:#b0b0b0;stroke-linecap:square;stroke-width:0.8;"/>
     </g>
     <g id="line2d_72">
      <g>
       <use style="stroke:#000000;stroke-width:0.8;" x="205.432066" xlink:href="#m8e2cdaf8a8" y="648"/>
      </g>
     </g>
     <g id="text_35">
      <!-- 2 -->
      <g transform="translate(200.342066 667.1575)scale(0.16 -0.16)">
       <use xlink:href="#DejaVuSans-50"/>
      </g>
     </g>
    </g>
    <g id="xtick_15">
     <g id="line2d_73">
      <path clip-path="url(#pdca1db11fd)" d="M 295.402314 648 
L 295.402314 456 
" style="fill:none;stroke:#b0b0b0;stroke-linecap:square;stroke-width:0.8;"/>
     </g>
     <g id="line2d_74">
      <g>
       <use style="stroke:#000000;stroke-width:0.8;" x="295.402314" xlink:href="#m8e2cdaf8a8" y="648"/>
      </g>
     </g>
     <g id="text_36">
      <!-- 4 -->
      <g transform="translate(290.312314 667.1575)scale(0.16 -0.16)">
       <use xlink:href="#DejaVuSans-52"/>
      </g>
     </g>
    </g>
    <g id="xtick_16">
     <g id="line2d_75">
      <path clip-path="url(#pdca1db11fd)" d="M 385.372562 648 
L 385.372562 456 
" style="fill:none;stroke:#b0b0b0;stroke-linecap:square;stroke-width:0.8;"/>
     </g>
     <g id="line2d_76">
      <g>
       <use style="stroke:#000000;stroke-width:0.8;" x="385.372562" xlink:href="#m8e2cdaf8a8" y="648"/>
      </g>
     </g>
     <g id="text_37">
      <!-- 6 -->
      <g transform="translate(380.282562 667.1575)scale(0.16 -0.16)">
       <use xlink:href="#DejaVuSans-54"/>
      </g>
     </g>
    </g>
    <g id="xtick_17">
     <g id="line2d_77">
      <path clip-path="url(#pdca1db11fd)" d="M 475.34281 648 
L 475.34281 456 
" style="fill:none;stroke:#b0b0b0;stroke-linecap:square;stroke-width:0.8;"/>
     </g>
     <g id="line2d_78">
      <g>
       <use style="stroke:#000000;stroke-width:0.8;" x="475.34281" xlink:href="#m8e2cdaf8a8" y="648"/>
      </g>
     </g>
     <g id="text_38">
      <!-- 8 -->
      <g transform="translate(470.25281 667.1575)scale(0.16 -0.16)">
       <use xlink:href="#DejaVuSans-56"/>
      </g>
     </g>
    </g>
    <g id="xtick_18">
     <g id="line2d_79">
      <path clip-path="url(#pdca1db11fd)" d="M 565.313058 648 
L 565.313058 456 
" style="fill:none;stroke:#b0b0b0;stroke-linecap:square;stroke-width:0.8;"/>
     </g>
     <g id="line2d_80">
      <g>
       <use style="stroke:#000000;stroke-width:0.8;" x="565.313058" xlink:href="#m8e2cdaf8a8" y="648"/>
      </g>
     </g>
     <g id="text_39">
      <!-- 10 -->
      <g transform="translate(555.133058 667.1575)scale(0.16 -0.16)">
       <use xlink:href="#DejaVuSans-49"/>
       <use x="63.623047" xlink:href="#DejaVuSans-48"/>
      </g>
     </g>
    </g>
    <g id="text_40">
     <!-- phase [mm] -->
     <defs>
      <path d="M 54.890625 33.015625 
L 54.890625 0 
L 45.90625 0 
L 45.90625 32.71875 
Q 45.90625 40.484375 42.875 44.328125 
Q 39.84375 48.1875 33.796875 48.1875 
Q 26.515625 48.1875 22.3125 43.546875 
Q 18.109375 38.921875 18.109375 30.90625 
L 18.109375 0 
L 9.078125 0 
L 9.078125 75.984375 
L 18.109375 75.984375 
L 18.109375 46.1875 
Q 21.34375 51.125 25.703125 53.5625 
Q 30.078125 56 35.796875 56 
Q 45.21875 56 50.046875 50.171875 
Q 54.890625 44.34375 54.890625 33.015625 
z
" id="DejaVuSans-104"/>
      <path d="M 34.28125 27.484375 
Q 23.390625 27.484375 19.1875 25 
Q 14.984375 22.515625 14.984375 16.5 
Q 14.984375 11.71875 18.140625 8.90625 
Q 21.296875 6.109375 26.703125 6.109375 
Q 34.1875 6.109375 38.703125 11.40625 
Q 43.21875 16.703125 43.21875 25.484375 
L 43.21875 27.484375 
z
M 52.203125 31.203125 
L 52.203125 0 
L 43.21875 0 
L 43.21875 8.296875 
Q 40.140625 3.328125 35.546875 0.953125 
Q 30.953125 -1.421875 24.3125 -1.421875 
Q 15.921875 -1.421875 10.953125 3.296875 
Q 6 8.015625 6 15.921875 
Q 6 25.140625 12.171875 29.828125 
Q 18.359375 34.515625 30.609375 34.515625 
L 43.21875 34.515625 
L 43.21875 35.40625 
Q 43.21875 41.609375 39.140625 45 
Q 35.0625 48.390625 27.6875 48.390625 
Q 23 48.390625 18.546875 47.265625 
Q 14.109375 46.140625 10.015625 43.890625 
L 10.015625 52.203125 
Q 14.9375 54.109375 19.578125 55.046875 
Q 24.21875 56 28.609375 56 
Q 40.484375 56 46.34375 49.84375 
Q 52.203125 43.703125 52.203125 31.203125 
z
" id="DejaVuSans-97"/>
      <path d="M 44.28125 53.078125 
L 44.28125 44.578125 
Q 40.484375 46.53125 36.375 47.5 
Q 32.28125 48.484375 27.875 48.484375 
Q 21.1875 48.484375 17.84375 46.4375 
Q 14.5 44.390625 14.5 40.28125 
Q 14.5 37.15625 16.890625 35.375 
Q 19.28125 33.59375 26.515625 31.984375 
L 29.59375 31.296875 
Q 39.15625 29.25 43.1875 25.515625 
Q 47.21875 21.78125 47.21875 15.09375 
Q 47.21875 7.46875 41.1875 3.015625 
Q 35.15625 -1.421875 24.609375 -1.421875 
Q 20.21875 -1.421875 15.453125 -0.5625 
Q 10.6875 0.296875 5.421875 2 
L 5.421875 11.28125 
Q 10.40625 8.6875 15.234375 7.390625 
Q 20.0625 6.109375 24.8125 6.109375 
Q 31.15625 6.109375 34.5625 8.28125 
Q 37.984375 10.453125 37.984375 14.40625 
Q 37.984375 18.0625 35.515625 20.015625 
Q 33.0625 21.96875 24.703125 23.78125 
L 21.578125 24.515625 
Q 13.234375 26.265625 9.515625 29.90625 
Q 5.8125 33.546875 5.8125 39.890625 
Q 5.8125 47.609375 11.28125 51.796875 
Q 16.75 56 26.8125 56 
Q 31.78125 56 36.171875 55.265625 
Q 40.578125 54.546875 44.28125 53.078125 
z
" id="DejaVuSans-115"/>
     </defs>
     <g transform="translate(314.36875 686.6425)scale(0.16 -0.16)">
      <use xlink:href="#DejaVuSans-112"/>
      <use x="63.476562" xlink:href="#DejaVuSans-104"/>
      <use x="126.855469" xlink:href="#DejaVuSans-97"/>
      <use x="188.134766" xlink:href="#DejaVuSans-115"/>
      <use x="240.234375" xlink:href="#DejaVuSans-101"/>
      <use x="301.757812" xlink:href="#DejaVuSans-32"/>
      <use x="333.544922" xlink:href="#DejaVuSans-91"/>
      <use x="372.558594" xlink:href="#DejaVuSans-109"/>
      <use x="469.970703" xlink:href="#DejaVuSans-109"/>
      <use x="567.382812" xlink:href="#DejaVuSans-93"/>
     </g>
    </g>
   </g>
   <g id="matplotlib.axis_6">
    <g id="ytick_13">
     <g id="line2d_81">
      <path clip-path="url(#pdca1db11fd)" d="M 90.72 627.868745 
L 635.04 627.868745 
" style="fill:none;stroke:#b0b0b0;stroke-linecap:square;stroke-width:0.8;"/>
     </g>
     <g id="line2d_82">
      <g>
       <use style="stroke:#000000;stroke-width:0.8;" x="90.72" xlink:href="#m27bd1ac792" y="627.868745"/>
      </g>
     </g>
     <g id="text_41">
      <!-- 0.3 -->
      <g transform="translate(58.275 633.947495)scale(0.16 -0.16)">
       <use xlink:href="#DejaVuSans-48"/>
       <use x="63.623047" xlink:href="#DejaVuSans-46"/>
       <use x="95.410156" xlink:href="#DejaVuSans-51"/>
      </g>
     </g>
    </g>
    <g id="ytick_14">
     <g id="line2d_83">
      <path clip-path="url(#pdca1db11fd)" d="M 90.72 595.473555 
L 635.04 595.473555 
" style="fill:none;stroke:#b0b0b0;stroke-linecap:square;stroke-width:0.8;"/>
     </g>
     <g id="line2d_84">
      <g>
       <use style="stroke:#000000;stroke-width:0.8;" x="90.72" xlink:href="#m27bd1ac792" y="595.473555"/>
      </g>
     </g>
     <g id="text_42">
      <!-- 0.4 -->
      <g transform="translate(58.275 601.552305)scale(0.16 -0.16)">
       <use xlink:href="#DejaVuSans-48"/>
       <use x="63.623047" xlink:href="#DejaVuSans-46"/>
       <use x="95.410156" xlink:href="#DejaVuSans-52"/>
      </g>
     </g>
    </g>
    <g id="ytick_15">
     <g id="line2d_85">
      <path clip-path="url(#pdca1db11fd)" d="M 90.72 563.078365 
L 635.04 563.078365 
" style="fill:none;stroke:#b0b0b0;stroke-linecap:square;stroke-width:0.8;"/>
     </g>
     <g id="line2d_86">
      <g>
       <use style="stroke:#000000;stroke-width:0.8;" x="90.72" xlink:href="#m27bd1ac792" y="563.078365"/>
      </g>
     </g>
     <g id="text_43">
      <!-- 0.5 -->
      <g transform="translate(58.275 569.157115)scale(0.16 -0.16)">
       <use xlink:href="#DejaVuSans-48"/>
       <use x="63.623047" xlink:href="#DejaVuSans-46"/>
       <use x="95.410156" xlink:href="#DejaVuSans-53"/>
      </g>
     </g>
    </g>
    <g id="ytick_16">
     <g id="line2d_87">
      <path clip-path="url(#pdca1db11fd)" d="M 90.72 530.683175 
L 635.04 530.683175 
" style="fill:none;stroke:#b0b0b0;stroke-linecap:square;stroke-width:0.8;"/>
     </g>
     <g id="line2d_88">
      <g>
       <use style="stroke:#000000;stroke-width:0.8;" x="90.72" xlink:href="#m27bd1ac792" y="530.683175"/>
      </g>
     </g>
     <g id="text_44">
      <!-- 0.6 -->
      <g transform="translate(58.275 536.761925)scale(0.16 -0.16)">
       <use xlink:href="#DejaVuSans-48"/>
       <use x="63.623047" xlink:href="#DejaVuSans-46"/>
       <use x="95.410156" xlink:href="#DejaVuSans-54"/>
      </g>
     </g>
    </g>
    <g id="ytick_17">
     <g id="line2d_89">
      <path clip-path="url(#pdca1db11fd)" d="M 90.72 498.287985 
L 635.04 498.287985 
" style="fill:none;stroke:#b0b0b0;stroke-linecap:square;stroke-width:0.8;"/>
     </g>
     <g id="line2d_90">
      <g>
       <use style="stroke:#000000;stroke-width:0.8;" x="90.72" xlink:href="#m27bd1ac792" y="498.287985"/>
      </g>
     </g>
     <g id="text_45">
      <!-- 0.7 -->
      <g transform="translate(58.275 504.366735)scale(0.16 -0.16)">
       <use xlink:href="#DejaVuSans-48"/>
       <use x="63.623047" xlink:href="#DejaVuSans-46"/>
       <use x="95.410156" xlink:href="#DejaVuSans-55"/>
      </g>
     </g>
    </g>
    <g id="ytick_18">
     <g id="line2d_91">
      <path clip-path="url(#pdca1db11fd)" d="M 90.72 465.892795 
L 635.04 465.892795 
" style="fill:none;stroke:#b0b0b0;stroke-linecap:square;stroke-width:0.8;"/>
     </g>
     <g id="line2d_92">
      <g>
       <use style="stroke:#000000;stroke-width:0.8;" x="90.72" xlink:href="#m27bd1ac792" y="465.892795"/>
      </g>
     </g>
     <g id="text_46">
      <!-- 0.8 -->
      <g transform="translate(58.275 471.971545)scale(0.16 -0.16)">
       <use xlink:href="#DejaVuSans-48"/>
       <use x="63.623047" xlink:href="#DejaVuSans-46"/>
       <use x="95.410156" xlink:href="#DejaVuSans-56"/>
      </g>
     </g>
    </g>
    <g id="text_47">
     <!-- Bz -->
     <defs>
      <path d="M 5.515625 54.6875 
L 48.1875 54.6875 
L 48.1875 46.484375 
L 14.40625 7.171875 
L 48.1875 7.171875 
L 48.1875 0 
L 4.296875 0 
L 4.296875 8.203125 
L 38.09375 47.515625 
L 5.515625 47.515625 
z
" id="DejaVuSans-122"/>
     </defs>
     <g transform="translate(50.9475 561.6875)rotate(-90)scale(0.16 -0.16)">
      <use xlink:href="#DejaVuSans-66"/>
      <use x="68.603516" xlink:href="#DejaVuSans-122"/>
     </g>
    </g>
   </g>
   <g id="line2d_93">
    <path clip-path="url(#pdca1db11fd)" d="M 115.461818 639.272727 
L 160.446942 637.513719 
L 205.432066 628.646007 
L 250.41719 615.020706 
L 295.402314 599.072338 
L 340.387438 582.631209 
L 385.372562 567.0127 
L 430.357686 553.238561 
L 475.34281 541.931959 
L 520.327934 533.463239 
L 565.313058 528.083926 
L 610.298182 526.110787 
" style="fill:none;stroke:#1f77b4;stroke-linecap:square;stroke-width:2;"/>
    <g clip-path="url(#pdca1db11fd)">
     <use style="fill:#1f77b4;stroke:#1f77b4;" x="115.461818" xlink:href="#m5071aafc95" y="639.272727"/>
     <use style="fill:#1f77b4;stroke:#1f77b4;" x="160.446942" xlink:href="#m5071aafc95" y="637.513719"/>
     <use style="fill:#1f77b4;stroke:#1f77b4;" x="205.432066" xlink:href="#m5071aafc95" y="628.646007"/>
     <use style="fill:#1f77b4;stroke:#1f77b4;" x="250.41719" xlink:href="#m5071aafc95" y="615.020706"/>
     <use style="fill:#1f77b4;stroke:#1f77b4;" x="295.402314" xlink:href="#m5071aafc95" y="599.072338"/>
     <use style="fill:#1f77b4;stroke:#1f77b4;" x="340.387438" xlink:href="#m5071aafc95" y="582.631209"/>
     <use style="fill:#1f77b4;stroke:#1f77b4;" x="385.372562" xlink:href="#m5071aafc95" y="567.0127"/>
     <use style="fill:#1f77b4;stroke:#1f77b4;" x="430.357686" xlink:href="#m5071aafc95" y="553.238561"/>
     <use style="fill:#1f77b4;stroke:#1f77b4;" x="475.34281" xlink:href="#m5071aafc95" y="541.931959"/>
     <use style="fill:#1f77b4;stroke:#1f77b4;" x="520.327934" xlink:href="#m5071aafc95" y="533.463239"/>
     <use style="fill:#1f77b4;stroke:#1f77b4;" x="565.313058" xlink:href="#m5071aafc95" y="528.083926"/>
     <use style="fill:#1f77b4;stroke:#1f77b4;" x="610.298182" xlink:href="#m5071aafc95" y="526.110787"/>
    </g>
   </g>
   <g id="line2d_94">
    <path clip-path="url(#pdca1db11fd)" d="M 115.461818 579.351589 
L 160.446942 578.924543 
L 205.432066 572.275375 
L 250.41719 560.696222 
L 295.402314 546.027266 
L 340.387438 529.971493 
L 385.372562 514.032632 
L 430.357686 499.488649 
L 475.34281 487.246081 
L 520.327934 477.869384 
L 565.313058 471.724213 
L 610.298182 469.20979 
" style="fill:none;stroke:#ff7f0e;stroke-linecap:square;stroke-width:2;"/>
    <g clip-path="url(#pdca1db11fd)">
     <use style="fill:#ff7f0e;stroke:#ff7f0e;" x="115.461818" xlink:href="#mf4bcd1169c" y="579.351589"/>
     <use style="fill:#ff7f0e;stroke:#ff7f0e;" x="160.446942" xlink:href="#mf4bcd1169c" y="578.924543"/>
     <use style="fill:#ff7f0e;stroke:#ff7f0e;" x="205.432066" xlink:href="#mf4bcd1169c" y="572.275375"/>
     <use style="fill:#ff7f0e;stroke:#ff7f0e;" x="250.41719" xlink:href="#mf4bcd1169c" y="560.696222"/>
     <use style="fill:#ff7f0e;stroke:#ff7f0e;" x="295.402314" xlink:href="#mf4bcd1169c" y="546.027266"/>
     <use style="fill:#ff7f0e;stroke:#ff7f0e;" x="340.387438" xlink:href="#mf4bcd1169c" y="529.971493"/>
     <use style="fill:#ff7f0e;stroke:#ff7f0e;" x="385.372562" xlink:href="#mf4bcd1169c" y="514.032632"/>
     <use style="fill:#ff7f0e;stroke:#ff7f0e;" x="430.357686" xlink:href="#mf4bcd1169c" y="499.488649"/>
     <use style="fill:#ff7f0e;stroke:#ff7f0e;" x="475.34281" xlink:href="#mf4bcd1169c" y="487.246081"/>
     <use style="fill:#ff7f0e;stroke:#ff7f0e;" x="520.327934" xlink:href="#mf4bcd1169c" y="477.869384"/>
     <use style="fill:#ff7f0e;stroke:#ff7f0e;" x="565.313058" xlink:href="#mf4bcd1169c" y="471.724213"/>
     <use style="fill:#ff7f0e;stroke:#ff7f0e;" x="610.298182" xlink:href="#mf4bcd1169c" y="469.20979"/>
    </g>
   </g>
   <g id="line2d_95">
    <path clip-path="url(#pdca1db11fd)" d="M 115.461818 578.959927 
L 160.446942 578.095127 
L 205.432066 570.814626 
L 250.41719 558.53393 
L 295.402314 543.169708 
L 340.387438 526.533012 
L 385.372562 510.152617 
L 430.357686 495.271709 
L 475.34281 482.813742 
L 520.327934 473.333256 
L 565.313058 467.182141 
L 610.298182 464.727273 
" style="fill:none;stroke:#2ca02c;stroke-linecap:square;stroke-width:2;"/>
    <g clip-path="url(#pdca1db11fd)">
     <use style="fill:#2ca02c;stroke:#2ca02c;" x="115.461818" xlink:href="#mc2b0e21e72" y="578.959927"/>
     <use style="fill:#2ca02c;stroke:#2ca02c;" x="160.446942" xlink:href="#mc2b0e21e72" y="578.095127"/>
     <use style="fill:#2ca02c;stroke:#2ca02c;" x="205.432066" xlink:href="#mc2b0e21e72" y="570.814626"/>
     <use style="fill:#2ca02c;stroke:#2ca02c;" x="250.41719" xlink:href="#mc2b0e21e72" y="558.53393"/>
     <use style="fill:#2ca02c;stroke:#2ca02c;" x="295.402314" xlink:href="#mc2b0e21e72" y="543.169708"/>
     <use style="fill:#2ca02c;stroke:#2ca02c;" x="340.387438" xlink:href="#mc2b0e21e72" y="526.533012"/>
     <use style="fill:#2ca02c;stroke:#2ca02c;" x="385.372562" xlink:href="#mc2b0e21e72" y="510.152617"/>
     <use style="fill:#2ca02c;stroke:#2ca02c;" x="430.357686" xlink:href="#mc2b0e21e72" y="495.271709"/>
     <use style="fill:#2ca02c;stroke:#2ca02c;" x="475.34281" xlink:href="#mc2b0e21e72" y="482.813742"/>
     <use style="fill:#2ca02c;stroke:#2ca02c;" x="520.327934" xlink:href="#mc2b0e21e72" y="473.333256"/>
     <use style="fill:#2ca02c;stroke:#2ca02c;" x="565.313058" xlink:href="#mc2b0e21e72" y="467.182141"/>
     <use style="fill:#2ca02c;stroke:#2ca02c;" x="610.298182" xlink:href="#mc2b0e21e72" y="464.727273"/>
    </g>
   </g>
   <g id="line2d_96">
    <path clip-path="url(#pdca1db11fd)" d="M 115.461818 576.515768 
L 160.446942 575.858571 
L 205.432066 569.078022 
L 250.41719 557.451546 
L 295.402314 542.755817 
L 340.387438 526.713542 
L 385.372562 510.802319 
L 430.357686 496.290417 
L 475.34281 484.10643 
L 520.327934 474.819906 
L 565.313058 468.773887 
L 610.298182 466.35083 
" style="fill:none;stroke:#d62728;stroke-linecap:square;stroke-width:2;"/>
    <g clip-path="url(#pdca1db11fd)">
     <use style="fill:#d62728;stroke:#d62728;" x="115.461818" xlink:href="#m327e49b30e" y="576.515768"/>
     <use style="fill:#d62728;stroke:#d62728;" x="160.446942" xlink:href="#m327e49b30e" y="575.858571"/>
     <use style="fill:#d62728;stroke:#d62728;" x="205.432066" xlink:href="#m327e49b30e" y="569.078022"/>
     <use style="fill:#d62728;stroke:#d62728;" x="250.41719" xlink:href="#m327e49b30e" y="557.451546"/>
     <use style="fill:#d62728;stroke:#d62728;" x="295.402314" xlink:href="#m327e49b30e" y="542.755817"/>
     <use style="fill:#d62728;stroke:#d62728;" x="340.387438" xlink:href="#m327e49b30e" y="526.713542"/>
     <use style="fill:#d62728;stroke:#d62728;" x="385.372562" xlink:href="#m327e49b30e" y="510.802319"/>
     <use style="fill:#d62728;stroke:#d62728;" x="430.357686" xlink:href="#m327e49b30e" y="496.290417"/>
     <use style="fill:#d62728;stroke:#d62728;" x="475.34281" xlink:href="#m327e49b30e" y="484.10643"/>
     <use style="fill:#d62728;stroke:#d62728;" x="520.327934" xlink:href="#m327e49b30e" y="474.819906"/>
     <use style="fill:#d62728;stroke:#d62728;" x="565.313058" xlink:href="#m327e49b30e" y="468.773887"/>
     <use style="fill:#d62728;stroke:#d62728;" x="610.298182" xlink:href="#m327e49b30e" y="466.35083"/>
    </g>
   </g>
   <g id="line2d_97">
    <path clip-path="url(#pdca1db11fd)" d="M 115.461818 634.285573 
L 160.446942 633.185674 
L 205.432066 624.779351 
L 250.41719 611.348188 
L 295.402314 595.344478 
L 340.387438 578.678458 
L 385.372562 562.69492 
L 430.357686 548.501878 
L 475.34281 536.844102 
L 520.327934 528.083479 
L 565.313058 522.433326 
L 610.298182 520.201062 
" style="fill:none;stroke:#9467bd;stroke-linecap:square;stroke-width:2;"/>
    <g clip-path="url(#pdca1db11fd)">
     <use style="fill:#9467bd;stroke:#9467bd;" x="115.461818" xlink:href="#mcbf09eb76c" y="634.285573"/>
     <use style="fill:#9467bd;stroke:#9467bd;" x="160.446942" xlink:href="#mcbf09eb76c" y="633.185674"/>
     <use style="fill:#9467bd;stroke:#9467bd;" x="205.432066" xlink:href="#mcbf09eb76c" y="624.779351"/>
     <use style="fill:#9467bd;stroke:#9467bd;" x="250.41719" xlink:href="#mcbf09eb76c" y="611.348188"/>
     <use style="fill:#9467bd;stroke:#9467bd;" x="295.402314" xlink:href="#mcbf09eb76c" y="595.344478"/>
     <use style="fill:#9467bd;stroke:#9467bd;" x="340.387438" xlink:href="#mcbf09eb76c" y="578.678458"/>
     <use style="fill:#9467bd;stroke:#9467bd;" x="385.372562" xlink:href="#mcbf09eb76c" y="562.69492"/>
     <use style="fill:#9467bd;stroke:#9467bd;" x="430.357686" xlink:href="#mcbf09eb76c" y="548.501878"/>
     <use style="fill:#9467bd;stroke:#9467bd;" x="475.34281" xlink:href="#mcbf09eb76c" y="536.844102"/>
     <use style="fill:#9467bd;stroke:#9467bd;" x="520.327934" xlink:href="#mcbf09eb76c" y="528.083479"/>
     <use style="fill:#9467bd;stroke:#9467bd;" x="565.313058" xlink:href="#mcbf09eb76c" y="522.433326"/>
     <use style="fill:#9467bd;stroke:#9467bd;" x="610.298182" xlink:href="#mcbf09eb76c" y="520.201062"/>
    </g>
   </g>
   <g id="patch_14">
    <path d="M 90.72 648 
L 90.72 456 
" style="fill:none;stroke:#000000;stroke-linecap:square;stroke-linejoin:miter;stroke-width:0.8;"/>
   </g>
   <g id="patch_15">
    <path d="M 635.04 648 
L 635.04 456 
" style="fill:none;stroke:#000000;stroke-linecap:square;stroke-linejoin:miter;stroke-width:0.8;"/>
   </g>
   <g id="patch_16">
    <path d="M 90.72 648 
L 635.04 648 
" style="fill:none;stroke:#000000;stroke-linecap:square;stroke-linejoin:miter;stroke-width:0.8;"/>
   </g>
   <g id="patch_17">
    <path d="M 90.72 456 
L 635.04 456 
" style="fill:none;stroke:#000000;stroke-linecap:square;stroke-linejoin:miter;stroke-width:0.8;"/>
   </g>
  </g>
  <g id="text_48">
   <!-- Amplitudes for 1991c @ y=-01.0 -->
   <defs>
    <path d="M 37.109375 75.984375 
L 37.109375 68.5 
L 28.515625 68.5 
Q 23.6875 68.5 21.796875 66.546875 
Q 19.921875 64.59375 19.921875 59.515625 
L 19.921875 54.6875 
L 34.71875 54.6875 
L 34.71875 47.703125 
L 19.921875 47.703125 
L 19.921875 0 
L 10.890625 0 
L 10.890625 47.703125 
L 2.296875 47.703125 
L 2.296875 54.6875 
L 10.890625 54.6875 
L 10.890625 58.5 
Q 10.890625 67.625 15.140625 71.796875 
Q 19.390625 75.984375 28.609375 75.984375 
z
" id="DejaVuSans-102"/>
    <path d="M 30.609375 48.390625 
Q 23.390625 48.390625 19.1875 42.75 
Q 14.984375 37.109375 14.984375 27.296875 
Q 14.984375 17.484375 19.15625 11.84375 
Q 23.34375 6.203125 30.609375 6.203125 
Q 37.796875 6.203125 41.984375 11.859375 
Q 46.1875 17.53125 46.1875 27.296875 
Q 46.1875 37.015625 41.984375 42.703125 
Q 37.796875 48.390625 30.609375 48.390625 
z
M 30.609375 56 
Q 42.328125 56 49.015625 48.375 
Q 55.71875 40.765625 55.71875 27.296875 
Q 55.71875 13.875 49.015625 6.21875 
Q 42.328125 -1.421875 30.609375 -1.421875 
Q 18.84375 -1.421875 12.171875 6.21875 
Q 5.515625 13.875 5.515625 27.296875 
Q 5.515625 40.765625 12.171875 48.375 
Q 18.84375 56 30.609375 56 
z
" id="DejaVuSans-111"/>
    <path d="M 41.109375 46.296875 
Q 39.59375 47.171875 37.8125 47.578125 
Q 36.03125 48 33.890625 48 
Q 26.265625 48 22.1875 43.046875 
Q 18.109375 38.09375 18.109375 28.8125 
L 18.109375 0 
L 9.078125 0 
L 9.078125 54.6875 
L 18.109375 54.6875 
L 18.109375 46.1875 
Q 20.953125 51.171875 25.484375 53.578125 
Q 30.03125 56 36.53125 56 
Q 37.453125 56 38.578125 55.875 
Q 39.703125 55.765625 41.0625 55.515625 
z
" id="DejaVuSans-114"/>
    <path d="M 10.984375 1.515625 
L 10.984375 10.5 
Q 14.703125 8.734375 18.5 7.8125 
Q 22.3125 6.890625 25.984375 6.890625 
Q 35.75 6.890625 40.890625 13.453125 
Q 46.046875 20.015625 46.78125 33.40625 
Q 43.953125 29.203125 39.59375 26.953125 
Q 35.25 24.703125 29.984375 24.703125 
Q 19.046875 24.703125 12.671875 31.3125 
Q 6.296875 37.9375 6.296875 49.421875 
Q 6.296875 60.640625 12.9375 67.421875 
Q 19.578125 74.21875 30.609375 74.21875 
Q 43.265625 74.21875 49.921875 64.515625 
Q 56.59375 54.828125 56.59375 36.375 
Q 56.59375 19.140625 48.40625 8.859375 
Q 40.234375 -1.421875 26.421875 -1.421875 
Q 22.703125 -1.421875 18.890625 -0.6875 
Q 15.09375 0.046875 10.984375 1.515625 
z
M 30.609375 32.421875 
Q 37.25 32.421875 41.125 36.953125 
Q 45.015625 41.5 45.015625 49.421875 
Q 45.015625 57.28125 41.125 61.84375 
Q 37.25 66.40625 30.609375 66.40625 
Q 23.96875 66.40625 20.09375 61.84375 
Q 16.21875 57.28125 16.21875 49.421875 
Q 16.21875 41.5 20.09375 36.953125 
Q 23.96875 32.421875 30.609375 32.421875 
z
" id="DejaVuSans-57"/>
    <path d="M 48.78125 52.59375 
L 48.78125 44.1875 
Q 44.96875 46.296875 41.140625 47.34375 
Q 37.3125 48.390625 33.40625 48.390625 
Q 24.65625 48.390625 19.8125 42.84375 
Q 14.984375 37.3125 14.984375 27.296875 
Q 14.984375 17.28125 19.8125 11.734375 
Q 24.65625 6.203125 33.40625 6.203125 
Q 37.3125 6.203125 41.140625 7.25 
Q 44.96875 8.296875 48.78125 10.40625 
L 48.78125 2.09375 
Q 45.015625 0.34375 40.984375 -0.53125 
Q 36.96875 -1.421875 32.421875 -1.421875 
Q 20.0625 -1.421875 12.78125 6.34375 
Q 5.515625 14.109375 5.515625 27.296875 
Q 5.515625 40.671875 12.859375 48.328125 
Q 20.21875 56 33.015625 56 
Q 37.15625 56 41.109375 55.140625 
Q 45.0625 54.296875 48.78125 52.59375 
z
" id="DejaVuSans-99"/>
    <path d="M 37.203125 26.21875 
Q 37.203125 19.234375 40.671875 15.25 
Q 44.140625 11.28125 50.203125 11.28125 
Q 56.203125 11.28125 59.640625 15.28125 
Q 63.09375 19.28125 63.09375 26.21875 
Q 63.09375 33.0625 59.578125 37.078125 
Q 56.0625 41.109375 50.09375 41.109375 
Q 44.1875 41.109375 40.6875 37.109375 
Q 37.203125 33.109375 37.203125 26.21875 
z
M 63.8125 11.625 
Q 60.890625 7.859375 57.109375 6.078125 
Q 53.328125 4.296875 48.296875 4.296875 
Q 39.890625 4.296875 34.640625 10.375 
Q 29.390625 16.453125 29.390625 26.21875 
Q 29.390625 35.984375 34.65625 42.078125 
Q 39.9375 48.1875 48.296875 48.1875 
Q 53.328125 48.1875 57.125 46.359375 
Q 60.9375 44.53125 63.8125 40.828125 
L 63.8125 47.21875 
L 70.796875 47.21875 
L 70.796875 11.28125 
Q 77.9375 12.359375 81.953125 17.796875 
Q 85.984375 23.25 85.984375 31.890625 
Q 85.984375 37.109375 84.4375 41.703125 
Q 82.90625 46.296875 79.78125 50.203125 
Q 74.703125 56.59375 67.40625 59.984375 
Q 60.109375 63.375 51.515625 63.375 
Q 45.515625 63.375 39.984375 61.78125 
Q 34.46875 60.203125 29.78125 57.078125 
Q 22.125 52.09375 17.796875 44.015625 
Q 13.484375 35.9375 13.484375 26.515625 
Q 13.484375 18.75 16.28125 11.953125 
Q 19.09375 5.171875 24.421875 0 
Q 29.546875 -5.078125 36.28125 -7.734375 
Q 43.015625 -10.40625 50.6875 -10.40625 
Q 56.984375 -10.40625 63.0625 -8.28125 
Q 69.140625 -6.15625 74.21875 -2.203125 
L 78.609375 -7.625 
Q 72.515625 -12.359375 65.3125 -14.875 
Q 58.109375 -17.390625 50.6875 -17.390625 
Q 41.65625 -17.390625 33.640625 -14.1875 
Q 25.640625 -10.984375 19.390625 -4.890625 
Q 13.140625 1.21875 9.859375 9.25 
Q 6.59375 17.28125 6.59375 26.515625 
Q 6.59375 35.40625 9.90625 43.453125 
Q 13.234375 51.515625 19.390625 57.625 
Q 25.6875 63.8125 33.9375 67.109375 
Q 42.1875 70.40625 51.421875 70.40625 
Q 61.765625 70.40625 70.625 66.15625 
Q 79.5 61.921875 85.5 54.109375 
Q 89.15625 49.3125 91.078125 43.703125 
Q 93.015625 38.09375 93.015625 32.078125 
Q 93.015625 19.234375 85.25 11.8125 
Q 77.484375 4.390625 63.8125 4.109375 
z
" id="DejaVuSans-64"/>
    <path d="M 10.59375 45.40625 
L 73.1875 45.40625 
L 73.1875 37.203125 
L 10.59375 37.203125 
z
M 10.59375 25.484375 
L 73.1875 25.484375 
L 73.1875 17.1875 
L 10.59375 17.1875 
z
" id="DejaVuSans-61"/>
   </defs>
   <g transform="translate(166.524 28.989)scale(0.192 -0.192)">
    <use xlink:href="#DejaVuSans-65"/>
    <use x="68.408203" xlink:href="#DejaVuSans-109"/>
    <use x="165.820312" xlink:href="#DejaVuSans-112"/>
    <use x="229.296875" xlink:href="#DejaVuSans-108"/>
    <use x="257.080078" xlink:href="#DejaVuSans-105"/>
    <use x="284.863281" xlink:href="#DejaVuSans-116"/>
    <use x="324.072266" xlink:href="#DejaVuSans-117"/>
    <use x="387.451172" xlink:href="#DejaVuSans-100"/>
    <use x="450.927734" xlink:href="#DejaVuSans-101"/>
    <use x="512.451172" xlink:href="#DejaVuSans-115"/>
    <use x="564.550781" xlink:href="#DejaVuSans-32"/>
    <use x="596.337891" xlink:href="#DejaVuSans-102"/>
    <use x="631.542969" xlink:href="#DejaVuSans-111"/>
    <use x="692.724609" xlink:href="#DejaVuSans-114"/>
    <use x="733.837891" xlink:href="#DejaVuSans-32"/>
    <use x="765.625" xlink:href="#DejaVuSans-49"/>
    <use x="829.248047" xlink:href="#DejaVuSans-57"/>
    <use x="892.871094" xlink:href="#DejaVuSans-57"/>
    <use x="956.494141" xlink:href="#DejaVuSans-49"/>
    <use x="1020.117188" xlink:href="#DejaVuSans-99"/>
    <use x="1075.097656" xlink:href="#DejaVuSans-32"/>
    <use x="1106.884766" xlink:href="#DejaVuSans-64"/>
    <use x="1206.884766" xlink:href="#DejaVuSans-32"/>
    <use x="1238.671875" xlink:href="#DejaVuSans-121"/>
    <use x="1297.851562" xlink:href="#DejaVuSans-61"/>
    <use x="1381.640625" xlink:href="#DejaVuSans-45"/>
    <use x="1417.724609" xlink:href="#DejaVuSans-48"/>
    <use x="1481.347656" xlink:href="#DejaVuSans-49"/>
    <use x="1544.970703" xlink:href="#DejaVuSans-46"/>
    <use x="1576.757812" xlink:href="#DejaVuSans-48"/>
   </g>
  </g>
 </g>
 <defs>
  <clipPath id="pd17542ee3c">
   <rect height="192" width="544.32" x="90.72" y="72"/>
  </clipPath>
  <clipPath id="p8c57694f0d">
   <rect height="192" width="544.32" x="90.72" y="264"/>
  </clipPath>
  <clipPath id="pdca1db11fd">
   <rect height="192" width="544.32" x="90.72" y="456"/>
  </clipPath>
 </defs>
</svg>
