<?xml version="1.0" encoding="utf-8" standalone="no"?>
<!DOCTYPE svg PUBLIC "-//W3C//DTD SVG 1.1//EN"
  "http://www.w3.org/Graphics/SVG/1.1/DTD/svg11.dtd">
<!-- Created with matplotlib (https://matplotlib.org/) -->
<svg height="720pt" version="1.1" viewBox="0 0 648 720" width="648pt" xmlns="http://www.w3.org/2000/svg" xmlns:xlink="http://www.w3.org/1999/xlink">
 <defs>
  <style type="text/css">
*{stroke-linecap:butt;stroke-linejoin:round;}
  </style>
 </defs>
 <g id="figure_1">
  <g id="patch_1">
   <path d="M 0 720 
L 648 720 
L 648 0 
L 0 0 
z
" style="fill:#ffffff;"/>
  </g>
  <g id="axes_1">
   <g id="patch_2">
    <path d="M 90.72 264 
L 635.04 264 
L 635.04 72 
L 90.72 72 
z
" style="fill:#ffffff;"/>
   </g>
   <g id="matplotlib.axis_1">
    <g id="xtick_1">
     <g id="line2d_1">
      <path clip-path="url(#p3e7f60cb47)" d="M 115.461818 264 
L 115.461818 72 
" style="fill:none;stroke:#b0b0b0;stroke-linecap:square;stroke-width:0.8;"/>
     </g>
     <g id="line2d_2">
      <defs>
       <path d="M 0 0 
L 0 3.5 
" id="ma3f76f7b1b" style="stroke:#000000;stroke-width:0.8;"/>
      </defs>
      <g>
       <use style="stroke:#000000;stroke-width:0.8;" x="115.461818" xlink:href="#ma3f76f7b1b" y="264"/>
      </g>
     </g>
     <g id="text_1">
      <!-- 0 -->
      <defs>
       <path d="M 31.78125 66.40625 
Q 24.171875 66.40625 20.328125 58.90625 
Q 16.5 51.421875 16.5 36.375 
Q 16.5 21.390625 20.328125 13.890625 
Q 24.171875 6.390625 31.78125 6.390625 
Q 39.453125 6.390625 43.28125 13.890625 
Q 47.125 21.390625 47.125 36.375 
Q 47.125 51.421875 43.28125 58.90625 
Q 39.453125 66.40625 31.78125 66.40625 
z
M 31.78125 74.21875 
Q 44.046875 74.21875 50.515625 64.515625 
Q 56.984375 54.828125 56.984375 36.375 
Q 56.984375 17.96875 50.515625 8.265625 
Q 44.046875 -1.421875 31.78125 -1.421875 
Q 19.53125 -1.421875 13.0625 8.265625 
Q 6.59375 17.96875 6.59375 36.375 
Q 6.59375 54.828125 13.0625 64.515625 
Q 19.53125 74.21875 31.78125 74.21875 
z
" id="DejaVuSans-48"/>
      </defs>
      <g transform="translate(110.371818 283.1575)scale(0.16 -0.16)">
       <use xlink:href="#DejaVuSans-48"/>
      </g>
     </g>
    </g>
    <g id="xtick_2">
     <g id="line2d_3">
      <path clip-path="url(#p3e7f60cb47)" d="M 205.432066 264 
L 205.432066 72 
" style="fill:none;stroke:#b0b0b0;stroke-linecap:square;stroke-width:0.8;"/>
     </g>
     <g id="line2d_4">
      <g>
       <use style="stroke:#000000;stroke-width:0.8;" x="205.432066" xlink:href="#ma3f76f7b1b" y="264"/>
      </g>
     </g>
     <g id="text_2">
      <!-- 2 -->
      <defs>
       <path d="M 19.1875 8.296875 
L 53.609375 8.296875 
L 53.609375 0 
L 7.328125 0 
L 7.328125 8.296875 
Q 12.9375 14.109375 22.625 23.890625 
Q 32.328125 33.6875 34.8125 36.53125 
Q 39.546875 41.84375 41.421875 45.53125 
Q 43.3125 49.21875 43.3125 52.78125 
Q 43.3125 58.59375 39.234375 62.25 
Q 35.15625 65.921875 28.609375 65.921875 
Q 23.96875 65.921875 18.8125 64.3125 
Q 13.671875 62.703125 7.8125 59.421875 
L 7.8125 69.390625 
Q 13.765625 71.78125 18.9375 73 
Q 24.125 74.21875 28.421875 74.21875 
Q 39.75 74.21875 46.484375 68.546875 
Q 53.21875 62.890625 53.21875 53.421875 
Q 53.21875 48.921875 51.53125 44.890625 
Q 49.859375 40.875 45.40625 35.40625 
Q 44.1875 33.984375 37.640625 27.21875 
Q 31.109375 20.453125 19.1875 8.296875 
z
" id="DejaVuSans-50"/>
      </defs>
      <g transform="translate(200.342066 283.1575)scale(0.16 -0.16)">
       <use xlink:href="#DejaVuSans-50"/>
      </g>
     </g>
    </g>
    <g id="xtick_3">
     <g id="line2d_5">
      <path clip-path="url(#p3e7f60cb47)" d="M 295.402314 264 
L 295.402314 72 
" style="fill:none;stroke:#b0b0b0;stroke-linecap:square;stroke-width:0.8;"/>
     </g>
     <g id="line2d_6">
      <g>
       <use style="stroke:#000000;stroke-width:0.8;" x="295.402314" xlink:href="#ma3f76f7b1b" y="264"/>
      </g>
     </g>
     <g id="text_3">
      <!-- 4 -->
      <defs>
       <path d="M 37.796875 64.3125 
L 12.890625 25.390625 
L 37.796875 25.390625 
z
M 35.203125 72.90625 
L 47.609375 72.90625 
L 47.609375 25.390625 
L 58.015625 25.390625 
L 58.015625 17.1875 
L 47.609375 17.1875 
L 47.609375 0 
L 37.796875 0 
L 37.796875 17.1875 
L 4.890625 17.1875 
L 4.890625 26.703125 
z
" id="DejaVuSans-52"/>
      </defs>
      <g transform="translate(290.312314 283.1575)scale(0.16 -0.16)">
       <use xlink:href="#DejaVuSans-52"/>
      </g>
     </g>
    </g>
    <g id="xtick_4">
     <g id="line2d_7">
      <path clip-path="url(#p3e7f60cb47)" d="M 385.372562 264 
L 385.372562 72 
" style="fill:none;stroke:#b0b0b0;stroke-linecap:square;stroke-width:0.8;"/>
     </g>
     <g id="line2d_8">
      <g>
       <use style="stroke:#000000;stroke-width:0.8;" x="385.372562" xlink:href="#ma3f76f7b1b" y="264"/>
      </g>
     </g>
     <g id="text_4">
      <!-- 6 -->
      <defs>
       <path d="M 33.015625 40.375 
Q 26.375 40.375 22.484375 35.828125 
Q 18.609375 31.296875 18.609375 23.390625 
Q 18.609375 15.53125 22.484375 10.953125 
Q 26.375 6.390625 33.015625 6.390625 
Q 39.65625 6.390625 43.53125 10.953125 
Q 47.40625 15.53125 47.40625 23.390625 
Q 47.40625 31.296875 43.53125 35.828125 
Q 39.65625 40.375 33.015625 40.375 
z
M 52.59375 71.296875 
L 52.59375 62.3125 
Q 48.875 64.0625 45.09375 64.984375 
Q 41.3125 65.921875 37.59375 65.921875 
Q 27.828125 65.921875 22.671875 59.328125 
Q 17.53125 52.734375 16.796875 39.40625 
Q 19.671875 43.65625 24.015625 45.921875 
Q 28.375 48.1875 33.59375 48.1875 
Q 44.578125 48.1875 50.953125 41.515625 
Q 57.328125 34.859375 57.328125 23.390625 
Q 57.328125 12.15625 50.6875 5.359375 
Q 44.046875 -1.421875 33.015625 -1.421875 
Q 20.359375 -1.421875 13.671875 8.265625 
Q 6.984375 17.96875 6.984375 36.375 
Q 6.984375 53.65625 15.1875 63.9375 
Q 23.390625 74.21875 37.203125 74.21875 
Q 40.921875 74.21875 44.703125 73.484375 
Q 48.484375 72.75 52.59375 71.296875 
z
" id="DejaVuSans-54"/>
      </defs>
      <g transform="translate(380.282562 283.1575)scale(0.16 -0.16)">
       <use xlink:href="#DejaVuSans-54"/>
      </g>
     </g>
    </g>
    <g id="xtick_5">
     <g id="line2d_9">
      <path clip-path="url(#p3e7f60cb47)" d="M 475.34281 264 
L 475.34281 72 
" style="fill:none;stroke:#b0b0b0;stroke-linecap:square;stroke-width:0.8;"/>
     </g>
     <g id="line2d_10">
      <g>
       <use style="stroke:#000000;stroke-width:0.8;" x="475.34281" xlink:href="#ma3f76f7b1b" y="264"/>
      </g>
     </g>
     <g id="text_5">
      <!-- 8 -->
      <defs>
       <path d="M 31.78125 34.625 
Q 24.75 34.625 20.71875 30.859375 
Q 16.703125 27.09375 16.703125 20.515625 
Q 16.703125 13.921875 20.71875 10.15625 
Q 24.75 6.390625 31.78125 6.390625 
Q 38.8125 6.390625 42.859375 10.171875 
Q 46.921875 13.96875 46.921875 20.515625 
Q 46.921875 27.09375 42.890625 30.859375 
Q 38.875 34.625 31.78125 34.625 
z
M 21.921875 38.8125 
Q 15.578125 40.375 12.03125 44.71875 
Q 8.5 49.078125 8.5 55.328125 
Q 8.5 64.0625 14.71875 69.140625 
Q 20.953125 74.21875 31.78125 74.21875 
Q 42.671875 74.21875 48.875 69.140625 
Q 55.078125 64.0625 55.078125 55.328125 
Q 55.078125 49.078125 51.53125 44.71875 
Q 48 40.375 41.703125 38.8125 
Q 48.828125 37.15625 52.796875 32.3125 
Q 56.78125 27.484375 56.78125 20.515625 
Q 56.78125 9.90625 50.3125 4.234375 
Q 43.84375 -1.421875 31.78125 -1.421875 
Q 19.734375 -1.421875 13.25 4.234375 
Q 6.78125 9.90625 6.78125 20.515625 
Q 6.78125 27.484375 10.78125 32.3125 
Q 14.796875 37.15625 21.921875 38.8125 
z
M 18.3125 54.390625 
Q 18.3125 48.734375 21.84375 45.5625 
Q 25.390625 42.390625 31.78125 42.390625 
Q 38.140625 42.390625 41.71875 45.5625 
Q 45.3125 48.734375 45.3125 54.390625 
Q 45.3125 60.0625 41.71875 63.234375 
Q 38.140625 66.40625 31.78125 66.40625 
Q 25.390625 66.40625 21.84375 63.234375 
Q 18.3125 60.0625 18.3125 54.390625 
z
" id="DejaVuSans-56"/>
      </defs>
      <g transform="translate(470.25281 283.1575)scale(0.16 -0.16)">
       <use xlink:href="#DejaVuSans-56"/>
      </g>
     </g>
    </g>
    <g id="xtick_6">
     <g id="line2d_11">
      <path clip-path="url(#p3e7f60cb47)" d="M 565.313058 264 
L 565.313058 72 
" style="fill:none;stroke:#b0b0b0;stroke-linecap:square;stroke-width:0.8;"/>
     </g>
     <g id="line2d_12">
      <g>
       <use style="stroke:#000000;stroke-width:0.8;" x="565.313058" xlink:href="#ma3f76f7b1b" y="264"/>
      </g>
     </g>
     <g id="text_6">
      <!-- 10 -->
      <defs>
       <path d="M 12.40625 8.296875 
L 28.515625 8.296875 
L 28.515625 63.921875 
L 10.984375 60.40625 
L 10.984375 69.390625 
L 28.421875 72.90625 
L 38.28125 72.90625 
L 38.28125 8.296875 
L 54.390625 8.296875 
L 54.390625 0 
L 12.40625 0 
z
" id="DejaVuSans-49"/>
      </defs>
      <g transform="translate(555.133058 283.1575)scale(0.16 -0.16)">
       <use xlink:href="#DejaVuSans-49"/>
       <use x="63.623047" xlink:href="#DejaVuSans-48"/>
      </g>
     </g>
    </g>
   </g>
   <g id="matplotlib.axis_2">
    <g id="ytick_1">
     <g id="line2d_13">
      <path clip-path="url(#p3e7f60cb47)" d="M 90.72 262.307986 
L 635.04 262.307986 
" style="fill:none;stroke:#b0b0b0;stroke-linecap:square;stroke-width:0.8;"/>
     </g>
     <g id="line2d_14">
      <defs>
       <path d="M 0 0 
L -3.5 0 
" id="m4571adf6a4" style="stroke:#000000;stroke-width:0.8;"/>
      </defs>
      <g>
       <use style="stroke:#000000;stroke-width:0.8;" x="90.72" xlink:href="#m4571adf6a4" y="262.307986"/>
      </g>
     </g>
     <g id="text_7">
      <!-- 0.000 -->
      <defs>
       <path d="M 10.6875 12.40625 
L 21 12.40625 
L 21 0 
L 10.6875 0 
z
" id="DejaVuSans-46"/>
      </defs>
      <g transform="translate(37.915 268.386736)scale(0.16 -0.16)">
       <use xlink:href="#DejaVuSans-48"/>
       <use x="63.623047" xlink:href="#DejaVuSans-46"/>
       <use x="95.410156" xlink:href="#DejaVuSans-48"/>
       <use x="159.033203" xlink:href="#DejaVuSans-48"/>
       <use x="222.65625" xlink:href="#DejaVuSans-48"/>
      </g>
     </g>
    </g>
    <g id="ytick_2">
     <g id="line2d_15">
      <path clip-path="url(#p3e7f60cb47)" d="M 90.72 223.9331 
L 635.04 223.9331 
" style="fill:none;stroke:#b0b0b0;stroke-linecap:square;stroke-width:0.8;"/>
     </g>
     <g id="line2d_16">
      <g>
       <use style="stroke:#000000;stroke-width:0.8;" x="90.72" xlink:href="#m4571adf6a4" y="223.9331"/>
      </g>
     </g>
     <g id="text_8">
      <!-- 0.025 -->
      <defs>
       <path d="M 10.796875 72.90625 
L 49.515625 72.90625 
L 49.515625 64.59375 
L 19.828125 64.59375 
L 19.828125 46.734375 
Q 21.96875 47.46875 24.109375 47.828125 
Q 26.265625 48.1875 28.421875 48.1875 
Q 40.625 48.1875 47.75 41.5 
Q 54.890625 34.8125 54.890625 23.390625 
Q 54.890625 11.625 47.5625 5.09375 
Q 40.234375 -1.421875 26.90625 -1.421875 
Q 22.3125 -1.421875 17.546875 -0.640625 
Q 12.796875 0.140625 7.71875 1.703125 
L 7.71875 11.625 
Q 12.109375 9.234375 16.796875 8.0625 
Q 21.484375 6.890625 26.703125 6.890625 
Q 35.15625 6.890625 40.078125 11.328125 
Q 45.015625 15.765625 45.015625 23.390625 
Q 45.015625 31 40.078125 35.4375 
Q 35.15625 39.890625 26.703125 39.890625 
Q 22.75 39.890625 18.8125 39.015625 
Q 14.890625 38.140625 10.796875 36.28125 
z
" id="DejaVuSans-53"/>
      </defs>
      <g transform="translate(37.915 230.01185)scale(0.16 -0.16)">
       <use xlink:href="#DejaVuSans-48"/>
       <use x="63.623047" xlink:href="#DejaVuSans-46"/>
       <use x="95.410156" xlink:href="#DejaVuSans-48"/>
       <use x="159.033203" xlink:href="#DejaVuSans-50"/>
       <use x="222.65625" xlink:href="#DejaVuSans-53"/>
      </g>
     </g>
    </g>
    <g id="ytick_3">
     <g id="line2d_17">
      <path clip-path="url(#p3e7f60cb47)" d="M 90.72 185.558213 
L 635.04 185.558213 
" style="fill:none;stroke:#b0b0b0;stroke-linecap:square;stroke-width:0.8;"/>
     </g>
     <g id="line2d_18">
      <g>
       <use style="stroke:#000000;stroke-width:0.8;" x="90.72" xlink:href="#m4571adf6a4" y="185.558213"/>
      </g>
     </g>
     <g id="text_9">
      <!-- 0.050 -->
      <g transform="translate(37.915 191.636963)scale(0.16 -0.16)">
       <use xlink:href="#DejaVuSans-48"/>
       <use x="63.623047" xlink:href="#DejaVuSans-46"/>
       <use x="95.410156" xlink:href="#DejaVuSans-48"/>
       <use x="159.033203" xlink:href="#DejaVuSans-53"/>
       <use x="222.65625" xlink:href="#DejaVuSans-48"/>
      </g>
     </g>
    </g>
    <g id="ytick_4">
     <g id="line2d_19">
      <path clip-path="url(#p3e7f60cb47)" d="M 90.72 147.183327 
L 635.04 147.183327 
" style="fill:none;stroke:#b0b0b0;stroke-linecap:square;stroke-width:0.8;"/>
     </g>
     <g id="line2d_20">
      <g>
       <use style="stroke:#000000;stroke-width:0.8;" x="90.72" xlink:href="#m4571adf6a4" y="147.183327"/>
      </g>
     </g>
     <g id="text_10">
      <!-- 0.075 -->
      <defs>
       <path d="M 8.203125 72.90625 
L 55.078125 72.90625 
L 55.078125 68.703125 
L 28.609375 0 
L 18.3125 0 
L 43.21875 64.59375 
L 8.203125 64.59375 
z
" id="DejaVuSans-55"/>
      </defs>
      <g transform="translate(37.915 153.262077)scale(0.16 -0.16)">
       <use xlink:href="#DejaVuSans-48"/>
       <use x="63.623047" xlink:href="#DejaVuSans-46"/>
       <use x="95.410156" xlink:href="#DejaVuSans-48"/>
       <use x="159.033203" xlink:href="#DejaVuSans-55"/>
       <use x="222.65625" xlink:href="#DejaVuSans-53"/>
      </g>
     </g>
    </g>
    <g id="ytick_5">
     <g id="line2d_21">
      <path clip-path="url(#p3e7f60cb47)" d="M 90.72 108.80844 
L 635.04 108.80844 
" style="fill:none;stroke:#b0b0b0;stroke-linecap:square;stroke-width:0.8;"/>
     </g>
     <g id="line2d_22">
      <g>
       <use style="stroke:#000000;stroke-width:0.8;" x="90.72" xlink:href="#m4571adf6a4" y="108.80844"/>
      </g>
     </g>
     <g id="text_11">
      <!-- 0.100 -->
      <g transform="translate(37.915 114.88719)scale(0.16 -0.16)">
       <use xlink:href="#DejaVuSans-48"/>
       <use x="63.623047" xlink:href="#DejaVuSans-46"/>
       <use x="95.410156" xlink:href="#DejaVuSans-49"/>
       <use x="159.033203" xlink:href="#DejaVuSans-48"/>
       <use x="222.65625" xlink:href="#DejaVuSans-48"/>
      </g>
     </g>
    </g>
    <g id="text_12">
     <!-- Bx -->
     <defs>
      <path d="M 19.671875 34.8125 
L 19.671875 8.109375 
L 35.5 8.109375 
Q 43.453125 8.109375 47.28125 11.40625 
Q 51.125 14.703125 51.125 21.484375 
Q 51.125 28.328125 47.28125 31.5625 
Q 43.453125 34.8125 35.5 34.8125 
z
M 19.671875 64.796875 
L 19.671875 42.828125 
L 34.28125 42.828125 
Q 41.5 42.828125 45.03125 45.53125 
Q 48.578125 48.25 48.578125 53.8125 
Q 48.578125 59.328125 45.03125 62.0625 
Q 41.5 64.796875 34.28125 64.796875 
z
M 9.8125 72.90625 
L 35.015625 72.90625 
Q 46.296875 72.90625 52.390625 68.21875 
Q 58.5 63.53125 58.5 54.890625 
Q 58.5 48.1875 55.375 44.234375 
Q 52.25 40.28125 46.1875 39.3125 
Q 53.46875 37.75 57.5 32.78125 
Q 61.53125 27.828125 61.53125 20.40625 
Q 61.53125 10.640625 54.890625 5.3125 
Q 48.25 0 35.984375 0 
L 9.8125 0 
z
" id="DejaVuSans-66"/>
      <path d="M 54.890625 54.6875 
L 35.109375 28.078125 
L 55.90625 0 
L 45.3125 0 
L 29.390625 21.484375 
L 13.484375 0 
L 2.875 0 
L 24.125 28.609375 
L 4.6875 54.6875 
L 15.28125 54.6875 
L 29.78125 35.203125 
L 44.28125 54.6875 
z
" id="DejaVuSans-120"/>
     </defs>
     <g transform="translate(30.5875 178.22375)rotate(-90)scale(0.16 -0.16)">
      <use xlink:href="#DejaVuSans-66"/>
      <use x="68.603516" xlink:href="#DejaVuSans-120"/>
     </g>
    </g>
   </g>
   <g id="line2d_23">
    <path clip-path="url(#p3e7f60cb47)" d="M 115.461818 208.171382 
L 160.446942 201.9823 
L 205.432066 187.962758 
L 250.41719 170.503661 
L 295.402314 152.141014 
L 340.387438 134.342116 
L 385.372562 118.290896 
L 430.357686 104.603337 
L 475.34281 93.634248 
L 520.327934 85.82388 
L 565.313058 81.47003 
L 610.298182 80.727273 
" style="fill:none;stroke:#1f77b4;stroke-linecap:square;stroke-width:2;"/>
    <defs>
     <path d="M 0 3 
C 0.795609 3 1.55874 2.683901 2.12132 2.12132 
C 2.683901 1.55874 3 0.795609 3 0 
C 3 -0.795609 2.683901 -1.55874 2.12132 -2.12132 
C 1.55874 -2.683901 0.795609 -3 0 -3 
C -0.795609 -3 -1.55874 -2.683901 -2.12132 -2.12132 
C -2.683901 -1.55874 -3 -0.795609 -3 0 
C -3 0.795609 -2.683901 1.55874 -2.12132 2.12132 
C -1.55874 2.683901 -0.795609 3 0 3 
z
" id="mae57bfa8d3" style="stroke:#1f77b4;"/>
    </defs>
    <g clip-path="url(#p3e7f60cb47)">
     <use style="fill:#1f77b4;stroke:#1f77b4;" x="115.461818" xlink:href="#mae57bfa8d3" y="208.171382"/>
     <use style="fill:#1f77b4;stroke:#1f77b4;" x="160.446942" xlink:href="#mae57bfa8d3" y="201.9823"/>
     <use style="fill:#1f77b4;stroke:#1f77b4;" x="205.432066" xlink:href="#mae57bfa8d3" y="187.962758"/>
     <use style="fill:#1f77b4;stroke:#1f77b4;" x="250.41719" xlink:href="#mae57bfa8d3" y="170.503661"/>
     <use style="fill:#1f77b4;stroke:#1f77b4;" x="295.402314" xlink:href="#mae57bfa8d3" y="152.141014"/>
     <use style="fill:#1f77b4;stroke:#1f77b4;" x="340.387438" xlink:href="#mae57bfa8d3" y="134.342116"/>
     <use style="fill:#1f77b4;stroke:#1f77b4;" x="385.372562" xlink:href="#mae57bfa8d3" y="118.290896"/>
     <use style="fill:#1f77b4;stroke:#1f77b4;" x="430.357686" xlink:href="#mae57bfa8d3" y="104.603337"/>
     <use style="fill:#1f77b4;stroke:#1f77b4;" x="475.34281" xlink:href="#mae57bfa8d3" y="93.634248"/>
     <use style="fill:#1f77b4;stroke:#1f77b4;" x="520.327934" xlink:href="#mae57bfa8d3" y="85.82388"/>
     <use style="fill:#1f77b4;stroke:#1f77b4;" x="565.313058" xlink:href="#mae57bfa8d3" y="81.47003"/>
     <use style="fill:#1f77b4;stroke:#1f77b4;" x="610.298182" xlink:href="#mae57bfa8d3" y="80.727273"/>
    </g>
   </g>
   <g id="line2d_24">
    <path clip-path="url(#p3e7f60cb47)" d="M 115.461818 249.107511 
L 160.446942 248.01637 
L 205.432066 246.229533 
L 250.41719 244.070705 
L 295.402314 241.855962 
L 340.387438 239.722191 
L 385.372562 237.786063 
L 430.357686 236.150897 
L 475.34281 234.905639 
L 520.327934 234.121554 
L 565.313058 233.823261 
L 610.298182 233.999197 
" style="fill:none;stroke:#ff7f0e;stroke-linecap:square;stroke-width:2;"/>
    <defs>
     <path d="M 0 3 
C 0.795609 3 1.55874 2.683901 2.12132 2.12132 
C 2.683901 1.55874 3 0.795609 3 0 
C 3 -0.795609 2.683901 -1.55874 2.12132 -2.12132 
C 1.55874 -2.683901 0.795609 -3 0 -3 
C -0.795609 -3 -1.55874 -2.683901 -2.12132 -2.12132 
C -2.683901 -1.55874 -3 -0.795609 -3 0 
C -3 0.795609 -2.683901 1.55874 -2.12132 2.12132 
C -1.55874 2.683901 -0.795609 3 0 3 
z
" id="m0393404655" style="stroke:#ff7f0e;"/>
    </defs>
    <g clip-path="url(#p3e7f60cb47)">
     <use style="fill:#ff7f0e;stroke:#ff7f0e;" x="115.461818" xlink:href="#m0393404655" y="249.107511"/>
     <use style="fill:#ff7f0e;stroke:#ff7f0e;" x="160.446942" xlink:href="#m0393404655" y="248.01637"/>
     <use style="fill:#ff7f0e;stroke:#ff7f0e;" x="205.432066" xlink:href="#m0393404655" y="246.229533"/>
     <use style="fill:#ff7f0e;stroke:#ff7f0e;" x="250.41719" xlink:href="#m0393404655" y="244.070705"/>
     <use style="fill:#ff7f0e;stroke:#ff7f0e;" x="295.402314" xlink:href="#m0393404655" y="241.855962"/>
     <use style="fill:#ff7f0e;stroke:#ff7f0e;" x="340.387438" xlink:href="#m0393404655" y="239.722191"/>
     <use style="fill:#ff7f0e;stroke:#ff7f0e;" x="385.372562" xlink:href="#m0393404655" y="237.786063"/>
     <use style="fill:#ff7f0e;stroke:#ff7f0e;" x="430.357686" xlink:href="#m0393404655" y="236.150897"/>
     <use style="fill:#ff7f0e;stroke:#ff7f0e;" x="475.34281" xlink:href="#m0393404655" y="234.905639"/>
     <use style="fill:#ff7f0e;stroke:#ff7f0e;" x="520.327934" xlink:href="#m0393404655" y="234.121554"/>
     <use style="fill:#ff7f0e;stroke:#ff7f0e;" x="565.313058" xlink:href="#m0393404655" y="233.823261"/>
     <use style="fill:#ff7f0e;stroke:#ff7f0e;" x="610.298182" xlink:href="#m0393404655" y="233.999197"/>
    </g>
   </g>
   <g id="line2d_25">
    <path clip-path="url(#p3e7f60cb47)" d="M 115.461818 252.076218 
L 160.446942 251.248549 
L 205.432066 250.5826 
L 250.41719 250.132536 
L 295.402314 249.95523 
L 340.387438 250.01513 
L 385.372562 250.292578 
L 430.357686 250.790449 
L 475.34281 251.520456 
L 520.327934 252.459573 
L 565.313058 253.563793 
L 610.298182 254.760988 
" style="fill:none;stroke:#2ca02c;stroke-linecap:square;stroke-width:2;"/>
    <defs>
     <path d="M 0 3 
C 0.795609 3 1.55874 2.683901 2.12132 2.12132 
C 2.683901 1.55874 3 0.795609 3 0 
C 3 -0.795609 2.683901 -1.55874 2.12132 -2.12132 
C 1.55874 -2.683901 0.795609 -3 0 -3 
C -0.795609 -3 -1.55874 -2.683901 -2.12132 -2.12132 
C -2.683901 -1.55874 -3 -0.795609 -3 0 
C -3 0.795609 -2.683901 1.55874 -2.12132 2.12132 
C -1.55874 2.683901 -0.795609 3 0 3 
z
" id="m46aca3f5e3" style="stroke:#2ca02c;"/>
    </defs>
    <g clip-path="url(#p3e7f60cb47)">
     <use style="fill:#2ca02c;stroke:#2ca02c;" x="115.461818" xlink:href="#m46aca3f5e3" y="252.076218"/>
     <use style="fill:#2ca02c;stroke:#2ca02c;" x="160.446942" xlink:href="#m46aca3f5e3" y="251.248549"/>
     <use style="fill:#2ca02c;stroke:#2ca02c;" x="205.432066" xlink:href="#m46aca3f5e3" y="250.5826"/>
     <use style="fill:#2ca02c;stroke:#2ca02c;" x="250.41719" xlink:href="#m46aca3f5e3" y="250.132536"/>
     <use style="fill:#2ca02c;stroke:#2ca02c;" x="295.402314" xlink:href="#m46aca3f5e3" y="249.95523"/>
     <use style="fill:#2ca02c;stroke:#2ca02c;" x="340.387438" xlink:href="#m46aca3f5e3" y="250.01513"/>
     <use style="fill:#2ca02c;stroke:#2ca02c;" x="385.372562" xlink:href="#m46aca3f5e3" y="250.292578"/>
     <use style="fill:#2ca02c;stroke:#2ca02c;" x="430.357686" xlink:href="#m46aca3f5e3" y="250.790449"/>
     <use style="fill:#2ca02c;stroke:#2ca02c;" x="475.34281" xlink:href="#m46aca3f5e3" y="251.520456"/>
     <use style="fill:#2ca02c;stroke:#2ca02c;" x="520.327934" xlink:href="#m46aca3f5e3" y="252.459573"/>
     <use style="fill:#2ca02c;stroke:#2ca02c;" x="565.313058" xlink:href="#m46aca3f5e3" y="253.563793"/>
     <use style="fill:#2ca02c;stroke:#2ca02c;" x="610.298182" xlink:href="#m46aca3f5e3" y="254.760988"/>
    </g>
   </g>
   <g id="line2d_26">
    <path clip-path="url(#p3e7f60cb47)" d="M 115.461818 255.272727 
L 160.446942 253.013589 
L 205.432066 250.607385 
L 250.41719 248.283785 
L 295.402314 246.156412 
L 340.387438 244.268234 
L 385.372562 242.706697 
L 430.357686 241.52732 
L 475.34281 240.753941 
L 520.327934 240.414186 
L 565.313058 240.528008 
L 610.298182 241.121064 
" style="fill:none;stroke:#d62728;stroke-linecap:square;stroke-width:2;"/>
    <defs>
     <path d="M 0 3 
C 0.795609 3 1.55874 2.683901 2.12132 2.12132 
C 2.683901 1.55874 3 0.795609 3 0 
C 3 -0.795609 2.683901 -1.55874 2.12132 -2.12132 
C 1.55874 -2.683901 0.795609 -3 0 -3 
C -0.795609 -3 -1.55874 -2.683901 -2.12132 -2.12132 
C -2.683901 -1.55874 -3 -0.795609 -3 0 
C -3 0.795609 -2.683901 1.55874 -2.12132 2.12132 
C -1.55874 2.683901 -0.795609 3 0 3 
z
" id="m79005e4a63" style="stroke:#d62728;"/>
    </defs>
    <g clip-path="url(#p3e7f60cb47)">
     <use style="fill:#d62728;stroke:#d62728;" x="115.461818" xlink:href="#m79005e4a63" y="255.272727"/>
     <use style="fill:#d62728;stroke:#d62728;" x="160.446942" xlink:href="#m79005e4a63" y="253.013589"/>
     <use style="fill:#d62728;stroke:#d62728;" x="205.432066" xlink:href="#m79005e4a63" y="250.607385"/>
     <use style="fill:#d62728;stroke:#d62728;" x="250.41719" xlink:href="#m79005e4a63" y="248.283785"/>
     <use style="fill:#d62728;stroke:#d62728;" x="295.402314" xlink:href="#m79005e4a63" y="246.156412"/>
     <use style="fill:#d62728;stroke:#d62728;" x="340.387438" xlink:href="#m79005e4a63" y="244.268234"/>
     <use style="fill:#d62728;stroke:#d62728;" x="385.372562" xlink:href="#m79005e4a63" y="242.706697"/>
     <use style="fill:#d62728;stroke:#d62728;" x="430.357686" xlink:href="#m79005e4a63" y="241.52732"/>
     <use style="fill:#d62728;stroke:#d62728;" x="475.34281" xlink:href="#m79005e4a63" y="240.753941"/>
     <use style="fill:#d62728;stroke:#d62728;" x="520.327934" xlink:href="#m79005e4a63" y="240.414186"/>
     <use style="fill:#d62728;stroke:#d62728;" x="565.313058" xlink:href="#m79005e4a63" y="240.528008"/>
     <use style="fill:#d62728;stroke:#d62728;" x="610.298182" xlink:href="#m79005e4a63" y="241.121064"/>
    </g>
   </g>
   <g id="line2d_27">
    <path clip-path="url(#p3e7f60cb47)" d="M 115.461818 242.744673 
L 160.446942 228.904306 
L 205.432066 208.5543 
L 250.41719 187.854003 
L 295.402314 168.163239 
L 340.387438 149.988312 
L 385.372562 134.026891 
L 430.357686 120.62513 
L 475.34281 110.087124 
L 520.327934 102.820587 
L 565.313058 98.961122 
L 610.298182 98.578677 
" style="fill:none;stroke:#9467bd;stroke-linecap:square;stroke-width:2;"/>
    <defs>
     <path d="M 0 3 
C 0.795609 3 1.55874 2.683901 2.12132 2.12132 
C 2.683901 1.55874 3 0.795609 3 0 
C 3 -0.795609 2.683901 -1.55874 2.12132 -2.12132 
C 1.55874 -2.683901 0.795609 -3 0 -3 
C -0.795609 -3 -1.55874 -2.683901 -2.12132 -2.12132 
C -2.683901 -1.55874 -3 -0.795609 -3 0 
C -3 0.795609 -2.683901 1.55874 -2.12132 2.12132 
C -1.55874 2.683901 -0.795609 3 0 3 
z
" id="m84497a66f5" style="stroke:#9467bd;"/>
    </defs>
    <g clip-path="url(#p3e7f60cb47)">
     <use style="fill:#9467bd;stroke:#9467bd;" x="115.461818" xlink:href="#m84497a66f5" y="242.744673"/>
     <use style="fill:#9467bd;stroke:#9467bd;" x="160.446942" xlink:href="#m84497a66f5" y="228.904306"/>
     <use style="fill:#9467bd;stroke:#9467bd;" x="205.432066" xlink:href="#m84497a66f5" y="208.5543"/>
     <use style="fill:#9467bd;stroke:#9467bd;" x="250.41719" xlink:href="#m84497a66f5" y="187.854003"/>
     <use style="fill:#9467bd;stroke:#9467bd;" x="295.402314" xlink:href="#m84497a66f5" y="168.163239"/>
     <use style="fill:#9467bd;stroke:#9467bd;" x="340.387438" xlink:href="#m84497a66f5" y="149.988312"/>
     <use style="fill:#9467bd;stroke:#9467bd;" x="385.372562" xlink:href="#m84497a66f5" y="134.026891"/>
     <use style="fill:#9467bd;stroke:#9467bd;" x="430.357686" xlink:href="#m84497a66f5" y="120.62513"/>
     <use style="fill:#9467bd;stroke:#9467bd;" x="475.34281" xlink:href="#m84497a66f5" y="110.087124"/>
     <use style="fill:#9467bd;stroke:#9467bd;" x="520.327934" xlink:href="#m84497a66f5" y="102.820587"/>
     <use style="fill:#9467bd;stroke:#9467bd;" x="565.313058" xlink:href="#m84497a66f5" y="98.961122"/>
     <use style="fill:#9467bd;stroke:#9467bd;" x="610.298182" xlink:href="#m84497a66f5" y="98.578677"/>
    </g>
   </g>
   <g id="patch_3">
    <path d="M 90.72 264 
L 90.72 72 
" style="fill:none;stroke:#000000;stroke-linecap:square;stroke-linejoin:miter;stroke-width:0.8;"/>
   </g>
   <g id="patch_4">
    <path d="M 635.04 264 
L 635.04 72 
" style="fill:none;stroke:#000000;stroke-linecap:square;stroke-linejoin:miter;stroke-width:0.8;"/>
   </g>
   <g id="patch_5">
    <path d="M 90.72 264 
L 635.04 264 
" style="fill:none;stroke:#000000;stroke-linecap:square;stroke-linejoin:miter;stroke-width:0.8;"/>
   </g>
   <g id="patch_6">
    <path d="M 90.72 72 
L 635.04 72 
" style="fill:none;stroke:#000000;stroke-linecap:square;stroke-linejoin:miter;stroke-width:0.8;"/>
   </g>
   <g id="text_13">
    <!-- Amplitude [T] -->
    <defs>
     <path d="M 34.1875 63.1875 
L 20.796875 26.90625 
L 47.609375 26.90625 
z
M 28.609375 72.90625 
L 39.796875 72.90625 
L 67.578125 0 
L 57.328125 0 
L 50.6875 18.703125 
L 17.828125 18.703125 
L 11.1875 0 
L 0.78125 0 
z
" id="DejaVuSans-65"/>
     <path d="M 52 44.1875 
Q 55.375 50.25 60.0625 53.125 
Q 64.75 56 71.09375 56 
Q 79.640625 56 84.28125 50.015625 
Q 88.921875 44.046875 88.921875 33.015625 
L 88.921875 0 
L 79.890625 0 
L 79.890625 32.71875 
Q 79.890625 40.578125 77.09375 44.375 
Q 74.3125 48.1875 68.609375 48.1875 
Q 61.625 48.1875 57.5625 43.546875 
Q 53.515625 38.921875 53.515625 30.90625 
L 53.515625 0 
L 44.484375 0 
L 44.484375 32.71875 
Q 44.484375 40.625 41.703125 44.40625 
Q 38.921875 48.1875 33.109375 48.1875 
Q 26.21875 48.1875 22.15625 43.53125 
Q 18.109375 38.875 18.109375 30.90625 
L 18.109375 0 
L 9.078125 0 
L 9.078125 54.6875 
L 18.109375 54.6875 
L 18.109375 46.1875 
Q 21.1875 51.21875 25.484375 53.609375 
Q 29.78125 56 35.6875 56 
Q 41.65625 56 45.828125 52.96875 
Q 50 49.953125 52 44.1875 
z
" id="DejaVuSans-109"/>
     <path d="M 18.109375 8.203125 
L 18.109375 -20.796875 
L 9.078125 -20.796875 
L 9.078125 54.6875 
L 18.109375 54.6875 
L 18.109375 46.390625 
Q 20.953125 51.265625 25.265625 53.625 
Q 29.59375 56 35.59375 56 
Q 45.5625 56 51.78125 48.09375 
Q 58.015625 40.1875 58.015625 27.296875 
Q 58.015625 14.40625 51.78125 6.484375 
Q 45.5625 -1.421875 35.59375 -1.421875 
Q 29.59375 -1.421875 25.265625 0.953125 
Q 20.953125 3.328125 18.109375 8.203125 
z
M 48.6875 27.296875 
Q 48.6875 37.203125 44.609375 42.84375 
Q 40.53125 48.484375 33.40625 48.484375 
Q 26.265625 48.484375 22.1875 42.84375 
Q 18.109375 37.203125 18.109375 27.296875 
Q 18.109375 17.390625 22.1875 11.75 
Q 26.265625 6.109375 33.40625 6.109375 
Q 40.53125 6.109375 44.609375 11.75 
Q 48.6875 17.390625 48.6875 27.296875 
z
" id="DejaVuSans-112"/>
     <path d="M 9.421875 75.984375 
L 18.40625 75.984375 
L 18.40625 0 
L 9.421875 0 
z
" id="DejaVuSans-108"/>
     <path d="M 9.421875 54.6875 
L 18.40625 54.6875 
L 18.40625 0 
L 9.421875 0 
z
M 9.421875 75.984375 
L 18.40625 75.984375 
L 18.40625 64.59375 
L 9.421875 64.59375 
z
" id="DejaVuSans-105"/>
     <path d="M 18.3125 70.21875 
L 18.3125 54.6875 
L 36.8125 54.6875 
L 36.8125 47.703125 
L 18.3125 47.703125 
L 18.3125 18.015625 
Q 18.3125 11.328125 20.140625 9.421875 
Q 21.96875 7.515625 27.59375 7.515625 
L 36.8125 7.515625 
L 36.8125 0 
L 27.59375 0 
Q 17.1875 0 13.234375 3.875 
Q 9.28125 7.765625 9.28125 18.015625 
L 9.28125 47.703125 
L 2.6875 47.703125 
L 2.6875 54.6875 
L 9.28125 54.6875 
L 9.28125 70.21875 
z
" id="DejaVuSans-116"/>
     <path d="M 8.5 21.578125 
L 8.5 54.6875 
L 17.484375 54.6875 
L 17.484375 21.921875 
Q 17.484375 14.15625 20.5 10.265625 
Q 23.53125 6.390625 29.59375 6.390625 
Q 36.859375 6.390625 41.078125 11.03125 
Q 45.3125 15.671875 45.3125 23.6875 
L 45.3125 54.6875 
L 54.296875 54.6875 
L 54.296875 0 
L 45.3125 0 
L 45.3125 8.40625 
Q 42.046875 3.421875 37.71875 1 
Q 33.40625 -1.421875 27.6875 -1.421875 
Q 18.265625 -1.421875 13.375 4.4375 
Q 8.5 10.296875 8.5 21.578125 
z
M 31.109375 56 
z
" id="DejaVuSans-117"/>
     <path d="M 45.40625 46.390625 
L 45.40625 75.984375 
L 54.390625 75.984375 
L 54.390625 0 
L 45.40625 0 
L 45.40625 8.203125 
Q 42.578125 3.328125 38.25 0.953125 
Q 33.9375 -1.421875 27.875 -1.421875 
Q 17.96875 -1.421875 11.734375 6.484375 
Q 5.515625 14.40625 5.515625 27.296875 
Q 5.515625 40.1875 11.734375 48.09375 
Q 17.96875 56 27.875 56 
Q 33.9375 56 38.25 53.625 
Q 42.578125 51.265625 45.40625 46.390625 
z
M 14.796875 27.296875 
Q 14.796875 17.390625 18.875 11.75 
Q 22.953125 6.109375 30.078125 6.109375 
Q 37.203125 6.109375 41.296875 11.75 
Q 45.40625 17.390625 45.40625 27.296875 
Q 45.40625 37.203125 41.296875 42.84375 
Q 37.203125 48.484375 30.078125 48.484375 
Q 22.953125 48.484375 18.875 42.84375 
Q 14.796875 37.203125 14.796875 27.296875 
z
" id="DejaVuSans-100"/>
     <path d="M 56.203125 29.59375 
L 56.203125 25.203125 
L 14.890625 25.203125 
Q 15.484375 15.921875 20.484375 11.0625 
Q 25.484375 6.203125 34.421875 6.203125 
Q 39.59375 6.203125 44.453125 7.46875 
Q 49.3125 8.734375 54.109375 11.28125 
L 54.109375 2.78125 
Q 49.265625 0.734375 44.1875 -0.34375 
Q 39.109375 -1.421875 33.890625 -1.421875 
Q 20.796875 -1.421875 13.15625 6.1875 
Q 5.515625 13.8125 5.515625 26.8125 
Q 5.515625 40.234375 12.765625 48.109375 
Q 20.015625 56 32.328125 56 
Q 43.359375 56 49.78125 48.890625 
Q 56.203125 41.796875 56.203125 29.59375 
z
M 47.21875 32.234375 
Q 47.125 39.59375 43.09375 43.984375 
Q 39.0625 48.390625 32.421875 48.390625 
Q 24.90625 48.390625 20.390625 44.140625 
Q 15.875 39.890625 15.1875 32.171875 
z
" id="DejaVuSans-101"/>
     <path id="DejaVuSans-32"/>
     <path d="M 8.59375 75.984375 
L 29.296875 75.984375 
L 29.296875 69 
L 17.578125 69 
L 17.578125 -6.203125 
L 29.296875 -6.203125 
L 29.296875 -13.1875 
L 8.59375 -13.1875 
z
" id="DejaVuSans-91"/>
     <path d="M -0.296875 72.90625 
L 61.375 72.90625 
L 61.375 64.59375 
L 35.5 64.59375 
L 35.5 0 
L 25.59375 0 
L 25.59375 64.59375 
L -0.296875 64.59375 
z
" id="DejaVuSans-84"/>
     <path d="M 30.421875 75.984375 
L 30.421875 -13.1875 
L 9.71875 -13.1875 
L 9.71875 -6.203125 
L 21.390625 -6.203125 
L 21.390625 69 
L 9.71875 69 
L 9.71875 75.984375 
z
" id="DejaVuSans-93"/>
    </defs>
    <g transform="translate(297.279 66)scale(0.192 -0.192)">
     <use xlink:href="#DejaVuSans-65"/>
     <use x="68.408203" xlink:href="#DejaVuSans-109"/>
     <use x="165.820312" xlink:href="#DejaVuSans-112"/>
     <use x="229.296875" xlink:href="#DejaVuSans-108"/>
     <use x="257.080078" xlink:href="#DejaVuSans-105"/>
     <use x="284.863281" xlink:href="#DejaVuSans-116"/>
     <use x="324.072266" xlink:href="#DejaVuSans-117"/>
     <use x="387.451172" xlink:href="#DejaVuSans-100"/>
     <use x="450.927734" xlink:href="#DejaVuSans-101"/>
     <use x="512.451172" xlink:href="#DejaVuSans-32"/>
     <use x="544.238281" xlink:href="#DejaVuSans-91"/>
     <use x="583.251953" xlink:href="#DejaVuSans-84"/>
     <use x="644.335938" xlink:href="#DejaVuSans-93"/>
    </g>
   </g>
  </g>
  <g id="axes_2">
   <g id="patch_7">
    <path d="M 90.72 456 
L 635.04 456 
L 635.04 264 
L 90.72 264 
z
" style="fill:#ffffff;"/>
   </g>
   <g id="matplotlib.axis_3">
    <g id="xtick_7">
     <g id="line2d_28">
      <path clip-path="url(#p6f9c289be4)" d="M 115.461818 456 
L 115.461818 264 
" style="fill:none;stroke:#b0b0b0;stroke-linecap:square;stroke-width:0.8;"/>
     </g>
     <g id="line2d_29">
      <g>
       <use style="stroke:#000000;stroke-width:0.8;" x="115.461818" xlink:href="#ma3f76f7b1b" y="456"/>
      </g>
     </g>
     <g id="text_14">
      <!-- 0 -->
      <g transform="translate(110.371818 475.1575)scale(0.16 -0.16)">
       <use xlink:href="#DejaVuSans-48"/>
      </g>
     </g>
    </g>
    <g id="xtick_8">
     <g id="line2d_30">
      <path clip-path="url(#p6f9c289be4)" d="M 205.432066 456 
L 205.432066 264 
" style="fill:none;stroke:#b0b0b0;stroke-linecap:square;stroke-width:0.8;"/>
     </g>
     <g id="line2d_31">
      <g>
       <use style="stroke:#000000;stroke-width:0.8;" x="205.432066" xlink:href="#ma3f76f7b1b" y="456"/>
      </g>
     </g>
     <g id="text_15">
      <!-- 2 -->
      <g transform="translate(200.342066 475.1575)scale(0.16 -0.16)">
       <use xlink:href="#DejaVuSans-50"/>
      </g>
     </g>
    </g>
    <g id="xtick_9">
     <g id="line2d_32">
      <path clip-path="url(#p6f9c289be4)" d="M 295.402314 456 
L 295.402314 264 
" style="fill:none;stroke:#b0b0b0;stroke-linecap:square;stroke-width:0.8;"/>
     </g>
     <g id="line2d_33">
      <g>
       <use style="stroke:#000000;stroke-width:0.8;" x="295.402314" xlink:href="#ma3f76f7b1b" y="456"/>
      </g>
     </g>
     <g id="text_16">
      <!-- 4 -->
      <g transform="translate(290.312314 475.1575)scale(0.16 -0.16)">
       <use xlink:href="#DejaVuSans-52"/>
      </g>
     </g>
    </g>
    <g id="xtick_10">
     <g id="line2d_34">
      <path clip-path="url(#p6f9c289be4)" d="M 385.372562 456 
L 385.372562 264 
" style="fill:none;stroke:#b0b0b0;stroke-linecap:square;stroke-width:0.8;"/>
     </g>
     <g id="line2d_35">
      <g>
       <use style="stroke:#000000;stroke-width:0.8;" x="385.372562" xlink:href="#ma3f76f7b1b" y="456"/>
      </g>
     </g>
     <g id="text_17">
      <!-- 6 -->
      <g transform="translate(380.282562 475.1575)scale(0.16 -0.16)">
       <use xlink:href="#DejaVuSans-54"/>
      </g>
     </g>
    </g>
    <g id="xtick_11">
     <g id="line2d_36">
      <path clip-path="url(#p6f9c289be4)" d="M 475.34281 456 
L 475.34281 264 
" style="fill:none;stroke:#b0b0b0;stroke-linecap:square;stroke-width:0.8;"/>
     </g>
     <g id="line2d_37">
      <g>
       <use style="stroke:#000000;stroke-width:0.8;" x="475.34281" xlink:href="#ma3f76f7b1b" y="456"/>
      </g>
     </g>
     <g id="text_18">
      <!-- 8 -->
      <g transform="translate(470.25281 475.1575)scale(0.16 -0.16)">
       <use xlink:href="#DejaVuSans-56"/>
      </g>
     </g>
    </g>
    <g id="xtick_12">
     <g id="line2d_38">
      <path clip-path="url(#p6f9c289be4)" d="M 565.313058 456 
L 565.313058 264 
" style="fill:none;stroke:#b0b0b0;stroke-linecap:square;stroke-width:0.8;"/>
     </g>
     <g id="line2d_39">
      <g>
       <use style="stroke:#000000;stroke-width:0.8;" x="565.313058" xlink:href="#ma3f76f7b1b" y="456"/>
      </g>
     </g>
     <g id="text_19">
      <!-- 10 -->
      <g transform="translate(555.133058 475.1575)scale(0.16 -0.16)">
       <use xlink:href="#DejaVuSans-49"/>
       <use x="63.623047" xlink:href="#DejaVuSans-48"/>
      </g>
     </g>
    </g>
   </g>
   <g id="matplotlib.axis_4">
    <g id="ytick_6">
     <g id="line2d_40">
      <path clip-path="url(#p6f9c289be4)" d="M 90.72 432.265306 
L 635.04 432.265306 
" style="fill:none;stroke:#b0b0b0;stroke-linecap:square;stroke-width:0.8;"/>
     </g>
     <g id="line2d_41">
      <g>
       <use style="stroke:#000000;stroke-width:0.8;" x="90.72" xlink:href="#m4571adf6a4" y="432.265306"/>
      </g>
     </g>
     <g id="text_20">
      <!-- 0.2 -->
      <g transform="translate(58.275 438.344056)scale(0.16 -0.16)">
       <use xlink:href="#DejaVuSans-48"/>
       <use x="63.623047" xlink:href="#DejaVuSans-46"/>
       <use x="95.410156" xlink:href="#DejaVuSans-50"/>
      </g>
     </g>
    </g>
    <g id="ytick_7">
     <g id="line2d_42">
      <path clip-path="url(#p6f9c289be4)" d="M 90.72 371.655952 
L 635.04 371.655952 
" style="fill:none;stroke:#b0b0b0;stroke-linecap:square;stroke-width:0.8;"/>
     </g>
     <g id="line2d_43">
      <g>
       <use style="stroke:#000000;stroke-width:0.8;" x="90.72" xlink:href="#m4571adf6a4" y="371.655952"/>
      </g>
     </g>
     <g id="text_21">
      <!-- 0.4 -->
      <g transform="translate(58.275 377.734702)scale(0.16 -0.16)">
       <use xlink:href="#DejaVuSans-48"/>
       <use x="63.623047" xlink:href="#DejaVuSans-46"/>
       <use x="95.410156" xlink:href="#DejaVuSans-52"/>
      </g>
     </g>
    </g>
    <g id="ytick_8">
     <g id="line2d_44">
      <path clip-path="url(#p6f9c289be4)" d="M 90.72 311.046598 
L 635.04 311.046598 
" style="fill:none;stroke:#b0b0b0;stroke-linecap:square;stroke-width:0.8;"/>
     </g>
     <g id="line2d_45">
      <g>
       <use style="stroke:#000000;stroke-width:0.8;" x="90.72" xlink:href="#m4571adf6a4" y="311.046598"/>
      </g>
     </g>
     <g id="text_22">
      <!-- 0.6 -->
      <g transform="translate(58.275 317.125348)scale(0.16 -0.16)">
       <use xlink:href="#DejaVuSans-48"/>
       <use x="63.623047" xlink:href="#DejaVuSans-46"/>
       <use x="95.410156" xlink:href="#DejaVuSans-54"/>
      </g>
     </g>
    </g>
    <g id="text_23">
     <!-- By -->
     <defs>
      <path d="M 32.171875 -5.078125 
Q 28.375 -14.84375 24.75 -17.8125 
Q 21.140625 -20.796875 15.09375 -20.796875 
L 7.90625 -20.796875 
L 7.90625 -13.28125 
L 13.1875 -13.28125 
Q 16.890625 -13.28125 18.9375 -11.515625 
Q 21 -9.765625 23.484375 -3.21875 
L 25.09375 0.875 
L 2.984375 54.6875 
L 12.5 54.6875 
L 29.59375 11.921875 
L 46.6875 54.6875 
L 56.203125 54.6875 
z
" id="DejaVuSans-121"/>
     </defs>
     <g transform="translate(50.9475 370.22375)rotate(-90)scale(0.16 -0.16)">
      <use xlink:href="#DejaVuSans-66"/>
      <use x="68.603516" xlink:href="#DejaVuSans-121"/>
     </g>
    </g>
   </g>
   <g id="line2d_46">
    <path clip-path="url(#p6f9c289be4)" d="M 115.461818 296.310789 
L 160.446942 298.431814 
L 205.432066 304.315081 
L 250.41719 313.888306 
L 295.402314 326.820061 
L 340.387438 342.875332 
L 385.372562 361.377221 
L 430.357686 381.640233 
L 475.34281 402.526604 
L 520.327934 421.713047 
L 565.313058 434.951506 
L 610.298182 436.477347 
" style="fill:none;stroke:#1f77b4;stroke-linecap:square;stroke-width:2;"/>
    <g clip-path="url(#p6f9c289be4)">
     <use style="fill:#1f77b4;stroke:#1f77b4;" x="115.461818" xlink:href="#mae57bfa8d3" y="296.310789"/>
     <use style="fill:#1f77b4;stroke:#1f77b4;" x="160.446942" xlink:href="#mae57bfa8d3" y="298.431814"/>
     <use style="fill:#1f77b4;stroke:#1f77b4;" x="205.432066" xlink:href="#mae57bfa8d3" y="304.315081"/>
     <use style="fill:#1f77b4;stroke:#1f77b4;" x="250.41719" xlink:href="#mae57bfa8d3" y="313.888306"/>
     <use style="fill:#1f77b4;stroke:#1f77b4;" x="295.402314" xlink:href="#mae57bfa8d3" y="326.820061"/>
     <use style="fill:#1f77b4;stroke:#1f77b4;" x="340.387438" xlink:href="#mae57bfa8d3" y="342.875332"/>
     <use style="fill:#1f77b4;stroke:#1f77b4;" x="385.372562" xlink:href="#mae57bfa8d3" y="361.377221"/>
     <use style="fill:#1f77b4;stroke:#1f77b4;" x="430.357686" xlink:href="#mae57bfa8d3" y="381.640233"/>
     <use style="fill:#1f77b4;stroke:#1f77b4;" x="475.34281" xlink:href="#mae57bfa8d3" y="402.526604"/>
     <use style="fill:#1f77b4;stroke:#1f77b4;" x="520.327934" xlink:href="#mae57bfa8d3" y="421.713047"/>
     <use style="fill:#1f77b4;stroke:#1f77b4;" x="565.313058" xlink:href="#mae57bfa8d3" y="434.951506"/>
     <use style="fill:#1f77b4;stroke:#1f77b4;" x="610.298182" xlink:href="#mae57bfa8d3" y="436.477347"/>
    </g>
   </g>
   <g id="line2d_47">
    <path clip-path="url(#p6f9c289be4)" d="M 115.461818 274.424377 
L 160.446942 276.780164 
L 205.432066 283.414156 
L 250.41719 294.206542 
L 295.402314 308.844422 
L 340.387438 327.077495 
L 385.372562 348.197151 
L 430.357686 371.50894 
L 475.34281 395.871397 
L 520.327934 418.786504 
L 565.313058 435.268704 
L 610.298182 437.347979 
" style="fill:none;stroke:#ff7f0e;stroke-linecap:square;stroke-width:2;"/>
    <g clip-path="url(#p6f9c289be4)">
     <use style="fill:#ff7f0e;stroke:#ff7f0e;" x="115.461818" xlink:href="#m0393404655" y="274.424377"/>
     <use style="fill:#ff7f0e;stroke:#ff7f0e;" x="160.446942" xlink:href="#m0393404655" y="276.780164"/>
     <use style="fill:#ff7f0e;stroke:#ff7f0e;" x="205.432066" xlink:href="#m0393404655" y="283.414156"/>
     <use style="fill:#ff7f0e;stroke:#ff7f0e;" x="250.41719" xlink:href="#m0393404655" y="294.206542"/>
     <use style="fill:#ff7f0e;stroke:#ff7f0e;" x="295.402314" xlink:href="#m0393404655" y="308.844422"/>
     <use style="fill:#ff7f0e;stroke:#ff7f0e;" x="340.387438" xlink:href="#m0393404655" y="327.077495"/>
     <use style="fill:#ff7f0e;stroke:#ff7f0e;" x="385.372562" xlink:href="#m0393404655" y="348.197151"/>
     <use style="fill:#ff7f0e;stroke:#ff7f0e;" x="430.357686" xlink:href="#m0393404655" y="371.50894"/>
     <use style="fill:#ff7f0e;stroke:#ff7f0e;" x="475.34281" xlink:href="#m0393404655" y="395.871397"/>
     <use style="fill:#ff7f0e;stroke:#ff7f0e;" x="520.327934" xlink:href="#m0393404655" y="418.786504"/>
     <use style="fill:#ff7f0e;stroke:#ff7f0e;" x="565.313058" xlink:href="#m0393404655" y="435.268704"/>
     <use style="fill:#ff7f0e;stroke:#ff7f0e;" x="610.298182" xlink:href="#m0393404655" y="437.347979"/>
    </g>
   </g>
   <g id="line2d_48">
    <path clip-path="url(#p6f9c289be4)" d="M 115.461818 272.727273 
L 160.446942 275.095368 
L 205.432066 281.750134 
L 250.41719 292.600136 
L 295.402314 307.344037 
L 340.387438 325.709959 
L 385.372562 346.979405 
L 430.357686 370.469969 
L 475.34281 395.005018 
L 520.327934 418.109053 
L 565.313058 434.746344 
L 610.298182 436.874507 
" style="fill:none;stroke:#2ca02c;stroke-linecap:square;stroke-width:2;"/>
    <g clip-path="url(#p6f9c289be4)">
     <use style="fill:#2ca02c;stroke:#2ca02c;" x="115.461818" xlink:href="#m46aca3f5e3" y="272.727273"/>
     <use style="fill:#2ca02c;stroke:#2ca02c;" x="160.446942" xlink:href="#m46aca3f5e3" y="275.095368"/>
     <use style="fill:#2ca02c;stroke:#2ca02c;" x="205.432066" xlink:href="#m46aca3f5e3" y="281.750134"/>
     <use style="fill:#2ca02c;stroke:#2ca02c;" x="250.41719" xlink:href="#m46aca3f5e3" y="292.600136"/>
     <use style="fill:#2ca02c;stroke:#2ca02c;" x="295.402314" xlink:href="#m46aca3f5e3" y="307.344037"/>
     <use style="fill:#2ca02c;stroke:#2ca02c;" x="340.387438" xlink:href="#m46aca3f5e3" y="325.709959"/>
     <use style="fill:#2ca02c;stroke:#2ca02c;" x="385.372562" xlink:href="#m46aca3f5e3" y="346.979405"/>
     <use style="fill:#2ca02c;stroke:#2ca02c;" x="430.357686" xlink:href="#m46aca3f5e3" y="370.469969"/>
     <use style="fill:#2ca02c;stroke:#2ca02c;" x="475.34281" xlink:href="#m46aca3f5e3" y="395.005018"/>
     <use style="fill:#2ca02c;stroke:#2ca02c;" x="520.327934" xlink:href="#m46aca3f5e3" y="418.109053"/>
     <use style="fill:#2ca02c;stroke:#2ca02c;" x="565.313058" xlink:href="#m46aca3f5e3" y="434.746344"/>
     <use style="fill:#2ca02c;stroke:#2ca02c;" x="610.298182" xlink:href="#m46aca3f5e3" y="436.874507"/>
    </g>
   </g>
   <g id="line2d_49">
    <path clip-path="url(#p6f9c289be4)" d="M 115.461818 274.02896 
L 160.446942 276.337919 
L 205.432066 282.902801 
L 250.41719 293.65745 
L 295.402314 308.291529 
L 340.387438 326.549209 
L 385.372562 347.709188 
L 430.357686 371.053171 
L 475.34281 395.491127 
L 520.327934 418.534024 
L 565.313058 435.236916 
L 610.298182 437.495637 
" style="fill:none;stroke:#d62728;stroke-linecap:square;stroke-width:2;"/>
    <g clip-path="url(#p6f9c289be4)">
     <use style="fill:#d62728;stroke:#d62728;" x="115.461818" xlink:href="#m79005e4a63" y="274.02896"/>
     <use style="fill:#d62728;stroke:#d62728;" x="160.446942" xlink:href="#m79005e4a63" y="276.337919"/>
     <use style="fill:#d62728;stroke:#d62728;" x="205.432066" xlink:href="#m79005e4a63" y="282.902801"/>
     <use style="fill:#d62728;stroke:#d62728;" x="250.41719" xlink:href="#m79005e4a63" y="293.65745"/>
     <use style="fill:#d62728;stroke:#d62728;" x="295.402314" xlink:href="#m79005e4a63" y="308.291529"/>
     <use style="fill:#d62728;stroke:#d62728;" x="340.387438" xlink:href="#m79005e4a63" y="326.549209"/>
     <use style="fill:#d62728;stroke:#d62728;" x="385.372562" xlink:href="#m79005e4a63" y="347.709188"/>
     <use style="fill:#d62728;stroke:#d62728;" x="430.357686" xlink:href="#m79005e4a63" y="371.053171"/>
     <use style="fill:#d62728;stroke:#d62728;" x="475.34281" xlink:href="#m79005e4a63" y="395.491127"/>
     <use style="fill:#d62728;stroke:#d62728;" x="520.327934" xlink:href="#m79005e4a63" y="418.534024"/>
     <use style="fill:#d62728;stroke:#d62728;" x="565.313058" xlink:href="#m79005e4a63" y="435.236916"/>
     <use style="fill:#d62728;stroke:#d62728;" x="610.298182" xlink:href="#m79005e4a63" y="437.495637"/>
    </g>
   </g>
   <g id="line2d_50">
    <path clip-path="url(#p6f9c289be4)" d="M 115.461818 296.414231 
L 160.446942 299.767422 
L 205.432066 306.979146 
L 250.41719 317.927052 
L 295.402314 332.314477 
L 340.387438 349.872994 
L 385.372562 369.899516 
L 430.357686 391.69776 
L 475.34281 414.193401 
L 520.327934 434.639313 
L 565.313058 447.272727 
L 610.298182 444.189553 
" style="fill:none;stroke:#9467bd;stroke-linecap:square;stroke-width:2;"/>
    <g clip-path="url(#p6f9c289be4)">
     <use style="fill:#9467bd;stroke:#9467bd;" x="115.461818" xlink:href="#m84497a66f5" y="296.414231"/>
     <use style="fill:#9467bd;stroke:#9467bd;" x="160.446942" xlink:href="#m84497a66f5" y="299.767422"/>
     <use style="fill:#9467bd;stroke:#9467bd;" x="205.432066" xlink:href="#m84497a66f5" y="306.979146"/>
     <use style="fill:#9467bd;stroke:#9467bd;" x="250.41719" xlink:href="#m84497a66f5" y="317.927052"/>
     <use style="fill:#9467bd;stroke:#9467bd;" x="295.402314" xlink:href="#m84497a66f5" y="332.314477"/>
     <use style="fill:#9467bd;stroke:#9467bd;" x="340.387438" xlink:href="#m84497a66f5" y="349.872994"/>
     <use style="fill:#9467bd;stroke:#9467bd;" x="385.372562" xlink:href="#m84497a66f5" y="369.899516"/>
     <use style="fill:#9467bd;stroke:#9467bd;" x="430.357686" xlink:href="#m84497a66f5" y="391.69776"/>
     <use style="fill:#9467bd;stroke:#9467bd;" x="475.34281" xlink:href="#m84497a66f5" y="414.193401"/>
     <use style="fill:#9467bd;stroke:#9467bd;" x="520.327934" xlink:href="#m84497a66f5" y="434.639313"/>
     <use style="fill:#9467bd;stroke:#9467bd;" x="565.313058" xlink:href="#m84497a66f5" y="447.272727"/>
     <use style="fill:#9467bd;stroke:#9467bd;" x="610.298182" xlink:href="#m84497a66f5" y="444.189553"/>
    </g>
   </g>
   <g id="patch_8">
    <path d="M 90.72 456 
L 90.72 264 
" style="fill:none;stroke:#000000;stroke-linecap:square;stroke-linejoin:miter;stroke-width:0.8;"/>
   </g>
   <g id="patch_9">
    <path d="M 635.04 456 
L 635.04 264 
" style="fill:none;stroke:#000000;stroke-linecap:square;stroke-linejoin:miter;stroke-width:0.8;"/>
   </g>
   <g id="patch_10">
    <path d="M 90.72 456 
L 635.04 456 
" style="fill:none;stroke:#000000;stroke-linecap:square;stroke-linejoin:miter;stroke-width:0.8;"/>
   </g>
   <g id="patch_11">
    <path d="M 90.72 264 
L 635.04 264 
" style="fill:none;stroke:#000000;stroke-linecap:square;stroke-linejoin:miter;stroke-width:0.8;"/>
   </g>
   <g id="legend_1">
    <g id="patch_12">
     <path d="M 563.004535 370.67474 
L 627.2672 370.67474 
Q 629.488 370.67474 629.488 368.45394 
L 629.488 271.7728 
Q 629.488 269.552 627.2672 269.552 
L 563.004535 269.552 
Q 560.783735 269.552 560.783735 271.7728 
L 560.783735 368.45394 
Q 560.783735 370.67474 563.004535 370.67474 
z
" style="fill:#ffffff;opacity:0.8;stroke:#cccccc;stroke-linejoin:miter;"/>
    </g>
    <g id="text_24">
     <!-- X0 [mm] -->
     <defs>
      <path d="M 6.296875 72.90625 
L 16.890625 72.90625 
L 35.015625 45.796875 
L 53.21875 72.90625 
L 63.8125 72.90625 
L 40.375 37.890625 
L 65.375 0 
L 54.78125 0 
L 34.28125 31 
L 13.625 0 
L 2.984375 0 
L 29 38.921875 
z
" id="DejaVuSans-88"/>
     </defs>
     <g transform="translate(570.887507 282.430905)scale(0.11104 -0.11104)">
      <use xlink:href="#DejaVuSans-88"/>
      <use x="68.505859" xlink:href="#DejaVuSans-48"/>
      <use x="132.128906" xlink:href="#DejaVuSans-32"/>
      <use x="163.916016" xlink:href="#DejaVuSans-91"/>
      <use x="202.929688" xlink:href="#DejaVuSans-109"/>
      <use x="300.341797" xlink:href="#DejaVuSans-109"/>
      <use x="397.753906" xlink:href="#DejaVuSans-93"/>
     </g>
    </g>
    <g id="line2d_51">
     <path d="M 565.225335 294.843095 
L 587.433335 294.843095 
" style="fill:none;stroke:#1f77b4;stroke-linecap:square;stroke-width:2;"/>
    </g>
    <g id="line2d_52">
     <g>
      <use style="fill:#1f77b4;stroke:#1f77b4;" x="576.329335" xlink:href="#mae57bfa8d3" y="294.843095"/>
     </g>
    </g>
    <g id="text_25">
     <!-- -12.0 -->
     <defs>
      <path d="M 4.890625 31.390625 
L 31.203125 31.390625 
L 31.203125 23.390625 
L 4.890625 23.390625 
z
" id="DejaVuSans-45"/>
     </defs>
     <g transform="translate(596.316535 298.729495)scale(0.11104 -0.11104)">
      <use xlink:href="#DejaVuSans-45"/>
      <use x="36.083984" xlink:href="#DejaVuSans-49"/>
      <use x="99.707031" xlink:href="#DejaVuSans-50"/>
      <use x="163.330078" xlink:href="#DejaVuSans-46"/>
      <use x="195.117188" xlink:href="#DejaVuSans-48"/>
     </g>
    </g>
    <g id="line2d_53">
     <path d="M 565.225335 311.141685 
L 587.433335 311.141685 
" style="fill:none;stroke:#ff7f0e;stroke-linecap:square;stroke-width:2;"/>
    </g>
    <g id="line2d_54">
     <g>
      <use style="fill:#ff7f0e;stroke:#ff7f0e;" x="576.329335" xlink:href="#m0393404655" y="311.141685"/>
     </g>
    </g>
    <g id="text_26">
     <!-- -5.0 -->
     <g transform="translate(596.316535 315.028085)scale(0.11104 -0.11104)">
      <use xlink:href="#DejaVuSans-45"/>
      <use x="36.083984" xlink:href="#DejaVuSans-53"/>
      <use x="99.707031" xlink:href="#DejaVuSans-46"/>
      <use x="131.494141" xlink:href="#DejaVuSans-48"/>
     </g>
    </g>
    <g id="line2d_55">
     <path d="M 565.225335 327.440275 
L 587.433335 327.440275 
" style="fill:none;stroke:#2ca02c;stroke-linecap:square;stroke-width:2;"/>
    </g>
    <g id="line2d_56">
     <g>
      <use style="fill:#2ca02c;stroke:#2ca02c;" x="576.329335" xlink:href="#m46aca3f5e3" y="327.440275"/>
     </g>
    </g>
    <g id="text_27">
     <!-- 0.0 -->
     <g transform="translate(596.316535 331.326675)scale(0.11104 -0.11104)">
      <use xlink:href="#DejaVuSans-48"/>
      <use x="63.623047" xlink:href="#DejaVuSans-46"/>
      <use x="95.410156" xlink:href="#DejaVuSans-48"/>
     </g>
    </g>
    <g id="line2d_57">
     <path d="M 565.225335 343.738865 
L 587.433335 343.738865 
" style="fill:none;stroke:#d62728;stroke-linecap:square;stroke-width:2;"/>
    </g>
    <g id="line2d_58">
     <g>
      <use style="fill:#d62728;stroke:#d62728;" x="576.329335" xlink:href="#m79005e4a63" y="343.738865"/>
     </g>
    </g>
    <g id="text_28">
     <!-- 5.0 -->
     <g transform="translate(596.316535 347.625265)scale(0.11104 -0.11104)">
      <use xlink:href="#DejaVuSans-53"/>
      <use x="63.623047" xlink:href="#DejaVuSans-46"/>
      <use x="95.410156" xlink:href="#DejaVuSans-48"/>
     </g>
    </g>
    <g id="line2d_59">
     <path d="M 565.225335 360.037455 
L 587.433335 360.037455 
" style="fill:none;stroke:#9467bd;stroke-linecap:square;stroke-width:2;"/>
    </g>
    <g id="line2d_60">
     <g>
      <use style="fill:#9467bd;stroke:#9467bd;" x="576.329335" xlink:href="#m84497a66f5" y="360.037455"/>
     </g>
    </g>
    <g id="text_29">
     <!-- 12.0 -->
     <g transform="translate(596.316535 363.923855)scale(0.11104 -0.11104)">
      <use xlink:href="#DejaVuSans-49"/>
      <use x="63.623047" xlink:href="#DejaVuSans-50"/>
      <use x="127.246094" xlink:href="#DejaVuSans-46"/>
      <use x="159.033203" xlink:href="#DejaVuSans-48"/>
     </g>
    </g>
   </g>
  </g>
  <g id="axes_3">
   <g id="patch_13">
    <path d="M 90.72 648 
L 635.04 648 
L 635.04 456 
L 90.72 456 
z
" style="fill:#ffffff;"/>
   </g>
   <g id="matplotlib.axis_5">
    <g id="xtick_13">
     <g id="line2d_61">
      <path clip-path="url(#p6cfe93011c)" d="M 115.461818 648 
L 115.461818 456 
" style="fill:none;stroke:#b0b0b0;stroke-linecap:square;stroke-width:0.8;"/>
     </g>
     <g id="line2d_62">
      <g>
       <use style="stroke:#000000;stroke-width:0.8;" x="115.461818" xlink:href="#ma3f76f7b1b" y="648"/>
      </g>
     </g>
     <g id="text_30">
      <!-- 0 -->
      <g transform="translate(110.371818 667.1575)scale(0.16 -0.16)">
       <use xlink:href="#DejaVuSans-48"/>
      </g>
     </g>
    </g>
    <g id="xtick_14">
     <g id="line2d_63">
      <path clip-path="url(#p6cfe93011c)" d="M 205.432066 648 
L 205.432066 456 
" style="fill:none;stroke:#b0b0b0;stroke-linecap:square;stroke-width:0.8;"/>
     </g>
     <g id="line2d_64">
      <g>
       <use style="stroke:#000000;stroke-width:0.8;" x="205.432066" xlink:href="#ma3f76f7b1b" y="648"/>
      </g>
     </g>
     <g id="text_31">
      <!-- 2 -->
      <g transform="translate(200.342066 667.1575)scale(0.16 -0.16)">
       <use xlink:href="#DejaVuSans-50"/>
      </g>
     </g>
    </g>
    <g id="xtick_15">
     <g id="line2d_65">
      <path clip-path="url(#p6cfe93011c)" d="M 295.402314 648 
L 295.402314 456 
" style="fill:none;stroke:#b0b0b0;stroke-linecap:square;stroke-width:0.8;"/>
     </g>
     <g id="line2d_66">
      <g>
       <use style="stroke:#000000;stroke-width:0.8;" x="295.402314" xlink:href="#ma3f76f7b1b" y="648"/>
      </g>
     </g>
     <g id="text_32">
      <!-- 4 -->
      <g transform="translate(290.312314 667.1575)scale(0.16 -0.16)">
       <use xlink:href="#DejaVuSans-52"/>
      </g>
     </g>
    </g>
    <g id="xtick_16">
     <g id="line2d_67">
      <path clip-path="url(#p6cfe93011c)" d="M 385.372562 648 
L 385.372562 456 
" style="fill:none;stroke:#b0b0b0;stroke-linecap:square;stroke-width:0.8;"/>
     </g>
     <g id="line2d_68">
      <g>
       <use style="stroke:#000000;stroke-width:0.8;" x="385.372562" xlink:href="#ma3f76f7b1b" y="648"/>
      </g>
     </g>
     <g id="text_33">
      <!-- 6 -->
      <g transform="translate(380.282562 667.1575)scale(0.16 -0.16)">
       <use xlink:href="#DejaVuSans-54"/>
      </g>
     </g>
    </g>
    <g id="xtick_17">
     <g id="line2d_69">
      <path clip-path="url(#p6cfe93011c)" d="M 475.34281 648 
L 475.34281 456 
" style="fill:none;stroke:#b0b0b0;stroke-linecap:square;stroke-width:0.8;"/>
     </g>
     <g id="line2d_70">
      <g>
       <use style="stroke:#000000;stroke-width:0.8;" x="475.34281" xlink:href="#ma3f76f7b1b" y="648"/>
      </g>
     </g>
     <g id="text_34">
      <!-- 8 -->
      <g transform="translate(470.25281 667.1575)scale(0.16 -0.16)">
       <use xlink:href="#DejaVuSans-56"/>
      </g>
     </g>
    </g>
    <g id="xtick_18">
     <g id="line2d_71">
      <path clip-path="url(#p6cfe93011c)" d="M 565.313058 648 
L 565.313058 456 
" style="fill:none;stroke:#b0b0b0;stroke-linecap:square;stroke-width:0.8;"/>
     </g>
     <g id="line2d_72">
      <g>
       <use style="stroke:#000000;stroke-width:0.8;" x="565.313058" xlink:href="#ma3f76f7b1b" y="648"/>
      </g>
     </g>
     <g id="text_35">
      <!-- 10 -->
      <g transform="translate(555.133058 667.1575)scale(0.16 -0.16)">
       <use xlink:href="#DejaVuSans-49"/>
       <use x="63.623047" xlink:href="#DejaVuSans-48"/>
      </g>
     </g>
    </g>
    <g id="text_36">
     <!-- phase [mm] -->
     <defs>
      <path d="M 54.890625 33.015625 
L 54.890625 0 
L 45.90625 0 
L 45.90625 32.71875 
Q 45.90625 40.484375 42.875 44.328125 
Q 39.84375 48.1875 33.796875 48.1875 
Q 26.515625 48.1875 22.3125 43.546875 
Q 18.109375 38.921875 18.109375 30.90625 
L 18.109375 0 
L 9.078125 0 
L 9.078125 75.984375 
L 18.109375 75.984375 
L 18.109375 46.1875 
Q 21.34375 51.125 25.703125 53.5625 
Q 30.078125 56 35.796875 56 
Q 45.21875 56 50.046875 50.171875 
Q 54.890625 44.34375 54.890625 33.015625 
z
" id="DejaVuSans-104"/>
      <path d="M 34.28125 27.484375 
Q 23.390625 27.484375 19.1875 25 
Q 14.984375 22.515625 14.984375 16.5 
Q 14.984375 11.71875 18.140625 8.90625 
Q 21.296875 6.109375 26.703125 6.109375 
Q 34.1875 6.109375 38.703125 11.40625 
Q 43.21875 16.703125 43.21875 25.484375 
L 43.21875 27.484375 
z
M 52.203125 31.203125 
L 52.203125 0 
L 43.21875 0 
L 43.21875 8.296875 
Q 40.140625 3.328125 35.546875 0.953125 
Q 30.953125 -1.421875 24.3125 -1.421875 
Q 15.921875 -1.421875 10.953125 3.296875 
Q 6 8.015625 6 15.921875 
Q 6 25.140625 12.171875 29.828125 
Q 18.359375 34.515625 30.609375 34.515625 
L 43.21875 34.515625 
L 43.21875 35.40625 
Q 43.21875 41.609375 39.140625 45 
Q 35.0625 48.390625 27.6875 48.390625 
Q 23 48.390625 18.546875 47.265625 
Q 14.109375 46.140625 10.015625 43.890625 
L 10.015625 52.203125 
Q 14.9375 54.109375 19.578125 55.046875 
Q 24.21875 56 28.609375 56 
Q 40.484375 56 46.34375 49.84375 
Q 52.203125 43.703125 52.203125 31.203125 
z
" id="DejaVuSans-97"/>
      <path d="M 44.28125 53.078125 
L 44.28125 44.578125 
Q 40.484375 46.53125 36.375 47.5 
Q 32.28125 48.484375 27.875 48.484375 
Q 21.1875 48.484375 17.84375 46.4375 
Q 14.5 44.390625 14.5 40.28125 
Q 14.5 37.15625 16.890625 35.375 
Q 19.28125 33.59375 26.515625 31.984375 
L 29.59375 31.296875 
Q 39.15625 29.25 43.1875 25.515625 
Q 47.21875 21.78125 47.21875 15.09375 
Q 47.21875 7.46875 41.1875 3.015625 
Q 35.15625 -1.421875 24.609375 -1.421875 
Q 20.21875 -1.421875 15.453125 -0.5625 
Q 10.6875 0.296875 5.421875 2 
L 5.421875 11.28125 
Q 10.40625 8.6875 15.234375 7.390625 
Q 20.0625 6.109375 24.8125 6.109375 
Q 31.15625 6.109375 34.5625 8.28125 
Q 37.984375 10.453125 37.984375 14.40625 
Q 37.984375 18.0625 35.515625 20.015625 
Q 33.0625 21.96875 24.703125 23.78125 
L 21.578125 24.515625 
Q 13.234375 26.265625 9.515625 29.90625 
Q 5.8125 33.546875 5.8125 39.890625 
Q 5.8125 47.609375 11.28125 51.796875 
Q 16.75 56 26.8125 56 
Q 31.78125 56 36.171875 55.265625 
Q 40.578125 54.546875 44.28125 53.078125 
z
" id="DejaVuSans-115"/>
     </defs>
     <g transform="translate(314.36875 686.6425)scale(0.16 -0.16)">
      <use xlink:href="#DejaVuSans-112"/>
      <use x="63.476562" xlink:href="#DejaVuSans-104"/>
      <use x="126.855469" xlink:href="#DejaVuSans-97"/>
      <use x="188.134766" xlink:href="#DejaVuSans-115"/>
      <use x="240.234375" xlink:href="#DejaVuSans-101"/>
      <use x="301.757812" xlink:href="#DejaVuSans-32"/>
      <use x="333.544922" xlink:href="#DejaVuSans-91"/>
      <use x="372.558594" xlink:href="#DejaVuSans-109"/>
      <use x="469.970703" xlink:href="#DejaVuSans-109"/>
      <use x="567.382812" xlink:href="#DejaVuSans-93"/>
     </g>
    </g>
   </g>
   <g id="matplotlib.axis_6">
    <g id="ytick_9">
     <g id="line2d_73">
      <path clip-path="url(#p6cfe93011c)" d="M 90.72 621.648767 
L 635.04 621.648767 
" style="fill:none;stroke:#b0b0b0;stroke-linecap:square;stroke-width:0.8;"/>
     </g>
     <g id="line2d_74">
      <g>
       <use style="stroke:#000000;stroke-width:0.8;" x="90.72" xlink:href="#m4571adf6a4" y="621.648767"/>
      </g>
     </g>
     <g id="text_37">
      <!-- 0.2 -->
      <g transform="translate(58.275 627.727517)scale(0.16 -0.16)">
       <use xlink:href="#DejaVuSans-48"/>
       <use x="63.623047" xlink:href="#DejaVuSans-46"/>
       <use x="95.410156" xlink:href="#DejaVuSans-50"/>
      </g>
     </g>
    </g>
    <g id="ytick_10">
     <g id="line2d_75">
      <path clip-path="url(#p6cfe93011c)" d="M 90.72 560.581891 
L 635.04 560.581891 
" style="fill:none;stroke:#b0b0b0;stroke-linecap:square;stroke-width:0.8;"/>
     </g>
     <g id="line2d_76">
      <g>
       <use style="stroke:#000000;stroke-width:0.8;" x="90.72" xlink:href="#m4571adf6a4" y="560.581891"/>
      </g>
     </g>
     <g id="text_38">
      <!-- 0.4 -->
      <g transform="translate(58.275 566.660641)scale(0.16 -0.16)">
       <use xlink:href="#DejaVuSans-48"/>
       <use x="63.623047" xlink:href="#DejaVuSans-46"/>
       <use x="95.410156" xlink:href="#DejaVuSans-52"/>
      </g>
     </g>
    </g>
    <g id="ytick_11">
     <g id="line2d_77">
      <path clip-path="url(#p6cfe93011c)" d="M 90.72 499.515015 
L 635.04 499.515015 
" style="fill:none;stroke:#b0b0b0;stroke-linecap:square;stroke-width:0.8;"/>
     </g>
     <g id="line2d_78">
      <g>
       <use style="stroke:#000000;stroke-width:0.8;" x="90.72" xlink:href="#m4571adf6a4" y="499.515015"/>
      </g>
     </g>
     <g id="text_39">
      <!-- 0.6 -->
      <g transform="translate(58.275 505.593765)scale(0.16 -0.16)">
       <use xlink:href="#DejaVuSans-48"/>
       <use x="63.623047" xlink:href="#DejaVuSans-46"/>
       <use x="95.410156" xlink:href="#DejaVuSans-54"/>
      </g>
     </g>
    </g>
    <g id="text_40">
     <!-- Bz -->
     <defs>
      <path d="M 5.515625 54.6875 
L 48.1875 54.6875 
L 48.1875 46.484375 
L 14.40625 7.171875 
L 48.1875 7.171875 
L 48.1875 0 
L 4.296875 0 
L 4.296875 8.203125 
L 38.09375 47.515625 
L 5.515625 47.515625 
z
" id="DejaVuSans-122"/>
     </defs>
     <g transform="translate(50.9475 561.6875)rotate(-90)scale(0.16 -0.16)">
      <use xlink:href="#DejaVuSans-66"/>
      <use x="68.603516" xlink:href="#DejaVuSans-122"/>
     </g>
    </g>
   </g>
   <g id="line2d_79">
    <path clip-path="url(#p6cfe93011c)" d="M 115.461818 630.65425 
L 160.446942 623.801543 
L 205.432066 608.707729 
L 250.41719 590.249471 
L 295.402314 571.112475 
L 340.387438 552.68684 
L 385.372562 536.171685 
L 430.357686 522.208769 
L 475.34281 511.222616 
L 520.327934 503.633543 
L 565.313058 499.659711 
L 610.298182 499.37841 
" style="fill:none;stroke:#1f77b4;stroke-linecap:square;stroke-width:2;"/>
    <g clip-path="url(#p6cfe93011c)">
     <use style="fill:#1f77b4;stroke:#1f77b4;" x="115.461818" xlink:href="#mae57bfa8d3" y="630.65425"/>
     <use style="fill:#1f77b4;stroke:#1f77b4;" x="160.446942" xlink:href="#mae57bfa8d3" y="623.801543"/>
     <use style="fill:#1f77b4;stroke:#1f77b4;" x="205.432066" xlink:href="#mae57bfa8d3" y="608.707729"/>
     <use style="fill:#1f77b4;stroke:#1f77b4;" x="250.41719" xlink:href="#mae57bfa8d3" y="590.249471"/>
     <use style="fill:#1f77b4;stroke:#1f77b4;" x="295.402314" xlink:href="#mae57bfa8d3" y="571.112475"/>
     <use style="fill:#1f77b4;stroke:#1f77b4;" x="340.387438" xlink:href="#mae57bfa8d3" y="552.68684"/>
     <use style="fill:#1f77b4;stroke:#1f77b4;" x="385.372562" xlink:href="#mae57bfa8d3" y="536.171685"/>
     <use style="fill:#1f77b4;stroke:#1f77b4;" x="430.357686" xlink:href="#mae57bfa8d3" y="522.208769"/>
     <use style="fill:#1f77b4;stroke:#1f77b4;" x="475.34281" xlink:href="#mae57bfa8d3" y="511.222616"/>
     <use style="fill:#1f77b4;stroke:#1f77b4;" x="520.327934" xlink:href="#mae57bfa8d3" y="503.633543"/>
     <use style="fill:#1f77b4;stroke:#1f77b4;" x="565.313058" xlink:href="#mae57bfa8d3" y="499.659711"/>
     <use style="fill:#1f77b4;stroke:#1f77b4;" x="610.298182" xlink:href="#mae57bfa8d3" y="499.37841"/>
    </g>
   </g>
   <g id="line2d_80">
    <path clip-path="url(#p6cfe93011c)" d="M 115.461818 627.911511 
L 160.446942 618.878442 
L 205.432066 599.8261 
L 250.41719 577.121278 
L 295.402314 553.911479 
L 340.387438 531.764406 
L 385.372562 511.98203 
L 430.357686 495.262327 
L 475.34281 482.110902 
L 520.327934 473.035526 
L 565.313058 468.269818 
L 610.298182 467.915989 
" style="fill:none;stroke:#ff7f0e;stroke-linecap:square;stroke-width:2;"/>
    <g clip-path="url(#p6cfe93011c)">
     <use style="fill:#ff7f0e;stroke:#ff7f0e;" x="115.461818" xlink:href="#m0393404655" y="627.911511"/>
     <use style="fill:#ff7f0e;stroke:#ff7f0e;" x="160.446942" xlink:href="#m0393404655" y="618.878442"/>
     <use style="fill:#ff7f0e;stroke:#ff7f0e;" x="205.432066" xlink:href="#m0393404655" y="599.8261"/>
     <use style="fill:#ff7f0e;stroke:#ff7f0e;" x="250.41719" xlink:href="#m0393404655" y="577.121278"/>
     <use style="fill:#ff7f0e;stroke:#ff7f0e;" x="295.402314" xlink:href="#m0393404655" y="553.911479"/>
     <use style="fill:#ff7f0e;stroke:#ff7f0e;" x="340.387438" xlink:href="#m0393404655" y="531.764406"/>
     <use style="fill:#ff7f0e;stroke:#ff7f0e;" x="385.372562" xlink:href="#m0393404655" y="511.98203"/>
     <use style="fill:#ff7f0e;stroke:#ff7f0e;" x="430.357686" xlink:href="#m0393404655" y="495.262327"/>
     <use style="fill:#ff7f0e;stroke:#ff7f0e;" x="475.34281" xlink:href="#m0393404655" y="482.110902"/>
     <use style="fill:#ff7f0e;stroke:#ff7f0e;" x="520.327934" xlink:href="#m0393404655" y="473.035526"/>
     <use style="fill:#ff7f0e;stroke:#ff7f0e;" x="565.313058" xlink:href="#m0393404655" y="468.269818"/>
     <use style="fill:#ff7f0e;stroke:#ff7f0e;" x="610.298182" xlink:href="#m0393404655" y="467.915989"/>
    </g>
   </g>
   <g id="line2d_81">
    <path clip-path="url(#p6cfe93011c)" d="M 115.461818 627.244246 
L 160.446942 618.096187 
L 205.432066 598.732095 
L 250.41719 575.659489 
L 295.402314 552.080699 
L 340.387438 529.597711 
L 385.372562 509.500693 
L 430.357686 492.51872 
L 475.34281 479.166509 
L 520.327934 469.950286 
L 565.313058 465.108788 
L 610.298182 464.727273 
" style="fill:none;stroke:#2ca02c;stroke-linecap:square;stroke-width:2;"/>
    <g clip-path="url(#p6cfe93011c)">
     <use style="fill:#2ca02c;stroke:#2ca02c;" x="115.461818" xlink:href="#m46aca3f5e3" y="627.244246"/>
     <use style="fill:#2ca02c;stroke:#2ca02c;" x="160.446942" xlink:href="#m46aca3f5e3" y="618.096187"/>
     <use style="fill:#2ca02c;stroke:#2ca02c;" x="205.432066" xlink:href="#m46aca3f5e3" y="598.732095"/>
     <use style="fill:#2ca02c;stroke:#2ca02c;" x="250.41719" xlink:href="#m46aca3f5e3" y="575.659489"/>
     <use style="fill:#2ca02c;stroke:#2ca02c;" x="295.402314" xlink:href="#m46aca3f5e3" y="552.080699"/>
     <use style="fill:#2ca02c;stroke:#2ca02c;" x="340.387438" xlink:href="#m46aca3f5e3" y="529.597711"/>
     <use style="fill:#2ca02c;stroke:#2ca02c;" x="385.372562" xlink:href="#m46aca3f5e3" y="509.500693"/>
     <use style="fill:#2ca02c;stroke:#2ca02c;" x="430.357686" xlink:href="#m46aca3f5e3" y="492.51872"/>
     <use style="fill:#2ca02c;stroke:#2ca02c;" x="475.34281" xlink:href="#m46aca3f5e3" y="479.166509"/>
     <use style="fill:#2ca02c;stroke:#2ca02c;" x="520.327934" xlink:href="#m46aca3f5e3" y="469.950286"/>
     <use style="fill:#2ca02c;stroke:#2ca02c;" x="565.313058" xlink:href="#m46aca3f5e3" y="465.108788"/>
     <use style="fill:#2ca02c;stroke:#2ca02c;" x="610.298182" xlink:href="#m46aca3f5e3" y="464.727273"/>
    </g>
   </g>
   <g id="line2d_82">
    <path clip-path="url(#p6cfe93011c)" d="M 115.461818 628.064905 
L 160.446942 619.095762 
L 205.432066 599.977259 
L 250.41719 577.175739 
L 295.402314 553.911239 
L 340.387438 531.674206 
L 385.372562 511.803834 
L 430.357686 494.999717 
L 475.34281 481.769985 
L 520.327934 472.646233 
L 565.313058 467.845352 
L 610.298182 467.439875 
" style="fill:none;stroke:#d62728;stroke-linecap:square;stroke-width:2;"/>
    <g clip-path="url(#p6cfe93011c)">
     <use style="fill:#d62728;stroke:#d62728;" x="115.461818" xlink:href="#m79005e4a63" y="628.064905"/>
     <use style="fill:#d62728;stroke:#d62728;" x="160.446942" xlink:href="#m79005e4a63" y="619.095762"/>
     <use style="fill:#d62728;stroke:#d62728;" x="205.432066" xlink:href="#m79005e4a63" y="599.977259"/>
     <use style="fill:#d62728;stroke:#d62728;" x="250.41719" xlink:href="#m79005e4a63" y="577.175739"/>
     <use style="fill:#d62728;stroke:#d62728;" x="295.402314" xlink:href="#m79005e4a63" y="553.911239"/>
     <use style="fill:#d62728;stroke:#d62728;" x="340.387438" xlink:href="#m79005e4a63" y="531.674206"/>
     <use style="fill:#d62728;stroke:#d62728;" x="385.372562" xlink:href="#m79005e4a63" y="511.803834"/>
     <use style="fill:#d62728;stroke:#d62728;" x="430.357686" xlink:href="#m79005e4a63" y="494.999717"/>
     <use style="fill:#d62728;stroke:#d62728;" x="475.34281" xlink:href="#m79005e4a63" y="481.769985"/>
     <use style="fill:#d62728;stroke:#d62728;" x="520.327934" xlink:href="#m79005e4a63" y="472.646233"/>
     <use style="fill:#d62728;stroke:#d62728;" x="565.313058" xlink:href="#m79005e4a63" y="467.845352"/>
     <use style="fill:#d62728;stroke:#d62728;" x="610.298182" xlink:href="#m79005e4a63" y="467.439875"/>
    </g>
   </g>
   <g id="line2d_83">
    <path clip-path="url(#p6cfe93011c)" d="M 115.461818 639.272727 
L 160.446942 626.387634 
L 205.432066 607.22049 
L 250.41719 586.556564 
L 295.402314 566.363777 
L 340.387438 547.599602 
L 385.372562 531.237844 
L 430.357686 517.776706 
L 475.34281 507.567015 
L 520.327934 501.024169 
L 565.313058 498.270851 
L 610.298182 499.335914 
" style="fill:none;stroke:#9467bd;stroke-linecap:square;stroke-width:2;"/>
    <g clip-path="url(#p6cfe93011c)">
     <use style="fill:#9467bd;stroke:#9467bd;" x="115.461818" xlink:href="#m84497a66f5" y="639.272727"/>
     <use style="fill:#9467bd;stroke:#9467bd;" x="160.446942" xlink:href="#m84497a66f5" y="626.387634"/>
     <use style="fill:#9467bd;stroke:#9467bd;" x="205.432066" xlink:href="#m84497a66f5" y="607.22049"/>
     <use style="fill:#9467bd;stroke:#9467bd;" x="250.41719" xlink:href="#m84497a66f5" y="586.556564"/>
     <use style="fill:#9467bd;stroke:#9467bd;" x="295.402314" xlink:href="#m84497a66f5" y="566.363777"/>
     <use style="fill:#9467bd;stroke:#9467bd;" x="340.387438" xlink:href="#m84497a66f5" y="547.599602"/>
     <use style="fill:#9467bd;stroke:#9467bd;" x="385.372562" xlink:href="#m84497a66f5" y="531.237844"/>
     <use style="fill:#9467bd;stroke:#9467bd;" x="430.357686" xlink:href="#m84497a66f5" y="517.776706"/>
     <use style="fill:#9467bd;stroke:#9467bd;" x="475.34281" xlink:href="#m84497a66f5" y="507.567015"/>
     <use style="fill:#9467bd;stroke:#9467bd;" x="520.327934" xlink:href="#m84497a66f5" y="501.024169"/>
     <use style="fill:#9467bd;stroke:#9467bd;" x="565.313058" xlink:href="#m84497a66f5" y="498.270851"/>
     <use style="fill:#9467bd;stroke:#9467bd;" x="610.298182" xlink:href="#m84497a66f5" y="499.335914"/>
    </g>
   </g>
   <g id="patch_14">
    <path d="M 90.72 648 
L 90.72 456 
" style="fill:none;stroke:#000000;stroke-linecap:square;stroke-linejoin:miter;stroke-width:0.8;"/>
   </g>
   <g id="patch_15">
    <path d="M 635.04 648 
L 635.04 456 
" style="fill:none;stroke:#000000;stroke-linecap:square;stroke-linejoin:miter;stroke-width:0.8;"/>
   </g>
   <g id="patch_16">
    <path d="M 90.72 648 
L 635.04 648 
" style="fill:none;stroke:#000000;stroke-linecap:square;stroke-linejoin:miter;stroke-width:0.8;"/>
   </g>
   <g id="patch_17">
    <path d="M 90.72 456 
L 635.04 456 
" style="fill:none;stroke:#000000;stroke-linecap:square;stroke-linejoin:miter;stroke-width:0.8;"/>
   </g>
  </g>
  <g id="text_41">
   <!-- Amplitudes for 1991b @ y=+01.0 -->
   <defs>
    <path d="M 37.109375 75.984375 
L 37.109375 68.5 
L 28.515625 68.5 
Q 23.6875 68.5 21.796875 66.546875 
Q 19.921875 64.59375 19.921875 59.515625 
L 19.921875 54.6875 
L 34.71875 54.6875 
L 34.71875 47.703125 
L 19.921875 47.703125 
L 19.921875 0 
L 10.890625 0 
L 10.890625 47.703125 
L 2.296875 47.703125 
L 2.296875 54.6875 
L 10.890625 54.6875 
L 10.890625 58.5 
Q 10.890625 67.625 15.140625 71.796875 
Q 19.390625 75.984375 28.609375 75.984375 
z
" id="DejaVuSans-102"/>
    <path d="M 30.609375 48.390625 
Q 23.390625 48.390625 19.1875 42.75 
Q 14.984375 37.109375 14.984375 27.296875 
Q 14.984375 17.484375 19.15625 11.84375 
Q 23.34375 6.203125 30.609375 6.203125 
Q 37.796875 6.203125 41.984375 11.859375 
Q 46.1875 17.53125 46.1875 27.296875 
Q 46.1875 37.015625 41.984375 42.703125 
Q 37.796875 48.390625 30.609375 48.390625 
z
M 30.609375 56 
Q 42.328125 56 49.015625 48.375 
Q 55.71875 40.765625 55.71875 27.296875 
Q 55.71875 13.875 49.015625 6.21875 
Q 42.328125 -1.421875 30.609375 -1.421875 
Q 18.84375 -1.421875 12.171875 6.21875 
Q 5.515625 13.875 5.515625 27.296875 
Q 5.515625 40.765625 12.171875 48.375 
Q 18.84375 56 30.609375 56 
z
" id="DejaVuSans-111"/>
    <path d="M 41.109375 46.296875 
Q 39.59375 47.171875 37.8125 47.578125 
Q 36.03125 48 33.890625 48 
Q 26.265625 48 22.1875 43.046875 
Q 18.109375 38.09375 18.109375 28.8125 
L 18.109375 0 
L 9.078125 0 
L 9.078125 54.6875 
L 18.109375 54.6875 
L 18.109375 46.1875 
Q 20.953125 51.171875 25.484375 53.578125 
Q 30.03125 56 36.53125 56 
Q 37.453125 56 38.578125 55.875 
Q 39.703125 55.765625 41.0625 55.515625 
z
" id="DejaVuSans-114"/>
    <path d="M 10.984375 1.515625 
L 10.984375 10.5 
Q 14.703125 8.734375 18.5 7.8125 
Q 22.3125 6.890625 25.984375 6.890625 
Q 35.75 6.890625 40.890625 13.453125 
Q 46.046875 20.015625 46.78125 33.40625 
Q 43.953125 29.203125 39.59375 26.953125 
Q 35.25 24.703125 29.984375 24.703125 
Q 19.046875 24.703125 12.671875 31.3125 
Q 6.296875 37.9375 6.296875 49.421875 
Q 6.296875 60.640625 12.9375 67.421875 
Q 19.578125 74.21875 30.609375 74.21875 
Q 43.265625 74.21875 49.921875 64.515625 
Q 56.59375 54.828125 56.59375 36.375 
Q 56.59375 19.140625 48.40625 8.859375 
Q 40.234375 -1.421875 26.421875 -1.421875 
Q 22.703125 -1.421875 18.890625 -0.6875 
Q 15.09375 0.046875 10.984375 1.515625 
z
M 30.609375 32.421875 
Q 37.25 32.421875 41.125 36.953125 
Q 45.015625 41.5 45.015625 49.421875 
Q 45.015625 57.28125 41.125 61.84375 
Q 37.25 66.40625 30.609375 66.40625 
Q 23.96875 66.40625 20.09375 61.84375 
Q 16.21875 57.28125 16.21875 49.421875 
Q 16.21875 41.5 20.09375 36.953125 
Q 23.96875 32.421875 30.609375 32.421875 
z
" id="DejaVuSans-57"/>
    <path d="M 48.6875 27.296875 
Q 48.6875 37.203125 44.609375 42.84375 
Q 40.53125 48.484375 33.40625 48.484375 
Q 26.265625 48.484375 22.1875 42.84375 
Q 18.109375 37.203125 18.109375 27.296875 
Q 18.109375 17.390625 22.1875 11.75 
Q 26.265625 6.109375 33.40625 6.109375 
Q 40.53125 6.109375 44.609375 11.75 
Q 48.6875 17.390625 48.6875 27.296875 
z
M 18.109375 46.390625 
Q 20.953125 51.265625 25.265625 53.625 
Q 29.59375 56 35.59375 56 
Q 45.5625 56 51.78125 48.09375 
Q 58.015625 40.1875 58.015625 27.296875 
Q 58.015625 14.40625 51.78125 6.484375 
Q 45.5625 -1.421875 35.59375 -1.421875 
Q 29.59375 -1.421875 25.265625 0.953125 
Q 20.953125 3.328125 18.109375 8.203125 
L 18.109375 0 
L 9.078125 0 
L 9.078125 75.984375 
L 18.109375 75.984375 
z
" id="DejaVuSans-98"/>
    <path d="M 37.203125 26.21875 
Q 37.203125 19.234375 40.671875 15.25 
Q 44.140625 11.28125 50.203125 11.28125 
Q 56.203125 11.28125 59.640625 15.28125 
Q 63.09375 19.28125 63.09375 26.21875 
Q 63.09375 33.0625 59.578125 37.078125 
Q 56.0625 41.109375 50.09375 41.109375 
Q 44.1875 41.109375 40.6875 37.109375 
Q 37.203125 33.109375 37.203125 26.21875 
z
M 63.8125 11.625 
Q 60.890625 7.859375 57.109375 6.078125 
Q 53.328125 4.296875 48.296875 4.296875 
Q 39.890625 4.296875 34.640625 10.375 
Q 29.390625 16.453125 29.390625 26.21875 
Q 29.390625 35.984375 34.65625 42.078125 
Q 39.9375 48.1875 48.296875 48.1875 
Q 53.328125 48.1875 57.125 46.359375 
Q 60.9375 44.53125 63.8125 40.828125 
L 63.8125 47.21875 
L 70.796875 47.21875 
L 70.796875 11.28125 
Q 77.9375 12.359375 81.953125 17.796875 
Q 85.984375 23.25 85.984375 31.890625 
Q 85.984375 37.109375 84.4375 41.703125 
Q 82.90625 46.296875 79.78125 50.203125 
Q 74.703125 56.59375 67.40625 59.984375 
Q 60.109375 63.375 51.515625 63.375 
Q 45.515625 63.375 39.984375 61.78125 
Q 34.46875 60.203125 29.78125 57.078125 
Q 22.125 52.09375 17.796875 44.015625 
Q 13.484375 35.9375 13.484375 26.515625 
Q 13.484375 18.75 16.28125 11.953125 
Q 19.09375 5.171875 24.421875 0 
Q 29.546875 -5.078125 36.28125 -7.734375 
Q 43.015625 -10.40625 50.6875 -10.40625 
Q 56.984375 -10.40625 63.0625 -8.28125 
Q 69.140625 -6.15625 74.21875 -2.203125 
L 78.609375 -7.625 
Q 72.515625 -12.359375 65.3125 -14.875 
Q 58.109375 -17.390625 50.6875 -17.390625 
Q 41.65625 -17.390625 33.640625 -14.1875 
Q 25.640625 -10.984375 19.390625 -4.890625 
Q 13.140625 1.21875 9.859375 9.25 
Q 6.59375 17.28125 6.59375 26.515625 
Q 6.59375 35.40625 9.90625 43.453125 
Q 13.234375 51.515625 19.390625 57.625 
Q 25.6875 63.8125 33.9375 67.109375 
Q 42.1875 70.40625 51.421875 70.40625 
Q 61.765625 70.40625 70.625 66.15625 
Q 79.5 61.921875 85.5 54.109375 
Q 89.15625 49.3125 91.078125 43.703125 
Q 93.015625 38.09375 93.015625 32.078125 
Q 93.015625 19.234375 85.25 11.8125 
Q 77.484375 4.390625 63.8125 4.109375 
z
" id="DejaVuSans-64"/>
    <path d="M 10.59375 45.40625 
L 73.1875 45.40625 
L 73.1875 37.203125 
L 10.59375 37.203125 
z
M 10.59375 25.484375 
L 73.1875 25.484375 
L 73.1875 17.1875 
L 10.59375 17.1875 
z
" id="DejaVuSans-61"/>
    <path d="M 46 62.703125 
L 46 35.5 
L 73.1875 35.5 
L 73.1875 27.203125 
L 46 27.203125 
L 46 0 
L 37.796875 0 
L 37.796875 27.203125 
L 10.59375 27.203125 
L 10.59375 35.5 
L 37.796875 35.5 
L 37.796875 62.703125 
z
" id="DejaVuSans-43"/>
   </defs>
   <g transform="translate(161.127 28.989)scale(0.192 -0.192)">
    <use xlink:href="#DejaVuSans-65"/>
    <use x="68.408203" xlink:href="#DejaVuSans-109"/>
    <use x="165.820312" xlink:href="#DejaVuSans-112"/>
    <use x="229.296875" xlink:href="#DejaVuSans-108"/>
    <use x="257.080078" xlink:href="#DejaVuSans-105"/>
    <use x="284.863281" xlink:href="#DejaVuSans-116"/>
    <use x="324.072266" xlink:href="#DejaVuSans-117"/>
    <use x="387.451172" xlink:href="#DejaVuSans-100"/>
    <use x="450.927734" xlink:href="#DejaVuSans-101"/>
    <use x="512.451172" xlink:href="#DejaVuSans-115"/>
    <use x="564.550781" xlink:href="#DejaVuSans-32"/>
    <use x="596.337891" xlink:href="#DejaVuSans-102"/>
    <use x="631.542969" xlink:href="#DejaVuSans-111"/>
    <use x="692.724609" xlink:href="#DejaVuSans-114"/>
    <use x="733.837891" xlink:href="#DejaVuSans-32"/>
    <use x="765.625" xlink:href="#DejaVuSans-49"/>
    <use x="829.248047" xlink:href="#DejaVuSans-57"/>
    <use x="892.871094" xlink:href="#DejaVuSans-57"/>
    <use x="956.494141" xlink:href="#DejaVuSans-49"/>
    <use x="1020.117188" xlink:href="#DejaVuSans-98"/>
    <use x="1083.59375" xlink:href="#DejaVuSans-32"/>
    <use x="1115.380859" xlink:href="#DejaVuSans-64"/>
    <use x="1215.380859" xlink:href="#DejaVuSans-32"/>
    <use x="1247.167969" xlink:href="#DejaVuSans-121"/>
    <use x="1306.347656" xlink:href="#DejaVuSans-61"/>
    <use x="1390.136719" xlink:href="#DejaVuSans-43"/>
    <use x="1473.925781" xlink:href="#DejaVuSans-48"/>
    <use x="1537.548828" xlink:href="#DejaVuSans-49"/>
    <use x="1601.171875" xlink:href="#DejaVuSans-46"/>
    <use x="1632.958984" xlink:href="#DejaVuSans-48"/>
   </g>
  </g>
 </g>
 <defs>
  <clipPath id="p3e7f60cb47">
   <rect height="192" width="544.32" x="90.72" y="72"/>
  </clipPath>
  <clipPath id="p6f9c289be4">
   <rect height="192" width="544.32" x="90.72" y="264"/>
  </clipPath>
  <clipPath id="p6cfe93011c">
   <rect height="192" width="544.32" x="90.72" y="456"/>
  </clipPath>
 </defs>
</svg>
