<?xml version="1.0" encoding="utf-8" standalone="no"?>
<!DOCTYPE svg PUBLIC "-//W3C//DTD SVG 1.1//EN"
  "http://www.w3.org/Graphics/SVG/1.1/DTD/svg11.dtd">
<!-- Created with matplotlib (https://matplotlib.org/) -->
<svg height="576pt" version="1.1" viewBox="0 0 576 576" width="576pt" xmlns="http://www.w3.org/2000/svg" xmlns:xlink="http://www.w3.org/1999/xlink">
 <defs>
  <style type="text/css">
*{stroke-linecap:butt;stroke-linejoin:round;}
  </style>
 </defs>
 <g id="figure_1">
  <g id="patch_1">
   <path d="M 0 576 
L 576 576 
L 576 0 
L 0 0 
z
" style="fill:#ffffff;"/>
  </g>
  <g id="axes_1">
   <g id="patch_2">
    <path d="M 86.4 305.28 
L 547.2 305.28 
L 547.2 86.4 
L 86.4 86.4 
z
" style="fill:#ffffff;"/>
   </g>
   <g id="matplotlib.axis_1">
    <g id="xtick_1">
     <g id="line2d_1">
      <path clip-path="url(#p15691a5d9c)" d="M 142.254545 305.28 
L 142.254545 86.4 
" style="fill:none;stroke:#b0b0b0;stroke-linecap:square;stroke-width:0.8;"/>
     </g>
     <g id="line2d_2">
      <defs>
       <path d="M 0 0 
L 0 3.5 
" id="m99e9df7ad2" style="stroke:#000000;stroke-width:0.8;"/>
      </defs>
      <g>
       <use style="stroke:#000000;stroke-width:0.8;" x="142.254545" xlink:href="#m99e9df7ad2" y="305.28"/>
      </g>
     </g>
     <g id="text_1">
      <!-- −10 -->
      <defs>
       <path d="M 10.59375 35.5 
L 73.1875 35.5 
L 73.1875 27.203125 
L 10.59375 27.203125 
z
" id="DejaVuSans-8722"/>
       <path d="M 12.40625 8.296875 
L 28.515625 8.296875 
L 28.515625 63.921875 
L 10.984375 60.40625 
L 10.984375 69.390625 
L 28.421875 72.90625 
L 38.28125 72.90625 
L 38.28125 8.296875 
L 54.390625 8.296875 
L 54.390625 0 
L 12.40625 0 
z
" id="DejaVuSans-49"/>
       <path d="M 31.78125 66.40625 
Q 24.171875 66.40625 20.328125 58.90625 
Q 16.5 51.421875 16.5 36.375 
Q 16.5 21.390625 20.328125 13.890625 
Q 24.171875 6.390625 31.78125 6.390625 
Q 39.453125 6.390625 43.28125 13.890625 
Q 47.125 21.390625 47.125 36.375 
Q 47.125 51.421875 43.28125 58.90625 
Q 39.453125 66.40625 31.78125 66.40625 
z
M 31.78125 74.21875 
Q 44.046875 74.21875 50.515625 64.515625 
Q 56.984375 54.828125 56.984375 36.375 
Q 56.984375 17.96875 50.515625 8.265625 
Q 44.046875 -1.421875 31.78125 -1.421875 
Q 19.53125 -1.421875 13.0625 8.265625 
Q 6.59375 17.96875 6.59375 36.375 
Q 6.59375 54.828125 13.0625 64.515625 
Q 19.53125 74.21875 31.78125 74.21875 
z
" id="DejaVuSans-48"/>
      </defs>
      <g transform="translate(125.370795 324.4375)scale(0.16 -0.16)">
       <use xlink:href="#DejaVuSans-8722"/>
       <use x="83.789062" xlink:href="#DejaVuSans-49"/>
       <use x="147.412109" xlink:href="#DejaVuSans-48"/>
      </g>
     </g>
    </g>
    <g id="xtick_2">
     <g id="line2d_3">
      <path clip-path="url(#p15691a5d9c)" d="M 229.527273 305.28 
L 229.527273 86.4 
" style="fill:none;stroke:#b0b0b0;stroke-linecap:square;stroke-width:0.8;"/>
     </g>
     <g id="line2d_4">
      <g>
       <use style="stroke:#000000;stroke-width:0.8;" x="229.527273" xlink:href="#m99e9df7ad2" y="305.28"/>
      </g>
     </g>
     <g id="text_2">
      <!-- −5 -->
      <defs>
       <path d="M 10.796875 72.90625 
L 49.515625 72.90625 
L 49.515625 64.59375 
L 19.828125 64.59375 
L 19.828125 46.734375 
Q 21.96875 47.46875 24.109375 47.828125 
Q 26.265625 48.1875 28.421875 48.1875 
Q 40.625 48.1875 47.75 41.5 
Q 54.890625 34.8125 54.890625 23.390625 
Q 54.890625 11.625 47.5625 5.09375 
Q 40.234375 -1.421875 26.90625 -1.421875 
Q 22.3125 -1.421875 17.546875 -0.640625 
Q 12.796875 0.140625 7.71875 1.703125 
L 7.71875 11.625 
Q 12.109375 9.234375 16.796875 8.0625 
Q 21.484375 6.890625 26.703125 6.890625 
Q 35.15625 6.890625 40.078125 11.328125 
Q 45.015625 15.765625 45.015625 23.390625 
Q 45.015625 31 40.078125 35.4375 
Q 35.15625 39.890625 26.703125 39.890625 
Q 22.75 39.890625 18.8125 39.015625 
Q 14.890625 38.140625 10.796875 36.28125 
z
" id="DejaVuSans-53"/>
      </defs>
      <g transform="translate(217.733523 324.4375)scale(0.16 -0.16)">
       <use xlink:href="#DejaVuSans-8722"/>
       <use x="83.789062" xlink:href="#DejaVuSans-53"/>
      </g>
     </g>
    </g>
    <g id="xtick_3">
     <g id="line2d_5">
      <path clip-path="url(#p15691a5d9c)" d="M 316.8 305.28 
L 316.8 86.4 
" style="fill:none;stroke:#b0b0b0;stroke-linecap:square;stroke-width:0.8;"/>
     </g>
     <g id="line2d_6">
      <g>
       <use style="stroke:#000000;stroke-width:0.8;" x="316.8" xlink:href="#m99e9df7ad2" y="305.28"/>
      </g>
     </g>
     <g id="text_3">
      <!-- 0 -->
      <g transform="translate(311.71 324.4375)scale(0.16 -0.16)">
       <use xlink:href="#DejaVuSans-48"/>
      </g>
     </g>
    </g>
    <g id="xtick_4">
     <g id="line2d_7">
      <path clip-path="url(#p15691a5d9c)" d="M 404.072727 305.28 
L 404.072727 86.4 
" style="fill:none;stroke:#b0b0b0;stroke-linecap:square;stroke-width:0.8;"/>
     </g>
     <g id="line2d_8">
      <g>
       <use style="stroke:#000000;stroke-width:0.8;" x="404.072727" xlink:href="#m99e9df7ad2" y="305.28"/>
      </g>
     </g>
     <g id="text_4">
      <!-- 5 -->
      <g transform="translate(398.982727 324.4375)scale(0.16 -0.16)">
       <use xlink:href="#DejaVuSans-53"/>
      </g>
     </g>
    </g>
    <g id="xtick_5">
     <g id="line2d_9">
      <path clip-path="url(#p15691a5d9c)" d="M 491.345455 305.28 
L 491.345455 86.4 
" style="fill:none;stroke:#b0b0b0;stroke-linecap:square;stroke-width:0.8;"/>
     </g>
     <g id="line2d_10">
      <g>
       <use style="stroke:#000000;stroke-width:0.8;" x="491.345455" xlink:href="#m99e9df7ad2" y="305.28"/>
      </g>
     </g>
     <g id="text_5">
      <!-- 10 -->
      <g transform="translate(481.165455 324.4375)scale(0.16 -0.16)">
       <use xlink:href="#DejaVuSans-49"/>
       <use x="63.623047" xlink:href="#DejaVuSans-48"/>
      </g>
     </g>
    </g>
   </g>
   <g id="matplotlib.axis_2">
    <g id="ytick_1">
     <g id="line2d_11">
      <path clip-path="url(#p15691a5d9c)" d="M 86.4 266.453883 
L 547.2 266.453883 
" style="fill:none;stroke:#b0b0b0;stroke-linecap:square;stroke-width:0.8;"/>
     </g>
     <g id="line2d_12">
      <defs>
       <path d="M 0 0 
L -3.5 0 
" id="m645ca85d8a" style="stroke:#000000;stroke-width:0.8;"/>
      </defs>
      <g>
       <use style="stroke:#000000;stroke-width:0.8;" x="86.4" xlink:href="#m645ca85d8a" y="266.453883"/>
      </g>
     </g>
     <g id="text_6">
      <!-- −20 -->
      <defs>
       <path d="M 19.1875 8.296875 
L 53.609375 8.296875 
L 53.609375 0 
L 7.328125 0 
L 7.328125 8.296875 
Q 12.9375 14.109375 22.625 23.890625 
Q 32.328125 33.6875 34.8125 36.53125 
Q 39.546875 41.84375 41.421875 45.53125 
Q 43.3125 49.21875 43.3125 52.78125 
Q 43.3125 58.59375 39.234375 62.25 
Q 35.15625 65.921875 28.609375 65.921875 
Q 23.96875 65.921875 18.8125 64.3125 
Q 13.671875 62.703125 7.8125 59.421875 
L 7.8125 69.390625 
Q 13.765625 71.78125 18.9375 73 
Q 24.125 74.21875 28.421875 74.21875 
Q 39.75 74.21875 46.484375 68.546875 
Q 53.21875 62.890625 53.21875 53.421875 
Q 53.21875 48.921875 51.53125 44.890625 
Q 49.859375 40.875 45.40625 35.40625 
Q 44.1875 33.984375 37.640625 27.21875 
Q 31.109375 20.453125 19.1875 8.296875 
z
" id="DejaVuSans-50"/>
      </defs>
      <g transform="translate(45.6325 272.532633)scale(0.16 -0.16)">
       <use xlink:href="#DejaVuSans-8722"/>
       <use x="83.789062" xlink:href="#DejaVuSans-50"/>
       <use x="147.412109" xlink:href="#DejaVuSans-48"/>
      </g>
     </g>
    </g>
    <g id="ytick_2">
     <g id="line2d_13">
      <path clip-path="url(#p15691a5d9c)" d="M 86.4 212.567343 
L 547.2 212.567343 
" style="fill:none;stroke:#b0b0b0;stroke-linecap:square;stroke-width:0.8;"/>
     </g>
     <g id="line2d_14">
      <g>
       <use style="stroke:#000000;stroke-width:0.8;" x="86.4" xlink:href="#m645ca85d8a" y="212.567343"/>
      </g>
     </g>
     <g id="text_7">
      <!-- −10 -->
      <g transform="translate(45.6325 218.646093)scale(0.16 -0.16)">
       <use xlink:href="#DejaVuSans-8722"/>
       <use x="83.789062" xlink:href="#DejaVuSans-49"/>
       <use x="147.412109" xlink:href="#DejaVuSans-48"/>
      </g>
     </g>
    </g>
    <g id="ytick_3">
     <g id="line2d_15">
      <path clip-path="url(#p15691a5d9c)" d="M 86.4 158.680803 
L 547.2 158.680803 
" style="fill:none;stroke:#b0b0b0;stroke-linecap:square;stroke-width:0.8;"/>
     </g>
     <g id="line2d_16">
      <g>
       <use style="stroke:#000000;stroke-width:0.8;" x="86.4" xlink:href="#m645ca85d8a" y="158.680803"/>
      </g>
     </g>
     <g id="text_8">
      <!-- 0 -->
      <g transform="translate(69.22 164.759553)scale(0.16 -0.16)">
       <use xlink:href="#DejaVuSans-48"/>
      </g>
     </g>
    </g>
    <g id="ytick_4">
     <g id="line2d_17">
      <path clip-path="url(#p15691a5d9c)" d="M 86.4 104.794263 
L 547.2 104.794263 
" style="fill:none;stroke:#b0b0b0;stroke-linecap:square;stroke-width:0.8;"/>
     </g>
     <g id="line2d_18">
      <g>
       <use style="stroke:#000000;stroke-width:0.8;" x="86.4" xlink:href="#m645ca85d8a" y="104.794263"/>
      </g>
     </g>
     <g id="text_9">
      <!-- 10 -->
      <g transform="translate(59.04 110.873013)scale(0.16 -0.16)">
       <use xlink:href="#DejaVuSans-49"/>
       <use x="63.623047" xlink:href="#DejaVuSans-48"/>
      </g>
     </g>
    </g>
    <g id="text_10">
     <!-- Iy [G.cm] -->
     <defs>
      <path d="M 9.8125 72.90625 
L 19.671875 72.90625 
L 19.671875 0 
L 9.8125 0 
z
" id="DejaVuSans-73"/>
      <path d="M 32.171875 -5.078125 
Q 28.375 -14.84375 24.75 -17.8125 
Q 21.140625 -20.796875 15.09375 -20.796875 
L 7.90625 -20.796875 
L 7.90625 -13.28125 
L 13.1875 -13.28125 
Q 16.890625 -13.28125 18.9375 -11.515625 
Q 21 -9.765625 23.484375 -3.21875 
L 25.09375 0.875 
L 2.984375 54.6875 
L 12.5 54.6875 
L 29.59375 11.921875 
L 46.6875 54.6875 
L 56.203125 54.6875 
z
" id="DejaVuSans-121"/>
      <path id="DejaVuSans-32"/>
      <path d="M 8.59375 75.984375 
L 29.296875 75.984375 
L 29.296875 69 
L 17.578125 69 
L 17.578125 -6.203125 
L 29.296875 -6.203125 
L 29.296875 -13.1875 
L 8.59375 -13.1875 
z
" id="DejaVuSans-91"/>
      <path d="M 59.515625 10.40625 
L 59.515625 29.984375 
L 43.40625 29.984375 
L 43.40625 38.09375 
L 69.28125 38.09375 
L 69.28125 6.78125 
Q 63.578125 2.734375 56.6875 0.65625 
Q 49.8125 -1.421875 42 -1.421875 
Q 24.90625 -1.421875 15.25 8.5625 
Q 5.609375 18.5625 5.609375 36.375 
Q 5.609375 54.25 15.25 64.234375 
Q 24.90625 74.21875 42 74.21875 
Q 49.125 74.21875 55.546875 72.453125 
Q 61.96875 70.703125 67.390625 67.28125 
L 67.390625 56.78125 
Q 61.921875 61.421875 55.765625 63.765625 
Q 49.609375 66.109375 42.828125 66.109375 
Q 29.4375 66.109375 22.71875 58.640625 
Q 16.015625 51.171875 16.015625 36.375 
Q 16.015625 21.625 22.71875 14.15625 
Q 29.4375 6.6875 42.828125 6.6875 
Q 48.046875 6.6875 52.140625 7.59375 
Q 56.25 8.5 59.515625 10.40625 
z
" id="DejaVuSans-71"/>
      <path d="M 10.6875 12.40625 
L 21 12.40625 
L 21 0 
L 10.6875 0 
z
" id="DejaVuSans-46"/>
      <path d="M 48.78125 52.59375 
L 48.78125 44.1875 
Q 44.96875 46.296875 41.140625 47.34375 
Q 37.3125 48.390625 33.40625 48.390625 
Q 24.65625 48.390625 19.8125 42.84375 
Q 14.984375 37.3125 14.984375 27.296875 
Q 14.984375 17.28125 19.8125 11.734375 
Q 24.65625 6.203125 33.40625 6.203125 
Q 37.3125 6.203125 41.140625 7.25 
Q 44.96875 8.296875 48.78125 10.40625 
L 48.78125 2.09375 
Q 45.015625 0.34375 40.984375 -0.53125 
Q 36.96875 -1.421875 32.421875 -1.421875 
Q 20.0625 -1.421875 12.78125 6.34375 
Q 5.515625 14.109375 5.515625 27.296875 
Q 5.515625 40.671875 12.859375 48.328125 
Q 20.21875 56 33.015625 56 
Q 37.15625 56 41.109375 55.140625 
Q 45.0625 54.296875 48.78125 52.59375 
z
" id="DejaVuSans-99"/>
      <path d="M 52 44.1875 
Q 55.375 50.25 60.0625 53.125 
Q 64.75 56 71.09375 56 
Q 79.640625 56 84.28125 50.015625 
Q 88.921875 44.046875 88.921875 33.015625 
L 88.921875 0 
L 79.890625 0 
L 79.890625 32.71875 
Q 79.890625 40.578125 77.09375 44.375 
Q 74.3125 48.1875 68.609375 48.1875 
Q 61.625 48.1875 57.5625 43.546875 
Q 53.515625 38.921875 53.515625 30.90625 
L 53.515625 0 
L 44.484375 0 
L 44.484375 32.71875 
Q 44.484375 40.625 41.703125 44.40625 
Q 38.921875 48.1875 33.109375 48.1875 
Q 26.21875 48.1875 22.15625 43.53125 
Q 18.109375 38.875 18.109375 30.90625 
L 18.109375 0 
L 9.078125 0 
L 9.078125 54.6875 
L 18.109375 54.6875 
L 18.109375 46.1875 
Q 21.1875 51.21875 25.484375 53.609375 
Q 29.78125 56 35.6875 56 
Q 41.65625 56 45.828125 52.96875 
Q 50 49.953125 52 44.1875 
z
" id="DejaVuSans-109"/>
      <path d="M 30.421875 75.984375 
L 30.421875 -13.1875 
L 9.71875 -13.1875 
L 9.71875 -6.203125 
L 21.390625 -6.203125 
L 21.390625 69 
L 9.71875 69 
L 9.71875 75.984375 
z
" id="DejaVuSans-93"/>
     </defs>
     <g transform="translate(38.305 232.6525)rotate(-90)scale(0.16 -0.16)">
      <use xlink:href="#DejaVuSans-73"/>
      <use x="29.492188" xlink:href="#DejaVuSans-121"/>
      <use x="88.671875" xlink:href="#DejaVuSans-32"/>
      <use x="120.458984" xlink:href="#DejaVuSans-91"/>
      <use x="159.472656" xlink:href="#DejaVuSans-71"/>
      <use x="236.962891" xlink:href="#DejaVuSans-46"/>
      <use x="268.75" xlink:href="#DejaVuSans-99"/>
      <use x="323.730469" xlink:href="#DejaVuSans-109"/>
      <use x="421.142578" xlink:href="#DejaVuSans-93"/>
     </g>
    </g>
   </g>
   <g id="line2d_19">
    <path clip-path="url(#p15691a5d9c)" d="M 107.345455 250.600282 
L 124.8 290.953814 
L 142.254545 271.859397 
L 159.709091 230.850933 
L 177.163636 196.245336 
L 194.618182 180.140944 
L 212.072727 172.881111 
L 229.527273 178.757052 
L 246.981818 186.140561 
L 264.436364 197.35123 
L 281.890909 201.456715 
L 299.345455 198.548626 
L 316.8 189.530412 
L 334.254545 177.564026 
L 351.709091 177.024597 
L 369.163636 184.072716 
L 386.618182 200.686149 
L 404.072727 215.46864 
L 421.527273 212.189513 
L 438.981818 191.245574 
L 456.436364 150.878857 
L 473.890909 113.387631 
L 491.345455 97.89604 
L 508.8 132.250834 
L 526.254545 229.191257 
" style="fill:none;stroke:#0000ff;stroke-linecap:square;stroke-width:2;"/>
   </g>
   <g id="line2d_20">
    <path clip-path="url(#p15691a5d9c)" d="M 107.345455 246.939856 
L 124.8 286.534974 
L 142.254545 267.707514 
L 159.709091 227.057528 
L 177.163636 191.211147 
L 194.618182 174.055237 
L 212.072727 167.569023 
L 229.527273 174.029382 
L 246.981818 181.887438 
L 264.436364 190.282562 
L 281.890909 197.163827 
L 299.345455 192.917354 
L 316.8 184.306511 
L 334.254545 173.827912 
L 351.709091 173.653141 
L 369.163636 180.882812 
L 386.618182 196.597391 
L 404.072727 211.170786 
L 421.527273 206.974456 
L 438.981818 187.054381 
L 456.436364 151.03212 
L 473.890909 111.775152 
L 491.345455 96.349091 
L 508.8 122.626667 
L 526.254545 210.403465 
" style="fill:none;stroke:#2e00d1;stroke-linecap:square;stroke-width:2;"/>
   </g>
   <g id="line2d_21">
    <path clip-path="url(#p15691a5d9c)" d="M 107.345455 255.125179 
L 124.8 295.330909 
L 142.254545 277.095686 
L 159.709091 238.838626 
L 177.163636 204.036168 
L 194.618182 187.472496 
L 212.072727 179.185728 
L 229.527273 185.536381 
L 246.981818 193.876829 
L 264.436364 204.176598 
L 281.890909 210.78945 
L 299.345455 207.336664 
L 316.8 198.158291 
L 334.254545 183.822058 
L 351.709091 182.444941 
L 369.163636 189.906735 
L 386.618182 206.408919 
L 404.072727 220.506372 
L 421.527273 218.690791 
L 438.981818 196.561168 
L 456.436364 157.395413 
L 473.890909 118.12025 
L 491.345455 101.516242 
L 508.8 130.675137 
L 526.254545 220.069775 
" style="fill:none;stroke:#5c00a3;stroke-linecap:square;stroke-width:2;"/>
   </g>
   <g id="line2d_22">
    <path clip-path="url(#p15691a5d9c)" d="M 107.345455 252.476256 
L 124.8 291.819062 
L 142.254545 271.988388 
L 159.709091 228.91289 
L 177.163636 193.66254 
L 194.618182 176.791383 
L 212.072727 170.51669 
L 229.527273 176.895596 
L 246.981818 185.581711 
L 264.436364 197.228219 
L 281.890909 204.662857 
L 299.345455 200.438682 
L 316.8 191.160367 
L 334.254545 178.66529 
L 351.709091 175.906377 
L 369.163636 184.507369 
L 386.618182 198.565655 
L 404.072727 213.558146 
L 421.527273 211.856272 
L 438.981818 191.976781 
L 456.436364 153.455767 
L 473.890909 117.077763 
L 491.345455 103.584561 
L 508.8 131.032056 
L 526.254545 215.565619 
" style="fill:none;stroke:#8a0075;stroke-linecap:square;stroke-width:2;"/>
   </g>
   <g id="line2d_23">
    <path clip-path="url(#p15691a5d9c)" d="M 107.345455 255.577682 
L 124.8 294.65924 
L 142.254545 273.889861 
L 159.709091 231.236912 
L 177.163636 194.602284 
L 194.618182 178.18415 
L 212.072727 172.515065 
L 229.527273 178.022369 
L 246.981818 186.715867 
L 264.436364 198.571187 
L 281.890909 206.648035 
L 299.345455 203.035568 
L 316.8 195.254062 
L 334.254545 182.394054 
L 351.709091 182.426004 
L 369.163636 192.365069 
L 386.618182 208.298578 
L 404.072727 220.81408 
L 421.527273 217.019801 
L 438.981818 196.586164 
L 456.436364 158.707439 
L 473.890909 121.329716 
L 491.345455 107.129757 
L 508.8 138.405758 
L 526.254545 234.043797 
" style="fill:none;stroke:#ba0045;stroke-linecap:square;stroke-width:2;"/>
   </g>
   <g id="line2d_24">
    <path clip-path="url(#p15691a5d9c)" d="M 107.345455 255.353544 
L 124.8 294.341878 
L 142.254545 272.209643 
L 159.709091 232.741398 
L 177.163636 198.821457 
L 194.618182 182.151411 
L 212.072727 177.866304 
L 229.527273 183.066753 
L 246.981818 193.400596 
L 264.436364 204.210465 
L 281.890909 212.181891 
L 299.345455 207.67658 
L 316.8 199.002231 
L 334.254545 189.949523 
L 351.709091 188.551468 
L 369.163636 199.312931 
L 386.618182 214.2193 
L 404.072727 228.283585 
L 421.527273 226.69123 
L 438.981818 207.189876 
L 456.436364 170.414356 
L 473.890909 132.314713 
L 491.345455 115.88512 
L 508.8 145.224468 
L 526.254545 230.941697 
" style="fill:none;stroke:#e80017;stroke-linecap:square;stroke-width:2;"/>
   </g>
   <g id="line2d_25">
    <path clip-path="url(#p15691a5d9c)" d="M 107.345455 252.470717 
L 124.8 291.205483 
L 142.254545 268.581541 
L 159.709091 226.253176 
L 177.163636 189.967554 
L 194.618182 173.214785 
L 212.072727 167.113408 
L 229.527273 175.020729 
L 246.981818 185.638127 
L 264.436364 198.867982 
L 281.890909 206.836068 
L 299.345455 202.602085 
L 316.8 197.360977 
L 334.254545 185.68015 
L 351.709091 184.535116 
L 369.163636 192.430426 
L 386.618182 207.95608 
L 404.072727 222.560296 
L 421.527273 219.554546 
L 438.981818 199.811759 
L 456.436364 161.854751 
L 473.890909 126.669473 
L 491.345455 111.500056 
L 508.8 137.381177 
L 526.254545 223.778821 
" style="fill:none;stroke:#e81700;stroke-linecap:square;stroke-width:2;"/>
   </g>
   <g id="line2d_26">
    <path clip-path="url(#p15691a5d9c)" d="M 107.345455 251.44785 
L 124.8 289.207949 
L 142.254545 267.928826 
L 159.709091 228.349202 
L 177.163636 191.241421 
L 194.618182 174.356283 
L 212.072727 169.392202 
L 229.527273 177.576158 
L 246.981818 187.676662 
L 264.436364 199.113871 
L 281.890909 207.016763 
L 299.345455 202.851862 
L 316.8 194.694931 
L 334.254545 184.017103 
L 351.709091 184.009371 
L 369.163636 193.731756 
L 386.618182 209.643929 
L 404.072727 225.5869 
L 421.527273 225.189536 
L 438.981818 205.283855 
L 456.436364 168.946332 
L 473.890909 135.581979 
L 491.345455 121.891675 
L 508.8 148.4157 
L 526.254545 235.065658 
" style="fill:none;stroke:#ba4500;stroke-linecap:square;stroke-width:2;"/>
   </g>
   <g id="line2d_27">
    <path clip-path="url(#p15691a5d9c)" d="M 107.345455 243.730742 
L 124.8 279.691215 
L 142.254545 254.036449 
L 159.709091 214.787436 
L 177.163636 175.562518 
L 194.618182 160.625606 
L 212.072727 152.775318 
L 229.527273 159.635732 
L 246.981818 171.330457 
L 264.436364 182.28039 
L 281.890909 192.778573 
L 299.345455 189.035888 
L 316.8 182.863819 
L 334.254545 173.682522 
L 351.709091 174.335071 
L 369.163636 186.481834 
L 386.618182 200.728644 
L 404.072727 218.076617 
L 421.527273 218.193035 
L 438.981818 199.997517 
L 456.436364 166.041595 
L 473.890909 129.693324 
L 491.345455 117.68267 
L 508.8 147.217086 
L 526.254545 238.983423 
" style="fill:none;stroke:#8a7500;stroke-linecap:square;stroke-width:2;"/>
   </g>
   <g id="line2d_28">
    <path clip-path="url(#p15691a5d9c)" d="M 107.345455 241.023509 
L 124.8 273.83247 
L 142.254545 250.672714 
L 159.709091 208.443389 
L 177.163636 172.153028 
L 194.618182 153.527644 
L 212.072727 146.402105 
L 229.527273 152.43067 
L 246.981818 163.354569 
L 264.436364 175.486983 
L 281.890909 186.76478 
L 299.345455 185.75507 
L 316.8 178.134692 
L 334.254545 169.739189 
L 351.709091 169.743036 
L 369.163636 182.101727 
L 386.618182 196.291878 
L 404.072727 209.725402 
L 421.527273 209.364035 
L 438.981818 190.733532 
L 456.436364 158.393662 
L 473.890909 127.226245 
L 491.345455 115.690089 
L 508.8 146.10171 
L 526.254545 236.382731 
" style="fill:none;stroke:#5ca300;stroke-linecap:square;stroke-width:2;"/>
   </g>
   <g id="line2d_29">
    <path clip-path="url(#p15691a5d9c)" d="M 107.345455 246.397716 
L 124.8 277.522304 
L 142.254545 250.321988 
L 159.709091 207.3239 
L 177.163636 169.703199 
L 194.618182 152.384441 
L 212.072727 145.259255 
L 229.527273 151.123363 
L 246.981818 162.255153 
L 264.436364 174.558834 
L 281.890909 183.767701 
L 299.345455 182.227289 
L 316.8 177.94009 
L 334.254545 167.32916 
L 351.709091 167.974289 
L 369.163636 179.02706 
L 386.618182 193.925637 
L 404.072727 210.521426 
L 421.527273 209.159342 
L 438.981818 190.101908 
L 456.436364 155.540499 
L 473.890909 123.201448 
L 491.345455 112.849836 
L 508.8 141.473315 
L 526.254545 230.588809 
" style="fill:none;stroke:#2ed100;stroke-linecap:square;stroke-width:2;"/>
   </g>
   <g id="line2d_30">
    <path clip-path="url(#p15691a5d9c)" d="M 107.345455 241.565111 
L 124.8 275.415972 
L 142.254545 249.086311 
L 159.709091 206.427825 
L 177.163636 167.748888 
L 194.618182 150.403479 
L 212.072727 141.206772 
L 229.527273 146.079779 
L 246.981818 158.021167 
L 264.436364 170.078442 
L 281.890909 179.645207 
L 299.345455 174.879603 
L 316.8 168.801671 
L 334.254545 158.627998 
L 351.709091 158.849705 
L 369.163636 171.420148 
L 386.618182 185.858674 
L 404.072727 204.826704 
L 421.527273 202.034028 
L 438.981818 182.766819 
L 456.436364 150.132076 
L 473.890909 117.070512 
L 491.345455 105.97807 
L 508.8 136.345067 
L 526.254545 229.499194 
" style="fill:none;stroke:#00ff00;stroke-linecap:square;stroke-width:2;"/>
   </g>
   <g id="patch_3">
    <path d="M 86.4 305.28 
L 86.4 86.4 
" style="fill:none;stroke:#000000;stroke-linecap:square;stroke-linejoin:miter;stroke-width:0.8;"/>
   </g>
   <g id="patch_4">
    <path d="M 547.2 305.28 
L 547.2 86.4 
" style="fill:none;stroke:#000000;stroke-linecap:square;stroke-linejoin:miter;stroke-width:0.8;"/>
   </g>
   <g id="patch_5">
    <path d="M 86.4 305.28 
L 547.2 305.28 
" style="fill:none;stroke:#000000;stroke-linecap:square;stroke-linejoin:miter;stroke-width:0.8;"/>
   </g>
   <g id="patch_6">
    <path d="M 86.4 86.4 
L 547.2 86.4 
" style="fill:none;stroke:#000000;stroke-linecap:square;stroke-linejoin:miter;stroke-width:0.8;"/>
   </g>
   <g id="legend_1">
    <g id="patch_7">
     <path d="M 143.664525 81.768 
L 489.935475 81.768 
Q 491.788275 81.768 491.788275 79.9152 
L 491.788275 38.26738 
Q 491.788275 36.41458 489.935475 36.41458 
L 143.664525 36.41458 
Q 141.811725 36.41458 141.811725 38.26738 
L 141.811725 79.9152 
Q 141.811725 81.768 143.664525 81.768 
z
" style="fill:#ffffff;opacity:0.8;stroke:#cccccc;stroke-linejoin:miter;"/>
    </g>
    <g id="text_11">
     <!-- Phase [mm] -->
     <defs>
      <path d="M 19.671875 64.796875 
L 19.671875 37.40625 
L 32.078125 37.40625 
Q 38.96875 37.40625 42.71875 40.96875 
Q 46.484375 44.53125 46.484375 51.125 
Q 46.484375 57.671875 42.71875 61.234375 
Q 38.96875 64.796875 32.078125 64.796875 
z
M 9.8125 72.90625 
L 32.078125 72.90625 
Q 44.34375 72.90625 50.609375 67.359375 
Q 56.890625 61.8125 56.890625 51.125 
Q 56.890625 40.328125 50.609375 34.8125 
Q 44.34375 29.296875 32.078125 29.296875 
L 19.671875 29.296875 
L 19.671875 0 
L 9.8125 0 
z
" id="DejaVuSans-80"/>
      <path d="M 54.890625 33.015625 
L 54.890625 0 
L 45.90625 0 
L 45.90625 32.71875 
Q 45.90625 40.484375 42.875 44.328125 
Q 39.84375 48.1875 33.796875 48.1875 
Q 26.515625 48.1875 22.3125 43.546875 
Q 18.109375 38.921875 18.109375 30.90625 
L 18.109375 0 
L 9.078125 0 
L 9.078125 75.984375 
L 18.109375 75.984375 
L 18.109375 46.1875 
Q 21.34375 51.125 25.703125 53.5625 
Q 30.078125 56 35.796875 56 
Q 45.21875 56 50.046875 50.171875 
Q 54.890625 44.34375 54.890625 33.015625 
z
" id="DejaVuSans-104"/>
      <path d="M 34.28125 27.484375 
Q 23.390625 27.484375 19.1875 25 
Q 14.984375 22.515625 14.984375 16.5 
Q 14.984375 11.71875 18.140625 8.90625 
Q 21.296875 6.109375 26.703125 6.109375 
Q 34.1875 6.109375 38.703125 11.40625 
Q 43.21875 16.703125 43.21875 25.484375 
L 43.21875 27.484375 
z
M 52.203125 31.203125 
L 52.203125 0 
L 43.21875 0 
L 43.21875 8.296875 
Q 40.140625 3.328125 35.546875 0.953125 
Q 30.953125 -1.421875 24.3125 -1.421875 
Q 15.921875 -1.421875 10.953125 3.296875 
Q 6 8.015625 6 15.921875 
Q 6 25.140625 12.171875 29.828125 
Q 18.359375 34.515625 30.609375 34.515625 
L 43.21875 34.515625 
L 43.21875 35.40625 
Q 43.21875 41.609375 39.140625 45 
Q 35.0625 48.390625 27.6875 48.390625 
Q 23 48.390625 18.546875 47.265625 
Q 14.109375 46.140625 10.015625 43.890625 
L 10.015625 52.203125 
Q 14.9375 54.109375 19.578125 55.046875 
Q 24.21875 56 28.609375 56 
Q 40.484375 56 46.34375 49.84375 
Q 52.203125 43.703125 52.203125 31.203125 
z
" id="DejaVuSans-97"/>
      <path d="M 44.28125 53.078125 
L 44.28125 44.578125 
Q 40.484375 46.53125 36.375 47.5 
Q 32.28125 48.484375 27.875 48.484375 
Q 21.1875 48.484375 17.84375 46.4375 
Q 14.5 44.390625 14.5 40.28125 
Q 14.5 37.15625 16.890625 35.375 
Q 19.28125 33.59375 26.515625 31.984375 
L 29.59375 31.296875 
Q 39.15625 29.25 43.1875 25.515625 
Q 47.21875 21.78125 47.21875 15.09375 
Q 47.21875 7.46875 41.1875 3.015625 
Q 35.15625 -1.421875 24.609375 -1.421875 
Q 20.21875 -1.421875 15.453125 -0.5625 
Q 10.6875 0.296875 5.421875 2 
L 5.421875 11.28125 
Q 10.40625 8.6875 15.234375 7.390625 
Q 20.0625 6.109375 24.8125 6.109375 
Q 31.15625 6.109375 34.5625 8.28125 
Q 37.984375 10.453125 37.984375 14.40625 
Q 37.984375 18.0625 35.515625 20.015625 
Q 33.0625 21.96875 24.703125 23.78125 
L 21.578125 24.515625 
Q 13.234375 26.265625 9.515625 29.90625 
Q 5.8125 33.546875 5.8125 39.890625 
Q 5.8125 47.609375 11.28125 51.796875 
Q 16.75 56 26.8125 56 
Q 31.78125 56 36.171875 55.265625 
Q 40.578125 54.546875 44.28125 53.078125 
z
" id="DejaVuSans-115"/>
      <path d="M 56.203125 29.59375 
L 56.203125 25.203125 
L 14.890625 25.203125 
Q 15.484375 15.921875 20.484375 11.0625 
Q 25.484375 6.203125 34.421875 6.203125 
Q 39.59375 6.203125 44.453125 7.46875 
Q 49.3125 8.734375 54.109375 11.28125 
L 54.109375 2.78125 
Q 49.265625 0.734375 44.1875 -0.34375 
Q 39.109375 -1.421875 33.890625 -1.421875 
Q 20.796875 -1.421875 13.15625 6.1875 
Q 5.515625 13.8125 5.515625 26.8125 
Q 5.515625 40.234375 12.765625 48.109375 
Q 20.015625 56 32.328125 56 
Q 43.359375 56 49.78125 48.890625 
Q 56.203125 41.796875 56.203125 29.59375 
z
M 47.21875 32.234375 
Q 47.125 39.59375 43.09375 43.984375 
Q 39.0625 48.390625 32.421875 48.390625 
Q 24.90625 48.390625 20.390625 44.140625 
Q 15.875 39.890625 15.1875 32.171875 
z
" id="DejaVuSans-101"/>
     </defs>
     <g transform="translate(283.310162 48.557485)scale(0.11104 -0.11104)">
      <use xlink:href="#DejaVuSans-80"/>
      <use x="60.302734" xlink:href="#DejaVuSans-104"/>
      <use x="123.681641" xlink:href="#DejaVuSans-97"/>
      <use x="184.960938" xlink:href="#DejaVuSans-115"/>
      <use x="237.060547" xlink:href="#DejaVuSans-101"/>
      <use x="298.583984" xlink:href="#DejaVuSans-32"/>
      <use x="330.371094" xlink:href="#DejaVuSans-91"/>
      <use x="369.384766" xlink:href="#DejaVuSans-109"/>
      <use x="466.796875" xlink:href="#DejaVuSans-109"/>
      <use x="564.208984" xlink:href="#DejaVuSans-93"/>
     </g>
    </g>
    <g id="line2d_31">
     <path d="M 145.517325 59.295563 
L 164.045325 59.295563 
" style="fill:none;stroke:#0000ff;stroke-linecap:square;stroke-width:2;"/>
    </g>
    <g id="line2d_32"/>
    <g id="text_12">
     <!-- 0.0 -->
     <g transform="translate(171.456525 62.537963)scale(0.09264 -0.09264)">
      <use xlink:href="#DejaVuSans-48"/>
      <use x="63.623047" xlink:href="#DejaVuSans-46"/>
      <use x="95.410156" xlink:href="#DejaVuSans-48"/>
     </g>
    </g>
    <g id="line2d_33">
     <path d="M 145.517325 72.893378 
L 164.045325 72.893378 
" style="fill:none;stroke:#2e00d1;stroke-linecap:square;stroke-width:2;"/>
    </g>
    <g id="line2d_34"/>
    <g id="text_13">
     <!-- 1.0 -->
     <g transform="translate(171.456525 76.135778)scale(0.09264 -0.09264)">
      <use xlink:href="#DejaVuSans-49"/>
      <use x="63.623047" xlink:href="#DejaVuSans-46"/>
      <use x="95.410156" xlink:href="#DejaVuSans-48"/>
     </g>
    </g>
    <g id="line2d_35">
     <path d="M 204.71718 59.295563 
L 223.24518 59.295563 
" style="fill:none;stroke:#5c00a3;stroke-linecap:square;stroke-width:2;"/>
    </g>
    <g id="line2d_36"/>
    <g id="text_14">
     <!-- 2.0 -->
     <g transform="translate(230.65638 62.537963)scale(0.09264 -0.09264)">
      <use xlink:href="#DejaVuSans-50"/>
      <use x="63.623047" xlink:href="#DejaVuSans-46"/>
      <use x="95.410156" xlink:href="#DejaVuSans-48"/>
     </g>
    </g>
    <g id="line2d_37">
     <path d="M 204.71718 72.893378 
L 223.24518 72.893378 
" style="fill:none;stroke:#8a0075;stroke-linecap:square;stroke-width:2;"/>
    </g>
    <g id="line2d_38"/>
    <g id="text_15">
     <!-- 3.0 -->
     <defs>
      <path d="M 40.578125 39.3125 
Q 47.65625 37.796875 51.625 33 
Q 55.609375 28.21875 55.609375 21.1875 
Q 55.609375 10.40625 48.1875 4.484375 
Q 40.765625 -1.421875 27.09375 -1.421875 
Q 22.515625 -1.421875 17.65625 -0.515625 
Q 12.796875 0.390625 7.625 2.203125 
L 7.625 11.71875 
Q 11.71875 9.328125 16.59375 8.109375 
Q 21.484375 6.890625 26.8125 6.890625 
Q 36.078125 6.890625 40.9375 10.546875 
Q 45.796875 14.203125 45.796875 21.1875 
Q 45.796875 27.640625 41.28125 31.265625 
Q 36.765625 34.90625 28.71875 34.90625 
L 20.21875 34.90625 
L 20.21875 43.015625 
L 29.109375 43.015625 
Q 36.375 43.015625 40.234375 45.921875 
Q 44.09375 48.828125 44.09375 54.296875 
Q 44.09375 59.90625 40.109375 62.90625 
Q 36.140625 65.921875 28.71875 65.921875 
Q 24.65625 65.921875 20.015625 65.03125 
Q 15.375 64.15625 9.8125 62.3125 
L 9.8125 71.09375 
Q 15.4375 72.65625 20.34375 73.4375 
Q 25.25 74.21875 29.59375 74.21875 
Q 40.828125 74.21875 47.359375 69.109375 
Q 53.90625 64.015625 53.90625 55.328125 
Q 53.90625 49.265625 50.4375 45.09375 
Q 46.96875 40.921875 40.578125 39.3125 
z
" id="DejaVuSans-51"/>
     </defs>
     <g transform="translate(230.65638 76.135778)scale(0.09264 -0.09264)">
      <use xlink:href="#DejaVuSans-51"/>
      <use x="63.623047" xlink:href="#DejaVuSans-46"/>
      <use x="95.410156" xlink:href="#DejaVuSans-48"/>
     </g>
    </g>
    <g id="line2d_39">
     <path d="M 263.917035 59.295563 
L 282.445035 59.295563 
" style="fill:none;stroke:#ba0045;stroke-linecap:square;stroke-width:2;"/>
    </g>
    <g id="line2d_40"/>
    <g id="text_16">
     <!-- 4.0 -->
     <defs>
      <path d="M 37.796875 64.3125 
L 12.890625 25.390625 
L 37.796875 25.390625 
z
M 35.203125 72.90625 
L 47.609375 72.90625 
L 47.609375 25.390625 
L 58.015625 25.390625 
L 58.015625 17.1875 
L 47.609375 17.1875 
L 47.609375 0 
L 37.796875 0 
L 37.796875 17.1875 
L 4.890625 17.1875 
L 4.890625 26.703125 
z
" id="DejaVuSans-52"/>
     </defs>
     <g transform="translate(289.856235 62.537963)scale(0.09264 -0.09264)">
      <use xlink:href="#DejaVuSans-52"/>
      <use x="63.623047" xlink:href="#DejaVuSans-46"/>
      <use x="95.410156" xlink:href="#DejaVuSans-48"/>
     </g>
    </g>
    <g id="line2d_41">
     <path d="M 263.917035 72.893378 
L 282.445035 72.893378 
" style="fill:none;stroke:#e80017;stroke-linecap:square;stroke-width:2;"/>
    </g>
    <g id="line2d_42"/>
    <g id="text_17">
     <!-- 5.0 -->
     <g transform="translate(289.856235 76.135778)scale(0.09264 -0.09264)">
      <use xlink:href="#DejaVuSans-53"/>
      <use x="63.623047" xlink:href="#DejaVuSans-46"/>
      <use x="95.410156" xlink:href="#DejaVuSans-48"/>
     </g>
    </g>
    <g id="line2d_43">
     <path d="M 323.11689 59.295563 
L 341.64489 59.295563 
" style="fill:none;stroke:#e81700;stroke-linecap:square;stroke-width:2;"/>
    </g>
    <g id="line2d_44"/>
    <g id="text_18">
     <!-- 6.0 -->
     <defs>
      <path d="M 33.015625 40.375 
Q 26.375 40.375 22.484375 35.828125 
Q 18.609375 31.296875 18.609375 23.390625 
Q 18.609375 15.53125 22.484375 10.953125 
Q 26.375 6.390625 33.015625 6.390625 
Q 39.65625 6.390625 43.53125 10.953125 
Q 47.40625 15.53125 47.40625 23.390625 
Q 47.40625 31.296875 43.53125 35.828125 
Q 39.65625 40.375 33.015625 40.375 
z
M 52.59375 71.296875 
L 52.59375 62.3125 
Q 48.875 64.0625 45.09375 64.984375 
Q 41.3125 65.921875 37.59375 65.921875 
Q 27.828125 65.921875 22.671875 59.328125 
Q 17.53125 52.734375 16.796875 39.40625 
Q 19.671875 43.65625 24.015625 45.921875 
Q 28.375 48.1875 33.59375 48.1875 
Q 44.578125 48.1875 50.953125 41.515625 
Q 57.328125 34.859375 57.328125 23.390625 
Q 57.328125 12.15625 50.6875 5.359375 
Q 44.046875 -1.421875 33.015625 -1.421875 
Q 20.359375 -1.421875 13.671875 8.265625 
Q 6.984375 17.96875 6.984375 36.375 
Q 6.984375 53.65625 15.1875 63.9375 
Q 23.390625 74.21875 37.203125 74.21875 
Q 40.921875 74.21875 44.703125 73.484375 
Q 48.484375 72.75 52.59375 71.296875 
z
" id="DejaVuSans-54"/>
     </defs>
     <g transform="translate(349.05609 62.537963)scale(0.09264 -0.09264)">
      <use xlink:href="#DejaVuSans-54"/>
      <use x="63.623047" xlink:href="#DejaVuSans-46"/>
      <use x="95.410156" xlink:href="#DejaVuSans-48"/>
     </g>
    </g>
    <g id="line2d_45">
     <path d="M 323.11689 72.893378 
L 341.64489 72.893378 
" style="fill:none;stroke:#ba4500;stroke-linecap:square;stroke-width:2;"/>
    </g>
    <g id="line2d_46"/>
    <g id="text_19">
     <!-- 7.0 -->
     <defs>
      <path d="M 8.203125 72.90625 
L 55.078125 72.90625 
L 55.078125 68.703125 
L 28.609375 0 
L 18.3125 0 
L 43.21875 64.59375 
L 8.203125 64.59375 
z
" id="DejaVuSans-55"/>
     </defs>
     <g transform="translate(349.05609 76.135778)scale(0.09264 -0.09264)">
      <use xlink:href="#DejaVuSans-55"/>
      <use x="63.623047" xlink:href="#DejaVuSans-46"/>
      <use x="95.410156" xlink:href="#DejaVuSans-48"/>
     </g>
    </g>
    <g id="line2d_47">
     <path d="M 382.316745 59.295563 
L 400.844745 59.295563 
" style="fill:none;stroke:#8a7500;stroke-linecap:square;stroke-width:2;"/>
    </g>
    <g id="line2d_48"/>
    <g id="text_20">
     <!-- 8.0 -->
     <defs>
      <path d="M 31.78125 34.625 
Q 24.75 34.625 20.71875 30.859375 
Q 16.703125 27.09375 16.703125 20.515625 
Q 16.703125 13.921875 20.71875 10.15625 
Q 24.75 6.390625 31.78125 6.390625 
Q 38.8125 6.390625 42.859375 10.171875 
Q 46.921875 13.96875 46.921875 20.515625 
Q 46.921875 27.09375 42.890625 30.859375 
Q 38.875 34.625 31.78125 34.625 
z
M 21.921875 38.8125 
Q 15.578125 40.375 12.03125 44.71875 
Q 8.5 49.078125 8.5 55.328125 
Q 8.5 64.0625 14.71875 69.140625 
Q 20.953125 74.21875 31.78125 74.21875 
Q 42.671875 74.21875 48.875 69.140625 
Q 55.078125 64.0625 55.078125 55.328125 
Q 55.078125 49.078125 51.53125 44.71875 
Q 48 40.375 41.703125 38.8125 
Q 48.828125 37.15625 52.796875 32.3125 
Q 56.78125 27.484375 56.78125 20.515625 
Q 56.78125 9.90625 50.3125 4.234375 
Q 43.84375 -1.421875 31.78125 -1.421875 
Q 19.734375 -1.421875 13.25 4.234375 
Q 6.78125 9.90625 6.78125 20.515625 
Q 6.78125 27.484375 10.78125 32.3125 
Q 14.796875 37.15625 21.921875 38.8125 
z
M 18.3125 54.390625 
Q 18.3125 48.734375 21.84375 45.5625 
Q 25.390625 42.390625 31.78125 42.390625 
Q 38.140625 42.390625 41.71875 45.5625 
Q 45.3125 48.734375 45.3125 54.390625 
Q 45.3125 60.0625 41.71875 63.234375 
Q 38.140625 66.40625 31.78125 66.40625 
Q 25.390625 66.40625 21.84375 63.234375 
Q 18.3125 60.0625 18.3125 54.390625 
z
" id="DejaVuSans-56"/>
     </defs>
     <g transform="translate(408.255945 62.537963)scale(0.09264 -0.09264)">
      <use xlink:href="#DejaVuSans-56"/>
      <use x="63.623047" xlink:href="#DejaVuSans-46"/>
      <use x="95.410156" xlink:href="#DejaVuSans-48"/>
     </g>
    </g>
    <g id="line2d_49">
     <path d="M 382.316745 72.893378 
L 400.844745 72.893378 
" style="fill:none;stroke:#5ca300;stroke-linecap:square;stroke-width:2;"/>
    </g>
    <g id="line2d_50"/>
    <g id="text_21">
     <!-- 9.0 -->
     <defs>
      <path d="M 10.984375 1.515625 
L 10.984375 10.5 
Q 14.703125 8.734375 18.5 7.8125 
Q 22.3125 6.890625 25.984375 6.890625 
Q 35.75 6.890625 40.890625 13.453125 
Q 46.046875 20.015625 46.78125 33.40625 
Q 43.953125 29.203125 39.59375 26.953125 
Q 35.25 24.703125 29.984375 24.703125 
Q 19.046875 24.703125 12.671875 31.3125 
Q 6.296875 37.9375 6.296875 49.421875 
Q 6.296875 60.640625 12.9375 67.421875 
Q 19.578125 74.21875 30.609375 74.21875 
Q 43.265625 74.21875 49.921875 64.515625 
Q 56.59375 54.828125 56.59375 36.375 
Q 56.59375 19.140625 48.40625 8.859375 
Q 40.234375 -1.421875 26.421875 -1.421875 
Q 22.703125 -1.421875 18.890625 -0.6875 
Q 15.09375 0.046875 10.984375 1.515625 
z
M 30.609375 32.421875 
Q 37.25 32.421875 41.125 36.953125 
Q 45.015625 41.5 45.015625 49.421875 
Q 45.015625 57.28125 41.125 61.84375 
Q 37.25 66.40625 30.609375 66.40625 
Q 23.96875 66.40625 20.09375 61.84375 
Q 16.21875 57.28125 16.21875 49.421875 
Q 16.21875 41.5 20.09375 36.953125 
Q 23.96875 32.421875 30.609375 32.421875 
z
" id="DejaVuSans-57"/>
     </defs>
     <g transform="translate(408.255945 76.135778)scale(0.09264 -0.09264)">
      <use xlink:href="#DejaVuSans-57"/>
      <use x="63.623047" xlink:href="#DejaVuSans-46"/>
      <use x="95.410156" xlink:href="#DejaVuSans-48"/>
     </g>
    </g>
    <g id="line2d_51">
     <path d="M 441.5166 59.295563 
L 460.0446 59.295563 
" style="fill:none;stroke:#2ed100;stroke-linecap:square;stroke-width:2;"/>
    </g>
    <g id="line2d_52"/>
    <g id="text_22">
     <!-- 10.0 -->
     <g transform="translate(467.4558 62.537963)scale(0.09264 -0.09264)">
      <use xlink:href="#DejaVuSans-49"/>
      <use x="63.623047" xlink:href="#DejaVuSans-48"/>
      <use x="127.246094" xlink:href="#DejaVuSans-46"/>
      <use x="159.033203" xlink:href="#DejaVuSans-48"/>
     </g>
    </g>
    <g id="line2d_53">
     <path d="M 441.5166 72.893378 
L 460.0446 72.893378 
" style="fill:none;stroke:#00ff00;stroke-linecap:square;stroke-width:2;"/>
    </g>
    <g id="line2d_54"/>
    <g id="text_23">
     <!-- 11.0 -->
     <g transform="translate(467.4558 76.135778)scale(0.09264 -0.09264)">
      <use xlink:href="#DejaVuSans-49"/>
      <use x="63.623047" xlink:href="#DejaVuSans-49"/>
      <use x="127.246094" xlink:href="#DejaVuSans-46"/>
      <use x="159.033203" xlink:href="#DejaVuSans-48"/>
     </g>
    </g>
   </g>
  </g>
  <g id="axes_2">
   <g id="patch_8">
    <path d="M 86.4 524.16 
L 547.2 524.16 
L 547.2 305.28 
L 86.4 305.28 
z
" style="fill:#ffffff;"/>
   </g>
   <g id="matplotlib.axis_3">
    <g id="xtick_6">
     <g id="line2d_55">
      <path clip-path="url(#p77552c0952)" d="M 142.254545 524.16 
L 142.254545 305.28 
" style="fill:none;stroke:#b0b0b0;stroke-linecap:square;stroke-width:0.8;"/>
     </g>
     <g id="line2d_56">
      <g>
       <use style="stroke:#000000;stroke-width:0.8;" x="142.254545" xlink:href="#m99e9df7ad2" y="524.16"/>
      </g>
     </g>
     <g id="text_24">
      <!-- −10 -->
      <g transform="translate(125.370795 543.3175)scale(0.16 -0.16)">
       <use xlink:href="#DejaVuSans-8722"/>
       <use x="83.789062" xlink:href="#DejaVuSans-49"/>
       <use x="147.412109" xlink:href="#DejaVuSans-48"/>
      </g>
     </g>
    </g>
    <g id="xtick_7">
     <g id="line2d_57">
      <path clip-path="url(#p77552c0952)" d="M 229.527273 524.16 
L 229.527273 305.28 
" style="fill:none;stroke:#b0b0b0;stroke-linecap:square;stroke-width:0.8;"/>
     </g>
     <g id="line2d_58">
      <g>
       <use style="stroke:#000000;stroke-width:0.8;" x="229.527273" xlink:href="#m99e9df7ad2" y="524.16"/>
      </g>
     </g>
     <g id="text_25">
      <!-- −5 -->
      <g transform="translate(217.733523 543.3175)scale(0.16 -0.16)">
       <use xlink:href="#DejaVuSans-8722"/>
       <use x="83.789062" xlink:href="#DejaVuSans-53"/>
      </g>
     </g>
    </g>
    <g id="xtick_8">
     <g id="line2d_59">
      <path clip-path="url(#p77552c0952)" d="M 316.8 524.16 
L 316.8 305.28 
" style="fill:none;stroke:#b0b0b0;stroke-linecap:square;stroke-width:0.8;"/>
     </g>
     <g id="line2d_60">
      <g>
       <use style="stroke:#000000;stroke-width:0.8;" x="316.8" xlink:href="#m99e9df7ad2" y="524.16"/>
      </g>
     </g>
     <g id="text_26">
      <!-- 0 -->
      <g transform="translate(311.71 543.3175)scale(0.16 -0.16)">
       <use xlink:href="#DejaVuSans-48"/>
      </g>
     </g>
    </g>
    <g id="xtick_9">
     <g id="line2d_61">
      <path clip-path="url(#p77552c0952)" d="M 404.072727 524.16 
L 404.072727 305.28 
" style="fill:none;stroke:#b0b0b0;stroke-linecap:square;stroke-width:0.8;"/>
     </g>
     <g id="line2d_62">
      <g>
       <use style="stroke:#000000;stroke-width:0.8;" x="404.072727" xlink:href="#m99e9df7ad2" y="524.16"/>
      </g>
     </g>
     <g id="text_27">
      <!-- 5 -->
      <g transform="translate(398.982727 543.3175)scale(0.16 -0.16)">
       <use xlink:href="#DejaVuSans-53"/>
      </g>
     </g>
    </g>
    <g id="xtick_10">
     <g id="line2d_63">
      <path clip-path="url(#p77552c0952)" d="M 491.345455 524.16 
L 491.345455 305.28 
" style="fill:none;stroke:#b0b0b0;stroke-linecap:square;stroke-width:0.8;"/>
     </g>
     <g id="line2d_64">
      <g>
       <use style="stroke:#000000;stroke-width:0.8;" x="491.345455" xlink:href="#m99e9df7ad2" y="524.16"/>
      </g>
     </g>
     <g id="text_28">
      <!-- 10 -->
      <g transform="translate(481.165455 543.3175)scale(0.16 -0.16)">
       <use xlink:href="#DejaVuSans-49"/>
       <use x="63.623047" xlink:href="#DejaVuSans-48"/>
      </g>
     </g>
    </g>
    <g id="text_29">
     <!-- x [mm] -->
     <defs>
      <path d="M 54.890625 54.6875 
L 35.109375 28.078125 
L 55.90625 0 
L 45.3125 0 
L 29.390625 21.484375 
L 13.484375 0 
L 2.875 0 
L 24.125 28.609375 
L 4.6875 54.6875 
L 15.28125 54.6875 
L 29.78125 35.203125 
L 44.28125 54.6875 
z
" id="DejaVuSans-120"/>
     </defs>
     <g transform="translate(287.695 562.8025)scale(0.16 -0.16)">
      <use xlink:href="#DejaVuSans-120"/>
      <use x="59.179688" xlink:href="#DejaVuSans-32"/>
      <use x="90.966797" xlink:href="#DejaVuSans-91"/>
      <use x="129.980469" xlink:href="#DejaVuSans-109"/>
      <use x="227.392578" xlink:href="#DejaVuSans-109"/>
      <use x="324.804688" xlink:href="#DejaVuSans-93"/>
     </g>
    </g>
   </g>
   <g id="matplotlib.axis_4">
    <g id="ytick_5">
     <g id="line2d_65">
      <path clip-path="url(#p77552c0952)" d="M 86.4 522.51191 
L 547.2 522.51191 
" style="fill:none;stroke:#b0b0b0;stroke-linecap:square;stroke-width:0.8;"/>
     </g>
     <g id="line2d_66">
      <g>
       <use style="stroke:#000000;stroke-width:0.8;" x="86.4" xlink:href="#m645ca85d8a" y="522.51191"/>
      </g>
     </g>
     <g id="text_30">
      <!-- −40 -->
      <g transform="translate(45.6325 528.59066)scale(0.16 -0.16)">
       <use xlink:href="#DejaVuSans-8722"/>
       <use x="83.789062" xlink:href="#DejaVuSans-52"/>
       <use x="147.412109" xlink:href="#DejaVuSans-48"/>
      </g>
     </g>
    </g>
    <g id="ytick_6">
     <g id="line2d_67">
      <path clip-path="url(#p77552c0952)" d="M 86.4 471.016994 
L 547.2 471.016994 
" style="fill:none;stroke:#b0b0b0;stroke-linecap:square;stroke-width:0.8;"/>
     </g>
     <g id="line2d_68">
      <g>
       <use style="stroke:#000000;stroke-width:0.8;" x="86.4" xlink:href="#m645ca85d8a" y="471.016994"/>
      </g>
     </g>
     <g id="text_31">
      <!-- −20 -->
      <g transform="translate(45.6325 477.095744)scale(0.16 -0.16)">
       <use xlink:href="#DejaVuSans-8722"/>
       <use x="83.789062" xlink:href="#DejaVuSans-50"/>
       <use x="147.412109" xlink:href="#DejaVuSans-48"/>
      </g>
     </g>
    </g>
    <g id="ytick_7">
     <g id="line2d_69">
      <path clip-path="url(#p77552c0952)" d="M 86.4 419.522079 
L 547.2 419.522079 
" style="fill:none;stroke:#b0b0b0;stroke-linecap:square;stroke-width:0.8;"/>
     </g>
     <g id="line2d_70">
      <g>
       <use style="stroke:#000000;stroke-width:0.8;" x="86.4" xlink:href="#m645ca85d8a" y="419.522079"/>
      </g>
     </g>
     <g id="text_32">
      <!-- 0 -->
      <g transform="translate(69.22 425.600829)scale(0.16 -0.16)">
       <use xlink:href="#DejaVuSans-48"/>
      </g>
     </g>
    </g>
    <g id="ytick_8">
     <g id="line2d_71">
      <path clip-path="url(#p77552c0952)" d="M 86.4 368.027163 
L 547.2 368.027163 
" style="fill:none;stroke:#b0b0b0;stroke-linecap:square;stroke-width:0.8;"/>
     </g>
     <g id="line2d_72">
      <g>
       <use style="stroke:#000000;stroke-width:0.8;" x="86.4" xlink:href="#m645ca85d8a" y="368.027163"/>
      </g>
     </g>
     <g id="text_33">
      <!-- 20 -->
      <g transform="translate(59.04 374.105913)scale(0.16 -0.16)">
       <use xlink:href="#DejaVuSans-50"/>
       <use x="63.623047" xlink:href="#DejaVuSans-48"/>
      </g>
     </g>
    </g>
    <g id="ytick_9">
     <g id="line2d_73">
      <path clip-path="url(#p77552c0952)" d="M 86.4 316.532247 
L 547.2 316.532247 
" style="fill:none;stroke:#b0b0b0;stroke-linecap:square;stroke-width:0.8;"/>
     </g>
     <g id="line2d_74">
      <g>
       <use style="stroke:#000000;stroke-width:0.8;" x="86.4" xlink:href="#m645ca85d8a" y="316.532247"/>
      </g>
     </g>
     <g id="text_34">
      <!-- 40 -->
      <g transform="translate(59.04 322.610997)scale(0.16 -0.16)">
       <use xlink:href="#DejaVuSans-52"/>
       <use x="63.623047" xlink:href="#DejaVuSans-48"/>
      </g>
     </g>
    </g>
    <g id="text_35">
     <!-- Ix [G.cm] -->
     <g transform="translate(38.305 451.5325)rotate(-90)scale(0.16 -0.16)">
      <use xlink:href="#DejaVuSans-73"/>
      <use x="29.492188" xlink:href="#DejaVuSans-120"/>
      <use x="88.671875" xlink:href="#DejaVuSans-32"/>
      <use x="120.458984" xlink:href="#DejaVuSans-91"/>
      <use x="159.472656" xlink:href="#DejaVuSans-71"/>
      <use x="236.962891" xlink:href="#DejaVuSans-46"/>
      <use x="268.75" xlink:href="#DejaVuSans-99"/>
      <use x="323.730469" xlink:href="#DejaVuSans-109"/>
      <use x="421.142578" xlink:href="#DejaVuSans-93"/>
     </g>
    </g>
   </g>
   <g id="line2d_75">
    <path clip-path="url(#p77552c0952)" d="M 107.345455 380.326623 
L 124.8 342.408856 
L 142.254545 349.854972 
L 159.709091 387.685324 
L 177.163636 423.832053 
L 194.618182 429.633871 
L 212.072727 424.392799 
L 229.527273 419.308614 
L 246.981818 414.428029 
L 264.436364 408.234463 
L 281.890909 393.445214 
L 299.345455 381.330054 
L 316.8 379.696757 
L 334.254545 396.01183 
L 351.709091 415.712784 
L 369.163636 423.55173 
L 386.618182 418.070424 
L 404.072727 395.669802 
L 421.527273 370.367074 
L 438.981818 350.209185 
L 456.436364 344.987195 
L 473.890909 356.316908 
L 491.345455 404.882825 
L 508.8 465.409825 
L 526.254545 502.691799 
" style="fill:none;stroke:#0000ff;stroke-linecap:square;stroke-width:2;"/>
   </g>
   <g id="line2d_76">
    <path clip-path="url(#p77552c0952)" d="M 107.345455 382.856012 
L 124.8 341.916661 
L 142.254545 348.898919 
L 159.709091 386.723231 
L 177.163636 422.817259 
L 194.618182 427.315248 
L 212.072727 421.709516 
L 229.527273 417.100646 
L 246.981818 412.739124 
L 264.436364 408.047513 
L 281.890909 393.275703 
L 299.345455 380.119254 
L 316.8 377.400891 
L 334.254545 393.674985 
L 351.709091 414.804908 
L 369.163636 421.482931 
L 386.618182 415.887791 
L 404.072727 391.649678 
L 421.527273 366.863156 
L 438.981818 346.906468 
L 456.436364 342.256041 
L 473.890909 353.979358 
L 491.345455 401.877142 
L 508.8 461.280989 
L 526.254545 498.38193 
" style="fill:none;stroke:#2e00d1;stroke-linecap:square;stroke-width:2;"/>
   </g>
   <g id="line2d_77">
    <path clip-path="url(#p77552c0952)" d="M 107.345455 379.279385 
L 124.8 340.324759 
L 142.254545 347.845136 
L 159.709091 385.297613 
L 177.163636 420.871058 
L 194.618182 427.196296 
L 212.072727 422.309504 
L 229.527273 416.468382 
L 246.981818 412.082074 
L 264.436364 406.269041 
L 281.890909 391.049532 
L 299.345455 378.162867 
L 316.8 375.629712 
L 334.254545 392.794838 
L 351.709091 413.888322 
L 369.163636 421.51862 
L 386.618182 415.784947 
L 404.072727 392.659506 
L 421.527273 367.340699 
L 438.981818 347.586708 
L 456.436364 341.5582 
L 473.890909 353.361737 
L 491.345455 402.88555 
L 508.8 461.687163 
L 526.254545 497.541292 
" style="fill:none;stroke:#5c00a3;stroke-linecap:square;stroke-width:2;"/>
   </g>
   <g id="line2d_78">
    <path clip-path="url(#p77552c0952)" d="M 107.345455 384.196184 
L 124.8 344.320563 
L 142.254545 349.607648 
L 159.709091 386.034409 
L 177.163636 420.124228 
L 194.618182 426.336532 
L 212.072727 421.861755 
L 229.527273 416.808883 
L 246.981818 413.120416 
L 264.436364 406.79775 
L 281.890909 391.304817 
L 299.345455 378.299315 
L 316.8 376.280264 
L 334.254545 392.664595 
L 351.709091 412.910218 
L 369.163636 421.121737 
L 386.618182 415.785491 
L 404.072727 392.325349 
L 421.527273 366.986826 
L 438.981818 346.88648 
L 456.436364 342.162458 
L 473.890909 353.79475 
L 491.345455 400.971675 
L 508.8 459.234721 
L 526.254545 496.008499 
" style="fill:none;stroke:#8a0075;stroke-linecap:square;stroke-width:2;"/>
   </g>
   <g id="line2d_79">
    <path clip-path="url(#p77552c0952)" d="M 107.345455 390.410233 
L 124.8 348.953777 
L 142.254545 353.960738 
L 159.709091 388.990259 
L 177.163636 423.371545 
L 194.618182 427.673352 
L 212.072727 422.06391 
L 229.527273 417.285088 
L 246.981818 413.080272 
L 264.436364 407.612059 
L 281.890909 392.86277 
L 299.345455 379.399269 
L 316.8 377.546347 
L 334.254545 392.947634 
L 351.709091 413.400173 
L 369.163636 421.841965 
L 386.618182 417.051012 
L 404.072727 394.04287 
L 421.527273 367.27223 
L 438.981818 346.769314 
L 456.436364 341.456031 
L 473.890909 353.992321 
L 491.345455 398.792009 
L 508.8 458.370196 
L 526.254545 495.429603 
" style="fill:none;stroke:#ba0045;stroke-linecap:square;stroke-width:2;"/>
   </g>
   <g id="line2d_80">
    <path clip-path="url(#p77552c0952)" d="M 107.345455 396.702081 
L 124.8 356.745936 
L 142.254545 361.459553 
L 159.709091 398.152797 
L 177.163636 431.543709 
L 194.618182 435.718416 
L 212.072727 430.180191 
L 229.527273 422.859322 
L 246.981818 418.069492 
L 264.436364 412.060012 
L 281.890909 395.763217 
L 299.345455 383.120492 
L 316.8 379.991326 
L 334.254545 396.01509 
L 351.709091 415.468488 
L 369.163636 423.211534 
L 386.618182 416.37727 
L 404.072727 391.862446 
L 421.527273 365.956314 
L 438.981818 345.346686 
L 456.436364 340.358365 
L 473.890909 351.16344 
L 491.345455 398.029352 
L 508.8 454.386001 
L 526.254545 491.531257 
" style="fill:none;stroke:#e80017;stroke-linecap:square;stroke-width:2;"/>
   </g>
   <g id="line2d_81">
    <path clip-path="url(#p77552c0952)" d="M 107.345455 396.316846 
L 124.8 356.384847 
L 142.254545 359.844984 
L 159.709091 394.79756 
L 177.163636 427.821525 
L 194.618182 433.253929 
L 212.072727 428.244293 
L 229.527273 422.227828 
L 246.981818 417.059527 
L 264.436364 411.249063 
L 281.890909 395.997133 
L 299.345455 383.58553 
L 316.8 380.299547 
L 334.254545 395.460611 
L 351.709091 415.565001 
L 369.163636 422.570789 
L 386.618182 415.708052 
L 404.072727 391.462309 
L 421.527273 365.729017 
L 438.981818 345.210546 
L 456.436364 340.044998 
L 473.890909 350.325715 
L 491.345455 395.156347 
L 508.8 453.097157 
L 526.254545 490.030032 
" style="fill:none;stroke:#e81700;stroke-linecap:square;stroke-width:2;"/>
   </g>
   <g id="line2d_82">
    <path clip-path="url(#p77552c0952)" d="M 107.345455 393.034515 
L 124.8 353.009816 
L 142.254545 359.69633 
L 159.709091 394.459975 
L 177.163636 428.283729 
L 194.618182 431.123932 
L 212.072727 425.388705 
L 229.527273 420.209937 
L 246.981818 416.214739 
L 264.436364 410.387413 
L 281.890909 394.587799 
L 299.345455 382.430576 
L 316.8 379.646883 
L 334.254545 394.438183 
L 351.709091 413.548662 
L 369.163636 420.272182 
L 386.618182 413.827153 
L 404.072727 389.127056 
L 421.527273 363.476062 
L 438.981818 344.19486 
L 456.436364 338.89287 
L 473.890909 351.277083 
L 491.345455 395.682542 
L 508.8 452.786944 
L 526.254545 488.206759 
" style="fill:none;stroke:#ba4500;stroke-linecap:square;stroke-width:2;"/>
   </g>
   <g id="line2d_83">
    <path clip-path="url(#p77552c0952)" d="M 107.345455 381.665521 
L 124.8 341.225847 
L 142.254545 347.567345 
L 159.709091 382.038446 
L 177.163636 414.683018 
L 194.618182 419.464806 
L 212.072727 416.178655 
L 229.527273 410.826959 
L 246.981818 406.60925 
L 264.436364 401.15148 
L 281.890909 387.112645 
L 299.345455 376.678283 
L 316.8 373.36292 
L 334.254545 389.424981 
L 351.709091 408.893327 
L 369.163636 416.15847 
L 386.618182 409.496765 
L 404.072727 384.679173 
L 421.527273 360.861881 
L 438.981818 342.160243 
L 456.436364 337.997785 
L 473.890909 348.622436 
L 491.345455 394.546539 
L 508.8 451.326295 
L 526.254545 487.220628 
" style="fill:none;stroke:#8a7500;stroke-linecap:square;stroke-width:2;"/>
   </g>
   <g id="line2d_84">
    <path clip-path="url(#p77552c0952)" d="M 107.345455 373.402803 
L 124.8 335.040379 
L 142.254545 342.155485 
L 159.709091 379.121025 
L 177.163636 412.600495 
L 194.618182 419.01628 
L 212.072727 416.063318 
L 229.527273 411.759369 
L 246.981818 407.729017 
L 264.436364 403.076918 
L 281.890909 390.21415 
L 299.345455 378.660501 
L 316.8 377.139535 
L 334.254545 392.939832 
L 351.709091 411.720599 
L 369.163636 420.392251 
L 386.618182 413.07209 
L 404.072727 389.471378 
L 421.527273 366.308067 
L 438.981818 347.974591 
L 456.436364 344.480727 
L 473.890909 357.004794 
L 491.345455 405.082113 
L 508.8 459.718977 
L 526.254545 494.152862 
" style="fill:none;stroke:#5ca300;stroke-linecap:square;stroke-width:2;"/>
   </g>
   <g id="line2d_85">
    <path clip-path="url(#p77552c0952)" d="M 107.345455 364.315952 
L 124.8 327.921358 
L 142.254545 334.318144 
L 159.709091 370.434138 
L 177.163636 405.312749 
L 194.618182 413.008075 
L 212.072727 410.217594 
L 229.527273 406.111125 
L 246.981818 403.188228 
L 264.436364 398.482782 
L 281.890909 385.89332 
L 299.345455 376.147106 
L 316.8 375.611099 
L 334.254545 392.60928 
L 351.709091 411.695457 
L 369.163636 419.430046 
L 386.618182 413.328168 
L 404.072727 390.341995 
L 421.527273 365.92077 
L 438.981818 349.342225 
L 456.436364 347.352472 
L 473.890909 360.995672 
L 491.345455 408.695941 
L 508.8 466.601491 
L 526.254545 503.221996 
" style="fill:none;stroke:#2ed100;stroke-linecap:square;stroke-width:2;"/>
   </g>
   <g id="line2d_86">
    <path clip-path="url(#p77552c0952)" d="M 107.345455 350.521637 
L 124.8 315.229091 
L 142.254545 323.728289 
L 159.709091 363.171648 
L 177.163636 398.857695 
L 194.618182 406.733403 
L 212.072727 406.243667 
L 229.527273 402.830905 
L 246.981818 400.668795 
L 264.436364 395.674168 
L 281.890909 382.912191 
L 299.345455 374.020101 
L 316.8 374.002805 
L 334.254545 392.590074 
L 351.709091 412.247451 
L 369.163636 421.259058 
L 386.618182 415.419233 
L 404.072727 393.138446 
L 421.527273 370.000091 
L 438.981818 353.459029 
L 456.436364 352.530472 
L 473.890909 367.503186 
L 491.345455 418.189574 
L 508.8 476.817969 
L 526.254545 514.210909 
" style="fill:none;stroke:#00ff00;stroke-linecap:square;stroke-width:2;"/>
   </g>
   <g id="patch_9">
    <path d="M 86.4 524.16 
L 86.4 305.28 
" style="fill:none;stroke:#000000;stroke-linecap:square;stroke-linejoin:miter;stroke-width:0.8;"/>
   </g>
   <g id="patch_10">
    <path d="M 547.2 524.16 
L 547.2 305.28 
" style="fill:none;stroke:#000000;stroke-linecap:square;stroke-linejoin:miter;stroke-width:0.8;"/>
   </g>
   <g id="patch_11">
    <path d="M 86.4 524.16 
L 547.2 524.16 
" style="fill:none;stroke:#000000;stroke-linecap:square;stroke-linejoin:miter;stroke-width:0.8;"/>
   </g>
   <g id="patch_12">
    <path d="M 86.4 305.28 
L 547.2 305.28 
" style="fill:none;stroke:#000000;stroke-linecap:square;stroke-linejoin:miter;stroke-width:0.8;"/>
   </g>
  </g>
  <g id="text_36">
   <!-- Integrals (Coil) for 1991c @ y=+01.0 -->
   <defs>
    <path d="M 54.890625 33.015625 
L 54.890625 0 
L 45.90625 0 
L 45.90625 32.71875 
Q 45.90625 40.484375 42.875 44.328125 
Q 39.84375 48.1875 33.796875 48.1875 
Q 26.515625 48.1875 22.3125 43.546875 
Q 18.109375 38.921875 18.109375 30.90625 
L 18.109375 0 
L 9.078125 0 
L 9.078125 54.6875 
L 18.109375 54.6875 
L 18.109375 46.1875 
Q 21.34375 51.125 25.703125 53.5625 
Q 30.078125 56 35.796875 56 
Q 45.21875 56 50.046875 50.171875 
Q 54.890625 44.34375 54.890625 33.015625 
z
" id="DejaVuSans-110"/>
    <path d="M 18.3125 70.21875 
L 18.3125 54.6875 
L 36.8125 54.6875 
L 36.8125 47.703125 
L 18.3125 47.703125 
L 18.3125 18.015625 
Q 18.3125 11.328125 20.140625 9.421875 
Q 21.96875 7.515625 27.59375 7.515625 
L 36.8125 7.515625 
L 36.8125 0 
L 27.59375 0 
Q 17.1875 0 13.234375 3.875 
Q 9.28125 7.765625 9.28125 18.015625 
L 9.28125 47.703125 
L 2.6875 47.703125 
L 2.6875 54.6875 
L 9.28125 54.6875 
L 9.28125 70.21875 
z
" id="DejaVuSans-116"/>
    <path d="M 45.40625 27.984375 
Q 45.40625 37.75 41.375 43.109375 
Q 37.359375 48.484375 30.078125 48.484375 
Q 22.859375 48.484375 18.828125 43.109375 
Q 14.796875 37.75 14.796875 27.984375 
Q 14.796875 18.265625 18.828125 12.890625 
Q 22.859375 7.515625 30.078125 7.515625 
Q 37.359375 7.515625 41.375 12.890625 
Q 45.40625 18.265625 45.40625 27.984375 
z
M 54.390625 6.78125 
Q 54.390625 -7.171875 48.1875 -13.984375 
Q 42 -20.796875 29.203125 -20.796875 
Q 24.46875 -20.796875 20.265625 -20.09375 
Q 16.0625 -19.390625 12.109375 -17.921875 
L 12.109375 -9.1875 
Q 16.0625 -11.328125 19.921875 -12.34375 
Q 23.78125 -13.375 27.78125 -13.375 
Q 36.625 -13.375 41.015625 -8.765625 
Q 45.40625 -4.15625 45.40625 5.171875 
L 45.40625 9.625 
Q 42.625 4.78125 38.28125 2.390625 
Q 33.9375 0 27.875 0 
Q 17.828125 0 11.671875 7.65625 
Q 5.515625 15.328125 5.515625 27.984375 
Q 5.515625 40.671875 11.671875 48.328125 
Q 17.828125 56 27.875 56 
Q 33.9375 56 38.28125 53.609375 
Q 42.625 51.21875 45.40625 46.390625 
L 45.40625 54.6875 
L 54.390625 54.6875 
z
" id="DejaVuSans-103"/>
    <path d="M 41.109375 46.296875 
Q 39.59375 47.171875 37.8125 47.578125 
Q 36.03125 48 33.890625 48 
Q 26.265625 48 22.1875 43.046875 
Q 18.109375 38.09375 18.109375 28.8125 
L 18.109375 0 
L 9.078125 0 
L 9.078125 54.6875 
L 18.109375 54.6875 
L 18.109375 46.1875 
Q 20.953125 51.171875 25.484375 53.578125 
Q 30.03125 56 36.53125 56 
Q 37.453125 56 38.578125 55.875 
Q 39.703125 55.765625 41.0625 55.515625 
z
" id="DejaVuSans-114"/>
    <path d="M 9.421875 75.984375 
L 18.40625 75.984375 
L 18.40625 0 
L 9.421875 0 
z
" id="DejaVuSans-108"/>
    <path d="M 31 75.875 
Q 24.46875 64.65625 21.28125 53.65625 
Q 18.109375 42.671875 18.109375 31.390625 
Q 18.109375 20.125 21.3125 9.0625 
Q 24.515625 -2 31 -13.1875 
L 23.1875 -13.1875 
Q 15.875 -1.703125 12.234375 9.375 
Q 8.59375 20.453125 8.59375 31.390625 
Q 8.59375 42.28125 12.203125 53.3125 
Q 15.828125 64.359375 23.1875 75.875 
z
" id="DejaVuSans-40"/>
    <path d="M 64.40625 67.28125 
L 64.40625 56.890625 
Q 59.421875 61.53125 53.78125 63.8125 
Q 48.140625 66.109375 41.796875 66.109375 
Q 29.296875 66.109375 22.65625 58.46875 
Q 16.015625 50.828125 16.015625 36.375 
Q 16.015625 21.96875 22.65625 14.328125 
Q 29.296875 6.6875 41.796875 6.6875 
Q 48.140625 6.6875 53.78125 8.984375 
Q 59.421875 11.28125 64.40625 15.921875 
L 64.40625 5.609375 
Q 59.234375 2.09375 53.4375 0.328125 
Q 47.65625 -1.421875 41.21875 -1.421875 
Q 24.65625 -1.421875 15.125 8.703125 
Q 5.609375 18.84375 5.609375 36.375 
Q 5.609375 53.953125 15.125 64.078125 
Q 24.65625 74.21875 41.21875 74.21875 
Q 47.75 74.21875 53.53125 72.484375 
Q 59.328125 70.75 64.40625 67.28125 
z
" id="DejaVuSans-67"/>
    <path d="M 30.609375 48.390625 
Q 23.390625 48.390625 19.1875 42.75 
Q 14.984375 37.109375 14.984375 27.296875 
Q 14.984375 17.484375 19.15625 11.84375 
Q 23.34375 6.203125 30.609375 6.203125 
Q 37.796875 6.203125 41.984375 11.859375 
Q 46.1875 17.53125 46.1875 27.296875 
Q 46.1875 37.015625 41.984375 42.703125 
Q 37.796875 48.390625 30.609375 48.390625 
z
M 30.609375 56 
Q 42.328125 56 49.015625 48.375 
Q 55.71875 40.765625 55.71875 27.296875 
Q 55.71875 13.875 49.015625 6.21875 
Q 42.328125 -1.421875 30.609375 -1.421875 
Q 18.84375 -1.421875 12.171875 6.21875 
Q 5.515625 13.875 5.515625 27.296875 
Q 5.515625 40.765625 12.171875 48.375 
Q 18.84375 56 30.609375 56 
z
" id="DejaVuSans-111"/>
    <path d="M 9.421875 54.6875 
L 18.40625 54.6875 
L 18.40625 0 
L 9.421875 0 
z
M 9.421875 75.984375 
L 18.40625 75.984375 
L 18.40625 64.59375 
L 9.421875 64.59375 
z
" id="DejaVuSans-105"/>
    <path d="M 8.015625 75.875 
L 15.828125 75.875 
Q 23.140625 64.359375 26.78125 53.3125 
Q 30.421875 42.28125 30.421875 31.390625 
Q 30.421875 20.453125 26.78125 9.375 
Q 23.140625 -1.703125 15.828125 -13.1875 
L 8.015625 -13.1875 
Q 14.5 -2 17.703125 9.0625 
Q 20.90625 20.125 20.90625 31.390625 
Q 20.90625 42.671875 17.703125 53.65625 
Q 14.5 64.65625 8.015625 75.875 
z
" id="DejaVuSans-41"/>
    <path d="M 37.109375 75.984375 
L 37.109375 68.5 
L 28.515625 68.5 
Q 23.6875 68.5 21.796875 66.546875 
Q 19.921875 64.59375 19.921875 59.515625 
L 19.921875 54.6875 
L 34.71875 54.6875 
L 34.71875 47.703125 
L 19.921875 47.703125 
L 19.921875 0 
L 10.890625 0 
L 10.890625 47.703125 
L 2.296875 47.703125 
L 2.296875 54.6875 
L 10.890625 54.6875 
L 10.890625 58.5 
Q 10.890625 67.625 15.140625 71.796875 
Q 19.390625 75.984375 28.609375 75.984375 
z
" id="DejaVuSans-102"/>
    <path d="M 37.203125 26.21875 
Q 37.203125 19.234375 40.671875 15.25 
Q 44.140625 11.28125 50.203125 11.28125 
Q 56.203125 11.28125 59.640625 15.28125 
Q 63.09375 19.28125 63.09375 26.21875 
Q 63.09375 33.0625 59.578125 37.078125 
Q 56.0625 41.109375 50.09375 41.109375 
Q 44.1875 41.109375 40.6875 37.109375 
Q 37.203125 33.109375 37.203125 26.21875 
z
M 63.8125 11.625 
Q 60.890625 7.859375 57.109375 6.078125 
Q 53.328125 4.296875 48.296875 4.296875 
Q 39.890625 4.296875 34.640625 10.375 
Q 29.390625 16.453125 29.390625 26.21875 
Q 29.390625 35.984375 34.65625 42.078125 
Q 39.9375 48.1875 48.296875 48.1875 
Q 53.328125 48.1875 57.125 46.359375 
Q 60.9375 44.53125 63.8125 40.828125 
L 63.8125 47.21875 
L 70.796875 47.21875 
L 70.796875 11.28125 
Q 77.9375 12.359375 81.953125 17.796875 
Q 85.984375 23.25 85.984375 31.890625 
Q 85.984375 37.109375 84.4375 41.703125 
Q 82.90625 46.296875 79.78125 50.203125 
Q 74.703125 56.59375 67.40625 59.984375 
Q 60.109375 63.375 51.515625 63.375 
Q 45.515625 63.375 39.984375 61.78125 
Q 34.46875 60.203125 29.78125 57.078125 
Q 22.125 52.09375 17.796875 44.015625 
Q 13.484375 35.9375 13.484375 26.515625 
Q 13.484375 18.75 16.28125 11.953125 
Q 19.09375 5.171875 24.421875 0 
Q 29.546875 -5.078125 36.28125 -7.734375 
Q 43.015625 -10.40625 50.6875 -10.40625 
Q 56.984375 -10.40625 63.0625 -8.28125 
Q 69.140625 -6.15625 74.21875 -2.203125 
L 78.609375 -7.625 
Q 72.515625 -12.359375 65.3125 -14.875 
Q 58.109375 -17.390625 50.6875 -17.390625 
Q 41.65625 -17.390625 33.640625 -14.1875 
Q 25.640625 -10.984375 19.390625 -4.890625 
Q 13.140625 1.21875 9.859375 9.25 
Q 6.59375 17.28125 6.59375 26.515625 
Q 6.59375 35.40625 9.90625 43.453125 
Q 13.234375 51.515625 19.390625 57.625 
Q 25.6875 63.8125 33.9375 67.109375 
Q 42.1875 70.40625 51.421875 70.40625 
Q 61.765625 70.40625 70.625 66.15625 
Q 79.5 61.921875 85.5 54.109375 
Q 89.15625 49.3125 91.078125 43.703125 
Q 93.015625 38.09375 93.015625 32.078125 
Q 93.015625 19.234375 85.25 11.8125 
Q 77.484375 4.390625 63.8125 4.109375 
z
" id="DejaVuSans-64"/>
    <path d="M 10.59375 45.40625 
L 73.1875 45.40625 
L 73.1875 37.203125 
L 10.59375 37.203125 
z
M 10.59375 25.484375 
L 73.1875 25.484375 
L 73.1875 17.1875 
L 10.59375 17.1875 
z
" id="DejaVuSans-61"/>
    <path d="M 46 62.703125 
L 46 35.5 
L 73.1875 35.5 
L 73.1875 27.203125 
L 46 27.203125 
L 46 0 
L 37.796875 0 
L 37.796875 27.203125 
L 10.59375 27.203125 
L 10.59375 35.5 
L 37.796875 35.5 
L 37.796875 62.703125 
z
" id="DejaVuSans-43"/>
   </defs>
   <g transform="translate(109.5075 26.109)scale(0.192 -0.192)">
    <use xlink:href="#DejaVuSans-73"/>
    <use x="29.492188" xlink:href="#DejaVuSans-110"/>
    <use x="92.871094" xlink:href="#DejaVuSans-116"/>
    <use x="132.080078" xlink:href="#DejaVuSans-101"/>
    <use x="193.603516" xlink:href="#DejaVuSans-103"/>
    <use x="257.080078" xlink:href="#DejaVuSans-114"/>
    <use x="298.193359" xlink:href="#DejaVuSans-97"/>
    <use x="359.472656" xlink:href="#DejaVuSans-108"/>
    <use x="387.255859" xlink:href="#DejaVuSans-115"/>
    <use x="439.355469" xlink:href="#DejaVuSans-32"/>
    <use x="471.142578" xlink:href="#DejaVuSans-40"/>
    <use x="510.15625" xlink:href="#DejaVuSans-67"/>
    <use x="579.980469" xlink:href="#DejaVuSans-111"/>
    <use x="641.162109" xlink:href="#DejaVuSans-105"/>
    <use x="668.945312" xlink:href="#DejaVuSans-108"/>
    <use x="696.728516" xlink:href="#DejaVuSans-41"/>
    <use x="735.742188" xlink:href="#DejaVuSans-32"/>
    <use x="767.529297" xlink:href="#DejaVuSans-102"/>
    <use x="802.734375" xlink:href="#DejaVuSans-111"/>
    <use x="863.916016" xlink:href="#DejaVuSans-114"/>
    <use x="905.029297" xlink:href="#DejaVuSans-32"/>
    <use x="936.816406" xlink:href="#DejaVuSans-49"/>
    <use x="1000.439453" xlink:href="#DejaVuSans-57"/>
    <use x="1064.0625" xlink:href="#DejaVuSans-57"/>
    <use x="1127.685547" xlink:href="#DejaVuSans-49"/>
    <use x="1191.308594" xlink:href="#DejaVuSans-99"/>
    <use x="1246.289062" xlink:href="#DejaVuSans-32"/>
    <use x="1278.076172" xlink:href="#DejaVuSans-64"/>
    <use x="1378.076172" xlink:href="#DejaVuSans-32"/>
    <use x="1409.863281" xlink:href="#DejaVuSans-121"/>
    <use x="1469.042969" xlink:href="#DejaVuSans-61"/>
    <use x="1552.832031" xlink:href="#DejaVuSans-43"/>
    <use x="1636.621094" xlink:href="#DejaVuSans-48"/>
    <use x="1700.244141" xlink:href="#DejaVuSans-49"/>
    <use x="1763.867188" xlink:href="#DejaVuSans-46"/>
    <use x="1795.654297" xlink:href="#DejaVuSans-48"/>
   </g>
  </g>
 </g>
 <defs>
  <clipPath id="p15691a5d9c">
   <rect height="218.88" width="460.8" x="86.4" y="86.4"/>
  </clipPath>
  <clipPath id="p77552c0952">
   <rect height="218.88" width="460.8" x="86.4" y="305.28"/>
  </clipPath>
 </defs>
</svg>
