<?xml version="1.0" encoding="utf-8" standalone="no"?>
<!DOCTYPE svg PUBLIC "-//W3C//DTD SVG 1.1//EN"
  "http://www.w3.org/Graphics/SVG/1.1/DTD/svg11.dtd">
<!-- Created with matplotlib (https://matplotlib.org/) -->
<svg height="576pt" version="1.1" viewBox="0 0 576 576" width="576pt" xmlns="http://www.w3.org/2000/svg" xmlns:xlink="http://www.w3.org/1999/xlink">
 <defs>
  <style type="text/css">
*{stroke-linecap:butt;stroke-linejoin:round;}
  </style>
 </defs>
 <g id="figure_1">
  <g id="patch_1">
   <path d="M 0 576 
L 576 576 
L 576 0 
L 0 0 
z
" style="fill:#ffffff;"/>
  </g>
  <g id="axes_1">
   <g id="patch_2">
    <path d="M 86.4 305.28 
L 547.2 305.28 
L 547.2 86.4 
L 86.4 86.4 
z
" style="fill:#ffffff;"/>
   </g>
   <g id="matplotlib.axis_1">
    <g id="xtick_1">
     <g id="line2d_1">
      <path clip-path="url(#p54da3dcdac)" d="M 142.254545 305.28 
L 142.254545 86.4 
" style="fill:none;stroke:#b0b0b0;stroke-linecap:square;stroke-width:0.8;"/>
     </g>
     <g id="line2d_2">
      <defs>
       <path d="M 0 0 
L 0 3.5 
" id="m2698e6a671" style="stroke:#000000;stroke-width:0.8;"/>
      </defs>
      <g>
       <use style="stroke:#000000;stroke-width:0.8;" x="142.254545" xlink:href="#m2698e6a671" y="305.28"/>
      </g>
     </g>
     <g id="text_1">
      <!-- −10 -->
      <defs>
       <path d="M 10.59375 35.5 
L 73.1875 35.5 
L 73.1875 27.203125 
L 10.59375 27.203125 
z
" id="DejaVuSans-8722"/>
       <path d="M 12.40625 8.296875 
L 28.515625 8.296875 
L 28.515625 63.921875 
L 10.984375 60.40625 
L 10.984375 69.390625 
L 28.421875 72.90625 
L 38.28125 72.90625 
L 38.28125 8.296875 
L 54.390625 8.296875 
L 54.390625 0 
L 12.40625 0 
z
" id="DejaVuSans-49"/>
       <path d="M 31.78125 66.40625 
Q 24.171875 66.40625 20.328125 58.90625 
Q 16.5 51.421875 16.5 36.375 
Q 16.5 21.390625 20.328125 13.890625 
Q 24.171875 6.390625 31.78125 6.390625 
Q 39.453125 6.390625 43.28125 13.890625 
Q 47.125 21.390625 47.125 36.375 
Q 47.125 51.421875 43.28125 58.90625 
Q 39.453125 66.40625 31.78125 66.40625 
z
M 31.78125 74.21875 
Q 44.046875 74.21875 50.515625 64.515625 
Q 56.984375 54.828125 56.984375 36.375 
Q 56.984375 17.96875 50.515625 8.265625 
Q 44.046875 -1.421875 31.78125 -1.421875 
Q 19.53125 -1.421875 13.0625 8.265625 
Q 6.59375 17.96875 6.59375 36.375 
Q 6.59375 54.828125 13.0625 64.515625 
Q 19.53125 74.21875 31.78125 74.21875 
z
" id="DejaVuSans-48"/>
      </defs>
      <g transform="translate(125.370795 324.4375)scale(0.16 -0.16)">
       <use xlink:href="#DejaVuSans-8722"/>
       <use x="83.789062" xlink:href="#DejaVuSans-49"/>
       <use x="147.412109" xlink:href="#DejaVuSans-48"/>
      </g>
     </g>
    </g>
    <g id="xtick_2">
     <g id="line2d_3">
      <path clip-path="url(#p54da3dcdac)" d="M 229.527273 305.28 
L 229.527273 86.4 
" style="fill:none;stroke:#b0b0b0;stroke-linecap:square;stroke-width:0.8;"/>
     </g>
     <g id="line2d_4">
      <g>
       <use style="stroke:#000000;stroke-width:0.8;" x="229.527273" xlink:href="#m2698e6a671" y="305.28"/>
      </g>
     </g>
     <g id="text_2">
      <!-- −5 -->
      <defs>
       <path d="M 10.796875 72.90625 
L 49.515625 72.90625 
L 49.515625 64.59375 
L 19.828125 64.59375 
L 19.828125 46.734375 
Q 21.96875 47.46875 24.109375 47.828125 
Q 26.265625 48.1875 28.421875 48.1875 
Q 40.625 48.1875 47.75 41.5 
Q 54.890625 34.8125 54.890625 23.390625 
Q 54.890625 11.625 47.5625 5.09375 
Q 40.234375 -1.421875 26.90625 -1.421875 
Q 22.3125 -1.421875 17.546875 -0.640625 
Q 12.796875 0.140625 7.71875 1.703125 
L 7.71875 11.625 
Q 12.109375 9.234375 16.796875 8.0625 
Q 21.484375 6.890625 26.703125 6.890625 
Q 35.15625 6.890625 40.078125 11.328125 
Q 45.015625 15.765625 45.015625 23.390625 
Q 45.015625 31 40.078125 35.4375 
Q 35.15625 39.890625 26.703125 39.890625 
Q 22.75 39.890625 18.8125 39.015625 
Q 14.890625 38.140625 10.796875 36.28125 
z
" id="DejaVuSans-53"/>
      </defs>
      <g transform="translate(217.733523 324.4375)scale(0.16 -0.16)">
       <use xlink:href="#DejaVuSans-8722"/>
       <use x="83.789062" xlink:href="#DejaVuSans-53"/>
      </g>
     </g>
    </g>
    <g id="xtick_3">
     <g id="line2d_5">
      <path clip-path="url(#p54da3dcdac)" d="M 316.8 305.28 
L 316.8 86.4 
" style="fill:none;stroke:#b0b0b0;stroke-linecap:square;stroke-width:0.8;"/>
     </g>
     <g id="line2d_6">
      <g>
       <use style="stroke:#000000;stroke-width:0.8;" x="316.8" xlink:href="#m2698e6a671" y="305.28"/>
      </g>
     </g>
     <g id="text_3">
      <!-- 0 -->
      <g transform="translate(311.71 324.4375)scale(0.16 -0.16)">
       <use xlink:href="#DejaVuSans-48"/>
      </g>
     </g>
    </g>
    <g id="xtick_4">
     <g id="line2d_7">
      <path clip-path="url(#p54da3dcdac)" d="M 404.072727 305.28 
L 404.072727 86.4 
" style="fill:none;stroke:#b0b0b0;stroke-linecap:square;stroke-width:0.8;"/>
     </g>
     <g id="line2d_8">
      <g>
       <use style="stroke:#000000;stroke-width:0.8;" x="404.072727" xlink:href="#m2698e6a671" y="305.28"/>
      </g>
     </g>
     <g id="text_4">
      <!-- 5 -->
      <g transform="translate(398.982727 324.4375)scale(0.16 -0.16)">
       <use xlink:href="#DejaVuSans-53"/>
      </g>
     </g>
    </g>
    <g id="xtick_5">
     <g id="line2d_9">
      <path clip-path="url(#p54da3dcdac)" d="M 491.345455 305.28 
L 491.345455 86.4 
" style="fill:none;stroke:#b0b0b0;stroke-linecap:square;stroke-width:0.8;"/>
     </g>
     <g id="line2d_10">
      <g>
       <use style="stroke:#000000;stroke-width:0.8;" x="491.345455" xlink:href="#m2698e6a671" y="305.28"/>
      </g>
     </g>
     <g id="text_5">
      <!-- 10 -->
      <g transform="translate(481.165455 324.4375)scale(0.16 -0.16)">
       <use xlink:href="#DejaVuSans-49"/>
       <use x="63.623047" xlink:href="#DejaVuSans-48"/>
      </g>
     </g>
    </g>
   </g>
   <g id="matplotlib.axis_2">
    <g id="ytick_1">
     <g id="line2d_11">
      <path clip-path="url(#p54da3dcdac)" d="M 86.4 265.730749 
L 547.2 265.730749 
" style="fill:none;stroke:#b0b0b0;stroke-linecap:square;stroke-width:0.8;"/>
     </g>
     <g id="line2d_12">
      <defs>
       <path d="M 0 0 
L -3.5 0 
" id="m34ac296093" style="stroke:#000000;stroke-width:0.8;"/>
      </defs>
      <g>
       <use style="stroke:#000000;stroke-width:0.8;" x="86.4" xlink:href="#m34ac296093" y="265.730749"/>
      </g>
     </g>
     <g id="text_6">
      <!-- −30 -->
      <defs>
       <path d="M 40.578125 39.3125 
Q 47.65625 37.796875 51.625 33 
Q 55.609375 28.21875 55.609375 21.1875 
Q 55.609375 10.40625 48.1875 4.484375 
Q 40.765625 -1.421875 27.09375 -1.421875 
Q 22.515625 -1.421875 17.65625 -0.515625 
Q 12.796875 0.390625 7.625 2.203125 
L 7.625 11.71875 
Q 11.71875 9.328125 16.59375 8.109375 
Q 21.484375 6.890625 26.8125 6.890625 
Q 36.078125 6.890625 40.9375 10.546875 
Q 45.796875 14.203125 45.796875 21.1875 
Q 45.796875 27.640625 41.28125 31.265625 
Q 36.765625 34.90625 28.71875 34.90625 
L 20.21875 34.90625 
L 20.21875 43.015625 
L 29.109375 43.015625 
Q 36.375 43.015625 40.234375 45.921875 
Q 44.09375 48.828125 44.09375 54.296875 
Q 44.09375 59.90625 40.109375 62.90625 
Q 36.140625 65.921875 28.71875 65.921875 
Q 24.65625 65.921875 20.015625 65.03125 
Q 15.375 64.15625 9.8125 62.3125 
L 9.8125 71.09375 
Q 15.4375 72.65625 20.34375 73.4375 
Q 25.25 74.21875 29.59375 74.21875 
Q 40.828125 74.21875 47.359375 69.109375 
Q 53.90625 64.015625 53.90625 55.328125 
Q 53.90625 49.265625 50.4375 45.09375 
Q 46.96875 40.921875 40.578125 39.3125 
z
" id="DejaVuSans-51"/>
      </defs>
      <g transform="translate(45.6325 271.809499)scale(0.16 -0.16)">
       <use xlink:href="#DejaVuSans-8722"/>
       <use x="83.789062" xlink:href="#DejaVuSans-51"/>
       <use x="147.412109" xlink:href="#DejaVuSans-48"/>
      </g>
     </g>
    </g>
    <g id="ytick_2">
     <g id="line2d_13">
      <path clip-path="url(#p54da3dcdac)" d="M 86.4 215.071597 
L 547.2 215.071597 
" style="fill:none;stroke:#b0b0b0;stroke-linecap:square;stroke-width:0.8;"/>
     </g>
     <g id="line2d_14">
      <g>
       <use style="stroke:#000000;stroke-width:0.8;" x="86.4" xlink:href="#m34ac296093" y="215.071597"/>
      </g>
     </g>
     <g id="text_7">
      <!-- −20 -->
      <defs>
       <path d="M 19.1875 8.296875 
L 53.609375 8.296875 
L 53.609375 0 
L 7.328125 0 
L 7.328125 8.296875 
Q 12.9375 14.109375 22.625 23.890625 
Q 32.328125 33.6875 34.8125 36.53125 
Q 39.546875 41.84375 41.421875 45.53125 
Q 43.3125 49.21875 43.3125 52.78125 
Q 43.3125 58.59375 39.234375 62.25 
Q 35.15625 65.921875 28.609375 65.921875 
Q 23.96875 65.921875 18.8125 64.3125 
Q 13.671875 62.703125 7.8125 59.421875 
L 7.8125 69.390625 
Q 13.765625 71.78125 18.9375 73 
Q 24.125 74.21875 28.421875 74.21875 
Q 39.75 74.21875 46.484375 68.546875 
Q 53.21875 62.890625 53.21875 53.421875 
Q 53.21875 48.921875 51.53125 44.890625 
Q 49.859375 40.875 45.40625 35.40625 
Q 44.1875 33.984375 37.640625 27.21875 
Q 31.109375 20.453125 19.1875 8.296875 
z
" id="DejaVuSans-50"/>
      </defs>
      <g transform="translate(45.6325 221.150347)scale(0.16 -0.16)">
       <use xlink:href="#DejaVuSans-8722"/>
       <use x="83.789062" xlink:href="#DejaVuSans-50"/>
       <use x="147.412109" xlink:href="#DejaVuSans-48"/>
      </g>
     </g>
    </g>
    <g id="ytick_3">
     <g id="line2d_15">
      <path clip-path="url(#p54da3dcdac)" d="M 86.4 164.412445 
L 547.2 164.412445 
" style="fill:none;stroke:#b0b0b0;stroke-linecap:square;stroke-width:0.8;"/>
     </g>
     <g id="line2d_16">
      <g>
       <use style="stroke:#000000;stroke-width:0.8;" x="86.4" xlink:href="#m34ac296093" y="164.412445"/>
      </g>
     </g>
     <g id="text_8">
      <!-- −10 -->
      <g transform="translate(45.6325 170.491195)scale(0.16 -0.16)">
       <use xlink:href="#DejaVuSans-8722"/>
       <use x="83.789062" xlink:href="#DejaVuSans-49"/>
       <use x="147.412109" xlink:href="#DejaVuSans-48"/>
      </g>
     </g>
    </g>
    <g id="ytick_4">
     <g id="line2d_17">
      <path clip-path="url(#p54da3dcdac)" d="M 86.4 113.753292 
L 547.2 113.753292 
" style="fill:none;stroke:#b0b0b0;stroke-linecap:square;stroke-width:0.8;"/>
     </g>
     <g id="line2d_18">
      <g>
       <use style="stroke:#000000;stroke-width:0.8;" x="86.4" xlink:href="#m34ac296093" y="113.753292"/>
      </g>
     </g>
     <g id="text_9">
      <!-- 0 -->
      <g transform="translate(69.22 119.832042)scale(0.16 -0.16)">
       <use xlink:href="#DejaVuSans-48"/>
      </g>
     </g>
    </g>
    <g id="text_10">
     <!-- Iy [G.cm] -->
     <defs>
      <path d="M 9.8125 72.90625 
L 19.671875 72.90625 
L 19.671875 0 
L 9.8125 0 
z
" id="DejaVuSans-73"/>
      <path d="M 32.171875 -5.078125 
Q 28.375 -14.84375 24.75 -17.8125 
Q 21.140625 -20.796875 15.09375 -20.796875 
L 7.90625 -20.796875 
L 7.90625 -13.28125 
L 13.1875 -13.28125 
Q 16.890625 -13.28125 18.9375 -11.515625 
Q 21 -9.765625 23.484375 -3.21875 
L 25.09375 0.875 
L 2.984375 54.6875 
L 12.5 54.6875 
L 29.59375 11.921875 
L 46.6875 54.6875 
L 56.203125 54.6875 
z
" id="DejaVuSans-121"/>
      <path id="DejaVuSans-32"/>
      <path d="M 8.59375 75.984375 
L 29.296875 75.984375 
L 29.296875 69 
L 17.578125 69 
L 17.578125 -6.203125 
L 29.296875 -6.203125 
L 29.296875 -13.1875 
L 8.59375 -13.1875 
z
" id="DejaVuSans-91"/>
      <path d="M 59.515625 10.40625 
L 59.515625 29.984375 
L 43.40625 29.984375 
L 43.40625 38.09375 
L 69.28125 38.09375 
L 69.28125 6.78125 
Q 63.578125 2.734375 56.6875 0.65625 
Q 49.8125 -1.421875 42 -1.421875 
Q 24.90625 -1.421875 15.25 8.5625 
Q 5.609375 18.5625 5.609375 36.375 
Q 5.609375 54.25 15.25 64.234375 
Q 24.90625 74.21875 42 74.21875 
Q 49.125 74.21875 55.546875 72.453125 
Q 61.96875 70.703125 67.390625 67.28125 
L 67.390625 56.78125 
Q 61.921875 61.421875 55.765625 63.765625 
Q 49.609375 66.109375 42.828125 66.109375 
Q 29.4375 66.109375 22.71875 58.640625 
Q 16.015625 51.171875 16.015625 36.375 
Q 16.015625 21.625 22.71875 14.15625 
Q 29.4375 6.6875 42.828125 6.6875 
Q 48.046875 6.6875 52.140625 7.59375 
Q 56.25 8.5 59.515625 10.40625 
z
" id="DejaVuSans-71"/>
      <path d="M 10.6875 12.40625 
L 21 12.40625 
L 21 0 
L 10.6875 0 
z
" id="DejaVuSans-46"/>
      <path d="M 48.78125 52.59375 
L 48.78125 44.1875 
Q 44.96875 46.296875 41.140625 47.34375 
Q 37.3125 48.390625 33.40625 48.390625 
Q 24.65625 48.390625 19.8125 42.84375 
Q 14.984375 37.3125 14.984375 27.296875 
Q 14.984375 17.28125 19.8125 11.734375 
Q 24.65625 6.203125 33.40625 6.203125 
Q 37.3125 6.203125 41.140625 7.25 
Q 44.96875 8.296875 48.78125 10.40625 
L 48.78125 2.09375 
Q 45.015625 0.34375 40.984375 -0.53125 
Q 36.96875 -1.421875 32.421875 -1.421875 
Q 20.0625 -1.421875 12.78125 6.34375 
Q 5.515625 14.109375 5.515625 27.296875 
Q 5.515625 40.671875 12.859375 48.328125 
Q 20.21875 56 33.015625 56 
Q 37.15625 56 41.109375 55.140625 
Q 45.0625 54.296875 48.78125 52.59375 
z
" id="DejaVuSans-99"/>
      <path d="M 52 44.1875 
Q 55.375 50.25 60.0625 53.125 
Q 64.75 56 71.09375 56 
Q 79.640625 56 84.28125 50.015625 
Q 88.921875 44.046875 88.921875 33.015625 
L 88.921875 0 
L 79.890625 0 
L 79.890625 32.71875 
Q 79.890625 40.578125 77.09375 44.375 
Q 74.3125 48.1875 68.609375 48.1875 
Q 61.625 48.1875 57.5625 43.546875 
Q 53.515625 38.921875 53.515625 30.90625 
L 53.515625 0 
L 44.484375 0 
L 44.484375 32.71875 
Q 44.484375 40.625 41.703125 44.40625 
Q 38.921875 48.1875 33.109375 48.1875 
Q 26.21875 48.1875 22.15625 43.53125 
Q 18.109375 38.875 18.109375 30.90625 
L 18.109375 0 
L 9.078125 0 
L 9.078125 54.6875 
L 18.109375 54.6875 
L 18.109375 46.1875 
Q 21.1875 51.21875 25.484375 53.609375 
Q 29.78125 56 35.6875 56 
Q 41.65625 56 45.828125 52.96875 
Q 50 49.953125 52 44.1875 
z
" id="DejaVuSans-109"/>
      <path d="M 30.421875 75.984375 
L 30.421875 -13.1875 
L 9.71875 -13.1875 
L 9.71875 -6.203125 
L 21.390625 -6.203125 
L 21.390625 69 
L 9.71875 69 
L 9.71875 75.984375 
z
" id="DejaVuSans-93"/>
     </defs>
     <g transform="translate(38.305 232.6525)rotate(-90)scale(0.16 -0.16)">
      <use xlink:href="#DejaVuSans-73"/>
      <use x="29.492188" xlink:href="#DejaVuSans-121"/>
      <use x="88.671875" xlink:href="#DejaVuSans-32"/>
      <use x="120.458984" xlink:href="#DejaVuSans-91"/>
      <use x="159.472656" xlink:href="#DejaVuSans-71"/>
      <use x="236.962891" xlink:href="#DejaVuSans-46"/>
      <use x="268.75" xlink:href="#DejaVuSans-99"/>
      <use x="323.730469" xlink:href="#DejaVuSans-109"/>
      <use x="421.142578" xlink:href="#DejaVuSans-93"/>
     </g>
    </g>
   </g>
   <g id="line2d_19">
    <path clip-path="url(#p54da3dcdac)" d="M 107.345455 178.429429 
L 124.8 209.208972 
L 142.254545 226.130127 
L 159.709091 228.320696 
L 177.163636 212.44087 
L 194.618182 192.274417 
L 212.072727 185.495785 
L 229.527273 190.957266 
L 246.981818 208.876915 
L 264.436364 226.440802 
L 281.890909 229.038782 
L 299.345455 216.297905 
L 316.8 193.440115 
L 334.254545 168.131991 
L 351.709091 160.303209 
L 369.163636 173.391083 
L 386.618182 197.353329 
L 404.072727 218.612763 
L 421.527273 224.83746 
L 438.981818 219.292586 
L 456.436364 201.037046 
L 473.890909 196.03159 
L 491.345455 207.83979 
L 508.8 251.467715 
L 526.254545 295.330909 
" style="fill:none;stroke:#0000ff;stroke-linecap:square;stroke-width:2;"/>
   </g>
   <g id="line2d_20">
    <path clip-path="url(#p54da3dcdac)" d="M 107.345455 170.332759 
L 124.8 202.699077 
L 142.254545 219.892882 
L 159.709091 221.96012 
L 177.163636 204.96992 
L 194.618182 186.292614 
L 212.072727 180.521112 
L 229.527273 186.060115 
L 246.981818 204.327016 
L 264.436364 221.325733 
L 281.890909 226.267926 
L 299.345455 210.247538 
L 316.8 188.683783 
L 334.254545 163.837614 
L 351.709091 157.859519 
L 369.163636 171.01919 
L 386.618182 194.691727 
L 404.072727 215.942632 
L 421.527273 222.916251 
L 438.981818 216.766005 
L 456.436364 198.628117 
L 473.890909 193.889535 
L 491.345455 204.87433 
L 508.8 246.955853 
L 526.254545 289.605479 
" style="fill:none;stroke:#2e00d1;stroke-linecap:square;stroke-width:2;"/>
   </g>
   <g id="line2d_21">
    <path clip-path="url(#p54da3dcdac)" d="M 107.345455 176.427494 
L 124.8 209.306077 
L 142.254545 227.448272 
L 159.709091 228.593163 
L 177.163636 213.39491 
L 194.618182 193.726397 
L 212.072727 188.375349 
L 229.527273 192.716558 
L 246.981818 211.472772 
L 264.436364 226.728541 
L 281.890909 230.013863 
L 299.345455 216.410914 
L 316.8 193.591979 
L 334.254545 170.268052 
L 351.709091 163.40778 
L 369.163636 177.607657 
L 386.618182 199.433952 
L 404.072727 219.842847 
L 421.527273 223.363458 
L 438.981818 217.186065 
L 456.436364 199.302217 
L 473.890909 194.576658 
L 491.345455 208.042012 
L 508.8 245.2646 
L 526.254545 286.418029 
" style="fill:none;stroke:#5c00a3;stroke-linecap:square;stroke-width:2;"/>
   </g>
   <g id="line2d_22">
    <path clip-path="url(#p54da3dcdac)" d="M 107.345455 163.174689 
L 124.8 194.765938 
L 142.254545 209.755782 
L 159.709091 211.294664 
L 177.163636 194.940994 
L 194.618182 173.107077 
L 212.072727 167.960642 
L 229.527273 173.10328 
L 246.981818 191.6395 
L 264.436364 210.692193 
L 281.890909 213.103313 
L 299.345455 199.027823 
L 316.8 176.717612 
L 334.254545 153.598273 
L 351.709091 148.492001 
L 369.163636 162.976862 
L 386.618182 185.151275 
L 404.072727 207.543749 
L 421.527273 213.604543 
L 438.981818 208.561396 
L 456.436364 193.430022 
L 473.890909 187.25066 
L 491.345455 203.227523 
L 508.8 241.062221 
L 526.254545 282.385905 
" style="fill:none;stroke:#8a0075;stroke-linecap:square;stroke-width:2;"/>
   </g>
   <g id="line2d_23">
    <path clip-path="url(#p54da3dcdac)" d="M 107.345455 165.051164 
L 124.8 193.836524 
L 142.254545 211.902395 
L 159.709091 212.236363 
L 177.163636 195.854131 
L 194.618182 174.071982 
L 212.072727 169.270008 
L 229.527273 174.751393 
L 246.981818 192.926296 
L 264.436364 208.335255 
L 281.890909 210.614564 
L 299.345455 198.960845 
L 316.8 176.008039 
L 334.254545 152.406786 
L 351.709091 142.434438 
L 369.163636 159.335398 
L 386.618182 181.251793 
L 404.072727 204.17816 
L 421.527273 209.143081 
L 438.981818 204.496045 
L 456.436364 189.996036 
L 473.890909 182.560099 
L 491.345455 200.281662 
L 508.8 237.221402 
L 526.254545 277.455029 
" style="fill:none;stroke:#ba0045;stroke-linecap:square;stroke-width:2;"/>
   </g>
   <g id="line2d_24">
    <path clip-path="url(#p54da3dcdac)" d="M 107.345455 159.071396 
L 124.8 187.146571 
L 142.254545 204.898233 
L 159.709091 204.246665 
L 177.163636 190.241691 
L 194.618182 166.010761 
L 212.072727 161.502947 
L 229.527273 166.440636 
L 246.981818 184.79484 
L 264.436364 201.427522 
L 281.890909 200.942355 
L 299.345455 186.937392 
L 316.8 161.977679 
L 334.254545 139.020691 
L 351.709091 130.932067 
L 369.163636 147.685241 
L 386.618182 169.648942 
L 404.072727 191.710196 
L 421.527273 196.986456 
L 438.981818 192.731128 
L 456.436364 178.049018 
L 473.890909 171.595862 
L 491.345455 186.231544 
L 508.8 223.264448 
L 526.254545 267.499115 
" style="fill:none;stroke:#e80017;stroke-linecap:square;stroke-width:2;"/>
   </g>
   <g id="line2d_25">
    <path clip-path="url(#p54da3dcdac)" d="M 107.345455 163.154561 
L 124.8 187.640422 
L 142.254545 203.58168 
L 159.709091 199.375142 
L 177.163636 184.076121 
L 194.618182 160.875201 
L 212.072727 155.291428 
L 229.527273 160.55338 
L 246.981818 177.699719 
L 264.436364 196.785671 
L 281.890909 198.908671 
L 299.345455 187.718405 
L 316.8 162.067143 
L 334.254545 139.744214 
L 351.709091 130.212364 
L 369.163636 142.865474 
L 386.618182 167.05293 
L 404.072727 189.168795 
L 421.527273 196.703185 
L 438.981818 190.046314 
L 456.436364 177.312394 
L 473.890909 169.525044 
L 491.345455 183.980037 
L 508.8 223.01294 
L 526.254545 268.857417 
" style="fill:none;stroke:#e81700;stroke-linecap:square;stroke-width:2;"/>
   </g>
   <g id="line2d_26">
    <path clip-path="url(#p54da3dcdac)" d="M 107.345455 159.436989 
L 124.8 185.250964 
L 142.254545 201.957989 
L 159.709091 196.755624 
L 177.163636 181.786404 
L 194.618182 156.103472 
L 212.072727 149.076278 
L 229.527273 155.258997 
L 246.981818 172.350502 
L 264.436364 191.668547 
L 281.890909 191.475832 
L 299.345455 178.687239 
L 316.8 152.929712 
L 334.254545 132.170385 
L 351.709091 123.375735 
L 369.163636 138.298107 
L 386.618182 160.003334 
L 404.072727 181.771683 
L 421.527273 190.840844 
L 438.981818 184.840825 
L 456.436364 171.27753 
L 473.890909 163.619102 
L 491.345455 182.328852 
L 508.8 218.368737 
L 526.254545 262.907262 
" style="fill:none;stroke:#ba4500;stroke-linecap:square;stroke-width:2;"/>
   </g>
   <g id="line2d_27">
    <path clip-path="url(#p54da3dcdac)" d="M 107.345455 150.201203 
L 124.8 174.7466 
L 142.254545 191.608159 
L 159.709091 189.377754 
L 177.163636 173.702064 
L 194.618182 148.311087 
L 212.072727 140.479915 
L 229.527273 145.841535 
L 246.981818 161.744765 
L 264.436364 181.412444 
L 281.890909 183.658064 
L 299.345455 172.274765 
L 316.8 145.477847 
L 334.254545 123.667702 
L 351.709091 116.324302 
L 369.163636 131.670899 
L 386.618182 155.533416 
L 404.072727 177.617001 
L 421.527273 186.358593 
L 438.981818 180.266184 
L 456.436364 168.377898 
L 473.890909 160.397525 
L 491.345455 178.148549 
L 508.8 215.863785 
L 526.254545 264.57971 
" style="fill:none;stroke:#8a7500;stroke-linecap:square;stroke-width:2;"/>
   </g>
   <g id="line2d_28">
    <path clip-path="url(#p54da3dcdac)" d="M 107.345455 155.358267 
L 124.8 181.01113 
L 142.254545 196.730694 
L 159.709091 191.768854 
L 177.163636 173.872513 
L 194.618182 148.722736 
L 212.072727 140.300602 
L 229.527273 145.708161 
L 246.981818 163.797713 
L 264.436364 183.614558 
L 281.890909 184.45429 
L 299.345455 171.051176 
L 316.8 145.241476 
L 334.254545 123.615124 
L 351.709091 116.007843 
L 369.163636 131.297027 
L 386.618182 154.384785 
L 404.072727 175.263233 
L 421.527273 183.89007 
L 438.981818 176.472162 
L 456.436364 164.647117 
L 473.890909 159.47295 
L 491.345455 178.446226 
L 508.8 215.702251 
L 526.254545 264.19418 
" style="fill:none;stroke:#5ca300;stroke-linecap:square;stroke-width:2;"/>
   </g>
   <g id="line2d_29">
    <path clip-path="url(#p54da3dcdac)" d="M 107.345455 157.527226 
L 124.8 179.609096 
L 142.254545 193.020111 
L 159.709091 184.865898 
L 177.163636 167.495676 
L 194.618182 144.203322 
L 212.072727 138.103487 
L 229.527273 143.807717 
L 246.981818 159.640374 
L 264.436364 180.740962 
L 281.890909 180.632105 
L 299.345455 167.835457 
L 316.8 141.002442 
L 334.254545 120.837575 
L 351.709091 112.826823 
L 369.163636 129.095604 
L 386.618182 154.006546 
L 404.072727 176.719648 
L 421.527273 186.549849 
L 438.981818 179.732703 
L 456.436364 167.997674 
L 473.890909 162.483164 
L 491.345455 182.275376 
L 508.8 221.23987 
L 526.254545 269.27691 
" style="fill:none;stroke:#2ed100;stroke-linecap:square;stroke-width:2;"/>
   </g>
   <g id="line2d_30">
    <path clip-path="url(#p54da3dcdac)" d="M 107.345455 146.034317 
L 124.8 168.227349 
L 142.254545 180.510026 
L 159.709091 174.25171 
L 177.163636 155.724536 
L 194.618182 130.477589 
L 212.072727 120.231034 
L 229.527273 125.518521 
L 246.981818 141.6345 
L 264.436364 160.441832 
L 281.890909 162.946154 
L 299.345455 151.706847 
L 316.8 125.604865 
L 334.254545 104.707695 
L 351.709091 96.349091 
L 369.163636 111.397715 
L 386.618182 135.656589 
L 404.072727 157.729104 
L 421.527273 167.900032 
L 438.981818 162.106527 
L 456.436364 149.42112 
L 473.890909 142.875877 
L 491.345455 163.938419 
L 508.8 202.296722 
L 526.254545 249.532437 
" style="fill:none;stroke:#00ff00;stroke-linecap:square;stroke-width:2;"/>
   </g>
   <g id="patch_3">
    <path d="M 86.4 305.28 
L 86.4 86.4 
" style="fill:none;stroke:#000000;stroke-linecap:square;stroke-linejoin:miter;stroke-width:0.8;"/>
   </g>
   <g id="patch_4">
    <path d="M 547.2 305.28 
L 547.2 86.4 
" style="fill:none;stroke:#000000;stroke-linecap:square;stroke-linejoin:miter;stroke-width:0.8;"/>
   </g>
   <g id="patch_5">
    <path d="M 86.4 305.28 
L 547.2 305.28 
" style="fill:none;stroke:#000000;stroke-linecap:square;stroke-linejoin:miter;stroke-width:0.8;"/>
   </g>
   <g id="patch_6">
    <path d="M 86.4 86.4 
L 547.2 86.4 
" style="fill:none;stroke:#000000;stroke-linecap:square;stroke-linejoin:miter;stroke-width:0.8;"/>
   </g>
   <g id="legend_1">
    <g id="patch_7">
     <path d="M 143.664525 81.768 
L 489.935475 81.768 
Q 491.788275 81.768 491.788275 79.9152 
L 491.788275 38.26738 
Q 491.788275 36.41458 489.935475 36.41458 
L 143.664525 36.41458 
Q 141.811725 36.41458 141.811725 38.26738 
L 141.811725 79.9152 
Q 141.811725 81.768 143.664525 81.768 
z
" style="fill:#ffffff;opacity:0.8;stroke:#cccccc;stroke-linejoin:miter;"/>
    </g>
    <g id="text_11">
     <!-- Phase [mm] -->
     <defs>
      <path d="M 19.671875 64.796875 
L 19.671875 37.40625 
L 32.078125 37.40625 
Q 38.96875 37.40625 42.71875 40.96875 
Q 46.484375 44.53125 46.484375 51.125 
Q 46.484375 57.671875 42.71875 61.234375 
Q 38.96875 64.796875 32.078125 64.796875 
z
M 9.8125 72.90625 
L 32.078125 72.90625 
Q 44.34375 72.90625 50.609375 67.359375 
Q 56.890625 61.8125 56.890625 51.125 
Q 56.890625 40.328125 50.609375 34.8125 
Q 44.34375 29.296875 32.078125 29.296875 
L 19.671875 29.296875 
L 19.671875 0 
L 9.8125 0 
z
" id="DejaVuSans-80"/>
      <path d="M 54.890625 33.015625 
L 54.890625 0 
L 45.90625 0 
L 45.90625 32.71875 
Q 45.90625 40.484375 42.875 44.328125 
Q 39.84375 48.1875 33.796875 48.1875 
Q 26.515625 48.1875 22.3125 43.546875 
Q 18.109375 38.921875 18.109375 30.90625 
L 18.109375 0 
L 9.078125 0 
L 9.078125 75.984375 
L 18.109375 75.984375 
L 18.109375 46.1875 
Q 21.34375 51.125 25.703125 53.5625 
Q 30.078125 56 35.796875 56 
Q 45.21875 56 50.046875 50.171875 
Q 54.890625 44.34375 54.890625 33.015625 
z
" id="DejaVuSans-104"/>
      <path d="M 34.28125 27.484375 
Q 23.390625 27.484375 19.1875 25 
Q 14.984375 22.515625 14.984375 16.5 
Q 14.984375 11.71875 18.140625 8.90625 
Q 21.296875 6.109375 26.703125 6.109375 
Q 34.1875 6.109375 38.703125 11.40625 
Q 43.21875 16.703125 43.21875 25.484375 
L 43.21875 27.484375 
z
M 52.203125 31.203125 
L 52.203125 0 
L 43.21875 0 
L 43.21875 8.296875 
Q 40.140625 3.328125 35.546875 0.953125 
Q 30.953125 -1.421875 24.3125 -1.421875 
Q 15.921875 -1.421875 10.953125 3.296875 
Q 6 8.015625 6 15.921875 
Q 6 25.140625 12.171875 29.828125 
Q 18.359375 34.515625 30.609375 34.515625 
L 43.21875 34.515625 
L 43.21875 35.40625 
Q 43.21875 41.609375 39.140625 45 
Q 35.0625 48.390625 27.6875 48.390625 
Q 23 48.390625 18.546875 47.265625 
Q 14.109375 46.140625 10.015625 43.890625 
L 10.015625 52.203125 
Q 14.9375 54.109375 19.578125 55.046875 
Q 24.21875 56 28.609375 56 
Q 40.484375 56 46.34375 49.84375 
Q 52.203125 43.703125 52.203125 31.203125 
z
" id="DejaVuSans-97"/>
      <path d="M 44.28125 53.078125 
L 44.28125 44.578125 
Q 40.484375 46.53125 36.375 47.5 
Q 32.28125 48.484375 27.875 48.484375 
Q 21.1875 48.484375 17.84375 46.4375 
Q 14.5 44.390625 14.5 40.28125 
Q 14.5 37.15625 16.890625 35.375 
Q 19.28125 33.59375 26.515625 31.984375 
L 29.59375 31.296875 
Q 39.15625 29.25 43.1875 25.515625 
Q 47.21875 21.78125 47.21875 15.09375 
Q 47.21875 7.46875 41.1875 3.015625 
Q 35.15625 -1.421875 24.609375 -1.421875 
Q 20.21875 -1.421875 15.453125 -0.5625 
Q 10.6875 0.296875 5.421875 2 
L 5.421875 11.28125 
Q 10.40625 8.6875 15.234375 7.390625 
Q 20.0625 6.109375 24.8125 6.109375 
Q 31.15625 6.109375 34.5625 8.28125 
Q 37.984375 10.453125 37.984375 14.40625 
Q 37.984375 18.0625 35.515625 20.015625 
Q 33.0625 21.96875 24.703125 23.78125 
L 21.578125 24.515625 
Q 13.234375 26.265625 9.515625 29.90625 
Q 5.8125 33.546875 5.8125 39.890625 
Q 5.8125 47.609375 11.28125 51.796875 
Q 16.75 56 26.8125 56 
Q 31.78125 56 36.171875 55.265625 
Q 40.578125 54.546875 44.28125 53.078125 
z
" id="DejaVuSans-115"/>
      <path d="M 56.203125 29.59375 
L 56.203125 25.203125 
L 14.890625 25.203125 
Q 15.484375 15.921875 20.484375 11.0625 
Q 25.484375 6.203125 34.421875 6.203125 
Q 39.59375 6.203125 44.453125 7.46875 
Q 49.3125 8.734375 54.109375 11.28125 
L 54.109375 2.78125 
Q 49.265625 0.734375 44.1875 -0.34375 
Q 39.109375 -1.421875 33.890625 -1.421875 
Q 20.796875 -1.421875 13.15625 6.1875 
Q 5.515625 13.8125 5.515625 26.8125 
Q 5.515625 40.234375 12.765625 48.109375 
Q 20.015625 56 32.328125 56 
Q 43.359375 56 49.78125 48.890625 
Q 56.203125 41.796875 56.203125 29.59375 
z
M 47.21875 32.234375 
Q 47.125 39.59375 43.09375 43.984375 
Q 39.0625 48.390625 32.421875 48.390625 
Q 24.90625 48.390625 20.390625 44.140625 
Q 15.875 39.890625 15.1875 32.171875 
z
" id="DejaVuSans-101"/>
     </defs>
     <g transform="translate(283.310162 48.557485)scale(0.11104 -0.11104)">
      <use xlink:href="#DejaVuSans-80"/>
      <use x="60.302734" xlink:href="#DejaVuSans-104"/>
      <use x="123.681641" xlink:href="#DejaVuSans-97"/>
      <use x="184.960938" xlink:href="#DejaVuSans-115"/>
      <use x="237.060547" xlink:href="#DejaVuSans-101"/>
      <use x="298.583984" xlink:href="#DejaVuSans-32"/>
      <use x="330.371094" xlink:href="#DejaVuSans-91"/>
      <use x="369.384766" xlink:href="#DejaVuSans-109"/>
      <use x="466.796875" xlink:href="#DejaVuSans-109"/>
      <use x="564.208984" xlink:href="#DejaVuSans-93"/>
     </g>
    </g>
    <g id="line2d_31">
     <path d="M 145.517325 59.295563 
L 164.045325 59.295563 
" style="fill:none;stroke:#0000ff;stroke-linecap:square;stroke-width:2;"/>
    </g>
    <g id="line2d_32"/>
    <g id="text_12">
     <!-- 0.0 -->
     <g transform="translate(171.456525 62.537963)scale(0.09264 -0.09264)">
      <use xlink:href="#DejaVuSans-48"/>
      <use x="63.623047" xlink:href="#DejaVuSans-46"/>
      <use x="95.410156" xlink:href="#DejaVuSans-48"/>
     </g>
    </g>
    <g id="line2d_33">
     <path d="M 145.517325 72.893378 
L 164.045325 72.893378 
" style="fill:none;stroke:#2e00d1;stroke-linecap:square;stroke-width:2;"/>
    </g>
    <g id="line2d_34"/>
    <g id="text_13">
     <!-- 1.0 -->
     <g transform="translate(171.456525 76.135778)scale(0.09264 -0.09264)">
      <use xlink:href="#DejaVuSans-49"/>
      <use x="63.623047" xlink:href="#DejaVuSans-46"/>
      <use x="95.410156" xlink:href="#DejaVuSans-48"/>
     </g>
    </g>
    <g id="line2d_35">
     <path d="M 204.71718 59.295563 
L 223.24518 59.295563 
" style="fill:none;stroke:#5c00a3;stroke-linecap:square;stroke-width:2;"/>
    </g>
    <g id="line2d_36"/>
    <g id="text_14">
     <!-- 2.0 -->
     <g transform="translate(230.65638 62.537963)scale(0.09264 -0.09264)">
      <use xlink:href="#DejaVuSans-50"/>
      <use x="63.623047" xlink:href="#DejaVuSans-46"/>
      <use x="95.410156" xlink:href="#DejaVuSans-48"/>
     </g>
    </g>
    <g id="line2d_37">
     <path d="M 204.71718 72.893378 
L 223.24518 72.893378 
" style="fill:none;stroke:#8a0075;stroke-linecap:square;stroke-width:2;"/>
    </g>
    <g id="line2d_38"/>
    <g id="text_15">
     <!-- 3.0 -->
     <g transform="translate(230.65638 76.135778)scale(0.09264 -0.09264)">
      <use xlink:href="#DejaVuSans-51"/>
      <use x="63.623047" xlink:href="#DejaVuSans-46"/>
      <use x="95.410156" xlink:href="#DejaVuSans-48"/>
     </g>
    </g>
    <g id="line2d_39">
     <path d="M 263.917035 59.295563 
L 282.445035 59.295563 
" style="fill:none;stroke:#ba0045;stroke-linecap:square;stroke-width:2;"/>
    </g>
    <g id="line2d_40"/>
    <g id="text_16">
     <!-- 4.0 -->
     <defs>
      <path d="M 37.796875 64.3125 
L 12.890625 25.390625 
L 37.796875 25.390625 
z
M 35.203125 72.90625 
L 47.609375 72.90625 
L 47.609375 25.390625 
L 58.015625 25.390625 
L 58.015625 17.1875 
L 47.609375 17.1875 
L 47.609375 0 
L 37.796875 0 
L 37.796875 17.1875 
L 4.890625 17.1875 
L 4.890625 26.703125 
z
" id="DejaVuSans-52"/>
     </defs>
     <g transform="translate(289.856235 62.537963)scale(0.09264 -0.09264)">
      <use xlink:href="#DejaVuSans-52"/>
      <use x="63.623047" xlink:href="#DejaVuSans-46"/>
      <use x="95.410156" xlink:href="#DejaVuSans-48"/>
     </g>
    </g>
    <g id="line2d_41">
     <path d="M 263.917035 72.893378 
L 282.445035 72.893378 
" style="fill:none;stroke:#e80017;stroke-linecap:square;stroke-width:2;"/>
    </g>
    <g id="line2d_42"/>
    <g id="text_17">
     <!-- 5.0 -->
     <g transform="translate(289.856235 76.135778)scale(0.09264 -0.09264)">
      <use xlink:href="#DejaVuSans-53"/>
      <use x="63.623047" xlink:href="#DejaVuSans-46"/>
      <use x="95.410156" xlink:href="#DejaVuSans-48"/>
     </g>
    </g>
    <g id="line2d_43">
     <path d="M 323.11689 59.295563 
L 341.64489 59.295563 
" style="fill:none;stroke:#e81700;stroke-linecap:square;stroke-width:2;"/>
    </g>
    <g id="line2d_44"/>
    <g id="text_18">
     <!-- 6.0 -->
     <defs>
      <path d="M 33.015625 40.375 
Q 26.375 40.375 22.484375 35.828125 
Q 18.609375 31.296875 18.609375 23.390625 
Q 18.609375 15.53125 22.484375 10.953125 
Q 26.375 6.390625 33.015625 6.390625 
Q 39.65625 6.390625 43.53125 10.953125 
Q 47.40625 15.53125 47.40625 23.390625 
Q 47.40625 31.296875 43.53125 35.828125 
Q 39.65625 40.375 33.015625 40.375 
z
M 52.59375 71.296875 
L 52.59375 62.3125 
Q 48.875 64.0625 45.09375 64.984375 
Q 41.3125 65.921875 37.59375 65.921875 
Q 27.828125 65.921875 22.671875 59.328125 
Q 17.53125 52.734375 16.796875 39.40625 
Q 19.671875 43.65625 24.015625 45.921875 
Q 28.375 48.1875 33.59375 48.1875 
Q 44.578125 48.1875 50.953125 41.515625 
Q 57.328125 34.859375 57.328125 23.390625 
Q 57.328125 12.15625 50.6875 5.359375 
Q 44.046875 -1.421875 33.015625 -1.421875 
Q 20.359375 -1.421875 13.671875 8.265625 
Q 6.984375 17.96875 6.984375 36.375 
Q 6.984375 53.65625 15.1875 63.9375 
Q 23.390625 74.21875 37.203125 74.21875 
Q 40.921875 74.21875 44.703125 73.484375 
Q 48.484375 72.75 52.59375 71.296875 
z
" id="DejaVuSans-54"/>
     </defs>
     <g transform="translate(349.05609 62.537963)scale(0.09264 -0.09264)">
      <use xlink:href="#DejaVuSans-54"/>
      <use x="63.623047" xlink:href="#DejaVuSans-46"/>
      <use x="95.410156" xlink:href="#DejaVuSans-48"/>
     </g>
    </g>
    <g id="line2d_45">
     <path d="M 323.11689 72.893378 
L 341.64489 72.893378 
" style="fill:none;stroke:#ba4500;stroke-linecap:square;stroke-width:2;"/>
    </g>
    <g id="line2d_46"/>
    <g id="text_19">
     <!-- 7.0 -->
     <defs>
      <path d="M 8.203125 72.90625 
L 55.078125 72.90625 
L 55.078125 68.703125 
L 28.609375 0 
L 18.3125 0 
L 43.21875 64.59375 
L 8.203125 64.59375 
z
" id="DejaVuSans-55"/>
     </defs>
     <g transform="translate(349.05609 76.135778)scale(0.09264 -0.09264)">
      <use xlink:href="#DejaVuSans-55"/>
      <use x="63.623047" xlink:href="#DejaVuSans-46"/>
      <use x="95.410156" xlink:href="#DejaVuSans-48"/>
     </g>
    </g>
    <g id="line2d_47">
     <path d="M 382.316745 59.295563 
L 400.844745 59.295563 
" style="fill:none;stroke:#8a7500;stroke-linecap:square;stroke-width:2;"/>
    </g>
    <g id="line2d_48"/>
    <g id="text_20">
     <!-- 8.0 -->
     <defs>
      <path d="M 31.78125 34.625 
Q 24.75 34.625 20.71875 30.859375 
Q 16.703125 27.09375 16.703125 20.515625 
Q 16.703125 13.921875 20.71875 10.15625 
Q 24.75 6.390625 31.78125 6.390625 
Q 38.8125 6.390625 42.859375 10.171875 
Q 46.921875 13.96875 46.921875 20.515625 
Q 46.921875 27.09375 42.890625 30.859375 
Q 38.875 34.625 31.78125 34.625 
z
M 21.921875 38.8125 
Q 15.578125 40.375 12.03125 44.71875 
Q 8.5 49.078125 8.5 55.328125 
Q 8.5 64.0625 14.71875 69.140625 
Q 20.953125 74.21875 31.78125 74.21875 
Q 42.671875 74.21875 48.875 69.140625 
Q 55.078125 64.0625 55.078125 55.328125 
Q 55.078125 49.078125 51.53125 44.71875 
Q 48 40.375 41.703125 38.8125 
Q 48.828125 37.15625 52.796875 32.3125 
Q 56.78125 27.484375 56.78125 20.515625 
Q 56.78125 9.90625 50.3125 4.234375 
Q 43.84375 -1.421875 31.78125 -1.421875 
Q 19.734375 -1.421875 13.25 4.234375 
Q 6.78125 9.90625 6.78125 20.515625 
Q 6.78125 27.484375 10.78125 32.3125 
Q 14.796875 37.15625 21.921875 38.8125 
z
M 18.3125 54.390625 
Q 18.3125 48.734375 21.84375 45.5625 
Q 25.390625 42.390625 31.78125 42.390625 
Q 38.140625 42.390625 41.71875 45.5625 
Q 45.3125 48.734375 45.3125 54.390625 
Q 45.3125 60.0625 41.71875 63.234375 
Q 38.140625 66.40625 31.78125 66.40625 
Q 25.390625 66.40625 21.84375 63.234375 
Q 18.3125 60.0625 18.3125 54.390625 
z
" id="DejaVuSans-56"/>
     </defs>
     <g transform="translate(408.255945 62.537963)scale(0.09264 -0.09264)">
      <use xlink:href="#DejaVuSans-56"/>
      <use x="63.623047" xlink:href="#DejaVuSans-46"/>
      <use x="95.410156" xlink:href="#DejaVuSans-48"/>
     </g>
    </g>
    <g id="line2d_49">
     <path d="M 382.316745 72.893378 
L 400.844745 72.893378 
" style="fill:none;stroke:#5ca300;stroke-linecap:square;stroke-width:2;"/>
    </g>
    <g id="line2d_50"/>
    <g id="text_21">
     <!-- 9.0 -->
     <defs>
      <path d="M 10.984375 1.515625 
L 10.984375 10.5 
Q 14.703125 8.734375 18.5 7.8125 
Q 22.3125 6.890625 25.984375 6.890625 
Q 35.75 6.890625 40.890625 13.453125 
Q 46.046875 20.015625 46.78125 33.40625 
Q 43.953125 29.203125 39.59375 26.953125 
Q 35.25 24.703125 29.984375 24.703125 
Q 19.046875 24.703125 12.671875 31.3125 
Q 6.296875 37.9375 6.296875 49.421875 
Q 6.296875 60.640625 12.9375 67.421875 
Q 19.578125 74.21875 30.609375 74.21875 
Q 43.265625 74.21875 49.921875 64.515625 
Q 56.59375 54.828125 56.59375 36.375 
Q 56.59375 19.140625 48.40625 8.859375 
Q 40.234375 -1.421875 26.421875 -1.421875 
Q 22.703125 -1.421875 18.890625 -0.6875 
Q 15.09375 0.046875 10.984375 1.515625 
z
M 30.609375 32.421875 
Q 37.25 32.421875 41.125 36.953125 
Q 45.015625 41.5 45.015625 49.421875 
Q 45.015625 57.28125 41.125 61.84375 
Q 37.25 66.40625 30.609375 66.40625 
Q 23.96875 66.40625 20.09375 61.84375 
Q 16.21875 57.28125 16.21875 49.421875 
Q 16.21875 41.5 20.09375 36.953125 
Q 23.96875 32.421875 30.609375 32.421875 
z
" id="DejaVuSans-57"/>
     </defs>
     <g transform="translate(408.255945 76.135778)scale(0.09264 -0.09264)">
      <use xlink:href="#DejaVuSans-57"/>
      <use x="63.623047" xlink:href="#DejaVuSans-46"/>
      <use x="95.410156" xlink:href="#DejaVuSans-48"/>
     </g>
    </g>
    <g id="line2d_51">
     <path d="M 441.5166 59.295563 
L 460.0446 59.295563 
" style="fill:none;stroke:#2ed100;stroke-linecap:square;stroke-width:2;"/>
    </g>
    <g id="line2d_52"/>
    <g id="text_22">
     <!-- 10.0 -->
     <g transform="translate(467.4558 62.537963)scale(0.09264 -0.09264)">
      <use xlink:href="#DejaVuSans-49"/>
      <use x="63.623047" xlink:href="#DejaVuSans-48"/>
      <use x="127.246094" xlink:href="#DejaVuSans-46"/>
      <use x="159.033203" xlink:href="#DejaVuSans-48"/>
     </g>
    </g>
    <g id="line2d_53">
     <path d="M 441.5166 72.893378 
L 460.0446 72.893378 
" style="fill:none;stroke:#00ff00;stroke-linecap:square;stroke-width:2;"/>
    </g>
    <g id="line2d_54"/>
    <g id="text_23">
     <!-- 11.0 -->
     <g transform="translate(467.4558 76.135778)scale(0.09264 -0.09264)">
      <use xlink:href="#DejaVuSans-49"/>
      <use x="63.623047" xlink:href="#DejaVuSans-49"/>
      <use x="127.246094" xlink:href="#DejaVuSans-46"/>
      <use x="159.033203" xlink:href="#DejaVuSans-48"/>
     </g>
    </g>
   </g>
  </g>
  <g id="axes_2">
   <g id="patch_8">
    <path d="M 86.4 524.16 
L 547.2 524.16 
L 547.2 305.28 
L 86.4 305.28 
z
" style="fill:#ffffff;"/>
   </g>
   <g id="matplotlib.axis_3">
    <g id="xtick_6">
     <g id="line2d_55">
      <path clip-path="url(#p717b6f44dd)" d="M 142.254545 524.16 
L 142.254545 305.28 
" style="fill:none;stroke:#b0b0b0;stroke-linecap:square;stroke-width:0.8;"/>
     </g>
     <g id="line2d_56">
      <g>
       <use style="stroke:#000000;stroke-width:0.8;" x="142.254545" xlink:href="#m2698e6a671" y="524.16"/>
      </g>
     </g>
     <g id="text_24">
      <!-- −10 -->
      <g transform="translate(125.370795 543.3175)scale(0.16 -0.16)">
       <use xlink:href="#DejaVuSans-8722"/>
       <use x="83.789062" xlink:href="#DejaVuSans-49"/>
       <use x="147.412109" xlink:href="#DejaVuSans-48"/>
      </g>
     </g>
    </g>
    <g id="xtick_7">
     <g id="line2d_57">
      <path clip-path="url(#p717b6f44dd)" d="M 229.527273 524.16 
L 229.527273 305.28 
" style="fill:none;stroke:#b0b0b0;stroke-linecap:square;stroke-width:0.8;"/>
     </g>
     <g id="line2d_58">
      <g>
       <use style="stroke:#000000;stroke-width:0.8;" x="229.527273" xlink:href="#m2698e6a671" y="524.16"/>
      </g>
     </g>
     <g id="text_25">
      <!-- −5 -->
      <g transform="translate(217.733523 543.3175)scale(0.16 -0.16)">
       <use xlink:href="#DejaVuSans-8722"/>
       <use x="83.789062" xlink:href="#DejaVuSans-53"/>
      </g>
     </g>
    </g>
    <g id="xtick_8">
     <g id="line2d_59">
      <path clip-path="url(#p717b6f44dd)" d="M 316.8 524.16 
L 316.8 305.28 
" style="fill:none;stroke:#b0b0b0;stroke-linecap:square;stroke-width:0.8;"/>
     </g>
     <g id="line2d_60">
      <g>
       <use style="stroke:#000000;stroke-width:0.8;" x="316.8" xlink:href="#m2698e6a671" y="524.16"/>
      </g>
     </g>
     <g id="text_26">
      <!-- 0 -->
      <g transform="translate(311.71 543.3175)scale(0.16 -0.16)">
       <use xlink:href="#DejaVuSans-48"/>
      </g>
     </g>
    </g>
    <g id="xtick_9">
     <g id="line2d_61">
      <path clip-path="url(#p717b6f44dd)" d="M 404.072727 524.16 
L 404.072727 305.28 
" style="fill:none;stroke:#b0b0b0;stroke-linecap:square;stroke-width:0.8;"/>
     </g>
     <g id="line2d_62">
      <g>
       <use style="stroke:#000000;stroke-width:0.8;" x="404.072727" xlink:href="#m2698e6a671" y="524.16"/>
      </g>
     </g>
     <g id="text_27">
      <!-- 5 -->
      <g transform="translate(398.982727 543.3175)scale(0.16 -0.16)">
       <use xlink:href="#DejaVuSans-53"/>
      </g>
     </g>
    </g>
    <g id="xtick_10">
     <g id="line2d_63">
      <path clip-path="url(#p717b6f44dd)" d="M 491.345455 524.16 
L 491.345455 305.28 
" style="fill:none;stroke:#b0b0b0;stroke-linecap:square;stroke-width:0.8;"/>
     </g>
     <g id="line2d_64">
      <g>
       <use style="stroke:#000000;stroke-width:0.8;" x="491.345455" xlink:href="#m2698e6a671" y="524.16"/>
      </g>
     </g>
     <g id="text_28">
      <!-- 10 -->
      <g transform="translate(481.165455 543.3175)scale(0.16 -0.16)">
       <use xlink:href="#DejaVuSans-49"/>
       <use x="63.623047" xlink:href="#DejaVuSans-48"/>
      </g>
     </g>
    </g>
    <g id="text_29">
     <!-- x [mm] -->
     <defs>
      <path d="M 54.890625 54.6875 
L 35.109375 28.078125 
L 55.90625 0 
L 45.3125 0 
L 29.390625 21.484375 
L 13.484375 0 
L 2.875 0 
L 24.125 28.609375 
L 4.6875 54.6875 
L 15.28125 54.6875 
L 29.78125 35.203125 
L 44.28125 54.6875 
z
" id="DejaVuSans-120"/>
     </defs>
     <g transform="translate(287.695 562.8025)scale(0.16 -0.16)">
      <use xlink:href="#DejaVuSans-120"/>
      <use x="59.179688" xlink:href="#DejaVuSans-32"/>
      <use x="90.966797" xlink:href="#DejaVuSans-91"/>
      <use x="129.980469" xlink:href="#DejaVuSans-109"/>
      <use x="227.392578" xlink:href="#DejaVuSans-109"/>
      <use x="324.804688" xlink:href="#DejaVuSans-93"/>
     </g>
    </g>
   </g>
   <g id="matplotlib.axis_4">
    <g id="ytick_5">
     <g id="line2d_65">
      <path clip-path="url(#p717b6f44dd)" d="M 86.4 504.442124 
L 547.2 504.442124 
" style="fill:none;stroke:#b0b0b0;stroke-linecap:square;stroke-width:0.8;"/>
     </g>
     <g id="line2d_66">
      <g>
       <use style="stroke:#000000;stroke-width:0.8;" x="86.4" xlink:href="#m34ac296093" y="504.442124"/>
      </g>
     </g>
     <g id="text_30">
      <!-- −60 -->
      <g transform="translate(45.6325 510.520874)scale(0.16 -0.16)">
       <use xlink:href="#DejaVuSans-8722"/>
       <use x="83.789062" xlink:href="#DejaVuSans-54"/>
       <use x="147.412109" xlink:href="#DejaVuSans-48"/>
      </g>
     </g>
    </g>
    <g id="ytick_6">
     <g id="line2d_67">
      <path clip-path="url(#p717b6f44dd)" d="M 86.4 458.051333 
L 547.2 458.051333 
" style="fill:none;stroke:#b0b0b0;stroke-linecap:square;stroke-width:0.8;"/>
     </g>
     <g id="line2d_68">
      <g>
       <use style="stroke:#000000;stroke-width:0.8;" x="86.4" xlink:href="#m34ac296093" y="458.051333"/>
      </g>
     </g>
     <g id="text_31">
      <!-- −40 -->
      <g transform="translate(45.6325 464.130083)scale(0.16 -0.16)">
       <use xlink:href="#DejaVuSans-8722"/>
       <use x="83.789062" xlink:href="#DejaVuSans-52"/>
       <use x="147.412109" xlink:href="#DejaVuSans-48"/>
      </g>
     </g>
    </g>
    <g id="ytick_7">
     <g id="line2d_69">
      <path clip-path="url(#p717b6f44dd)" d="M 86.4 411.660542 
L 547.2 411.660542 
" style="fill:none;stroke:#b0b0b0;stroke-linecap:square;stroke-width:0.8;"/>
     </g>
     <g id="line2d_70">
      <g>
       <use style="stroke:#000000;stroke-width:0.8;" x="86.4" xlink:href="#m34ac296093" y="411.660542"/>
      </g>
     </g>
     <g id="text_32">
      <!-- −20 -->
      <g transform="translate(45.6325 417.739292)scale(0.16 -0.16)">
       <use xlink:href="#DejaVuSans-8722"/>
       <use x="83.789062" xlink:href="#DejaVuSans-50"/>
       <use x="147.412109" xlink:href="#DejaVuSans-48"/>
      </g>
     </g>
    </g>
    <g id="ytick_8">
     <g id="line2d_71">
      <path clip-path="url(#p717b6f44dd)" d="M 86.4 365.269751 
L 547.2 365.269751 
" style="fill:none;stroke:#b0b0b0;stroke-linecap:square;stroke-width:0.8;"/>
     </g>
     <g id="line2d_72">
      <g>
       <use style="stroke:#000000;stroke-width:0.8;" x="86.4" xlink:href="#m34ac296093" y="365.269751"/>
      </g>
     </g>
     <g id="text_33">
      <!-- 0 -->
      <g transform="translate(69.22 371.348501)scale(0.16 -0.16)">
       <use xlink:href="#DejaVuSans-48"/>
      </g>
     </g>
    </g>
    <g id="ytick_9">
     <g id="line2d_73">
      <path clip-path="url(#p717b6f44dd)" d="M 86.4 318.878961 
L 547.2 318.878961 
" style="fill:none;stroke:#b0b0b0;stroke-linecap:square;stroke-width:0.8;"/>
     </g>
     <g id="line2d_74">
      <g>
       <use style="stroke:#000000;stroke-width:0.8;" x="86.4" xlink:href="#m34ac296093" y="318.878961"/>
      </g>
     </g>
     <g id="text_34">
      <!-- 20 -->
      <g transform="translate(59.04 324.957711)scale(0.16 -0.16)">
       <use xlink:href="#DejaVuSans-50"/>
       <use x="63.623047" xlink:href="#DejaVuSans-48"/>
      </g>
     </g>
    </g>
    <g id="text_35">
     <!-- Ix [G.cm] -->
     <g transform="translate(38.305 451.5325)rotate(-90)scale(0.16 -0.16)">
      <use xlink:href="#DejaVuSans-73"/>
      <use x="29.492188" xlink:href="#DejaVuSans-120"/>
      <use x="88.671875" xlink:href="#DejaVuSans-32"/>
      <use x="120.458984" xlink:href="#DejaVuSans-91"/>
      <use x="159.472656" xlink:href="#DejaVuSans-71"/>
      <use x="236.962891" xlink:href="#DejaVuSans-46"/>
      <use x="268.75" xlink:href="#DejaVuSans-99"/>
      <use x="323.730469" xlink:href="#DejaVuSans-109"/>
      <use x="421.142578" xlink:href="#DejaVuSans-93"/>
     </g>
    </g>
   </g>
   <g id="line2d_75">
    <path clip-path="url(#p717b6f44dd)" d="M 107.345455 399.667916 
L 124.8 385.512234 
L 142.254545 357.549075 
L 159.709091 342.741769 
L 177.163636 346.271692 
L 194.618182 365.93962 
L 212.072727 393.287681 
L 229.527273 419.721377 
L 246.981818 413.729301 
L 264.436364 379.833263 
L 281.890909 339.470973 
L 299.345455 317.863723 
L 316.8 335.529507 
L 334.254545 380.003506 
L 351.709091 413.147796 
L 369.163636 436.896205 
L 386.618182 427.872013 
L 404.072727 388.479261 
L 421.527273 351.771814 
L 438.981818 348.430868 
L 456.436364 365.455546 
L 473.890909 382.023044 
L 491.345455 435.885041 
L 508.8 496.741399 
L 526.254545 500.224029 
" style="fill:none;stroke:#0000ff;stroke-linecap:square;stroke-width:2;"/>
   </g>
   <g id="line2d_76">
    <path clip-path="url(#p717b6f44dd)" d="M 107.345455 404.448319 
L 124.8 388.360211 
L 142.254545 360.571871 
L 159.709091 345.30879 
L 177.163636 348.905814 
L 194.618182 367.229888 
L 212.072727 394.237796 
L 229.527273 420.383889 
L 246.981818 413.846708 
L 264.436364 380.178037 
L 281.890909 339.541262 
L 299.345455 318.053656 
L 316.8 336.377728 
L 334.254545 379.568313 
L 351.709091 412.724535 
L 369.163636 436.542677 
L 386.618182 427.062715 
L 404.072727 387.229945 
L 421.527273 351.795607 
L 438.981818 347.870144 
L 456.436364 364.244623 
L 473.890909 381.825121 
L 491.345455 434.385313 
L 508.8 495.040784 
L 526.254545 498.771813 
" style="fill:none;stroke:#2e00d1;stroke-linecap:square;stroke-width:2;"/>
   </g>
   <g id="line2d_77">
    <path clip-path="url(#p717b6f44dd)" d="M 107.345455 408.372804 
L 124.8 392.206879 
L 142.254545 363.544566 
L 159.709091 347.838446 
L 177.163636 350.551049 
L 194.618182 368.298148 
L 212.072727 395.031258 
L 229.527273 419.922497 
L 246.981818 413.425756 
L 264.436364 379.744918 
L 281.890909 338.557331 
L 299.345455 317.520024 
L 316.8 334.457853 
L 334.254545 378.616473 
L 351.709091 410.599308 
L 369.163636 435.03862 
L 386.618182 425.856587 
L 404.072727 387.201895 
L 421.527273 351.411189 
L 438.981818 347.628642 
L 456.436364 363.996304 
L 473.890909 379.478513 
L 491.345455 431.800738 
L 508.8 492.601873 
L 526.254545 496.136889 
" style="fill:none;stroke:#5c00a3;stroke-linecap:square;stroke-width:2;"/>
   </g>
   <g id="line2d_78">
    <path clip-path="url(#p717b6f44dd)" d="M 107.345455 411.930317 
L 124.8 395.274798 
L 142.254545 365.794462 
L 159.709091 349.312351 
L 177.163636 352.825446 
L 194.618182 370.763449 
L 212.072727 398.654371 
L 229.527273 423.26619 
L 246.981818 415.691292 
L 264.436364 380.193987 
L 281.890909 338.690237 
L 299.345455 317.381422 
L 316.8 335.130242 
L 334.254545 378.573265 
L 351.709091 410.681306 
L 369.163636 435.230065 
L 386.618182 424.909445 
L 404.072727 385.313246 
L 421.527273 349.879012 
L 438.981818 346.087694 
L 456.436364 362.785519 
L 473.890909 378.931579 
L 491.345455 431.008523 
L 508.8 489.183866 
L 526.254545 493.902984 
" style="fill:none;stroke:#8a0075;stroke-linecap:square;stroke-width:2;"/>
   </g>
   <g id="line2d_79">
    <path clip-path="url(#p717b6f44dd)" d="M 107.345455 415.79295 
L 124.8 399.746925 
L 142.254545 369.530839 
L 159.709091 352.129025 
L 177.163636 355.184813 
L 194.618182 373.196228 
L 212.072727 401.100111 
L 229.527273 424.466334 
L 246.981818 417.088392 
L 264.436364 380.970961 
L 281.890909 340.780926 
L 299.345455 320.541426 
L 316.8 336.76878 
L 334.254545 380.595203 
L 351.709091 412.214346 
L 369.163636 436.179635 
L 386.618182 425.593538 
L 404.072727 386.580612 
L 421.527273 351.892542 
L 438.981818 348.032799 
L 456.436364 363.847638 
L 473.890909 379.883187 
L 491.345455 431.707665 
L 508.8 490.174416 
L 526.254545 494.546573 
" style="fill:none;stroke:#ba0045;stroke-linecap:square;stroke-width:2;"/>
   </g>
   <g id="line2d_80">
    <path clip-path="url(#p717b6f44dd)" d="M 107.345455 417.768336 
L 124.8 402.775109 
L 142.254545 373.09158 
L 159.709091 356.159262 
L 177.163636 357.340829 
L 194.618182 374.781251 
L 212.072727 401.98014 
L 229.527273 426.349231 
L 246.981818 419.929495 
L 264.436364 383.714024 
L 281.890909 342.687625 
L 299.345455 320.077304 
L 316.8 336.406302 
L 334.254545 380.111029 
L 351.709091 411.161806 
L 369.163636 435.551917 
L 386.618182 425.845201 
L 404.072727 387.958646 
L 421.527273 352.040088 
L 438.981818 347.428059 
L 456.436364 364.190591 
L 473.890909 380.156997 
L 491.345455 431.988525 
L 508.8 490.118126 
L 526.254545 494.358081 
" style="fill:none;stroke:#e80017;stroke-linecap:square;stroke-width:2;"/>
   </g>
   <g id="line2d_81">
    <path clip-path="url(#p717b6f44dd)" d="M 107.345455 419.079464 
L 124.8 402.105431 
L 142.254545 372.138389 
L 159.709091 354.630963 
L 177.163636 357.160836 
L 194.618182 374.675308 
L 212.072727 402.245194 
L 229.527273 425.195946 
L 246.981818 417.334089 
L 264.436364 380.404161 
L 281.890909 339.580288 
L 299.345455 317.343367 
L 316.8 333.91719 
L 334.254545 377.499027 
L 351.709091 408.019592 
L 369.163636 431.674513 
L 386.618182 421.508347 
L 404.072727 382.702381 
L 421.527273 346.445108 
L 438.981818 342.981672 
L 456.436364 359.710516 
L 473.890909 376.195019 
L 491.345455 428.547423 
L 508.8 486.52004 
L 526.254545 489.123494 
" style="fill:none;stroke:#e81700;stroke-linecap:square;stroke-width:2;"/>
   </g>
   <g id="line2d_82">
    <path clip-path="url(#p717b6f44dd)" d="M 107.345455 420.252842 
L 124.8 404.681362 
L 142.254545 373.318695 
L 159.709091 355.79762 
L 177.163636 356.671539 
L 194.618182 373.919893 
L 212.072727 402.366553 
L 229.527273 425.679125 
L 246.981818 417.461972 
L 264.436364 380.744489 
L 281.890909 339.64699 
L 299.345455 316.702787 
L 316.8 332.852858 
L 334.254545 375.866248 
L 351.709091 407.736509 
L 369.163636 432.467918 
L 386.618182 422.739965 
L 404.072727 383.875826 
L 421.527273 348.755856 
L 438.981818 345.226123 
L 456.436364 361.678354 
L 473.890909 377.008646 
L 491.345455 428.046353 
L 508.8 486.254442 
L 526.254545 489.00963 
" style="fill:none;stroke:#ba4500;stroke-linecap:square;stroke-width:2;"/>
   </g>
   <g id="line2d_83">
    <path clip-path="url(#p717b6f44dd)" d="M 107.345455 417.331823 
L 124.8 401.026226 
L 142.254545 369.694002 
L 159.709091 351.961673 
L 177.163636 354.505658 
L 194.618182 372.472965 
L 212.072727 401.546641 
L 229.527273 424.246044 
L 246.981818 415.625856 
L 264.436364 379.427517 
L 281.890909 337.974203 
L 299.345455 316.287504 
L 316.8 332.602124 
L 334.254545 376.476408 
L 351.709091 408.343098 
L 369.163636 433.073545 
L 386.618182 422.987222 
L 404.072727 384.077312 
L 421.527273 348.953624 
L 438.981818 345.420242 
L 456.436364 361.406427 
L 473.890909 376.733115 
L 491.345455 429.530329 
L 508.8 487.913572 
L 526.254545 491.921066 
" style="fill:none;stroke:#8a7500;stroke-linecap:square;stroke-width:2;"/>
   </g>
   <g id="line2d_84">
    <path clip-path="url(#p717b6f44dd)" d="M 107.345455 411.551455 
L 124.8 394.986246 
L 142.254545 364.329777 
L 159.709091 347.890682 
L 177.163636 352.405812 
L 194.618182 370.893912 
L 212.072727 399.355947 
L 229.527273 422.087435 
L 246.981818 414.150913 
L 264.436364 379.366648 
L 281.890909 337.343646 
L 299.345455 316.437815 
L 316.8 335.201799 
L 334.254545 378.955802 
L 351.709091 411.225065 
L 369.163636 435.104764 
L 386.618182 425.229159 
L 404.072727 386.48526 
L 421.527273 352.105639 
L 438.981818 349.946957 
L 456.436364 366.00463 
L 473.890909 382.472197 
L 491.345455 436.376175 
L 508.8 494.189853 
L 526.254545 496.710725 
" style="fill:none;stroke:#5ca300;stroke-linecap:square;stroke-width:2;"/>
   </g>
   <g id="line2d_85">
    <path clip-path="url(#p717b6f44dd)" d="M 107.345455 402.180396 
L 124.8 387.181249 
L 142.254545 356.561649 
L 159.709091 340.994959 
L 177.163636 344.916347 
L 194.618182 364.542213 
L 212.072727 394.817273 
L 229.527273 420.01866 
L 246.981818 414.168435 
L 264.436364 379.103113 
L 281.890909 338.835363 
L 299.345455 318.29746 
L 316.8 337.077274 
L 334.254545 381.359457 
L 351.709091 414.335572 
L 369.163636 440.041437 
L 386.618182 430.741325 
L 404.072727 393.813109 
L 421.527273 360.387352 
L 438.981818 358.646512 
L 456.436364 376.301762 
L 473.890909 394.006939 
L 491.345455 448.814824 
L 508.8 507.398405 
L 526.254545 511.080696 
" style="fill:none;stroke:#2ed100;stroke-linecap:square;stroke-width:2;"/>
   </g>
   <g id="line2d_86">
    <path clip-path="url(#p717b6f44dd)" d="M 107.345455 387.797334 
L 124.8 373.089667 
L 142.254545 344.637578 
L 159.709091 329.903631 
L 177.163636 334.957291 
L 194.618182 355.852056 
L 212.072727 387.151658 
L 229.527273 413.572021 
L 246.981818 408.212962 
L 264.436364 374.802791 
L 281.890909 335.798695 
L 299.345455 315.229091 
L 316.8 332.694987 
L 334.254545 379.078978 
L 351.709091 412.971908 
L 369.163636 439.444821 
L 386.618182 432.007423 
L 404.072727 395.231432 
L 421.527273 362.323121 
L 438.981818 360.466498 
L 456.436364 378.10318 
L 473.890909 396.28901 
L 491.345455 450.899653 
L 508.8 509.864039 
L 526.254545 514.210909 
" style="fill:none;stroke:#00ff00;stroke-linecap:square;stroke-width:2;"/>
   </g>
   <g id="patch_9">
    <path d="M 86.4 524.16 
L 86.4 305.28 
" style="fill:none;stroke:#000000;stroke-linecap:square;stroke-linejoin:miter;stroke-width:0.8;"/>
   </g>
   <g id="patch_10">
    <path d="M 547.2 524.16 
L 547.2 305.28 
" style="fill:none;stroke:#000000;stroke-linecap:square;stroke-linejoin:miter;stroke-width:0.8;"/>
   </g>
   <g id="patch_11">
    <path d="M 86.4 524.16 
L 547.2 524.16 
" style="fill:none;stroke:#000000;stroke-linecap:square;stroke-linejoin:miter;stroke-width:0.8;"/>
   </g>
   <g id="patch_12">
    <path d="M 86.4 305.28 
L 547.2 305.28 
" style="fill:none;stroke:#000000;stroke-linecap:square;stroke-linejoin:miter;stroke-width:0.8;"/>
   </g>
  </g>
  <g id="text_36">
   <!-- Integrals (Coil) for 1991d @ y=+01.0 -->
   <defs>
    <path d="M 54.890625 33.015625 
L 54.890625 0 
L 45.90625 0 
L 45.90625 32.71875 
Q 45.90625 40.484375 42.875 44.328125 
Q 39.84375 48.1875 33.796875 48.1875 
Q 26.515625 48.1875 22.3125 43.546875 
Q 18.109375 38.921875 18.109375 30.90625 
L 18.109375 0 
L 9.078125 0 
L 9.078125 54.6875 
L 18.109375 54.6875 
L 18.109375 46.1875 
Q 21.34375 51.125 25.703125 53.5625 
Q 30.078125 56 35.796875 56 
Q 45.21875 56 50.046875 50.171875 
Q 54.890625 44.34375 54.890625 33.015625 
z
" id="DejaVuSans-110"/>
    <path d="M 18.3125 70.21875 
L 18.3125 54.6875 
L 36.8125 54.6875 
L 36.8125 47.703125 
L 18.3125 47.703125 
L 18.3125 18.015625 
Q 18.3125 11.328125 20.140625 9.421875 
Q 21.96875 7.515625 27.59375 7.515625 
L 36.8125 7.515625 
L 36.8125 0 
L 27.59375 0 
Q 17.1875 0 13.234375 3.875 
Q 9.28125 7.765625 9.28125 18.015625 
L 9.28125 47.703125 
L 2.6875 47.703125 
L 2.6875 54.6875 
L 9.28125 54.6875 
L 9.28125 70.21875 
z
" id="DejaVuSans-116"/>
    <path d="M 45.40625 27.984375 
Q 45.40625 37.75 41.375 43.109375 
Q 37.359375 48.484375 30.078125 48.484375 
Q 22.859375 48.484375 18.828125 43.109375 
Q 14.796875 37.75 14.796875 27.984375 
Q 14.796875 18.265625 18.828125 12.890625 
Q 22.859375 7.515625 30.078125 7.515625 
Q 37.359375 7.515625 41.375 12.890625 
Q 45.40625 18.265625 45.40625 27.984375 
z
M 54.390625 6.78125 
Q 54.390625 -7.171875 48.1875 -13.984375 
Q 42 -20.796875 29.203125 -20.796875 
Q 24.46875 -20.796875 20.265625 -20.09375 
Q 16.0625 -19.390625 12.109375 -17.921875 
L 12.109375 -9.1875 
Q 16.0625 -11.328125 19.921875 -12.34375 
Q 23.78125 -13.375 27.78125 -13.375 
Q 36.625 -13.375 41.015625 -8.765625 
Q 45.40625 -4.15625 45.40625 5.171875 
L 45.40625 9.625 
Q 42.625 4.78125 38.28125 2.390625 
Q 33.9375 0 27.875 0 
Q 17.828125 0 11.671875 7.65625 
Q 5.515625 15.328125 5.515625 27.984375 
Q 5.515625 40.671875 11.671875 48.328125 
Q 17.828125 56 27.875 56 
Q 33.9375 56 38.28125 53.609375 
Q 42.625 51.21875 45.40625 46.390625 
L 45.40625 54.6875 
L 54.390625 54.6875 
z
" id="DejaVuSans-103"/>
    <path d="M 41.109375 46.296875 
Q 39.59375 47.171875 37.8125 47.578125 
Q 36.03125 48 33.890625 48 
Q 26.265625 48 22.1875 43.046875 
Q 18.109375 38.09375 18.109375 28.8125 
L 18.109375 0 
L 9.078125 0 
L 9.078125 54.6875 
L 18.109375 54.6875 
L 18.109375 46.1875 
Q 20.953125 51.171875 25.484375 53.578125 
Q 30.03125 56 36.53125 56 
Q 37.453125 56 38.578125 55.875 
Q 39.703125 55.765625 41.0625 55.515625 
z
" id="DejaVuSans-114"/>
    <path d="M 9.421875 75.984375 
L 18.40625 75.984375 
L 18.40625 0 
L 9.421875 0 
z
" id="DejaVuSans-108"/>
    <path d="M 31 75.875 
Q 24.46875 64.65625 21.28125 53.65625 
Q 18.109375 42.671875 18.109375 31.390625 
Q 18.109375 20.125 21.3125 9.0625 
Q 24.515625 -2 31 -13.1875 
L 23.1875 -13.1875 
Q 15.875 -1.703125 12.234375 9.375 
Q 8.59375 20.453125 8.59375 31.390625 
Q 8.59375 42.28125 12.203125 53.3125 
Q 15.828125 64.359375 23.1875 75.875 
z
" id="DejaVuSans-40"/>
    <path d="M 64.40625 67.28125 
L 64.40625 56.890625 
Q 59.421875 61.53125 53.78125 63.8125 
Q 48.140625 66.109375 41.796875 66.109375 
Q 29.296875 66.109375 22.65625 58.46875 
Q 16.015625 50.828125 16.015625 36.375 
Q 16.015625 21.96875 22.65625 14.328125 
Q 29.296875 6.6875 41.796875 6.6875 
Q 48.140625 6.6875 53.78125 8.984375 
Q 59.421875 11.28125 64.40625 15.921875 
L 64.40625 5.609375 
Q 59.234375 2.09375 53.4375 0.328125 
Q 47.65625 -1.421875 41.21875 -1.421875 
Q 24.65625 -1.421875 15.125 8.703125 
Q 5.609375 18.84375 5.609375 36.375 
Q 5.609375 53.953125 15.125 64.078125 
Q 24.65625 74.21875 41.21875 74.21875 
Q 47.75 74.21875 53.53125 72.484375 
Q 59.328125 70.75 64.40625 67.28125 
z
" id="DejaVuSans-67"/>
    <path d="M 30.609375 48.390625 
Q 23.390625 48.390625 19.1875 42.75 
Q 14.984375 37.109375 14.984375 27.296875 
Q 14.984375 17.484375 19.15625 11.84375 
Q 23.34375 6.203125 30.609375 6.203125 
Q 37.796875 6.203125 41.984375 11.859375 
Q 46.1875 17.53125 46.1875 27.296875 
Q 46.1875 37.015625 41.984375 42.703125 
Q 37.796875 48.390625 30.609375 48.390625 
z
M 30.609375 56 
Q 42.328125 56 49.015625 48.375 
Q 55.71875 40.765625 55.71875 27.296875 
Q 55.71875 13.875 49.015625 6.21875 
Q 42.328125 -1.421875 30.609375 -1.421875 
Q 18.84375 -1.421875 12.171875 6.21875 
Q 5.515625 13.875 5.515625 27.296875 
Q 5.515625 40.765625 12.171875 48.375 
Q 18.84375 56 30.609375 56 
z
" id="DejaVuSans-111"/>
    <path d="M 9.421875 54.6875 
L 18.40625 54.6875 
L 18.40625 0 
L 9.421875 0 
z
M 9.421875 75.984375 
L 18.40625 75.984375 
L 18.40625 64.59375 
L 9.421875 64.59375 
z
" id="DejaVuSans-105"/>
    <path d="M 8.015625 75.875 
L 15.828125 75.875 
Q 23.140625 64.359375 26.78125 53.3125 
Q 30.421875 42.28125 30.421875 31.390625 
Q 30.421875 20.453125 26.78125 9.375 
Q 23.140625 -1.703125 15.828125 -13.1875 
L 8.015625 -13.1875 
Q 14.5 -2 17.703125 9.0625 
Q 20.90625 20.125 20.90625 31.390625 
Q 20.90625 42.671875 17.703125 53.65625 
Q 14.5 64.65625 8.015625 75.875 
z
" id="DejaVuSans-41"/>
    <path d="M 37.109375 75.984375 
L 37.109375 68.5 
L 28.515625 68.5 
Q 23.6875 68.5 21.796875 66.546875 
Q 19.921875 64.59375 19.921875 59.515625 
L 19.921875 54.6875 
L 34.71875 54.6875 
L 34.71875 47.703125 
L 19.921875 47.703125 
L 19.921875 0 
L 10.890625 0 
L 10.890625 47.703125 
L 2.296875 47.703125 
L 2.296875 54.6875 
L 10.890625 54.6875 
L 10.890625 58.5 
Q 10.890625 67.625 15.140625 71.796875 
Q 19.390625 75.984375 28.609375 75.984375 
z
" id="DejaVuSans-102"/>
    <path d="M 45.40625 46.390625 
L 45.40625 75.984375 
L 54.390625 75.984375 
L 54.390625 0 
L 45.40625 0 
L 45.40625 8.203125 
Q 42.578125 3.328125 38.25 0.953125 
Q 33.9375 -1.421875 27.875 -1.421875 
Q 17.96875 -1.421875 11.734375 6.484375 
Q 5.515625 14.40625 5.515625 27.296875 
Q 5.515625 40.1875 11.734375 48.09375 
Q 17.96875 56 27.875 56 
Q 33.9375 56 38.25 53.625 
Q 42.578125 51.265625 45.40625 46.390625 
z
M 14.796875 27.296875 
Q 14.796875 17.390625 18.875 11.75 
Q 22.953125 6.109375 30.078125 6.109375 
Q 37.203125 6.109375 41.296875 11.75 
Q 45.40625 17.390625 45.40625 27.296875 
Q 45.40625 37.203125 41.296875 42.84375 
Q 37.203125 48.484375 30.078125 48.484375 
Q 22.953125 48.484375 18.875 42.84375 
Q 14.796875 37.203125 14.796875 27.296875 
z
" id="DejaVuSans-100"/>
    <path d="M 37.203125 26.21875 
Q 37.203125 19.234375 40.671875 15.25 
Q 44.140625 11.28125 50.203125 11.28125 
Q 56.203125 11.28125 59.640625 15.28125 
Q 63.09375 19.28125 63.09375 26.21875 
Q 63.09375 33.0625 59.578125 37.078125 
Q 56.0625 41.109375 50.09375 41.109375 
Q 44.1875 41.109375 40.6875 37.109375 
Q 37.203125 33.109375 37.203125 26.21875 
z
M 63.8125 11.625 
Q 60.890625 7.859375 57.109375 6.078125 
Q 53.328125 4.296875 48.296875 4.296875 
Q 39.890625 4.296875 34.640625 10.375 
Q 29.390625 16.453125 29.390625 26.21875 
Q 29.390625 35.984375 34.65625 42.078125 
Q 39.9375 48.1875 48.296875 48.1875 
Q 53.328125 48.1875 57.125 46.359375 
Q 60.9375 44.53125 63.8125 40.828125 
L 63.8125 47.21875 
L 70.796875 47.21875 
L 70.796875 11.28125 
Q 77.9375 12.359375 81.953125 17.796875 
Q 85.984375 23.25 85.984375 31.890625 
Q 85.984375 37.109375 84.4375 41.703125 
Q 82.90625 46.296875 79.78125 50.203125 
Q 74.703125 56.59375 67.40625 59.984375 
Q 60.109375 63.375 51.515625 63.375 
Q 45.515625 63.375 39.984375 61.78125 
Q 34.46875 60.203125 29.78125 57.078125 
Q 22.125 52.09375 17.796875 44.015625 
Q 13.484375 35.9375 13.484375 26.515625 
Q 13.484375 18.75 16.28125 11.953125 
Q 19.09375 5.171875 24.421875 0 
Q 29.546875 -5.078125 36.28125 -7.734375 
Q 43.015625 -10.40625 50.6875 -10.40625 
Q 56.984375 -10.40625 63.0625 -8.28125 
Q 69.140625 -6.15625 74.21875 -2.203125 
L 78.609375 -7.625 
Q 72.515625 -12.359375 65.3125 -14.875 
Q 58.109375 -17.390625 50.6875 -17.390625 
Q 41.65625 -17.390625 33.640625 -14.1875 
Q 25.640625 -10.984375 19.390625 -4.890625 
Q 13.140625 1.21875 9.859375 9.25 
Q 6.59375 17.28125 6.59375 26.515625 
Q 6.59375 35.40625 9.90625 43.453125 
Q 13.234375 51.515625 19.390625 57.625 
Q 25.6875 63.8125 33.9375 67.109375 
Q 42.1875 70.40625 51.421875 70.40625 
Q 61.765625 70.40625 70.625 66.15625 
Q 79.5 61.921875 85.5 54.109375 
Q 89.15625 49.3125 91.078125 43.703125 
Q 93.015625 38.09375 93.015625 32.078125 
Q 93.015625 19.234375 85.25 11.8125 
Q 77.484375 4.390625 63.8125 4.109375 
z
" id="DejaVuSans-64"/>
    <path d="M 10.59375 45.40625 
L 73.1875 45.40625 
L 73.1875 37.203125 
L 10.59375 37.203125 
z
M 10.59375 25.484375 
L 73.1875 25.484375 
L 73.1875 17.1875 
L 10.59375 17.1875 
z
" id="DejaVuSans-61"/>
    <path d="M 46 62.703125 
L 46 35.5 
L 73.1875 35.5 
L 73.1875 27.203125 
L 46 27.203125 
L 46 0 
L 37.796875 0 
L 37.796875 27.203125 
L 10.59375 27.203125 
L 10.59375 35.5 
L 37.796875 35.5 
L 37.796875 62.703125 
z
" id="DejaVuSans-43"/>
   </defs>
   <g transform="translate(108.6915 26.109)scale(0.192 -0.192)">
    <use xlink:href="#DejaVuSans-73"/>
    <use x="29.492188" xlink:href="#DejaVuSans-110"/>
    <use x="92.871094" xlink:href="#DejaVuSans-116"/>
    <use x="132.080078" xlink:href="#DejaVuSans-101"/>
    <use x="193.603516" xlink:href="#DejaVuSans-103"/>
    <use x="257.080078" xlink:href="#DejaVuSans-114"/>
    <use x="298.193359" xlink:href="#DejaVuSans-97"/>
    <use x="359.472656" xlink:href="#DejaVuSans-108"/>
    <use x="387.255859" xlink:href="#DejaVuSans-115"/>
    <use x="439.355469" xlink:href="#DejaVuSans-32"/>
    <use x="471.142578" xlink:href="#DejaVuSans-40"/>
    <use x="510.15625" xlink:href="#DejaVuSans-67"/>
    <use x="579.980469" xlink:href="#DejaVuSans-111"/>
    <use x="641.162109" xlink:href="#DejaVuSans-105"/>
    <use x="668.945312" xlink:href="#DejaVuSans-108"/>
    <use x="696.728516" xlink:href="#DejaVuSans-41"/>
    <use x="735.742188" xlink:href="#DejaVuSans-32"/>
    <use x="767.529297" xlink:href="#DejaVuSans-102"/>
    <use x="802.734375" xlink:href="#DejaVuSans-111"/>
    <use x="863.916016" xlink:href="#DejaVuSans-114"/>
    <use x="905.029297" xlink:href="#DejaVuSans-32"/>
    <use x="936.816406" xlink:href="#DejaVuSans-49"/>
    <use x="1000.439453" xlink:href="#DejaVuSans-57"/>
    <use x="1064.0625" xlink:href="#DejaVuSans-57"/>
    <use x="1127.685547" xlink:href="#DejaVuSans-49"/>
    <use x="1191.308594" xlink:href="#DejaVuSans-100"/>
    <use x="1254.785156" xlink:href="#DejaVuSans-32"/>
    <use x="1286.572266" xlink:href="#DejaVuSans-64"/>
    <use x="1386.572266" xlink:href="#DejaVuSans-32"/>
    <use x="1418.359375" xlink:href="#DejaVuSans-121"/>
    <use x="1477.539062" xlink:href="#DejaVuSans-61"/>
    <use x="1561.328125" xlink:href="#DejaVuSans-43"/>
    <use x="1645.117188" xlink:href="#DejaVuSans-48"/>
    <use x="1708.740234" xlink:href="#DejaVuSans-49"/>
    <use x="1772.363281" xlink:href="#DejaVuSans-46"/>
    <use x="1804.150391" xlink:href="#DejaVuSans-48"/>
   </g>
  </g>
 </g>
 <defs>
  <clipPath id="p54da3dcdac">
   <rect height="218.88" width="460.8" x="86.4" y="86.4"/>
  </clipPath>
  <clipPath id="p717b6f44dd">
   <rect height="218.88" width="460.8" x="86.4" y="305.28"/>
  </clipPath>
 </defs>
</svg>
