<?xml version="1.0" encoding="utf-8" standalone="no"?>
<!DOCTYPE svg PUBLIC "-//W3C//DTD SVG 1.1//EN"
  "http://www.w3.org/Graphics/SVG/1.1/DTD/svg11.dtd">
<!-- Created with matplotlib (https://matplotlib.org/) -->
<svg height="576pt" version="1.1" viewBox="0 0 576 576" width="576pt" xmlns="http://www.w3.org/2000/svg" xmlns:xlink="http://www.w3.org/1999/xlink">
 <defs>
  <style type="text/css">
*{stroke-linecap:butt;stroke-linejoin:round;}
  </style>
 </defs>
 <g id="figure_1">
  <g id="patch_1">
   <path d="M 0 576 
L 576 576 
L 576 0 
L 0 0 
z
" style="fill:#ffffff;"/>
  </g>
  <g id="axes_1">
   <g id="patch_2">
    <path d="M 86.4 305.28 
L 547.2 305.28 
L 547.2 86.4 
L 86.4 86.4 
z
" style="fill:#ffffff;"/>
   </g>
   <g id="matplotlib.axis_1">
    <g id="xtick_1">
     <g id="line2d_1">
      <path clip-path="url(#pe2d58321bd)" d="M 142.254545 305.28 
L 142.254545 86.4 
" style="fill:none;stroke:#b0b0b0;stroke-linecap:square;stroke-width:0.8;"/>
     </g>
     <g id="line2d_2">
      <defs>
       <path d="M 0 0 
L 0 3.5 
" id="m27f0ddbc47" style="stroke:#000000;stroke-width:0.8;"/>
      </defs>
      <g>
       <use style="stroke:#000000;stroke-width:0.8;" x="142.254545" xlink:href="#m27f0ddbc47" y="305.28"/>
      </g>
     </g>
     <g id="text_1">
      <!-- −10 -->
      <defs>
       <path d="M 10.59375 35.5 
L 73.1875 35.5 
L 73.1875 27.203125 
L 10.59375 27.203125 
z
" id="DejaVuSans-8722"/>
       <path d="M 12.40625 8.296875 
L 28.515625 8.296875 
L 28.515625 63.921875 
L 10.984375 60.40625 
L 10.984375 69.390625 
L 28.421875 72.90625 
L 38.28125 72.90625 
L 38.28125 8.296875 
L 54.390625 8.296875 
L 54.390625 0 
L 12.40625 0 
z
" id="DejaVuSans-49"/>
       <path d="M 31.78125 66.40625 
Q 24.171875 66.40625 20.328125 58.90625 
Q 16.5 51.421875 16.5 36.375 
Q 16.5 21.390625 20.328125 13.890625 
Q 24.171875 6.390625 31.78125 6.390625 
Q 39.453125 6.390625 43.28125 13.890625 
Q 47.125 21.390625 47.125 36.375 
Q 47.125 51.421875 43.28125 58.90625 
Q 39.453125 66.40625 31.78125 66.40625 
z
M 31.78125 74.21875 
Q 44.046875 74.21875 50.515625 64.515625 
Q 56.984375 54.828125 56.984375 36.375 
Q 56.984375 17.96875 50.515625 8.265625 
Q 44.046875 -1.421875 31.78125 -1.421875 
Q 19.53125 -1.421875 13.0625 8.265625 
Q 6.59375 17.96875 6.59375 36.375 
Q 6.59375 54.828125 13.0625 64.515625 
Q 19.53125 74.21875 31.78125 74.21875 
z
" id="DejaVuSans-48"/>
      </defs>
      <g transform="translate(125.370795 324.4375)scale(0.16 -0.16)">
       <use xlink:href="#DejaVuSans-8722"/>
       <use x="83.789062" xlink:href="#DejaVuSans-49"/>
       <use x="147.412109" xlink:href="#DejaVuSans-48"/>
      </g>
     </g>
    </g>
    <g id="xtick_2">
     <g id="line2d_3">
      <path clip-path="url(#pe2d58321bd)" d="M 229.527273 305.28 
L 229.527273 86.4 
" style="fill:none;stroke:#b0b0b0;stroke-linecap:square;stroke-width:0.8;"/>
     </g>
     <g id="line2d_4">
      <g>
       <use style="stroke:#000000;stroke-width:0.8;" x="229.527273" xlink:href="#m27f0ddbc47" y="305.28"/>
      </g>
     </g>
     <g id="text_2">
      <!-- −5 -->
      <defs>
       <path d="M 10.796875 72.90625 
L 49.515625 72.90625 
L 49.515625 64.59375 
L 19.828125 64.59375 
L 19.828125 46.734375 
Q 21.96875 47.46875 24.109375 47.828125 
Q 26.265625 48.1875 28.421875 48.1875 
Q 40.625 48.1875 47.75 41.5 
Q 54.890625 34.8125 54.890625 23.390625 
Q 54.890625 11.625 47.5625 5.09375 
Q 40.234375 -1.421875 26.90625 -1.421875 
Q 22.3125 -1.421875 17.546875 -0.640625 
Q 12.796875 0.140625 7.71875 1.703125 
L 7.71875 11.625 
Q 12.109375 9.234375 16.796875 8.0625 
Q 21.484375 6.890625 26.703125 6.890625 
Q 35.15625 6.890625 40.078125 11.328125 
Q 45.015625 15.765625 45.015625 23.390625 
Q 45.015625 31 40.078125 35.4375 
Q 35.15625 39.890625 26.703125 39.890625 
Q 22.75 39.890625 18.8125 39.015625 
Q 14.890625 38.140625 10.796875 36.28125 
z
" id="DejaVuSans-53"/>
      </defs>
      <g transform="translate(217.733523 324.4375)scale(0.16 -0.16)">
       <use xlink:href="#DejaVuSans-8722"/>
       <use x="83.789062" xlink:href="#DejaVuSans-53"/>
      </g>
     </g>
    </g>
    <g id="xtick_3">
     <g id="line2d_5">
      <path clip-path="url(#pe2d58321bd)" d="M 316.8 305.28 
L 316.8 86.4 
" style="fill:none;stroke:#b0b0b0;stroke-linecap:square;stroke-width:0.8;"/>
     </g>
     <g id="line2d_6">
      <g>
       <use style="stroke:#000000;stroke-width:0.8;" x="316.8" xlink:href="#m27f0ddbc47" y="305.28"/>
      </g>
     </g>
     <g id="text_3">
      <!-- 0 -->
      <g transform="translate(311.71 324.4375)scale(0.16 -0.16)">
       <use xlink:href="#DejaVuSans-48"/>
      </g>
     </g>
    </g>
    <g id="xtick_4">
     <g id="line2d_7">
      <path clip-path="url(#pe2d58321bd)" d="M 404.072727 305.28 
L 404.072727 86.4 
" style="fill:none;stroke:#b0b0b0;stroke-linecap:square;stroke-width:0.8;"/>
     </g>
     <g id="line2d_8">
      <g>
       <use style="stroke:#000000;stroke-width:0.8;" x="404.072727" xlink:href="#m27f0ddbc47" y="305.28"/>
      </g>
     </g>
     <g id="text_4">
      <!-- 5 -->
      <g transform="translate(398.982727 324.4375)scale(0.16 -0.16)">
       <use xlink:href="#DejaVuSans-53"/>
      </g>
     </g>
    </g>
    <g id="xtick_5">
     <g id="line2d_9">
      <path clip-path="url(#pe2d58321bd)" d="M 491.345455 305.28 
L 491.345455 86.4 
" style="fill:none;stroke:#b0b0b0;stroke-linecap:square;stroke-width:0.8;"/>
     </g>
     <g id="line2d_10">
      <g>
       <use style="stroke:#000000;stroke-width:0.8;" x="491.345455" xlink:href="#m27f0ddbc47" y="305.28"/>
      </g>
     </g>
     <g id="text_5">
      <!-- 10 -->
      <g transform="translate(481.165455 324.4375)scale(0.16 -0.16)">
       <use xlink:href="#DejaVuSans-49"/>
       <use x="63.623047" xlink:href="#DejaVuSans-48"/>
      </g>
     </g>
    </g>
   </g>
   <g id="matplotlib.axis_2">
    <g id="ytick_1">
     <g id="line2d_11">
      <path clip-path="url(#pe2d58321bd)" d="M 86.4 270.756206 
L 547.2 270.756206 
" style="fill:none;stroke:#b0b0b0;stroke-linecap:square;stroke-width:0.8;"/>
     </g>
     <g id="line2d_12">
      <defs>
       <path d="M 0 0 
L -3.5 0 
" id="m6acbb28e1f" style="stroke:#000000;stroke-width:0.8;"/>
      </defs>
      <g>
       <use style="stroke:#000000;stroke-width:0.8;" x="86.4" xlink:href="#m6acbb28e1f" y="270.756206"/>
      </g>
     </g>
     <g id="text_6">
      <!-- −5 -->
      <g transform="translate(55.8125 276.834956)scale(0.16 -0.16)">
       <use xlink:href="#DejaVuSans-8722"/>
       <use x="83.789062" xlink:href="#DejaVuSans-53"/>
      </g>
     </g>
    </g>
    <g id="ytick_2">
     <g id="line2d_13">
      <path clip-path="url(#pe2d58321bd)" d="M 86.4 215.113593 
L 547.2 215.113593 
" style="fill:none;stroke:#b0b0b0;stroke-linecap:square;stroke-width:0.8;"/>
     </g>
     <g id="line2d_14">
      <g>
       <use style="stroke:#000000;stroke-width:0.8;" x="86.4" xlink:href="#m6acbb28e1f" y="215.113593"/>
      </g>
     </g>
     <g id="text_7">
      <!-- 0 -->
      <g transform="translate(69.22 221.192343)scale(0.16 -0.16)">
       <use xlink:href="#DejaVuSans-48"/>
      </g>
     </g>
    </g>
    <g id="ytick_3">
     <g id="line2d_15">
      <path clip-path="url(#pe2d58321bd)" d="M 86.4 159.47098 
L 547.2 159.47098 
" style="fill:none;stroke:#b0b0b0;stroke-linecap:square;stroke-width:0.8;"/>
     </g>
     <g id="line2d_16">
      <g>
       <use style="stroke:#000000;stroke-width:0.8;" x="86.4" xlink:href="#m6acbb28e1f" y="159.47098"/>
      </g>
     </g>
     <g id="text_8">
      <!-- 5 -->
      <g transform="translate(69.22 165.54973)scale(0.16 -0.16)">
       <use xlink:href="#DejaVuSans-53"/>
      </g>
     </g>
    </g>
    <g id="ytick_4">
     <g id="line2d_17">
      <path clip-path="url(#pe2d58321bd)" d="M 86.4 103.828366 
L 547.2 103.828366 
" style="fill:none;stroke:#b0b0b0;stroke-linecap:square;stroke-width:0.8;"/>
     </g>
     <g id="line2d_18">
      <g>
       <use style="stroke:#000000;stroke-width:0.8;" x="86.4" xlink:href="#m6acbb28e1f" y="103.828366"/>
      </g>
     </g>
     <g id="text_9">
      <!-- 10 -->
      <g transform="translate(59.04 109.907116)scale(0.16 -0.16)">
       <use xlink:href="#DejaVuSans-49"/>
       <use x="63.623047" xlink:href="#DejaVuSans-48"/>
      </g>
     </g>
    </g>
    <g id="text_10">
     <!-- Iy [G.cm] -->
     <defs>
      <path d="M 9.8125 72.90625 
L 19.671875 72.90625 
L 19.671875 0 
L 9.8125 0 
z
" id="DejaVuSans-73"/>
      <path d="M 32.171875 -5.078125 
Q 28.375 -14.84375 24.75 -17.8125 
Q 21.140625 -20.796875 15.09375 -20.796875 
L 7.90625 -20.796875 
L 7.90625 -13.28125 
L 13.1875 -13.28125 
Q 16.890625 -13.28125 18.9375 -11.515625 
Q 21 -9.765625 23.484375 -3.21875 
L 25.09375 0.875 
L 2.984375 54.6875 
L 12.5 54.6875 
L 29.59375 11.921875 
L 46.6875 54.6875 
L 56.203125 54.6875 
z
" id="DejaVuSans-121"/>
      <path id="DejaVuSans-32"/>
      <path d="M 8.59375 75.984375 
L 29.296875 75.984375 
L 29.296875 69 
L 17.578125 69 
L 17.578125 -6.203125 
L 29.296875 -6.203125 
L 29.296875 -13.1875 
L 8.59375 -13.1875 
z
" id="DejaVuSans-91"/>
      <path d="M 59.515625 10.40625 
L 59.515625 29.984375 
L 43.40625 29.984375 
L 43.40625 38.09375 
L 69.28125 38.09375 
L 69.28125 6.78125 
Q 63.578125 2.734375 56.6875 0.65625 
Q 49.8125 -1.421875 42 -1.421875 
Q 24.90625 -1.421875 15.25 8.5625 
Q 5.609375 18.5625 5.609375 36.375 
Q 5.609375 54.25 15.25 64.234375 
Q 24.90625 74.21875 42 74.21875 
Q 49.125 74.21875 55.546875 72.453125 
Q 61.96875 70.703125 67.390625 67.28125 
L 67.390625 56.78125 
Q 61.921875 61.421875 55.765625 63.765625 
Q 49.609375 66.109375 42.828125 66.109375 
Q 29.4375 66.109375 22.71875 58.640625 
Q 16.015625 51.171875 16.015625 36.375 
Q 16.015625 21.625 22.71875 14.15625 
Q 29.4375 6.6875 42.828125 6.6875 
Q 48.046875 6.6875 52.140625 7.59375 
Q 56.25 8.5 59.515625 10.40625 
z
" id="DejaVuSans-71"/>
      <path d="M 10.6875 12.40625 
L 21 12.40625 
L 21 0 
L 10.6875 0 
z
" id="DejaVuSans-46"/>
      <path d="M 48.78125 52.59375 
L 48.78125 44.1875 
Q 44.96875 46.296875 41.140625 47.34375 
Q 37.3125 48.390625 33.40625 48.390625 
Q 24.65625 48.390625 19.8125 42.84375 
Q 14.984375 37.3125 14.984375 27.296875 
Q 14.984375 17.28125 19.8125 11.734375 
Q 24.65625 6.203125 33.40625 6.203125 
Q 37.3125 6.203125 41.140625 7.25 
Q 44.96875 8.296875 48.78125 10.40625 
L 48.78125 2.09375 
Q 45.015625 0.34375 40.984375 -0.53125 
Q 36.96875 -1.421875 32.421875 -1.421875 
Q 20.0625 -1.421875 12.78125 6.34375 
Q 5.515625 14.109375 5.515625 27.296875 
Q 5.515625 40.671875 12.859375 48.328125 
Q 20.21875 56 33.015625 56 
Q 37.15625 56 41.109375 55.140625 
Q 45.0625 54.296875 48.78125 52.59375 
z
" id="DejaVuSans-99"/>
      <path d="M 52 44.1875 
Q 55.375 50.25 60.0625 53.125 
Q 64.75 56 71.09375 56 
Q 79.640625 56 84.28125 50.015625 
Q 88.921875 44.046875 88.921875 33.015625 
L 88.921875 0 
L 79.890625 0 
L 79.890625 32.71875 
Q 79.890625 40.578125 77.09375 44.375 
Q 74.3125 48.1875 68.609375 48.1875 
Q 61.625 48.1875 57.5625 43.546875 
Q 53.515625 38.921875 53.515625 30.90625 
L 53.515625 0 
L 44.484375 0 
L 44.484375 32.71875 
Q 44.484375 40.625 41.703125 44.40625 
Q 38.921875 48.1875 33.109375 48.1875 
Q 26.21875 48.1875 22.15625 43.53125 
Q 18.109375 38.875 18.109375 30.90625 
L 18.109375 0 
L 9.078125 0 
L 9.078125 54.6875 
L 18.109375 54.6875 
L 18.109375 46.1875 
Q 21.1875 51.21875 25.484375 53.609375 
Q 29.78125 56 35.6875 56 
Q 41.65625 56 45.828125 52.96875 
Q 50 49.953125 52 44.1875 
z
" id="DejaVuSans-109"/>
      <path d="M 30.421875 75.984375 
L 30.421875 -13.1875 
L 9.71875 -13.1875 
L 9.71875 -6.203125 
L 21.390625 -6.203125 
L 21.390625 69 
L 9.71875 69 
L 9.71875 75.984375 
z
" id="DejaVuSans-93"/>
     </defs>
     <g transform="translate(48.485 232.6525)rotate(-90)scale(0.16 -0.16)">
      <use xlink:href="#DejaVuSans-73"/>
      <use x="29.492188" xlink:href="#DejaVuSans-121"/>
      <use x="88.671875" xlink:href="#DejaVuSans-32"/>
      <use x="120.458984" xlink:href="#DejaVuSans-91"/>
      <use x="159.472656" xlink:href="#DejaVuSans-71"/>
      <use x="236.962891" xlink:href="#DejaVuSans-46"/>
      <use x="268.75" xlink:href="#DejaVuSans-99"/>
      <use x="323.730469" xlink:href="#DejaVuSans-109"/>
      <use x="421.142578" xlink:href="#DejaVuSans-93"/>
     </g>
    </g>
   </g>
   <g id="line2d_19">
    <path clip-path="url(#pe2d58321bd)" d="M 107.345455 157.011543 
L 133.527273 189.957242 
L 159.709091 227.744824 
L 185.890909 244.744545 
L 212.072727 244.332102 
L 238.254545 243.548096 
L 264.436364 240.604669 
L 290.618182 249.817023 
L 316.8 270.297478 
L 342.981818 294.469594 
L 369.163636 294.403253 
L 395.345455 274.024197 
L 421.527273 234.095009 
L 447.709091 203.88362 
L 473.890909 188.741067 
L 500.072727 204.482695 
L 526.254545 243.757158 
" style="fill:none;stroke:#0000ff;stroke-linecap:square;stroke-width:2;"/>
   </g>
   <g id="line2d_20">
    <path clip-path="url(#pe2d58321bd)" d="M 107.345455 158.001842 
L 133.527273 192.452565 
L 159.709091 227.431875 
L 185.890909 242.736035 
L 212.072727 240.115444 
L 238.254545 235.097915 
L 264.436364 229.071179 
L 290.618182 233.537413 
L 316.8 252.397321 
L 342.981818 268.572712 
L 369.163636 271.399162 
L 395.345455 249.224541 
L 421.527273 220.839752 
L 447.709091 187.432543 
L 473.890909 173.282435 
L 500.072727 189.466398 
L 526.254545 220.819145 
" style="fill:none;stroke:#2000df;stroke-linecap:square;stroke-width:2;"/>
   </g>
   <g id="line2d_21">
    <path clip-path="url(#pe2d58321bd)" d="M 107.345455 142.223311 
L 133.527273 177.793551 
L 159.709091 205.053259 
L 185.890909 230.278572 
L 212.072727 230.915437 
L 238.254545 225.89227 
L 264.436364 221.985286 
L 290.618182 230.359086 
L 316.8 251.413728 
L 342.981818 273.422022 
L 369.163636 285.957103 
L 395.345455 266.739908 
L 421.527273 232.911016 
L 447.709091 198.285483 
L 473.890909 184.24227 
L 500.072727 207.846926 
L 526.254545 241.244364 
" style="fill:none;stroke:#4000bf;stroke-linecap:square;stroke-width:2;"/>
   </g>
   <g id="line2d_22">
    <path clip-path="url(#pe2d58321bd)" d="M 107.345455 135.522955 
L 133.527273 170.372181 
L 159.709091 204.937346 
L 185.890909 224.590857 
L 212.072727 233.070948 
L 238.254545 222.913754 
L 264.436364 221.961663 
L 290.618182 218.787717 
L 316.8 237.621175 
L 342.981818 252.869978 
L 369.163636 256.882819 
L 395.345455 238.782793 
L 421.527273 195.681833 
L 447.709091 160.560786 
L 473.890909 142.396284 
L 500.072727 159.641509 
L 526.254545 195.180953 
" style="fill:none;stroke:#60009f;stroke-linecap:square;stroke-width:2;"/>
   </g>
   <g id="line2d_23">
    <path clip-path="url(#pe2d58321bd)" d="M 107.345455 131.216665 
L 133.527273 163.958143 
L 159.709091 191.214619 
L 185.890909 213.498676 
L 212.072727 206.543508 
L 238.254545 198.441638 
L 264.436364 191.580969 
L 290.618182 198.601343 
L 316.8 213.06408 
L 342.981818 234.394034 
L 369.163636 242.312589 
L 395.345455 222.617196 
L 421.527273 186.359792 
L 447.709091 148.130536 
L 473.890909 133.296555 
L 500.072727 142.932969 
L 526.254545 185.9664 
" style="fill:none;stroke:#80007f;stroke-linecap:square;stroke-width:2;"/>
   </g>
   <g id="line2d_24">
    <path clip-path="url(#pe2d58321bd)" d="M 107.345455 96.349091 
L 133.527273 132.047958 
L 159.709091 165.349884 
L 185.890909 191.97909 
L 212.072727 191.369461 
L 238.254545 185.674924 
L 264.436364 181.68417 
L 290.618182 187.086139 
L 316.8 205.356437 
L 342.981818 230.218896 
L 369.163636 233.59352 
L 395.345455 222.131518 
L 421.527273 184.130732 
L 447.709091 147.933774 
L 473.890909 128.005787 
L 500.072727 145.125427 
L 526.254545 180.189276 
" style="fill:none;stroke:#a0005f;stroke-linecap:square;stroke-width:2;"/>
   </g>
   <g id="line2d_25">
    <path clip-path="url(#pe2d58321bd)" d="M 107.345455 143.163421 
L 133.527273 176.679723 
L 159.709091 207.298987 
L 185.890909 226.244605 
L 212.072727 225.015107 
L 238.254545 217.875538 
L 264.436364 213.94003 
L 290.618182 220.447458 
L 316.8 244.774147 
L 342.981818 259.089993 
L 369.163636 255.168544 
L 395.345455 236.848011 
L 421.527273 202.002952 
L 447.709091 164.773463 
L 473.890909 150.439191 
L 500.072727 166.788977 
L 526.254545 206.146436 
" style="fill:none;stroke:#c0003f;stroke-linecap:square;stroke-width:2;"/>
   </g>
   <g id="line2d_26">
    <path clip-path="url(#pe2d58321bd)" d="M 107.345455 162.982321 
L 133.527273 196.064894 
L 159.709091 228.350811 
L 185.890909 244.249731 
L 212.072727 244.461855 
L 238.254545 232.437763 
L 264.436364 225.368048 
L 290.618182 236.830233 
L 316.8 257.997702 
L 342.981818 272.767486 
L 369.163636 273.063164 
L 395.345455 258.872248 
L 421.527273 231.319885 
L 447.709091 194.119274 
L 473.890909 182.239313 
L 500.072727 193.216979 
L 526.254545 223.314105 
" style="fill:none;stroke:#e0001f;stroke-linecap:square;stroke-width:2;"/>
   </g>
   <g id="line2d_27">
    <path clip-path="url(#pe2d58321bd)" d="M 107.345455 105.053167 
L 133.527273 143.922388 
L 159.709091 181.53237 
L 185.890909 203.267965 
L 212.072727 203.803285 
L 238.254545 195.9781 
L 264.436364 192.532183 
L 290.618182 199.31665 
L 316.8 219.432044 
L 342.981818 236.200312 
L 369.163636 235.01886 
L 395.345455 218.13811 
L 421.527273 182.70749 
L 447.709091 144.592389 
L 473.890909 123.53392 
L 500.072727 136.647598 
L 526.254545 176.65712 
" style="fill:none;stroke:#fe0100;stroke-linecap:square;stroke-width:2;"/>
   </g>
   <g id="line2d_28">
    <path clip-path="url(#pe2d58321bd)" d="M 107.345455 130.480797 
L 133.527273 168.021533 
L 159.709091 196.226593 
L 185.890909 217.983981 
L 212.072727 215.340569 
L 238.254545 202.523847 
L 264.436364 200.850091 
L 290.618182 209.644238 
L 316.8 229.456371 
L 342.981818 246.984075 
L 369.163636 248.37492 
L 395.345455 221.776811 
L 421.527273 189.781217 
L 447.709091 152.938263 
L 473.890909 129.26371 
L 500.072727 143.436885 
L 526.254545 177.742139 
" style="fill:none;stroke:#de2100;stroke-linecap:square;stroke-width:2;"/>
   </g>
   <g id="line2d_29">
    <path clip-path="url(#pe2d58321bd)" d="M 107.345455 124.011182 
L 133.527273 163.92035 
L 159.709091 196.094103 
L 185.890909 218.44455 
L 212.072727 217.294283 
L 238.254545 203.357699 
L 264.436364 198.763789 
L 290.618182 203.06253 
L 316.8 222.129973 
L 342.981818 245.439164 
L 369.163636 246.010248 
L 395.345455 225.893612 
L 421.527273 189.364975 
L 447.709091 151.577113 
L 473.890909 132.633726 
L 500.072727 147.81251 
L 526.254545 186.786604 
" style="fill:none;stroke:#be4100;stroke-linecap:square;stroke-width:2;"/>
   </g>
   <g id="line2d_30">
    <path clip-path="url(#pe2d58321bd)" d="M 107.345455 168.823519 
L 133.527273 203.119578 
L 159.709091 236.156395 
L 185.890909 253.718864 
L 212.072727 256.094611 
L 238.254545 245.271453 
L 264.436364 244.991198 
L 290.618182 253.916161 
L 316.8 278.022417 
L 342.981818 295.330909 
L 369.163636 292.239196 
L 395.345455 268.422235 
L 421.527273 229.130925 
L 447.709091 187.43018 
L 473.890909 160.785737 
L 500.072727 163.612654 
L 526.254545 198.036331 
" style="fill:none;stroke:#9e6100;stroke-linecap:square;stroke-width:2;"/>
   </g>
   <g id="line2d_31">
    <path clip-path="url(#pe2d58321bd)" d="M 107.345455 109.482468 
L 133.527273 152.916746 
L 159.709091 183.852294 
L 185.890909 202.789189 
L 212.072727 205.164196 
L 238.254545 199.0537 
L 264.436364 200.623047 
L 290.618182 211.397564 
L 316.8 225.838753 
L 342.981818 249.672588 
L 369.163636 251.381014 
L 395.345455 233.552008 
L 421.527273 194.485208 
L 447.709091 159.322607 
L 473.890909 134.740437 
L 500.072727 149.156169 
L 526.254545 189.617515 
" style="fill:none;stroke:#7e8100;stroke-linecap:square;stroke-width:2;"/>
   </g>
   <g id="line2d_32">
    <path clip-path="url(#pe2d58321bd)" d="M 107.345455 136.099063 
L 133.527273 178.711123 
L 159.709091 207.224118 
L 185.890909 226.688952 
L 212.072727 222.953135 
L 238.254545 222.921495 
L 264.436364 220.530404 
L 290.618182 221.443449 
L 316.8 239.963204 
L 342.981818 260.124234 
L 369.163636 264.948506 
L 395.345455 242.483871 
L 421.527273 206.020179 
L 447.709091 169.43497 
L 473.890909 153.794606 
L 500.072727 165.675206 
L 526.254545 202.301277 
" style="fill:none;stroke:#5ea100;stroke-linecap:square;stroke-width:2;"/>
   </g>
   <g id="line2d_33">
    <path clip-path="url(#pe2d58321bd)" d="M 107.345455 133.022865 
L 133.527273 172.903758 
L 159.709091 210.525228 
L 185.890909 223.045593 
L 212.072727 225.842735 
L 238.254545 221.254534 
L 264.436364 207.818196 
L 290.618182 210.713375 
L 316.8 228.627317 
L 342.981818 246.682262 
L 369.163636 246.899972 
L 395.345455 219.366152 
L 421.527273 180.346213 
L 447.709091 146.705761 
L 473.890909 120.820277 
L 500.072727 134.658022 
L 526.254545 166.740087 
" style="fill:none;stroke:#3ec100;stroke-linecap:square;stroke-width:2;"/>
   </g>
   <g id="line2d_34">
    <path clip-path="url(#pe2d58321bd)" d="M 107.345455 127.32945 
L 133.527273 170.757097 
L 159.709091 201.173406 
L 185.890909 221.67892 
L 212.072727 228.960621 
L 238.254545 222.643395 
L 264.436364 221.518075 
L 290.618182 226.722424 
L 316.8 242.669714 
L 342.981818 260.33329 
L 369.163636 267.823567 
L 395.345455 246.974811 
L 421.527273 213.177218 
L 447.709091 172.044317 
L 473.890909 152.443819 
L 500.072727 161.476921 
L 526.254545 196.480657 
" style="fill:none;stroke:#1ee100;stroke-linecap:square;stroke-width:2;"/>
   </g>
   <g id="line2d_35">
    <path clip-path="url(#pe2d58321bd)" d="M 107.345455 151.288439 
L 133.527273 194.250635 
L 159.709091 226.301872 
L 185.890909 243.816492 
L 212.072727 241.693658 
L 238.254545 234.198369 
L 264.436364 220.793003 
L 290.618182 223.806605 
L 316.8 236.125389 
L 342.981818 255.586426 
L 369.163636 260.335857 
L 395.345455 236.058642 
L 421.527273 194.769367 
L 447.709091 157.421801 
L 473.890909 137.643425 
L 500.072727 151.149468 
L 526.254545 188.51326 
" style="fill:none;stroke:#00ff00;stroke-linecap:square;stroke-width:2;"/>
   </g>
   <g id="patch_3">
    <path d="M 86.4 305.28 
L 86.4 86.4 
" style="fill:none;stroke:#000000;stroke-linecap:square;stroke-linejoin:miter;stroke-width:0.8;"/>
   </g>
   <g id="patch_4">
    <path d="M 547.2 305.28 
L 547.2 86.4 
" style="fill:none;stroke:#000000;stroke-linecap:square;stroke-linejoin:miter;stroke-width:0.8;"/>
   </g>
   <g id="patch_5">
    <path d="M 86.4 305.28 
L 547.2 305.28 
" style="fill:none;stroke:#000000;stroke-linecap:square;stroke-linejoin:miter;stroke-width:0.8;"/>
   </g>
   <g id="patch_6">
    <path d="M 86.4 86.4 
L 547.2 86.4 
" style="fill:none;stroke:#000000;stroke-linecap:square;stroke-linejoin:miter;stroke-width:0.8;"/>
   </g>
   <g id="legend_1">
    <g id="patch_7">
     <path d="M 134.823195 81.768 
L 498.776805 81.768 
Q 500.629605 81.768 500.629605 79.9152 
L 500.629605 24.669565 
Q 500.629605 22.816765 498.776805 22.816765 
L 134.823195 22.816765 
Q 132.970395 22.816765 132.970395 24.669565 
L 132.970395 79.9152 
Q 132.970395 81.768 134.823195 81.768 
z
" style="fill:#ffffff;opacity:0.8;stroke:#cccccc;stroke-linejoin:miter;"/>
    </g>
    <g id="text_11">
     <!-- Phase [mm] -->
     <defs>
      <path d="M 19.671875 64.796875 
L 19.671875 37.40625 
L 32.078125 37.40625 
Q 38.96875 37.40625 42.71875 40.96875 
Q 46.484375 44.53125 46.484375 51.125 
Q 46.484375 57.671875 42.71875 61.234375 
Q 38.96875 64.796875 32.078125 64.796875 
z
M 9.8125 72.90625 
L 32.078125 72.90625 
Q 44.34375 72.90625 50.609375 67.359375 
Q 56.890625 61.8125 56.890625 51.125 
Q 56.890625 40.328125 50.609375 34.8125 
Q 44.34375 29.296875 32.078125 29.296875 
L 19.671875 29.296875 
L 19.671875 0 
L 9.8125 0 
z
" id="DejaVuSans-80"/>
      <path d="M 54.890625 33.015625 
L 54.890625 0 
L 45.90625 0 
L 45.90625 32.71875 
Q 45.90625 40.484375 42.875 44.328125 
Q 39.84375 48.1875 33.796875 48.1875 
Q 26.515625 48.1875 22.3125 43.546875 
Q 18.109375 38.921875 18.109375 30.90625 
L 18.109375 0 
L 9.078125 0 
L 9.078125 75.984375 
L 18.109375 75.984375 
L 18.109375 46.1875 
Q 21.34375 51.125 25.703125 53.5625 
Q 30.078125 56 35.796875 56 
Q 45.21875 56 50.046875 50.171875 
Q 54.890625 44.34375 54.890625 33.015625 
z
" id="DejaVuSans-104"/>
      <path d="M 34.28125 27.484375 
Q 23.390625 27.484375 19.1875 25 
Q 14.984375 22.515625 14.984375 16.5 
Q 14.984375 11.71875 18.140625 8.90625 
Q 21.296875 6.109375 26.703125 6.109375 
Q 34.1875 6.109375 38.703125 11.40625 
Q 43.21875 16.703125 43.21875 25.484375 
L 43.21875 27.484375 
z
M 52.203125 31.203125 
L 52.203125 0 
L 43.21875 0 
L 43.21875 8.296875 
Q 40.140625 3.328125 35.546875 0.953125 
Q 30.953125 -1.421875 24.3125 -1.421875 
Q 15.921875 -1.421875 10.953125 3.296875 
Q 6 8.015625 6 15.921875 
Q 6 25.140625 12.171875 29.828125 
Q 18.359375 34.515625 30.609375 34.515625 
L 43.21875 34.515625 
L 43.21875 35.40625 
Q 43.21875 41.609375 39.140625 45 
Q 35.0625 48.390625 27.6875 48.390625 
Q 23 48.390625 18.546875 47.265625 
Q 14.109375 46.140625 10.015625 43.890625 
L 10.015625 52.203125 
Q 14.9375 54.109375 19.578125 55.046875 
Q 24.21875 56 28.609375 56 
Q 40.484375 56 46.34375 49.84375 
Q 52.203125 43.703125 52.203125 31.203125 
z
" id="DejaVuSans-97"/>
      <path d="M 44.28125 53.078125 
L 44.28125 44.578125 
Q 40.484375 46.53125 36.375 47.5 
Q 32.28125 48.484375 27.875 48.484375 
Q 21.1875 48.484375 17.84375 46.4375 
Q 14.5 44.390625 14.5 40.28125 
Q 14.5 37.15625 16.890625 35.375 
Q 19.28125 33.59375 26.515625 31.984375 
L 29.59375 31.296875 
Q 39.15625 29.25 43.1875 25.515625 
Q 47.21875 21.78125 47.21875 15.09375 
Q 47.21875 7.46875 41.1875 3.015625 
Q 35.15625 -1.421875 24.609375 -1.421875 
Q 20.21875 -1.421875 15.453125 -0.5625 
Q 10.6875 0.296875 5.421875 2 
L 5.421875 11.28125 
Q 10.40625 8.6875 15.234375 7.390625 
Q 20.0625 6.109375 24.8125 6.109375 
Q 31.15625 6.109375 34.5625 8.28125 
Q 37.984375 10.453125 37.984375 14.40625 
Q 37.984375 18.0625 35.515625 20.015625 
Q 33.0625 21.96875 24.703125 23.78125 
L 21.578125 24.515625 
Q 13.234375 26.265625 9.515625 29.90625 
Q 5.8125 33.546875 5.8125 39.890625 
Q 5.8125 47.609375 11.28125 51.796875 
Q 16.75 56 26.8125 56 
Q 31.78125 56 36.171875 55.265625 
Q 40.578125 54.546875 44.28125 53.078125 
z
" id="DejaVuSans-115"/>
      <path d="M 56.203125 29.59375 
L 56.203125 25.203125 
L 14.890625 25.203125 
Q 15.484375 15.921875 20.484375 11.0625 
Q 25.484375 6.203125 34.421875 6.203125 
Q 39.59375 6.203125 44.453125 7.46875 
Q 49.3125 8.734375 54.109375 11.28125 
L 54.109375 2.78125 
Q 49.265625 0.734375 44.1875 -0.34375 
Q 39.109375 -1.421875 33.890625 -1.421875 
Q 20.796875 -1.421875 13.15625 6.1875 
Q 5.515625 13.8125 5.515625 26.8125 
Q 5.515625 40.234375 12.765625 48.109375 
Q 20.015625 56 32.328125 56 
Q 43.359375 56 49.78125 48.890625 
Q 56.203125 41.796875 56.203125 29.59375 
z
M 47.21875 32.234375 
Q 47.125 39.59375 43.09375 43.984375 
Q 39.0625 48.390625 32.421875 48.390625 
Q 24.90625 48.390625 20.390625 44.140625 
Q 15.875 39.890625 15.1875 32.171875 
z
" id="DejaVuSans-101"/>
     </defs>
     <g transform="translate(283.310162 34.95967)scale(0.11104 -0.11104)">
      <use xlink:href="#DejaVuSans-80"/>
      <use x="60.302734" xlink:href="#DejaVuSans-104"/>
      <use x="123.681641" xlink:href="#DejaVuSans-97"/>
      <use x="184.960938" xlink:href="#DejaVuSans-115"/>
      <use x="237.060547" xlink:href="#DejaVuSans-101"/>
      <use x="298.583984" xlink:href="#DejaVuSans-32"/>
      <use x="330.371094" xlink:href="#DejaVuSans-91"/>
      <use x="369.384766" xlink:href="#DejaVuSans-109"/>
      <use x="466.796875" xlink:href="#DejaVuSans-109"/>
      <use x="564.208984" xlink:href="#DejaVuSans-93"/>
     </g>
    </g>
    <g id="line2d_36">
     <path d="M 136.675995 45.697748 
L 155.203995 45.697748 
" style="fill:none;stroke:#0000ff;stroke-linecap:square;stroke-width:2;"/>
    </g>
    <g id="line2d_37"/>
    <g id="text_12">
     <!-- 0.0 -->
     <g transform="translate(162.615195 48.940148)scale(0.09264 -0.09264)">
      <use xlink:href="#DejaVuSans-48"/>
      <use x="63.623047" xlink:href="#DejaVuSans-46"/>
      <use x="95.410156" xlink:href="#DejaVuSans-48"/>
     </g>
    </g>
    <g id="line2d_38">
     <path d="M 136.675995 59.295563 
L 155.203995 59.295563 
" style="fill:none;stroke:#2000df;stroke-linecap:square;stroke-width:2;"/>
    </g>
    <g id="line2d_39"/>
    <g id="text_13">
     <!-- 1.8 -->
     <defs>
      <path d="M 31.78125 34.625 
Q 24.75 34.625 20.71875 30.859375 
Q 16.703125 27.09375 16.703125 20.515625 
Q 16.703125 13.921875 20.71875 10.15625 
Q 24.75 6.390625 31.78125 6.390625 
Q 38.8125 6.390625 42.859375 10.171875 
Q 46.921875 13.96875 46.921875 20.515625 
Q 46.921875 27.09375 42.890625 30.859375 
Q 38.875 34.625 31.78125 34.625 
z
M 21.921875 38.8125 
Q 15.578125 40.375 12.03125 44.71875 
Q 8.5 49.078125 8.5 55.328125 
Q 8.5 64.0625 14.71875 69.140625 
Q 20.953125 74.21875 31.78125 74.21875 
Q 42.671875 74.21875 48.875 69.140625 
Q 55.078125 64.0625 55.078125 55.328125 
Q 55.078125 49.078125 51.53125 44.71875 
Q 48 40.375 41.703125 38.8125 
Q 48.828125 37.15625 52.796875 32.3125 
Q 56.78125 27.484375 56.78125 20.515625 
Q 56.78125 9.90625 50.3125 4.234375 
Q 43.84375 -1.421875 31.78125 -1.421875 
Q 19.734375 -1.421875 13.25 4.234375 
Q 6.78125 9.90625 6.78125 20.515625 
Q 6.78125 27.484375 10.78125 32.3125 
Q 14.796875 37.15625 21.921875 38.8125 
z
M 18.3125 54.390625 
Q 18.3125 48.734375 21.84375 45.5625 
Q 25.390625 42.390625 31.78125 42.390625 
Q 38.140625 42.390625 41.71875 45.5625 
Q 45.3125 48.734375 45.3125 54.390625 
Q 45.3125 60.0625 41.71875 63.234375 
Q 38.140625 66.40625 31.78125 66.40625 
Q 25.390625 66.40625 21.84375 63.234375 
Q 18.3125 60.0625 18.3125 54.390625 
z
" id="DejaVuSans-56"/>
     </defs>
     <g transform="translate(162.615195 62.537963)scale(0.09264 -0.09264)">
      <use xlink:href="#DejaVuSans-49"/>
      <use x="63.623047" xlink:href="#DejaVuSans-46"/>
      <use x="95.410156" xlink:href="#DejaVuSans-56"/>
     </g>
    </g>
    <g id="line2d_40">
     <path d="M 136.675995 72.893378 
L 155.203995 72.893378 
" style="fill:none;stroke:#4000bf;stroke-linecap:square;stroke-width:2;"/>
    </g>
    <g id="line2d_41"/>
    <g id="text_14">
     <!-- 3.6 -->
     <defs>
      <path d="M 40.578125 39.3125 
Q 47.65625 37.796875 51.625 33 
Q 55.609375 28.21875 55.609375 21.1875 
Q 55.609375 10.40625 48.1875 4.484375 
Q 40.765625 -1.421875 27.09375 -1.421875 
Q 22.515625 -1.421875 17.65625 -0.515625 
Q 12.796875 0.390625 7.625 2.203125 
L 7.625 11.71875 
Q 11.71875 9.328125 16.59375 8.109375 
Q 21.484375 6.890625 26.8125 6.890625 
Q 36.078125 6.890625 40.9375 10.546875 
Q 45.796875 14.203125 45.796875 21.1875 
Q 45.796875 27.640625 41.28125 31.265625 
Q 36.765625 34.90625 28.71875 34.90625 
L 20.21875 34.90625 
L 20.21875 43.015625 
L 29.109375 43.015625 
Q 36.375 43.015625 40.234375 45.921875 
Q 44.09375 48.828125 44.09375 54.296875 
Q 44.09375 59.90625 40.109375 62.90625 
Q 36.140625 65.921875 28.71875 65.921875 
Q 24.65625 65.921875 20.015625 65.03125 
Q 15.375 64.15625 9.8125 62.3125 
L 9.8125 71.09375 
Q 15.4375 72.65625 20.34375 73.4375 
Q 25.25 74.21875 29.59375 74.21875 
Q 40.828125 74.21875 47.359375 69.109375 
Q 53.90625 64.015625 53.90625 55.328125 
Q 53.90625 49.265625 50.4375 45.09375 
Q 46.96875 40.921875 40.578125 39.3125 
z
" id="DejaVuSans-51"/>
      <path d="M 33.015625 40.375 
Q 26.375 40.375 22.484375 35.828125 
Q 18.609375 31.296875 18.609375 23.390625 
Q 18.609375 15.53125 22.484375 10.953125 
Q 26.375 6.390625 33.015625 6.390625 
Q 39.65625 6.390625 43.53125 10.953125 
Q 47.40625 15.53125 47.40625 23.390625 
Q 47.40625 31.296875 43.53125 35.828125 
Q 39.65625 40.375 33.015625 40.375 
z
M 52.59375 71.296875 
L 52.59375 62.3125 
Q 48.875 64.0625 45.09375 64.984375 
Q 41.3125 65.921875 37.59375 65.921875 
Q 27.828125 65.921875 22.671875 59.328125 
Q 17.53125 52.734375 16.796875 39.40625 
Q 19.671875 43.65625 24.015625 45.921875 
Q 28.375 48.1875 33.59375 48.1875 
Q 44.578125 48.1875 50.953125 41.515625 
Q 57.328125 34.859375 57.328125 23.390625 
Q 57.328125 12.15625 50.6875 5.359375 
Q 44.046875 -1.421875 33.015625 -1.421875 
Q 20.359375 -1.421875 13.671875 8.265625 
Q 6.984375 17.96875 6.984375 36.375 
Q 6.984375 53.65625 15.1875 63.9375 
Q 23.390625 74.21875 37.203125 74.21875 
Q 40.921875 74.21875 44.703125 73.484375 
Q 48.484375 72.75 52.59375 71.296875 
z
" id="DejaVuSans-54"/>
     </defs>
     <g transform="translate(162.615195 76.135778)scale(0.09264 -0.09264)">
      <use xlink:href="#DejaVuSans-51"/>
      <use x="63.623047" xlink:href="#DejaVuSans-46"/>
      <use x="95.410156" xlink:href="#DejaVuSans-54"/>
     </g>
    </g>
    <g id="line2d_42">
     <path d="M 195.87585 45.697748 
L 214.40385 45.697748 
" style="fill:none;stroke:#60009f;stroke-linecap:square;stroke-width:2;"/>
    </g>
    <g id="line2d_43"/>
    <g id="text_15">
     <!-- 5.4 -->
     <defs>
      <path d="M 37.796875 64.3125 
L 12.890625 25.390625 
L 37.796875 25.390625 
z
M 35.203125 72.90625 
L 47.609375 72.90625 
L 47.609375 25.390625 
L 58.015625 25.390625 
L 58.015625 17.1875 
L 47.609375 17.1875 
L 47.609375 0 
L 37.796875 0 
L 37.796875 17.1875 
L 4.890625 17.1875 
L 4.890625 26.703125 
z
" id="DejaVuSans-52"/>
     </defs>
     <g transform="translate(221.81505 48.940148)scale(0.09264 -0.09264)">
      <use xlink:href="#DejaVuSans-53"/>
      <use x="63.623047" xlink:href="#DejaVuSans-46"/>
      <use x="95.410156" xlink:href="#DejaVuSans-52"/>
     </g>
    </g>
    <g id="line2d_44">
     <path d="M 195.87585 59.295563 
L 214.40385 59.295563 
" style="fill:none;stroke:#80007f;stroke-linecap:square;stroke-width:2;"/>
    </g>
    <g id="line2d_45"/>
    <g id="text_16">
     <!-- 7.2 -->
     <defs>
      <path d="M 8.203125 72.90625 
L 55.078125 72.90625 
L 55.078125 68.703125 
L 28.609375 0 
L 18.3125 0 
L 43.21875 64.59375 
L 8.203125 64.59375 
z
" id="DejaVuSans-55"/>
      <path d="M 19.1875 8.296875 
L 53.609375 8.296875 
L 53.609375 0 
L 7.328125 0 
L 7.328125 8.296875 
Q 12.9375 14.109375 22.625 23.890625 
Q 32.328125 33.6875 34.8125 36.53125 
Q 39.546875 41.84375 41.421875 45.53125 
Q 43.3125 49.21875 43.3125 52.78125 
Q 43.3125 58.59375 39.234375 62.25 
Q 35.15625 65.921875 28.609375 65.921875 
Q 23.96875 65.921875 18.8125 64.3125 
Q 13.671875 62.703125 7.8125 59.421875 
L 7.8125 69.390625 
Q 13.765625 71.78125 18.9375 73 
Q 24.125 74.21875 28.421875 74.21875 
Q 39.75 74.21875 46.484375 68.546875 
Q 53.21875 62.890625 53.21875 53.421875 
Q 53.21875 48.921875 51.53125 44.890625 
Q 49.859375 40.875 45.40625 35.40625 
Q 44.1875 33.984375 37.640625 27.21875 
Q 31.109375 20.453125 19.1875 8.296875 
z
" id="DejaVuSans-50"/>
     </defs>
     <g transform="translate(221.81505 62.537963)scale(0.09264 -0.09264)">
      <use xlink:href="#DejaVuSans-55"/>
      <use x="63.623047" xlink:href="#DejaVuSans-46"/>
      <use x="95.410156" xlink:href="#DejaVuSans-50"/>
     </g>
    </g>
    <g id="line2d_46">
     <path d="M 195.87585 72.893378 
L 214.40385 72.893378 
" style="fill:none;stroke:#a0005f;stroke-linecap:square;stroke-width:2;"/>
    </g>
    <g id="line2d_47"/>
    <g id="text_17">
     <!-- 9.1 -->
     <defs>
      <path d="M 10.984375 1.515625 
L 10.984375 10.5 
Q 14.703125 8.734375 18.5 7.8125 
Q 22.3125 6.890625 25.984375 6.890625 
Q 35.75 6.890625 40.890625 13.453125 
Q 46.046875 20.015625 46.78125 33.40625 
Q 43.953125 29.203125 39.59375 26.953125 
Q 35.25 24.703125 29.984375 24.703125 
Q 19.046875 24.703125 12.671875 31.3125 
Q 6.296875 37.9375 6.296875 49.421875 
Q 6.296875 60.640625 12.9375 67.421875 
Q 19.578125 74.21875 30.609375 74.21875 
Q 43.265625 74.21875 49.921875 64.515625 
Q 56.59375 54.828125 56.59375 36.375 
Q 56.59375 19.140625 48.40625 8.859375 
Q 40.234375 -1.421875 26.421875 -1.421875 
Q 22.703125 -1.421875 18.890625 -0.6875 
Q 15.09375 0.046875 10.984375 1.515625 
z
M 30.609375 32.421875 
Q 37.25 32.421875 41.125 36.953125 
Q 45.015625 41.5 45.015625 49.421875 
Q 45.015625 57.28125 41.125 61.84375 
Q 37.25 66.40625 30.609375 66.40625 
Q 23.96875 66.40625 20.09375 61.84375 
Q 16.21875 57.28125 16.21875 49.421875 
Q 16.21875 41.5 20.09375 36.953125 
Q 23.96875 32.421875 30.609375 32.421875 
z
" id="DejaVuSans-57"/>
     </defs>
     <g transform="translate(221.81505 76.135778)scale(0.09264 -0.09264)">
      <use xlink:href="#DejaVuSans-57"/>
      <use x="63.623047" xlink:href="#DejaVuSans-46"/>
      <use x="95.410156" xlink:href="#DejaVuSans-49"/>
     </g>
    </g>
    <g id="line2d_48">
     <path d="M 255.075705 45.697748 
L 273.603705 45.697748 
" style="fill:none;stroke:#c0003f;stroke-linecap:square;stroke-width:2;"/>
    </g>
    <g id="line2d_49"/>
    <g id="text_18">
     <!-- 10.9 -->
     <g transform="translate(281.014905 48.940148)scale(0.09264 -0.09264)">
      <use xlink:href="#DejaVuSans-49"/>
      <use x="63.623047" xlink:href="#DejaVuSans-48"/>
      <use x="127.246094" xlink:href="#DejaVuSans-46"/>
      <use x="159.033203" xlink:href="#DejaVuSans-57"/>
     </g>
    </g>
    <g id="line2d_50">
     <path d="M 255.075705 59.295563 
L 273.603705 59.295563 
" style="fill:none;stroke:#e0001f;stroke-linecap:square;stroke-width:2;"/>
    </g>
    <g id="line2d_51"/>
    <g id="text_19">
     <!-- 12.7 -->
     <g transform="translate(281.014905 62.537963)scale(0.09264 -0.09264)">
      <use xlink:href="#DejaVuSans-49"/>
      <use x="63.623047" xlink:href="#DejaVuSans-50"/>
      <use x="127.246094" xlink:href="#DejaVuSans-46"/>
      <use x="159.033203" xlink:href="#DejaVuSans-55"/>
     </g>
    </g>
    <g id="line2d_52">
     <path d="M 255.075705 72.893378 
L 273.603705 72.893378 
" style="fill:none;stroke:#fe0100;stroke-linecap:square;stroke-width:2;"/>
    </g>
    <g id="line2d_53"/>
    <g id="text_20">
     <!-- 14.5 -->
     <g transform="translate(281.014905 76.135778)scale(0.09264 -0.09264)">
      <use xlink:href="#DejaVuSans-49"/>
      <use x="63.623047" xlink:href="#DejaVuSans-52"/>
      <use x="127.246094" xlink:href="#DejaVuSans-46"/>
      <use x="159.033203" xlink:href="#DejaVuSans-53"/>
     </g>
    </g>
    <g id="line2d_54">
     <path d="M 320.16978 45.697748 
L 338.69778 45.697748 
" style="fill:none;stroke:#de2100;stroke-linecap:square;stroke-width:2;"/>
    </g>
    <g id="line2d_55"/>
    <g id="text_21">
     <!-- 16.3 -->
     <g transform="translate(346.10898 48.940148)scale(0.09264 -0.09264)">
      <use xlink:href="#DejaVuSans-49"/>
      <use x="63.623047" xlink:href="#DejaVuSans-54"/>
      <use x="127.246094" xlink:href="#DejaVuSans-46"/>
      <use x="159.033203" xlink:href="#DejaVuSans-51"/>
     </g>
    </g>
    <g id="line2d_56">
     <path d="M 320.16978 59.295563 
L 338.69778 59.295563 
" style="fill:none;stroke:#be4100;stroke-linecap:square;stroke-width:2;"/>
    </g>
    <g id="line2d_57"/>
    <g id="text_22">
     <!-- 18.1 -->
     <g transform="translate(346.10898 62.537963)scale(0.09264 -0.09264)">
      <use xlink:href="#DejaVuSans-49"/>
      <use x="63.623047" xlink:href="#DejaVuSans-56"/>
      <use x="127.246094" xlink:href="#DejaVuSans-46"/>
      <use x="159.033203" xlink:href="#DejaVuSans-49"/>
     </g>
    </g>
    <g id="line2d_58">
     <path d="M 320.16978 72.893378 
L 338.69778 72.893378 
" style="fill:none;stroke:#9e6100;stroke-linecap:square;stroke-width:2;"/>
    </g>
    <g id="line2d_59"/>
    <g id="text_23">
     <!-- 19.9 -->
     <g transform="translate(346.10898 76.135778)scale(0.09264 -0.09264)">
      <use xlink:href="#DejaVuSans-49"/>
      <use x="63.623047" xlink:href="#DejaVuSans-57"/>
      <use x="127.246094" xlink:href="#DejaVuSans-46"/>
      <use x="159.033203" xlink:href="#DejaVuSans-57"/>
     </g>
    </g>
    <g id="line2d_60">
     <path d="M 385.263855 45.697748 
L 403.791855 45.697748 
" style="fill:none;stroke:#7e8100;stroke-linecap:square;stroke-width:2;"/>
    </g>
    <g id="line2d_61"/>
    <g id="text_24">
     <!-- 21.8 -->
     <g transform="translate(411.203055 48.940148)scale(0.09264 -0.09264)">
      <use xlink:href="#DejaVuSans-50"/>
      <use x="63.623047" xlink:href="#DejaVuSans-49"/>
      <use x="127.246094" xlink:href="#DejaVuSans-46"/>
      <use x="159.033203" xlink:href="#DejaVuSans-56"/>
     </g>
    </g>
    <g id="line2d_62">
     <path d="M 385.263855 59.295563 
L 403.791855 59.295563 
" style="fill:none;stroke:#5ea100;stroke-linecap:square;stroke-width:2;"/>
    </g>
    <g id="line2d_63"/>
    <g id="text_25">
     <!-- 23.6 -->
     <g transform="translate(411.203055 62.537963)scale(0.09264 -0.09264)">
      <use xlink:href="#DejaVuSans-50"/>
      <use x="63.623047" xlink:href="#DejaVuSans-51"/>
      <use x="127.246094" xlink:href="#DejaVuSans-46"/>
      <use x="159.033203" xlink:href="#DejaVuSans-54"/>
     </g>
    </g>
    <g id="line2d_64">
     <path d="M 385.263855 72.893378 
L 403.791855 72.893378 
" style="fill:none;stroke:#3ec100;stroke-linecap:square;stroke-width:2;"/>
    </g>
    <g id="line2d_65"/>
    <g id="text_26">
     <!-- 25.4 -->
     <g transform="translate(411.203055 76.135778)scale(0.09264 -0.09264)">
      <use xlink:href="#DejaVuSans-50"/>
      <use x="63.623047" xlink:href="#DejaVuSans-53"/>
      <use x="127.246094" xlink:href="#DejaVuSans-46"/>
      <use x="159.033203" xlink:href="#DejaVuSans-52"/>
     </g>
    </g>
    <g id="line2d_66">
     <path d="M 450.35793 45.697748 
L 468.88593 45.697748 
" style="fill:none;stroke:#1ee100;stroke-linecap:square;stroke-width:2;"/>
    </g>
    <g id="line2d_67"/>
    <g id="text_27">
     <!-- 27.2 -->
     <g transform="translate(476.29713 48.940148)scale(0.09264 -0.09264)">
      <use xlink:href="#DejaVuSans-50"/>
      <use x="63.623047" xlink:href="#DejaVuSans-55"/>
      <use x="127.246094" xlink:href="#DejaVuSans-46"/>
      <use x="159.033203" xlink:href="#DejaVuSans-50"/>
     </g>
    </g>
    <g id="line2d_68">
     <path d="M 450.35793 59.295563 
L 468.88593 59.295563 
" style="fill:none;stroke:#00ff00;stroke-linecap:square;stroke-width:2;"/>
    </g>
    <g id="line2d_69"/>
    <g id="text_28">
     <!-- 29.0 -->
     <g transform="translate(476.29713 62.537963)scale(0.09264 -0.09264)">
      <use xlink:href="#DejaVuSans-50"/>
      <use x="63.623047" xlink:href="#DejaVuSans-57"/>
      <use x="127.246094" xlink:href="#DejaVuSans-46"/>
      <use x="159.033203" xlink:href="#DejaVuSans-48"/>
     </g>
    </g>
   </g>
  </g>
  <g id="axes_2">
   <g id="patch_8">
    <path d="M 86.4 524.16 
L 547.2 524.16 
L 547.2 305.28 
L 86.4 305.28 
z
" style="fill:#ffffff;"/>
   </g>
   <g id="matplotlib.axis_3">
    <g id="xtick_6">
     <g id="line2d_70">
      <path clip-path="url(#pbc9ea32cce)" d="M 142.254545 524.16 
L 142.254545 305.28 
" style="fill:none;stroke:#b0b0b0;stroke-linecap:square;stroke-width:0.8;"/>
     </g>
     <g id="line2d_71">
      <g>
       <use style="stroke:#000000;stroke-width:0.8;" x="142.254545" xlink:href="#m27f0ddbc47" y="524.16"/>
      </g>
     </g>
     <g id="text_29">
      <!-- −10 -->
      <g transform="translate(125.370795 543.3175)scale(0.16 -0.16)">
       <use xlink:href="#DejaVuSans-8722"/>
       <use x="83.789062" xlink:href="#DejaVuSans-49"/>
       <use x="147.412109" xlink:href="#DejaVuSans-48"/>
      </g>
     </g>
    </g>
    <g id="xtick_7">
     <g id="line2d_72">
      <path clip-path="url(#pbc9ea32cce)" d="M 229.527273 524.16 
L 229.527273 305.28 
" style="fill:none;stroke:#b0b0b0;stroke-linecap:square;stroke-width:0.8;"/>
     </g>
     <g id="line2d_73">
      <g>
       <use style="stroke:#000000;stroke-width:0.8;" x="229.527273" xlink:href="#m27f0ddbc47" y="524.16"/>
      </g>
     </g>
     <g id="text_30">
      <!-- −5 -->
      <g transform="translate(217.733523 543.3175)scale(0.16 -0.16)">
       <use xlink:href="#DejaVuSans-8722"/>
       <use x="83.789062" xlink:href="#DejaVuSans-53"/>
      </g>
     </g>
    </g>
    <g id="xtick_8">
     <g id="line2d_74">
      <path clip-path="url(#pbc9ea32cce)" d="M 316.8 524.16 
L 316.8 305.28 
" style="fill:none;stroke:#b0b0b0;stroke-linecap:square;stroke-width:0.8;"/>
     </g>
     <g id="line2d_75">
      <g>
       <use style="stroke:#000000;stroke-width:0.8;" x="316.8" xlink:href="#m27f0ddbc47" y="524.16"/>
      </g>
     </g>
     <g id="text_31">
      <!-- 0 -->
      <g transform="translate(311.71 543.3175)scale(0.16 -0.16)">
       <use xlink:href="#DejaVuSans-48"/>
      </g>
     </g>
    </g>
    <g id="xtick_9">
     <g id="line2d_76">
      <path clip-path="url(#pbc9ea32cce)" d="M 404.072727 524.16 
L 404.072727 305.28 
" style="fill:none;stroke:#b0b0b0;stroke-linecap:square;stroke-width:0.8;"/>
     </g>
     <g id="line2d_77">
      <g>
       <use style="stroke:#000000;stroke-width:0.8;" x="404.072727" xlink:href="#m27f0ddbc47" y="524.16"/>
      </g>
     </g>
     <g id="text_32">
      <!-- 5 -->
      <g transform="translate(398.982727 543.3175)scale(0.16 -0.16)">
       <use xlink:href="#DejaVuSans-53"/>
      </g>
     </g>
    </g>
    <g id="xtick_10">
     <g id="line2d_78">
      <path clip-path="url(#pbc9ea32cce)" d="M 491.345455 524.16 
L 491.345455 305.28 
" style="fill:none;stroke:#b0b0b0;stroke-linecap:square;stroke-width:0.8;"/>
     </g>
     <g id="line2d_79">
      <g>
       <use style="stroke:#000000;stroke-width:0.8;" x="491.345455" xlink:href="#m27f0ddbc47" y="524.16"/>
      </g>
     </g>
     <g id="text_33">
      <!-- 10 -->
      <g transform="translate(481.165455 543.3175)scale(0.16 -0.16)">
       <use xlink:href="#DejaVuSans-49"/>
       <use x="63.623047" xlink:href="#DejaVuSans-48"/>
      </g>
     </g>
    </g>
    <g id="text_34">
     <!-- x [mm] -->
     <defs>
      <path d="M 54.890625 54.6875 
L 35.109375 28.078125 
L 55.90625 0 
L 45.3125 0 
L 29.390625 21.484375 
L 13.484375 0 
L 2.875 0 
L 24.125 28.609375 
L 4.6875 54.6875 
L 15.28125 54.6875 
L 29.78125 35.203125 
L 44.28125 54.6875 
z
" id="DejaVuSans-120"/>
     </defs>
     <g transform="translate(287.695 562.8025)scale(0.16 -0.16)">
      <use xlink:href="#DejaVuSans-120"/>
      <use x="59.179688" xlink:href="#DejaVuSans-32"/>
      <use x="90.966797" xlink:href="#DejaVuSans-91"/>
      <use x="129.980469" xlink:href="#DejaVuSans-109"/>
      <use x="227.392578" xlink:href="#DejaVuSans-109"/>
      <use x="324.804688" xlink:href="#DejaVuSans-93"/>
     </g>
    </g>
   </g>
   <g id="matplotlib.axis_4">
    <g id="ytick_5">
     <g id="line2d_80">
      <path clip-path="url(#pbc9ea32cce)" d="M 86.4 489.432708 
L 547.2 489.432708 
" style="fill:none;stroke:#b0b0b0;stroke-linecap:square;stroke-width:0.8;"/>
     </g>
     <g id="line2d_81">
      <g>
       <use style="stroke:#000000;stroke-width:0.8;" x="86.4" xlink:href="#m6acbb28e1f" y="489.432708"/>
      </g>
     </g>
     <g id="text_35">
      <!-- −10 -->
      <g transform="translate(45.6325 495.511458)scale(0.16 -0.16)">
       <use xlink:href="#DejaVuSans-8722"/>
       <use x="83.789062" xlink:href="#DejaVuSans-49"/>
       <use x="147.412109" xlink:href="#DejaVuSans-48"/>
      </g>
     </g>
    </g>
    <g id="ytick_6">
     <g id="line2d_82">
      <path clip-path="url(#pbc9ea32cce)" d="M 86.4 436.788744 
L 547.2 436.788744 
" style="fill:none;stroke:#b0b0b0;stroke-linecap:square;stroke-width:0.8;"/>
     </g>
     <g id="line2d_83">
      <g>
       <use style="stroke:#000000;stroke-width:0.8;" x="86.4" xlink:href="#m6acbb28e1f" y="436.788744"/>
      </g>
     </g>
     <g id="text_36">
      <!-- 0 -->
      <g transform="translate(69.22 442.867494)scale(0.16 -0.16)">
       <use xlink:href="#DejaVuSans-48"/>
      </g>
     </g>
    </g>
    <g id="ytick_7">
     <g id="line2d_84">
      <path clip-path="url(#pbc9ea32cce)" d="M 86.4 384.14478 
L 547.2 384.14478 
" style="fill:none;stroke:#b0b0b0;stroke-linecap:square;stroke-width:0.8;"/>
     </g>
     <g id="line2d_85">
      <g>
       <use style="stroke:#000000;stroke-width:0.8;" x="86.4" xlink:href="#m6acbb28e1f" y="384.14478"/>
      </g>
     </g>
     <g id="text_37">
      <!-- 10 -->
      <g transform="translate(59.04 390.22353)scale(0.16 -0.16)">
       <use xlink:href="#DejaVuSans-49"/>
       <use x="63.623047" xlink:href="#DejaVuSans-48"/>
      </g>
     </g>
    </g>
    <g id="ytick_8">
     <g id="line2d_86">
      <path clip-path="url(#pbc9ea32cce)" d="M 86.4 331.500816 
L 547.2 331.500816 
" style="fill:none;stroke:#b0b0b0;stroke-linecap:square;stroke-width:0.8;"/>
     </g>
     <g id="line2d_87">
      <g>
       <use style="stroke:#000000;stroke-width:0.8;" x="86.4" xlink:href="#m6acbb28e1f" y="331.500816"/>
      </g>
     </g>
     <g id="text_38">
      <!-- 20 -->
      <g transform="translate(59.04 337.579566)scale(0.16 -0.16)">
       <use xlink:href="#DejaVuSans-50"/>
       <use x="63.623047" xlink:href="#DejaVuSans-48"/>
      </g>
     </g>
    </g>
    <g id="text_39">
     <!-- Ix [G.cm] -->
     <g transform="translate(38.305 451.5325)rotate(-90)scale(0.16 -0.16)">
      <use xlink:href="#DejaVuSans-73"/>
      <use x="29.492188" xlink:href="#DejaVuSans-120"/>
      <use x="88.671875" xlink:href="#DejaVuSans-32"/>
      <use x="120.458984" xlink:href="#DejaVuSans-91"/>
      <use x="159.472656" xlink:href="#DejaVuSans-71"/>
      <use x="236.962891" xlink:href="#DejaVuSans-46"/>
      <use x="268.75" xlink:href="#DejaVuSans-99"/>
      <use x="323.730469" xlink:href="#DejaVuSans-109"/>
      <use x="421.142578" xlink:href="#DejaVuSans-93"/>
     </g>
    </g>
   </g>
   <g id="line2d_88">
    <path clip-path="url(#pbc9ea32cce)" d="M 107.345455 462.634499 
L 133.527273 457.801931 
L 159.709091 464.386095 
L 185.890909 474.864031 
L 212.072727 480.677837 
L 238.254545 483.59585 
L 264.436364 477.189242 
L 290.618182 468.448716 
L 316.8 458.610344 
L 342.981818 451.790434 
L 369.163636 456.138875 
L 395.345455 464.830611 
L 421.527273 468.390942 
L 447.709091 452.258952 
L 473.890909 419.776234 
L 500.072727 381.96694 
L 526.254545 365.125925 
" style="fill:none;stroke:#0000ff;stroke-linecap:square;stroke-width:2;"/>
   </g>
   <g id="line2d_89">
    <path clip-path="url(#pbc9ea32cce)" d="M 107.345455 465.099668 
L 133.527273 454.78653 
L 159.709091 459.728444 
L 185.890909 466.458645 
L 212.072727 470.665689 
L 238.254545 467.470286 
L 264.436364 457.26276 
L 290.618182 443.757299 
L 316.8 432.542864 
L 342.981818 427.564236 
L 369.163636 429.980635 
L 395.345455 437.379056 
L 421.527273 439.8176 
L 447.709091 421.209512 
L 473.890909 387.705646 
L 500.072727 348.934363 
L 526.254545 336.05196 
" style="fill:none;stroke:#2000df;stroke-linecap:square;stroke-width:2;"/>
   </g>
   <g id="line2d_90">
    <path clip-path="url(#pbc9ea32cce)" d="M 107.345455 466.945925 
L 133.527273 458.915518 
L 159.709091 460.598499 
L 185.890909 466.772578 
L 212.072727 475.911925 
L 238.254545 473.87554 
L 264.436364 461.361287 
L 290.618182 449.848761 
L 316.8 436.95451 
L 342.981818 429.852492 
L 369.163636 434.421499 
L 395.345455 444.46932 
L 421.527273 447.717937 
L 447.709091 428.074692 
L 473.890909 395.818581 
L 500.072727 353.640542 
L 526.254545 345.140431 
" style="fill:none;stroke:#4000bf;stroke-linecap:square;stroke-width:2;"/>
   </g>
   <g id="line2d_91">
    <path clip-path="url(#pbc9ea32cce)" d="M 107.345455 477.392798 
L 133.527273 471.634357 
L 159.709091 474.708059 
L 185.890909 480.545892 
L 212.072727 485.481076 
L 238.254545 482.392842 
L 264.436364 472.067767 
L 290.618182 457.575375 
L 316.8 445.391744 
L 342.981818 437.776086 
L 369.163636 443.688493 
L 395.345455 449.336979 
L 421.527273 446.784603 
L 447.709091 425.941697 
L 473.890909 394.839821 
L 500.072727 351.485833 
L 526.254545 343.601703 
" style="fill:none;stroke:#60009f;stroke-linecap:square;stroke-width:2;"/>
   </g>
   <g id="line2d_92">
    <path clip-path="url(#pbc9ea32cce)" d="M 107.345455 493.934503 
L 133.527273 483.989765 
L 159.709091 485.47356 
L 185.890909 490.951661 
L 212.072727 493.646377 
L 238.254545 490.653776 
L 264.436364 479.430713 
L 290.618182 466.376449 
L 316.8 453.259338 
L 342.981818 445.520469 
L 369.163636 444.42552 
L 395.345455 449.045963 
L 421.527273 448.901697 
L 447.709091 436.079463 
L 473.890909 395.527508 
L 500.072727 355.983159 
L 526.254545 341.481963 
" style="fill:none;stroke:#80007f;stroke-linecap:square;stroke-width:2;"/>
   </g>
   <g id="line2d_93">
    <path clip-path="url(#pbc9ea32cce)" d="M 107.345455 502.815809 
L 133.527273 489.140936 
L 159.709091 491.868472 
L 185.890909 493.563197 
L 212.072727 494.142358 
L 238.254545 488.413211 
L 264.436364 477.694618 
L 290.618182 456.870789 
L 316.8 441.046711 
L 342.981818 435.687128 
L 369.163636 439.597387 
L 395.345455 444.048062 
L 421.527273 444.721713 
L 447.709091 423.946571 
L 473.890909 382.160322 
L 500.072727 335.012028 
L 526.254545 318.649606 
" style="fill:none;stroke:#a0005f;stroke-linecap:square;stroke-width:2;"/>
   </g>
   <g id="line2d_94">
    <path clip-path="url(#pbc9ea32cce)" d="M 107.345455 493.798825 
L 133.527273 484.114613 
L 159.709091 481.624305 
L 185.890909 484.429423 
L 212.072727 486.006609 
L 238.254545 482.623948 
L 264.436364 472.755551 
L 290.618182 455.118063 
L 316.8 442.202347 
L 342.981818 432.8551 
L 369.163636 431.825481 
L 395.345455 437.623112 
L 421.527273 437.473202 
L 447.709091 418.12196 
L 473.890909 377.422547 
L 500.072727 336.453261 
L 526.254545 317.445732 
" style="fill:none;stroke:#c0003f;stroke-linecap:square;stroke-width:2;"/>
   </g>
   <g id="line2d_95">
    <path clip-path="url(#pbc9ea32cce)" d="M 107.345455 500.647263 
L 133.527273 492.344311 
L 159.709091 488.875486 
L 185.890909 495.149603 
L 212.072727 496.079474 
L 238.254545 490.014993 
L 264.436364 479.741753 
L 290.618182 465.413562 
L 316.8 451.844603 
L 342.981818 442.021543 
L 369.163636 444.437263 
L 395.345455 446.464862 
L 421.527273 444.603071 
L 447.709091 425.438402 
L 473.890909 390.632789 
L 500.072727 349.441975 
L 526.254545 328.415007 
" style="fill:none;stroke:#e0001f;stroke-linecap:square;stroke-width:2;"/>
   </g>
   <g id="line2d_96">
    <path clip-path="url(#pbc9ea32cce)" d="M 107.345455 501.068546 
L 133.527273 491.564725 
L 159.709091 490.047322 
L 185.890909 493.399523 
L 212.072727 495.435078 
L 238.254545 491.067707 
L 264.436364 477.842982 
L 290.618182 461.491843 
L 316.8 445.840793 
L 342.981818 438.779407 
L 369.163636 437.196819 
L 395.345455 440.81507 
L 421.527273 439.544425 
L 447.709091 415.985198 
L 473.890909 379.286752 
L 500.072727 327.822625 
L 526.254545 315.229091 
" style="fill:none;stroke:#fe0100;stroke-linecap:square;stroke-width:2;"/>
   </g>
   <g id="line2d_97">
    <path clip-path="url(#pbc9ea32cce)" d="M 107.345455 514.210909 
L 133.527273 505.264725 
L 159.709091 501.040301 
L 185.890909 504.447444 
L 212.072727 504.935176 
L 238.254545 500.327024 
L 264.436364 488.29867 
L 290.618182 469.68406 
L 316.8 454.016957 
L 342.981818 446.513701 
L 369.163636 443.5134 
L 395.345455 451.46851 
L 421.527273 448.898437 
L 447.709091 430.793827 
L 473.890909 386.917143 
L 500.072727 344.958858 
L 526.254545 338.671608 
" style="fill:none;stroke:#de2100;stroke-linecap:square;stroke-width:2;"/>
   </g>
   <g id="line2d_98">
    <path clip-path="url(#pbc9ea32cce)" d="M 107.345455 500.091845 
L 133.527273 496.127757 
L 159.709091 491.249151 
L 185.890909 493.067652 
L 212.072727 495.21958 
L 238.254545 491.707861 
L 264.436364 481.639428 
L 290.618182 465.718112 
L 316.8 450.692057 
L 342.981818 439.565671 
L 369.163636 436.881121 
L 395.345455 446.252022 
L 421.527273 441.649745 
L 447.709091 422.329112 
L 473.890909 384.877636 
L 500.072727 337.320895 
L 526.254545 333.502185 
" style="fill:none;stroke:#be4100;stroke-linecap:square;stroke-width:2;"/>
   </g>
   <g id="line2d_99">
    <path clip-path="url(#pbc9ea32cce)" d="M 107.345455 479.157662 
L 133.527273 470.242547 
L 159.709091 469.792897 
L 185.890909 476.744145 
L 212.072727 479.344742 
L 238.254545 475.400474 
L 264.436364 466.212458 
L 290.618182 451.816216 
L 316.8 436.00868 
L 342.981818 427.661183 
L 369.163636 427.436147 
L 395.345455 435.309926 
L 421.527273 436.313539 
L 447.709091 418.358299 
L 473.890909 383.407762 
L 500.072727 338.281001 
L 526.254545 333.379176 
" style="fill:none;stroke:#9e6100;stroke-linecap:square;stroke-width:2;"/>
   </g>
   <g id="line2d_100">
    <path clip-path="url(#pbc9ea32cce)" d="M 107.345455 497.472006 
L 133.527273 493.529238 
L 159.709091 491.043564 
L 185.890909 494.994776 
L 212.072727 496.541118 
L 238.254545 489.567227 
L 264.436364 479.502366 
L 290.618182 466.074518 
L 316.8 452.16391 
L 342.981818 440.674413 
L 369.163636 441.589304 
L 395.345455 448.533035 
L 421.527273 449.541042 
L 447.709091 432.784846 
L 473.890909 390.504981 
L 500.072727 353.834006 
L 526.254545 335.221423 
" style="fill:none;stroke:#7e8100;stroke-linecap:square;stroke-width:2;"/>
   </g>
   <g id="line2d_101">
    <path clip-path="url(#pbc9ea32cce)" d="M 107.345455 479.643044 
L 133.527273 476.815638 
L 159.709091 478.1363 
L 185.890909 483.279739 
L 212.072727 489.277057 
L 238.254545 484.364814 
L 264.436364 475.00725 
L 290.618182 460.459209 
L 316.8 446.516629 
L 342.981818 439.353943 
L 369.163636 437.185079 
L 395.345455 439.785306 
L 421.527273 440.501076 
L 447.709091 426.120007 
L 473.890909 386.830418 
L 500.072727 360.022044 
L 526.254545 335.575637 
" style="fill:none;stroke:#5ea100;stroke-linecap:square;stroke-width:2;"/>
   </g>
   <g id="line2d_102">
    <path clip-path="url(#pbc9ea32cce)" d="M 107.345455 463.915886 
L 133.527273 462.41798 
L 159.709091 463.03956 
L 185.890909 472.221227 
L 212.072727 479.96205 
L 238.254545 479.141253 
L 264.436364 468.824371 
L 290.618182 454.594483 
L 316.8 444.222887 
L 342.981818 439.939227 
L 369.163636 441.731699 
L 395.345455 449.452458 
L 421.527273 455.134987 
L 447.709091 439.2564 
L 473.890909 403.247972 
L 500.072727 369.293969 
L 526.254545 353.398326 
" style="fill:none;stroke:#3ec100;stroke-linecap:square;stroke-width:2;"/>
   </g>
   <g id="line2d_103">
    <path clip-path="url(#pbc9ea32cce)" d="M 107.345455 481.700922 
L 133.527273 476.287512 
L 159.709091 480.504654 
L 185.890909 486.267592 
L 212.072727 490.500974 
L 238.254545 491.613844 
L 264.436364 484.626404 
L 290.618182 472.436664 
L 316.8 461.219066 
L 342.981818 454.078554 
L 369.163636 455.563195 
L 395.345455 464.105729 
L 421.527273 465.642086 
L 447.709091 446.060935 
L 473.890909 409.762492 
L 500.072727 377.890075 
L 526.254545 362.041489 
" style="fill:none;stroke:#1ee100;stroke-linecap:square;stroke-width:2;"/>
   </g>
   <g id="line2d_104">
    <path clip-path="url(#pbc9ea32cce)" d="M 107.345455 476.759072 
L 133.527273 469.576776 
L 159.709091 471.072876 
L 185.890909 477.521385 
L 212.072727 482.292477 
L 238.254545 483.316133 
L 264.436364 477.286271 
L 290.618182 468.124076 
L 316.8 453.446093 
L 342.981818 448.440094 
L 369.163636 452.384565 
L 395.345455 459.980348 
L 421.527273 463.574366 
L 447.709091 444.353404 
L 473.890909 417.280547 
L 500.072727 379.36905 
L 526.254545 369.475549 
" style="fill:none;stroke:#00ff00;stroke-linecap:square;stroke-width:2;"/>
   </g>
   <g id="patch_9">
    <path d="M 86.4 524.16 
L 86.4 305.28 
" style="fill:none;stroke:#000000;stroke-linecap:square;stroke-linejoin:miter;stroke-width:0.8;"/>
   </g>
   <g id="patch_10">
    <path d="M 547.2 524.16 
L 547.2 305.28 
" style="fill:none;stroke:#000000;stroke-linecap:square;stroke-linejoin:miter;stroke-width:0.8;"/>
   </g>
   <g id="patch_11">
    <path d="M 86.4 524.16 
L 547.2 524.16 
" style="fill:none;stroke:#000000;stroke-linecap:square;stroke-linejoin:miter;stroke-width:0.8;"/>
   </g>
   <g id="patch_12">
    <path d="M 86.4 305.28 
L 547.2 305.28 
" style="fill:none;stroke:#000000;stroke-linecap:square;stroke-linejoin:miter;stroke-width:0.8;"/>
   </g>
  </g>
  <g id="text_40">
   <!-- Integrals (Coil) for 1995 @ y=-01.0 -->
   <defs>
    <path d="M 54.890625 33.015625 
L 54.890625 0 
L 45.90625 0 
L 45.90625 32.71875 
Q 45.90625 40.484375 42.875 44.328125 
Q 39.84375 48.1875 33.796875 48.1875 
Q 26.515625 48.1875 22.3125 43.546875 
Q 18.109375 38.921875 18.109375 30.90625 
L 18.109375 0 
L 9.078125 0 
L 9.078125 54.6875 
L 18.109375 54.6875 
L 18.109375 46.1875 
Q 21.34375 51.125 25.703125 53.5625 
Q 30.078125 56 35.796875 56 
Q 45.21875 56 50.046875 50.171875 
Q 54.890625 44.34375 54.890625 33.015625 
z
" id="DejaVuSans-110"/>
    <path d="M 18.3125 70.21875 
L 18.3125 54.6875 
L 36.8125 54.6875 
L 36.8125 47.703125 
L 18.3125 47.703125 
L 18.3125 18.015625 
Q 18.3125 11.328125 20.140625 9.421875 
Q 21.96875 7.515625 27.59375 7.515625 
L 36.8125 7.515625 
L 36.8125 0 
L 27.59375 0 
Q 17.1875 0 13.234375 3.875 
Q 9.28125 7.765625 9.28125 18.015625 
L 9.28125 47.703125 
L 2.6875 47.703125 
L 2.6875 54.6875 
L 9.28125 54.6875 
L 9.28125 70.21875 
z
" id="DejaVuSans-116"/>
    <path d="M 45.40625 27.984375 
Q 45.40625 37.75 41.375 43.109375 
Q 37.359375 48.484375 30.078125 48.484375 
Q 22.859375 48.484375 18.828125 43.109375 
Q 14.796875 37.75 14.796875 27.984375 
Q 14.796875 18.265625 18.828125 12.890625 
Q 22.859375 7.515625 30.078125 7.515625 
Q 37.359375 7.515625 41.375 12.890625 
Q 45.40625 18.265625 45.40625 27.984375 
z
M 54.390625 6.78125 
Q 54.390625 -7.171875 48.1875 -13.984375 
Q 42 -20.796875 29.203125 -20.796875 
Q 24.46875 -20.796875 20.265625 -20.09375 
Q 16.0625 -19.390625 12.109375 -17.921875 
L 12.109375 -9.1875 
Q 16.0625 -11.328125 19.921875 -12.34375 
Q 23.78125 -13.375 27.78125 -13.375 
Q 36.625 -13.375 41.015625 -8.765625 
Q 45.40625 -4.15625 45.40625 5.171875 
L 45.40625 9.625 
Q 42.625 4.78125 38.28125 2.390625 
Q 33.9375 0 27.875 0 
Q 17.828125 0 11.671875 7.65625 
Q 5.515625 15.328125 5.515625 27.984375 
Q 5.515625 40.671875 11.671875 48.328125 
Q 17.828125 56 27.875 56 
Q 33.9375 56 38.28125 53.609375 
Q 42.625 51.21875 45.40625 46.390625 
L 45.40625 54.6875 
L 54.390625 54.6875 
z
" id="DejaVuSans-103"/>
    <path d="M 41.109375 46.296875 
Q 39.59375 47.171875 37.8125 47.578125 
Q 36.03125 48 33.890625 48 
Q 26.265625 48 22.1875 43.046875 
Q 18.109375 38.09375 18.109375 28.8125 
L 18.109375 0 
L 9.078125 0 
L 9.078125 54.6875 
L 18.109375 54.6875 
L 18.109375 46.1875 
Q 20.953125 51.171875 25.484375 53.578125 
Q 30.03125 56 36.53125 56 
Q 37.453125 56 38.578125 55.875 
Q 39.703125 55.765625 41.0625 55.515625 
z
" id="DejaVuSans-114"/>
    <path d="M 9.421875 75.984375 
L 18.40625 75.984375 
L 18.40625 0 
L 9.421875 0 
z
" id="DejaVuSans-108"/>
    <path d="M 31 75.875 
Q 24.46875 64.65625 21.28125 53.65625 
Q 18.109375 42.671875 18.109375 31.390625 
Q 18.109375 20.125 21.3125 9.0625 
Q 24.515625 -2 31 -13.1875 
L 23.1875 -13.1875 
Q 15.875 -1.703125 12.234375 9.375 
Q 8.59375 20.453125 8.59375 31.390625 
Q 8.59375 42.28125 12.203125 53.3125 
Q 15.828125 64.359375 23.1875 75.875 
z
" id="DejaVuSans-40"/>
    <path d="M 64.40625 67.28125 
L 64.40625 56.890625 
Q 59.421875 61.53125 53.78125 63.8125 
Q 48.140625 66.109375 41.796875 66.109375 
Q 29.296875 66.109375 22.65625 58.46875 
Q 16.015625 50.828125 16.015625 36.375 
Q 16.015625 21.96875 22.65625 14.328125 
Q 29.296875 6.6875 41.796875 6.6875 
Q 48.140625 6.6875 53.78125 8.984375 
Q 59.421875 11.28125 64.40625 15.921875 
L 64.40625 5.609375 
Q 59.234375 2.09375 53.4375 0.328125 
Q 47.65625 -1.421875 41.21875 -1.421875 
Q 24.65625 -1.421875 15.125 8.703125 
Q 5.609375 18.84375 5.609375 36.375 
Q 5.609375 53.953125 15.125 64.078125 
Q 24.65625 74.21875 41.21875 74.21875 
Q 47.75 74.21875 53.53125 72.484375 
Q 59.328125 70.75 64.40625 67.28125 
z
" id="DejaVuSans-67"/>
    <path d="M 30.609375 48.390625 
Q 23.390625 48.390625 19.1875 42.75 
Q 14.984375 37.109375 14.984375 27.296875 
Q 14.984375 17.484375 19.15625 11.84375 
Q 23.34375 6.203125 30.609375 6.203125 
Q 37.796875 6.203125 41.984375 11.859375 
Q 46.1875 17.53125 46.1875 27.296875 
Q 46.1875 37.015625 41.984375 42.703125 
Q 37.796875 48.390625 30.609375 48.390625 
z
M 30.609375 56 
Q 42.328125 56 49.015625 48.375 
Q 55.71875 40.765625 55.71875 27.296875 
Q 55.71875 13.875 49.015625 6.21875 
Q 42.328125 -1.421875 30.609375 -1.421875 
Q 18.84375 -1.421875 12.171875 6.21875 
Q 5.515625 13.875 5.515625 27.296875 
Q 5.515625 40.765625 12.171875 48.375 
Q 18.84375 56 30.609375 56 
z
" id="DejaVuSans-111"/>
    <path d="M 9.421875 54.6875 
L 18.40625 54.6875 
L 18.40625 0 
L 9.421875 0 
z
M 9.421875 75.984375 
L 18.40625 75.984375 
L 18.40625 64.59375 
L 9.421875 64.59375 
z
" id="DejaVuSans-105"/>
    <path d="M 8.015625 75.875 
L 15.828125 75.875 
Q 23.140625 64.359375 26.78125 53.3125 
Q 30.421875 42.28125 30.421875 31.390625 
Q 30.421875 20.453125 26.78125 9.375 
Q 23.140625 -1.703125 15.828125 -13.1875 
L 8.015625 -13.1875 
Q 14.5 -2 17.703125 9.0625 
Q 20.90625 20.125 20.90625 31.390625 
Q 20.90625 42.671875 17.703125 53.65625 
Q 14.5 64.65625 8.015625 75.875 
z
" id="DejaVuSans-41"/>
    <path d="M 37.109375 75.984375 
L 37.109375 68.5 
L 28.515625 68.5 
Q 23.6875 68.5 21.796875 66.546875 
Q 19.921875 64.59375 19.921875 59.515625 
L 19.921875 54.6875 
L 34.71875 54.6875 
L 34.71875 47.703125 
L 19.921875 47.703125 
L 19.921875 0 
L 10.890625 0 
L 10.890625 47.703125 
L 2.296875 47.703125 
L 2.296875 54.6875 
L 10.890625 54.6875 
L 10.890625 58.5 
Q 10.890625 67.625 15.140625 71.796875 
Q 19.390625 75.984375 28.609375 75.984375 
z
" id="DejaVuSans-102"/>
    <path d="M 37.203125 26.21875 
Q 37.203125 19.234375 40.671875 15.25 
Q 44.140625 11.28125 50.203125 11.28125 
Q 56.203125 11.28125 59.640625 15.28125 
Q 63.09375 19.28125 63.09375 26.21875 
Q 63.09375 33.0625 59.578125 37.078125 
Q 56.0625 41.109375 50.09375 41.109375 
Q 44.1875 41.109375 40.6875 37.109375 
Q 37.203125 33.109375 37.203125 26.21875 
z
M 63.8125 11.625 
Q 60.890625 7.859375 57.109375 6.078125 
Q 53.328125 4.296875 48.296875 4.296875 
Q 39.890625 4.296875 34.640625 10.375 
Q 29.390625 16.453125 29.390625 26.21875 
Q 29.390625 35.984375 34.65625 42.078125 
Q 39.9375 48.1875 48.296875 48.1875 
Q 53.328125 48.1875 57.125 46.359375 
Q 60.9375 44.53125 63.8125 40.828125 
L 63.8125 47.21875 
L 70.796875 47.21875 
L 70.796875 11.28125 
Q 77.9375 12.359375 81.953125 17.796875 
Q 85.984375 23.25 85.984375 31.890625 
Q 85.984375 37.109375 84.4375 41.703125 
Q 82.90625 46.296875 79.78125 50.203125 
Q 74.703125 56.59375 67.40625 59.984375 
Q 60.109375 63.375 51.515625 63.375 
Q 45.515625 63.375 39.984375 61.78125 
Q 34.46875 60.203125 29.78125 57.078125 
Q 22.125 52.09375 17.796875 44.015625 
Q 13.484375 35.9375 13.484375 26.515625 
Q 13.484375 18.75 16.28125 11.953125 
Q 19.09375 5.171875 24.421875 0 
Q 29.546875 -5.078125 36.28125 -7.734375 
Q 43.015625 -10.40625 50.6875 -10.40625 
Q 56.984375 -10.40625 63.0625 -8.28125 
Q 69.140625 -6.15625 74.21875 -2.203125 
L 78.609375 -7.625 
Q 72.515625 -12.359375 65.3125 -14.875 
Q 58.109375 -17.390625 50.6875 -17.390625 
Q 41.65625 -17.390625 33.640625 -14.1875 
Q 25.640625 -10.984375 19.390625 -4.890625 
Q 13.140625 1.21875 9.859375 9.25 
Q 6.59375 17.28125 6.59375 26.515625 
Q 6.59375 35.40625 9.90625 43.453125 
Q 13.234375 51.515625 19.390625 57.625 
Q 25.6875 63.8125 33.9375 67.109375 
Q 42.1875 70.40625 51.421875 70.40625 
Q 61.765625 70.40625 70.625 66.15625 
Q 79.5 61.921875 85.5 54.109375 
Q 89.15625 49.3125 91.078125 43.703125 
Q 93.015625 38.09375 93.015625 32.078125 
Q 93.015625 19.234375 85.25 11.8125 
Q 77.484375 4.390625 63.8125 4.109375 
z
" id="DejaVuSans-64"/>
    <path d="M 10.59375 45.40625 
L 73.1875 45.40625 
L 73.1875 37.203125 
L 10.59375 37.203125 
z
M 10.59375 25.484375 
L 73.1875 25.484375 
L 73.1875 17.1875 
L 10.59375 17.1875 
z
" id="DejaVuSans-61"/>
    <path d="M 4.890625 31.390625 
L 31.203125 31.390625 
L 31.203125 23.390625 
L 4.890625 23.390625 
z
" id="DejaVuSans-45"/>
   </defs>
   <g transform="translate(119.367 26.109)scale(0.192 -0.192)">
    <use xlink:href="#DejaVuSans-73"/>
    <use x="29.492188" xlink:href="#DejaVuSans-110"/>
    <use x="92.871094" xlink:href="#DejaVuSans-116"/>
    <use x="132.080078" xlink:href="#DejaVuSans-101"/>
    <use x="193.603516" xlink:href="#DejaVuSans-103"/>
    <use x="257.080078" xlink:href="#DejaVuSans-114"/>
    <use x="298.193359" xlink:href="#DejaVuSans-97"/>
    <use x="359.472656" xlink:href="#DejaVuSans-108"/>
    <use x="387.255859" xlink:href="#DejaVuSans-115"/>
    <use x="439.355469" xlink:href="#DejaVuSans-32"/>
    <use x="471.142578" xlink:href="#DejaVuSans-40"/>
    <use x="510.15625" xlink:href="#DejaVuSans-67"/>
    <use x="579.980469" xlink:href="#DejaVuSans-111"/>
    <use x="641.162109" xlink:href="#DejaVuSans-105"/>
    <use x="668.945312" xlink:href="#DejaVuSans-108"/>
    <use x="696.728516" xlink:href="#DejaVuSans-41"/>
    <use x="735.742188" xlink:href="#DejaVuSans-32"/>
    <use x="767.529297" xlink:href="#DejaVuSans-102"/>
    <use x="802.734375" xlink:href="#DejaVuSans-111"/>
    <use x="863.916016" xlink:href="#DejaVuSans-114"/>
    <use x="905.029297" xlink:href="#DejaVuSans-32"/>
    <use x="936.816406" xlink:href="#DejaVuSans-49"/>
    <use x="1000.439453" xlink:href="#DejaVuSans-57"/>
    <use x="1064.0625" xlink:href="#DejaVuSans-57"/>
    <use x="1127.685547" xlink:href="#DejaVuSans-53"/>
    <use x="1191.308594" xlink:href="#DejaVuSans-32"/>
    <use x="1223.095703" xlink:href="#DejaVuSans-64"/>
    <use x="1323.095703" xlink:href="#DejaVuSans-32"/>
    <use x="1354.882812" xlink:href="#DejaVuSans-121"/>
    <use x="1414.0625" xlink:href="#DejaVuSans-61"/>
    <use x="1497.851562" xlink:href="#DejaVuSans-45"/>
    <use x="1533.935547" xlink:href="#DejaVuSans-48"/>
    <use x="1597.558594" xlink:href="#DejaVuSans-49"/>
    <use x="1661.181641" xlink:href="#DejaVuSans-46"/>
    <use x="1692.96875" xlink:href="#DejaVuSans-48"/>
   </g>
  </g>
 </g>
 <defs>
  <clipPath id="pe2d58321bd">
   <rect height="218.88" width="460.8" x="86.4" y="86.4"/>
  </clipPath>
  <clipPath id="pbc9ea32cce">
   <rect height="218.88" width="460.8" x="86.4" y="305.28"/>
  </clipPath>
 </defs>
</svg>
