<?xml version="1.0" encoding="utf-8" standalone="no"?>
<!DOCTYPE svg PUBLIC "-//W3C//DTD SVG 1.1//EN"
  "http://www.w3.org/Graphics/SVG/1.1/DTD/svg11.dtd">
<!-- Created with matplotlib (https://matplotlib.org/) -->
<svg height="576pt" version="1.1" viewBox="0 0 576 576" width="576pt" xmlns="http://www.w3.org/2000/svg" xmlns:xlink="http://www.w3.org/1999/xlink">
 <defs>
  <style type="text/css">
*{stroke-linecap:butt;stroke-linejoin:round;}
  </style>
 </defs>
 <g id="figure_1">
  <g id="patch_1">
   <path d="M 0 576 
L 576 576 
L 576 0 
L 0 0 
z
" style="fill:#ffffff;"/>
  </g>
  <g id="axes_1">
   <g id="patch_2">
    <path d="M 86.4 305.28 
L 547.2 305.28 
L 547.2 86.4 
L 86.4 86.4 
z
" style="fill:#ffffff;"/>
   </g>
   <g id="matplotlib.axis_1">
    <g id="xtick_1">
     <g id="line2d_1">
      <path clip-path="url(#p4d52a39ec7)" d="M 142.254545 305.28 
L 142.254545 86.4 
" style="fill:none;stroke:#b0b0b0;stroke-linecap:square;stroke-width:0.8;"/>
     </g>
     <g id="line2d_2">
      <defs>
       <path d="M 0 0 
L 0 3.5 
" id="mefd91c8e8e" style="stroke:#000000;stroke-width:0.8;"/>
      </defs>
      <g>
       <use style="stroke:#000000;stroke-width:0.8;" x="142.254545" xlink:href="#mefd91c8e8e" y="305.28"/>
      </g>
     </g>
     <g id="text_1">
      <!-- −10 -->
      <defs>
       <path d="M 10.59375 35.5 
L 73.1875 35.5 
L 73.1875 27.203125 
L 10.59375 27.203125 
z
" id="DejaVuSans-8722"/>
       <path d="M 12.40625 8.296875 
L 28.515625 8.296875 
L 28.515625 63.921875 
L 10.984375 60.40625 
L 10.984375 69.390625 
L 28.421875 72.90625 
L 38.28125 72.90625 
L 38.28125 8.296875 
L 54.390625 8.296875 
L 54.390625 0 
L 12.40625 0 
z
" id="DejaVuSans-49"/>
       <path d="M 31.78125 66.40625 
Q 24.171875 66.40625 20.328125 58.90625 
Q 16.5 51.421875 16.5 36.375 
Q 16.5 21.390625 20.328125 13.890625 
Q 24.171875 6.390625 31.78125 6.390625 
Q 39.453125 6.390625 43.28125 13.890625 
Q 47.125 21.390625 47.125 36.375 
Q 47.125 51.421875 43.28125 58.90625 
Q 39.453125 66.40625 31.78125 66.40625 
z
M 31.78125 74.21875 
Q 44.046875 74.21875 50.515625 64.515625 
Q 56.984375 54.828125 56.984375 36.375 
Q 56.984375 17.96875 50.515625 8.265625 
Q 44.046875 -1.421875 31.78125 -1.421875 
Q 19.53125 -1.421875 13.0625 8.265625 
Q 6.59375 17.96875 6.59375 36.375 
Q 6.59375 54.828125 13.0625 64.515625 
Q 19.53125 74.21875 31.78125 74.21875 
z
" id="DejaVuSans-48"/>
      </defs>
      <g transform="translate(125.370795 324.4375)scale(0.16 -0.16)">
       <use xlink:href="#DejaVuSans-8722"/>
       <use x="83.789062" xlink:href="#DejaVuSans-49"/>
       <use x="147.412109" xlink:href="#DejaVuSans-48"/>
      </g>
     </g>
    </g>
    <g id="xtick_2">
     <g id="line2d_3">
      <path clip-path="url(#p4d52a39ec7)" d="M 229.527273 305.28 
L 229.527273 86.4 
" style="fill:none;stroke:#b0b0b0;stroke-linecap:square;stroke-width:0.8;"/>
     </g>
     <g id="line2d_4">
      <g>
       <use style="stroke:#000000;stroke-width:0.8;" x="229.527273" xlink:href="#mefd91c8e8e" y="305.28"/>
      </g>
     </g>
     <g id="text_2">
      <!-- −5 -->
      <defs>
       <path d="M 10.796875 72.90625 
L 49.515625 72.90625 
L 49.515625 64.59375 
L 19.828125 64.59375 
L 19.828125 46.734375 
Q 21.96875 47.46875 24.109375 47.828125 
Q 26.265625 48.1875 28.421875 48.1875 
Q 40.625 48.1875 47.75 41.5 
Q 54.890625 34.8125 54.890625 23.390625 
Q 54.890625 11.625 47.5625 5.09375 
Q 40.234375 -1.421875 26.90625 -1.421875 
Q 22.3125 -1.421875 17.546875 -0.640625 
Q 12.796875 0.140625 7.71875 1.703125 
L 7.71875 11.625 
Q 12.109375 9.234375 16.796875 8.0625 
Q 21.484375 6.890625 26.703125 6.890625 
Q 35.15625 6.890625 40.078125 11.328125 
Q 45.015625 15.765625 45.015625 23.390625 
Q 45.015625 31 40.078125 35.4375 
Q 35.15625 39.890625 26.703125 39.890625 
Q 22.75 39.890625 18.8125 39.015625 
Q 14.890625 38.140625 10.796875 36.28125 
z
" id="DejaVuSans-53"/>
      </defs>
      <g transform="translate(217.733523 324.4375)scale(0.16 -0.16)">
       <use xlink:href="#DejaVuSans-8722"/>
       <use x="83.789062" xlink:href="#DejaVuSans-53"/>
      </g>
     </g>
    </g>
    <g id="xtick_3">
     <g id="line2d_5">
      <path clip-path="url(#p4d52a39ec7)" d="M 316.8 305.28 
L 316.8 86.4 
" style="fill:none;stroke:#b0b0b0;stroke-linecap:square;stroke-width:0.8;"/>
     </g>
     <g id="line2d_6">
      <g>
       <use style="stroke:#000000;stroke-width:0.8;" x="316.8" xlink:href="#mefd91c8e8e" y="305.28"/>
      </g>
     </g>
     <g id="text_3">
      <!-- 0 -->
      <g transform="translate(311.71 324.4375)scale(0.16 -0.16)">
       <use xlink:href="#DejaVuSans-48"/>
      </g>
     </g>
    </g>
    <g id="xtick_4">
     <g id="line2d_7">
      <path clip-path="url(#p4d52a39ec7)" d="M 404.072727 305.28 
L 404.072727 86.4 
" style="fill:none;stroke:#b0b0b0;stroke-linecap:square;stroke-width:0.8;"/>
     </g>
     <g id="line2d_8">
      <g>
       <use style="stroke:#000000;stroke-width:0.8;" x="404.072727" xlink:href="#mefd91c8e8e" y="305.28"/>
      </g>
     </g>
     <g id="text_4">
      <!-- 5 -->
      <g transform="translate(398.982727 324.4375)scale(0.16 -0.16)">
       <use xlink:href="#DejaVuSans-53"/>
      </g>
     </g>
    </g>
    <g id="xtick_5">
     <g id="line2d_9">
      <path clip-path="url(#p4d52a39ec7)" d="M 491.345455 305.28 
L 491.345455 86.4 
" style="fill:none;stroke:#b0b0b0;stroke-linecap:square;stroke-width:0.8;"/>
     </g>
     <g id="line2d_10">
      <g>
       <use style="stroke:#000000;stroke-width:0.8;" x="491.345455" xlink:href="#mefd91c8e8e" y="305.28"/>
      </g>
     </g>
     <g id="text_5">
      <!-- 10 -->
      <g transform="translate(481.165455 324.4375)scale(0.16 -0.16)">
       <use xlink:href="#DejaVuSans-49"/>
       <use x="63.623047" xlink:href="#DejaVuSans-48"/>
      </g>
     </g>
    </g>
   </g>
   <g id="matplotlib.axis_2">
    <g id="ytick_1">
     <g id="line2d_11">
      <path clip-path="url(#p4d52a39ec7)" d="M 86.4 289.580898 
L 547.2 289.580898 
" style="fill:none;stroke:#b0b0b0;stroke-linecap:square;stroke-width:0.8;"/>
     </g>
     <g id="line2d_12">
      <defs>
       <path d="M 0 0 
L -3.5 0 
" id="mb429f58fd1" style="stroke:#000000;stroke-width:0.8;"/>
      </defs>
      <g>
       <use style="stroke:#000000;stroke-width:0.8;" x="86.4" xlink:href="#mb429f58fd1" y="289.580898"/>
      </g>
     </g>
     <g id="text_6">
      <!-- −30 -->
      <defs>
       <path d="M 40.578125 39.3125 
Q 47.65625 37.796875 51.625 33 
Q 55.609375 28.21875 55.609375 21.1875 
Q 55.609375 10.40625 48.1875 4.484375 
Q 40.765625 -1.421875 27.09375 -1.421875 
Q 22.515625 -1.421875 17.65625 -0.515625 
Q 12.796875 0.390625 7.625 2.203125 
L 7.625 11.71875 
Q 11.71875 9.328125 16.59375 8.109375 
Q 21.484375 6.890625 26.8125 6.890625 
Q 36.078125 6.890625 40.9375 10.546875 
Q 45.796875 14.203125 45.796875 21.1875 
Q 45.796875 27.640625 41.28125 31.265625 
Q 36.765625 34.90625 28.71875 34.90625 
L 20.21875 34.90625 
L 20.21875 43.015625 
L 29.109375 43.015625 
Q 36.375 43.015625 40.234375 45.921875 
Q 44.09375 48.828125 44.09375 54.296875 
Q 44.09375 59.90625 40.109375 62.90625 
Q 36.140625 65.921875 28.71875 65.921875 
Q 24.65625 65.921875 20.015625 65.03125 
Q 15.375 64.15625 9.8125 62.3125 
L 9.8125 71.09375 
Q 15.4375 72.65625 20.34375 73.4375 
Q 25.25 74.21875 29.59375 74.21875 
Q 40.828125 74.21875 47.359375 69.109375 
Q 53.90625 64.015625 53.90625 55.328125 
Q 53.90625 49.265625 50.4375 45.09375 
Q 46.96875 40.921875 40.578125 39.3125 
z
" id="DejaVuSans-51"/>
      </defs>
      <g transform="translate(45.6325 295.659648)scale(0.16 -0.16)">
       <use xlink:href="#DejaVuSans-8722"/>
       <use x="83.789062" xlink:href="#DejaVuSans-51"/>
       <use x="147.412109" xlink:href="#DejaVuSans-48"/>
      </g>
     </g>
    </g>
    <g id="ytick_2">
     <g id="line2d_13">
      <path clip-path="url(#p4d52a39ec7)" d="M 86.4 251.454877 
L 547.2 251.454877 
" style="fill:none;stroke:#b0b0b0;stroke-linecap:square;stroke-width:0.8;"/>
     </g>
     <g id="line2d_14">
      <g>
       <use style="stroke:#000000;stroke-width:0.8;" x="86.4" xlink:href="#mb429f58fd1" y="251.454877"/>
      </g>
     </g>
     <g id="text_7">
      <!-- −25 -->
      <defs>
       <path d="M 19.1875 8.296875 
L 53.609375 8.296875 
L 53.609375 0 
L 7.328125 0 
L 7.328125 8.296875 
Q 12.9375 14.109375 22.625 23.890625 
Q 32.328125 33.6875 34.8125 36.53125 
Q 39.546875 41.84375 41.421875 45.53125 
Q 43.3125 49.21875 43.3125 52.78125 
Q 43.3125 58.59375 39.234375 62.25 
Q 35.15625 65.921875 28.609375 65.921875 
Q 23.96875 65.921875 18.8125 64.3125 
Q 13.671875 62.703125 7.8125 59.421875 
L 7.8125 69.390625 
Q 13.765625 71.78125 18.9375 73 
Q 24.125 74.21875 28.421875 74.21875 
Q 39.75 74.21875 46.484375 68.546875 
Q 53.21875 62.890625 53.21875 53.421875 
Q 53.21875 48.921875 51.53125 44.890625 
Q 49.859375 40.875 45.40625 35.40625 
Q 44.1875 33.984375 37.640625 27.21875 
Q 31.109375 20.453125 19.1875 8.296875 
z
" id="DejaVuSans-50"/>
      </defs>
      <g transform="translate(45.6325 257.533627)scale(0.16 -0.16)">
       <use xlink:href="#DejaVuSans-8722"/>
       <use x="83.789062" xlink:href="#DejaVuSans-50"/>
       <use x="147.412109" xlink:href="#DejaVuSans-53"/>
      </g>
     </g>
    </g>
    <g id="ytick_3">
     <g id="line2d_15">
      <path clip-path="url(#p4d52a39ec7)" d="M 86.4 213.328856 
L 547.2 213.328856 
" style="fill:none;stroke:#b0b0b0;stroke-linecap:square;stroke-width:0.8;"/>
     </g>
     <g id="line2d_16">
      <g>
       <use style="stroke:#000000;stroke-width:0.8;" x="86.4" xlink:href="#mb429f58fd1" y="213.328856"/>
      </g>
     </g>
     <g id="text_8">
      <!-- −20 -->
      <g transform="translate(45.6325 219.407606)scale(0.16 -0.16)">
       <use xlink:href="#DejaVuSans-8722"/>
       <use x="83.789062" xlink:href="#DejaVuSans-50"/>
       <use x="147.412109" xlink:href="#DejaVuSans-48"/>
      </g>
     </g>
    </g>
    <g id="ytick_4">
     <g id="line2d_17">
      <path clip-path="url(#p4d52a39ec7)" d="M 86.4 175.202835 
L 547.2 175.202835 
" style="fill:none;stroke:#b0b0b0;stroke-linecap:square;stroke-width:0.8;"/>
     </g>
     <g id="line2d_18">
      <g>
       <use style="stroke:#000000;stroke-width:0.8;" x="86.4" xlink:href="#mb429f58fd1" y="175.202835"/>
      </g>
     </g>
     <g id="text_9">
      <!-- −15 -->
      <g transform="translate(45.6325 181.281585)scale(0.16 -0.16)">
       <use xlink:href="#DejaVuSans-8722"/>
       <use x="83.789062" xlink:href="#DejaVuSans-49"/>
       <use x="147.412109" xlink:href="#DejaVuSans-53"/>
      </g>
     </g>
    </g>
    <g id="ytick_5">
     <g id="line2d_19">
      <path clip-path="url(#p4d52a39ec7)" d="M 86.4 137.076814 
L 547.2 137.076814 
" style="fill:none;stroke:#b0b0b0;stroke-linecap:square;stroke-width:0.8;"/>
     </g>
     <g id="line2d_20">
      <g>
       <use style="stroke:#000000;stroke-width:0.8;" x="86.4" xlink:href="#mb429f58fd1" y="137.076814"/>
      </g>
     </g>
     <g id="text_10">
      <!-- −10 -->
      <g transform="translate(45.6325 143.155564)scale(0.16 -0.16)">
       <use xlink:href="#DejaVuSans-8722"/>
       <use x="83.789062" xlink:href="#DejaVuSans-49"/>
       <use x="147.412109" xlink:href="#DejaVuSans-48"/>
      </g>
     </g>
    </g>
    <g id="ytick_6">
     <g id="line2d_21">
      <path clip-path="url(#p4d52a39ec7)" d="M 86.4 98.950793 
L 547.2 98.950793 
" style="fill:none;stroke:#b0b0b0;stroke-linecap:square;stroke-width:0.8;"/>
     </g>
     <g id="line2d_22">
      <g>
       <use style="stroke:#000000;stroke-width:0.8;" x="86.4" xlink:href="#mb429f58fd1" y="98.950793"/>
      </g>
     </g>
     <g id="text_11">
      <!-- −5 -->
      <g transform="translate(55.8125 105.029543)scale(0.16 -0.16)">
       <use xlink:href="#DejaVuSans-8722"/>
       <use x="83.789062" xlink:href="#DejaVuSans-53"/>
      </g>
     </g>
    </g>
    <g id="text_12">
     <!-- Iy [G.cm] -->
     <defs>
      <path d="M 9.8125 72.90625 
L 19.671875 72.90625 
L 19.671875 0 
L 9.8125 0 
z
" id="DejaVuSans-73"/>
      <path d="M 32.171875 -5.078125 
Q 28.375 -14.84375 24.75 -17.8125 
Q 21.140625 -20.796875 15.09375 -20.796875 
L 7.90625 -20.796875 
L 7.90625 -13.28125 
L 13.1875 -13.28125 
Q 16.890625 -13.28125 18.9375 -11.515625 
Q 21 -9.765625 23.484375 -3.21875 
L 25.09375 0.875 
L 2.984375 54.6875 
L 12.5 54.6875 
L 29.59375 11.921875 
L 46.6875 54.6875 
L 56.203125 54.6875 
z
" id="DejaVuSans-121"/>
      <path id="DejaVuSans-32"/>
      <path d="M 8.59375 75.984375 
L 29.296875 75.984375 
L 29.296875 69 
L 17.578125 69 
L 17.578125 -6.203125 
L 29.296875 -6.203125 
L 29.296875 -13.1875 
L 8.59375 -13.1875 
z
" id="DejaVuSans-91"/>
      <path d="M 59.515625 10.40625 
L 59.515625 29.984375 
L 43.40625 29.984375 
L 43.40625 38.09375 
L 69.28125 38.09375 
L 69.28125 6.78125 
Q 63.578125 2.734375 56.6875 0.65625 
Q 49.8125 -1.421875 42 -1.421875 
Q 24.90625 -1.421875 15.25 8.5625 
Q 5.609375 18.5625 5.609375 36.375 
Q 5.609375 54.25 15.25 64.234375 
Q 24.90625 74.21875 42 74.21875 
Q 49.125 74.21875 55.546875 72.453125 
Q 61.96875 70.703125 67.390625 67.28125 
L 67.390625 56.78125 
Q 61.921875 61.421875 55.765625 63.765625 
Q 49.609375 66.109375 42.828125 66.109375 
Q 29.4375 66.109375 22.71875 58.640625 
Q 16.015625 51.171875 16.015625 36.375 
Q 16.015625 21.625 22.71875 14.15625 
Q 29.4375 6.6875 42.828125 6.6875 
Q 48.046875 6.6875 52.140625 7.59375 
Q 56.25 8.5 59.515625 10.40625 
z
" id="DejaVuSans-71"/>
      <path d="M 10.6875 12.40625 
L 21 12.40625 
L 21 0 
L 10.6875 0 
z
" id="DejaVuSans-46"/>
      <path d="M 48.78125 52.59375 
L 48.78125 44.1875 
Q 44.96875 46.296875 41.140625 47.34375 
Q 37.3125 48.390625 33.40625 48.390625 
Q 24.65625 48.390625 19.8125 42.84375 
Q 14.984375 37.3125 14.984375 27.296875 
Q 14.984375 17.28125 19.8125 11.734375 
Q 24.65625 6.203125 33.40625 6.203125 
Q 37.3125 6.203125 41.140625 7.25 
Q 44.96875 8.296875 48.78125 10.40625 
L 48.78125 2.09375 
Q 45.015625 0.34375 40.984375 -0.53125 
Q 36.96875 -1.421875 32.421875 -1.421875 
Q 20.0625 -1.421875 12.78125 6.34375 
Q 5.515625 14.109375 5.515625 27.296875 
Q 5.515625 40.671875 12.859375 48.328125 
Q 20.21875 56 33.015625 56 
Q 37.15625 56 41.109375 55.140625 
Q 45.0625 54.296875 48.78125 52.59375 
z
" id="DejaVuSans-99"/>
      <path d="M 52 44.1875 
Q 55.375 50.25 60.0625 53.125 
Q 64.75 56 71.09375 56 
Q 79.640625 56 84.28125 50.015625 
Q 88.921875 44.046875 88.921875 33.015625 
L 88.921875 0 
L 79.890625 0 
L 79.890625 32.71875 
Q 79.890625 40.578125 77.09375 44.375 
Q 74.3125 48.1875 68.609375 48.1875 
Q 61.625 48.1875 57.5625 43.546875 
Q 53.515625 38.921875 53.515625 30.90625 
L 53.515625 0 
L 44.484375 0 
L 44.484375 32.71875 
Q 44.484375 40.625 41.703125 44.40625 
Q 38.921875 48.1875 33.109375 48.1875 
Q 26.21875 48.1875 22.15625 43.53125 
Q 18.109375 38.875 18.109375 30.90625 
L 18.109375 0 
L 9.078125 0 
L 9.078125 54.6875 
L 18.109375 54.6875 
L 18.109375 46.1875 
Q 21.1875 51.21875 25.484375 53.609375 
Q 29.78125 56 35.6875 56 
Q 41.65625 56 45.828125 52.96875 
Q 50 49.953125 52 44.1875 
z
" id="DejaVuSans-109"/>
      <path d="M 30.421875 75.984375 
L 30.421875 -13.1875 
L 9.71875 -13.1875 
L 9.71875 -6.203125 
L 21.390625 -6.203125 
L 21.390625 69 
L 9.71875 69 
L 9.71875 75.984375 
z
" id="DejaVuSans-93"/>
     </defs>
     <g transform="translate(38.305 232.6525)rotate(-90)scale(0.16 -0.16)">
      <use xlink:href="#DejaVuSans-73"/>
      <use x="29.492188" xlink:href="#DejaVuSans-121"/>
      <use x="88.671875" xlink:href="#DejaVuSans-32"/>
      <use x="120.458984" xlink:href="#DejaVuSans-91"/>
      <use x="159.472656" xlink:href="#DejaVuSans-71"/>
      <use x="236.962891" xlink:href="#DejaVuSans-46"/>
      <use x="268.75" xlink:href="#DejaVuSans-99"/>
      <use x="323.730469" xlink:href="#DejaVuSans-109"/>
      <use x="421.142578" xlink:href="#DejaVuSans-93"/>
     </g>
    </g>
   </g>
   <g id="line2d_23">
    <path clip-path="url(#p4d52a39ec7)" d="M 107.345455 175.969568 
L 124.8 214.270525 
L 142.254545 224.093518 
L 159.709091 228.829021 
L 177.163636 212.609864 
L 194.618182 199.74207 
L 212.072727 185.777316 
L 229.527273 182.367623 
L 246.981818 185.038744 
L 264.436364 198.662271 
L 281.890909 205.60033 
L 299.345455 203.520825 
L 316.8 195.913296 
L 334.254545 176.731463 
L 351.709091 175.014719 
L 369.163636 173.548462 
L 386.618182 187.310179 
L 404.072727 195.405674 
L 421.527273 208.355467 
L 438.981818 210.905666 
L 456.436364 219.528054 
L 473.890909 234.058514 
L 491.345455 252.113079 
L 508.8 280.835004 
L 526.254545 295.330909 
" style="fill:none;stroke:#0000ff;stroke-linecap:square;stroke-width:2;"/>
   </g>
   <g id="line2d_24">
    <path clip-path="url(#p4d52a39ec7)" d="M 107.345455 193.93247 
L 124.8 233.549234 
L 142.254545 240.239691 
L 159.709091 245.297668 
L 177.163636 228.494034 
L 194.618182 210.515695 
L 212.072727 196.92523 
L 229.527273 194.42536 
L 246.981818 198.844148 
L 264.436364 210.881257 
L 281.890909 218.167706 
L 299.345455 215.158227 
L 316.8 208.330955 
L 334.254545 185.912919 
L 351.709091 179.31885 
L 369.163636 176.490747 
L 386.618182 188.778335 
L 404.072727 200.841347 
L 421.527273 210.49449 
L 438.981818 212.019708 
L 456.436364 216.611254 
L 473.890909 230.591802 
L 491.345455 245.60021 
L 508.8 279.688943 
L 526.254545 290.905475 
" style="fill:none;stroke:#2e00d1;stroke-linecap:square;stroke-width:2;"/>
   </g>
   <g id="line2d_25">
    <path clip-path="url(#p4d52a39ec7)" d="M 107.345455 174.415372 
L 124.8 213.857567 
L 142.254545 220.900308 
L 159.709091 223.529267 
L 177.163636 205.117154 
L 194.618182 190.134148 
L 212.072727 176.014899 
L 229.527273 170.939163 
L 246.981818 177.135425 
L 264.436364 188.643787 
L 281.890909 196.567557 
L 299.345455 194.851831 
L 316.8 188.584116 
L 334.254545 171.346708 
L 351.709091 163.37739 
L 369.163636 162.266286 
L 386.618182 176.866885 
L 404.072727 187.114159 
L 421.527273 196.722257 
L 438.981818 204.395542 
L 456.436364 207.914167 
L 473.890909 224.803718 
L 491.345455 240.034856 
L 508.8 275.918377 
L 526.254545 286.709817 
" style="fill:none;stroke:#5c00a3;stroke-linecap:square;stroke-width:2;"/>
   </g>
   <g id="line2d_26">
    <path clip-path="url(#p4d52a39ec7)" d="M 107.345455 158.501359 
L 124.8 193.5907 
L 142.254545 203.225154 
L 159.709091 205.975475 
L 177.163636 189.153087 
L 194.618182 169.877633 
L 212.072727 154.316329 
L 229.527273 151.167197 
L 246.981818 159.436917 
L 264.436364 170.798884 
L 281.890909 180.74429 
L 299.345455 178.752592 
L 316.8 174.687879 
L 334.254545 153.529436 
L 351.709091 144.66224 
L 369.163636 141.461282 
L 386.618182 153.393327 
L 404.072727 165.100796 
L 421.527273 176.946466 
L 438.981818 187.859279 
L 456.436364 192.147085 
L 473.890909 211.818383 
L 491.345455 226.263957 
L 508.8 262.027027 
L 526.254545 270.771813 
" style="fill:none;stroke:#8a0075;stroke-linecap:square;stroke-width:2;"/>
   </g>
   <g id="line2d_27">
    <path clip-path="url(#p4d52a39ec7)" d="M 107.345455 173.415183 
L 124.8 206.991767 
L 142.254545 216.193193 
L 159.709091 216.618886 
L 177.163636 200.926921 
L 194.618182 182.315466 
L 212.072727 168.057338 
L 229.527273 165.70174 
L 246.981818 174.33309 
L 264.436364 185.832115 
L 281.890909 194.826241 
L 299.345455 192.125146 
L 316.8 185.493968 
L 334.254545 164.472637 
L 351.709091 153.177179 
L 369.163636 155.278548 
L 386.618182 166.881216 
L 404.072727 177.516479 
L 421.527273 186.968402 
L 438.981818 196.541247 
L 456.436364 201.164783 
L 473.890909 222.83019 
L 491.345455 241.239238 
L 508.8 272.932832 
L 526.254545 288.595144 
" style="fill:none;stroke:#ba0045;stroke-linecap:square;stroke-width:2;"/>
   </g>
   <g id="line2d_28">
    <path clip-path="url(#p4d52a39ec7)" d="M 107.345455 156.073927 
L 124.8 189.422422 
L 142.254545 195.631676 
L 159.709091 194.827218 
L 177.163636 178.535598 
L 194.618182 158.063395 
L 212.072727 147.740334 
L 229.527273 143.90409 
L 246.981818 150.37247 
L 264.436364 160.511813 
L 281.890909 168.992748 
L 299.345455 166.097997 
L 316.8 161.207968 
L 334.254545 141.919112 
L 351.709091 132.148859 
L 369.163636 134.635319 
L 386.618182 144.999242 
L 404.072727 160.390232 
L 421.527273 167.834654 
L 438.981818 178.025826 
L 456.436364 183.544071 
L 473.890909 204.549481 
L 491.345455 218.817587 
L 508.8 254.480953 
L 526.254545 266.088687 
" style="fill:none;stroke:#e80017;stroke-linecap:square;stroke-width:2;"/>
   </g>
   <g id="line2d_29">
    <path clip-path="url(#p4d52a39ec7)" d="M 107.345455 155.079262 
L 124.8 186.23227 
L 142.254545 188.613665 
L 159.709091 184.681054 
L 177.163636 167.282537 
L 194.618182 148.657492 
L 212.072727 135.102682 
L 229.527273 130.004 
L 246.981818 138.034339 
L 264.436364 149.554259 
L 281.890909 160.512714 
L 299.345455 158.998615 
L 316.8 152.163798 
L 334.254545 129.841889 
L 351.709091 123.214357 
L 369.163636 125.431645 
L 386.618182 137.608001 
L 404.072727 152.867951 
L 421.527273 160.224576 
L 438.981818 170.042888 
L 456.436364 175.654732 
L 473.890909 195.898536 
L 491.345455 214.535752 
L 508.8 252.063237 
L 526.254545 266.493984 
" style="fill:none;stroke:#e81700;stroke-linecap:square;stroke-width:2;"/>
   </g>
   <g id="line2d_30">
    <path clip-path="url(#p4d52a39ec7)" d="M 107.345455 149.034598 
L 124.8 179.45177 
L 142.254545 181.140566 
L 159.709091 180.013569 
L 177.163636 159.279426 
L 194.618182 139.529959 
L 212.072727 127.571532 
L 229.527273 125.822627 
L 246.981818 132.607556 
L 264.436364 145.067357 
L 281.890909 150.202519 
L 299.345455 148.099493 
L 316.8 142.213233 
L 334.254545 124.372646 
L 351.709091 114.530388 
L 369.163636 115.84778 
L 386.618182 129.559997 
L 404.072727 143.894111 
L 421.527273 156.293437 
L 438.981818 164.874976 
L 456.436364 173.206034 
L 473.890909 191.504769 
L 491.345455 208.59424 
L 508.8 244.340732 
L 526.254545 257.431045 
" style="fill:none;stroke:#ba4500;stroke-linecap:square;stroke-width:2;"/>
   </g>
   <g id="line2d_31">
    <path clip-path="url(#p4d52a39ec7)" d="M 107.345455 149.396722 
L 124.8 180.040552 
L 142.254545 179.701403 
L 159.709091 178.222085 
L 177.163636 157.480972 
L 194.618182 134.157225 
L 212.072727 118.408629 
L 229.527273 113.042403 
L 246.981818 116.322397 
L 264.436364 128.948241 
L 281.890909 137.289857 
L 299.345455 134.488987 
L 316.8 130.314744 
L 334.254545 111.672565 
L 351.709091 105.99539 
L 369.163636 107.297378 
L 386.618182 120.320557 
L 404.072727 133.646052 
L 421.527273 147.342959 
L 438.981818 158.811374 
L 456.436364 167.550313 
L 473.890909 187.500828 
L 491.345455 203.6249 
L 508.8 239.641309 
L 526.254545 251.576154 
" style="fill:none;stroke:#8a7500;stroke-linecap:square;stroke-width:2;"/>
   </g>
   <g id="line2d_32">
    <path clip-path="url(#p4d52a39ec7)" d="M 107.345455 146.764873 
L 124.8 173.400249 
L 142.254545 171.980903 
L 159.709091 168.92908 
L 177.163636 145.008975 
L 194.618182 125.14851 
L 212.072727 110.582858 
L 229.527273 107.928357 
L 246.981818 110.154052 
L 264.436364 123.651743 
L 281.890909 130.783553 
L 299.345455 129.191477 
L 316.8 120.024284 
L 334.254545 103.022837 
L 351.709091 96.662829 
L 369.163636 96.349091 
L 386.618182 110.140445 
L 404.072727 125.452004 
L 421.527273 136.31524 
L 438.981818 147.454872 
L 456.436364 155.415896 
L 473.890909 176.359129 
L 491.345455 194.546982 
L 508.8 232.428413 
L 526.254545 246.444342 
" style="fill:none;stroke:#5ca300;stroke-linecap:square;stroke-width:2;"/>
   </g>
   <g id="line2d_33">
    <path clip-path="url(#p4d52a39ec7)" d="M 107.345455 158.808303 
L 124.8 185.758084 
L 142.254545 186.976599 
L 159.709091 179.229346 
L 177.163636 159.899137 
L 194.618182 140.931704 
L 212.072727 125.704334 
L 229.527273 124.288402 
L 246.981818 128.633711 
L 264.436364 139.932254 
L 281.890909 148.37176 
L 299.345455 146.048889 
L 316.8 139.199941 
L 334.254545 120.422533 
L 351.709091 114.247309 
L 369.163636 114.377495 
L 386.618182 130.279846 
L 404.072727 143.14178 
L 421.527273 155.2177 
L 438.981818 167.578656 
L 456.436364 180.302391 
L 473.890909 198.467781 
L 491.345455 217.496923 
L 508.8 249.59468 
L 526.254545 263.59677 
" style="fill:none;stroke:#2ed100;stroke-linecap:square;stroke-width:2;"/>
   </g>
   <g id="line2d_34">
    <path clip-path="url(#p4d52a39ec7)" d="M 107.345455 151.458748 
L 124.8 180.55919 
L 142.254545 181.527195 
L 159.709091 176.207108 
L 177.163636 155.330834 
L 194.618182 133.20212 
L 212.072727 118.778084 
L 229.527273 113.786216 
L 246.981818 118.865686 
L 264.436364 128.048002 
L 281.890909 138.724583 
L 299.345455 137.161822 
L 316.8 133.310114 
L 334.254545 117.832286 
L 351.709091 110.672392 
L 369.163636 114.300759 
L 386.618182 128.035033 
L 404.072727 144.317374 
L 421.527273 157.36929 
L 438.981818 169.721559 
L 456.436364 179.95764 
L 473.890909 199.95412 
L 491.345455 218.672237 
L 508.8 251.080836 
L 526.254545 266.490787 
" style="fill:none;stroke:#00ff00;stroke-linecap:square;stroke-width:2;"/>
   </g>
   <g id="patch_3">
    <path d="M 86.4 305.28 
L 86.4 86.4 
" style="fill:none;stroke:#000000;stroke-linecap:square;stroke-linejoin:miter;stroke-width:0.8;"/>
   </g>
   <g id="patch_4">
    <path d="M 547.2 305.28 
L 547.2 86.4 
" style="fill:none;stroke:#000000;stroke-linecap:square;stroke-linejoin:miter;stroke-width:0.8;"/>
   </g>
   <g id="patch_5">
    <path d="M 86.4 305.28 
L 547.2 305.28 
" style="fill:none;stroke:#000000;stroke-linecap:square;stroke-linejoin:miter;stroke-width:0.8;"/>
   </g>
   <g id="patch_6">
    <path d="M 86.4 86.4 
L 547.2 86.4 
" style="fill:none;stroke:#000000;stroke-linecap:square;stroke-linejoin:miter;stroke-width:0.8;"/>
   </g>
   <g id="legend_1">
    <g id="patch_7">
     <path d="M 143.664525 81.768 
L 489.935475 81.768 
Q 491.788275 81.768 491.788275 79.9152 
L 491.788275 38.26738 
Q 491.788275 36.41458 489.935475 36.41458 
L 143.664525 36.41458 
Q 141.811725 36.41458 141.811725 38.26738 
L 141.811725 79.9152 
Q 141.811725 81.768 143.664525 81.768 
z
" style="fill:#ffffff;opacity:0.8;stroke:#cccccc;stroke-linejoin:miter;"/>
    </g>
    <g id="text_13">
     <!-- Phase [mm] -->
     <defs>
      <path d="M 19.671875 64.796875 
L 19.671875 37.40625 
L 32.078125 37.40625 
Q 38.96875 37.40625 42.71875 40.96875 
Q 46.484375 44.53125 46.484375 51.125 
Q 46.484375 57.671875 42.71875 61.234375 
Q 38.96875 64.796875 32.078125 64.796875 
z
M 9.8125 72.90625 
L 32.078125 72.90625 
Q 44.34375 72.90625 50.609375 67.359375 
Q 56.890625 61.8125 56.890625 51.125 
Q 56.890625 40.328125 50.609375 34.8125 
Q 44.34375 29.296875 32.078125 29.296875 
L 19.671875 29.296875 
L 19.671875 0 
L 9.8125 0 
z
" id="DejaVuSans-80"/>
      <path d="M 54.890625 33.015625 
L 54.890625 0 
L 45.90625 0 
L 45.90625 32.71875 
Q 45.90625 40.484375 42.875 44.328125 
Q 39.84375 48.1875 33.796875 48.1875 
Q 26.515625 48.1875 22.3125 43.546875 
Q 18.109375 38.921875 18.109375 30.90625 
L 18.109375 0 
L 9.078125 0 
L 9.078125 75.984375 
L 18.109375 75.984375 
L 18.109375 46.1875 
Q 21.34375 51.125 25.703125 53.5625 
Q 30.078125 56 35.796875 56 
Q 45.21875 56 50.046875 50.171875 
Q 54.890625 44.34375 54.890625 33.015625 
z
" id="DejaVuSans-104"/>
      <path d="M 34.28125 27.484375 
Q 23.390625 27.484375 19.1875 25 
Q 14.984375 22.515625 14.984375 16.5 
Q 14.984375 11.71875 18.140625 8.90625 
Q 21.296875 6.109375 26.703125 6.109375 
Q 34.1875 6.109375 38.703125 11.40625 
Q 43.21875 16.703125 43.21875 25.484375 
L 43.21875 27.484375 
z
M 52.203125 31.203125 
L 52.203125 0 
L 43.21875 0 
L 43.21875 8.296875 
Q 40.140625 3.328125 35.546875 0.953125 
Q 30.953125 -1.421875 24.3125 -1.421875 
Q 15.921875 -1.421875 10.953125 3.296875 
Q 6 8.015625 6 15.921875 
Q 6 25.140625 12.171875 29.828125 
Q 18.359375 34.515625 30.609375 34.515625 
L 43.21875 34.515625 
L 43.21875 35.40625 
Q 43.21875 41.609375 39.140625 45 
Q 35.0625 48.390625 27.6875 48.390625 
Q 23 48.390625 18.546875 47.265625 
Q 14.109375 46.140625 10.015625 43.890625 
L 10.015625 52.203125 
Q 14.9375 54.109375 19.578125 55.046875 
Q 24.21875 56 28.609375 56 
Q 40.484375 56 46.34375 49.84375 
Q 52.203125 43.703125 52.203125 31.203125 
z
" id="DejaVuSans-97"/>
      <path d="M 44.28125 53.078125 
L 44.28125 44.578125 
Q 40.484375 46.53125 36.375 47.5 
Q 32.28125 48.484375 27.875 48.484375 
Q 21.1875 48.484375 17.84375 46.4375 
Q 14.5 44.390625 14.5 40.28125 
Q 14.5 37.15625 16.890625 35.375 
Q 19.28125 33.59375 26.515625 31.984375 
L 29.59375 31.296875 
Q 39.15625 29.25 43.1875 25.515625 
Q 47.21875 21.78125 47.21875 15.09375 
Q 47.21875 7.46875 41.1875 3.015625 
Q 35.15625 -1.421875 24.609375 -1.421875 
Q 20.21875 -1.421875 15.453125 -0.5625 
Q 10.6875 0.296875 5.421875 2 
L 5.421875 11.28125 
Q 10.40625 8.6875 15.234375 7.390625 
Q 20.0625 6.109375 24.8125 6.109375 
Q 31.15625 6.109375 34.5625 8.28125 
Q 37.984375 10.453125 37.984375 14.40625 
Q 37.984375 18.0625 35.515625 20.015625 
Q 33.0625 21.96875 24.703125 23.78125 
L 21.578125 24.515625 
Q 13.234375 26.265625 9.515625 29.90625 
Q 5.8125 33.546875 5.8125 39.890625 
Q 5.8125 47.609375 11.28125 51.796875 
Q 16.75 56 26.8125 56 
Q 31.78125 56 36.171875 55.265625 
Q 40.578125 54.546875 44.28125 53.078125 
z
" id="DejaVuSans-115"/>
      <path d="M 56.203125 29.59375 
L 56.203125 25.203125 
L 14.890625 25.203125 
Q 15.484375 15.921875 20.484375 11.0625 
Q 25.484375 6.203125 34.421875 6.203125 
Q 39.59375 6.203125 44.453125 7.46875 
Q 49.3125 8.734375 54.109375 11.28125 
L 54.109375 2.78125 
Q 49.265625 0.734375 44.1875 -0.34375 
Q 39.109375 -1.421875 33.890625 -1.421875 
Q 20.796875 -1.421875 13.15625 6.1875 
Q 5.515625 13.8125 5.515625 26.8125 
Q 5.515625 40.234375 12.765625 48.109375 
Q 20.015625 56 32.328125 56 
Q 43.359375 56 49.78125 48.890625 
Q 56.203125 41.796875 56.203125 29.59375 
z
M 47.21875 32.234375 
Q 47.125 39.59375 43.09375 43.984375 
Q 39.0625 48.390625 32.421875 48.390625 
Q 24.90625 48.390625 20.390625 44.140625 
Q 15.875 39.890625 15.1875 32.171875 
z
" id="DejaVuSans-101"/>
     </defs>
     <g transform="translate(283.310162 48.557485)scale(0.11104 -0.11104)">
      <use xlink:href="#DejaVuSans-80"/>
      <use x="60.302734" xlink:href="#DejaVuSans-104"/>
      <use x="123.681641" xlink:href="#DejaVuSans-97"/>
      <use x="184.960938" xlink:href="#DejaVuSans-115"/>
      <use x="237.060547" xlink:href="#DejaVuSans-101"/>
      <use x="298.583984" xlink:href="#DejaVuSans-32"/>
      <use x="330.371094" xlink:href="#DejaVuSans-91"/>
      <use x="369.384766" xlink:href="#DejaVuSans-109"/>
      <use x="466.796875" xlink:href="#DejaVuSans-109"/>
      <use x="564.208984" xlink:href="#DejaVuSans-93"/>
     </g>
    </g>
    <g id="line2d_35">
     <path d="M 145.517325 59.295563 
L 164.045325 59.295563 
" style="fill:none;stroke:#0000ff;stroke-linecap:square;stroke-width:2;"/>
    </g>
    <g id="line2d_36"/>
    <g id="text_14">
     <!-- 0.0 -->
     <g transform="translate(171.456525 62.537963)scale(0.09264 -0.09264)">
      <use xlink:href="#DejaVuSans-48"/>
      <use x="63.623047" xlink:href="#DejaVuSans-46"/>
      <use x="95.410156" xlink:href="#DejaVuSans-48"/>
     </g>
    </g>
    <g id="line2d_37">
     <path d="M 145.517325 72.893378 
L 164.045325 72.893378 
" style="fill:none;stroke:#2e00d1;stroke-linecap:square;stroke-width:2;"/>
    </g>
    <g id="line2d_38"/>
    <g id="text_15">
     <!-- 1.0 -->
     <g transform="translate(171.456525 76.135778)scale(0.09264 -0.09264)">
      <use xlink:href="#DejaVuSans-49"/>
      <use x="63.623047" xlink:href="#DejaVuSans-46"/>
      <use x="95.410156" xlink:href="#DejaVuSans-48"/>
     </g>
    </g>
    <g id="line2d_39">
     <path d="M 204.71718 59.295563 
L 223.24518 59.295563 
" style="fill:none;stroke:#5c00a3;stroke-linecap:square;stroke-width:2;"/>
    </g>
    <g id="line2d_40"/>
    <g id="text_16">
     <!-- 2.0 -->
     <g transform="translate(230.65638 62.537963)scale(0.09264 -0.09264)">
      <use xlink:href="#DejaVuSans-50"/>
      <use x="63.623047" xlink:href="#DejaVuSans-46"/>
      <use x="95.410156" xlink:href="#DejaVuSans-48"/>
     </g>
    </g>
    <g id="line2d_41">
     <path d="M 204.71718 72.893378 
L 223.24518 72.893378 
" style="fill:none;stroke:#8a0075;stroke-linecap:square;stroke-width:2;"/>
    </g>
    <g id="line2d_42"/>
    <g id="text_17">
     <!-- 3.0 -->
     <g transform="translate(230.65638 76.135778)scale(0.09264 -0.09264)">
      <use xlink:href="#DejaVuSans-51"/>
      <use x="63.623047" xlink:href="#DejaVuSans-46"/>
      <use x="95.410156" xlink:href="#DejaVuSans-48"/>
     </g>
    </g>
    <g id="line2d_43">
     <path d="M 263.917035 59.295563 
L 282.445035 59.295563 
" style="fill:none;stroke:#ba0045;stroke-linecap:square;stroke-width:2;"/>
    </g>
    <g id="line2d_44"/>
    <g id="text_18">
     <!-- 4.0 -->
     <defs>
      <path d="M 37.796875 64.3125 
L 12.890625 25.390625 
L 37.796875 25.390625 
z
M 35.203125 72.90625 
L 47.609375 72.90625 
L 47.609375 25.390625 
L 58.015625 25.390625 
L 58.015625 17.1875 
L 47.609375 17.1875 
L 47.609375 0 
L 37.796875 0 
L 37.796875 17.1875 
L 4.890625 17.1875 
L 4.890625 26.703125 
z
" id="DejaVuSans-52"/>
     </defs>
     <g transform="translate(289.856235 62.537963)scale(0.09264 -0.09264)">
      <use xlink:href="#DejaVuSans-52"/>
      <use x="63.623047" xlink:href="#DejaVuSans-46"/>
      <use x="95.410156" xlink:href="#DejaVuSans-48"/>
     </g>
    </g>
    <g id="line2d_45">
     <path d="M 263.917035 72.893378 
L 282.445035 72.893378 
" style="fill:none;stroke:#e80017;stroke-linecap:square;stroke-width:2;"/>
    </g>
    <g id="line2d_46"/>
    <g id="text_19">
     <!-- 5.0 -->
     <g transform="translate(289.856235 76.135778)scale(0.09264 -0.09264)">
      <use xlink:href="#DejaVuSans-53"/>
      <use x="63.623047" xlink:href="#DejaVuSans-46"/>
      <use x="95.410156" xlink:href="#DejaVuSans-48"/>
     </g>
    </g>
    <g id="line2d_47">
     <path d="M 323.11689 59.295563 
L 341.64489 59.295563 
" style="fill:none;stroke:#e81700;stroke-linecap:square;stroke-width:2;"/>
    </g>
    <g id="line2d_48"/>
    <g id="text_20">
     <!-- 6.0 -->
     <defs>
      <path d="M 33.015625 40.375 
Q 26.375 40.375 22.484375 35.828125 
Q 18.609375 31.296875 18.609375 23.390625 
Q 18.609375 15.53125 22.484375 10.953125 
Q 26.375 6.390625 33.015625 6.390625 
Q 39.65625 6.390625 43.53125 10.953125 
Q 47.40625 15.53125 47.40625 23.390625 
Q 47.40625 31.296875 43.53125 35.828125 
Q 39.65625 40.375 33.015625 40.375 
z
M 52.59375 71.296875 
L 52.59375 62.3125 
Q 48.875 64.0625 45.09375 64.984375 
Q 41.3125 65.921875 37.59375 65.921875 
Q 27.828125 65.921875 22.671875 59.328125 
Q 17.53125 52.734375 16.796875 39.40625 
Q 19.671875 43.65625 24.015625 45.921875 
Q 28.375 48.1875 33.59375 48.1875 
Q 44.578125 48.1875 50.953125 41.515625 
Q 57.328125 34.859375 57.328125 23.390625 
Q 57.328125 12.15625 50.6875 5.359375 
Q 44.046875 -1.421875 33.015625 -1.421875 
Q 20.359375 -1.421875 13.671875 8.265625 
Q 6.984375 17.96875 6.984375 36.375 
Q 6.984375 53.65625 15.1875 63.9375 
Q 23.390625 74.21875 37.203125 74.21875 
Q 40.921875 74.21875 44.703125 73.484375 
Q 48.484375 72.75 52.59375 71.296875 
z
" id="DejaVuSans-54"/>
     </defs>
     <g transform="translate(349.05609 62.537963)scale(0.09264 -0.09264)">
      <use xlink:href="#DejaVuSans-54"/>
      <use x="63.623047" xlink:href="#DejaVuSans-46"/>
      <use x="95.410156" xlink:href="#DejaVuSans-48"/>
     </g>
    </g>
    <g id="line2d_49">
     <path d="M 323.11689 72.893378 
L 341.64489 72.893378 
" style="fill:none;stroke:#ba4500;stroke-linecap:square;stroke-width:2;"/>
    </g>
    <g id="line2d_50"/>
    <g id="text_21">
     <!-- 7.0 -->
     <defs>
      <path d="M 8.203125 72.90625 
L 55.078125 72.90625 
L 55.078125 68.703125 
L 28.609375 0 
L 18.3125 0 
L 43.21875 64.59375 
L 8.203125 64.59375 
z
" id="DejaVuSans-55"/>
     </defs>
     <g transform="translate(349.05609 76.135778)scale(0.09264 -0.09264)">
      <use xlink:href="#DejaVuSans-55"/>
      <use x="63.623047" xlink:href="#DejaVuSans-46"/>
      <use x="95.410156" xlink:href="#DejaVuSans-48"/>
     </g>
    </g>
    <g id="line2d_51">
     <path d="M 382.316745 59.295563 
L 400.844745 59.295563 
" style="fill:none;stroke:#8a7500;stroke-linecap:square;stroke-width:2;"/>
    </g>
    <g id="line2d_52"/>
    <g id="text_22">
     <!-- 8.0 -->
     <defs>
      <path d="M 31.78125 34.625 
Q 24.75 34.625 20.71875 30.859375 
Q 16.703125 27.09375 16.703125 20.515625 
Q 16.703125 13.921875 20.71875 10.15625 
Q 24.75 6.390625 31.78125 6.390625 
Q 38.8125 6.390625 42.859375 10.171875 
Q 46.921875 13.96875 46.921875 20.515625 
Q 46.921875 27.09375 42.890625 30.859375 
Q 38.875 34.625 31.78125 34.625 
z
M 21.921875 38.8125 
Q 15.578125 40.375 12.03125 44.71875 
Q 8.5 49.078125 8.5 55.328125 
Q 8.5 64.0625 14.71875 69.140625 
Q 20.953125 74.21875 31.78125 74.21875 
Q 42.671875 74.21875 48.875 69.140625 
Q 55.078125 64.0625 55.078125 55.328125 
Q 55.078125 49.078125 51.53125 44.71875 
Q 48 40.375 41.703125 38.8125 
Q 48.828125 37.15625 52.796875 32.3125 
Q 56.78125 27.484375 56.78125 20.515625 
Q 56.78125 9.90625 50.3125 4.234375 
Q 43.84375 -1.421875 31.78125 -1.421875 
Q 19.734375 -1.421875 13.25 4.234375 
Q 6.78125 9.90625 6.78125 20.515625 
Q 6.78125 27.484375 10.78125 32.3125 
Q 14.796875 37.15625 21.921875 38.8125 
z
M 18.3125 54.390625 
Q 18.3125 48.734375 21.84375 45.5625 
Q 25.390625 42.390625 31.78125 42.390625 
Q 38.140625 42.390625 41.71875 45.5625 
Q 45.3125 48.734375 45.3125 54.390625 
Q 45.3125 60.0625 41.71875 63.234375 
Q 38.140625 66.40625 31.78125 66.40625 
Q 25.390625 66.40625 21.84375 63.234375 
Q 18.3125 60.0625 18.3125 54.390625 
z
" id="DejaVuSans-56"/>
     </defs>
     <g transform="translate(408.255945 62.537963)scale(0.09264 -0.09264)">
      <use xlink:href="#DejaVuSans-56"/>
      <use x="63.623047" xlink:href="#DejaVuSans-46"/>
      <use x="95.410156" xlink:href="#DejaVuSans-48"/>
     </g>
    </g>
    <g id="line2d_53">
     <path d="M 382.316745 72.893378 
L 400.844745 72.893378 
" style="fill:none;stroke:#5ca300;stroke-linecap:square;stroke-width:2;"/>
    </g>
    <g id="line2d_54"/>
    <g id="text_23">
     <!-- 9.0 -->
     <defs>
      <path d="M 10.984375 1.515625 
L 10.984375 10.5 
Q 14.703125 8.734375 18.5 7.8125 
Q 22.3125 6.890625 25.984375 6.890625 
Q 35.75 6.890625 40.890625 13.453125 
Q 46.046875 20.015625 46.78125 33.40625 
Q 43.953125 29.203125 39.59375 26.953125 
Q 35.25 24.703125 29.984375 24.703125 
Q 19.046875 24.703125 12.671875 31.3125 
Q 6.296875 37.9375 6.296875 49.421875 
Q 6.296875 60.640625 12.9375 67.421875 
Q 19.578125 74.21875 30.609375 74.21875 
Q 43.265625 74.21875 49.921875 64.515625 
Q 56.59375 54.828125 56.59375 36.375 
Q 56.59375 19.140625 48.40625 8.859375 
Q 40.234375 -1.421875 26.421875 -1.421875 
Q 22.703125 -1.421875 18.890625 -0.6875 
Q 15.09375 0.046875 10.984375 1.515625 
z
M 30.609375 32.421875 
Q 37.25 32.421875 41.125 36.953125 
Q 45.015625 41.5 45.015625 49.421875 
Q 45.015625 57.28125 41.125 61.84375 
Q 37.25 66.40625 30.609375 66.40625 
Q 23.96875 66.40625 20.09375 61.84375 
Q 16.21875 57.28125 16.21875 49.421875 
Q 16.21875 41.5 20.09375 36.953125 
Q 23.96875 32.421875 30.609375 32.421875 
z
" id="DejaVuSans-57"/>
     </defs>
     <g transform="translate(408.255945 76.135778)scale(0.09264 -0.09264)">
      <use xlink:href="#DejaVuSans-57"/>
      <use x="63.623047" xlink:href="#DejaVuSans-46"/>
      <use x="95.410156" xlink:href="#DejaVuSans-48"/>
     </g>
    </g>
    <g id="line2d_55">
     <path d="M 441.5166 59.295563 
L 460.0446 59.295563 
" style="fill:none;stroke:#2ed100;stroke-linecap:square;stroke-width:2;"/>
    </g>
    <g id="line2d_56"/>
    <g id="text_24">
     <!-- 10.0 -->
     <g transform="translate(467.4558 62.537963)scale(0.09264 -0.09264)">
      <use xlink:href="#DejaVuSans-49"/>
      <use x="63.623047" xlink:href="#DejaVuSans-48"/>
      <use x="127.246094" xlink:href="#DejaVuSans-46"/>
      <use x="159.033203" xlink:href="#DejaVuSans-48"/>
     </g>
    </g>
    <g id="line2d_57">
     <path d="M 441.5166 72.893378 
L 460.0446 72.893378 
" style="fill:none;stroke:#00ff00;stroke-linecap:square;stroke-width:2;"/>
    </g>
    <g id="line2d_58"/>
    <g id="text_25">
     <!-- 11.0 -->
     <g transform="translate(467.4558 76.135778)scale(0.09264 -0.09264)">
      <use xlink:href="#DejaVuSans-49"/>
      <use x="63.623047" xlink:href="#DejaVuSans-49"/>
      <use x="127.246094" xlink:href="#DejaVuSans-46"/>
      <use x="159.033203" xlink:href="#DejaVuSans-48"/>
     </g>
    </g>
   </g>
  </g>
  <g id="axes_2">
   <g id="patch_8">
    <path d="M 86.4 524.16 
L 547.2 524.16 
L 547.2 305.28 
L 86.4 305.28 
z
" style="fill:#ffffff;"/>
   </g>
   <g id="matplotlib.axis_3">
    <g id="xtick_6">
     <g id="line2d_59">
      <path clip-path="url(#pc5531da616)" d="M 142.254545 524.16 
L 142.254545 305.28 
" style="fill:none;stroke:#b0b0b0;stroke-linecap:square;stroke-width:0.8;"/>
     </g>
     <g id="line2d_60">
      <g>
       <use style="stroke:#000000;stroke-width:0.8;" x="142.254545" xlink:href="#mefd91c8e8e" y="524.16"/>
      </g>
     </g>
     <g id="text_26">
      <!-- −10 -->
      <g transform="translate(125.370795 543.3175)scale(0.16 -0.16)">
       <use xlink:href="#DejaVuSans-8722"/>
       <use x="83.789062" xlink:href="#DejaVuSans-49"/>
       <use x="147.412109" xlink:href="#DejaVuSans-48"/>
      </g>
     </g>
    </g>
    <g id="xtick_7">
     <g id="line2d_61">
      <path clip-path="url(#pc5531da616)" d="M 229.527273 524.16 
L 229.527273 305.28 
" style="fill:none;stroke:#b0b0b0;stroke-linecap:square;stroke-width:0.8;"/>
     </g>
     <g id="line2d_62">
      <g>
       <use style="stroke:#000000;stroke-width:0.8;" x="229.527273" xlink:href="#mefd91c8e8e" y="524.16"/>
      </g>
     </g>
     <g id="text_27">
      <!-- −5 -->
      <g transform="translate(217.733523 543.3175)scale(0.16 -0.16)">
       <use xlink:href="#DejaVuSans-8722"/>
       <use x="83.789062" xlink:href="#DejaVuSans-53"/>
      </g>
     </g>
    </g>
    <g id="xtick_8">
     <g id="line2d_63">
      <path clip-path="url(#pc5531da616)" d="M 316.8 524.16 
L 316.8 305.28 
" style="fill:none;stroke:#b0b0b0;stroke-linecap:square;stroke-width:0.8;"/>
     </g>
     <g id="line2d_64">
      <g>
       <use style="stroke:#000000;stroke-width:0.8;" x="316.8" xlink:href="#mefd91c8e8e" y="524.16"/>
      </g>
     </g>
     <g id="text_28">
      <!-- 0 -->
      <g transform="translate(311.71 543.3175)scale(0.16 -0.16)">
       <use xlink:href="#DejaVuSans-48"/>
      </g>
     </g>
    </g>
    <g id="xtick_9">
     <g id="line2d_65">
      <path clip-path="url(#pc5531da616)" d="M 404.072727 524.16 
L 404.072727 305.28 
" style="fill:none;stroke:#b0b0b0;stroke-linecap:square;stroke-width:0.8;"/>
     </g>
     <g id="line2d_66">
      <g>
       <use style="stroke:#000000;stroke-width:0.8;" x="404.072727" xlink:href="#mefd91c8e8e" y="524.16"/>
      </g>
     </g>
     <g id="text_29">
      <!-- 5 -->
      <g transform="translate(398.982727 543.3175)scale(0.16 -0.16)">
       <use xlink:href="#DejaVuSans-53"/>
      </g>
     </g>
    </g>
    <g id="xtick_10">
     <g id="line2d_67">
      <path clip-path="url(#pc5531da616)" d="M 491.345455 524.16 
L 491.345455 305.28 
" style="fill:none;stroke:#b0b0b0;stroke-linecap:square;stroke-width:0.8;"/>
     </g>
     <g id="line2d_68">
      <g>
       <use style="stroke:#000000;stroke-width:0.8;" x="491.345455" xlink:href="#mefd91c8e8e" y="524.16"/>
      </g>
     </g>
     <g id="text_30">
      <!-- 10 -->
      <g transform="translate(481.165455 543.3175)scale(0.16 -0.16)">
       <use xlink:href="#DejaVuSans-49"/>
       <use x="63.623047" xlink:href="#DejaVuSans-48"/>
      </g>
     </g>
    </g>
    <g id="text_31">
     <!-- x [mm] -->
     <defs>
      <path d="M 54.890625 54.6875 
L 35.109375 28.078125 
L 55.90625 0 
L 45.3125 0 
L 29.390625 21.484375 
L 13.484375 0 
L 2.875 0 
L 24.125 28.609375 
L 4.6875 54.6875 
L 15.28125 54.6875 
L 29.78125 35.203125 
L 44.28125 54.6875 
z
" id="DejaVuSans-120"/>
     </defs>
     <g transform="translate(287.695 562.8025)scale(0.16 -0.16)">
      <use xlink:href="#DejaVuSans-120"/>
      <use x="59.179688" xlink:href="#DejaVuSans-32"/>
      <use x="90.966797" xlink:href="#DejaVuSans-91"/>
      <use x="129.980469" xlink:href="#DejaVuSans-109"/>
      <use x="227.392578" xlink:href="#DejaVuSans-109"/>
      <use x="324.804688" xlink:href="#DejaVuSans-93"/>
     </g>
    </g>
   </g>
   <g id="matplotlib.axis_4">
    <g id="ytick_7">
     <g id="line2d_69">
      <path clip-path="url(#pc5531da616)" d="M 86.4 492.754749 
L 547.2 492.754749 
" style="fill:none;stroke:#b0b0b0;stroke-linecap:square;stroke-width:0.8;"/>
     </g>
     <g id="line2d_70">
      <g>
       <use style="stroke:#000000;stroke-width:0.8;" x="86.4" xlink:href="#mb429f58fd1" y="492.754749"/>
      </g>
     </g>
     <g id="text_32">
      <!-- −40 -->
      <g transform="translate(45.6325 498.833499)scale(0.16 -0.16)">
       <use xlink:href="#DejaVuSans-8722"/>
       <use x="83.789062" xlink:href="#DejaVuSans-52"/>
       <use x="147.412109" xlink:href="#DejaVuSans-48"/>
      </g>
     </g>
    </g>
    <g id="ytick_8">
     <g id="line2d_71">
      <path clip-path="url(#pc5531da616)" d="M 86.4 423.325653 
L 547.2 423.325653 
" style="fill:none;stroke:#b0b0b0;stroke-linecap:square;stroke-width:0.8;"/>
     </g>
     <g id="line2d_72">
      <g>
       <use style="stroke:#000000;stroke-width:0.8;" x="86.4" xlink:href="#mb429f58fd1" y="423.325653"/>
      </g>
     </g>
     <g id="text_33">
      <!-- −20 -->
      <g transform="translate(45.6325 429.404403)scale(0.16 -0.16)">
       <use xlink:href="#DejaVuSans-8722"/>
       <use x="83.789062" xlink:href="#DejaVuSans-50"/>
       <use x="147.412109" xlink:href="#DejaVuSans-48"/>
      </g>
     </g>
    </g>
    <g id="ytick_9">
     <g id="line2d_73">
      <path clip-path="url(#pc5531da616)" d="M 86.4 353.896557 
L 547.2 353.896557 
" style="fill:none;stroke:#b0b0b0;stroke-linecap:square;stroke-width:0.8;"/>
     </g>
     <g id="line2d_74">
      <g>
       <use style="stroke:#000000;stroke-width:0.8;" x="86.4" xlink:href="#mb429f58fd1" y="353.896557"/>
      </g>
     </g>
     <g id="text_34">
      <!-- 0 -->
      <g transform="translate(69.22 359.975307)scale(0.16 -0.16)">
       <use xlink:href="#DejaVuSans-48"/>
      </g>
     </g>
    </g>
    <g id="text_35">
     <!-- Ix [G.cm] -->
     <g transform="translate(38.305 451.5325)rotate(-90)scale(0.16 -0.16)">
      <use xlink:href="#DejaVuSans-73"/>
      <use x="29.492188" xlink:href="#DejaVuSans-120"/>
      <use x="88.671875" xlink:href="#DejaVuSans-32"/>
      <use x="120.458984" xlink:href="#DejaVuSans-91"/>
      <use x="159.472656" xlink:href="#DejaVuSans-71"/>
      <use x="236.962891" xlink:href="#DejaVuSans-46"/>
      <use x="268.75" xlink:href="#DejaVuSans-99"/>
      <use x="323.730469" xlink:href="#DejaVuSans-109"/>
      <use x="421.142578" xlink:href="#DejaVuSans-93"/>
     </g>
    </g>
   </g>
   <g id="line2d_75">
    <path clip-path="url(#pc5531da616)" d="M 107.345455 367.764169 
L 124.8 374.12099 
L 142.254545 362.982834 
L 159.709091 353.747931 
L 177.163636 360.014303 
L 194.618182 379.418618 
L 212.072727 403.474886 
L 229.527273 417.71997 
L 246.981818 397.938528 
L 264.436364 366.493709 
L 281.890909 335.276984 
L 299.345455 330.359792 
L 316.8 354.070011 
L 334.254545 388.417211 
L 351.709091 415.104214 
L 369.163636 430.108241 
L 386.618182 420.79077 
L 404.072727 396.778092 
L 421.527273 367.401708 
L 438.981818 352.335148 
L 456.436364 361.570431 
L 473.890909 394.250328 
L 491.345455 451.224191 
L 508.8 493.750649 
L 526.254545 475.388795 
" style="fill:none;stroke:#0000ff;stroke-linecap:square;stroke-width:2;"/>
   </g>
   <g id="line2d_76">
    <path clip-path="url(#pc5531da616)" d="M 107.345455 366.446917 
L 124.8 371.245311 
L 142.254545 359.638028 
L 159.709091 349.757038 
L 177.163636 355.007647 
L 194.618182 375.177512 
L 212.072727 397.427578 
L 229.527273 411.856242 
L 246.981818 392.069702 
L 264.436364 358.673313 
L 281.890909 327.345346 
L 299.345455 320.822566 
L 316.8 343.1906 
L 334.254545 377.835366 
L 351.709091 406.22773 
L 369.163636 421.387807 
L 386.618182 411.605128 
L 404.072727 387.70141 
L 421.527273 358.036825 
L 438.981818 344.262831 
L 456.436364 353.135114 
L 473.890909 383.35208 
L 491.345455 441.484642 
L 508.8 483.919349 
L 526.254545 468.395472 
" style="fill:none;stroke:#2e00d1;stroke-linecap:square;stroke-width:2;"/>
   </g>
   <g id="line2d_77">
    <path clip-path="url(#pc5531da616)" d="M 107.345455 373.600542 
L 124.8 378.334431 
L 142.254545 365.553761 
L 159.709091 354.637015 
L 177.163636 360.385444 
L 194.618182 378.591464 
L 212.072727 401.846585 
L 229.527273 414.570952 
L 246.981818 396.642864 
L 264.436364 364.251646 
L 281.890909 333.527742 
L 299.345455 327.341576 
L 316.8 349.212522 
L 334.254545 383.470275 
L 351.709091 410.917249 
L 369.163636 426.1583 
L 386.618182 417.195914 
L 404.072727 393.76255 
L 421.527273 365.040205 
L 438.981818 350.588299 
L 456.436364 359.474721 
L 473.890909 389.387258 
L 491.345455 446.169346 
L 508.8 487.623248 
L 526.254545 470.147382 
" style="fill:none;stroke:#5c00a3;stroke-linecap:square;stroke-width:2;"/>
   </g>
   <g id="line2d_78">
    <path clip-path="url(#pc5531da616)" d="M 107.345455 369.930071 
L 124.8 373.127821 
L 142.254545 360.741715 
L 159.709091 349.96787 
L 177.163636 353.814451 
L 194.618182 372.482009 
L 212.072727 395.758262 
L 229.527273 409.274457 
L 246.981818 390.26236 
L 264.436364 355.430401 
L 281.890909 325.258291 
L 299.345455 318.688118 
L 316.8 341.429571 
L 334.254545 375.975903 
L 351.709091 403.986691 
L 369.163636 418.446647 
L 386.618182 408.589046 
L 404.072727 384.877768 
L 421.527273 354.772509 
L 438.981818 340.141044 
L 456.436364 350.420923 
L 473.890909 379.481653 
L 491.345455 435.773797 
L 508.8 476.069201 
L 526.254545 457.772801 
" style="fill:none;stroke:#8a0075;stroke-linecap:square;stroke-width:2;"/>
   </g>
   <g id="line2d_79">
    <path clip-path="url(#pc5531da616)" d="M 107.345455 375.385936 
L 124.8 378.714827 
L 142.254545 363.962884 
L 159.709091 350.260875 
L 177.163636 354.218938 
L 194.618182 371.342422 
L 212.072727 392.72068 
L 229.527273 405.644442 
L 246.981818 386.610192 
L 264.436364 352.790345 
L 281.890909 322.62758 
L 299.345455 315.229091 
L 316.8 337.346626 
L 334.254545 370.824644 
L 351.709091 397.775005 
L 369.163636 412.330681 
L 386.618182 402.557069 
L 404.072727 379.692711 
L 421.527273 351.861822 
L 438.981818 338.442945 
L 456.436364 347.033286 
L 473.890909 376.653694 
L 491.345455 431.979705 
L 508.8 473.318439 
L 526.254545 453.297177 
" style="fill:none;stroke:#ba0045;stroke-linecap:square;stroke-width:2;"/>
   </g>
   <g id="line2d_80">
    <path clip-path="url(#pc5531da616)" d="M 107.345455 380.453249 
L 124.8 383.268961 
L 142.254545 368.75097 
L 159.709091 355.774456 
L 177.163636 358.892957 
L 194.618182 375.762803 
L 212.072727 398.362048 
L 229.527273 412.274784 
L 246.981818 393.592456 
L 264.436364 360.29361 
L 281.890909 328.367159 
L 299.345455 320.270666 
L 316.8 341.120026 
L 334.254545 374.257906 
L 351.709091 401.705709 
L 369.163636 416.247618 
L 386.618182 406.711894 
L 404.072727 383.000089 
L 421.527273 353.52742 
L 438.981818 338.018486 
L 456.436364 346.854588 
L 473.890909 375.427038 
L 491.345455 430.338208 
L 508.8 468.985276 
L 526.254545 450.090607 
" style="fill:none;stroke:#e80017;stroke-linecap:square;stroke-width:2;"/>
   </g>
   <g id="line2d_81">
    <path clip-path="url(#pc5531da616)" d="M 107.345455 388.16149 
L 124.8 390.615751 
L 142.254545 374.336379 
L 159.709091 360.0743 
L 177.163636 363.507709 
L 194.618182 380.389684 
L 212.072727 401.652272 
L 229.527273 413.894097 
L 246.981818 393.509373 
L 264.436364 359.149091 
L 281.890909 326.629155 
L 299.345455 319.071706 
L 316.8 341.061774 
L 334.254545 374.066298 
L 351.709091 401.038628 
L 369.163636 414.825859 
L 386.618182 405.066308 
L 404.072727 380.249817 
L 421.527273 350.557236 
L 438.981818 335.170515 
L 456.436364 342.524454 
L 473.890909 372.257282 
L 491.345455 427.007582 
L 508.8 467.129619 
L 526.254545 446.481435 
" style="fill:none;stroke:#e81700;stroke-linecap:square;stroke-width:2;"/>
   </g>
   <g id="line2d_82">
    <path clip-path="url(#pc5531da616)" d="M 107.345455 385.573298 
L 124.8 387.495273 
L 142.254545 371.226295 
L 159.709091 357.823993 
L 177.163636 359.7499 
L 194.618182 375.86757 
L 212.072727 398.571886 
L 229.527273 409.990427 
L 246.981818 389.663286 
L 264.436364 356.272903 
L 281.890909 324.298171 
L 299.345455 316.440453 
L 316.8 337.721266 
L 334.254545 371.322056 
L 351.709091 398.226096 
L 369.163636 412.291092 
L 386.618182 402.018926 
L 404.072727 378.258839 
L 421.527273 349.862536 
L 438.981818 335.842863 
L 456.436364 344.512708 
L 473.890909 373.709294 
L 491.345455 428.831702 
L 508.8 469.41237 
L 526.254545 448.318428 
" style="fill:none;stroke:#ba4500;stroke-linecap:square;stroke-width:2;"/>
   </g>
   <g id="line2d_83">
    <path clip-path="url(#pc5531da616)" d="M 107.345455 386.371165 
L 124.8 389.492432 
L 142.254545 373.707072 
L 159.709091 360.792319 
L 177.163636 363.524286 
L 194.618182 380.664287 
L 212.072727 402.869122 
L 229.527273 416.112191 
L 246.981818 395.250194 
L 264.436364 361.946271 
L 281.890909 330.234952 
L 299.345455 323.250146 
L 316.8 344.943779 
L 334.254545 378.391128 
L 351.709091 405.967518 
L 369.163636 419.761112 
L 386.618182 408.800726 
L 404.072727 385.874239 
L 421.527273 356.750398 
L 438.981818 341.590286 
L 456.436364 351.077986 
L 473.890909 381.863151 
L 491.345455 438.515145 
L 508.8 478.305333 
L 526.254545 457.879829 
" style="fill:none;stroke:#8a7500;stroke-linecap:square;stroke-width:2;"/>
   </g>
   <g id="line2d_84">
    <path clip-path="url(#pc5531da616)" d="M 107.345455 382.996379 
L 124.8 384.99348 
L 142.254545 369.908517 
L 159.709091 357.761016 
L 177.163636 361.928762 
L 194.618182 381.452267 
L 212.072727 405.183365 
L 229.527273 418.651075 
L 246.981818 399.433232 
L 264.436364 365.681423 
L 281.890909 335.578843 
L 299.345455 328.311369 
L 316.8 350.646487 
L 334.254545 386.025156 
L 351.709091 412.862798 
L 369.163636 428.048938 
L 386.618182 418.713062 
L 404.072727 395.425221 
L 421.527273 367.45004 
L 438.981818 353.556587 
L 456.436364 362.922873 
L 473.890909 392.87886 
L 491.345455 449.216855 
L 508.8 491.363066 
L 526.254545 472.522735 
" style="fill:none;stroke:#5ca300;stroke-linecap:square;stroke-width:2;"/>
   </g>
   <g id="line2d_85">
    <path clip-path="url(#pc5531da616)" d="M 107.345455 366.046923 
L 124.8 368.335042 
L 142.254545 353.678739 
L 159.709091 341.668903 
L 177.163636 346.902335 
L 194.618182 366.229241 
L 212.072727 390.900181 
L 229.527273 406.200379 
L 246.981818 387.855551 
L 264.436364 355.409324 
L 281.890909 325.409026 
L 299.345455 319.832484 
L 316.8 342.584446 
L 334.254545 376.89353 
L 351.709091 405.469276 
L 369.163636 421.579533 
L 386.618182 413.254296 
L 404.072727 392.365223 
L 421.527273 365.015326 
L 438.981818 352.199365 
L 456.436364 362.580216 
L 473.890909 394.199589 
L 491.345455 451.052718 
L 508.8 492.310228 
L 526.254545 474.453017 
" style="fill:none;stroke:#2ed100;stroke-linecap:square;stroke-width:2;"/>
   </g>
   <g id="line2d_86">
    <path clip-path="url(#pc5531da616)" d="M 107.345455 357.683795 
L 124.8 360.350296 
L 142.254545 348.10932 
L 159.709091 338.738949 
L 177.163636 345.459682 
L 194.618182 366.824422 
L 212.072727 393.659035 
L 229.527273 410.603831 
L 246.981818 392.704226 
L 264.436364 360.711076 
L 281.890909 331.097008 
L 299.345455 324.856776 
L 316.8 348.620236 
L 334.254545 385.289614 
L 351.709091 416.217785 
L 369.163636 434.601816 
L 386.618182 426.419016 
L 404.072727 406.238629 
L 421.527273 380.611961 
L 438.981818 368.760291 
L 456.436364 379.936354 
L 473.890909 412.26051 
L 491.345455 469.916741 
L 508.8 514.210909 
L 526.254545 496.492199 
" style="fill:none;stroke:#00ff00;stroke-linecap:square;stroke-width:2;"/>
   </g>
   <g id="patch_9">
    <path d="M 86.4 524.16 
L 86.4 305.28 
" style="fill:none;stroke:#000000;stroke-linecap:square;stroke-linejoin:miter;stroke-width:0.8;"/>
   </g>
   <g id="patch_10">
    <path d="M 547.2 524.16 
L 547.2 305.28 
" style="fill:none;stroke:#000000;stroke-linecap:square;stroke-linejoin:miter;stroke-width:0.8;"/>
   </g>
   <g id="patch_11">
    <path d="M 86.4 524.16 
L 547.2 524.16 
" style="fill:none;stroke:#000000;stroke-linecap:square;stroke-linejoin:miter;stroke-width:0.8;"/>
   </g>
   <g id="patch_12">
    <path d="M 86.4 305.28 
L 547.2 305.28 
" style="fill:none;stroke:#000000;stroke-linecap:square;stroke-linejoin:miter;stroke-width:0.8;"/>
   </g>
  </g>
  <g id="text_36">
   <!-- Integrals (Coil) for 1991d @ y=+00.0 -->
   <defs>
    <path d="M 54.890625 33.015625 
L 54.890625 0 
L 45.90625 0 
L 45.90625 32.71875 
Q 45.90625 40.484375 42.875 44.328125 
Q 39.84375 48.1875 33.796875 48.1875 
Q 26.515625 48.1875 22.3125 43.546875 
Q 18.109375 38.921875 18.109375 30.90625 
L 18.109375 0 
L 9.078125 0 
L 9.078125 54.6875 
L 18.109375 54.6875 
L 18.109375 46.1875 
Q 21.34375 51.125 25.703125 53.5625 
Q 30.078125 56 35.796875 56 
Q 45.21875 56 50.046875 50.171875 
Q 54.890625 44.34375 54.890625 33.015625 
z
" id="DejaVuSans-110"/>
    <path d="M 18.3125 70.21875 
L 18.3125 54.6875 
L 36.8125 54.6875 
L 36.8125 47.703125 
L 18.3125 47.703125 
L 18.3125 18.015625 
Q 18.3125 11.328125 20.140625 9.421875 
Q 21.96875 7.515625 27.59375 7.515625 
L 36.8125 7.515625 
L 36.8125 0 
L 27.59375 0 
Q 17.1875 0 13.234375 3.875 
Q 9.28125 7.765625 9.28125 18.015625 
L 9.28125 47.703125 
L 2.6875 47.703125 
L 2.6875 54.6875 
L 9.28125 54.6875 
L 9.28125 70.21875 
z
" id="DejaVuSans-116"/>
    <path d="M 45.40625 27.984375 
Q 45.40625 37.75 41.375 43.109375 
Q 37.359375 48.484375 30.078125 48.484375 
Q 22.859375 48.484375 18.828125 43.109375 
Q 14.796875 37.75 14.796875 27.984375 
Q 14.796875 18.265625 18.828125 12.890625 
Q 22.859375 7.515625 30.078125 7.515625 
Q 37.359375 7.515625 41.375 12.890625 
Q 45.40625 18.265625 45.40625 27.984375 
z
M 54.390625 6.78125 
Q 54.390625 -7.171875 48.1875 -13.984375 
Q 42 -20.796875 29.203125 -20.796875 
Q 24.46875 -20.796875 20.265625 -20.09375 
Q 16.0625 -19.390625 12.109375 -17.921875 
L 12.109375 -9.1875 
Q 16.0625 -11.328125 19.921875 -12.34375 
Q 23.78125 -13.375 27.78125 -13.375 
Q 36.625 -13.375 41.015625 -8.765625 
Q 45.40625 -4.15625 45.40625 5.171875 
L 45.40625 9.625 
Q 42.625 4.78125 38.28125 2.390625 
Q 33.9375 0 27.875 0 
Q 17.828125 0 11.671875 7.65625 
Q 5.515625 15.328125 5.515625 27.984375 
Q 5.515625 40.671875 11.671875 48.328125 
Q 17.828125 56 27.875 56 
Q 33.9375 56 38.28125 53.609375 
Q 42.625 51.21875 45.40625 46.390625 
L 45.40625 54.6875 
L 54.390625 54.6875 
z
" id="DejaVuSans-103"/>
    <path d="M 41.109375 46.296875 
Q 39.59375 47.171875 37.8125 47.578125 
Q 36.03125 48 33.890625 48 
Q 26.265625 48 22.1875 43.046875 
Q 18.109375 38.09375 18.109375 28.8125 
L 18.109375 0 
L 9.078125 0 
L 9.078125 54.6875 
L 18.109375 54.6875 
L 18.109375 46.1875 
Q 20.953125 51.171875 25.484375 53.578125 
Q 30.03125 56 36.53125 56 
Q 37.453125 56 38.578125 55.875 
Q 39.703125 55.765625 41.0625 55.515625 
z
" id="DejaVuSans-114"/>
    <path d="M 9.421875 75.984375 
L 18.40625 75.984375 
L 18.40625 0 
L 9.421875 0 
z
" id="DejaVuSans-108"/>
    <path d="M 31 75.875 
Q 24.46875 64.65625 21.28125 53.65625 
Q 18.109375 42.671875 18.109375 31.390625 
Q 18.109375 20.125 21.3125 9.0625 
Q 24.515625 -2 31 -13.1875 
L 23.1875 -13.1875 
Q 15.875 -1.703125 12.234375 9.375 
Q 8.59375 20.453125 8.59375 31.390625 
Q 8.59375 42.28125 12.203125 53.3125 
Q 15.828125 64.359375 23.1875 75.875 
z
" id="DejaVuSans-40"/>
    <path d="M 64.40625 67.28125 
L 64.40625 56.890625 
Q 59.421875 61.53125 53.78125 63.8125 
Q 48.140625 66.109375 41.796875 66.109375 
Q 29.296875 66.109375 22.65625 58.46875 
Q 16.015625 50.828125 16.015625 36.375 
Q 16.015625 21.96875 22.65625 14.328125 
Q 29.296875 6.6875 41.796875 6.6875 
Q 48.140625 6.6875 53.78125 8.984375 
Q 59.421875 11.28125 64.40625 15.921875 
L 64.40625 5.609375 
Q 59.234375 2.09375 53.4375 0.328125 
Q 47.65625 -1.421875 41.21875 -1.421875 
Q 24.65625 -1.421875 15.125 8.703125 
Q 5.609375 18.84375 5.609375 36.375 
Q 5.609375 53.953125 15.125 64.078125 
Q 24.65625 74.21875 41.21875 74.21875 
Q 47.75 74.21875 53.53125 72.484375 
Q 59.328125 70.75 64.40625 67.28125 
z
" id="DejaVuSans-67"/>
    <path d="M 30.609375 48.390625 
Q 23.390625 48.390625 19.1875 42.75 
Q 14.984375 37.109375 14.984375 27.296875 
Q 14.984375 17.484375 19.15625 11.84375 
Q 23.34375 6.203125 30.609375 6.203125 
Q 37.796875 6.203125 41.984375 11.859375 
Q 46.1875 17.53125 46.1875 27.296875 
Q 46.1875 37.015625 41.984375 42.703125 
Q 37.796875 48.390625 30.609375 48.390625 
z
M 30.609375 56 
Q 42.328125 56 49.015625 48.375 
Q 55.71875 40.765625 55.71875 27.296875 
Q 55.71875 13.875 49.015625 6.21875 
Q 42.328125 -1.421875 30.609375 -1.421875 
Q 18.84375 -1.421875 12.171875 6.21875 
Q 5.515625 13.875 5.515625 27.296875 
Q 5.515625 40.765625 12.171875 48.375 
Q 18.84375 56 30.609375 56 
z
" id="DejaVuSans-111"/>
    <path d="M 9.421875 54.6875 
L 18.40625 54.6875 
L 18.40625 0 
L 9.421875 0 
z
M 9.421875 75.984375 
L 18.40625 75.984375 
L 18.40625 64.59375 
L 9.421875 64.59375 
z
" id="DejaVuSans-105"/>
    <path d="M 8.015625 75.875 
L 15.828125 75.875 
Q 23.140625 64.359375 26.78125 53.3125 
Q 30.421875 42.28125 30.421875 31.390625 
Q 30.421875 20.453125 26.78125 9.375 
Q 23.140625 -1.703125 15.828125 -13.1875 
L 8.015625 -13.1875 
Q 14.5 -2 17.703125 9.0625 
Q 20.90625 20.125 20.90625 31.390625 
Q 20.90625 42.671875 17.703125 53.65625 
Q 14.5 64.65625 8.015625 75.875 
z
" id="DejaVuSans-41"/>
    <path d="M 37.109375 75.984375 
L 37.109375 68.5 
L 28.515625 68.5 
Q 23.6875 68.5 21.796875 66.546875 
Q 19.921875 64.59375 19.921875 59.515625 
L 19.921875 54.6875 
L 34.71875 54.6875 
L 34.71875 47.703125 
L 19.921875 47.703125 
L 19.921875 0 
L 10.890625 0 
L 10.890625 47.703125 
L 2.296875 47.703125 
L 2.296875 54.6875 
L 10.890625 54.6875 
L 10.890625 58.5 
Q 10.890625 67.625 15.140625 71.796875 
Q 19.390625 75.984375 28.609375 75.984375 
z
" id="DejaVuSans-102"/>
    <path d="M 45.40625 46.390625 
L 45.40625 75.984375 
L 54.390625 75.984375 
L 54.390625 0 
L 45.40625 0 
L 45.40625 8.203125 
Q 42.578125 3.328125 38.25 0.953125 
Q 33.9375 -1.421875 27.875 -1.421875 
Q 17.96875 -1.421875 11.734375 6.484375 
Q 5.515625 14.40625 5.515625 27.296875 
Q 5.515625 40.1875 11.734375 48.09375 
Q 17.96875 56 27.875 56 
Q 33.9375 56 38.25 53.625 
Q 42.578125 51.265625 45.40625 46.390625 
z
M 14.796875 27.296875 
Q 14.796875 17.390625 18.875 11.75 
Q 22.953125 6.109375 30.078125 6.109375 
Q 37.203125 6.109375 41.296875 11.75 
Q 45.40625 17.390625 45.40625 27.296875 
Q 45.40625 37.203125 41.296875 42.84375 
Q 37.203125 48.484375 30.078125 48.484375 
Q 22.953125 48.484375 18.875 42.84375 
Q 14.796875 37.203125 14.796875 27.296875 
z
" id="DejaVuSans-100"/>
    <path d="M 37.203125 26.21875 
Q 37.203125 19.234375 40.671875 15.25 
Q 44.140625 11.28125 50.203125 11.28125 
Q 56.203125 11.28125 59.640625 15.28125 
Q 63.09375 19.28125 63.09375 26.21875 
Q 63.09375 33.0625 59.578125 37.078125 
Q 56.0625 41.109375 50.09375 41.109375 
Q 44.1875 41.109375 40.6875 37.109375 
Q 37.203125 33.109375 37.203125 26.21875 
z
M 63.8125 11.625 
Q 60.890625 7.859375 57.109375 6.078125 
Q 53.328125 4.296875 48.296875 4.296875 
Q 39.890625 4.296875 34.640625 10.375 
Q 29.390625 16.453125 29.390625 26.21875 
Q 29.390625 35.984375 34.65625 42.078125 
Q 39.9375 48.1875 48.296875 48.1875 
Q 53.328125 48.1875 57.125 46.359375 
Q 60.9375 44.53125 63.8125 40.828125 
L 63.8125 47.21875 
L 70.796875 47.21875 
L 70.796875 11.28125 
Q 77.9375 12.359375 81.953125 17.796875 
Q 85.984375 23.25 85.984375 31.890625 
Q 85.984375 37.109375 84.4375 41.703125 
Q 82.90625 46.296875 79.78125 50.203125 
Q 74.703125 56.59375 67.40625 59.984375 
Q 60.109375 63.375 51.515625 63.375 
Q 45.515625 63.375 39.984375 61.78125 
Q 34.46875 60.203125 29.78125 57.078125 
Q 22.125 52.09375 17.796875 44.015625 
Q 13.484375 35.9375 13.484375 26.515625 
Q 13.484375 18.75 16.28125 11.953125 
Q 19.09375 5.171875 24.421875 0 
Q 29.546875 -5.078125 36.28125 -7.734375 
Q 43.015625 -10.40625 50.6875 -10.40625 
Q 56.984375 -10.40625 63.0625 -8.28125 
Q 69.140625 -6.15625 74.21875 -2.203125 
L 78.609375 -7.625 
Q 72.515625 -12.359375 65.3125 -14.875 
Q 58.109375 -17.390625 50.6875 -17.390625 
Q 41.65625 -17.390625 33.640625 -14.1875 
Q 25.640625 -10.984375 19.390625 -4.890625 
Q 13.140625 1.21875 9.859375 9.25 
Q 6.59375 17.28125 6.59375 26.515625 
Q 6.59375 35.40625 9.90625 43.453125 
Q 13.234375 51.515625 19.390625 57.625 
Q 25.6875 63.8125 33.9375 67.109375 
Q 42.1875 70.40625 51.421875 70.40625 
Q 61.765625 70.40625 70.625 66.15625 
Q 79.5 61.921875 85.5 54.109375 
Q 89.15625 49.3125 91.078125 43.703125 
Q 93.015625 38.09375 93.015625 32.078125 
Q 93.015625 19.234375 85.25 11.8125 
Q 77.484375 4.390625 63.8125 4.109375 
z
" id="DejaVuSans-64"/>
    <path d="M 10.59375 45.40625 
L 73.1875 45.40625 
L 73.1875 37.203125 
L 10.59375 37.203125 
z
M 10.59375 25.484375 
L 73.1875 25.484375 
L 73.1875 17.1875 
L 10.59375 17.1875 
z
" id="DejaVuSans-61"/>
    <path d="M 46 62.703125 
L 46 35.5 
L 73.1875 35.5 
L 73.1875 27.203125 
L 46 27.203125 
L 46 0 
L 37.796875 0 
L 37.796875 27.203125 
L 10.59375 27.203125 
L 10.59375 35.5 
L 37.796875 35.5 
L 37.796875 62.703125 
z
" id="DejaVuSans-43"/>
   </defs>
   <g transform="translate(108.6915 26.109)scale(0.192 -0.192)">
    <use xlink:href="#DejaVuSans-73"/>
    <use x="29.492188" xlink:href="#DejaVuSans-110"/>
    <use x="92.871094" xlink:href="#DejaVuSans-116"/>
    <use x="132.080078" xlink:href="#DejaVuSans-101"/>
    <use x="193.603516" xlink:href="#DejaVuSans-103"/>
    <use x="257.080078" xlink:href="#DejaVuSans-114"/>
    <use x="298.193359" xlink:href="#DejaVuSans-97"/>
    <use x="359.472656" xlink:href="#DejaVuSans-108"/>
    <use x="387.255859" xlink:href="#DejaVuSans-115"/>
    <use x="439.355469" xlink:href="#DejaVuSans-32"/>
    <use x="471.142578" xlink:href="#DejaVuSans-40"/>
    <use x="510.15625" xlink:href="#DejaVuSans-67"/>
    <use x="579.980469" xlink:href="#DejaVuSans-111"/>
    <use x="641.162109" xlink:href="#DejaVuSans-105"/>
    <use x="668.945312" xlink:href="#DejaVuSans-108"/>
    <use x="696.728516" xlink:href="#DejaVuSans-41"/>
    <use x="735.742188" xlink:href="#DejaVuSans-32"/>
    <use x="767.529297" xlink:href="#DejaVuSans-102"/>
    <use x="802.734375" xlink:href="#DejaVuSans-111"/>
    <use x="863.916016" xlink:href="#DejaVuSans-114"/>
    <use x="905.029297" xlink:href="#DejaVuSans-32"/>
    <use x="936.816406" xlink:href="#DejaVuSans-49"/>
    <use x="1000.439453" xlink:href="#DejaVuSans-57"/>
    <use x="1064.0625" xlink:href="#DejaVuSans-57"/>
    <use x="1127.685547" xlink:href="#DejaVuSans-49"/>
    <use x="1191.308594" xlink:href="#DejaVuSans-100"/>
    <use x="1254.785156" xlink:href="#DejaVuSans-32"/>
    <use x="1286.572266" xlink:href="#DejaVuSans-64"/>
    <use x="1386.572266" xlink:href="#DejaVuSans-32"/>
    <use x="1418.359375" xlink:href="#DejaVuSans-121"/>
    <use x="1477.539062" xlink:href="#DejaVuSans-61"/>
    <use x="1561.328125" xlink:href="#DejaVuSans-43"/>
    <use x="1645.117188" xlink:href="#DejaVuSans-48"/>
    <use x="1708.740234" xlink:href="#DejaVuSans-48"/>
    <use x="1772.363281" xlink:href="#DejaVuSans-46"/>
    <use x="1804.150391" xlink:href="#DejaVuSans-48"/>
   </g>
  </g>
 </g>
 <defs>
  <clipPath id="p4d52a39ec7">
   <rect height="218.88" width="460.8" x="86.4" y="86.4"/>
  </clipPath>
  <clipPath id="pc5531da616">
   <rect height="218.88" width="460.8" x="86.4" y="305.28"/>
  </clipPath>
 </defs>
</svg>
