<?xml version="1.0" encoding="utf-8" standalone="no"?>
<!DOCTYPE svg PUBLIC "-//W3C//DTD SVG 1.1//EN"
  "http://www.w3.org/Graphics/SVG/1.1/DTD/svg11.dtd">
<!-- Created with matplotlib (https://matplotlib.org/) -->
<svg height="576pt" version="1.1" viewBox="0 0 576 576" width="576pt" xmlns="http://www.w3.org/2000/svg" xmlns:xlink="http://www.w3.org/1999/xlink">
 <defs>
  <style type="text/css">
*{stroke-linecap:butt;stroke-linejoin:round;}
  </style>
 </defs>
 <g id="figure_1">
  <g id="patch_1">
   <path d="M 0 576 
L 576 576 
L 576 0 
L 0 0 
z
" style="fill:#ffffff;"/>
  </g>
  <g id="axes_1">
   <g id="patch_2">
    <path d="M 86.4 305.28 
L 547.2 305.28 
L 547.2 86.4 
L 86.4 86.4 
z
" style="fill:#ffffff;"/>
   </g>
   <g id="matplotlib.axis_1">
    <g id="xtick_1">
     <g id="line2d_1">
      <path clip-path="url(#pdf25fec725)" d="M 142.254545 305.28 
L 142.254545 86.4 
" style="fill:none;stroke:#b0b0b0;stroke-linecap:square;stroke-width:0.8;"/>
     </g>
     <g id="line2d_2">
      <defs>
       <path d="M 0 0 
L 0 3.5 
" id="m6f46e07ce6" style="stroke:#000000;stroke-width:0.8;"/>
      </defs>
      <g>
       <use style="stroke:#000000;stroke-width:0.8;" x="142.254545" xlink:href="#m6f46e07ce6" y="305.28"/>
      </g>
     </g>
     <g id="text_1">
      <!-- −10 -->
      <defs>
       <path d="M 10.59375 35.5 
L 73.1875 35.5 
L 73.1875 27.203125 
L 10.59375 27.203125 
z
" id="DejaVuSans-8722"/>
       <path d="M 12.40625 8.296875 
L 28.515625 8.296875 
L 28.515625 63.921875 
L 10.984375 60.40625 
L 10.984375 69.390625 
L 28.421875 72.90625 
L 38.28125 72.90625 
L 38.28125 8.296875 
L 54.390625 8.296875 
L 54.390625 0 
L 12.40625 0 
z
" id="DejaVuSans-49"/>
       <path d="M 31.78125 66.40625 
Q 24.171875 66.40625 20.328125 58.90625 
Q 16.5 51.421875 16.5 36.375 
Q 16.5 21.390625 20.328125 13.890625 
Q 24.171875 6.390625 31.78125 6.390625 
Q 39.453125 6.390625 43.28125 13.890625 
Q 47.125 21.390625 47.125 36.375 
Q 47.125 51.421875 43.28125 58.90625 
Q 39.453125 66.40625 31.78125 66.40625 
z
M 31.78125 74.21875 
Q 44.046875 74.21875 50.515625 64.515625 
Q 56.984375 54.828125 56.984375 36.375 
Q 56.984375 17.96875 50.515625 8.265625 
Q 44.046875 -1.421875 31.78125 -1.421875 
Q 19.53125 -1.421875 13.0625 8.265625 
Q 6.59375 17.96875 6.59375 36.375 
Q 6.59375 54.828125 13.0625 64.515625 
Q 19.53125 74.21875 31.78125 74.21875 
z
" id="DejaVuSans-48"/>
      </defs>
      <g transform="translate(125.370795 324.4375)scale(0.16 -0.16)">
       <use xlink:href="#DejaVuSans-8722"/>
       <use x="83.789062" xlink:href="#DejaVuSans-49"/>
       <use x="147.412109" xlink:href="#DejaVuSans-48"/>
      </g>
     </g>
    </g>
    <g id="xtick_2">
     <g id="line2d_3">
      <path clip-path="url(#pdf25fec725)" d="M 229.527273 305.28 
L 229.527273 86.4 
" style="fill:none;stroke:#b0b0b0;stroke-linecap:square;stroke-width:0.8;"/>
     </g>
     <g id="line2d_4">
      <g>
       <use style="stroke:#000000;stroke-width:0.8;" x="229.527273" xlink:href="#m6f46e07ce6" y="305.28"/>
      </g>
     </g>
     <g id="text_2">
      <!-- −5 -->
      <defs>
       <path d="M 10.796875 72.90625 
L 49.515625 72.90625 
L 49.515625 64.59375 
L 19.828125 64.59375 
L 19.828125 46.734375 
Q 21.96875 47.46875 24.109375 47.828125 
Q 26.265625 48.1875 28.421875 48.1875 
Q 40.625 48.1875 47.75 41.5 
Q 54.890625 34.8125 54.890625 23.390625 
Q 54.890625 11.625 47.5625 5.09375 
Q 40.234375 -1.421875 26.90625 -1.421875 
Q 22.3125 -1.421875 17.546875 -0.640625 
Q 12.796875 0.140625 7.71875 1.703125 
L 7.71875 11.625 
Q 12.109375 9.234375 16.796875 8.0625 
Q 21.484375 6.890625 26.703125 6.890625 
Q 35.15625 6.890625 40.078125 11.328125 
Q 45.015625 15.765625 45.015625 23.390625 
Q 45.015625 31 40.078125 35.4375 
Q 35.15625 39.890625 26.703125 39.890625 
Q 22.75 39.890625 18.8125 39.015625 
Q 14.890625 38.140625 10.796875 36.28125 
z
" id="DejaVuSans-53"/>
      </defs>
      <g transform="translate(217.733523 324.4375)scale(0.16 -0.16)">
       <use xlink:href="#DejaVuSans-8722"/>
       <use x="83.789062" xlink:href="#DejaVuSans-53"/>
      </g>
     </g>
    </g>
    <g id="xtick_3">
     <g id="line2d_5">
      <path clip-path="url(#pdf25fec725)" d="M 316.8 305.28 
L 316.8 86.4 
" style="fill:none;stroke:#b0b0b0;stroke-linecap:square;stroke-width:0.8;"/>
     </g>
     <g id="line2d_6">
      <g>
       <use style="stroke:#000000;stroke-width:0.8;" x="316.8" xlink:href="#m6f46e07ce6" y="305.28"/>
      </g>
     </g>
     <g id="text_3">
      <!-- 0 -->
      <g transform="translate(311.71 324.4375)scale(0.16 -0.16)">
       <use xlink:href="#DejaVuSans-48"/>
      </g>
     </g>
    </g>
    <g id="xtick_4">
     <g id="line2d_7">
      <path clip-path="url(#pdf25fec725)" d="M 404.072727 305.28 
L 404.072727 86.4 
" style="fill:none;stroke:#b0b0b0;stroke-linecap:square;stroke-width:0.8;"/>
     </g>
     <g id="line2d_8">
      <g>
       <use style="stroke:#000000;stroke-width:0.8;" x="404.072727" xlink:href="#m6f46e07ce6" y="305.28"/>
      </g>
     </g>
     <g id="text_4">
      <!-- 5 -->
      <g transform="translate(398.982727 324.4375)scale(0.16 -0.16)">
       <use xlink:href="#DejaVuSans-53"/>
      </g>
     </g>
    </g>
    <g id="xtick_5">
     <g id="line2d_9">
      <path clip-path="url(#pdf25fec725)" d="M 491.345455 305.28 
L 491.345455 86.4 
" style="fill:none;stroke:#b0b0b0;stroke-linecap:square;stroke-width:0.8;"/>
     </g>
     <g id="line2d_10">
      <g>
       <use style="stroke:#000000;stroke-width:0.8;" x="491.345455" xlink:href="#m6f46e07ce6" y="305.28"/>
      </g>
     </g>
     <g id="text_5">
      <!-- 10 -->
      <g transform="translate(481.165455 324.4375)scale(0.16 -0.16)">
       <use xlink:href="#DejaVuSans-49"/>
       <use x="63.623047" xlink:href="#DejaVuSans-48"/>
      </g>
     </g>
    </g>
   </g>
   <g id="matplotlib.axis_2">
    <g id="ytick_1">
     <g id="line2d_11">
      <path clip-path="url(#pdf25fec725)" d="M 86.4 260.379326 
L 547.2 260.379326 
" style="fill:none;stroke:#b0b0b0;stroke-linecap:square;stroke-width:0.8;"/>
     </g>
     <g id="line2d_12">
      <defs>
       <path d="M 0 0 
L -3.5 0 
" id="mb74b7786dc" style="stroke:#000000;stroke-width:0.8;"/>
      </defs>
      <g>
       <use style="stroke:#000000;stroke-width:0.8;" x="86.4" xlink:href="#mb74b7786dc" y="260.379326"/>
      </g>
     </g>
     <g id="text_6">
      <!-- −20 -->
      <defs>
       <path d="M 19.1875 8.296875 
L 53.609375 8.296875 
L 53.609375 0 
L 7.328125 0 
L 7.328125 8.296875 
Q 12.9375 14.109375 22.625 23.890625 
Q 32.328125 33.6875 34.8125 36.53125 
Q 39.546875 41.84375 41.421875 45.53125 
Q 43.3125 49.21875 43.3125 52.78125 
Q 43.3125 58.59375 39.234375 62.25 
Q 35.15625 65.921875 28.609375 65.921875 
Q 23.96875 65.921875 18.8125 64.3125 
Q 13.671875 62.703125 7.8125 59.421875 
L 7.8125 69.390625 
Q 13.765625 71.78125 18.9375 73 
Q 24.125 74.21875 28.421875 74.21875 
Q 39.75 74.21875 46.484375 68.546875 
Q 53.21875 62.890625 53.21875 53.421875 
Q 53.21875 48.921875 51.53125 44.890625 
Q 49.859375 40.875 45.40625 35.40625 
Q 44.1875 33.984375 37.640625 27.21875 
Q 31.109375 20.453125 19.1875 8.296875 
z
" id="DejaVuSans-50"/>
      </defs>
      <g transform="translate(45.6325 266.458076)scale(0.16 -0.16)">
       <use xlink:href="#DejaVuSans-8722"/>
       <use x="83.789062" xlink:href="#DejaVuSans-50"/>
       <use x="147.412109" xlink:href="#DejaVuSans-48"/>
      </g>
     </g>
    </g>
    <g id="ytick_2">
     <g id="line2d_13">
      <path clip-path="url(#pdf25fec725)" d="M 86.4 196.805754 
L 547.2 196.805754 
" style="fill:none;stroke:#b0b0b0;stroke-linecap:square;stroke-width:0.8;"/>
     </g>
     <g id="line2d_14">
      <g>
       <use style="stroke:#000000;stroke-width:0.8;" x="86.4" xlink:href="#mb74b7786dc" y="196.805754"/>
      </g>
     </g>
     <g id="text_7">
      <!-- −10 -->
      <g transform="translate(45.6325 202.884504)scale(0.16 -0.16)">
       <use xlink:href="#DejaVuSans-8722"/>
       <use x="83.789062" xlink:href="#DejaVuSans-49"/>
       <use x="147.412109" xlink:href="#DejaVuSans-48"/>
      </g>
     </g>
    </g>
    <g id="ytick_3">
     <g id="line2d_15">
      <path clip-path="url(#pdf25fec725)" d="M 86.4 133.232182 
L 547.2 133.232182 
" style="fill:none;stroke:#b0b0b0;stroke-linecap:square;stroke-width:0.8;"/>
     </g>
     <g id="line2d_16">
      <g>
       <use style="stroke:#000000;stroke-width:0.8;" x="86.4" xlink:href="#mb74b7786dc" y="133.232182"/>
      </g>
     </g>
     <g id="text_8">
      <!-- 0 -->
      <g transform="translate(69.22 139.310932)scale(0.16 -0.16)">
       <use xlink:href="#DejaVuSans-48"/>
      </g>
     </g>
    </g>
    <g id="text_9">
     <!-- Iy [G.cm] -->
     <defs>
      <path d="M 9.8125 72.90625 
L 19.671875 72.90625 
L 19.671875 0 
L 9.8125 0 
z
" id="DejaVuSans-73"/>
      <path d="M 32.171875 -5.078125 
Q 28.375 -14.84375 24.75 -17.8125 
Q 21.140625 -20.796875 15.09375 -20.796875 
L 7.90625 -20.796875 
L 7.90625 -13.28125 
L 13.1875 -13.28125 
Q 16.890625 -13.28125 18.9375 -11.515625 
Q 21 -9.765625 23.484375 -3.21875 
L 25.09375 0.875 
L 2.984375 54.6875 
L 12.5 54.6875 
L 29.59375 11.921875 
L 46.6875 54.6875 
L 56.203125 54.6875 
z
" id="DejaVuSans-121"/>
      <path id="DejaVuSans-32"/>
      <path d="M 8.59375 75.984375 
L 29.296875 75.984375 
L 29.296875 69 
L 17.578125 69 
L 17.578125 -6.203125 
L 29.296875 -6.203125 
L 29.296875 -13.1875 
L 8.59375 -13.1875 
z
" id="DejaVuSans-91"/>
      <path d="M 59.515625 10.40625 
L 59.515625 29.984375 
L 43.40625 29.984375 
L 43.40625 38.09375 
L 69.28125 38.09375 
L 69.28125 6.78125 
Q 63.578125 2.734375 56.6875 0.65625 
Q 49.8125 -1.421875 42 -1.421875 
Q 24.90625 -1.421875 15.25 8.5625 
Q 5.609375 18.5625 5.609375 36.375 
Q 5.609375 54.25 15.25 64.234375 
Q 24.90625 74.21875 42 74.21875 
Q 49.125 74.21875 55.546875 72.453125 
Q 61.96875 70.703125 67.390625 67.28125 
L 67.390625 56.78125 
Q 61.921875 61.421875 55.765625 63.765625 
Q 49.609375 66.109375 42.828125 66.109375 
Q 29.4375 66.109375 22.71875 58.640625 
Q 16.015625 51.171875 16.015625 36.375 
Q 16.015625 21.625 22.71875 14.15625 
Q 29.4375 6.6875 42.828125 6.6875 
Q 48.046875 6.6875 52.140625 7.59375 
Q 56.25 8.5 59.515625 10.40625 
z
" id="DejaVuSans-71"/>
      <path d="M 10.6875 12.40625 
L 21 12.40625 
L 21 0 
L 10.6875 0 
z
" id="DejaVuSans-46"/>
      <path d="M 48.78125 52.59375 
L 48.78125 44.1875 
Q 44.96875 46.296875 41.140625 47.34375 
Q 37.3125 48.390625 33.40625 48.390625 
Q 24.65625 48.390625 19.8125 42.84375 
Q 14.984375 37.3125 14.984375 27.296875 
Q 14.984375 17.28125 19.8125 11.734375 
Q 24.65625 6.203125 33.40625 6.203125 
Q 37.3125 6.203125 41.140625 7.25 
Q 44.96875 8.296875 48.78125 10.40625 
L 48.78125 2.09375 
Q 45.015625 0.34375 40.984375 -0.53125 
Q 36.96875 -1.421875 32.421875 -1.421875 
Q 20.0625 -1.421875 12.78125 6.34375 
Q 5.515625 14.109375 5.515625 27.296875 
Q 5.515625 40.671875 12.859375 48.328125 
Q 20.21875 56 33.015625 56 
Q 37.15625 56 41.109375 55.140625 
Q 45.0625 54.296875 48.78125 52.59375 
z
" id="DejaVuSans-99"/>
      <path d="M 52 44.1875 
Q 55.375 50.25 60.0625 53.125 
Q 64.75 56 71.09375 56 
Q 79.640625 56 84.28125 50.015625 
Q 88.921875 44.046875 88.921875 33.015625 
L 88.921875 0 
L 79.890625 0 
L 79.890625 32.71875 
Q 79.890625 40.578125 77.09375 44.375 
Q 74.3125 48.1875 68.609375 48.1875 
Q 61.625 48.1875 57.5625 43.546875 
Q 53.515625 38.921875 53.515625 30.90625 
L 53.515625 0 
L 44.484375 0 
L 44.484375 32.71875 
Q 44.484375 40.625 41.703125 44.40625 
Q 38.921875 48.1875 33.109375 48.1875 
Q 26.21875 48.1875 22.15625 43.53125 
Q 18.109375 38.875 18.109375 30.90625 
L 18.109375 0 
L 9.078125 0 
L 9.078125 54.6875 
L 18.109375 54.6875 
L 18.109375 46.1875 
Q 21.1875 51.21875 25.484375 53.609375 
Q 29.78125 56 35.6875 56 
Q 41.65625 56 45.828125 52.96875 
Q 50 49.953125 52 44.1875 
z
" id="DejaVuSans-109"/>
      <path d="M 30.421875 75.984375 
L 30.421875 -13.1875 
L 9.71875 -13.1875 
L 9.71875 -6.203125 
L 21.390625 -6.203125 
L 21.390625 69 
L 9.71875 69 
L 9.71875 75.984375 
z
" id="DejaVuSans-93"/>
     </defs>
     <g transform="translate(38.305 232.6525)rotate(-90)scale(0.16 -0.16)">
      <use xlink:href="#DejaVuSans-73"/>
      <use x="29.492188" xlink:href="#DejaVuSans-121"/>
      <use x="88.671875" xlink:href="#DejaVuSans-32"/>
      <use x="120.458984" xlink:href="#DejaVuSans-91"/>
      <use x="159.472656" xlink:href="#DejaVuSans-71"/>
      <use x="236.962891" xlink:href="#DejaVuSans-46"/>
      <use x="268.75" xlink:href="#DejaVuSans-99"/>
      <use x="323.730469" xlink:href="#DejaVuSans-109"/>
      <use x="421.142578" xlink:href="#DejaVuSans-93"/>
     </g>
    </g>
   </g>
   <g id="line2d_17">
    <path clip-path="url(#pdf25fec725)" d="M 107.345455 276.897904 
L 124.8 211.199551 
L 142.254545 202.874996 
L 159.709091 202.493584 
L 177.163636 200.765514 
L 194.618182 184.224146 
L 212.072727 167.553149 
L 229.527273 153.719508 
L 246.981818 139.194538 
L 264.436364 141.700889 
L 281.890909 145.726749 
L 299.345455 165.322043 
L 316.8 185.695091 
L 334.254545 195.590098 
L 351.709091 192.27772 
L 369.163636 177.723943 
L 386.618182 153.556268 
L 404.072727 136.55401 
L 421.527273 135.697307 
L 438.981818 156.639272 
L 456.436364 193.064265 
L 473.890909 227.364841 
L 491.345455 246.837721 
L 508.8 228.978493 
L 526.254545 144.8733 
" style="fill:none;stroke:#0000ff;stroke-linecap:square;stroke-width:2;"/>
   </g>
   <g id="line2d_18">
    <path clip-path="url(#pdf25fec725)" d="M 107.345455 280.729026 
L 124.8 216.470068 
L 142.254545 209.217708 
L 159.709091 210.988708 
L 177.163636 206.170418 
L 194.618182 190.924477 
L 212.072727 175.015998 
L 229.527273 159.914081 
L 246.981818 146.526109 
L 264.436364 148.441134 
L 281.890909 155.368363 
L 299.345455 173.493778 
L 316.8 193.282724 
L 334.254545 202.766453 
L 351.709091 201.484063 
L 369.163636 187.498373 
L 386.618182 164.309255 
L 404.072727 145.959502 
L 421.527273 145.462058 
L 438.981818 167.591473 
L 456.436364 205.880866 
L 473.890909 237.962636 
L 491.345455 257.787601 
L 508.8 238.717701 
L 526.254545 153.949065 
" style="fill:none;stroke:#2e00d1;stroke-linecap:square;stroke-width:2;"/>
   </g>
   <g id="line2d_19">
    <path clip-path="url(#pdf25fec725)" d="M 107.345455 286.980939 
L 124.8 214.20071 
L 142.254545 206.939108 
L 159.709091 208.189561 
L 177.163636 206.408225 
L 194.618182 189.849597 
L 212.072727 172.470003 
L 229.527273 160.520274 
L 246.981818 147.022248 
L 264.436364 147.329313 
L 281.890909 151.971641 
L 299.345455 168.611504 
L 316.8 190.126724 
L 334.254545 201.430354 
L 351.709091 200.801246 
L 369.163636 185.920549 
L 386.618182 159.36634 
L 404.072727 141.230603 
L 421.527273 140.061384 
L 438.981818 161.274151 
L 456.436364 199.042957 
L 473.890909 234.694549 
L 491.345455 255.424824 
L 508.8 235.40231 
L 526.254545 152.295247 
" style="fill:none;stroke:#5c00a3;stroke-linecap:square;stroke-width:2;"/>
   </g>
   <g id="line2d_20">
    <path clip-path="url(#pdf25fec725)" d="M 107.345455 288.95526 
L 124.8 224.492026 
L 142.254545 217.208116 
L 159.709091 215.418868 
L 177.163636 210.655445 
L 194.618182 192.310172 
L 212.072727 177.054298 
L 229.527273 160.826236 
L 246.981818 144.778214 
L 264.436364 145.797512 
L 281.890909 150.151071 
L 299.345455 167.099877 
L 316.8 187.570172 
L 334.254545 194.3362 
L 351.709091 192.165284 
L 369.163636 176.05965 
L 386.618182 153.746393 
L 404.072727 137.539938 
L 421.527273 138.076746 
L 438.981818 160.887502 
L 456.436364 197.575363 
L 473.890909 232.376457 
L 491.345455 249.4693 
L 508.8 230.69914 
L 526.254545 149.845476 
" style="fill:none;stroke:#8a0075;stroke-linecap:square;stroke-width:2;"/>
   </g>
   <g id="line2d_21">
    <path clip-path="url(#pdf25fec725)" d="M 107.345455 280.036079 
L 124.8 211.348553 
L 142.254545 204.651124 
L 159.709091 199.473175 
L 177.163636 193.812741 
L 194.618182 174.628023 
L 212.072727 156.92679 
L 229.527273 143.510413 
L 246.981818 125.794794 
L 264.436364 126.694845 
L 281.890909 132.62872 
L 299.345455 151.510739 
L 316.8 173.316542 
L 334.254545 183.160788 
L 351.709091 183.614371 
L 369.163636 167.288627 
L 386.618182 142.746027 
L 404.072727 123.647727 
L 421.527273 124.331745 
L 438.981818 146.95132 
L 456.436364 185.558063 
L 473.890909 220.059991 
L 491.345455 238.329909 
L 508.8 220.196593 
L 526.254545 137.495072 
" style="fill:none;stroke:#ba0045;stroke-linecap:square;stroke-width:2;"/>
   </g>
   <g id="line2d_22">
    <path clip-path="url(#pdf25fec725)" d="M 107.345455 286.245209 
L 124.8 214.792798 
L 142.254545 202.961014 
L 159.709091 199.756504 
L 177.163636 191.669446 
L 194.618182 173.860492 
L 212.072727 156.526826 
L 229.527273 137.428813 
L 246.981818 119.115763 
L 264.436364 119.043862 
L 281.890909 123.004759 
L 299.345455 139.532097 
L 316.8 161.381276 
L 334.254545 172.97566 
L 351.709091 172.529295 
L 369.163636 156.50629 
L 386.618182 134.434093 
L 404.072727 114.709562 
L 421.527273 114.3064 
L 438.981818 136.810911 
L 456.436364 172.767645 
L 473.890909 209.509333 
L 491.345455 230.227898 
L 508.8 212.915837 
L 526.254545 129.372248 
" style="fill:none;stroke:#e80017;stroke-linecap:square;stroke-width:2;"/>
   </g>
   <g id="line2d_23">
    <path clip-path="url(#pdf25fec725)" d="M 107.345455 294.307524 
L 124.8 221.744529 
L 142.254545 208.125065 
L 159.709091 202.945627 
L 177.163636 195.317718 
L 194.618182 174.295224 
L 212.072727 156.491756 
L 229.527273 139.826106 
L 246.981818 121.943421 
L 264.436364 120.249455 
L 281.890909 123.049152 
L 299.345455 141.238214 
L 316.8 161.515679 
L 334.254545 173.029054 
L 351.709091 173.092225 
L 369.163636 158.356546 
L 386.618182 136.635515 
L 404.072727 121.561372 
L 421.527273 121.199661 
L 438.981818 139.943229 
L 456.436364 180.996693 
L 473.890909 215.619319 
L 491.345455 238.640511 
L 508.8 221.161104 
L 526.254545 140.150867 
" style="fill:none;stroke:#e81700;stroke-linecap:square;stroke-width:2;"/>
   </g>
   <g id="line2d_24">
    <path clip-path="url(#pdf25fec725)" d="M 107.345455 295.330909 
L 124.8 221.482709 
L 142.254545 205.325172 
L 159.709091 201.301996 
L 177.163636 192.698729 
L 194.618182 175.878658 
L 212.072727 157.229424 
L 229.527273 140.812629 
L 246.981818 123.178802 
L 264.436364 121.575296 
L 281.890909 125.048791 
L 299.345455 141.880884 
L 316.8 161.204665 
L 334.254545 171.692328 
L 351.709091 171.773959 
L 369.163636 155.407579 
L 386.618182 134.432291 
L 404.072727 116.647232 
L 421.527273 115.447008 
L 438.981818 135.260489 
L 456.436364 174.294522 
L 473.890909 211.038508 
L 491.345455 232.522718 
L 508.8 218.273546 
L 526.254545 139.067503 
" style="fill:none;stroke:#ba4500;stroke-linecap:square;stroke-width:2;"/>
   </g>
   <g id="line2d_25">
    <path clip-path="url(#pdf25fec725)" d="M 107.345455 278.868413 
L 124.8 203.878483 
L 142.254545 189.502913 
L 159.709091 185.043663 
L 177.163636 176.573236 
L 194.618182 156.616579 
L 212.072727 137.588897 
L 229.527273 119.641431 
L 246.981818 98.964636 
L 264.436364 98.365334 
L 281.890909 100.574582 
L 299.345455 120.952951 
L 316.8 142.685183 
L 334.254545 153.377677 
L 351.709091 151.993427 
L 369.163636 135.882319 
L 386.618182 114.679815 
L 404.072727 97.20044 
L 421.527273 96.349091 
L 438.981818 119.262355 
L 456.436364 158.825249 
L 473.890909 196.767829 
L 491.345455 219.076177 
L 508.8 205.075076 
L 526.254545 122.048376 
" style="fill:none;stroke:#8a7500;stroke-linecap:square;stroke-width:2;"/>
   </g>
   <g id="line2d_26">
    <path clip-path="url(#pdf25fec725)" d="M 107.345455 284.153733 
L 124.8 211.885155 
L 142.254545 197.868813 
L 159.709091 192.220487 
L 177.163636 181.430368 
L 194.618182 161.264033 
L 212.072727 140.168711 
L 229.527273 122.378839 
L 246.981818 105.057059 
L 264.436364 104.240865 
L 281.890909 107.803119 
L 299.345455 124.083027 
L 316.8 146.692959 
L 334.254545 159.09852 
L 351.709091 159.585779 
L 369.163636 145.814285 
L 386.618182 124.870197 
L 404.072727 106.734659 
L 421.527273 108.835029 
L 438.981818 131.531378 
L 456.436364 170.286828 
L 473.890909 208.386952 
L 491.345455 229.542203 
L 508.8 218.896112 
L 526.254545 137.733799 
" style="fill:none;stroke:#5ca300;stroke-linecap:square;stroke-width:2;"/>
   </g>
   <g id="line2d_27">
    <path clip-path="url(#pdf25fec725)" d="M 107.345455 283.965535 
L 124.8 208.9657 
L 142.254545 198.094326 
L 159.709091 191.98307 
L 177.163636 181.89665 
L 194.618182 162.253999 
L 212.072727 143.043431 
L 229.527273 126.360548 
L 246.981818 111.463605 
L 264.436364 111.329495 
L 281.890909 114.580026 
L 299.345455 132.074892 
L 316.8 153.645736 
L 334.254545 164.716966 
L 351.709091 166.800875 
L 369.163636 152.588064 
L 386.618182 131.577147 
L 404.072727 115.549589 
L 421.527273 117.655105 
L 438.981818 140.788646 
L 456.436364 180.95345 
L 473.890909 218.151285 
L 491.345455 239.765334 
L 508.8 224.529929 
L 526.254545 142.026239 
" style="fill:none;stroke:#2ed100;stroke-linecap:square;stroke-width:2;"/>
   </g>
   <g id="line2d_28">
    <path clip-path="url(#pdf25fec725)" d="M 107.345455 287.699496 
L 124.8 211.518347 
L 142.254545 200.034758 
L 159.709091 196.343077 
L 177.163636 187.451989 
L 194.618182 170.099259 
L 212.072727 149.225033 
L 229.527273 132.095545 
L 246.981818 114.843636 
L 264.436364 112.9379 
L 281.890909 118.060735 
L 299.345455 135.260309 
L 316.8 155.297234 
L 334.254545 165.410637 
L 351.709091 165.269249 
L 369.163636 151.430802 
L 386.618182 130.549381 
L 404.072727 111.511524 
L 421.527273 112.551162 
L 438.981818 136.512852 
L 456.436364 177.297007 
L 473.890909 215.423846 
L 491.345455 237.217916 
L 508.8 225.158212 
L 526.254545 145.08111 
" style="fill:none;stroke:#00ff00;stroke-linecap:square;stroke-width:2;"/>
   </g>
   <g id="patch_3">
    <path d="M 86.4 305.28 
L 86.4 86.4 
" style="fill:none;stroke:#000000;stroke-linecap:square;stroke-linejoin:miter;stroke-width:0.8;"/>
   </g>
   <g id="patch_4">
    <path d="M 547.2 305.28 
L 547.2 86.4 
" style="fill:none;stroke:#000000;stroke-linecap:square;stroke-linejoin:miter;stroke-width:0.8;"/>
   </g>
   <g id="patch_5">
    <path d="M 86.4 305.28 
L 547.2 305.28 
" style="fill:none;stroke:#000000;stroke-linecap:square;stroke-linejoin:miter;stroke-width:0.8;"/>
   </g>
   <g id="patch_6">
    <path d="M 86.4 86.4 
L 547.2 86.4 
" style="fill:none;stroke:#000000;stroke-linecap:square;stroke-linejoin:miter;stroke-width:0.8;"/>
   </g>
   <g id="legend_1">
    <g id="patch_7">
     <path d="M 143.664525 81.768 
L 489.935475 81.768 
Q 491.788275 81.768 491.788275 79.9152 
L 491.788275 38.26738 
Q 491.788275 36.41458 489.935475 36.41458 
L 143.664525 36.41458 
Q 141.811725 36.41458 141.811725 38.26738 
L 141.811725 79.9152 
Q 141.811725 81.768 143.664525 81.768 
z
" style="fill:#ffffff;opacity:0.8;stroke:#cccccc;stroke-linejoin:miter;"/>
    </g>
    <g id="text_10">
     <!-- Phase [mm] -->
     <defs>
      <path d="M 19.671875 64.796875 
L 19.671875 37.40625 
L 32.078125 37.40625 
Q 38.96875 37.40625 42.71875 40.96875 
Q 46.484375 44.53125 46.484375 51.125 
Q 46.484375 57.671875 42.71875 61.234375 
Q 38.96875 64.796875 32.078125 64.796875 
z
M 9.8125 72.90625 
L 32.078125 72.90625 
Q 44.34375 72.90625 50.609375 67.359375 
Q 56.890625 61.8125 56.890625 51.125 
Q 56.890625 40.328125 50.609375 34.8125 
Q 44.34375 29.296875 32.078125 29.296875 
L 19.671875 29.296875 
L 19.671875 0 
L 9.8125 0 
z
" id="DejaVuSans-80"/>
      <path d="M 54.890625 33.015625 
L 54.890625 0 
L 45.90625 0 
L 45.90625 32.71875 
Q 45.90625 40.484375 42.875 44.328125 
Q 39.84375 48.1875 33.796875 48.1875 
Q 26.515625 48.1875 22.3125 43.546875 
Q 18.109375 38.921875 18.109375 30.90625 
L 18.109375 0 
L 9.078125 0 
L 9.078125 75.984375 
L 18.109375 75.984375 
L 18.109375 46.1875 
Q 21.34375 51.125 25.703125 53.5625 
Q 30.078125 56 35.796875 56 
Q 45.21875 56 50.046875 50.171875 
Q 54.890625 44.34375 54.890625 33.015625 
z
" id="DejaVuSans-104"/>
      <path d="M 34.28125 27.484375 
Q 23.390625 27.484375 19.1875 25 
Q 14.984375 22.515625 14.984375 16.5 
Q 14.984375 11.71875 18.140625 8.90625 
Q 21.296875 6.109375 26.703125 6.109375 
Q 34.1875 6.109375 38.703125 11.40625 
Q 43.21875 16.703125 43.21875 25.484375 
L 43.21875 27.484375 
z
M 52.203125 31.203125 
L 52.203125 0 
L 43.21875 0 
L 43.21875 8.296875 
Q 40.140625 3.328125 35.546875 0.953125 
Q 30.953125 -1.421875 24.3125 -1.421875 
Q 15.921875 -1.421875 10.953125 3.296875 
Q 6 8.015625 6 15.921875 
Q 6 25.140625 12.171875 29.828125 
Q 18.359375 34.515625 30.609375 34.515625 
L 43.21875 34.515625 
L 43.21875 35.40625 
Q 43.21875 41.609375 39.140625 45 
Q 35.0625 48.390625 27.6875 48.390625 
Q 23 48.390625 18.546875 47.265625 
Q 14.109375 46.140625 10.015625 43.890625 
L 10.015625 52.203125 
Q 14.9375 54.109375 19.578125 55.046875 
Q 24.21875 56 28.609375 56 
Q 40.484375 56 46.34375 49.84375 
Q 52.203125 43.703125 52.203125 31.203125 
z
" id="DejaVuSans-97"/>
      <path d="M 44.28125 53.078125 
L 44.28125 44.578125 
Q 40.484375 46.53125 36.375 47.5 
Q 32.28125 48.484375 27.875 48.484375 
Q 21.1875 48.484375 17.84375 46.4375 
Q 14.5 44.390625 14.5 40.28125 
Q 14.5 37.15625 16.890625 35.375 
Q 19.28125 33.59375 26.515625 31.984375 
L 29.59375 31.296875 
Q 39.15625 29.25 43.1875 25.515625 
Q 47.21875 21.78125 47.21875 15.09375 
Q 47.21875 7.46875 41.1875 3.015625 
Q 35.15625 -1.421875 24.609375 -1.421875 
Q 20.21875 -1.421875 15.453125 -0.5625 
Q 10.6875 0.296875 5.421875 2 
L 5.421875 11.28125 
Q 10.40625 8.6875 15.234375 7.390625 
Q 20.0625 6.109375 24.8125 6.109375 
Q 31.15625 6.109375 34.5625 8.28125 
Q 37.984375 10.453125 37.984375 14.40625 
Q 37.984375 18.0625 35.515625 20.015625 
Q 33.0625 21.96875 24.703125 23.78125 
L 21.578125 24.515625 
Q 13.234375 26.265625 9.515625 29.90625 
Q 5.8125 33.546875 5.8125 39.890625 
Q 5.8125 47.609375 11.28125 51.796875 
Q 16.75 56 26.8125 56 
Q 31.78125 56 36.171875 55.265625 
Q 40.578125 54.546875 44.28125 53.078125 
z
" id="DejaVuSans-115"/>
      <path d="M 56.203125 29.59375 
L 56.203125 25.203125 
L 14.890625 25.203125 
Q 15.484375 15.921875 20.484375 11.0625 
Q 25.484375 6.203125 34.421875 6.203125 
Q 39.59375 6.203125 44.453125 7.46875 
Q 49.3125 8.734375 54.109375 11.28125 
L 54.109375 2.78125 
Q 49.265625 0.734375 44.1875 -0.34375 
Q 39.109375 -1.421875 33.890625 -1.421875 
Q 20.796875 -1.421875 13.15625 6.1875 
Q 5.515625 13.8125 5.515625 26.8125 
Q 5.515625 40.234375 12.765625 48.109375 
Q 20.015625 56 32.328125 56 
Q 43.359375 56 49.78125 48.890625 
Q 56.203125 41.796875 56.203125 29.59375 
z
M 47.21875 32.234375 
Q 47.125 39.59375 43.09375 43.984375 
Q 39.0625 48.390625 32.421875 48.390625 
Q 24.90625 48.390625 20.390625 44.140625 
Q 15.875 39.890625 15.1875 32.171875 
z
" id="DejaVuSans-101"/>
     </defs>
     <g transform="translate(283.310162 48.557485)scale(0.11104 -0.11104)">
      <use xlink:href="#DejaVuSans-80"/>
      <use x="60.302734" xlink:href="#DejaVuSans-104"/>
      <use x="123.681641" xlink:href="#DejaVuSans-97"/>
      <use x="184.960938" xlink:href="#DejaVuSans-115"/>
      <use x="237.060547" xlink:href="#DejaVuSans-101"/>
      <use x="298.583984" xlink:href="#DejaVuSans-32"/>
      <use x="330.371094" xlink:href="#DejaVuSans-91"/>
      <use x="369.384766" xlink:href="#DejaVuSans-109"/>
      <use x="466.796875" xlink:href="#DejaVuSans-109"/>
      <use x="564.208984" xlink:href="#DejaVuSans-93"/>
     </g>
    </g>
    <g id="line2d_29">
     <path d="M 145.517325 59.295563 
L 164.045325 59.295563 
" style="fill:none;stroke:#0000ff;stroke-linecap:square;stroke-width:2;"/>
    </g>
    <g id="line2d_30"/>
    <g id="text_11">
     <!-- 0.0 -->
     <g transform="translate(171.456525 62.537963)scale(0.09264 -0.09264)">
      <use xlink:href="#DejaVuSans-48"/>
      <use x="63.623047" xlink:href="#DejaVuSans-46"/>
      <use x="95.410156" xlink:href="#DejaVuSans-48"/>
     </g>
    </g>
    <g id="line2d_31">
     <path d="M 145.517325 72.893378 
L 164.045325 72.893378 
" style="fill:none;stroke:#2e00d1;stroke-linecap:square;stroke-width:2;"/>
    </g>
    <g id="line2d_32"/>
    <g id="text_12">
     <!-- 1.0 -->
     <g transform="translate(171.456525 76.135778)scale(0.09264 -0.09264)">
      <use xlink:href="#DejaVuSans-49"/>
      <use x="63.623047" xlink:href="#DejaVuSans-46"/>
      <use x="95.410156" xlink:href="#DejaVuSans-48"/>
     </g>
    </g>
    <g id="line2d_33">
     <path d="M 204.71718 59.295563 
L 223.24518 59.295563 
" style="fill:none;stroke:#5c00a3;stroke-linecap:square;stroke-width:2;"/>
    </g>
    <g id="line2d_34"/>
    <g id="text_13">
     <!-- 2.0 -->
     <g transform="translate(230.65638 62.537963)scale(0.09264 -0.09264)">
      <use xlink:href="#DejaVuSans-50"/>
      <use x="63.623047" xlink:href="#DejaVuSans-46"/>
      <use x="95.410156" xlink:href="#DejaVuSans-48"/>
     </g>
    </g>
    <g id="line2d_35">
     <path d="M 204.71718 72.893378 
L 223.24518 72.893378 
" style="fill:none;stroke:#8a0075;stroke-linecap:square;stroke-width:2;"/>
    </g>
    <g id="line2d_36"/>
    <g id="text_14">
     <!-- 3.0 -->
     <defs>
      <path d="M 40.578125 39.3125 
Q 47.65625 37.796875 51.625 33 
Q 55.609375 28.21875 55.609375 21.1875 
Q 55.609375 10.40625 48.1875 4.484375 
Q 40.765625 -1.421875 27.09375 -1.421875 
Q 22.515625 -1.421875 17.65625 -0.515625 
Q 12.796875 0.390625 7.625 2.203125 
L 7.625 11.71875 
Q 11.71875 9.328125 16.59375 8.109375 
Q 21.484375 6.890625 26.8125 6.890625 
Q 36.078125 6.890625 40.9375 10.546875 
Q 45.796875 14.203125 45.796875 21.1875 
Q 45.796875 27.640625 41.28125 31.265625 
Q 36.765625 34.90625 28.71875 34.90625 
L 20.21875 34.90625 
L 20.21875 43.015625 
L 29.109375 43.015625 
Q 36.375 43.015625 40.234375 45.921875 
Q 44.09375 48.828125 44.09375 54.296875 
Q 44.09375 59.90625 40.109375 62.90625 
Q 36.140625 65.921875 28.71875 65.921875 
Q 24.65625 65.921875 20.015625 65.03125 
Q 15.375 64.15625 9.8125 62.3125 
L 9.8125 71.09375 
Q 15.4375 72.65625 20.34375 73.4375 
Q 25.25 74.21875 29.59375 74.21875 
Q 40.828125 74.21875 47.359375 69.109375 
Q 53.90625 64.015625 53.90625 55.328125 
Q 53.90625 49.265625 50.4375 45.09375 
Q 46.96875 40.921875 40.578125 39.3125 
z
" id="DejaVuSans-51"/>
     </defs>
     <g transform="translate(230.65638 76.135778)scale(0.09264 -0.09264)">
      <use xlink:href="#DejaVuSans-51"/>
      <use x="63.623047" xlink:href="#DejaVuSans-46"/>
      <use x="95.410156" xlink:href="#DejaVuSans-48"/>
     </g>
    </g>
    <g id="line2d_37">
     <path d="M 263.917035 59.295563 
L 282.445035 59.295563 
" style="fill:none;stroke:#ba0045;stroke-linecap:square;stroke-width:2;"/>
    </g>
    <g id="line2d_38"/>
    <g id="text_15">
     <!-- 4.0 -->
     <defs>
      <path d="M 37.796875 64.3125 
L 12.890625 25.390625 
L 37.796875 25.390625 
z
M 35.203125 72.90625 
L 47.609375 72.90625 
L 47.609375 25.390625 
L 58.015625 25.390625 
L 58.015625 17.1875 
L 47.609375 17.1875 
L 47.609375 0 
L 37.796875 0 
L 37.796875 17.1875 
L 4.890625 17.1875 
L 4.890625 26.703125 
z
" id="DejaVuSans-52"/>
     </defs>
     <g transform="translate(289.856235 62.537963)scale(0.09264 -0.09264)">
      <use xlink:href="#DejaVuSans-52"/>
      <use x="63.623047" xlink:href="#DejaVuSans-46"/>
      <use x="95.410156" xlink:href="#DejaVuSans-48"/>
     </g>
    </g>
    <g id="line2d_39">
     <path d="M 263.917035 72.893378 
L 282.445035 72.893378 
" style="fill:none;stroke:#e80017;stroke-linecap:square;stroke-width:2;"/>
    </g>
    <g id="line2d_40"/>
    <g id="text_16">
     <!-- 5.0 -->
     <g transform="translate(289.856235 76.135778)scale(0.09264 -0.09264)">
      <use xlink:href="#DejaVuSans-53"/>
      <use x="63.623047" xlink:href="#DejaVuSans-46"/>
      <use x="95.410156" xlink:href="#DejaVuSans-48"/>
     </g>
    </g>
    <g id="line2d_41">
     <path d="M 323.11689 59.295563 
L 341.64489 59.295563 
" style="fill:none;stroke:#e81700;stroke-linecap:square;stroke-width:2;"/>
    </g>
    <g id="line2d_42"/>
    <g id="text_17">
     <!-- 6.0 -->
     <defs>
      <path d="M 33.015625 40.375 
Q 26.375 40.375 22.484375 35.828125 
Q 18.609375 31.296875 18.609375 23.390625 
Q 18.609375 15.53125 22.484375 10.953125 
Q 26.375 6.390625 33.015625 6.390625 
Q 39.65625 6.390625 43.53125 10.953125 
Q 47.40625 15.53125 47.40625 23.390625 
Q 47.40625 31.296875 43.53125 35.828125 
Q 39.65625 40.375 33.015625 40.375 
z
M 52.59375 71.296875 
L 52.59375 62.3125 
Q 48.875 64.0625 45.09375 64.984375 
Q 41.3125 65.921875 37.59375 65.921875 
Q 27.828125 65.921875 22.671875 59.328125 
Q 17.53125 52.734375 16.796875 39.40625 
Q 19.671875 43.65625 24.015625 45.921875 
Q 28.375 48.1875 33.59375 48.1875 
Q 44.578125 48.1875 50.953125 41.515625 
Q 57.328125 34.859375 57.328125 23.390625 
Q 57.328125 12.15625 50.6875 5.359375 
Q 44.046875 -1.421875 33.015625 -1.421875 
Q 20.359375 -1.421875 13.671875 8.265625 
Q 6.984375 17.96875 6.984375 36.375 
Q 6.984375 53.65625 15.1875 63.9375 
Q 23.390625 74.21875 37.203125 74.21875 
Q 40.921875 74.21875 44.703125 73.484375 
Q 48.484375 72.75 52.59375 71.296875 
z
" id="DejaVuSans-54"/>
     </defs>
     <g transform="translate(349.05609 62.537963)scale(0.09264 -0.09264)">
      <use xlink:href="#DejaVuSans-54"/>
      <use x="63.623047" xlink:href="#DejaVuSans-46"/>
      <use x="95.410156" xlink:href="#DejaVuSans-48"/>
     </g>
    </g>
    <g id="line2d_43">
     <path d="M 323.11689 72.893378 
L 341.64489 72.893378 
" style="fill:none;stroke:#ba4500;stroke-linecap:square;stroke-width:2;"/>
    </g>
    <g id="line2d_44"/>
    <g id="text_18">
     <!-- 7.0 -->
     <defs>
      <path d="M 8.203125 72.90625 
L 55.078125 72.90625 
L 55.078125 68.703125 
L 28.609375 0 
L 18.3125 0 
L 43.21875 64.59375 
L 8.203125 64.59375 
z
" id="DejaVuSans-55"/>
     </defs>
     <g transform="translate(349.05609 76.135778)scale(0.09264 -0.09264)">
      <use xlink:href="#DejaVuSans-55"/>
      <use x="63.623047" xlink:href="#DejaVuSans-46"/>
      <use x="95.410156" xlink:href="#DejaVuSans-48"/>
     </g>
    </g>
    <g id="line2d_45">
     <path d="M 382.316745 59.295563 
L 400.844745 59.295563 
" style="fill:none;stroke:#8a7500;stroke-linecap:square;stroke-width:2;"/>
    </g>
    <g id="line2d_46"/>
    <g id="text_19">
     <!-- 8.0 -->
     <defs>
      <path d="M 31.78125 34.625 
Q 24.75 34.625 20.71875 30.859375 
Q 16.703125 27.09375 16.703125 20.515625 
Q 16.703125 13.921875 20.71875 10.15625 
Q 24.75 6.390625 31.78125 6.390625 
Q 38.8125 6.390625 42.859375 10.171875 
Q 46.921875 13.96875 46.921875 20.515625 
Q 46.921875 27.09375 42.890625 30.859375 
Q 38.875 34.625 31.78125 34.625 
z
M 21.921875 38.8125 
Q 15.578125 40.375 12.03125 44.71875 
Q 8.5 49.078125 8.5 55.328125 
Q 8.5 64.0625 14.71875 69.140625 
Q 20.953125 74.21875 31.78125 74.21875 
Q 42.671875 74.21875 48.875 69.140625 
Q 55.078125 64.0625 55.078125 55.328125 
Q 55.078125 49.078125 51.53125 44.71875 
Q 48 40.375 41.703125 38.8125 
Q 48.828125 37.15625 52.796875 32.3125 
Q 56.78125 27.484375 56.78125 20.515625 
Q 56.78125 9.90625 50.3125 4.234375 
Q 43.84375 -1.421875 31.78125 -1.421875 
Q 19.734375 -1.421875 13.25 4.234375 
Q 6.78125 9.90625 6.78125 20.515625 
Q 6.78125 27.484375 10.78125 32.3125 
Q 14.796875 37.15625 21.921875 38.8125 
z
M 18.3125 54.390625 
Q 18.3125 48.734375 21.84375 45.5625 
Q 25.390625 42.390625 31.78125 42.390625 
Q 38.140625 42.390625 41.71875 45.5625 
Q 45.3125 48.734375 45.3125 54.390625 
Q 45.3125 60.0625 41.71875 63.234375 
Q 38.140625 66.40625 31.78125 66.40625 
Q 25.390625 66.40625 21.84375 63.234375 
Q 18.3125 60.0625 18.3125 54.390625 
z
" id="DejaVuSans-56"/>
     </defs>
     <g transform="translate(408.255945 62.537963)scale(0.09264 -0.09264)">
      <use xlink:href="#DejaVuSans-56"/>
      <use x="63.623047" xlink:href="#DejaVuSans-46"/>
      <use x="95.410156" xlink:href="#DejaVuSans-48"/>
     </g>
    </g>
    <g id="line2d_47">
     <path d="M 382.316745 72.893378 
L 400.844745 72.893378 
" style="fill:none;stroke:#5ca300;stroke-linecap:square;stroke-width:2;"/>
    </g>
    <g id="line2d_48"/>
    <g id="text_20">
     <!-- 9.0 -->
     <defs>
      <path d="M 10.984375 1.515625 
L 10.984375 10.5 
Q 14.703125 8.734375 18.5 7.8125 
Q 22.3125 6.890625 25.984375 6.890625 
Q 35.75 6.890625 40.890625 13.453125 
Q 46.046875 20.015625 46.78125 33.40625 
Q 43.953125 29.203125 39.59375 26.953125 
Q 35.25 24.703125 29.984375 24.703125 
Q 19.046875 24.703125 12.671875 31.3125 
Q 6.296875 37.9375 6.296875 49.421875 
Q 6.296875 60.640625 12.9375 67.421875 
Q 19.578125 74.21875 30.609375 74.21875 
Q 43.265625 74.21875 49.921875 64.515625 
Q 56.59375 54.828125 56.59375 36.375 
Q 56.59375 19.140625 48.40625 8.859375 
Q 40.234375 -1.421875 26.421875 -1.421875 
Q 22.703125 -1.421875 18.890625 -0.6875 
Q 15.09375 0.046875 10.984375 1.515625 
z
M 30.609375 32.421875 
Q 37.25 32.421875 41.125 36.953125 
Q 45.015625 41.5 45.015625 49.421875 
Q 45.015625 57.28125 41.125 61.84375 
Q 37.25 66.40625 30.609375 66.40625 
Q 23.96875 66.40625 20.09375 61.84375 
Q 16.21875 57.28125 16.21875 49.421875 
Q 16.21875 41.5 20.09375 36.953125 
Q 23.96875 32.421875 30.609375 32.421875 
z
" id="DejaVuSans-57"/>
     </defs>
     <g transform="translate(408.255945 76.135778)scale(0.09264 -0.09264)">
      <use xlink:href="#DejaVuSans-57"/>
      <use x="63.623047" xlink:href="#DejaVuSans-46"/>
      <use x="95.410156" xlink:href="#DejaVuSans-48"/>
     </g>
    </g>
    <g id="line2d_49">
     <path d="M 441.5166 59.295563 
L 460.0446 59.295563 
" style="fill:none;stroke:#2ed100;stroke-linecap:square;stroke-width:2;"/>
    </g>
    <g id="line2d_50"/>
    <g id="text_21">
     <!-- 10.0 -->
     <g transform="translate(467.4558 62.537963)scale(0.09264 -0.09264)">
      <use xlink:href="#DejaVuSans-49"/>
      <use x="63.623047" xlink:href="#DejaVuSans-48"/>
      <use x="127.246094" xlink:href="#DejaVuSans-46"/>
      <use x="159.033203" xlink:href="#DejaVuSans-48"/>
     </g>
    </g>
    <g id="line2d_51">
     <path d="M 441.5166 72.893378 
L 460.0446 72.893378 
" style="fill:none;stroke:#00ff00;stroke-linecap:square;stroke-width:2;"/>
    </g>
    <g id="line2d_52"/>
    <g id="text_22">
     <!-- 11.0 -->
     <g transform="translate(467.4558 76.135778)scale(0.09264 -0.09264)">
      <use xlink:href="#DejaVuSans-49"/>
      <use x="63.623047" xlink:href="#DejaVuSans-49"/>
      <use x="127.246094" xlink:href="#DejaVuSans-46"/>
      <use x="159.033203" xlink:href="#DejaVuSans-48"/>
     </g>
    </g>
   </g>
  </g>
  <g id="axes_2">
   <g id="patch_8">
    <path d="M 86.4 524.16 
L 547.2 524.16 
L 547.2 305.28 
L 86.4 305.28 
z
" style="fill:#ffffff;"/>
   </g>
   <g id="matplotlib.axis_3">
    <g id="xtick_6">
     <g id="line2d_53">
      <path clip-path="url(#p938131b011)" d="M 142.254545 524.16 
L 142.254545 305.28 
" style="fill:none;stroke:#b0b0b0;stroke-linecap:square;stroke-width:0.8;"/>
     </g>
     <g id="line2d_54">
      <g>
       <use style="stroke:#000000;stroke-width:0.8;" x="142.254545" xlink:href="#m6f46e07ce6" y="524.16"/>
      </g>
     </g>
     <g id="text_23">
      <!-- −10 -->
      <g transform="translate(125.370795 543.3175)scale(0.16 -0.16)">
       <use xlink:href="#DejaVuSans-8722"/>
       <use x="83.789062" xlink:href="#DejaVuSans-49"/>
       <use x="147.412109" xlink:href="#DejaVuSans-48"/>
      </g>
     </g>
    </g>
    <g id="xtick_7">
     <g id="line2d_55">
      <path clip-path="url(#p938131b011)" d="M 229.527273 524.16 
L 229.527273 305.28 
" style="fill:none;stroke:#b0b0b0;stroke-linecap:square;stroke-width:0.8;"/>
     </g>
     <g id="line2d_56">
      <g>
       <use style="stroke:#000000;stroke-width:0.8;" x="229.527273" xlink:href="#m6f46e07ce6" y="524.16"/>
      </g>
     </g>
     <g id="text_24">
      <!-- −5 -->
      <g transform="translate(217.733523 543.3175)scale(0.16 -0.16)">
       <use xlink:href="#DejaVuSans-8722"/>
       <use x="83.789062" xlink:href="#DejaVuSans-53"/>
      </g>
     </g>
    </g>
    <g id="xtick_8">
     <g id="line2d_57">
      <path clip-path="url(#p938131b011)" d="M 316.8 524.16 
L 316.8 305.28 
" style="fill:none;stroke:#b0b0b0;stroke-linecap:square;stroke-width:0.8;"/>
     </g>
     <g id="line2d_58">
      <g>
       <use style="stroke:#000000;stroke-width:0.8;" x="316.8" xlink:href="#m6f46e07ce6" y="524.16"/>
      </g>
     </g>
     <g id="text_25">
      <!-- 0 -->
      <g transform="translate(311.71 543.3175)scale(0.16 -0.16)">
       <use xlink:href="#DejaVuSans-48"/>
      </g>
     </g>
    </g>
    <g id="xtick_9">
     <g id="line2d_59">
      <path clip-path="url(#p938131b011)" d="M 404.072727 524.16 
L 404.072727 305.28 
" style="fill:none;stroke:#b0b0b0;stroke-linecap:square;stroke-width:0.8;"/>
     </g>
     <g id="line2d_60">
      <g>
       <use style="stroke:#000000;stroke-width:0.8;" x="404.072727" xlink:href="#m6f46e07ce6" y="524.16"/>
      </g>
     </g>
     <g id="text_26">
      <!-- 5 -->
      <g transform="translate(398.982727 543.3175)scale(0.16 -0.16)">
       <use xlink:href="#DejaVuSans-53"/>
      </g>
     </g>
    </g>
    <g id="xtick_10">
     <g id="line2d_61">
      <path clip-path="url(#p938131b011)" d="M 491.345455 524.16 
L 491.345455 305.28 
" style="fill:none;stroke:#b0b0b0;stroke-linecap:square;stroke-width:0.8;"/>
     </g>
     <g id="line2d_62">
      <g>
       <use style="stroke:#000000;stroke-width:0.8;" x="491.345455" xlink:href="#m6f46e07ce6" y="524.16"/>
      </g>
     </g>
     <g id="text_27">
      <!-- 10 -->
      <g transform="translate(481.165455 543.3175)scale(0.16 -0.16)">
       <use xlink:href="#DejaVuSans-49"/>
       <use x="63.623047" xlink:href="#DejaVuSans-48"/>
      </g>
     </g>
    </g>
    <g id="text_28">
     <!-- x [mm] -->
     <defs>
      <path d="M 54.890625 54.6875 
L 35.109375 28.078125 
L 55.90625 0 
L 45.3125 0 
L 29.390625 21.484375 
L 13.484375 0 
L 2.875 0 
L 24.125 28.609375 
L 4.6875 54.6875 
L 15.28125 54.6875 
L 29.78125 35.203125 
L 44.28125 54.6875 
z
" id="DejaVuSans-120"/>
     </defs>
     <g transform="translate(287.695 562.8025)scale(0.16 -0.16)">
      <use xlink:href="#DejaVuSans-120"/>
      <use x="59.179688" xlink:href="#DejaVuSans-32"/>
      <use x="90.966797" xlink:href="#DejaVuSans-91"/>
      <use x="129.980469" xlink:href="#DejaVuSans-109"/>
      <use x="227.392578" xlink:href="#DejaVuSans-109"/>
      <use x="324.804688" xlink:href="#DejaVuSans-93"/>
     </g>
    </g>
   </g>
   <g id="matplotlib.axis_4">
    <g id="ytick_4">
     <g id="line2d_63">
      <path clip-path="url(#p938131b011)" d="M 86.4 482.669746 
L 547.2 482.669746 
" style="fill:none;stroke:#b0b0b0;stroke-linecap:square;stroke-width:0.8;"/>
     </g>
     <g id="line2d_64">
      <g>
       <use style="stroke:#000000;stroke-width:0.8;" x="86.4" xlink:href="#mb74b7786dc" y="482.669746"/>
      </g>
     </g>
     <g id="text_29">
      <!-- 0 -->
      <g transform="translate(69.22 488.748496)scale(0.16 -0.16)">
       <use xlink:href="#DejaVuSans-48"/>
      </g>
     </g>
    </g>
    <g id="ytick_5">
     <g id="line2d_65">
      <path clip-path="url(#p938131b011)" d="M 86.4 437.183585 
L 547.2 437.183585 
" style="fill:none;stroke:#b0b0b0;stroke-linecap:square;stroke-width:0.8;"/>
     </g>
     <g id="line2d_66">
      <g>
       <use style="stroke:#000000;stroke-width:0.8;" x="86.4" xlink:href="#mb74b7786dc" y="437.183585"/>
      </g>
     </g>
     <g id="text_30">
      <!-- 10 -->
      <g transform="translate(59.04 443.262335)scale(0.16 -0.16)">
       <use xlink:href="#DejaVuSans-49"/>
       <use x="63.623047" xlink:href="#DejaVuSans-48"/>
      </g>
     </g>
    </g>
    <g id="ytick_6">
     <g id="line2d_67">
      <path clip-path="url(#p938131b011)" d="M 86.4 391.697423 
L 547.2 391.697423 
" style="fill:none;stroke:#b0b0b0;stroke-linecap:square;stroke-width:0.8;"/>
     </g>
     <g id="line2d_68">
      <g>
       <use style="stroke:#000000;stroke-width:0.8;" x="86.4" xlink:href="#mb74b7786dc" y="391.697423"/>
      </g>
     </g>
     <g id="text_31">
      <!-- 20 -->
      <g transform="translate(59.04 397.776173)scale(0.16 -0.16)">
       <use xlink:href="#DejaVuSans-50"/>
       <use x="63.623047" xlink:href="#DejaVuSans-48"/>
      </g>
     </g>
    </g>
    <g id="ytick_7">
     <g id="line2d_69">
      <path clip-path="url(#p938131b011)" d="M 86.4 346.211261 
L 547.2 346.211261 
" style="fill:none;stroke:#b0b0b0;stroke-linecap:square;stroke-width:0.8;"/>
     </g>
     <g id="line2d_70">
      <g>
       <use style="stroke:#000000;stroke-width:0.8;" x="86.4" xlink:href="#mb74b7786dc" y="346.211261"/>
      </g>
     </g>
     <g id="text_32">
      <!-- 30 -->
      <g transform="translate(59.04 352.290011)scale(0.16 -0.16)">
       <use xlink:href="#DejaVuSans-51"/>
       <use x="63.623047" xlink:href="#DejaVuSans-48"/>
      </g>
     </g>
    </g>
    <g id="text_33">
     <!-- Ix [G.cm] -->
     <g transform="translate(51.7125 451.5325)rotate(-90)scale(0.16 -0.16)">
      <use xlink:href="#DejaVuSans-73"/>
      <use x="29.492188" xlink:href="#DejaVuSans-120"/>
      <use x="88.671875" xlink:href="#DejaVuSans-32"/>
      <use x="120.458984" xlink:href="#DejaVuSans-91"/>
      <use x="159.472656" xlink:href="#DejaVuSans-71"/>
      <use x="236.962891" xlink:href="#DejaVuSans-46"/>
      <use x="268.75" xlink:href="#DejaVuSans-99"/>
      <use x="323.730469" xlink:href="#DejaVuSans-109"/>
      <use x="421.142578" xlink:href="#DejaVuSans-93"/>
     </g>
    </g>
   </g>
   <g id="line2d_71">
    <path clip-path="url(#p938131b011)" d="M 107.345455 351.209598 
L 124.8 387.52125 
L 142.254545 440.444631 
L 159.709091 454.687989 
L 177.163636 424.959619 
L 194.618182 423.38988 
L 212.072727 462.164423 
L 229.527273 475.51639 
L 246.981818 441.269274 
L 264.436364 409.752951 
L 281.890909 406.936301 
L 299.345455 420.144016 
L 316.8 417.028498 
L 334.254545 413.274088 
L 351.709091 437.90495 
L 369.163636 484.588625 
L 386.618182 495.611686 
L 404.072727 466.94987 
L 421.527273 409.366864 
L 438.981818 365.360815 
L 456.436364 362.075261 
L 473.890909 384.748191 
L 491.345455 405.47342 
L 508.8 416.079095 
L 526.254545 432.321672 
" style="fill:none;stroke:#0000ff;stroke-linecap:square;stroke-width:2;"/>
   </g>
   <g id="line2d_72">
    <path clip-path="url(#p938131b011)" d="M 107.345455 364.894035 
L 124.8 402.281862 
L 142.254545 454.364671 
L 159.709091 464.140102 
L 177.163636 435.900156 
L 194.618182 432.778829 
L 212.072727 472.361615 
L 229.527273 484.033173 
L 246.981818 447.698618 
L 264.436364 416.995738 
L 281.890909 409.943035 
L 299.345455 423.361315 
L 316.8 421.03861 
L 334.254545 416.253018 
L 351.709091 442.882364 
L 369.163636 488.555437 
L 386.618182 499.433539 
L 404.072727 470.760758 
L 421.527273 414.284905 
L 438.981818 369.902068 
L 456.436364 368.094612 
L 473.890909 388.34516 
L 491.345455 408.667801 
L 508.8 419.411909 
L 526.254545 435.324032 
" style="fill:none;stroke:#2e00d1;stroke-linecap:square;stroke-width:2;"/>
   </g>
   <g id="line2d_73">
    <path clip-path="url(#p938131b011)" d="M 107.345455 370.450513 
L 124.8 407.728488 
L 142.254545 459.809618 
L 159.709091 469.124903 
L 177.163636 440.352773 
L 194.618182 436.024215 
L 212.072727 475.296202 
L 229.527273 487.800891 
L 246.981818 452.959107 
L 264.436364 420.719311 
L 281.890909 416.050688 
L 299.345455 428.071051 
L 316.8 424.772983 
L 334.254545 422.01079 
L 351.709091 446.520836 
L 369.163636 492.63536 
L 386.618182 502.424696 
L 404.072727 473.410381 
L 421.527273 414.573263 
L 438.981818 367.427232 
L 456.436364 363.758182 
L 473.890909 382.36862 
L 491.345455 400.644118 
L 508.8 409.82544 
L 526.254545 424.355089 
" style="fill:none;stroke:#5c00a3;stroke-linecap:square;stroke-width:2;"/>
   </g>
   <g id="line2d_74">
    <path clip-path="url(#p938131b011)" d="M 107.345455 380.892141 
L 124.8 414.716886 
L 142.254545 464.050715 
L 159.709091 471.324477 
L 177.163636 439.614165 
L 194.618182 435.413262 
L 212.072727 474.673906 
L 229.527273 485.636874 
L 246.981818 448.516426 
L 264.436364 416.388739 
L 281.890909 411.507704 
L 299.345455 423.63516 
L 316.8 421.299452 
L 334.254545 418.644308 
L 351.709091 444.194087 
L 369.163636 490.230305 
L 386.618182 499.425991 
L 404.072727 469.740606 
L 421.527273 408.66082 
L 438.981818 362.121511 
L 456.436364 357.194079 
L 473.890909 374.309201 
L 491.345455 392.032278 
L 508.8 400.496275 
L 526.254545 415.771947 
" style="fill:none;stroke:#8a0075;stroke-linecap:square;stroke-width:2;"/>
   </g>
   <g id="line2d_75">
    <path clip-path="url(#p938131b011)" d="M 107.345455 376.586075 
L 124.8 408.500477 
L 142.254545 456.037324 
L 159.709091 465.749465 
L 177.163636 435.426404 
L 194.618182 427.666332 
L 212.072727 465.361854 
L 229.527273 478.108831 
L 246.981818 442.803294 
L 264.436364 408.894042 
L 281.890909 401.72136 
L 299.345455 412.979274 
L 316.8 409.3309 
L 334.254545 405.249736 
L 351.709091 430.66679 
L 369.163636 476.230223 
L 386.618182 486.261854 
L 404.072727 455.691448 
L 421.527273 395.828868 
L 438.981818 347.817143 
L 456.436364 341.994399 
L 473.890909 356.266564 
L 491.345455 373.542607 
L 508.8 381.688381 
L 526.254545 395.012483 
" style="fill:none;stroke:#ba0045;stroke-linecap:square;stroke-width:2;"/>
   </g>
   <g id="line2d_76">
    <path clip-path="url(#p938131b011)" d="M 107.345455 390.428261 
L 124.8 425.370984 
L 142.254545 474.570705 
L 159.709091 479.793701 
L 177.163636 448.480142 
L 194.618182 443.738178 
L 212.072727 478.449026 
L 229.527273 485.423875 
L 246.981818 447.983982 
L 264.436364 415.217393 
L 281.890909 408.491711 
L 299.345455 420.093533 
L 316.8 415.634943 
L 334.254545 410.759015 
L 351.709091 434.495008 
L 369.163636 475.821688 
L 386.618182 486.032343 
L 404.072727 454.378698 
L 421.527273 390.970026 
L 438.981818 339.015437 
L 456.436364 331.011914 
L 473.890909 346.235969 
L 491.345455 361.011725 
L 508.8 370.650428 
L 526.254545 385.178895 
" style="fill:none;stroke:#e80017;stroke-linecap:square;stroke-width:2;"/>
   </g>
   <g id="line2d_77">
    <path clip-path="url(#p938131b011)" d="M 107.345455 400.337033 
L 124.8 433.52911 
L 142.254545 479.411813 
L 159.709091 486.145728 
L 177.163636 453.61228 
L 194.618182 450.324565 
L 212.072727 485.510655 
L 229.527273 494.166455 
L 246.981818 454.898677 
L 264.436364 418.89241 
L 281.890909 412.358612 
L 299.345455 421.308117 
L 316.8 416.273687 
L 334.254545 411.095001 
L 351.709091 435.254718 
L 369.163636 478.241712 
L 386.618182 484.754089 
L 404.072727 452.086659 
L 421.527273 389.142998 
L 438.981818 338.982764 
L 456.436364 329.455342 
L 473.890909 343.026663 
L 491.345455 355.933283 
L 508.8 362.38381 
L 526.254545 376.099403 
" style="fill:none;stroke:#e81700;stroke-linecap:square;stroke-width:2;"/>
   </g>
   <g id="line2d_78">
    <path clip-path="url(#p938131b011)" d="M 107.345455 401.956099 
L 124.8 434.002531 
L 142.254545 482.032057 
L 159.709091 490.917911 
L 177.163636 459.933524 
L 194.618182 450.888626 
L 212.072727 486.52635 
L 229.527273 497.720529 
L 246.981818 461.892789 
L 264.436364 427.780798 
L 281.890909 417.684787 
L 299.345455 428.456473 
L 316.8 423.755132 
L 334.254545 417.79144 
L 351.709091 442.016343 
L 369.163636 487.433547 
L 386.618182 496.180307 
L 404.072727 464.335429 
L 421.527273 402.482227 
L 438.981818 351.016535 
L 456.436364 341.914942 
L 473.890909 353.815045 
L 491.345455 367.745207 
L 508.8 373.987821 
L 526.254545 385.20264 
" style="fill:none;stroke:#ba4500;stroke-linecap:square;stroke-width:2;"/>
   </g>
   <g id="line2d_79">
    <path clip-path="url(#p938131b011)" d="M 107.345455 379.659476 
L 124.8 415.416424 
L 142.254545 462.431605 
L 159.709091 469.004693 
L 177.163636 435.630259 
L 194.618182 431.800425 
L 212.072727 466.87723 
L 229.527273 476.356334 
L 246.981818 440.725118 
L 264.436364 405.495758 
L 281.890909 397.981876 
L 299.345455 409.027357 
L 316.8 405.140832 
L 334.254545 399.662194 
L 351.709091 426.160065 
L 369.163636 470.459874 
L 386.618182 477.800709 
L 404.072727 446.255406 
L 421.527273 383.743418 
L 438.981818 333.860287 
L 456.436364 326.69676 
L 473.890909 342.518638 
L 491.345455 359.541022 
L 508.8 369.581754 
L 526.254545 383.569338 
" style="fill:none;stroke:#8a7500;stroke-linecap:square;stroke-width:2;"/>
   </g>
   <g id="line2d_80">
    <path clip-path="url(#p938131b011)" d="M 107.345455 357.868321 
L 124.8 394.923949 
L 142.254545 443.067802 
L 159.709091 452.237911 
L 177.163636 419.38391 
L 194.618182 416.82687 
L 212.072727 454.114343 
L 229.527273 465.515496 
L 246.981818 430.600512 
L 264.436364 397.282761 
L 281.890909 391.453865 
L 299.345455 403.092054 
L 316.8 401.050245 
L 334.254545 398.204666 
L 351.709091 425.212847 
L 369.163636 471.682132 
L 386.618182 483.650103 
L 404.072727 454.212216 
L 421.527273 393.792105 
L 438.981818 344.903398 
L 456.436364 340.445049 
L 473.890909 355.674575 
L 491.345455 373.423641 
L 508.8 383.531513 
L 526.254545 399.224769 
" style="fill:none;stroke:#5ca300;stroke-linecap:square;stroke-width:2;"/>
   </g>
   <g id="line2d_81">
    <path clip-path="url(#p938131b011)" d="M 107.345455 331.738 
L 124.8 369.902391 
L 142.254545 419.242571 
L 159.709091 431.077611 
L 177.163636 405.417772 
L 194.618182 404.505502 
L 212.072727 446.292099 
L 229.527273 461.723591 
L 246.981818 429.664336 
L 264.436364 399.897917 
L 281.890909 396.07963 
L 299.345455 411.021644 
L 316.8 410.099056 
L 334.254545 409.470175 
L 351.709091 435.850763 
L 369.163636 483.06811 
L 386.618182 496.855973 
L 404.072727 468.568327 
L 421.527273 409.72106 
L 438.981818 361.328277 
L 456.436364 356.031204 
L 473.890909 374.966429 
L 491.345455 396.529408 
L 508.8 409.364036 
L 526.254545 427.042049 
" style="fill:none;stroke:#2ed100;stroke-linecap:square;stroke-width:2;"/>
   </g>
   <g id="line2d_82">
    <path clip-path="url(#p938131b011)" d="M 107.345455 315.229091 
L 124.8 352.194681 
L 142.254545 406.683973 
L 159.709091 421.333991 
L 177.163636 395.325441 
L 194.618182 397.063255 
L 212.072727 439.624468 
L 229.527273 455.078277 
L 246.981818 425.27749 
L 264.436364 397.341875 
L 281.890909 397.023835 
L 299.345455 414.337717 
L 316.8 415.761213 
L 334.254545 418.096721 
L 351.709091 447.637524 
L 369.163636 498.550972 
L 386.618182 514.210909 
L 404.072727 488.867017 
L 421.527273 431.61866 
L 438.981818 387.632932 
L 456.436364 385.995829 
L 473.890909 408.173705 
L 491.345455 431.222323 
L 508.8 446.629762 
L 526.254545 464.324949 
" style="fill:none;stroke:#00ff00;stroke-linecap:square;stroke-width:2;"/>
   </g>
   <g id="patch_9">
    <path d="M 86.4 524.16 
L 86.4 305.28 
" style="fill:none;stroke:#000000;stroke-linecap:square;stroke-linejoin:miter;stroke-width:0.8;"/>
   </g>
   <g id="patch_10">
    <path d="M 547.2 524.16 
L 547.2 305.28 
" style="fill:none;stroke:#000000;stroke-linecap:square;stroke-linejoin:miter;stroke-width:0.8;"/>
   </g>
   <g id="patch_11">
    <path d="M 86.4 524.16 
L 547.2 524.16 
" style="fill:none;stroke:#000000;stroke-linecap:square;stroke-linejoin:miter;stroke-width:0.8;"/>
   </g>
   <g id="patch_12">
    <path d="M 86.4 305.28 
L 547.2 305.28 
" style="fill:none;stroke:#000000;stroke-linecap:square;stroke-linejoin:miter;stroke-width:0.8;"/>
   </g>
  </g>
  <g id="text_34">
   <!-- Integrals (Coil) for 1991b @ y=-01.0 -->
   <defs>
    <path d="M 54.890625 33.015625 
L 54.890625 0 
L 45.90625 0 
L 45.90625 32.71875 
Q 45.90625 40.484375 42.875 44.328125 
Q 39.84375 48.1875 33.796875 48.1875 
Q 26.515625 48.1875 22.3125 43.546875 
Q 18.109375 38.921875 18.109375 30.90625 
L 18.109375 0 
L 9.078125 0 
L 9.078125 54.6875 
L 18.109375 54.6875 
L 18.109375 46.1875 
Q 21.34375 51.125 25.703125 53.5625 
Q 30.078125 56 35.796875 56 
Q 45.21875 56 50.046875 50.171875 
Q 54.890625 44.34375 54.890625 33.015625 
z
" id="DejaVuSans-110"/>
    <path d="M 18.3125 70.21875 
L 18.3125 54.6875 
L 36.8125 54.6875 
L 36.8125 47.703125 
L 18.3125 47.703125 
L 18.3125 18.015625 
Q 18.3125 11.328125 20.140625 9.421875 
Q 21.96875 7.515625 27.59375 7.515625 
L 36.8125 7.515625 
L 36.8125 0 
L 27.59375 0 
Q 17.1875 0 13.234375 3.875 
Q 9.28125 7.765625 9.28125 18.015625 
L 9.28125 47.703125 
L 2.6875 47.703125 
L 2.6875 54.6875 
L 9.28125 54.6875 
L 9.28125 70.21875 
z
" id="DejaVuSans-116"/>
    <path d="M 45.40625 27.984375 
Q 45.40625 37.75 41.375 43.109375 
Q 37.359375 48.484375 30.078125 48.484375 
Q 22.859375 48.484375 18.828125 43.109375 
Q 14.796875 37.75 14.796875 27.984375 
Q 14.796875 18.265625 18.828125 12.890625 
Q 22.859375 7.515625 30.078125 7.515625 
Q 37.359375 7.515625 41.375 12.890625 
Q 45.40625 18.265625 45.40625 27.984375 
z
M 54.390625 6.78125 
Q 54.390625 -7.171875 48.1875 -13.984375 
Q 42 -20.796875 29.203125 -20.796875 
Q 24.46875 -20.796875 20.265625 -20.09375 
Q 16.0625 -19.390625 12.109375 -17.921875 
L 12.109375 -9.1875 
Q 16.0625 -11.328125 19.921875 -12.34375 
Q 23.78125 -13.375 27.78125 -13.375 
Q 36.625 -13.375 41.015625 -8.765625 
Q 45.40625 -4.15625 45.40625 5.171875 
L 45.40625 9.625 
Q 42.625 4.78125 38.28125 2.390625 
Q 33.9375 0 27.875 0 
Q 17.828125 0 11.671875 7.65625 
Q 5.515625 15.328125 5.515625 27.984375 
Q 5.515625 40.671875 11.671875 48.328125 
Q 17.828125 56 27.875 56 
Q 33.9375 56 38.28125 53.609375 
Q 42.625 51.21875 45.40625 46.390625 
L 45.40625 54.6875 
L 54.390625 54.6875 
z
" id="DejaVuSans-103"/>
    <path d="M 41.109375 46.296875 
Q 39.59375 47.171875 37.8125 47.578125 
Q 36.03125 48 33.890625 48 
Q 26.265625 48 22.1875 43.046875 
Q 18.109375 38.09375 18.109375 28.8125 
L 18.109375 0 
L 9.078125 0 
L 9.078125 54.6875 
L 18.109375 54.6875 
L 18.109375 46.1875 
Q 20.953125 51.171875 25.484375 53.578125 
Q 30.03125 56 36.53125 56 
Q 37.453125 56 38.578125 55.875 
Q 39.703125 55.765625 41.0625 55.515625 
z
" id="DejaVuSans-114"/>
    <path d="M 9.421875 75.984375 
L 18.40625 75.984375 
L 18.40625 0 
L 9.421875 0 
z
" id="DejaVuSans-108"/>
    <path d="M 31 75.875 
Q 24.46875 64.65625 21.28125 53.65625 
Q 18.109375 42.671875 18.109375 31.390625 
Q 18.109375 20.125 21.3125 9.0625 
Q 24.515625 -2 31 -13.1875 
L 23.1875 -13.1875 
Q 15.875 -1.703125 12.234375 9.375 
Q 8.59375 20.453125 8.59375 31.390625 
Q 8.59375 42.28125 12.203125 53.3125 
Q 15.828125 64.359375 23.1875 75.875 
z
" id="DejaVuSans-40"/>
    <path d="M 64.40625 67.28125 
L 64.40625 56.890625 
Q 59.421875 61.53125 53.78125 63.8125 
Q 48.140625 66.109375 41.796875 66.109375 
Q 29.296875 66.109375 22.65625 58.46875 
Q 16.015625 50.828125 16.015625 36.375 
Q 16.015625 21.96875 22.65625 14.328125 
Q 29.296875 6.6875 41.796875 6.6875 
Q 48.140625 6.6875 53.78125 8.984375 
Q 59.421875 11.28125 64.40625 15.921875 
L 64.40625 5.609375 
Q 59.234375 2.09375 53.4375 0.328125 
Q 47.65625 -1.421875 41.21875 -1.421875 
Q 24.65625 -1.421875 15.125 8.703125 
Q 5.609375 18.84375 5.609375 36.375 
Q 5.609375 53.953125 15.125 64.078125 
Q 24.65625 74.21875 41.21875 74.21875 
Q 47.75 74.21875 53.53125 72.484375 
Q 59.328125 70.75 64.40625 67.28125 
z
" id="DejaVuSans-67"/>
    <path d="M 30.609375 48.390625 
Q 23.390625 48.390625 19.1875 42.75 
Q 14.984375 37.109375 14.984375 27.296875 
Q 14.984375 17.484375 19.15625 11.84375 
Q 23.34375 6.203125 30.609375 6.203125 
Q 37.796875 6.203125 41.984375 11.859375 
Q 46.1875 17.53125 46.1875 27.296875 
Q 46.1875 37.015625 41.984375 42.703125 
Q 37.796875 48.390625 30.609375 48.390625 
z
M 30.609375 56 
Q 42.328125 56 49.015625 48.375 
Q 55.71875 40.765625 55.71875 27.296875 
Q 55.71875 13.875 49.015625 6.21875 
Q 42.328125 -1.421875 30.609375 -1.421875 
Q 18.84375 -1.421875 12.171875 6.21875 
Q 5.515625 13.875 5.515625 27.296875 
Q 5.515625 40.765625 12.171875 48.375 
Q 18.84375 56 30.609375 56 
z
" id="DejaVuSans-111"/>
    <path d="M 9.421875 54.6875 
L 18.40625 54.6875 
L 18.40625 0 
L 9.421875 0 
z
M 9.421875 75.984375 
L 18.40625 75.984375 
L 18.40625 64.59375 
L 9.421875 64.59375 
z
" id="DejaVuSans-105"/>
    <path d="M 8.015625 75.875 
L 15.828125 75.875 
Q 23.140625 64.359375 26.78125 53.3125 
Q 30.421875 42.28125 30.421875 31.390625 
Q 30.421875 20.453125 26.78125 9.375 
Q 23.140625 -1.703125 15.828125 -13.1875 
L 8.015625 -13.1875 
Q 14.5 -2 17.703125 9.0625 
Q 20.90625 20.125 20.90625 31.390625 
Q 20.90625 42.671875 17.703125 53.65625 
Q 14.5 64.65625 8.015625 75.875 
z
" id="DejaVuSans-41"/>
    <path d="M 37.109375 75.984375 
L 37.109375 68.5 
L 28.515625 68.5 
Q 23.6875 68.5 21.796875 66.546875 
Q 19.921875 64.59375 19.921875 59.515625 
L 19.921875 54.6875 
L 34.71875 54.6875 
L 34.71875 47.703125 
L 19.921875 47.703125 
L 19.921875 0 
L 10.890625 0 
L 10.890625 47.703125 
L 2.296875 47.703125 
L 2.296875 54.6875 
L 10.890625 54.6875 
L 10.890625 58.5 
Q 10.890625 67.625 15.140625 71.796875 
Q 19.390625 75.984375 28.609375 75.984375 
z
" id="DejaVuSans-102"/>
    <path d="M 48.6875 27.296875 
Q 48.6875 37.203125 44.609375 42.84375 
Q 40.53125 48.484375 33.40625 48.484375 
Q 26.265625 48.484375 22.1875 42.84375 
Q 18.109375 37.203125 18.109375 27.296875 
Q 18.109375 17.390625 22.1875 11.75 
Q 26.265625 6.109375 33.40625 6.109375 
Q 40.53125 6.109375 44.609375 11.75 
Q 48.6875 17.390625 48.6875 27.296875 
z
M 18.109375 46.390625 
Q 20.953125 51.265625 25.265625 53.625 
Q 29.59375 56 35.59375 56 
Q 45.5625 56 51.78125 48.09375 
Q 58.015625 40.1875 58.015625 27.296875 
Q 58.015625 14.40625 51.78125 6.484375 
Q 45.5625 -1.421875 35.59375 -1.421875 
Q 29.59375 -1.421875 25.265625 0.953125 
Q 20.953125 3.328125 18.109375 8.203125 
L 18.109375 0 
L 9.078125 0 
L 9.078125 75.984375 
L 18.109375 75.984375 
z
" id="DejaVuSans-98"/>
    <path d="M 37.203125 26.21875 
Q 37.203125 19.234375 40.671875 15.25 
Q 44.140625 11.28125 50.203125 11.28125 
Q 56.203125 11.28125 59.640625 15.28125 
Q 63.09375 19.28125 63.09375 26.21875 
Q 63.09375 33.0625 59.578125 37.078125 
Q 56.0625 41.109375 50.09375 41.109375 
Q 44.1875 41.109375 40.6875 37.109375 
Q 37.203125 33.109375 37.203125 26.21875 
z
M 63.8125 11.625 
Q 60.890625 7.859375 57.109375 6.078125 
Q 53.328125 4.296875 48.296875 4.296875 
Q 39.890625 4.296875 34.640625 10.375 
Q 29.390625 16.453125 29.390625 26.21875 
Q 29.390625 35.984375 34.65625 42.078125 
Q 39.9375 48.1875 48.296875 48.1875 
Q 53.328125 48.1875 57.125 46.359375 
Q 60.9375 44.53125 63.8125 40.828125 
L 63.8125 47.21875 
L 70.796875 47.21875 
L 70.796875 11.28125 
Q 77.9375 12.359375 81.953125 17.796875 
Q 85.984375 23.25 85.984375 31.890625 
Q 85.984375 37.109375 84.4375 41.703125 
Q 82.90625 46.296875 79.78125 50.203125 
Q 74.703125 56.59375 67.40625 59.984375 
Q 60.109375 63.375 51.515625 63.375 
Q 45.515625 63.375 39.984375 61.78125 
Q 34.46875 60.203125 29.78125 57.078125 
Q 22.125 52.09375 17.796875 44.015625 
Q 13.484375 35.9375 13.484375 26.515625 
Q 13.484375 18.75 16.28125 11.953125 
Q 19.09375 5.171875 24.421875 0 
Q 29.546875 -5.078125 36.28125 -7.734375 
Q 43.015625 -10.40625 50.6875 -10.40625 
Q 56.984375 -10.40625 63.0625 -8.28125 
Q 69.140625 -6.15625 74.21875 -2.203125 
L 78.609375 -7.625 
Q 72.515625 -12.359375 65.3125 -14.875 
Q 58.109375 -17.390625 50.6875 -17.390625 
Q 41.65625 -17.390625 33.640625 -14.1875 
Q 25.640625 -10.984375 19.390625 -4.890625 
Q 13.140625 1.21875 9.859375 9.25 
Q 6.59375 17.28125 6.59375 26.515625 
Q 6.59375 35.40625 9.90625 43.453125 
Q 13.234375 51.515625 19.390625 57.625 
Q 25.6875 63.8125 33.9375 67.109375 
Q 42.1875 70.40625 51.421875 70.40625 
Q 61.765625 70.40625 70.625 66.15625 
Q 79.5 61.921875 85.5 54.109375 
Q 89.15625 49.3125 91.078125 43.703125 
Q 93.015625 38.09375 93.015625 32.078125 
Q 93.015625 19.234375 85.25 11.8125 
Q 77.484375 4.390625 63.8125 4.109375 
z
" id="DejaVuSans-64"/>
    <path d="M 10.59375 45.40625 
L 73.1875 45.40625 
L 73.1875 37.203125 
L 10.59375 37.203125 
z
M 10.59375 25.484375 
L 73.1875 25.484375 
L 73.1875 17.1875 
L 10.59375 17.1875 
z
" id="DejaVuSans-61"/>
    <path d="M 4.890625 31.390625 
L 31.203125 31.390625 
L 31.203125 23.390625 
L 4.890625 23.390625 
z
" id="DejaVuSans-45"/>
   </defs>
   <g transform="translate(113.2725 26.109)scale(0.192 -0.192)">
    <use xlink:href="#DejaVuSans-73"/>
    <use x="29.492188" xlink:href="#DejaVuSans-110"/>
    <use x="92.871094" xlink:href="#DejaVuSans-116"/>
    <use x="132.080078" xlink:href="#DejaVuSans-101"/>
    <use x="193.603516" xlink:href="#DejaVuSans-103"/>
    <use x="257.080078" xlink:href="#DejaVuSans-114"/>
    <use x="298.193359" xlink:href="#DejaVuSans-97"/>
    <use x="359.472656" xlink:href="#DejaVuSans-108"/>
    <use x="387.255859" xlink:href="#DejaVuSans-115"/>
    <use x="439.355469" xlink:href="#DejaVuSans-32"/>
    <use x="471.142578" xlink:href="#DejaVuSans-40"/>
    <use x="510.15625" xlink:href="#DejaVuSans-67"/>
    <use x="579.980469" xlink:href="#DejaVuSans-111"/>
    <use x="641.162109" xlink:href="#DejaVuSans-105"/>
    <use x="668.945312" xlink:href="#DejaVuSans-108"/>
    <use x="696.728516" xlink:href="#DejaVuSans-41"/>
    <use x="735.742188" xlink:href="#DejaVuSans-32"/>
    <use x="767.529297" xlink:href="#DejaVuSans-102"/>
    <use x="802.734375" xlink:href="#DejaVuSans-111"/>
    <use x="863.916016" xlink:href="#DejaVuSans-114"/>
    <use x="905.029297" xlink:href="#DejaVuSans-32"/>
    <use x="936.816406" xlink:href="#DejaVuSans-49"/>
    <use x="1000.439453" xlink:href="#DejaVuSans-57"/>
    <use x="1064.0625" xlink:href="#DejaVuSans-57"/>
    <use x="1127.685547" xlink:href="#DejaVuSans-49"/>
    <use x="1191.308594" xlink:href="#DejaVuSans-98"/>
    <use x="1254.785156" xlink:href="#DejaVuSans-32"/>
    <use x="1286.572266" xlink:href="#DejaVuSans-64"/>
    <use x="1386.572266" xlink:href="#DejaVuSans-32"/>
    <use x="1418.359375" xlink:href="#DejaVuSans-121"/>
    <use x="1477.539062" xlink:href="#DejaVuSans-61"/>
    <use x="1561.328125" xlink:href="#DejaVuSans-45"/>
    <use x="1597.412109" xlink:href="#DejaVuSans-48"/>
    <use x="1661.035156" xlink:href="#DejaVuSans-49"/>
    <use x="1724.658203" xlink:href="#DejaVuSans-46"/>
    <use x="1756.445312" xlink:href="#DejaVuSans-48"/>
   </g>
  </g>
 </g>
 <defs>
  <clipPath id="pdf25fec725">
   <rect height="218.88" width="460.8" x="86.4" y="86.4"/>
  </clipPath>
  <clipPath id="p938131b011">
   <rect height="218.88" width="460.8" x="86.4" y="305.28"/>
  </clipPath>
 </defs>
</svg>
