<?xml version="1.0" encoding="utf-8" standalone="no"?>
<!DOCTYPE svg PUBLIC "-//W3C//DTD SVG 1.1//EN"
  "http://www.w3.org/Graphics/SVG/1.1/DTD/svg11.dtd">
<!-- Created with matplotlib (https://matplotlib.org/) -->
<svg height="576pt" version="1.1" viewBox="0 0 576 576" width="576pt" xmlns="http://www.w3.org/2000/svg" xmlns:xlink="http://www.w3.org/1999/xlink">
 <defs>
  <style type="text/css">
*{stroke-linecap:butt;stroke-linejoin:round;}
  </style>
 </defs>
 <g id="figure_1">
  <g id="patch_1">
   <path d="M 0 576 
L 576 576 
L 576 0 
L 0 0 
z
" style="fill:#ffffff;"/>
  </g>
  <g id="axes_1">
   <g id="patch_2">
    <path d="M 86.4 305.28 
L 547.2 305.28 
L 547.2 86.4 
L 86.4 86.4 
z
" style="fill:#ffffff;"/>
   </g>
   <g id="matplotlib.axis_1">
    <g id="xtick_1">
     <g id="line2d_1">
      <path clip-path="url(#p6bde9431a8)" d="M 142.254545 305.28 
L 142.254545 86.4 
" style="fill:none;stroke:#b0b0b0;stroke-linecap:square;stroke-width:0.8;"/>
     </g>
     <g id="line2d_2">
      <defs>
       <path d="M 0 0 
L 0 3.5 
" id="m68ef3c2873" style="stroke:#000000;stroke-width:0.8;"/>
      </defs>
      <g>
       <use style="stroke:#000000;stroke-width:0.8;" x="142.254545" xlink:href="#m68ef3c2873" y="305.28"/>
      </g>
     </g>
     <g id="text_1">
      <!-- −10 -->
      <defs>
       <path d="M 10.59375 35.5 
L 73.1875 35.5 
L 73.1875 27.203125 
L 10.59375 27.203125 
z
" id="DejaVuSans-8722"/>
       <path d="M 12.40625 8.296875 
L 28.515625 8.296875 
L 28.515625 63.921875 
L 10.984375 60.40625 
L 10.984375 69.390625 
L 28.421875 72.90625 
L 38.28125 72.90625 
L 38.28125 8.296875 
L 54.390625 8.296875 
L 54.390625 0 
L 12.40625 0 
z
" id="DejaVuSans-49"/>
       <path d="M 31.78125 66.40625 
Q 24.171875 66.40625 20.328125 58.90625 
Q 16.5 51.421875 16.5 36.375 
Q 16.5 21.390625 20.328125 13.890625 
Q 24.171875 6.390625 31.78125 6.390625 
Q 39.453125 6.390625 43.28125 13.890625 
Q 47.125 21.390625 47.125 36.375 
Q 47.125 51.421875 43.28125 58.90625 
Q 39.453125 66.40625 31.78125 66.40625 
z
M 31.78125 74.21875 
Q 44.046875 74.21875 50.515625 64.515625 
Q 56.984375 54.828125 56.984375 36.375 
Q 56.984375 17.96875 50.515625 8.265625 
Q 44.046875 -1.421875 31.78125 -1.421875 
Q 19.53125 -1.421875 13.0625 8.265625 
Q 6.59375 17.96875 6.59375 36.375 
Q 6.59375 54.828125 13.0625 64.515625 
Q 19.53125 74.21875 31.78125 74.21875 
z
" id="DejaVuSans-48"/>
      </defs>
      <g transform="translate(125.370795 324.4375)scale(0.16 -0.16)">
       <use xlink:href="#DejaVuSans-8722"/>
       <use x="83.789062" xlink:href="#DejaVuSans-49"/>
       <use x="147.412109" xlink:href="#DejaVuSans-48"/>
      </g>
     </g>
    </g>
    <g id="xtick_2">
     <g id="line2d_3">
      <path clip-path="url(#p6bde9431a8)" d="M 229.527273 305.28 
L 229.527273 86.4 
" style="fill:none;stroke:#b0b0b0;stroke-linecap:square;stroke-width:0.8;"/>
     </g>
     <g id="line2d_4">
      <g>
       <use style="stroke:#000000;stroke-width:0.8;" x="229.527273" xlink:href="#m68ef3c2873" y="305.28"/>
      </g>
     </g>
     <g id="text_2">
      <!-- −5 -->
      <defs>
       <path d="M 10.796875 72.90625 
L 49.515625 72.90625 
L 49.515625 64.59375 
L 19.828125 64.59375 
L 19.828125 46.734375 
Q 21.96875 47.46875 24.109375 47.828125 
Q 26.265625 48.1875 28.421875 48.1875 
Q 40.625 48.1875 47.75 41.5 
Q 54.890625 34.8125 54.890625 23.390625 
Q 54.890625 11.625 47.5625 5.09375 
Q 40.234375 -1.421875 26.90625 -1.421875 
Q 22.3125 -1.421875 17.546875 -0.640625 
Q 12.796875 0.140625 7.71875 1.703125 
L 7.71875 11.625 
Q 12.109375 9.234375 16.796875 8.0625 
Q 21.484375 6.890625 26.703125 6.890625 
Q 35.15625 6.890625 40.078125 11.328125 
Q 45.015625 15.765625 45.015625 23.390625 
Q 45.015625 31 40.078125 35.4375 
Q 35.15625 39.890625 26.703125 39.890625 
Q 22.75 39.890625 18.8125 39.015625 
Q 14.890625 38.140625 10.796875 36.28125 
z
" id="DejaVuSans-53"/>
      </defs>
      <g transform="translate(217.733523 324.4375)scale(0.16 -0.16)">
       <use xlink:href="#DejaVuSans-8722"/>
       <use x="83.789062" xlink:href="#DejaVuSans-53"/>
      </g>
     </g>
    </g>
    <g id="xtick_3">
     <g id="line2d_5">
      <path clip-path="url(#p6bde9431a8)" d="M 316.8 305.28 
L 316.8 86.4 
" style="fill:none;stroke:#b0b0b0;stroke-linecap:square;stroke-width:0.8;"/>
     </g>
     <g id="line2d_6">
      <g>
       <use style="stroke:#000000;stroke-width:0.8;" x="316.8" xlink:href="#m68ef3c2873" y="305.28"/>
      </g>
     </g>
     <g id="text_3">
      <!-- 0 -->
      <g transform="translate(311.71 324.4375)scale(0.16 -0.16)">
       <use xlink:href="#DejaVuSans-48"/>
      </g>
     </g>
    </g>
    <g id="xtick_4">
     <g id="line2d_7">
      <path clip-path="url(#p6bde9431a8)" d="M 404.072727 305.28 
L 404.072727 86.4 
" style="fill:none;stroke:#b0b0b0;stroke-linecap:square;stroke-width:0.8;"/>
     </g>
     <g id="line2d_8">
      <g>
       <use style="stroke:#000000;stroke-width:0.8;" x="404.072727" xlink:href="#m68ef3c2873" y="305.28"/>
      </g>
     </g>
     <g id="text_4">
      <!-- 5 -->
      <g transform="translate(398.982727 324.4375)scale(0.16 -0.16)">
       <use xlink:href="#DejaVuSans-53"/>
      </g>
     </g>
    </g>
    <g id="xtick_5">
     <g id="line2d_9">
      <path clip-path="url(#p6bde9431a8)" d="M 491.345455 305.28 
L 491.345455 86.4 
" style="fill:none;stroke:#b0b0b0;stroke-linecap:square;stroke-width:0.8;"/>
     </g>
     <g id="line2d_10">
      <g>
       <use style="stroke:#000000;stroke-width:0.8;" x="491.345455" xlink:href="#m68ef3c2873" y="305.28"/>
      </g>
     </g>
     <g id="text_5">
      <!-- 10 -->
      <g transform="translate(481.165455 324.4375)scale(0.16 -0.16)">
       <use xlink:href="#DejaVuSans-49"/>
       <use x="63.623047" xlink:href="#DejaVuSans-48"/>
      </g>
     </g>
    </g>
   </g>
   <g id="matplotlib.axis_2">
    <g id="ytick_1">
     <g id="line2d_11">
      <path clip-path="url(#p6bde9431a8)" d="M 86.4 305.069289 
L 547.2 305.069289 
" style="fill:none;stroke:#b0b0b0;stroke-linecap:square;stroke-width:0.8;"/>
     </g>
     <g id="line2d_12">
      <defs>
       <path d="M 0 0 
L -3.5 0 
" id="mc2c6969579" style="stroke:#000000;stroke-width:0.8;"/>
      </defs>
      <g>
       <use style="stroke:#000000;stroke-width:0.8;" x="86.4" xlink:href="#mc2c6969579" y="305.069289"/>
      </g>
     </g>
     <g id="text_6">
      <!-- −10 -->
      <g transform="translate(45.6325 311.148039)scale(0.16 -0.16)">
       <use xlink:href="#DejaVuSans-8722"/>
       <use x="83.789062" xlink:href="#DejaVuSans-49"/>
       <use x="147.412109" xlink:href="#DejaVuSans-48"/>
      </g>
     </g>
    </g>
    <g id="ytick_2">
     <g id="line2d_13">
      <path clip-path="url(#p6bde9431a8)" d="M 86.4 235.662977 
L 547.2 235.662977 
" style="fill:none;stroke:#b0b0b0;stroke-linecap:square;stroke-width:0.8;"/>
     </g>
     <g id="line2d_14">
      <g>
       <use style="stroke:#000000;stroke-width:0.8;" x="86.4" xlink:href="#mc2c6969579" y="235.662977"/>
      </g>
     </g>
     <g id="text_7">
      <!-- 0 -->
      <g transform="translate(69.22 241.741727)scale(0.16 -0.16)">
       <use xlink:href="#DejaVuSans-48"/>
      </g>
     </g>
    </g>
    <g id="ytick_3">
     <g id="line2d_15">
      <path clip-path="url(#p6bde9431a8)" d="M 86.4 166.256665 
L 547.2 166.256665 
" style="fill:none;stroke:#b0b0b0;stroke-linecap:square;stroke-width:0.8;"/>
     </g>
     <g id="line2d_16">
      <g>
       <use style="stroke:#000000;stroke-width:0.8;" x="86.4" xlink:href="#mc2c6969579" y="166.256665"/>
      </g>
     </g>
     <g id="text_8">
      <!-- 10 -->
      <g transform="translate(59.04 172.335415)scale(0.16 -0.16)">
       <use xlink:href="#DejaVuSans-49"/>
       <use x="63.623047" xlink:href="#DejaVuSans-48"/>
      </g>
     </g>
    </g>
    <g id="ytick_4">
     <g id="line2d_17">
      <path clip-path="url(#p6bde9431a8)" d="M 86.4 96.850353 
L 547.2 96.850353 
" style="fill:none;stroke:#b0b0b0;stroke-linecap:square;stroke-width:0.8;"/>
     </g>
     <g id="line2d_18">
      <g>
       <use style="stroke:#000000;stroke-width:0.8;" x="86.4" xlink:href="#mc2c6969579" y="96.850353"/>
      </g>
     </g>
     <g id="text_9">
      <!-- 20 -->
      <defs>
       <path d="M 19.1875 8.296875 
L 53.609375 8.296875 
L 53.609375 0 
L 7.328125 0 
L 7.328125 8.296875 
Q 12.9375 14.109375 22.625 23.890625 
Q 32.328125 33.6875 34.8125 36.53125 
Q 39.546875 41.84375 41.421875 45.53125 
Q 43.3125 49.21875 43.3125 52.78125 
Q 43.3125 58.59375 39.234375 62.25 
Q 35.15625 65.921875 28.609375 65.921875 
Q 23.96875 65.921875 18.8125 64.3125 
Q 13.671875 62.703125 7.8125 59.421875 
L 7.8125 69.390625 
Q 13.765625 71.78125 18.9375 73 
Q 24.125 74.21875 28.421875 74.21875 
Q 39.75 74.21875 46.484375 68.546875 
Q 53.21875 62.890625 53.21875 53.421875 
Q 53.21875 48.921875 51.53125 44.890625 
Q 49.859375 40.875 45.40625 35.40625 
Q 44.1875 33.984375 37.640625 27.21875 
Q 31.109375 20.453125 19.1875 8.296875 
z
" id="DejaVuSans-50"/>
      </defs>
      <g transform="translate(59.04 102.929103)scale(0.16 -0.16)">
       <use xlink:href="#DejaVuSans-50"/>
       <use x="63.623047" xlink:href="#DejaVuSans-48"/>
      </g>
     </g>
    </g>
    <g id="text_10">
     <!-- Iy [G.cm] -->
     <defs>
      <path d="M 9.8125 72.90625 
L 19.671875 72.90625 
L 19.671875 0 
L 9.8125 0 
z
" id="DejaVuSans-73"/>
      <path d="M 32.171875 -5.078125 
Q 28.375 -14.84375 24.75 -17.8125 
Q 21.140625 -20.796875 15.09375 -20.796875 
L 7.90625 -20.796875 
L 7.90625 -13.28125 
L 13.1875 -13.28125 
Q 16.890625 -13.28125 18.9375 -11.515625 
Q 21 -9.765625 23.484375 -3.21875 
L 25.09375 0.875 
L 2.984375 54.6875 
L 12.5 54.6875 
L 29.59375 11.921875 
L 46.6875 54.6875 
L 56.203125 54.6875 
z
" id="DejaVuSans-121"/>
      <path id="DejaVuSans-32"/>
      <path d="M 8.59375 75.984375 
L 29.296875 75.984375 
L 29.296875 69 
L 17.578125 69 
L 17.578125 -6.203125 
L 29.296875 -6.203125 
L 29.296875 -13.1875 
L 8.59375 -13.1875 
z
" id="DejaVuSans-91"/>
      <path d="M 59.515625 10.40625 
L 59.515625 29.984375 
L 43.40625 29.984375 
L 43.40625 38.09375 
L 69.28125 38.09375 
L 69.28125 6.78125 
Q 63.578125 2.734375 56.6875 0.65625 
Q 49.8125 -1.421875 42 -1.421875 
Q 24.90625 -1.421875 15.25 8.5625 
Q 5.609375 18.5625 5.609375 36.375 
Q 5.609375 54.25 15.25 64.234375 
Q 24.90625 74.21875 42 74.21875 
Q 49.125 74.21875 55.546875 72.453125 
Q 61.96875 70.703125 67.390625 67.28125 
L 67.390625 56.78125 
Q 61.921875 61.421875 55.765625 63.765625 
Q 49.609375 66.109375 42.828125 66.109375 
Q 29.4375 66.109375 22.71875 58.640625 
Q 16.015625 51.171875 16.015625 36.375 
Q 16.015625 21.625 22.71875 14.15625 
Q 29.4375 6.6875 42.828125 6.6875 
Q 48.046875 6.6875 52.140625 7.59375 
Q 56.25 8.5 59.515625 10.40625 
z
" id="DejaVuSans-71"/>
      <path d="M 10.6875 12.40625 
L 21 12.40625 
L 21 0 
L 10.6875 0 
z
" id="DejaVuSans-46"/>
      <path d="M 48.78125 52.59375 
L 48.78125 44.1875 
Q 44.96875 46.296875 41.140625 47.34375 
Q 37.3125 48.390625 33.40625 48.390625 
Q 24.65625 48.390625 19.8125 42.84375 
Q 14.984375 37.3125 14.984375 27.296875 
Q 14.984375 17.28125 19.8125 11.734375 
Q 24.65625 6.203125 33.40625 6.203125 
Q 37.3125 6.203125 41.140625 7.25 
Q 44.96875 8.296875 48.78125 10.40625 
L 48.78125 2.09375 
Q 45.015625 0.34375 40.984375 -0.53125 
Q 36.96875 -1.421875 32.421875 -1.421875 
Q 20.0625 -1.421875 12.78125 6.34375 
Q 5.515625 14.109375 5.515625 27.296875 
Q 5.515625 40.671875 12.859375 48.328125 
Q 20.21875 56 33.015625 56 
Q 37.15625 56 41.109375 55.140625 
Q 45.0625 54.296875 48.78125 52.59375 
z
" id="DejaVuSans-99"/>
      <path d="M 52 44.1875 
Q 55.375 50.25 60.0625 53.125 
Q 64.75 56 71.09375 56 
Q 79.640625 56 84.28125 50.015625 
Q 88.921875 44.046875 88.921875 33.015625 
L 88.921875 0 
L 79.890625 0 
L 79.890625 32.71875 
Q 79.890625 40.578125 77.09375 44.375 
Q 74.3125 48.1875 68.609375 48.1875 
Q 61.625 48.1875 57.5625 43.546875 
Q 53.515625 38.921875 53.515625 30.90625 
L 53.515625 0 
L 44.484375 0 
L 44.484375 32.71875 
Q 44.484375 40.625 41.703125 44.40625 
Q 38.921875 48.1875 33.109375 48.1875 
Q 26.21875 48.1875 22.15625 43.53125 
Q 18.109375 38.875 18.109375 30.90625 
L 18.109375 0 
L 9.078125 0 
L 9.078125 54.6875 
L 18.109375 54.6875 
L 18.109375 46.1875 
Q 21.1875 51.21875 25.484375 53.609375 
Q 29.78125 56 35.6875 56 
Q 41.65625 56 45.828125 52.96875 
Q 50 49.953125 52 44.1875 
z
" id="DejaVuSans-109"/>
      <path d="M 30.421875 75.984375 
L 30.421875 -13.1875 
L 9.71875 -13.1875 
L 9.71875 -6.203125 
L 21.390625 -6.203125 
L 21.390625 69 
L 9.71875 69 
L 9.71875 75.984375 
z
" id="DejaVuSans-93"/>
     </defs>
     <g transform="translate(38.305 232.6525)rotate(-90)scale(0.16 -0.16)">
      <use xlink:href="#DejaVuSans-73"/>
      <use x="29.492188" xlink:href="#DejaVuSans-121"/>
      <use x="88.671875" xlink:href="#DejaVuSans-32"/>
      <use x="120.458984" xlink:href="#DejaVuSans-91"/>
      <use x="159.472656" xlink:href="#DejaVuSans-71"/>
      <use x="236.962891" xlink:href="#DejaVuSans-46"/>
      <use x="268.75" xlink:href="#DejaVuSans-99"/>
      <use x="323.730469" xlink:href="#DejaVuSans-109"/>
      <use x="421.142578" xlink:href="#DejaVuSans-93"/>
     </g>
    </g>
   </g>
   <g id="line2d_19">
    <path clip-path="url(#p6bde9431a8)" d="M 107.345455 221.656702 
L 124.8 246.585886 
L 142.254545 264.953226 
L 159.709091 270.751841 
L 177.163636 271.04177 
L 194.618182 264.313312 
L 212.072727 251.336661 
L 229.527273 230.63386 
L 246.981818 211.419298 
L 264.436364 200.155623 
L 281.890909 196.842709 
L 299.345455 201.684869 
L 316.8 202.747465 
L 334.254545 203.411175 
L 351.709091 199.414645 
L 369.163636 200.758286 
L 386.618182 206.537895 
L 404.072727 211.155557 
L 421.527273 208.918877 
L 438.981818 199.230092 
L 456.436364 179.40763 
L 473.890909 152.714155 
L 491.345455 126.964266 
L 508.8 109.74445 
L 526.254545 124.813515 
" style="fill:none;stroke:#0000ff;stroke-linecap:square;stroke-width:2;"/>
   </g>
   <g id="line2d_20">
    <path clip-path="url(#p6bde9431a8)" d="M 107.345455 241.402742 
L 124.8 269.88529 
L 142.254545 285.972293 
L 159.709091 293.657528 
L 177.163636 295.330909 
L 194.618182 290.92151 
L 212.072727 274.666081 
L 229.527273 253.672129 
L 246.981818 232.444605 
L 264.436364 221.89612 
L 281.890909 219.054655 
L 299.345455 220.476489 
L 316.8 222.568739 
L 334.254545 220.999314 
L 351.709091 217.906652 
L 369.163636 219.014141 
L 386.618182 225.021457 
L 404.072727 231.525742 
L 421.527273 233.50289 
L 438.981818 222.713135 
L 456.436364 199.43894 
L 473.890909 168.979245 
L 491.345455 137.977184 
L 508.8 119.184683 
L 526.254545 134.316335 
" style="fill:none;stroke:#1600e9;stroke-linecap:square;stroke-width:2;"/>
   </g>
   <g id="line2d_21">
    <path clip-path="url(#p6bde9431a8)" d="M 107.345455 224.495911 
L 124.8 251.43887 
L 142.254545 263.140225 
L 159.709091 269.820547 
L 177.163636 271.794142 
L 194.618182 264.823159 
L 212.072727 253.805403 
L 229.527273 234.094487 
L 246.981818 213.175095 
L 264.436364 201.84188 
L 281.890909 198.270702 
L 299.345455 197.791356 
L 316.8 199.334709 
L 334.254545 196.721083 
L 351.709091 196.161491 
L 369.163636 198.449754 
L 386.618182 204.033958 
L 404.072727 211.200102 
L 421.527273 209.640747 
L 438.981818 200.755111 
L 456.436364 178.323677 
L 473.890909 150.648716 
L 491.345455 125.709903 
L 508.8 109.662787 
L 526.254545 128.75837 
" style="fill:none;stroke:#2e00d1;stroke-linecap:square;stroke-width:2;"/>
   </g>
   <g id="line2d_22">
    <path clip-path="url(#p6bde9431a8)" d="M 107.345455 220.986263 
L 124.8 247.496506 
L 142.254545 261.351752 
L 159.709091 265.979704 
L 177.163636 269.297365 
L 194.618182 264.126429 
L 212.072727 250.443011 
L 229.527273 230.59016 
L 246.981818 210.307182 
L 264.436364 198.336739 
L 281.890909 196.471271 
L 299.345455 196.337491 
L 316.8 195.962119 
L 334.254545 195.408002 
L 351.709091 194.824455 
L 369.163636 197.442568 
L 386.618182 204.111396 
L 404.072727 210.341597 
L 421.527273 212.07611 
L 438.981818 201.688415 
L 456.436364 177.731302 
L 473.890909 148.129672 
L 491.345455 118.331613 
L 508.8 99.477304 
L 526.254545 115.89944 
" style="fill:none;stroke:#4400bb;stroke-linecap:square;stroke-width:2;"/>
   </g>
   <g id="line2d_23">
    <path clip-path="url(#p6bde9431a8)" d="M 107.345455 214.880724 
L 124.8 239.358901 
L 142.254545 256.772097 
L 159.709091 260.280083 
L 177.163636 261.408536 
L 194.618182 256.265545 
L 212.072727 245.283226 
L 229.527273 227.125151 
L 246.981818 207.672119 
L 264.436364 194.455988 
L 281.890909 188.286426 
L 299.345455 190.570651 
L 316.8 188.281261 
L 334.254545 189.303904 
L 351.709091 187.647587 
L 369.163636 189.979126 
L 386.618182 196.471432 
L 404.072727 203.051874 
L 421.527273 203.359811 
L 438.981818 193.165187 
L 456.436364 171.571147 
L 473.890909 141.038388 
L 491.345455 112.196114 
L 508.8 97.874798 
L 526.254545 113.286986 
" style="fill:none;stroke:#5c00a3;stroke-linecap:square;stroke-width:2;"/>
   </g>
   <g id="line2d_24">
    <path clip-path="url(#p6bde9431a8)" d="M 107.345455 236.157691 
L 124.8 262.131374 
L 142.254545 275.544461 
L 159.709091 281.672237 
L 177.163636 281.96115 
L 194.618182 276.701933 
L 212.072727 265.56408 
L 229.527273 247.093227 
L 246.981818 229.497361 
L 264.436364 221.291101 
L 281.890909 216.986567 
L 299.345455 218.824358 
L 316.8 216.96909 
L 334.254545 216.994951 
L 351.709091 213.705021 
L 369.163636 218.577728 
L 386.618182 225.677123 
L 404.072727 230.899126 
L 421.527273 230.72918 
L 438.981818 217.100521 
L 456.436364 194.714115 
L 473.890909 162.736431 
L 491.345455 134.689939 
L 508.8 123.420829 
L 526.254545 143.284678 
" style="fill:none;stroke:#74008b;stroke-linecap:square;stroke-width:2;"/>
   </g>
   <g id="line2d_25">
    <path clip-path="url(#p6bde9431a8)" d="M 107.345455 219.347796 
L 124.8 242.430826 
L 142.254545 258.032191 
L 159.709091 264.4299 
L 177.163636 266.537586 
L 194.618182 260.958657 
L 212.072727 249.996409 
L 229.527273 234.8067 
L 246.981818 216.01844 
L 264.436364 203.443488 
L 281.890909 200.454557 
L 299.345455 200.384483 
L 316.8 199.915575 
L 334.254545 203.529183 
L 351.709091 202.466859 
L 369.163636 205.077903 
L 386.618182 211.951917 
L 404.072727 217.483164 
L 421.527273 215.570459 
L 438.981818 202.392582 
L 456.436364 178.750891 
L 473.890909 152.562393 
L 491.345455 129.078582 
L 508.8 114.910996 
L 526.254545 132.198682 
" style="fill:none;stroke:#8a0075;stroke-linecap:square;stroke-width:2;"/>
   </g>
   <g id="line2d_26">
    <path clip-path="url(#p6bde9431a8)" d="M 107.345455 231.621442 
L 124.8 255.345115 
L 142.254545 269.597949 
L 159.709091 276.895641 
L 177.163636 280.58729 
L 194.618182 279.454097 
L 212.072727 267.811424 
L 229.527273 251.05284 
L 246.981818 232.92067 
L 264.436364 222.220483 
L 281.890909 218.684838 
L 299.345455 220.88272 
L 316.8 220.252359 
L 334.254545 220.166572 
L 351.709091 219.045 
L 369.163636 222.147171 
L 386.618182 228.333017 
L 404.072727 235.44825 
L 421.527273 234.026643 
L 438.981818 220.83661 
L 456.436364 198.810161 
L 473.890909 170.195733 
L 491.345455 147.611709 
L 508.8 133.125337 
L 526.254545 152.036397 
" style="fill:none;stroke:#a2005d;stroke-linecap:square;stroke-width:2;"/>
   </g>
   <g id="line2d_27">
    <path clip-path="url(#p6bde9431a8)" d="M 107.345455 214.068162 
L 124.8 236.937442 
L 142.254545 252.403673 
L 159.709091 260.757558 
L 177.163636 264.192447 
L 194.618182 260.868442 
L 212.072727 249.590203 
L 229.527273 235.303126 
L 246.981818 217.331011 
L 264.436364 206.05966 
L 281.890909 200.152388 
L 299.345455 199.844955 
L 316.8 200.247245 
L 334.254545 198.324435 
L 351.709091 199.320488 
L 369.163636 200.89224 
L 386.618182 205.893583 
L 404.072727 206.54097 
L 421.527273 206.332846 
L 438.981818 193.444358 
L 456.436364 174.078136 
L 473.890909 148.737223 
L 491.345455 126.085277 
L 508.8 116.924345 
L 526.254545 136.411944 
" style="fill:none;stroke:#ba0045;stroke-linecap:square;stroke-width:2;"/>
   </g>
   <g id="line2d_28">
    <path clip-path="url(#p6bde9431a8)" d="M 107.345455 227.347086 
L 124.8 247.92913 
L 142.254545 261.430457 
L 159.709091 268.188945 
L 177.163636 269.808288 
L 194.618182 266.602806 
L 212.072727 255.293695 
L 229.527273 238.051029 
L 246.981818 219.977269 
L 264.436364 207.991041 
L 281.890909 200.716345 
L 299.345455 200.464544 
L 316.8 199.357906 
L 334.254545 197.813072 
L 351.709091 195.861427 
L 369.163636 197.386608 
L 386.618182 203.135461 
L 404.072727 207.628027 
L 421.527273 207.939401 
L 438.981818 196.671084 
L 456.436364 174.765955 
L 473.890909 149.551385 
L 491.345455 126.766337 
L 508.8 114.822794 
L 526.254545 132.007425 
" style="fill:none;stroke:#d0002f;stroke-linecap:square;stroke-width:2;"/>
   </g>
   <g id="line2d_29">
    <path clip-path="url(#p6bde9431a8)" d="M 107.345455 233.204767 
L 124.8 252.798296 
L 142.254545 266.773469 
L 159.709091 275.617546 
L 177.163636 280.855596 
L 194.618182 278.45419 
L 212.072727 270.38642 
L 229.527273 252.320388 
L 246.981818 232.582017 
L 264.436364 221.376289 
L 281.890909 215.125813 
L 299.345455 215.127736 
L 316.8 216.908631 
L 334.254545 215.924145 
L 351.709091 214.658643 
L 369.163636 215.926508 
L 386.618182 221.166452 
L 404.072727 225.142248 
L 421.527273 223.443056 
L 438.981818 211.146951 
L 456.436364 189.401226 
L 473.890909 163.206058 
L 491.345455 141.445248 
L 508.8 129.676821 
L 526.254545 150.126346 
" style="fill:none;stroke:#e80017;stroke-linecap:square;stroke-width:2;"/>
   </g>
   <g id="line2d_30">
    <path clip-path="url(#p6bde9431a8)" d="M 107.345455 202.746662 
L 124.8 223.848993 
L 142.254545 238.397389 
L 159.709091 248.058424 
L 177.163636 254.813168 
L 194.618182 251.475496 
L 212.072727 238.909941 
L 229.527273 223.272655 
L 246.981818 204.469234 
L 264.436364 192.366569 
L 281.890909 187.790052 
L 299.345455 190.09489 
L 316.8 190.963096 
L 334.254545 190.866349 
L 351.709091 187.39878 
L 369.163636 187.895475 
L 386.618182 192.647277 
L 404.072727 197.801699 
L 421.527273 197.831491 
L 438.981818 185.872801 
L 456.436364 169.582739 
L 473.890909 146.17799 
L 491.345455 123.787577 
L 508.8 110.564005 
L 526.254545 125.33637 
" style="fill:none;stroke:#fe0100;stroke-linecap:square;stroke-width:2;"/>
   </g>
   <g id="line2d_31">
    <path clip-path="url(#p6bde9431a8)" d="M 107.345455 220.820392 
L 124.8 241.319701 
L 142.254545 254.54176 
L 159.709091 263.631219 
L 177.163636 269.767212 
L 194.618182 266.486927 
L 212.072727 258.648844 
L 229.527273 242.251281 
L 246.981818 223.709656 
L 264.436364 212.489895 
L 281.890909 205.18758 
L 299.345455 205.521384 
L 316.8 205.393457 
L 334.254545 204.339886 
L 351.709091 202.195502 
L 369.163636 203.905314 
L 386.618182 208.006917 
L 404.072727 210.042439 
L 421.527273 208.785199 
L 438.981818 198.078932 
L 456.436364 178.386926 
L 473.890909 157.083703 
L 491.345455 132.793006 
L 508.8 118.62833 
L 526.254545 135.455062 
" style="fill:none;stroke:#e81700;stroke-linecap:square;stroke-width:2;"/>
   </g>
   <g id="line2d_32">
    <path clip-path="url(#p6bde9431a8)" d="M 107.345455 219.040981 
L 124.8 242.77491 
L 142.254545 258.374581 
L 159.709091 266.775395 
L 177.163636 272.026176 
L 194.618182 272.483571 
L 212.072727 261.000596 
L 229.527273 243.371776 
L 246.981818 223.567435 
L 264.436364 212.311488 
L 281.890909 207.496754 
L 299.345455 207.519253 
L 316.8 209.006244 
L 334.254545 205.888105 
L 351.709091 202.111565 
L 369.163636 201.741098 
L 386.618182 204.847408 
L 404.072727 208.159787 
L 421.527273 208.423115 
L 438.981818 196.807967 
L 456.436364 179.729275 
L 473.890909 157.359877 
L 491.345455 136.319304 
L 508.8 124.555692 
L 526.254545 142.195488 
" style="fill:none;stroke:#d02f00;stroke-linecap:square;stroke-width:2;"/>
   </g>
   <g id="line2d_33">
    <path clip-path="url(#p6bde9431a8)" d="M 107.345455 220.006677 
L 124.8 241.344168 
L 142.254545 257.385651 
L 159.709091 264.66374 
L 177.163636 268.972635 
L 194.618182 267.584016 
L 212.072727 257.910948 
L 229.527273 240.684737 
L 246.981818 220.371007 
L 264.436364 208.637092 
L 281.890909 201.488908 
L 299.345455 200.915471 
L 316.8 198.968297 
L 334.254545 198.155352 
L 351.709091 195.292414 
L 369.163636 194.074424 
L 386.618182 197.15086 
L 404.072727 200.802883 
L 421.527273 198.740607 
L 438.981818 190.782965 
L 456.436364 176.064547 
L 473.890909 152.344521 
L 491.345455 128.907655 
L 508.8 117.49946 
L 526.254545 133.324634 
" style="fill:none;stroke:#ba4500;stroke-linecap:square;stroke-width:2;"/>
   </g>
   <g id="line2d_34">
    <path clip-path="url(#p6bde9431a8)" d="M 107.345455 213.268662 
L 124.8 232.737659 
L 142.254545 248.923336 
L 159.709091 257.97305 
L 177.163636 260.02028 
L 194.618182 256.527218 
L 212.072727 247.336323 
L 229.527273 229.02769 
L 246.981818 207.214832 
L 264.436364 197.82641 
L 281.890909 192.245384 
L 299.345455 194.85873 
L 316.8 193.283687 
L 334.254545 189.00615 
L 351.709091 185.084429 
L 369.163636 182.650419 
L 386.618182 185.399273 
L 404.072727 189.226894 
L 421.527273 192.151828 
L 438.981818 181.185572 
L 456.436364 164.810805 
L 473.890909 139.85109 
L 491.345455 117.030004 
L 508.8 106.96881 
L 526.254545 125.83931 
" style="fill:none;stroke:#a25d00;stroke-linecap:square;stroke-width:2;"/>
   </g>
   <g id="line2d_35">
    <path clip-path="url(#p6bde9431a8)" d="M 107.345455 225.5682 
L 124.8 245.636775 
L 142.254545 261.32135 
L 159.709091 271.324483 
L 177.163636 275.905446 
L 194.618182 273.122132 
L 212.072727 260.631333 
L 229.527273 247.734055 
L 246.981818 229.162624 
L 264.436364 218.392654 
L 281.890909 212.916003 
L 299.345455 212.677534 
L 316.8 212.166025 
L 334.254545 208.519618 
L 351.709091 203.82957 
L 369.163636 202.812893 
L 386.618182 204.71477 
L 404.072727 208.693897 
L 421.527273 207.689905 
L 438.981818 198.424055 
L 456.436364 180.251078 
L 473.890909 156.472931 
L 491.345455 132.238905 
L 508.8 120.576028 
L 526.254545 138.410789 
" style="fill:none;stroke:#8a7500;stroke-linecap:square;stroke-width:2;"/>
   </g>
   <g id="line2d_36">
    <path clip-path="url(#p6bde9431a8)" d="M 107.345455 217.374207 
L 124.8 234.08027 
L 142.254545 249.004686 
L 159.709091 257.241289 
L 177.163636 261.926894 
L 194.618182 260.309586 
L 212.072727 249.094833 
L 229.527273 230.924441 
L 246.981818 212.465441 
L 264.436364 200.950954 
L 281.890909 193.338204 
L 299.345455 192.292354 
L 316.8 189.298828 
L 334.254545 185.819933 
L 351.709091 180.094488 
L 369.163636 177.602146 
L 386.618182 184.939184 
L 404.072727 190.312341 
L 421.527273 192.345549 
L 438.981818 181.391731 
L 456.436364 163.968019 
L 473.890909 143.085483 
L 491.345455 120.772162 
L 508.8 112.437351 
L 526.254545 132.916265 
" style="fill:none;stroke:#748b00;stroke-linecap:square;stroke-width:2;"/>
   </g>
   <g id="line2d_37">
    <path clip-path="url(#p6bde9431a8)" d="M 107.345455 213.799961 
L 124.8 231.727488 
L 142.254545 245.624803 
L 159.709091 254.862746 
L 177.163636 259.165962 
L 194.618182 256.356478 
L 212.072727 245.223228 
L 229.527273 228.706776 
L 246.981818 208.796179 
L 264.436364 198.801964 
L 281.890909 193.676521 
L 299.345455 194.276719 
L 316.8 194.525255 
L 334.254545 190.223708 
L 351.709091 186.33301 
L 369.163636 182.821459 
L 386.618182 187.016499 
L 404.072727 190.859396 
L 421.527273 191.786906 
L 438.981818 180.820245 
L 456.436364 162.353764 
L 473.890909 140.074668 
L 491.345455 114.13981 
L 508.8 106.318914 
L 526.254545 126.839967 
" style="fill:none;stroke:#5ca300;stroke-linecap:square;stroke-width:2;"/>
   </g>
   <g id="line2d_38">
    <path clip-path="url(#p6bde9431a8)" d="M 107.345455 241.658171 
L 124.8 258.129932 
L 142.254545 274.054402 
L 159.709091 282.017412 
L 177.163636 284.369555 
L 194.618182 281.433014 
L 212.072727 269.960434 
L 229.527273 252.114028 
L 246.981818 231.62038 
L 264.436364 219.148338 
L 281.890909 211.74948 
L 299.345455 210.642334 
L 316.8 207.902001 
L 334.254545 201.256279 
L 351.709091 196.499486 
L 369.163636 197.405182 
L 386.618182 203.336483 
L 404.072727 206.918663 
L 421.527273 208.473877 
L 438.981818 198.362927 
L 456.436364 183.37811 
L 473.890909 159.493889 
L 491.345455 133.604953 
L 508.8 122.543603 
L 526.254545 142.143513 
" style="fill:none;stroke:#44bb00;stroke-linecap:square;stroke-width:2;"/>
   </g>
   <g id="line2d_39">
    <path clip-path="url(#p6bde9431a8)" d="M 107.345455 224.784322 
L 124.8 242.104919 
L 142.254545 258.878224 
L 159.709091 267.713645 
L 177.163636 273.351866 
L 194.618182 268.150734 
L 212.072727 257.000192 
L 229.527273 239.680231 
L 246.981818 222.834289 
L 264.436364 212.476849 
L 281.890909 207.279083 
L 299.345455 208.396623 
L 316.8 206.072684 
L 334.254545 201.242811 
L 351.709091 196.548614 
L 369.163636 195.142552 
L 386.618182 196.945948 
L 404.072727 202.115988 
L 421.527273 201.335857 
L 438.981818 189.054653 
L 456.436364 170.358597 
L 473.890909 144.28838 
L 491.345455 121.567554 
L 508.8 111.355005 
L 526.254545 130.53009 
" style="fill:none;stroke:#2ed100;stroke-linecap:square;stroke-width:2;"/>
   </g>
   <g id="line2d_40">
    <path clip-path="url(#p6bde9431a8)" d="M 107.345455 206.378211 
L 124.8 222.12441 
L 142.254545 237.779323 
L 159.709091 244.607966 
L 177.163636 246.266037 
L 194.618182 243.924822 
L 212.072727 230.822619 
L 229.527273 214.538618 
L 246.981818 195.104209 
L 264.436364 185.240216 
L 281.890909 178.397386 
L 299.345455 179.473704 
L 316.8 177.87118 
L 334.254545 174.98922 
L 351.709091 170.450376 
L 369.163636 169.349034 
L 386.618182 172.581417 
L 404.072727 176.625249 
L 421.527273 178.587085 
L 438.981818 167.860719 
L 456.436364 151.545047 
L 473.890909 129.616354 
L 491.345455 106.186124 
L 508.8 96.349091 
L 526.254545 117.330472 
" style="fill:none;stroke:#16e900;stroke-linecap:square;stroke-width:2;"/>
   </g>
   <g id="line2d_41">
    <path clip-path="url(#p6bde9431a8)" d="M 107.345455 235.254487 
L 124.8 252.145917 
L 142.254545 269.692959 
L 159.709091 273.067498 
L 177.163636 275.438373 
L 194.618182 271.246915 
L 212.072727 260.429927 
L 229.527273 244.253337 
L 246.981818 224.258057 
L 264.436364 215.224793 
L 281.890909 207.294341 
L 299.345455 207.652561 
L 316.8 206.055251 
L 334.254545 201.810497 
L 351.709091 195.437134 
L 369.163636 193.822107 
L 386.618182 199.6542 
L 404.072727 201.289585 
L 421.527273 201.409043 
L 438.981818 190.263331 
L 456.436364 172.120993 
L 473.890909 149.254047 
L 491.345455 124.79908 
L 508.8 116.830573 
L 526.254545 136.417729 
" style="fill:none;stroke:#00ff00;stroke-linecap:square;stroke-width:2;"/>
   </g>
   <g id="patch_3">
    <path d="M 86.4 305.28 
L 86.4 86.4 
" style="fill:none;stroke:#000000;stroke-linecap:square;stroke-linejoin:miter;stroke-width:0.8;"/>
   </g>
   <g id="patch_4">
    <path d="M 547.2 305.28 
L 547.2 86.4 
" style="fill:none;stroke:#000000;stroke-linecap:square;stroke-linejoin:miter;stroke-width:0.8;"/>
   </g>
   <g id="patch_5">
    <path d="M 86.4 305.28 
L 547.2 305.28 
" style="fill:none;stroke:#000000;stroke-linecap:square;stroke-linejoin:miter;stroke-width:0.8;"/>
   </g>
   <g id="patch_6">
    <path d="M 86.4 86.4 
L 547.2 86.4 
" style="fill:none;stroke:#000000;stroke-linecap:square;stroke-linejoin:miter;stroke-width:0.8;"/>
   </g>
   <g id="legend_1">
    <g id="patch_7">
     <path d="M 143.664525 81.768 
L 489.935475 81.768 
Q 491.788275 81.768 491.788275 79.9152 
L 491.788275 11.07175 
Q 491.788275 9.21895 489.935475 9.21895 
L 143.664525 9.21895 
Q 141.811725 9.21895 141.811725 11.07175 
L 141.811725 79.9152 
Q 141.811725 81.768 143.664525 81.768 
z
" style="fill:#ffffff;opacity:0.8;stroke:#cccccc;stroke-linejoin:miter;"/>
    </g>
    <g id="text_11">
     <!-- Phase [mm] -->
     <defs>
      <path d="M 19.671875 64.796875 
L 19.671875 37.40625 
L 32.078125 37.40625 
Q 38.96875 37.40625 42.71875 40.96875 
Q 46.484375 44.53125 46.484375 51.125 
Q 46.484375 57.671875 42.71875 61.234375 
Q 38.96875 64.796875 32.078125 64.796875 
z
M 9.8125 72.90625 
L 32.078125 72.90625 
Q 44.34375 72.90625 50.609375 67.359375 
Q 56.890625 61.8125 56.890625 51.125 
Q 56.890625 40.328125 50.609375 34.8125 
Q 44.34375 29.296875 32.078125 29.296875 
L 19.671875 29.296875 
L 19.671875 0 
L 9.8125 0 
z
" id="DejaVuSans-80"/>
      <path d="M 54.890625 33.015625 
L 54.890625 0 
L 45.90625 0 
L 45.90625 32.71875 
Q 45.90625 40.484375 42.875 44.328125 
Q 39.84375 48.1875 33.796875 48.1875 
Q 26.515625 48.1875 22.3125 43.546875 
Q 18.109375 38.921875 18.109375 30.90625 
L 18.109375 0 
L 9.078125 0 
L 9.078125 75.984375 
L 18.109375 75.984375 
L 18.109375 46.1875 
Q 21.34375 51.125 25.703125 53.5625 
Q 30.078125 56 35.796875 56 
Q 45.21875 56 50.046875 50.171875 
Q 54.890625 44.34375 54.890625 33.015625 
z
" id="DejaVuSans-104"/>
      <path d="M 34.28125 27.484375 
Q 23.390625 27.484375 19.1875 25 
Q 14.984375 22.515625 14.984375 16.5 
Q 14.984375 11.71875 18.140625 8.90625 
Q 21.296875 6.109375 26.703125 6.109375 
Q 34.1875 6.109375 38.703125 11.40625 
Q 43.21875 16.703125 43.21875 25.484375 
L 43.21875 27.484375 
z
M 52.203125 31.203125 
L 52.203125 0 
L 43.21875 0 
L 43.21875 8.296875 
Q 40.140625 3.328125 35.546875 0.953125 
Q 30.953125 -1.421875 24.3125 -1.421875 
Q 15.921875 -1.421875 10.953125 3.296875 
Q 6 8.015625 6 15.921875 
Q 6 25.140625 12.171875 29.828125 
Q 18.359375 34.515625 30.609375 34.515625 
L 43.21875 34.515625 
L 43.21875 35.40625 
Q 43.21875 41.609375 39.140625 45 
Q 35.0625 48.390625 27.6875 48.390625 
Q 23 48.390625 18.546875 47.265625 
Q 14.109375 46.140625 10.015625 43.890625 
L 10.015625 52.203125 
Q 14.9375 54.109375 19.578125 55.046875 
Q 24.21875 56 28.609375 56 
Q 40.484375 56 46.34375 49.84375 
Q 52.203125 43.703125 52.203125 31.203125 
z
" id="DejaVuSans-97"/>
      <path d="M 44.28125 53.078125 
L 44.28125 44.578125 
Q 40.484375 46.53125 36.375 47.5 
Q 32.28125 48.484375 27.875 48.484375 
Q 21.1875 48.484375 17.84375 46.4375 
Q 14.5 44.390625 14.5 40.28125 
Q 14.5 37.15625 16.890625 35.375 
Q 19.28125 33.59375 26.515625 31.984375 
L 29.59375 31.296875 
Q 39.15625 29.25 43.1875 25.515625 
Q 47.21875 21.78125 47.21875 15.09375 
Q 47.21875 7.46875 41.1875 3.015625 
Q 35.15625 -1.421875 24.609375 -1.421875 
Q 20.21875 -1.421875 15.453125 -0.5625 
Q 10.6875 0.296875 5.421875 2 
L 5.421875 11.28125 
Q 10.40625 8.6875 15.234375 7.390625 
Q 20.0625 6.109375 24.8125 6.109375 
Q 31.15625 6.109375 34.5625 8.28125 
Q 37.984375 10.453125 37.984375 14.40625 
Q 37.984375 18.0625 35.515625 20.015625 
Q 33.0625 21.96875 24.703125 23.78125 
L 21.578125 24.515625 
Q 13.234375 26.265625 9.515625 29.90625 
Q 5.8125 33.546875 5.8125 39.890625 
Q 5.8125 47.609375 11.28125 51.796875 
Q 16.75 56 26.8125 56 
Q 31.78125 56 36.171875 55.265625 
Q 40.578125 54.546875 44.28125 53.078125 
z
" id="DejaVuSans-115"/>
      <path d="M 56.203125 29.59375 
L 56.203125 25.203125 
L 14.890625 25.203125 
Q 15.484375 15.921875 20.484375 11.0625 
Q 25.484375 6.203125 34.421875 6.203125 
Q 39.59375 6.203125 44.453125 7.46875 
Q 49.3125 8.734375 54.109375 11.28125 
L 54.109375 2.78125 
Q 49.265625 0.734375 44.1875 -0.34375 
Q 39.109375 -1.421875 33.890625 -1.421875 
Q 20.796875 -1.421875 13.15625 6.1875 
Q 5.515625 13.8125 5.515625 26.8125 
Q 5.515625 40.234375 12.765625 48.109375 
Q 20.015625 56 32.328125 56 
Q 43.359375 56 49.78125 48.890625 
Q 56.203125 41.796875 56.203125 29.59375 
z
M 47.21875 32.234375 
Q 47.125 39.59375 43.09375 43.984375 
Q 39.0625 48.390625 32.421875 48.390625 
Q 24.90625 48.390625 20.390625 44.140625 
Q 15.875 39.890625 15.1875 32.171875 
z
" id="DejaVuSans-101"/>
     </defs>
     <g transform="translate(283.310162 21.361855)scale(0.11104 -0.11104)">
      <use xlink:href="#DejaVuSans-80"/>
      <use x="60.302734" xlink:href="#DejaVuSans-104"/>
      <use x="123.681641" xlink:href="#DejaVuSans-97"/>
      <use x="184.960938" xlink:href="#DejaVuSans-115"/>
      <use x="237.060547" xlink:href="#DejaVuSans-101"/>
      <use x="298.583984" xlink:href="#DejaVuSans-32"/>
      <use x="330.371094" xlink:href="#DejaVuSans-91"/>
      <use x="369.384766" xlink:href="#DejaVuSans-109"/>
      <use x="466.796875" xlink:href="#DejaVuSans-109"/>
      <use x="564.208984" xlink:href="#DejaVuSans-93"/>
     </g>
    </g>
    <g id="line2d_42">
     <path d="M 145.517325 32.099933 
L 164.045325 32.099933 
" style="fill:none;stroke:#0000ff;stroke-linecap:square;stroke-width:2;"/>
    </g>
    <g id="line2d_43"/>
    <g id="text_12">
     <!-- 0.0 -->
     <g transform="translate(171.456525 35.342333)scale(0.09264 -0.09264)">
      <use xlink:href="#DejaVuSans-48"/>
      <use x="63.623047" xlink:href="#DejaVuSans-46"/>
      <use x="95.410156" xlink:href="#DejaVuSans-48"/>
     </g>
    </g>
    <g id="line2d_44">
     <path d="M 145.517325 45.697748 
L 164.045325 45.697748 
" style="fill:none;stroke:#1600e9;stroke-linecap:square;stroke-width:2;"/>
    </g>
    <g id="line2d_45"/>
    <g id="text_13">
     <!-- 0.5 -->
     <g transform="translate(171.456525 48.940148)scale(0.09264 -0.09264)">
      <use xlink:href="#DejaVuSans-48"/>
      <use x="63.623047" xlink:href="#DejaVuSans-46"/>
      <use x="95.410156" xlink:href="#DejaVuSans-53"/>
     </g>
    </g>
    <g id="line2d_46">
     <path d="M 145.517325 59.295563 
L 164.045325 59.295563 
" style="fill:none;stroke:#2e00d1;stroke-linecap:square;stroke-width:2;"/>
    </g>
    <g id="line2d_47"/>
    <g id="text_14">
     <!-- 1.0 -->
     <g transform="translate(171.456525 62.537963)scale(0.09264 -0.09264)">
      <use xlink:href="#DejaVuSans-49"/>
      <use x="63.623047" xlink:href="#DejaVuSans-46"/>
      <use x="95.410156" xlink:href="#DejaVuSans-48"/>
     </g>
    </g>
    <g id="line2d_48">
     <path d="M 145.517325 72.893378 
L 164.045325 72.893378 
" style="fill:none;stroke:#4400bb;stroke-linecap:square;stroke-width:2;"/>
    </g>
    <g id="line2d_49"/>
    <g id="text_15">
     <!-- 1.5 -->
     <g transform="translate(171.456525 76.135778)scale(0.09264 -0.09264)">
      <use xlink:href="#DejaVuSans-49"/>
      <use x="63.623047" xlink:href="#DejaVuSans-46"/>
      <use x="95.410156" xlink:href="#DejaVuSans-53"/>
     </g>
    </g>
    <g id="line2d_50">
     <path d="M 204.71718 32.099933 
L 223.24518 32.099933 
" style="fill:none;stroke:#5c00a3;stroke-linecap:square;stroke-width:2;"/>
    </g>
    <g id="line2d_51"/>
    <g id="text_16">
     <!-- 2.0 -->
     <g transform="translate(230.65638 35.342333)scale(0.09264 -0.09264)">
      <use xlink:href="#DejaVuSans-50"/>
      <use x="63.623047" xlink:href="#DejaVuSans-46"/>
      <use x="95.410156" xlink:href="#DejaVuSans-48"/>
     </g>
    </g>
    <g id="line2d_52">
     <path d="M 204.71718 45.697748 
L 223.24518 45.697748 
" style="fill:none;stroke:#74008b;stroke-linecap:square;stroke-width:2;"/>
    </g>
    <g id="line2d_53"/>
    <g id="text_17">
     <!-- 2.5 -->
     <g transform="translate(230.65638 48.940148)scale(0.09264 -0.09264)">
      <use xlink:href="#DejaVuSans-50"/>
      <use x="63.623047" xlink:href="#DejaVuSans-46"/>
      <use x="95.410156" xlink:href="#DejaVuSans-53"/>
     </g>
    </g>
    <g id="line2d_54">
     <path d="M 204.71718 59.295563 
L 223.24518 59.295563 
" style="fill:none;stroke:#8a0075;stroke-linecap:square;stroke-width:2;"/>
    </g>
    <g id="line2d_55"/>
    <g id="text_18">
     <!-- 3.0 -->
     <defs>
      <path d="M 40.578125 39.3125 
Q 47.65625 37.796875 51.625 33 
Q 55.609375 28.21875 55.609375 21.1875 
Q 55.609375 10.40625 48.1875 4.484375 
Q 40.765625 -1.421875 27.09375 -1.421875 
Q 22.515625 -1.421875 17.65625 -0.515625 
Q 12.796875 0.390625 7.625 2.203125 
L 7.625 11.71875 
Q 11.71875 9.328125 16.59375 8.109375 
Q 21.484375 6.890625 26.8125 6.890625 
Q 36.078125 6.890625 40.9375 10.546875 
Q 45.796875 14.203125 45.796875 21.1875 
Q 45.796875 27.640625 41.28125 31.265625 
Q 36.765625 34.90625 28.71875 34.90625 
L 20.21875 34.90625 
L 20.21875 43.015625 
L 29.109375 43.015625 
Q 36.375 43.015625 40.234375 45.921875 
Q 44.09375 48.828125 44.09375 54.296875 
Q 44.09375 59.90625 40.109375 62.90625 
Q 36.140625 65.921875 28.71875 65.921875 
Q 24.65625 65.921875 20.015625 65.03125 
Q 15.375 64.15625 9.8125 62.3125 
L 9.8125 71.09375 
Q 15.4375 72.65625 20.34375 73.4375 
Q 25.25 74.21875 29.59375 74.21875 
Q 40.828125 74.21875 47.359375 69.109375 
Q 53.90625 64.015625 53.90625 55.328125 
Q 53.90625 49.265625 50.4375 45.09375 
Q 46.96875 40.921875 40.578125 39.3125 
z
" id="DejaVuSans-51"/>
     </defs>
     <g transform="translate(230.65638 62.537963)scale(0.09264 -0.09264)">
      <use xlink:href="#DejaVuSans-51"/>
      <use x="63.623047" xlink:href="#DejaVuSans-46"/>
      <use x="95.410156" xlink:href="#DejaVuSans-48"/>
     </g>
    </g>
    <g id="line2d_56">
     <path d="M 204.71718 72.893378 
L 223.24518 72.893378 
" style="fill:none;stroke:#a2005d;stroke-linecap:square;stroke-width:2;"/>
    </g>
    <g id="line2d_57"/>
    <g id="text_19">
     <!-- 3.5 -->
     <g transform="translate(230.65638 76.135778)scale(0.09264 -0.09264)">
      <use xlink:href="#DejaVuSans-51"/>
      <use x="63.623047" xlink:href="#DejaVuSans-46"/>
      <use x="95.410156" xlink:href="#DejaVuSans-53"/>
     </g>
    </g>
    <g id="line2d_58">
     <path d="M 263.917035 32.099933 
L 282.445035 32.099933 
" style="fill:none;stroke:#ba0045;stroke-linecap:square;stroke-width:2;"/>
    </g>
    <g id="line2d_59"/>
    <g id="text_20">
     <!-- 4.0 -->
     <defs>
      <path d="M 37.796875 64.3125 
L 12.890625 25.390625 
L 37.796875 25.390625 
z
M 35.203125 72.90625 
L 47.609375 72.90625 
L 47.609375 25.390625 
L 58.015625 25.390625 
L 58.015625 17.1875 
L 47.609375 17.1875 
L 47.609375 0 
L 37.796875 0 
L 37.796875 17.1875 
L 4.890625 17.1875 
L 4.890625 26.703125 
z
" id="DejaVuSans-52"/>
     </defs>
     <g transform="translate(289.856235 35.342333)scale(0.09264 -0.09264)">
      <use xlink:href="#DejaVuSans-52"/>
      <use x="63.623047" xlink:href="#DejaVuSans-46"/>
      <use x="95.410156" xlink:href="#DejaVuSans-48"/>
     </g>
    </g>
    <g id="line2d_60">
     <path d="M 263.917035 45.697748 
L 282.445035 45.697748 
" style="fill:none;stroke:#d0002f;stroke-linecap:square;stroke-width:2;"/>
    </g>
    <g id="line2d_61"/>
    <g id="text_21">
     <!-- 4.5 -->
     <g transform="translate(289.856235 48.940148)scale(0.09264 -0.09264)">
      <use xlink:href="#DejaVuSans-52"/>
      <use x="63.623047" xlink:href="#DejaVuSans-46"/>
      <use x="95.410156" xlink:href="#DejaVuSans-53"/>
     </g>
    </g>
    <g id="line2d_62">
     <path d="M 263.917035 59.295563 
L 282.445035 59.295563 
" style="fill:none;stroke:#e80017;stroke-linecap:square;stroke-width:2;"/>
    </g>
    <g id="line2d_63"/>
    <g id="text_22">
     <!-- 5.0 -->
     <g transform="translate(289.856235 62.537963)scale(0.09264 -0.09264)">
      <use xlink:href="#DejaVuSans-53"/>
      <use x="63.623047" xlink:href="#DejaVuSans-46"/>
      <use x="95.410156" xlink:href="#DejaVuSans-48"/>
     </g>
    </g>
    <g id="line2d_64">
     <path d="M 263.917035 72.893378 
L 282.445035 72.893378 
" style="fill:none;stroke:#fe0100;stroke-linecap:square;stroke-width:2;"/>
    </g>
    <g id="line2d_65"/>
    <g id="text_23">
     <!-- 5.5 -->
     <g transform="translate(289.856235 76.135778)scale(0.09264 -0.09264)">
      <use xlink:href="#DejaVuSans-53"/>
      <use x="63.623047" xlink:href="#DejaVuSans-46"/>
      <use x="95.410156" xlink:href="#DejaVuSans-53"/>
     </g>
    </g>
    <g id="line2d_66">
     <path d="M 323.11689 32.099933 
L 341.64489 32.099933 
" style="fill:none;stroke:#e81700;stroke-linecap:square;stroke-width:2;"/>
    </g>
    <g id="line2d_67"/>
    <g id="text_24">
     <!-- 6.0 -->
     <defs>
      <path d="M 33.015625 40.375 
Q 26.375 40.375 22.484375 35.828125 
Q 18.609375 31.296875 18.609375 23.390625 
Q 18.609375 15.53125 22.484375 10.953125 
Q 26.375 6.390625 33.015625 6.390625 
Q 39.65625 6.390625 43.53125 10.953125 
Q 47.40625 15.53125 47.40625 23.390625 
Q 47.40625 31.296875 43.53125 35.828125 
Q 39.65625 40.375 33.015625 40.375 
z
M 52.59375 71.296875 
L 52.59375 62.3125 
Q 48.875 64.0625 45.09375 64.984375 
Q 41.3125 65.921875 37.59375 65.921875 
Q 27.828125 65.921875 22.671875 59.328125 
Q 17.53125 52.734375 16.796875 39.40625 
Q 19.671875 43.65625 24.015625 45.921875 
Q 28.375 48.1875 33.59375 48.1875 
Q 44.578125 48.1875 50.953125 41.515625 
Q 57.328125 34.859375 57.328125 23.390625 
Q 57.328125 12.15625 50.6875 5.359375 
Q 44.046875 -1.421875 33.015625 -1.421875 
Q 20.359375 -1.421875 13.671875 8.265625 
Q 6.984375 17.96875 6.984375 36.375 
Q 6.984375 53.65625 15.1875 63.9375 
Q 23.390625 74.21875 37.203125 74.21875 
Q 40.921875 74.21875 44.703125 73.484375 
Q 48.484375 72.75 52.59375 71.296875 
z
" id="DejaVuSans-54"/>
     </defs>
     <g transform="translate(349.05609 35.342333)scale(0.09264 -0.09264)">
      <use xlink:href="#DejaVuSans-54"/>
      <use x="63.623047" xlink:href="#DejaVuSans-46"/>
      <use x="95.410156" xlink:href="#DejaVuSans-48"/>
     </g>
    </g>
    <g id="line2d_68">
     <path d="M 323.11689 45.697748 
L 341.64489 45.697748 
" style="fill:none;stroke:#d02f00;stroke-linecap:square;stroke-width:2;"/>
    </g>
    <g id="line2d_69"/>
    <g id="text_25">
     <!-- 6.5 -->
     <g transform="translate(349.05609 48.940148)scale(0.09264 -0.09264)">
      <use xlink:href="#DejaVuSans-54"/>
      <use x="63.623047" xlink:href="#DejaVuSans-46"/>
      <use x="95.410156" xlink:href="#DejaVuSans-53"/>
     </g>
    </g>
    <g id="line2d_70">
     <path d="M 323.11689 59.295563 
L 341.64489 59.295563 
" style="fill:none;stroke:#ba4500;stroke-linecap:square;stroke-width:2;"/>
    </g>
    <g id="line2d_71"/>
    <g id="text_26">
     <!-- 7.0 -->
     <defs>
      <path d="M 8.203125 72.90625 
L 55.078125 72.90625 
L 55.078125 68.703125 
L 28.609375 0 
L 18.3125 0 
L 43.21875 64.59375 
L 8.203125 64.59375 
z
" id="DejaVuSans-55"/>
     </defs>
     <g transform="translate(349.05609 62.537963)scale(0.09264 -0.09264)">
      <use xlink:href="#DejaVuSans-55"/>
      <use x="63.623047" xlink:href="#DejaVuSans-46"/>
      <use x="95.410156" xlink:href="#DejaVuSans-48"/>
     </g>
    </g>
    <g id="line2d_72">
     <path d="M 323.11689 72.893378 
L 341.64489 72.893378 
" style="fill:none;stroke:#a25d00;stroke-linecap:square;stroke-width:2;"/>
    </g>
    <g id="line2d_73"/>
    <g id="text_27">
     <!-- 7.5 -->
     <g transform="translate(349.05609 76.135778)scale(0.09264 -0.09264)">
      <use xlink:href="#DejaVuSans-55"/>
      <use x="63.623047" xlink:href="#DejaVuSans-46"/>
      <use x="95.410156" xlink:href="#DejaVuSans-53"/>
     </g>
    </g>
    <g id="line2d_74">
     <path d="M 382.316745 32.099933 
L 400.844745 32.099933 
" style="fill:none;stroke:#8a7500;stroke-linecap:square;stroke-width:2;"/>
    </g>
    <g id="line2d_75"/>
    <g id="text_28">
     <!-- 8.0 -->
     <defs>
      <path d="M 31.78125 34.625 
Q 24.75 34.625 20.71875 30.859375 
Q 16.703125 27.09375 16.703125 20.515625 
Q 16.703125 13.921875 20.71875 10.15625 
Q 24.75 6.390625 31.78125 6.390625 
Q 38.8125 6.390625 42.859375 10.171875 
Q 46.921875 13.96875 46.921875 20.515625 
Q 46.921875 27.09375 42.890625 30.859375 
Q 38.875 34.625 31.78125 34.625 
z
M 21.921875 38.8125 
Q 15.578125 40.375 12.03125 44.71875 
Q 8.5 49.078125 8.5 55.328125 
Q 8.5 64.0625 14.71875 69.140625 
Q 20.953125 74.21875 31.78125 74.21875 
Q 42.671875 74.21875 48.875 69.140625 
Q 55.078125 64.0625 55.078125 55.328125 
Q 55.078125 49.078125 51.53125 44.71875 
Q 48 40.375 41.703125 38.8125 
Q 48.828125 37.15625 52.796875 32.3125 
Q 56.78125 27.484375 56.78125 20.515625 
Q 56.78125 9.90625 50.3125 4.234375 
Q 43.84375 -1.421875 31.78125 -1.421875 
Q 19.734375 -1.421875 13.25 4.234375 
Q 6.78125 9.90625 6.78125 20.515625 
Q 6.78125 27.484375 10.78125 32.3125 
Q 14.796875 37.15625 21.921875 38.8125 
z
M 18.3125 54.390625 
Q 18.3125 48.734375 21.84375 45.5625 
Q 25.390625 42.390625 31.78125 42.390625 
Q 38.140625 42.390625 41.71875 45.5625 
Q 45.3125 48.734375 45.3125 54.390625 
Q 45.3125 60.0625 41.71875 63.234375 
Q 38.140625 66.40625 31.78125 66.40625 
Q 25.390625 66.40625 21.84375 63.234375 
Q 18.3125 60.0625 18.3125 54.390625 
z
" id="DejaVuSans-56"/>
     </defs>
     <g transform="translate(408.255945 35.342333)scale(0.09264 -0.09264)">
      <use xlink:href="#DejaVuSans-56"/>
      <use x="63.623047" xlink:href="#DejaVuSans-46"/>
      <use x="95.410156" xlink:href="#DejaVuSans-48"/>
     </g>
    </g>
    <g id="line2d_76">
     <path d="M 382.316745 45.697748 
L 400.844745 45.697748 
" style="fill:none;stroke:#748b00;stroke-linecap:square;stroke-width:2;"/>
    </g>
    <g id="line2d_77"/>
    <g id="text_29">
     <!-- 8.5 -->
     <g transform="translate(408.255945 48.940148)scale(0.09264 -0.09264)">
      <use xlink:href="#DejaVuSans-56"/>
      <use x="63.623047" xlink:href="#DejaVuSans-46"/>
      <use x="95.410156" xlink:href="#DejaVuSans-53"/>
     </g>
    </g>
    <g id="line2d_78">
     <path d="M 382.316745 59.295563 
L 400.844745 59.295563 
" style="fill:none;stroke:#5ca300;stroke-linecap:square;stroke-width:2;"/>
    </g>
    <g id="line2d_79"/>
    <g id="text_30">
     <!-- 9.0 -->
     <defs>
      <path d="M 10.984375 1.515625 
L 10.984375 10.5 
Q 14.703125 8.734375 18.5 7.8125 
Q 22.3125 6.890625 25.984375 6.890625 
Q 35.75 6.890625 40.890625 13.453125 
Q 46.046875 20.015625 46.78125 33.40625 
Q 43.953125 29.203125 39.59375 26.953125 
Q 35.25 24.703125 29.984375 24.703125 
Q 19.046875 24.703125 12.671875 31.3125 
Q 6.296875 37.9375 6.296875 49.421875 
Q 6.296875 60.640625 12.9375 67.421875 
Q 19.578125 74.21875 30.609375 74.21875 
Q 43.265625 74.21875 49.921875 64.515625 
Q 56.59375 54.828125 56.59375 36.375 
Q 56.59375 19.140625 48.40625 8.859375 
Q 40.234375 -1.421875 26.421875 -1.421875 
Q 22.703125 -1.421875 18.890625 -0.6875 
Q 15.09375 0.046875 10.984375 1.515625 
z
M 30.609375 32.421875 
Q 37.25 32.421875 41.125 36.953125 
Q 45.015625 41.5 45.015625 49.421875 
Q 45.015625 57.28125 41.125 61.84375 
Q 37.25 66.40625 30.609375 66.40625 
Q 23.96875 66.40625 20.09375 61.84375 
Q 16.21875 57.28125 16.21875 49.421875 
Q 16.21875 41.5 20.09375 36.953125 
Q 23.96875 32.421875 30.609375 32.421875 
z
" id="DejaVuSans-57"/>
     </defs>
     <g transform="translate(408.255945 62.537963)scale(0.09264 -0.09264)">
      <use xlink:href="#DejaVuSans-57"/>
      <use x="63.623047" xlink:href="#DejaVuSans-46"/>
      <use x="95.410156" xlink:href="#DejaVuSans-48"/>
     </g>
    </g>
    <g id="line2d_80">
     <path d="M 382.316745 72.893378 
L 400.844745 72.893378 
" style="fill:none;stroke:#44bb00;stroke-linecap:square;stroke-width:2;"/>
    </g>
    <g id="line2d_81"/>
    <g id="text_31">
     <!-- 9.5 -->
     <g transform="translate(408.255945 76.135778)scale(0.09264 -0.09264)">
      <use xlink:href="#DejaVuSans-57"/>
      <use x="63.623047" xlink:href="#DejaVuSans-46"/>
      <use x="95.410156" xlink:href="#DejaVuSans-53"/>
     </g>
    </g>
    <g id="line2d_82">
     <path d="M 441.5166 32.099933 
L 460.0446 32.099933 
" style="fill:none;stroke:#2ed100;stroke-linecap:square;stroke-width:2;"/>
    </g>
    <g id="line2d_83"/>
    <g id="text_32">
     <!-- 10.0 -->
     <g transform="translate(467.4558 35.342333)scale(0.09264 -0.09264)">
      <use xlink:href="#DejaVuSans-49"/>
      <use x="63.623047" xlink:href="#DejaVuSans-48"/>
      <use x="127.246094" xlink:href="#DejaVuSans-46"/>
      <use x="159.033203" xlink:href="#DejaVuSans-48"/>
     </g>
    </g>
    <g id="line2d_84">
     <path d="M 441.5166 45.697748 
L 460.0446 45.697748 
" style="fill:none;stroke:#16e900;stroke-linecap:square;stroke-width:2;"/>
    </g>
    <g id="line2d_85"/>
    <g id="text_33">
     <!-- 10.5 -->
     <g transform="translate(467.4558 48.940148)scale(0.09264 -0.09264)">
      <use xlink:href="#DejaVuSans-49"/>
      <use x="63.623047" xlink:href="#DejaVuSans-48"/>
      <use x="127.246094" xlink:href="#DejaVuSans-46"/>
      <use x="159.033203" xlink:href="#DejaVuSans-53"/>
     </g>
    </g>
    <g id="line2d_86">
     <path d="M 441.5166 59.295563 
L 460.0446 59.295563 
" style="fill:none;stroke:#00ff00;stroke-linecap:square;stroke-width:2;"/>
    </g>
    <g id="line2d_87"/>
    <g id="text_34">
     <!-- 11.0 -->
     <g transform="translate(467.4558 62.537963)scale(0.09264 -0.09264)">
      <use xlink:href="#DejaVuSans-49"/>
      <use x="63.623047" xlink:href="#DejaVuSans-49"/>
      <use x="127.246094" xlink:href="#DejaVuSans-46"/>
      <use x="159.033203" xlink:href="#DejaVuSans-48"/>
     </g>
    </g>
   </g>
  </g>
  <g id="axes_2">
   <g id="patch_8">
    <path d="M 86.4 524.16 
L 547.2 524.16 
L 547.2 305.28 
L 86.4 305.28 
z
" style="fill:#ffffff;"/>
   </g>
   <g id="matplotlib.axis_3">
    <g id="xtick_6">
     <g id="line2d_88">
      <path clip-path="url(#pe63383b155)" d="M 142.254545 524.16 
L 142.254545 305.28 
" style="fill:none;stroke:#b0b0b0;stroke-linecap:square;stroke-width:0.8;"/>
     </g>
     <g id="line2d_89">
      <g>
       <use style="stroke:#000000;stroke-width:0.8;" x="142.254545" xlink:href="#m68ef3c2873" y="524.16"/>
      </g>
     </g>
     <g id="text_35">
      <!-- −10 -->
      <g transform="translate(125.370795 543.3175)scale(0.16 -0.16)">
       <use xlink:href="#DejaVuSans-8722"/>
       <use x="83.789062" xlink:href="#DejaVuSans-49"/>
       <use x="147.412109" xlink:href="#DejaVuSans-48"/>
      </g>
     </g>
    </g>
    <g id="xtick_7">
     <g id="line2d_90">
      <path clip-path="url(#pe63383b155)" d="M 229.527273 524.16 
L 229.527273 305.28 
" style="fill:none;stroke:#b0b0b0;stroke-linecap:square;stroke-width:0.8;"/>
     </g>
     <g id="line2d_91">
      <g>
       <use style="stroke:#000000;stroke-width:0.8;" x="229.527273" xlink:href="#m68ef3c2873" y="524.16"/>
      </g>
     </g>
     <g id="text_36">
      <!-- −5 -->
      <g transform="translate(217.733523 543.3175)scale(0.16 -0.16)">
       <use xlink:href="#DejaVuSans-8722"/>
       <use x="83.789062" xlink:href="#DejaVuSans-53"/>
      </g>
     </g>
    </g>
    <g id="xtick_8">
     <g id="line2d_92">
      <path clip-path="url(#pe63383b155)" d="M 316.8 524.16 
L 316.8 305.28 
" style="fill:none;stroke:#b0b0b0;stroke-linecap:square;stroke-width:0.8;"/>
     </g>
     <g id="line2d_93">
      <g>
       <use style="stroke:#000000;stroke-width:0.8;" x="316.8" xlink:href="#m68ef3c2873" y="524.16"/>
      </g>
     </g>
     <g id="text_37">
      <!-- 0 -->
      <g transform="translate(311.71 543.3175)scale(0.16 -0.16)">
       <use xlink:href="#DejaVuSans-48"/>
      </g>
     </g>
    </g>
    <g id="xtick_9">
     <g id="line2d_94">
      <path clip-path="url(#pe63383b155)" d="M 404.072727 524.16 
L 404.072727 305.28 
" style="fill:none;stroke:#b0b0b0;stroke-linecap:square;stroke-width:0.8;"/>
     </g>
     <g id="line2d_95">
      <g>
       <use style="stroke:#000000;stroke-width:0.8;" x="404.072727" xlink:href="#m68ef3c2873" y="524.16"/>
      </g>
     </g>
     <g id="text_38">
      <!-- 5 -->
      <g transform="translate(398.982727 543.3175)scale(0.16 -0.16)">
       <use xlink:href="#DejaVuSans-53"/>
      </g>
     </g>
    </g>
    <g id="xtick_10">
     <g id="line2d_96">
      <path clip-path="url(#pe63383b155)" d="M 491.345455 524.16 
L 491.345455 305.28 
" style="fill:none;stroke:#b0b0b0;stroke-linecap:square;stroke-width:0.8;"/>
     </g>
     <g id="line2d_97">
      <g>
       <use style="stroke:#000000;stroke-width:0.8;" x="491.345455" xlink:href="#m68ef3c2873" y="524.16"/>
      </g>
     </g>
     <g id="text_39">
      <!-- 10 -->
      <g transform="translate(481.165455 543.3175)scale(0.16 -0.16)">
       <use xlink:href="#DejaVuSans-49"/>
       <use x="63.623047" xlink:href="#DejaVuSans-48"/>
      </g>
     </g>
    </g>
    <g id="text_40">
     <!-- x [mm] -->
     <defs>
      <path d="M 54.890625 54.6875 
L 35.109375 28.078125 
L 55.90625 0 
L 45.3125 0 
L 29.390625 21.484375 
L 13.484375 0 
L 2.875 0 
L 24.125 28.609375 
L 4.6875 54.6875 
L 15.28125 54.6875 
L 29.78125 35.203125 
L 44.28125 54.6875 
z
" id="DejaVuSans-120"/>
     </defs>
     <g transform="translate(287.695 562.8025)scale(0.16 -0.16)">
      <use xlink:href="#DejaVuSans-120"/>
      <use x="59.179688" xlink:href="#DejaVuSans-32"/>
      <use x="90.966797" xlink:href="#DejaVuSans-91"/>
      <use x="129.980469" xlink:href="#DejaVuSans-109"/>
      <use x="227.392578" xlink:href="#DejaVuSans-109"/>
      <use x="324.804688" xlink:href="#DejaVuSans-93"/>
     </g>
    </g>
   </g>
   <g id="matplotlib.axis_4">
    <g id="ytick_5">
     <g id="line2d_98">
      <path clip-path="url(#pe63383b155)" d="M 86.4 462.795705 
L 547.2 462.795705 
" style="fill:none;stroke:#b0b0b0;stroke-linecap:square;stroke-width:0.8;"/>
     </g>
     <g id="line2d_99">
      <g>
       <use style="stroke:#000000;stroke-width:0.8;" x="86.4" xlink:href="#mc2c6969579" y="462.795705"/>
      </g>
     </g>
     <g id="text_41">
      <!-- −20 -->
      <g transform="translate(45.6325 468.874455)scale(0.16 -0.16)">
       <use xlink:href="#DejaVuSans-8722"/>
       <use x="83.789062" xlink:href="#DejaVuSans-50"/>
       <use x="147.412109" xlink:href="#DejaVuSans-48"/>
      </g>
     </g>
    </g>
    <g id="ytick_6">
     <g id="line2d_100">
      <path clip-path="url(#pe63383b155)" d="M 86.4 396.532199 
L 547.2 396.532199 
" style="fill:none;stroke:#b0b0b0;stroke-linecap:square;stroke-width:0.8;"/>
     </g>
     <g id="line2d_101">
      <g>
       <use style="stroke:#000000;stroke-width:0.8;" x="86.4" xlink:href="#mc2c6969579" y="396.532199"/>
      </g>
     </g>
     <g id="text_42">
      <!-- 0 -->
      <g transform="translate(69.22 402.610949)scale(0.16 -0.16)">
       <use xlink:href="#DejaVuSans-48"/>
      </g>
     </g>
    </g>
    <g id="ytick_7">
     <g id="line2d_102">
      <path clip-path="url(#pe63383b155)" d="M 86.4 330.268692 
L 547.2 330.268692 
" style="fill:none;stroke:#b0b0b0;stroke-linecap:square;stroke-width:0.8;"/>
     </g>
     <g id="line2d_103">
      <g>
       <use style="stroke:#000000;stroke-width:0.8;" x="86.4" xlink:href="#mc2c6969579" y="330.268692"/>
      </g>
     </g>
     <g id="text_43">
      <!-- 20 -->
      <g transform="translate(59.04 336.347442)scale(0.16 -0.16)">
       <use xlink:href="#DejaVuSans-50"/>
       <use x="63.623047" xlink:href="#DejaVuSans-48"/>
      </g>
     </g>
    </g>
    <g id="text_44">
     <!-- Ix [G.cm] -->
     <g transform="translate(38.305 451.5325)rotate(-90)scale(0.16 -0.16)">
      <use xlink:href="#DejaVuSans-73"/>
      <use x="29.492188" xlink:href="#DejaVuSans-120"/>
      <use x="88.671875" xlink:href="#DejaVuSans-32"/>
      <use x="120.458984" xlink:href="#DejaVuSans-91"/>
      <use x="159.472656" xlink:href="#DejaVuSans-71"/>
      <use x="236.962891" xlink:href="#DejaVuSans-46"/>
      <use x="268.75" xlink:href="#DejaVuSans-99"/>
      <use x="323.730469" xlink:href="#DejaVuSans-109"/>
      <use x="421.142578" xlink:href="#DejaVuSans-93"/>
     </g>
    </g>
   </g>
   <g id="line2d_104">
    <path clip-path="url(#pe63383b155)" d="M 107.345455 480.895693 
L 124.8 422.783817 
L 142.254545 386.888471 
L 159.709091 359.674621 
L 177.163636 342.259301 
L 194.618182 334.704893 
L 212.072727 342.568295 
L 229.527273 357.151968 
L 246.981818 370.272732 
L 264.436364 378.82155 
L 281.890909 379.542956 
L 299.345455 376.766382 
L 316.8 373.631742 
L 334.254545 378.870981 
L 351.709091 383.017432 
L 369.163636 382.70666 
L 386.618182 381.390186 
L 404.072727 383.135205 
L 421.527273 379.792567 
L 438.981818 369.454547 
L 456.436364 364.748477 
L 473.890909 360.010459 
L 491.345455 370.225653 
L 508.8 406.183305 
L 526.254545 471.609345 
" style="fill:none;stroke:#0000ff;stroke-linecap:square;stroke-width:2;"/>
   </g>
   <g id="line2d_105">
    <path clip-path="url(#pe63383b155)" d="M 107.345455 490.09716 
L 124.8 431.942294 
L 142.254545 396.304134 
L 159.709091 368.352879 
L 177.163636 349.926149 
L 194.618182 340.286929 
L 212.072727 347.45035 
L 229.527273 362.482457 
L 246.981818 374.794385 
L 264.436364 381.183279 
L 281.890909 381.955338 
L 299.345455 379.736092 
L 316.8 377.800553 
L 334.254545 381.709305 
L 351.709091 383.845969 
L 369.163636 382.339838 
L 386.618182 380.473534 
L 404.072727 382.257943 
L 421.527273 378.691998 
L 438.981818 368.603578 
L 456.436364 363.505317 
L 473.890909 359.632382 
L 491.345455 369.215142 
L 508.8 402.738811 
L 526.254545 466.117338 
" style="fill:none;stroke:#1600e9;stroke-linecap:square;stroke-width:2;"/>
   </g>
   <g id="line2d_106">
    <path clip-path="url(#pe63383b155)" d="M 107.345455 490.421918 
L 124.8 430.418886 
L 142.254545 394.448789 
L 159.709091 366.630973 
L 177.163636 347.436941 
L 194.618182 338.685513 
L 212.072727 345.873514 
L 229.527273 361.234195 
L 246.981818 374.032326 
L 264.436364 380.490838 
L 281.890909 382.319571 
L 299.345455 378.207097 
L 316.8 376.645178 
L 334.254545 380.646066 
L 351.709091 383.411556 
L 369.163636 381.618506 
L 386.618182 381.461909 
L 404.072727 382.550314 
L 421.527273 378.840068 
L 438.981818 368.00686 
L 456.436364 362.100007 
L 473.890909 357.756256 
L 491.345455 366.436589 
L 508.8 400.315092 
L 526.254545 467.827767 
" style="fill:none;stroke:#2e00d1;stroke-linecap:square;stroke-width:2;"/>
   </g>
   <g id="line2d_107">
    <path clip-path="url(#pe63383b155)" d="M 107.345455 499.280032 
L 124.8 440.866927 
L 142.254545 404.643958 
L 159.709091 377.12871 
L 177.163636 357.985774 
L 194.618182 349.747049 
L 212.072727 355.593716 
L 229.527273 369.031326 
L 246.981818 381.396351 
L 264.436364 388.164873 
L 281.890909 388.010511 
L 299.345455 384.523323 
L 316.8 383.447822 
L 334.254545 388.186572 
L 351.709091 390.89428 
L 369.163636 389.797819 
L 386.618182 388.491308 
L 404.072727 390.606565 
L 421.527273 387.495332 
L 438.981818 376.446739 
L 456.436364 368.068908 
L 473.890909 362.669076 
L 491.345455 370.814979 
L 508.8 403.764935 
L 526.254545 468.716425 
" style="fill:none;stroke:#4400bb;stroke-linecap:square;stroke-width:2;"/>
   </g>
   <g id="line2d_108">
    <path clip-path="url(#pe63383b155)" d="M 107.345455 493.886097 
L 124.8 436.3573 
L 142.254545 399.149747 
L 159.709091 370.169575 
L 177.163636 350.199795 
L 194.618182 340.957905 
L 212.072727 348.042085 
L 229.527273 363.437846 
L 246.981818 374.439546 
L 264.436364 381.086973 
L 281.890909 382.068751 
L 299.345455 378.527956 
L 316.8 376.242917 
L 334.254545 380.56782 
L 351.709091 383.781169 
L 369.163636 382.034379 
L 386.618182 381.098374 
L 404.072727 382.514532 
L 421.527273 378.914339 
L 438.981818 368.239941 
L 456.436364 360.611631 
L 473.890909 356.028894 
L 491.345455 365.344769 
L 508.8 398.65795 
L 526.254545 463.642601 
" style="fill:none;stroke:#5c00a3;stroke-linecap:square;stroke-width:2;"/>
   </g>
   <g id="line2d_109">
    <path clip-path="url(#pe63383b155)" d="M 107.345455 495.343275 
L 124.8 434.837613 
L 142.254545 399.873585 
L 159.709091 371.857095 
L 177.163636 352.032775 
L 194.618182 342.12562 
L 212.072727 349.460183 
L 229.527273 363.751426 
L 246.981818 375.483875 
L 264.436364 381.938828 
L 281.890909 383.861587 
L 299.345455 381.029111 
L 316.8 378.491602 
L 334.254545 382.725376 
L 351.709091 385.393485 
L 369.163636 384.005969 
L 386.618182 382.757436 
L 404.072727 384.559121 
L 421.527273 381.671 
L 438.981818 371.438496 
L 456.436364 363.726634 
L 473.890909 358.17836 
L 491.345455 366.168323 
L 508.8 399.041167 
L 526.254545 463.795463 
" style="fill:none;stroke:#74008b;stroke-linecap:square;stroke-width:2;"/>
   </g>
   <g id="line2d_110">
    <path clip-path="url(#pe63383b155)" d="M 107.345455 495.045811 
L 124.8 434.88822 
L 142.254545 397.967913 
L 159.709091 370.712376 
L 177.163636 351.209909 
L 194.618182 341.373166 
L 212.072727 347.070523 
L 229.527273 359.581953 
L 246.981818 370.735564 
L 264.436364 376.866879 
L 281.890909 378.169503 
L 299.345455 374.566764 
L 316.8 373.13552 
L 334.254545 376.91805 
L 351.709091 379.645328 
L 369.163636 378.906205 
L 386.618182 378.497473 
L 404.072727 380.895013 
L 421.527273 376.298364 
L 438.981818 365.539536 
L 456.436364 357.860558 
L 473.890909 350.768888 
L 491.345455 357.688357 
L 508.8 386.694712 
L 526.254545 450.633799 
" style="fill:none;stroke:#8a0075;stroke-linecap:square;stroke-width:2;"/>
   </g>
   <g id="line2d_111">
    <path clip-path="url(#pe63383b155)" d="M 107.345455 504.045128 
L 124.8 444.97613 
L 142.254545 407.733256 
L 159.709091 380.001273 
L 177.163636 358.690019 
L 194.618182 348.384334 
L 212.072727 354.19822 
L 229.527273 365.977987 
L 246.981818 377.01919 
L 264.436364 383.060616 
L 281.890909 385.913438 
L 299.345455 382.194542 
L 316.8 382.122091 
L 334.254545 385.533253 
L 351.709091 386.676927 
L 369.163636 385.885449 
L 386.618182 383.191292 
L 404.072727 385.24749 
L 421.527273 380.211921 
L 438.981818 369.43827 
L 456.436364 360.671094 
L 473.890909 354.071262 
L 491.345455 359.786185 
L 508.8 388.109663 
L 526.254545 451.553514 
" style="fill:none;stroke:#a2005d;stroke-linecap:square;stroke-width:2;"/>
   </g>
   <g id="line2d_112">
    <path clip-path="url(#pe63383b155)" d="M 107.345455 491.252026 
L 124.8 431.963577 
L 142.254545 392.947506 
L 159.709091 364.845986 
L 177.163636 342.834933 
L 194.618182 332.598843 
L 212.072727 337.671682 
L 229.527273 350.827136 
L 246.981818 361.799097 
L 264.436364 367.118242 
L 281.890909 368.408094 
L 299.345455 366.4139 
L 316.8 366.114565 
L 334.254545 369.475241 
L 351.709091 371.593012 
L 369.163636 369.422458 
L 386.618182 367.462197 
L 404.072727 369.20144 
L 421.527273 365.057393 
L 438.981818 354.6761 
L 456.436364 345.865929 
L 473.890909 339.519597 
L 491.345455 345.000136 
L 508.8 375.097146 
L 526.254545 438.880902 
" style="fill:none;stroke:#ba0045;stroke-linecap:square;stroke-width:2;"/>
   </g>
   <g id="line2d_113">
    <path clip-path="url(#pe63383b155)" d="M 107.345455 502.097397 
L 124.8 442.409796 
L 142.254545 405.152571 
L 159.709091 376.790738 
L 177.163636 355.367561 
L 194.618182 343.403698 
L 212.072727 348.437629 
L 229.527273 360.390719 
L 246.981818 372.659854 
L 264.436364 379.039736 
L 281.890909 381.45413 
L 299.345455 379.004443 
L 316.8 376.571997 
L 334.254545 380.460478 
L 351.709091 381.668632 
L 369.163636 380.844054 
L 386.618182 378.184351 
L 404.072727 379.558172 
L 421.527273 373.753902 
L 438.981818 364.230693 
L 456.436364 354.075561 
L 473.890909 345.502296 
L 491.345455 350.350943 
L 508.8 378.442421 
L 526.254545 440.449556 
" style="fill:none;stroke:#d0002f;stroke-linecap:square;stroke-width:2;"/>
   </g>
   <g id="line2d_114">
    <path clip-path="url(#pe63383b155)" d="M 107.345455 513.458756 
L 124.8 454.391643 
L 142.254545 416.595196 
L 159.709091 387.821738 
L 177.163636 364.222991 
L 194.618182 352.489267 
L 212.072727 358.398851 
L 229.527273 368.814377 
L 246.981818 379.729847 
L 264.436364 385.326532 
L 281.890909 387.576985 
L 299.345455 383.529694 
L 316.8 382.059227 
L 334.254545 385.596113 
L 351.709091 387.327137 
L 369.163636 383.156029 
L 386.618182 378.763612 
L 404.072727 379.78584 
L 421.527273 374.170422 
L 438.981818 363.972864 
L 456.436364 353.582491 
L 473.890909 344.984155 
L 491.345455 348.749361 
L 508.8 375.520942 
L 526.254545 438.122216 
" style="fill:none;stroke:#e80017;stroke-linecap:square;stroke-width:2;"/>
   </g>
   <g id="line2d_115">
    <path clip-path="url(#pe63383b155)" d="M 107.345455 510.881966 
L 124.8 453.286234 
L 142.254545 414.686788 
L 159.709091 386.179945 
L 177.163636 362.97541 
L 194.618182 351.647144 
L 212.072727 355.890482 
L 229.527273 368.599226 
L 246.981818 378.854262 
L 264.436364 382.998625 
L 281.890909 386.187453 
L 299.345455 382.023937 
L 316.8 380.707462 
L 334.254545 383.201112 
L 351.709091 384.654523 
L 369.163636 382.348801 
L 386.618182 379.73545 
L 404.072727 381.076801 
L 421.527273 374.981114 
L 438.981818 364.205712 
L 456.436364 354.198277 
L 473.890909 346.406972 
L 491.345455 350.232338 
L 508.8 377.210421 
L 526.254545 441.376763 
" style="fill:none;stroke:#fe0100;stroke-linecap:square;stroke-width:2;"/>
   </g>
   <g id="line2d_116">
    <path clip-path="url(#pe63383b155)" d="M 107.345455 513.896583 
L 124.8 453.812201 
L 142.254545 416.510924 
L 159.709091 387.834795 
L 177.163636 365.222841 
L 194.618182 352.137732 
L 212.072727 356.879798 
L 229.527273 366.611939 
L 246.981818 376.266054 
L 264.436364 381.490867 
L 281.890909 382.247293 
L 299.345455 376.886135 
L 316.8 374.998773 
L 334.254545 377.221776 
L 351.709091 379.549222 
L 369.163636 377.228066 
L 386.618182 375.327372 
L 404.072727 376.724593 
L 421.527273 371.45791 
L 438.981818 360.074101 
L 456.436364 349.525811 
L 473.890909 340.671977 
L 491.345455 344.170399 
L 508.8 371.51208 
L 526.254545 434.082894 
" style="fill:none;stroke:#e81700;stroke-linecap:square;stroke-width:2;"/>
   </g>
   <g id="line2d_117">
    <path clip-path="url(#pe63383b155)" d="M 107.345455 514.210909 
L 124.8 453.852705 
L 142.254545 414.825252 
L 159.709091 386.550972 
L 177.163636 363.151164 
L 194.618182 351.417487 
L 212.072727 357.390951 
L 229.527273 368.035498 
L 246.981818 378.90977 
L 264.436364 383.725894 
L 281.890909 385.724963 
L 299.345455 382.342024 
L 316.8 380.759029 
L 334.254545 384.37105 
L 351.709091 386.999125 
L 369.163636 383.950242 
L 386.618182 379.831858 
L 404.072727 380.92171 
L 421.527273 375.707927 
L 438.981818 365.878219 
L 456.436364 355.791893 
L 473.890909 346.6907 
L 491.345455 350.988914 
L 508.8 376.522097 
L 526.254545 438.733226 
" style="fill:none;stroke:#d02f00;stroke-linecap:square;stroke-width:2;"/>
   </g>
   <g id="line2d_118">
    <path clip-path="url(#pe63383b155)" d="M 107.345455 504.295428 
L 124.8 446.115572 
L 142.254545 408.711038 
L 159.709091 379.834114 
L 177.163636 355.03977 
L 194.618182 342.605892 
L 212.072727 347.897942 
L 229.527273 360.634597 
L 246.981818 371.236546 
L 264.436364 375.288688 
L 281.890909 377.360705 
L 299.345455 373.375155 
L 316.8 372.747075 
L 334.254545 376.098023 
L 351.709091 378.510061 
L 369.163636 376.423597 
L 386.618182 373.894392 
L 404.072727 374.877043 
L 421.527273 369.192005 
L 438.981818 358.050349 
L 456.436364 347.579083 
L 473.890909 340.205926 
L 491.345455 344.265587 
L 508.8 372.472622 
L 526.254545 434.182554 
" style="fill:none;stroke:#ba4500;stroke-linecap:square;stroke-width:2;"/>
   </g>
   <g id="line2d_119">
    <path clip-path="url(#pe63383b155)" d="M 107.345455 502.781235 
L 124.8 445.075617 
L 142.254545 406.824233 
L 159.709091 378.477836 
L 177.163636 353.515946 
L 194.618182 342.498312 
L 212.072727 348.159496 
L 229.527273 359.992995 
L 246.981818 372.086243 
L 264.436364 376.297349 
L 281.890909 380.23222 
L 299.345455 375.561196 
L 316.8 375.287239 
L 334.254545 378.474386 
L 351.709091 380.53497 
L 369.163636 378.38604 
L 386.618182 375.72306 
L 404.072727 378.118199 
L 421.527273 372.38946 
L 438.981818 362.236198 
L 456.436364 351.634912 
L 473.890909 343.632577 
L 491.345455 348.680629 
L 508.8 375.185101 
L 526.254545 437.684498 
" style="fill:none;stroke:#a25d00;stroke-linecap:square;stroke-width:2;"/>
   </g>
   <g id="line2d_120">
    <path clip-path="url(#pe63383b155)" d="M 107.345455 501.654063 
L 124.8 443.846615 
L 142.254545 405.763592 
L 159.709091 378.655168 
L 177.163636 354.158113 
L 194.618182 344.659902 
L 212.072727 348.541546 
L 229.527273 362.652553 
L 246.981818 374.369896 
L 264.436364 379.578727 
L 281.890909 383.036372 
L 299.345455 378.000726 
L 316.8 378.878377 
L 334.254545 381.190475 
L 351.709091 384.192492 
L 369.163636 381.299878 
L 386.618182 378.977848 
L 404.072727 380.783171 
L 421.527273 374.318259 
L 438.981818 364.870006 
L 456.436364 354.260647 
L 473.890909 348.75728 
L 491.345455 352.40485 
L 508.8 379.83946 
L 526.254545 444.316045 
" style="fill:none;stroke:#8a7500;stroke-linecap:square;stroke-width:2;"/>
   </g>
   <g id="line2d_121">
    <path clip-path="url(#pe63383b155)" d="M 107.345455 494.897493 
L 124.8 436.036218 
L 142.254545 398.933508 
L 159.709091 371.942177 
L 177.163636 347.633519 
L 194.618182 338.702747 
L 212.072727 344.472887 
L 229.527273 358.194274 
L 246.981818 370.426486 
L 264.436364 375.512175 
L 281.890909 378.824161 
L 299.345455 376.048575 
L 316.8 375.414459 
L 334.254545 377.393247 
L 351.709091 381.461843 
L 369.163636 379.977342 
L 386.618182 378.34284 
L 404.072727 381.015831 
L 421.527273 376.101654 
L 438.981818 367.892635 
L 456.436364 356.364506 
L 473.890909 350.816823 
L 491.345455 355.692353 
L 508.8 383.589269 
L 526.254545 447.623629 
" style="fill:none;stroke:#748b00;stroke-linecap:square;stroke-width:2;"/>
   </g>
   <g id="line2d_122">
    <path clip-path="url(#pe63383b155)" d="M 107.345455 483.149426 
L 124.8 424.724934 
L 142.254545 389.94677 
L 159.709091 362.119895 
L 177.163636 341.381785 
L 194.618182 332.414849 
L 212.072727 338.756803 
L 229.527273 352.693453 
L 246.981818 365.185967 
L 264.436364 371.755461 
L 281.890909 374.438287 
L 299.345455 371.975564 
L 316.8 371.935786 
L 334.254545 375.507221 
L 351.709091 379.884919 
L 369.163636 378.867154 
L 386.618182 379.478334 
L 404.072727 382.257764 
L 421.527273 379.405373 
L 438.981818 369.084752 
L 456.436364 359.468296 
L 473.890909 354.120888 
L 491.345455 359.515689 
L 508.8 391.103176 
L 526.254545 455.724291 
" style="fill:none;stroke:#5ca300;stroke-linecap:square;stroke-width:2;"/>
   </g>
   <g id="line2d_123">
    <path clip-path="url(#pe63383b155)" d="M 107.345455 477.030942 
L 124.8 418.532193 
L 142.254545 382.86918 
L 159.709091 355.988978 
L 177.163636 334.137126 
L 194.618182 326.492224 
L 212.072727 333.26303 
L 229.527273 347.0093 
L 246.981818 359.363973 
L 264.436364 367.124191 
L 281.890909 370.506079 
L 299.345455 369.076424 
L 316.8 371.634749 
L 334.254545 376.295566 
L 351.709091 382.107931 
L 369.163636 381.301318 
L 386.618182 382.821725 
L 404.072727 387.182186 
L 421.527273 384.405831 
L 438.981818 375.906398 
L 456.436364 368.644065 
L 473.890909 364.723788 
L 491.345455 370.656278 
L 508.8 401.055126 
L 526.254545 465.339649 
" style="fill:none;stroke:#44bb00;stroke-linecap:square;stroke-width:2;"/>
   </g>
   <g id="line2d_124">
    <path clip-path="url(#pe63383b155)" d="M 107.345455 468.104476 
L 124.8 410.501847 
L 142.254545 376.117757 
L 159.709091 351.060669 
L 177.163636 330.821756 
L 194.618182 324.977434 
L 212.072727 331.732331 
L 229.527273 348.228695 
L 246.981818 361.137921 
L 264.436364 368.976057 
L 281.890909 372.240705 
L 299.345455 370.438604 
L 316.8 374.257063 
L 334.254545 378.560445 
L 351.709091 384.878576 
L 369.163636 383.984751 
L 386.618182 384.791182 
L 404.072727 387.983546 
L 421.527273 385.360175 
L 438.981818 377.411552 
L 456.436364 368.572045 
L 473.890909 366.489876 
L 491.345455 374.091582 
L 508.8 406.058301 
L 526.254545 471.554137 
" style="fill:none;stroke:#2ed100;stroke-linecap:square;stroke-width:2;"/>
   </g>
   <g id="line2d_125">
    <path clip-path="url(#pe63383b155)" d="M 107.345455 457.159527 
L 124.8 398.854993 
L 142.254545 366.182199 
L 159.709091 341.185047 
L 177.163636 321.039843 
L 194.618182 315.375535 
L 212.072727 323.627757 
L 229.527273 340.199028 
L 246.981818 353.280744 
L 264.436364 361.524065 
L 281.890909 365.81691 
L 299.345455 363.680651 
L 316.8 365.205851 
L 334.254545 370.075802 
L 351.709091 376.990526 
L 369.163636 378.179509 
L 386.618182 379.987868 
L 404.072727 385.184224 
L 421.527273 384.223322 
L 438.981818 378.20364 
L 456.436364 371.064139 
L 473.890909 367.424316 
L 491.345455 376.395741 
L 508.8 409.780946 
L 526.254545 477.299476 
" style="fill:none;stroke:#16e900;stroke-linecap:square;stroke-width:2;"/>
   </g>
   <g id="line2d_126">
    <path clip-path="url(#pe63383b155)" d="M 107.345455 452.635958 
L 124.8 396.453639 
L 142.254545 362.750466 
L 159.709091 340.468489 
L 177.163636 320.651508 
L 194.618182 315.229091 
L 212.072727 324.413757 
L 229.527273 341.594702 
L 246.981818 355.758981 
L 264.436364 365.869255 
L 281.890909 371.503628 
L 299.345455 370.367375 
L 316.8 374.164863 
L 334.254545 379.160353 
L 351.709091 386.812362 
L 369.163636 387.29371 
L 386.618182 389.186326 
L 404.072727 394.759675 
L 421.527273 393.436419 
L 438.981818 388.315413 
L 456.436364 382.123377 
L 473.890909 380.601971 
L 491.345455 389.267331 
L 508.8 421.873569 
L 526.254545 490.103072 
" style="fill:none;stroke:#00ff00;stroke-linecap:square;stroke-width:2;"/>
   </g>
   <g id="patch_9">
    <path d="M 86.4 524.16 
L 86.4 305.28 
" style="fill:none;stroke:#000000;stroke-linecap:square;stroke-linejoin:miter;stroke-width:0.8;"/>
   </g>
   <g id="patch_10">
    <path d="M 547.2 524.16 
L 547.2 305.28 
" style="fill:none;stroke:#000000;stroke-linecap:square;stroke-linejoin:miter;stroke-width:0.8;"/>
   </g>
   <g id="patch_11">
    <path d="M 86.4 524.16 
L 547.2 524.16 
" style="fill:none;stroke:#000000;stroke-linecap:square;stroke-linejoin:miter;stroke-width:0.8;"/>
   </g>
   <g id="patch_12">
    <path d="M 86.4 305.28 
L 547.2 305.28 
" style="fill:none;stroke:#000000;stroke-linecap:square;stroke-linejoin:miter;stroke-width:0.8;"/>
   </g>
  </g>
  <g id="text_45">
   <!-- Integrals (Coil) for 1991a @ y=+00.0 -->
   <defs>
    <path d="M 54.890625 33.015625 
L 54.890625 0 
L 45.90625 0 
L 45.90625 32.71875 
Q 45.90625 40.484375 42.875 44.328125 
Q 39.84375 48.1875 33.796875 48.1875 
Q 26.515625 48.1875 22.3125 43.546875 
Q 18.109375 38.921875 18.109375 30.90625 
L 18.109375 0 
L 9.078125 0 
L 9.078125 54.6875 
L 18.109375 54.6875 
L 18.109375 46.1875 
Q 21.34375 51.125 25.703125 53.5625 
Q 30.078125 56 35.796875 56 
Q 45.21875 56 50.046875 50.171875 
Q 54.890625 44.34375 54.890625 33.015625 
z
" id="DejaVuSans-110"/>
    <path d="M 18.3125 70.21875 
L 18.3125 54.6875 
L 36.8125 54.6875 
L 36.8125 47.703125 
L 18.3125 47.703125 
L 18.3125 18.015625 
Q 18.3125 11.328125 20.140625 9.421875 
Q 21.96875 7.515625 27.59375 7.515625 
L 36.8125 7.515625 
L 36.8125 0 
L 27.59375 0 
Q 17.1875 0 13.234375 3.875 
Q 9.28125 7.765625 9.28125 18.015625 
L 9.28125 47.703125 
L 2.6875 47.703125 
L 2.6875 54.6875 
L 9.28125 54.6875 
L 9.28125 70.21875 
z
" id="DejaVuSans-116"/>
    <path d="M 45.40625 27.984375 
Q 45.40625 37.75 41.375 43.109375 
Q 37.359375 48.484375 30.078125 48.484375 
Q 22.859375 48.484375 18.828125 43.109375 
Q 14.796875 37.75 14.796875 27.984375 
Q 14.796875 18.265625 18.828125 12.890625 
Q 22.859375 7.515625 30.078125 7.515625 
Q 37.359375 7.515625 41.375 12.890625 
Q 45.40625 18.265625 45.40625 27.984375 
z
M 54.390625 6.78125 
Q 54.390625 -7.171875 48.1875 -13.984375 
Q 42 -20.796875 29.203125 -20.796875 
Q 24.46875 -20.796875 20.265625 -20.09375 
Q 16.0625 -19.390625 12.109375 -17.921875 
L 12.109375 -9.1875 
Q 16.0625 -11.328125 19.921875 -12.34375 
Q 23.78125 -13.375 27.78125 -13.375 
Q 36.625 -13.375 41.015625 -8.765625 
Q 45.40625 -4.15625 45.40625 5.171875 
L 45.40625 9.625 
Q 42.625 4.78125 38.28125 2.390625 
Q 33.9375 0 27.875 0 
Q 17.828125 0 11.671875 7.65625 
Q 5.515625 15.328125 5.515625 27.984375 
Q 5.515625 40.671875 11.671875 48.328125 
Q 17.828125 56 27.875 56 
Q 33.9375 56 38.28125 53.609375 
Q 42.625 51.21875 45.40625 46.390625 
L 45.40625 54.6875 
L 54.390625 54.6875 
z
" id="DejaVuSans-103"/>
    <path d="M 41.109375 46.296875 
Q 39.59375 47.171875 37.8125 47.578125 
Q 36.03125 48 33.890625 48 
Q 26.265625 48 22.1875 43.046875 
Q 18.109375 38.09375 18.109375 28.8125 
L 18.109375 0 
L 9.078125 0 
L 9.078125 54.6875 
L 18.109375 54.6875 
L 18.109375 46.1875 
Q 20.953125 51.171875 25.484375 53.578125 
Q 30.03125 56 36.53125 56 
Q 37.453125 56 38.578125 55.875 
Q 39.703125 55.765625 41.0625 55.515625 
z
" id="DejaVuSans-114"/>
    <path d="M 9.421875 75.984375 
L 18.40625 75.984375 
L 18.40625 0 
L 9.421875 0 
z
" id="DejaVuSans-108"/>
    <path d="M 31 75.875 
Q 24.46875 64.65625 21.28125 53.65625 
Q 18.109375 42.671875 18.109375 31.390625 
Q 18.109375 20.125 21.3125 9.0625 
Q 24.515625 -2 31 -13.1875 
L 23.1875 -13.1875 
Q 15.875 -1.703125 12.234375 9.375 
Q 8.59375 20.453125 8.59375 31.390625 
Q 8.59375 42.28125 12.203125 53.3125 
Q 15.828125 64.359375 23.1875 75.875 
z
" id="DejaVuSans-40"/>
    <path d="M 64.40625 67.28125 
L 64.40625 56.890625 
Q 59.421875 61.53125 53.78125 63.8125 
Q 48.140625 66.109375 41.796875 66.109375 
Q 29.296875 66.109375 22.65625 58.46875 
Q 16.015625 50.828125 16.015625 36.375 
Q 16.015625 21.96875 22.65625 14.328125 
Q 29.296875 6.6875 41.796875 6.6875 
Q 48.140625 6.6875 53.78125 8.984375 
Q 59.421875 11.28125 64.40625 15.921875 
L 64.40625 5.609375 
Q 59.234375 2.09375 53.4375 0.328125 
Q 47.65625 -1.421875 41.21875 -1.421875 
Q 24.65625 -1.421875 15.125 8.703125 
Q 5.609375 18.84375 5.609375 36.375 
Q 5.609375 53.953125 15.125 64.078125 
Q 24.65625 74.21875 41.21875 74.21875 
Q 47.75 74.21875 53.53125 72.484375 
Q 59.328125 70.75 64.40625 67.28125 
z
" id="DejaVuSans-67"/>
    <path d="M 30.609375 48.390625 
Q 23.390625 48.390625 19.1875 42.75 
Q 14.984375 37.109375 14.984375 27.296875 
Q 14.984375 17.484375 19.15625 11.84375 
Q 23.34375 6.203125 30.609375 6.203125 
Q 37.796875 6.203125 41.984375 11.859375 
Q 46.1875 17.53125 46.1875 27.296875 
Q 46.1875 37.015625 41.984375 42.703125 
Q 37.796875 48.390625 30.609375 48.390625 
z
M 30.609375 56 
Q 42.328125 56 49.015625 48.375 
Q 55.71875 40.765625 55.71875 27.296875 
Q 55.71875 13.875 49.015625 6.21875 
Q 42.328125 -1.421875 30.609375 -1.421875 
Q 18.84375 -1.421875 12.171875 6.21875 
Q 5.515625 13.875 5.515625 27.296875 
Q 5.515625 40.765625 12.171875 48.375 
Q 18.84375 56 30.609375 56 
z
" id="DejaVuSans-111"/>
    <path d="M 9.421875 54.6875 
L 18.40625 54.6875 
L 18.40625 0 
L 9.421875 0 
z
M 9.421875 75.984375 
L 18.40625 75.984375 
L 18.40625 64.59375 
L 9.421875 64.59375 
z
" id="DejaVuSans-105"/>
    <path d="M 8.015625 75.875 
L 15.828125 75.875 
Q 23.140625 64.359375 26.78125 53.3125 
Q 30.421875 42.28125 30.421875 31.390625 
Q 30.421875 20.453125 26.78125 9.375 
Q 23.140625 -1.703125 15.828125 -13.1875 
L 8.015625 -13.1875 
Q 14.5 -2 17.703125 9.0625 
Q 20.90625 20.125 20.90625 31.390625 
Q 20.90625 42.671875 17.703125 53.65625 
Q 14.5 64.65625 8.015625 75.875 
z
" id="DejaVuSans-41"/>
    <path d="M 37.109375 75.984375 
L 37.109375 68.5 
L 28.515625 68.5 
Q 23.6875 68.5 21.796875 66.546875 
Q 19.921875 64.59375 19.921875 59.515625 
L 19.921875 54.6875 
L 34.71875 54.6875 
L 34.71875 47.703125 
L 19.921875 47.703125 
L 19.921875 0 
L 10.890625 0 
L 10.890625 47.703125 
L 2.296875 47.703125 
L 2.296875 54.6875 
L 10.890625 54.6875 
L 10.890625 58.5 
Q 10.890625 67.625 15.140625 71.796875 
Q 19.390625 75.984375 28.609375 75.984375 
z
" id="DejaVuSans-102"/>
    <path d="M 37.203125 26.21875 
Q 37.203125 19.234375 40.671875 15.25 
Q 44.140625 11.28125 50.203125 11.28125 
Q 56.203125 11.28125 59.640625 15.28125 
Q 63.09375 19.28125 63.09375 26.21875 
Q 63.09375 33.0625 59.578125 37.078125 
Q 56.0625 41.109375 50.09375 41.109375 
Q 44.1875 41.109375 40.6875 37.109375 
Q 37.203125 33.109375 37.203125 26.21875 
z
M 63.8125 11.625 
Q 60.890625 7.859375 57.109375 6.078125 
Q 53.328125 4.296875 48.296875 4.296875 
Q 39.890625 4.296875 34.640625 10.375 
Q 29.390625 16.453125 29.390625 26.21875 
Q 29.390625 35.984375 34.65625 42.078125 
Q 39.9375 48.1875 48.296875 48.1875 
Q 53.328125 48.1875 57.125 46.359375 
Q 60.9375 44.53125 63.8125 40.828125 
L 63.8125 47.21875 
L 70.796875 47.21875 
L 70.796875 11.28125 
Q 77.9375 12.359375 81.953125 17.796875 
Q 85.984375 23.25 85.984375 31.890625 
Q 85.984375 37.109375 84.4375 41.703125 
Q 82.90625 46.296875 79.78125 50.203125 
Q 74.703125 56.59375 67.40625 59.984375 
Q 60.109375 63.375 51.515625 63.375 
Q 45.515625 63.375 39.984375 61.78125 
Q 34.46875 60.203125 29.78125 57.078125 
Q 22.125 52.09375 17.796875 44.015625 
Q 13.484375 35.9375 13.484375 26.515625 
Q 13.484375 18.75 16.28125 11.953125 
Q 19.09375 5.171875 24.421875 0 
Q 29.546875 -5.078125 36.28125 -7.734375 
Q 43.015625 -10.40625 50.6875 -10.40625 
Q 56.984375 -10.40625 63.0625 -8.28125 
Q 69.140625 -6.15625 74.21875 -2.203125 
L 78.609375 -7.625 
Q 72.515625 -12.359375 65.3125 -14.875 
Q 58.109375 -17.390625 50.6875 -17.390625 
Q 41.65625 -17.390625 33.640625 -14.1875 
Q 25.640625 -10.984375 19.390625 -4.890625 
Q 13.140625 1.21875 9.859375 9.25 
Q 6.59375 17.28125 6.59375 26.515625 
Q 6.59375 35.40625 9.90625 43.453125 
Q 13.234375 51.515625 19.390625 57.625 
Q 25.6875 63.8125 33.9375 67.109375 
Q 42.1875 70.40625 51.421875 70.40625 
Q 61.765625 70.40625 70.625 66.15625 
Q 79.5 61.921875 85.5 54.109375 
Q 89.15625 49.3125 91.078125 43.703125 
Q 93.015625 38.09375 93.015625 32.078125 
Q 93.015625 19.234375 85.25 11.8125 
Q 77.484375 4.390625 63.8125 4.109375 
z
" id="DejaVuSans-64"/>
    <path d="M 10.59375 45.40625 
L 73.1875 45.40625 
L 73.1875 37.203125 
L 10.59375 37.203125 
z
M 10.59375 25.484375 
L 73.1875 25.484375 
L 73.1875 17.1875 
L 10.59375 17.1875 
z
" id="DejaVuSans-61"/>
    <path d="M 46 62.703125 
L 46 35.5 
L 73.1875 35.5 
L 73.1875 27.203125 
L 46 27.203125 
L 46 0 
L 37.796875 0 
L 37.796875 27.203125 
L 10.59375 27.203125 
L 10.59375 35.5 
L 37.796875 35.5 
L 37.796875 62.703125 
z
" id="DejaVuSans-43"/>
   </defs>
   <g transform="translate(108.903 26.109)scale(0.192 -0.192)">
    <use xlink:href="#DejaVuSans-73"/>
    <use x="29.492188" xlink:href="#DejaVuSans-110"/>
    <use x="92.871094" xlink:href="#DejaVuSans-116"/>
    <use x="132.080078" xlink:href="#DejaVuSans-101"/>
    <use x="193.603516" xlink:href="#DejaVuSans-103"/>
    <use x="257.080078" xlink:href="#DejaVuSans-114"/>
    <use x="298.193359" xlink:href="#DejaVuSans-97"/>
    <use x="359.472656" xlink:href="#DejaVuSans-108"/>
    <use x="387.255859" xlink:href="#DejaVuSans-115"/>
    <use x="439.355469" xlink:href="#DejaVuSans-32"/>
    <use x="471.142578" xlink:href="#DejaVuSans-40"/>
    <use x="510.15625" xlink:href="#DejaVuSans-67"/>
    <use x="579.980469" xlink:href="#DejaVuSans-111"/>
    <use x="641.162109" xlink:href="#DejaVuSans-105"/>
    <use x="668.945312" xlink:href="#DejaVuSans-108"/>
    <use x="696.728516" xlink:href="#DejaVuSans-41"/>
    <use x="735.742188" xlink:href="#DejaVuSans-32"/>
    <use x="767.529297" xlink:href="#DejaVuSans-102"/>
    <use x="802.734375" xlink:href="#DejaVuSans-111"/>
    <use x="863.916016" xlink:href="#DejaVuSans-114"/>
    <use x="905.029297" xlink:href="#DejaVuSans-32"/>
    <use x="936.816406" xlink:href="#DejaVuSans-49"/>
    <use x="1000.439453" xlink:href="#DejaVuSans-57"/>
    <use x="1064.0625" xlink:href="#DejaVuSans-57"/>
    <use x="1127.685547" xlink:href="#DejaVuSans-49"/>
    <use x="1191.308594" xlink:href="#DejaVuSans-97"/>
    <use x="1252.587891" xlink:href="#DejaVuSans-32"/>
    <use x="1284.375" xlink:href="#DejaVuSans-64"/>
    <use x="1384.375" xlink:href="#DejaVuSans-32"/>
    <use x="1416.162109" xlink:href="#DejaVuSans-121"/>
    <use x="1475.341797" xlink:href="#DejaVuSans-61"/>
    <use x="1559.130859" xlink:href="#DejaVuSans-43"/>
    <use x="1642.919922" xlink:href="#DejaVuSans-48"/>
    <use x="1706.542969" xlink:href="#DejaVuSans-48"/>
    <use x="1770.166016" xlink:href="#DejaVuSans-46"/>
    <use x="1801.953125" xlink:href="#DejaVuSans-48"/>
   </g>
  </g>
 </g>
 <defs>
  <clipPath id="p6bde9431a8">
   <rect height="218.88" width="460.8" x="86.4" y="86.4"/>
  </clipPath>
  <clipPath id="pe63383b155">
   <rect height="218.88" width="460.8" x="86.4" y="305.28"/>
  </clipPath>
 </defs>
</svg>
