<svg version="1.1" id="svg10" xml:space="preserve" width="1176.9852" height="430.58835" viewBox="0 0 1176.9852 430.58837" xmlns="http://www.w3.org/2000/svg"><metadata id="metadata16">image/svg+xml</metadata><defs id="defs14"><clipPath clipPathUnits="userSpaceOnUse" id="clipPath30"><path d="M 0,0 H 800 V 575 H 0 Z" id="path28"></path></clipPath><clipPath clipPathUnits="userSpaceOnUse" id="clipPath84"><path d="M 10.358,564.5969 H 788.3382 V 10.9052 H 10.358 Z" id="path82"></path></clipPath></defs><g id="g18" transform="matrix(1.3333333,0,0,-1.3333333,-124.36916,806.94911)"><g id="g20"><g id="g22"><g id="g24" transform="matrix(1.3929,0,0,1.3872,0,1.3872)"><g id="g26" clip-path="url(#clipPath30)"><g id="g32"><g id="g78"><g id="g80" clip-path="url(#clipPath84)"></g></g><path d="m 306.616,300.6902 h 77.1436 V 207.6837 H 306.616 Z" style="fill:#c0c0c0;fill-opacity:1;fill-rule:nonzero;stroke:#000000;stroke-width:0.0515;stroke-linecap:round;stroke-linejoin:miter;stroke-miterlimit:10;stroke-dasharray:none;stroke-opacity:1" id="path182"></path><text transform="matrix(1,0,0,-1,311.7692,256.1796)" style="font-variant:normal;font-weight:normal;font-size:9.31620026px;font-family:'Times New Roman';-inkscape-font-specification:'Times New Bold';writing-mode:lr-tb;fill:#080d02;fill-opacity:1;fill-rule:nonzero;stroke:none" id="text186"><tspan x="0 6.185957 11.337815 14.412162 17.486507 21.594952 25.70619 27.603901 34.342308 42.114815 47.306732 49.647892 56.908009 62.612316" y="0" id="tspan184">Buffer Amp OPs</tspan></text>
<path d="m 66.9917,305.8659 h 41.0711 V 202.508 H 66.9917 Z" style="fill:#d9ead3;fill-opacity:1;fill-rule:nonzero;stroke:#080d02;stroke-width:0.0515;stroke-linecap:round;stroke-linejoin:miter;stroke-miterlimit:10;stroke-dasharray:none;stroke-opacity:1" id="path192"></path><text transform="matrix(0,1,1,0,90.6965,223.0554)" style="font-variant:normal;font-weight:normal;font-size:9.31620026px;font-family:'Times New Roman';-inkscape-font-specification:'Times New Bold';writing-mode:lr-tb;fill:#000000;fill-opacity:1;fill-rule:nonzero;stroke:none" id="text196"><tspan x="0" y="0" id="tspan194">I</tspan></text>
<text transform="matrix(0,1,1,0,90.6965,226.6783)" style="font-variant:normal;font-weight:normal;font-size:9.31620026px;font-family:'Times New Roman';-inkscape-font-specification:'Times New Bold';writing-mode:lr-tb;fill:#000000;fill-opacity:1;fill-rule:nonzero;stroke:none" id="text200"><tspan x="0" y="0" id="tspan198">n</tspan></text>
<text transform="matrix(0,1,1,0,90.6965,231.854)" style="font-variant:normal;font-weight:normal;font-size:9.31620026px;font-family:'Times New Roman';-inkscape-font-specification:'Times New Bold';writing-mode:lr-tb;fill:#000000;fill-opacity:1;fill-rule:nonzero;stroke:none" id="text204"><tspan x="0" y="0" id="tspan202">p</tspan></text>
<text transform="matrix(0,1,1,0,90.6965,237.0296)" style="font-variant:normal;font-weight:normal;font-size:9.31620026px;font-family:'Times New Roman';-inkscape-font-specification:'Times New Bold';writing-mode:lr-tb;fill:#000000;fill-opacity:1;fill-rule:nonzero;stroke:none" id="text208"><tspan x="0" y="0" id="tspan206">u</tspan></text>
<text transform="matrix(0,1,1,0,90.6965,242.2053)" style="font-variant:normal;font-weight:normal;font-size:9.31620026px;font-family:'Times New Roman';-inkscape-font-specification:'Times New Bold';writing-mode:lr-tb;fill:#000000;fill-opacity:1;fill-rule:nonzero;stroke:none" id="text212"><tspan x="0" y="0" id="tspan210">t</tspan></text>
<text transform="matrix(0,1,1,0,90.6965,247.726)" style="font-variant:normal;font-weight:normal;font-size:9.31620026px;font-family:'Times New Roman';-inkscape-font-specification:'Times New Bold';writing-mode:lr-tb;fill:#000000;fill-opacity:1;fill-rule:nonzero;stroke:none" id="text216"><tspan x="0" y="0" id="tspan214">c</tspan></text>
<text transform="matrix(0,1,1,0,90.6965,251.8665)" style="font-variant:normal;font-weight:normal;font-size:9.31620026px;font-family:'Times New Roman';-inkscape-font-specification:'Times New Bold';writing-mode:lr-tb;fill:#000000;fill-opacity:1;fill-rule:nonzero;stroke:none" id="text220"><tspan x="0" y="0" id="tspan218">o</tspan></text>
<text transform="matrix(0,1,1,0,90.6965,256.5246)" style="font-variant:normal;font-weight:normal;font-size:9.31620026px;font-family:'Times New Roman';-inkscape-font-specification:'Times New Bold';writing-mode:lr-tb;fill:#000000;fill-opacity:1;fill-rule:nonzero;stroke:none" id="text224"><tspan x="0" y="0" id="tspan222">n</tspan></text>
<text transform="matrix(0,1,1,0,90.6965,261.7003)" style="font-variant:normal;font-weight:normal;font-size:9.31620026px;font-family:'Times New Roman';-inkscape-font-specification:'Times New Bold';writing-mode:lr-tb;fill:#000000;fill-opacity:1;fill-rule:nonzero;stroke:none" id="text228"><tspan x="0" y="0" id="tspan226">n</tspan></text>
<text transform="matrix(0,1,1,0,90.6965,266.8759)" style="font-variant:normal;font-weight:normal;font-size:9.31620026px;font-family:'Times New Roman';-inkscape-font-specification:'Times New Bold';writing-mode:lr-tb;fill:#000000;fill-opacity:1;fill-rule:nonzero;stroke:none" id="text232"><tspan x="0" y="0" id="tspan230">e</tspan></text>
<text transform="matrix(0,1,1,0,90.6965,271.189)" style="font-variant:normal;font-weight:normal;font-size:9.31620026px;font-family:'Times New Roman';-inkscape-font-specification:'Times New Bold';writing-mode:lr-tb;fill:#000000;fill-opacity:1;fill-rule:nonzero;stroke:none" id="text236"><tspan x="0" y="0" id="tspan234">c</tspan></text>
<text transform="matrix(0,1,1,0,90.6965,275.3295)" style="font-variant:normal;font-weight:normal;font-size:9.31620026px;font-family:'Times New Roman';-inkscape-font-specification:'Times New Bold';writing-mode:lr-tb;fill:#000000;fill-opacity:1;fill-rule:nonzero;stroke:none" id="text240"><tspan x="0" y="0" id="tspan238">t</tspan></text>
<text transform="matrix(0,1,1,0,90.6965,278.4349)" style="font-variant:normal;font-weight:normal;font-size:9.31620026px;font-family:'Times New Roman';-inkscape-font-specification:'Times New Bold';writing-mode:lr-tb;fill:#000000;fill-opacity:1;fill-rule:nonzero;stroke:none" id="text244"><tspan x="0" y="0" id="tspan242">o</tspan></text>
<text transform="matrix(0,1,1,0,90.6965,283.093)" style="font-variant:normal;font-weight:normal;font-size:9.31620026px;font-family:'Times New Roman';-inkscape-font-specification:'Times New Bold';writing-mode:lr-tb;fill:#000000;fill-opacity:1;fill-rule:nonzero;stroke:none" id="text248"><tspan x="0" y="0" id="tspan246">r</tspan></text>
<path d="M 592.6192,305.8659 H 700.682 V 207.6837 H 592.6192 Z" style="fill:#443c3e;fill-opacity:1;fill-rule:nonzero;stroke:#ffffff;stroke-width:0.0515;stroke-linecap:round;stroke-linejoin:miter;stroke-miterlimit:10;stroke-dasharray:none;stroke-opacity:1" id="path250"></path><path d="m 453.4825,300.6902 h 66.8371 v -93.0065 h -66.8371 z" style="fill:#ffffe8;fill-opacity:1;fill-rule:nonzero;stroke:#080d02;stroke-width:0.0515;stroke-linecap:round;stroke-linejoin:miter;stroke-miterlimit:10;stroke-dasharray:none;stroke-opacity:1" id="path260"></path><path d="m 383.9142,279.9876 h 66.9917" style="fill:none;stroke:#000000;stroke-width:1.546;stroke-linecap:round;stroke-linejoin:miter;stroke-miterlimit:10;stroke-dasharray:none;stroke-opacity:1" id="path262"></path><path d="m 453.2248,279.9876 -8.5028,-3.1054 v 6.2108 z" style="fill:#000000;fill-opacity:1;fill-rule:evenodd;stroke:none" id="path264"></path><path d="m 453.2248,279.9876 -8.5028,3.1054 v -6.2108 z" style="fill:none;stroke:#000000;stroke-width:0.0515;stroke-linecap:round;stroke-linejoin:miter;stroke-miterlimit:10;stroke-dasharray:none;stroke-opacity:1" id="path266"></path><text transform="matrix(1,0,0,-1,458.6357,256.1796)" style="font-variant:normal;font-weight:normal;font-size:9.31620026px;font-family:'Times New Roman';-inkscape-font-specification:'Times New Bold';writing-mode:lr-tb;fill:#080d02;fill-opacity:1;fill-rule:nonzero;stroke:none" id="text270"><tspan x="0 6.7346811 9.3329687 16.06765 18.405085 25.139765 29.80625 34.994442 39.660927 43.805702 47.950481 51.061161 55.205936" y="0" id="tspan268">A/D Converter</tspan></text>
<path d="m 525.6274,254.1093 h 64.4152" style="fill:none;stroke:#000000;stroke-width:1.546;stroke-linecap:round;stroke-linejoin:miter;stroke-miterlimit:10;stroke-dasharray:none;stroke-opacity:1" id="path272"></path><path d="m 531.8113,251.0039 -8.5028,3.1054 8.5028,3.1054 z" style="fill:#000000;fill-opacity:1;fill-rule:evenodd;stroke:none" id="path274"></path><path d="m 523.3085,254.1093 8.5028,-3.1054 v 6.2108 z" style="fill:none;stroke:#000000;stroke-width:0.0515;stroke-linecap:round;stroke-linejoin:miter;stroke-miterlimit:10;stroke-dasharray:none;stroke-opacity:1" id="path276"></path><path d="m 592.3615,254.1093 -8.5028,-3.1054 v 6.2108 z" style="fill:#000000;fill-opacity:1;fill-rule:evenodd;stroke:none" id="path278"></path><path d="m 592.3615,254.1093 -8.5028,3.1054 v -6.2108 z" style="fill:none;stroke:#000000;stroke-width:0.0515;stroke-linecap:round;stroke-linejoin:miter;stroke-miterlimit:10;stroke-dasharray:none;stroke-opacity:1" id="path280"></path><text transform="matrix(1,0,0,-1,608.0788,256.1796)" style="font-variant:normal;font-weight:normal;font-size:9.31620026px;font-family:'Times New Roman';-inkscape-font-specification:'Times New Bold';writing-mode:lr-tb;fill:#e5dec5;fill-opacity:1;fill-rule:nonzero;stroke:none" id="text284"><tspan x="0 6.224153 10.370794 15.039142 19.707489 22.30764 26.454281 28.793579 35.017731 39.686081 44.876137 49.022778 51.362072 57.586227 60.186378 64.854729 69.001366" y="0" id="tspan282">Beagle Bone Black</tspan></text>
<text transform="matrix(1,0,0,-1,551.3935,261.3552)" style="font-variant:normal;font-weight:normal;font-size:9.31620026px;font-family:'Times New Roman';-inkscape-font-specification:'Times New Bold';writing-mode:lr-tb;fill:#080d02;fill-opacity:1;fill-rule:nonzero;stroke:none" id="text288"><tspan x="0 5.1788754 10.870142" y="0" id="tspan286">SPI</tspan></text>
<path d="m 551.3935,435.2573 h 66.8371 v -30.8987 h -66.8371 z" style="fill:#e7ec73;fill-opacity:1;fill-rule:nonzero;stroke:#080d02;stroke-width:0.0515;stroke-linecap:round;stroke-linejoin:miter;stroke-miterlimit:10;stroke-dasharray:none;stroke-opacity:1" id="path290"></path><text transform="matrix(1,0,0,-1,560.841,416.6249)" style="font-variant:normal;font-weight:normal;font-size:9.31620026px;font-family:'Times New Roman';-inkscape-font-specification:'Times New Bold';writing-mode:lr-tb;fill:#080d02;fill-opacity:1;fill-rule:nonzero;stroke:none" id="text294"><tspan x="0 4.5733228 11.21391 13.066902 18.80475 23.505705" y="0" id="tspan292">5V To </tspan></text>
<text transform="matrix(1,0,0,-1,586.71954,416.6249)" style="font-variant:normal;font-weight:normal;font-size:9.31620026px;font-family:'Times New Roman';-inkscape-font-specification:'Times New Bold';writing-mode:lr-tb;fill:#080d02;fill-opacity:1;fill-rule:nonzero;stroke:none" id="text298"><tspan x="0" y="0" id="tspan296">±</tspan></text>
<text transform="matrix(1,0,0,-1,591.89562,416.6249)" style="font-variant:normal;font-weight:normal;font-size:9.31620026px;font-family:'Times New Roman';-inkscape-font-specification:'Times New Bold';writing-mode:lr-tb;fill:#080d02;fill-opacity:1;fill-rule:nonzero;stroke:none" id="text302"><tspan x="0 4.6590314 9.3180628" y="0" id="tspan300">12V</tspan></text>
<path d="m 620.9618,419.7303 h 23.1895" style="fill:none;stroke:#000000;stroke-width:1.546;stroke-linecap:round;stroke-linejoin:miter;stroke-miterlimit:10;stroke-dasharray:none;stroke-opacity:1" id="path304"></path><path d="m 627.1457,416.6249 -8.5028,3.1054 8.5028,3.1054 z" style="fill:#000000;fill-opacity:1;fill-rule:evenodd;stroke:none" id="path306"></path><path d="m 618.6429,419.7303 8.5028,-3.1054 v 6.2108 z" style="fill:none;stroke:#000000;stroke-width:0.0515;stroke-linecap:round;stroke-linejoin:miter;stroke-miterlimit:10;stroke-dasharray:none;stroke-opacity:1" id="path308"></path><path d="M 644.1513,419.7303 V 305.8659" style="fill:none;stroke:#000000;stroke-width:1.546;stroke-linecap:round;stroke-linejoin:miter;stroke-miterlimit:10;stroke-dasharray:none;stroke-opacity:1" id="path310"></path><text transform="matrix(1,0,0,-1,649.3044,395.9223)" style="font-variant:normal;font-weight:normal;font-size:9.31620026px;font-family:'Times New Roman';-inkscape-font-specification:'Times New Bold';writing-mode:lr-tb;fill:#080d02;fill-opacity:1;fill-rule:nonzero;stroke:none" id="text314"><tspan x="0 4.6590314" y="0" id="tspan312">5V</tspan></text>
<path d="M 345.2651,419.7303 H 551.3935" style="fill:none;stroke:#000000;stroke-width:1.546;stroke-linecap:round;stroke-linejoin:miter;stroke-miterlimit:10;stroke-dasharray:none;stroke-opacity:1" id="path316"></path><path d="M 345.2651,419.7303 V 303.2781" style="fill:none;stroke:#000000;stroke-width:1.546;stroke-linecap:round;stroke-linejoin:miter;stroke-miterlimit:10;stroke-dasharray:none;stroke-opacity:1" id="path318"></path><path d="m 345.2651,300.949 -3.0919,8.5398 h 6.1838 z" style="fill:#000000;fill-opacity:1;fill-rule:evenodd;stroke:none" id="path320"></path><path d="m 345.2651,300.949 3.0919,8.5398 h -6.1838 z" style="fill:none;stroke:#000000;stroke-width:0.0515;stroke-linecap:round;stroke-linejoin:miter;stroke-miterlimit:10;stroke-dasharray:none;stroke-opacity:1" id="path322"></path><text transform="matrix(1,0,0,-1,427.7164,426.9762)" style="font-variant:normal;font-weight:normal;font-size:9.31620026px;font-family:'Times New Roman';-inkscape-font-specification:'Times New Bold';writing-mode:lr-tb;fill:#080d02;fill-opacity:1;fill-rule:nonzero;stroke:none" id="text326"><tspan x="0" y="0" id="tspan324">±</tspan></text>
<text transform="matrix(1,0,0,-1,432.89248,426.9762)" style="font-variant:normal;font-weight:normal;font-size:9.31620026px;font-family:'Times New Roman';-inkscape-font-specification:'Times New Bold';writing-mode:lr-tb;fill:#080d02;fill-opacity:1;fill-rule:nonzero;stroke:none" id="text330"><tspan x="0 4.6590314 9.3180628" y="0" id="tspan328">12V</tspan></text>
<path d="m 453.4825,373.1494 h 77.1436 v -30.8987 h -77.1436 z" style="fill:#9ea175;fill-opacity:1;fill-rule:nonzero;stroke:#080d02;stroke-width:0.0515;stroke-linecap:round;stroke-linejoin:miter;stroke-miterlimit:10;stroke-dasharray:none;stroke-opacity:1" id="path332"></path><text transform="matrix(1,0,0,-1,458.6357,354.517)" style="font-variant:normal;font-weight:normal;font-size:9.31620026px;font-family:'Times New Roman';-inkscape-font-specification:'Times New Bold';writing-mode:lr-tb;fill:#080d02;fill-opacity:1;fill-rule:nonzero;stroke:none" id="text336"><tspan x="0 6.6955528 10.801202 13.872753 17.978403 22.08312 26.227898 31.41609 35.560867 39.705643 42.043079 46.709564 51.376049 53.974335 57.085014 61.751499 66.417984" y="0" id="tspan334">Reference voltage</tspan></text>
<path d="M 489.555,342.0955 V 303.2781" style="fill:none;stroke:#000000;stroke-width:1.546;stroke-linecap:round;stroke-linejoin:miter;stroke-miterlimit:10;stroke-dasharray:none;stroke-opacity:1" id="path338"></path><path d="m 489.555,300.949 -3.092,8.5398 h 6.1839 z" style="fill:#000000;fill-opacity:1;fill-rule:evenodd;stroke:none" id="path340"></path><path d="m 489.555,300.949 3.0919,8.5398 h -6.1839 z" style="fill:none;stroke:#000000;stroke-width:0.0515;stroke-linecap:round;stroke-linejoin:miter;stroke-miterlimit:10;stroke-dasharray:none;stroke-opacity:1" id="path342"></path><path d="M 489.555,419.7303 V 375.7372" style="fill:none;stroke:#000000;stroke-width:1.546;stroke-linecap:round;stroke-linejoin:miter;stroke-miterlimit:10;stroke-dasharray:none;stroke-opacity:1" id="path344"></path><path d="m 489.555,373.4082 -3.092,8.5398 h 6.1839 z" style="fill:#000000;fill-opacity:1;fill-rule:evenodd;stroke:none" id="path346"></path><path d="m 489.555,373.4082 3.0919,8.5398 h -6.1839 z" style="fill:none;stroke:#000000;stroke-width:0.0515;stroke-linecap:round;stroke-linejoin:miter;stroke-miterlimit:10;stroke-dasharray:none;stroke-opacity:1" id="path348"></path><text transform="matrix(1,0,0,-1,494.7081,401.098)" style="font-variant:normal;font-weight:normal;font-size:9.31620026px;font-family:'Times New Roman';-inkscape-font-specification:'Times New Bold';writing-mode:lr-tb;fill:#080d02;fill-opacity:1;fill-rule:nonzero;stroke:none" id="text352"><tspan x="0 5.3204818 9.9888296 14.657178" y="0" id="tspan350">+12V</tspan></text>
<text transform="matrix(1,0,0,-1,494.7081,323.4631)" style="font-variant:normal;font-weight:normal;font-size:9.31620026px;font-family:'Times New Roman';-inkscape-font-specification:'Times New Bold';writing-mode:lr-tb;fill:#080d02;fill-opacity:1;fill-rule:nonzero;stroke:none" id="text356"><tspan x="0 5.3353877 10.018641 12.372846 17.056099" y="0" id="tspan354">+2.5V</tspan></text>
<path d="m 383.9142,264.4606 h 66.9917" style="fill:none;stroke:#000000;stroke-width:1.546;stroke-linecap:round;stroke-linejoin:miter;stroke-miterlimit:10;stroke-dasharray:none;stroke-opacity:1" id="path442"></path><path d="m 453.2248,264.4606 -8.5028,-3.1054 v 6.2108 z" style="fill:#000000;fill-opacity:1;fill-rule:evenodd;stroke:none" id="path444"></path><path d="m 453.2248,264.4606 -8.5028,3.1054 v -6.2108 z" style="fill:none;stroke:#000000;stroke-width:0.0515;stroke-linecap:round;stroke-linejoin:miter;stroke-miterlimit:10;stroke-dasharray:none;stroke-opacity:1" id="path446"></path><path d="m 383.9142,248.9337 h 66.9917" style="fill:none;stroke:#000000;stroke-width:1.546;stroke-linecap:round;stroke-linejoin:miter;stroke-miterlimit:10;stroke-dasharray:none;stroke-opacity:1" id="path448"></path><path d="m 453.2248,248.9337 -8.5028,-3.1054 v 6.2108 z" style="fill:#000000;fill-opacity:1;fill-rule:evenodd;stroke:none" id="path450"></path><path d="m 453.2248,248.9337 -8.5028,3.1054 v -6.2108 z" style="fill:none;stroke:#000000;stroke-width:0.0515;stroke-linecap:round;stroke-linejoin:miter;stroke-miterlimit:10;stroke-dasharray:none;stroke-opacity:1" id="path452"></path><path d="m 383.9142,233.4067 h 66.9917" style="fill:none;stroke:#000000;stroke-width:1.546;stroke-linecap:round;stroke-linejoin:miter;stroke-miterlimit:10;stroke-dasharray:none;stroke-opacity:1" id="path454"></path><path d="m 453.2248,233.4067 -8.5028,-3.1054 v 6.2108 z" style="fill:#000000;fill-opacity:1;fill-rule:evenodd;stroke:none" id="path456"></path><path d="m 453.2248,233.4067 -8.5028,3.1054 v -6.2108 z" style="fill:none;stroke:#000000;stroke-width:0.0515;stroke-linecap:round;stroke-linejoin:miter;stroke-miterlimit:10;stroke-dasharray:none;stroke-opacity:1" id="path458"></path><path d="m 237.0477,279.9876 h 66.9917" style="fill:none;stroke:#000000;stroke-width:1.546;stroke-linecap:round;stroke-linejoin:miter;stroke-miterlimit:10;stroke-dasharray:none;stroke-opacity:1" id="path460"></path><path d="m 306.3584,279.9876 -8.5028,-3.1054 v 6.2108 z" style="fill:#000000;fill-opacity:1;fill-rule:evenodd;stroke:none" id="path462"></path><path d="m 306.3584,279.9876 -8.5028,3.1054 v -6.2108 z" style="fill:none;stroke:#000000;stroke-width:0.0515;stroke-linecap:round;stroke-linejoin:miter;stroke-miterlimit:10;stroke-dasharray:none;stroke-opacity:1" id="path464"></path><path d="m 237.0477,261.8728 h 66.9917" style="fill:none;stroke:#000000;stroke-width:1.546;stroke-linecap:round;stroke-linejoin:miter;stroke-miterlimit:10;stroke-dasharray:none;stroke-opacity:1" id="path466"></path><path d="m 306.3584,261.8728 -8.5028,-3.1054 v 6.2108 z" style="fill:#000000;fill-opacity:1;fill-rule:evenodd;stroke:none" id="path468"></path><path d="m 306.3584,261.8728 -8.5028,3.1054 v -6.2108 z" style="fill:none;stroke:#000000;stroke-width:0.0515;stroke-linecap:round;stroke-linejoin:miter;stroke-miterlimit:10;stroke-dasharray:none;stroke-opacity:1" id="path470"></path><path d="m 237.0477,243.758 h 66.9917" style="fill:none;stroke:#000000;stroke-width:1.546;stroke-linecap:round;stroke-linejoin:miter;stroke-miterlimit:10;stroke-dasharray:none;stroke-opacity:1" id="path472"></path><path d="m 306.3584,243.758 -8.5028,-3.1054 v 6.2108 z" style="fill:#000000;fill-opacity:1;fill-rule:evenodd;stroke:none" id="path474"></path><path d="m 306.3584,243.758 -8.5028,3.1054 v -6.2108 z" style="fill:none;stroke:#000000;stroke-width:0.0515;stroke-linecap:round;stroke-linejoin:miter;stroke-miterlimit:10;stroke-dasharray:none;stroke-opacity:1" id="path476"></path><path d="m 237.0477,225.6432 h 66.9917" style="fill:none;stroke:#000000;stroke-width:1.546;stroke-linecap:round;stroke-linejoin:miter;stroke-miterlimit:10;stroke-dasharray:none;stroke-opacity:1" id="path478"></path><path d="m 306.3584,225.6432 -8.5028,-3.1054 v 6.2108 z" style="fill:#000000;fill-opacity:1;fill-rule:evenodd;stroke:none" id="path480"></path><path d="m 306.3584,225.6432 -8.5028,3.1054 v -6.2108 z" style="fill:none;stroke:#000000;stroke-width:0.0515;stroke-linecap:round;stroke-linejoin:miter;stroke-miterlimit:10;stroke-dasharray:none;stroke-opacity:1" id="path482"></path><path d="M 164.9027,287.7511 H 236.893 V 272.3794 H 164.9027 Z" style="fill:#ffd966;fill-opacity:1;fill-rule:nonzero;stroke:#080d02;stroke-width:0.0515;stroke-linecap:round;stroke-linejoin:miter;stroke-miterlimit:10;stroke-dasharray:none;stroke-opacity:1" id="path484"></path><text transform="matrix(1,0,0,-1,167.4793,276.8822)" style="font-variant:normal;font-weight:normal;font-size:9.31620026px;font-family:'Times New Roman';-inkscape-font-specification:'Times New Bold';writing-mode:lr-tb;fill:#000000;fill-opacity:1;fill-rule:nonzero;stroke:none" id="text488"><tspan x="0 6.7318859 10.873869 14.50346 17.098953 20.728544 23.83643 26.431923 31.095612 35.237595 37.572235 44.304119 46.899612 51.563305 54.158798 59.344193 63.486176" y="0" id="tspan486">Resistive Divider</tspan></text>
<path d="M 164.9027,269.6363 H 236.893 V 254.2646 H 164.9027 Z" style="fill:#ffd966;fill-opacity:1;fill-rule:nonzero;stroke:#080d02;stroke-width:0.0515;stroke-linecap:round;stroke-linejoin:miter;stroke-miterlimit:10;stroke-dasharray:none;stroke-opacity:1" id="path490"></path><text transform="matrix(1,0,0,-1,167.4793,258.7674)" style="font-variant:normal;font-weight:normal;font-size:9.31620026px;font-family:'Times New Roman';-inkscape-font-specification:'Times New Bold';writing-mode:lr-tb;fill:#000000;fill-opacity:1;fill-rule:nonzero;stroke:none" id="text494"><tspan x="0 6.7318859 10.873869 14.50346 17.098953 20.728544 23.83643 26.431923 31.095612 35.237595 37.572235 44.304119 46.899612 51.563305 54.158798 59.344193 63.486176" y="0" id="tspan492">Resistive Divider</tspan></text>
<path d="M 164.9027,251.5215 H 236.893 V 236.1498 H 164.9027 Z" style="fill:#ffd966;fill-opacity:1;fill-rule:nonzero;stroke:#080d02;stroke-width:0.0515;stroke-linecap:round;stroke-linejoin:miter;stroke-miterlimit:10;stroke-dasharray:none;stroke-opacity:1" id="path496"></path><text transform="matrix(1,0,0,-1,167.4793,240.6526)" style="font-variant:normal;font-weight:normal;font-size:9.31620026px;font-family:'Times New Roman';-inkscape-font-specification:'Times New Bold';writing-mode:lr-tb;fill:#000000;fill-opacity:1;fill-rule:nonzero;stroke:none" id="text500"><tspan x="0 6.7318859 10.873869 14.50346 17.098953 20.728544 23.83643 26.431923 31.095612 35.237595 37.572235 44.304119 46.899612 51.563305 54.158798 59.344193 63.486176" y="0" id="tspan498">Resistive Divider</tspan></text>
<path d="M 164.9027,233.4067 H 236.893 V 218.035 h -71.9903 z" style="fill:#ffd966;fill-opacity:1;fill-rule:nonzero;stroke:#080d02;stroke-width:0.0515;stroke-linecap:round;stroke-linejoin:miter;stroke-miterlimit:10;stroke-dasharray:none;stroke-opacity:1" id="path502"></path><text transform="matrix(1,0,0,-1,167.4793,222.5378)" style="font-variant:normal;font-weight:normal;font-size:9.31620026px;font-family:'Times New Roman';-inkscape-font-specification:'Times New Bold';writing-mode:lr-tb;fill:#000000;fill-opacity:1;fill-rule:nonzero;stroke:none" id="text506"><tspan x="0 6.7318859 10.873869 14.50346 17.098953 20.728544 23.83643 26.431923 31.095612 35.237595 37.572235 44.304119 46.899612 51.563305 54.158798 59.344193 63.486176" y="0" id="tspan504">Resistive Divider</tspan></text>
<path d="m 108.2174,279.9876 h 54.1087" style="fill:none;stroke:#000000;stroke-width:1.546;stroke-linecap:round;stroke-linejoin:miter;stroke-miterlimit:10;stroke-dasharray:none;stroke-opacity:1" id="path508"></path><path d="m 164.6451,279.9876 -8.5028,-3.1054 v 6.2108 z" style="fill:#000000;fill-opacity:1;fill-rule:evenodd;stroke:none" id="path510"></path><path d="m 164.6451,279.9876 -8.5028,3.1054 v -6.2108 z" style="fill:none;stroke:#000000;stroke-width:0.0515;stroke-linecap:round;stroke-linejoin:miter;stroke-miterlimit:10;stroke-dasharray:none;stroke-opacity:1" id="path512"></path><path d="m 108.2174,261.8728 h 54.1087" style="fill:none;stroke:#000000;stroke-width:1.546;stroke-linecap:round;stroke-linejoin:miter;stroke-miterlimit:10;stroke-dasharray:none;stroke-opacity:1" id="path514"></path><path d="m 164.6451,261.8728 -8.5028,-3.1054 v 6.2108 z" style="fill:#000000;fill-opacity:1;fill-rule:evenodd;stroke:none" id="path516"></path><path d="m 164.6451,261.8728 -8.5028,3.1054 v -6.2108 z" style="fill:none;stroke:#000000;stroke-width:0.0515;stroke-linecap:round;stroke-linejoin:miter;stroke-miterlimit:10;stroke-dasharray:none;stroke-opacity:1" id="path518"></path><path d="m 108.2174,243.758 h 54.1087" style="fill:none;stroke:#000000;stroke-width:1.546;stroke-linecap:round;stroke-linejoin:miter;stroke-miterlimit:10;stroke-dasharray:none;stroke-opacity:1" id="path520"></path><path d="m 164.6451,243.758 -8.5028,-3.1054 v 6.2108 z" style="fill:#000000;fill-opacity:1;fill-rule:evenodd;stroke:none" id="path522"></path><path d="m 164.6451,243.758 -8.5028,3.1054 v -6.2108 z" style="fill:none;stroke:#000000;stroke-width:0.0515;stroke-linecap:round;stroke-linejoin:miter;stroke-miterlimit:10;stroke-dasharray:none;stroke-opacity:1" id="path524"></path><path d="m 108.2174,225.6432 h 54.1087" style="fill:none;stroke:#000000;stroke-width:1.546;stroke-linecap:round;stroke-linejoin:miter;stroke-miterlimit:10;stroke-dasharray:none;stroke-opacity:1" id="path526"></path><path d="m 164.6451,225.6432 -8.5028,-3.1054 v 6.2108 z" style="fill:#000000;fill-opacity:1;fill-rule:evenodd;stroke:none" id="path528"></path><path d="m 164.6451,225.6432 -8.5028,3.1054 v -6.2108 z" style="fill:none;stroke:#000000;stroke-width:0.0515;stroke-linecap:round;stroke-linejoin:miter;stroke-miterlimit:10;stroke-dasharray:none;stroke-opacity:1" id="path530"></path></g></g></g></g></g></g></svg>