<?xml version="1.0" encoding="UTF-8" standalone="no"?>
<svg
   xmlns:dc="http://purl.org/dc/elements/1.1/"
   xmlns:cc="http://creativecommons.org/ns#"
   xmlns:rdf="http://www.w3.org/1999/02/22-rdf-syntax-ns#"
   xmlns:svg="http://www.w3.org/2000/svg"
   xmlns="http://www.w3.org/2000/svg"
   version="1.1"
   id="svg10"
   xml:space="preserve"
   width="132.03622"
   height="74.737419"
   viewBox="0 0 132.03622 74.737419"><metadata
     id="metadata16"><rdf:RDF><cc:Work
         rdf:about=""><dc:format>image/svg+xml</dc:format><dc:type
           rdf:resource="http://purl.org/dc/dcmitype/StillImage" /><dc:title></dc:title></cc:Work></rdf:RDF></metadata><defs
     id="defs14"><clipPath
       clipPathUnits="userSpaceOnUse"
       id="clipPath30"><path
         d="M 0,0 H 835 V 573 H 0 Z"
         id="path28" /></clipPath></defs><g
     id="g18"
     transform="matrix(1.3333333,0,0,-1.3333333,-320.14482,525.19065)"><g
       id="g20"><g
         id="g22"><g
           id="g24"
           transform="matrix(1.0024,0,0,1.0004,0,21.7591)"><g
             id="g26"
             clip-path="url(#clipPath30)"><g
               id="g32"><path
                 d="m 265.0156,362.3902 h -7.1921"
                 style="fill:none;stroke:#000000;stroke-width:0.7177;stroke-linecap:round;stroke-linejoin:miter;stroke-miterlimit:10;stroke-dasharray:none;stroke-opacity:1"
                 id="path198" /><path
                 d="m 279.3997,362.3902 h 7.1921"
                 style="fill:none;stroke:#000000;stroke-width:0.7177;stroke-linecap:round;stroke-linejoin:miter;stroke-miterlimit:10;stroke-dasharray:none;stroke-opacity:1"
                 id="path200" /><path
                 d="m 265.0156,362.3902 h 2.8858"
                 style="fill:none;stroke:#0000ff;stroke-width:0.7177;stroke-linecap:round;stroke-linejoin:miter;stroke-miterlimit:10;stroke-dasharray:none;stroke-opacity:1"
                 id="path202" /><path
                 d="m 267.9014,362.3902 0.7177,1.4371"
                 style="fill:none;stroke:#0000ff;stroke-width:0.7177;stroke-linecap:round;stroke-linejoin:miter;stroke-miterlimit:10;stroke-dasharray:none;stroke-opacity:1"
                 id="path204" /><path
                 d="m 268.6191,363.8273 1.4354,-2.8742"
                 style="fill:none;stroke:#0000ff;stroke-width:0.7177;stroke-linecap:round;stroke-linejoin:miter;stroke-miterlimit:10;stroke-dasharray:none;stroke-opacity:1"
                 id="path206" /><path
                 d="m 270.0545,360.9531 1.4354,2.8742"
                 style="fill:none;stroke:#0000ff;stroke-width:0.7177;stroke-linecap:round;stroke-linejoin:miter;stroke-miterlimit:10;stroke-dasharray:none;stroke-opacity:1"
                 id="path208" /><path
                 d="m 271.4899,363.8273 1.4355,-2.8742"
                 style="fill:none;stroke:#0000ff;stroke-width:0.7177;stroke-linecap:round;stroke-linejoin:miter;stroke-miterlimit:10;stroke-dasharray:none;stroke-opacity:1"
                 id="path210" /><path
                 d="m 272.9254,360.9531 1.4354,2.8742"
                 style="fill:none;stroke:#0000ff;stroke-width:0.7177;stroke-linecap:round;stroke-linejoin:miter;stroke-miterlimit:10;stroke-dasharray:none;stroke-opacity:1"
                 id="path212" /><path
                 d="m 274.3608,363.8273 1.4504,-2.8742"
                 style="fill:none;stroke:#0000ff;stroke-width:0.7177;stroke-linecap:round;stroke-linejoin:miter;stroke-miterlimit:10;stroke-dasharray:none;stroke-opacity:1"
                 id="path214" /><path
                 d="m 275.8112,360.9531 0.7177,1.4371"
                 style="fill:none;stroke:#0000ff;stroke-width:0.7177;stroke-linecap:round;stroke-linejoin:miter;stroke-miterlimit:10;stroke-dasharray:none;stroke-opacity:1"
                 id="path216" /><path
                 d="m 276.5289,362.3902 h 2.8708"
                 style="fill:none;stroke:#0000ff;stroke-width:0.7177;stroke-linecap:round;stroke-linejoin:miter;stroke-miterlimit:10;stroke-dasharray:none;stroke-opacity:1"
                 id="path218" /><text
                 transform="matrix(1,0,0,-1,268.6639,367.4949)"
                 style="font-variant:normal;font-weight:normal;font-size:6.4669px;font-family:'Times New Roman';-inkscape-font-specification:'Times New';writing-mode:lr-tb;fill:#000080;fill-opacity:1;fill-rule:nonzero;stroke:none"
                 id="text222"><tspan
                   x="0 4.2526336"
                   y="0"
                   id="tspan220">R*</tspan></text><path
                 d="m 293.7839,337.1961 v -7.2004"
                 style="fill:none;stroke:#000000;stroke-width:0.7177;stroke-linecap:round;stroke-linejoin:miter;stroke-miterlimit:10;stroke-dasharray:none;stroke-opacity:1"
                 id="path224" /><path
                 d="m 293.7839,351.5821 v 7.2004"
                 style="fill:none;stroke:#000000;stroke-width:0.7177;stroke-linecap:round;stroke-linejoin:miter;stroke-miterlimit:10;stroke-dasharray:none;stroke-opacity:1"
                 id="path226" /><path
                 d="m 293.7839,337.1961 v 2.8742"
                 style="fill:none;stroke:#0000ff;stroke-width:0.7177;stroke-linecap:round;stroke-linejoin:miter;stroke-miterlimit:10;stroke-dasharray:none;stroke-opacity:1"
                 id="path228" /><path
                 d="m 293.7839,340.0703 -1.4354,0.7186"
                 style="fill:none;stroke:#0000ff;stroke-width:0.7177;stroke-linecap:round;stroke-linejoin:miter;stroke-miterlimit:10;stroke-dasharray:none;stroke-opacity:1"
                 id="path230" /><path
                 d="m 292.3485,340.7889 2.8708,1.4371"
                 style="fill:none;stroke:#0000ff;stroke-width:0.7177;stroke-linecap:round;stroke-linejoin:miter;stroke-miterlimit:10;stroke-dasharray:none;stroke-opacity:1"
                 id="path232" /><path
                 d="m 295.2193,342.226 -2.8708,1.4371"
                 style="fill:none;stroke:#0000ff;stroke-width:0.7177;stroke-linecap:round;stroke-linejoin:miter;stroke-miterlimit:10;stroke-dasharray:none;stroke-opacity:1"
                 id="path234" /><path
                 d="m 292.3485,343.6631 2.8708,1.452"
                 style="fill:none;stroke:#0000ff;stroke-width:0.7177;stroke-linecap:round;stroke-linejoin:miter;stroke-miterlimit:10;stroke-dasharray:none;stroke-opacity:1"
                 id="path236" /><path
                 d="m 295.2193,345.1151 -2.8708,1.4371"
                 style="fill:none;stroke:#0000ff;stroke-width:0.7177;stroke-linecap:round;stroke-linejoin:miter;stroke-miterlimit:10;stroke-dasharray:none;stroke-opacity:1"
                 id="path238" /><path
                 d="m 292.3485,346.5522 2.8708,1.4371"
                 style="fill:none;stroke:#0000ff;stroke-width:0.7177;stroke-linecap:round;stroke-linejoin:miter;stroke-miterlimit:10;stroke-dasharray:none;stroke-opacity:1"
                 id="path240" /><path
                 d="m 295.2193,347.9893 -1.4354,0.7186"
                 style="fill:none;stroke:#0000ff;stroke-width:0.7177;stroke-linecap:round;stroke-linejoin:miter;stroke-miterlimit:10;stroke-dasharray:none;stroke-opacity:1"
                 id="path242" /><path
                 d="m 293.7839,348.7079 v 2.8742"
                 style="fill:none;stroke:#0000ff;stroke-width:0.7177;stroke-linecap:round;stroke-linejoin:miter;stroke-miterlimit:10;stroke-dasharray:none;stroke-opacity:1"
                 id="path244" /><text
                 transform="matrix(1,0,0,-1,297.3725,342.3457)"
                 style="font-variant:normal;font-weight:normal;font-size:6.4669px;font-family:'Times New Roman';-inkscape-font-specification:'Times New';writing-mode:lr-tb;fill:#000080;fill-opacity:1;fill-rule:nonzero;stroke:none"
                 id="text248"><tspan
                   x="0 4.2526336 7.4246478"
                   y="0"
                   id="tspan246">R**</tspan></text><path
                 d="M 286.5918,322.7952 H 300.976"
                 style="fill:none;stroke:#800000;stroke-width:0.7177;stroke-linecap:round;stroke-linejoin:miter;stroke-miterlimit:10;stroke-dasharray:none;stroke-opacity:1"
                 id="path250" /><path
                 d="m 288.745,320.6246 h 10.0779"
                 style="fill:none;stroke:#800000;stroke-width:0.7177;stroke-linecap:round;stroke-linejoin:miter;stroke-miterlimit:10;stroke-dasharray:none;stroke-opacity:1"
                 id="path252" /><path
                 d="m 290.9131,318.4689 h 5.7417"
                 style="fill:none;stroke:#800000;stroke-width:0.7177;stroke-linecap:round;stroke-linejoin:miter;stroke-miterlimit:10;stroke-dasharray:none;stroke-opacity:1"
                 id="path254" /><path
                 d="m 293.0662,316.3133 h 1.4354"
                 style="fill:none;stroke:#800000;stroke-width:0.7177;stroke-linecap:round;stroke-linejoin:miter;stroke-miterlimit:10;stroke-dasharray:none;stroke-opacity:1"
                 id="path256" /><path
                 d="m 293.7839,329.9957 v -7.2005"
                 style="fill:none;stroke:#800000;stroke-width:0.7177;stroke-linecap:round;stroke-linejoin:miter;stroke-miterlimit:10;stroke-dasharray:none;stroke-opacity:1"
                 id="path258" /><path
                 d="m 250.6314,362.3902 c 0,1.1976 0.9719,2.1557 2.1681,2.1557 v 0 c 1.1812,0 2.1531,-0.9581 2.1531,-2.1557 0,0 0,0 0,0 v 0 c 0,-1.1975 -0.9719,-2.1556 -2.1531,-2.1556 -1.1962,0 -2.1681,0.9581 -2.1681,2.1556 z"
                 style="fill:none;stroke:#800000;stroke-width:0.2392;stroke-linecap:round;stroke-linejoin:miter;stroke-miterlimit:10;stroke-dasharray:none;stroke-opacity:1"
                 id="path260" /><text
                 transform="matrix(1,0,0,-1,239.4769,360.3094)"
                 style="font-variant:normal;font-weight:normal;font-size:6.4669px;font-family:'Times New Roman';-inkscape-font-specification:'Times New';writing-mode:lr-tb;fill:#800000;fill-opacity:1;fill-rule:nonzero;stroke:none"
                 id="text264"><tspan
                   x="0 4.0715604 5.7484274"
                   y="0"
                   id="tspan262">Vin</tspan></text><path
                 d="m 257.8235,362.3902 h -2.8709"
                 style="fill:none;stroke:#800000;stroke-width:0.7177;stroke-linecap:round;stroke-linejoin:miter;stroke-miterlimit:10;stroke-dasharray:none;stroke-opacity:1"
                 id="path266" /><path
                 d="m 311.0389,362.3902 c 0,1.1976 0.9719,2.1557 2.1681,2.1557 v 0 c 1.1813,0 2.1532,-0.9581 2.1532,-2.1557 0,0 0,0 0,0 v 0 c 0,-1.1975 -0.9719,-2.1556 -2.1532,-2.1556 -1.1962,0 -2.1681,0.9581 -2.1681,2.1556 z"
                 style="fill:none;stroke:#800000;stroke-width:0.2392;stroke-linecap:round;stroke-linejoin:miter;stroke-miterlimit:10;stroke-dasharray:none;stroke-opacity:1"
                 id="path268" /><text
                 transform="matrix(1,0,0,-1,316.99,360.3094)"
                 style="font-variant:normal;font-weight:normal;font-size:6.4669px;font-family:'Times New Roman';-inkscape-font-specification:'Times New';writing-mode:lr-tb;fill:#800000;fill-opacity:1;fill-rule:nonzero;stroke:none"
                 id="text272"><tspan
                   x="0 3.3530877 6.7061753 8.1431208 12.693878 17.244635"
                   y="0"
                   id="tspan270">To ADC</tspan></text><path
                 d="m 308.1681,362.3902 h 2.8708"
                 style="fill:none;stroke:#800000;stroke-width:0.7177;stroke-linecap:round;stroke-linejoin:miter;stroke-miterlimit:10;stroke-dasharray:none;stroke-opacity:1"
                 id="path274" /><path
                 d="m 286.5918,362.3902 h 7.1921 14.3842"
                 style="fill:none;stroke:#000080;stroke-width:0.7177;stroke-linecap:round;stroke-linejoin:miter;stroke-miterlimit:10;stroke-dasharray:none;stroke-opacity:1"
                 id="path276" /><path
                 d="m 292.3485,362.3902 c 0,0.7934 0.6429,1.4371 1.4354,1.4371 v 0 c 0.7925,0 1.4354,-0.6437 1.4354,-1.4371 0,0 0,0 0,0 v 0 c 0,-0.7934 -0.6429,-1.4371 -1.4354,-1.4371 -0.7925,0 -1.4354,0.6437 -1.4354,1.4371 z"
                 style="fill:#000080;fill-opacity:1;fill-rule:nonzero;stroke:none"
                 id="path278" /><path
                 d="m 292.3485,362.3902 c 0,0.7934 0.6429,1.4371 1.4354,1.4371 v 0 c 0.7925,0 1.4354,-0.6437 1.4354,-1.4371 0,0 0,0 0,0 v 0 c 0,-0.7934 -0.6429,-1.4371 -1.4354,-1.4371 -0.7925,0 -1.4354,0.6437 -1.4354,1.4371 z"
                 style="fill:none;stroke:#000080;stroke-width:0.2392;stroke-linecap:round;stroke-linejoin:miter;stroke-miterlimit:10;stroke-dasharray:none;stroke-opacity:1"
                 id="path280" /><path
                 d="m 293.7839,362.3902 v -3.6077"
                 style="fill:none;stroke:#000080;stroke-width:0.7177;stroke-linecap:round;stroke-linejoin:miter;stroke-miterlimit:10;stroke-dasharray:none;stroke-opacity:1"
                 id="path282" /><path
                 d="m 292.3485,362.3902 c 0,0.7934 0.6429,1.4371 1.4354,1.4371 v 0 c 0.7925,0 1.4354,-0.6437 1.4354,-1.4371 0,0 0,0 0,0 v 0 c 0,-0.7934 -0.6429,-1.4371 -1.4354,-1.4371 -0.7925,0 -1.4354,0.6437 -1.4354,1.4371 z"
                 style="fill:#000080;fill-opacity:1;fill-rule:nonzero;stroke:none"
                 id="path284" /><path
                 d="m 292.3485,362.3902 c 0,0.7934 0.6429,1.4371 1.4354,1.4371 v 0 c 0.7925,0 1.4354,-0.6437 1.4354,-1.4371 0,0 0,0 0,0 v 0 c 0,-0.7934 -0.6429,-1.4371 -1.4354,-1.4371 -0.7925,0 -1.4354,0.6437 -1.4354,1.4371 z"
                 style="fill:none;stroke:#000080;stroke-width:0.2392;stroke-linecap:round;stroke-linejoin:miter;stroke-miterlimit:10;stroke-dasharray:none;stroke-opacity:1"
                 id="path286" /></g></g></g></g></g></g></svg>
