<svg viewBox="0 0 132.03622 74.737419" height="74.737419" width="132.03622" xml:space="preserve" id="svg10" version="1.1" xmlns="http://www.w3.org/2000/svg"><metadata id="metadata16">image/svg+xml</metadata><defs id="defs14"><clipPath id="clipPath30" clipPathUnits="userSpaceOnUse"><path id="path28" d="M 0,0 H 835 V 573 H 0 Z"></path></clipPath></defs><g transform="matrix(1.3333333,0,0,-1.3333333,-320.14482,525.19065)" id="g18"><g id="g20"><g id="g22"><g transform="matrix(1.0024,0,0,1.0004,0,21.7591)" id="g24"><g clip-path="url(#clipPath30)" id="g26"><g id="g32"><path id="path198" style="fill:none;stroke:#000000;stroke-width:0.7177;stroke-linecap:round;stroke-linejoin:miter;stroke-miterlimit:10;stroke-dasharray:none;stroke-opacity:1" d="m 265.0156,362.3902 h -7.1921"></path><path id="path200" style="fill:none;stroke:#000000;stroke-width:0.7177;stroke-linecap:round;stroke-linejoin:miter;stroke-miterlimit:10;stroke-dasharray:none;stroke-opacity:1" d="m 279.3997,362.3902 h 7.1921"></path><path id="path202" style="fill:none;stroke:#0000ff;stroke-width:0.7177;stroke-linecap:round;stroke-linejoin:miter;stroke-miterlimit:10;stroke-dasharray:none;stroke-opacity:1" d="m 265.0156,362.3902 h 2.8858"></path><path id="path204" style="fill:none;stroke:#0000ff;stroke-width:0.7177;stroke-linecap:round;stroke-linejoin:miter;stroke-miterlimit:10;stroke-dasharray:none;stroke-opacity:1" d="m 267.9014,362.3902 0.7177,1.4371"></path><path id="path206" style="fill:none;stroke:#0000ff;stroke-width:0.7177;stroke-linecap:round;stroke-linejoin:miter;stroke-miterlimit:10;stroke-dasharray:none;stroke-opacity:1" d="m 268.6191,363.8273 1.4354,-2.8742"></path><path id="path208" style="fill:none;stroke:#0000ff;stroke-width:0.7177;stroke-linecap:round;stroke-linejoin:miter;stroke-miterlimit:10;stroke-dasharray:none;stroke-opacity:1" d="m 270.0545,360.9531 1.4354,2.8742"></path><path id="path210" style="fill:none;stroke:#0000ff;stroke-width:0.7177;stroke-linecap:round;stroke-linejoin:miter;stroke-miterlimit:10;stroke-dasharray:none;stroke-opacity:1" d="m 271.4899,363.8273 1.4355,-2.8742"></path><path id="path212" style="fill:none;stroke:#0000ff;stroke-width:0.7177;stroke-linecap:round;stroke-linejoin:miter;stroke-miterlimit:10;stroke-dasharray:none;stroke-opacity:1" d="m 272.9254,360.9531 1.4354,2.8742"></path><path id="path214" style="fill:none;stroke:#0000ff;stroke-width:0.7177;stroke-linecap:round;stroke-linejoin:miter;stroke-miterlimit:10;stroke-dasharray:none;stroke-opacity:1" d="m 274.3608,363.8273 1.4504,-2.8742"></path><path id="path216" style="fill:none;stroke:#0000ff;stroke-width:0.7177;stroke-linecap:round;stroke-linejoin:miter;stroke-miterlimit:10;stroke-dasharray:none;stroke-opacity:1" d="m 275.8112,360.9531 0.7177,1.4371"></path><path id="path218" style="fill:none;stroke:#0000ff;stroke-width:0.7177;stroke-linecap:round;stroke-linejoin:miter;stroke-miterlimit:10;stroke-dasharray:none;stroke-opacity:1" d="m 276.5289,362.3902 h 2.8708"></path><text id="text222" style="font-variant:normal;font-weight:normal;font-size:6.4669px;font-family:'Times New Roman';-inkscape-font-specification:'Times New';writing-mode:lr-tb;fill:#000080;fill-opacity:1;fill-rule:nonzero;stroke:none" transform="matrix(1,0,0,-1,268.6639,367.4949)"><tspan id="tspan220" y="0" x="0 4.2526336">R*</tspan></text><path id="path224" style="fill:none;stroke:#000000;stroke-width:0.7177;stroke-linecap:round;stroke-linejoin:miter;stroke-miterlimit:10;stroke-dasharray:none;stroke-opacity:1" d="m 293.7839,337.1961 v -7.2004"></path><path id="path226" style="fill:none;stroke:#000000;stroke-width:0.7177;stroke-linecap:round;stroke-linejoin:miter;stroke-miterlimit:10;stroke-dasharray:none;stroke-opacity:1" d="m 293.7839,351.5821 v 7.2004"></path><path id="path228" style="fill:none;stroke:#0000ff;stroke-width:0.7177;stroke-linecap:round;stroke-linejoin:miter;stroke-miterlimit:10;stroke-dasharray:none;stroke-opacity:1" d="m 293.7839,337.1961 v 2.8742"></path><path id="path230" style="fill:none;stroke:#0000ff;stroke-width:0.7177;stroke-linecap:round;stroke-linejoin:miter;stroke-miterlimit:10;stroke-dasharray:none;stroke-opacity:1" d="m 293.7839,340.0703 -1.4354,0.7186"></path><path id="path232" style="fill:none;stroke:#0000ff;stroke-width:0.7177;stroke-linecap:round;stroke-linejoin:miter;stroke-miterlimit:10;stroke-dasharray:none;stroke-opacity:1" d="m 292.3485,340.7889 2.8708,1.4371"></path><path id="path234" style="fill:none;stroke:#0000ff;stroke-width:0.7177;stroke-linecap:round;stroke-linejoin:miter;stroke-miterlimit:10;stroke-dasharray:none;stroke-opacity:1" d="m 295.2193,342.226 -2.8708,1.4371"></path><path id="path236" style="fill:none;stroke:#0000ff;stroke-width:0.7177;stroke-linecap:round;stroke-linejoin:miter;stroke-miterlimit:10;stroke-dasharray:none;stroke-opacity:1" d="m 292.3485,343.6631 2.8708,1.452"></path><path id="path238" style="fill:none;stroke:#0000ff;stroke-width:0.7177;stroke-linecap:round;stroke-linejoin:miter;stroke-miterlimit:10;stroke-dasharray:none;stroke-opacity:1" d="m 295.2193,345.1151 -2.8708,1.4371"></path><path id="path240" style="fill:none;stroke:#0000ff;stroke-width:0.7177;stroke-linecap:round;stroke-linejoin:miter;stroke-miterlimit:10;stroke-dasharray:none;stroke-opacity:1" d="m 292.3485,346.5522 2.8708,1.4371"></path><path id="path242" style="fill:none;stroke:#0000ff;stroke-width:0.7177;stroke-linecap:round;stroke-linejoin:miter;stroke-miterlimit:10;stroke-dasharray:none;stroke-opacity:1" d="m 295.2193,347.9893 -1.4354,0.7186"></path><path id="path244" style="fill:none;stroke:#0000ff;stroke-width:0.7177;stroke-linecap:round;stroke-linejoin:miter;stroke-miterlimit:10;stroke-dasharray:none;stroke-opacity:1" d="m 293.7839,348.7079 v 2.8742"></path><text id="text248" style="font-variant:normal;font-weight:normal;font-size:6.4669px;font-family:'Times New Roman';-inkscape-font-specification:'Times New';writing-mode:lr-tb;fill:#000080;fill-opacity:1;fill-rule:nonzero;stroke:none" transform="matrix(1,0,0,-1,297.3725,342.3457)"><tspan id="tspan246" y="0" x="0 4.2526336 7.4246478">R**</tspan></text><path id="path250" style="fill:none;stroke:#800000;stroke-width:0.7177;stroke-linecap:round;stroke-linejoin:miter;stroke-miterlimit:10;stroke-dasharray:none;stroke-opacity:1" d="M 286.5918,322.7952 H 300.976"></path><path id="path252" style="fill:none;stroke:#800000;stroke-width:0.7177;stroke-linecap:round;stroke-linejoin:miter;stroke-miterlimit:10;stroke-dasharray:none;stroke-opacity:1" d="m 288.745,320.6246 h 10.0779"></path><path id="path254" style="fill:none;stroke:#800000;stroke-width:0.7177;stroke-linecap:round;stroke-linejoin:miter;stroke-miterlimit:10;stroke-dasharray:none;stroke-opacity:1" d="m 290.9131,318.4689 h 5.7417"></path><path id="path256" style="fill:none;stroke:#800000;stroke-width:0.7177;stroke-linecap:round;stroke-linejoin:miter;stroke-miterlimit:10;stroke-dasharray:none;stroke-opacity:1" d="m 293.0662,316.3133 h 1.4354"></path><path id="path258" style="fill:none;stroke:#800000;stroke-width:0.7177;stroke-linecap:round;stroke-linejoin:miter;stroke-miterlimit:10;stroke-dasharray:none;stroke-opacity:1" d="m 293.7839,329.9957 v -7.2005"></path><path id="path260" style="fill:none;stroke:#800000;stroke-width:0.2392;stroke-linecap:round;stroke-linejoin:miter;stroke-miterlimit:10;stroke-dasharray:none;stroke-opacity:1" d="m 250.6314,362.3902 c 0,1.1976 0.9719,2.1557 2.1681,2.1557 v 0 c 1.1812,0 2.1531,-0.9581 2.1531,-2.1557 0,0 0,0 0,0 v 0 c 0,-1.1975 -0.9719,-2.1556 -2.1531,-2.1556 -1.1962,0 -2.1681,0.9581 -2.1681,2.1556 z"></path><text id="text264" style="font-variant:normal;font-weight:normal;font-size:6.4669px;font-family:'Times New Roman';-inkscape-font-specification:'Times New';writing-mode:lr-tb;fill:#800000;fill-opacity:1;fill-rule:nonzero;stroke:none" transform="matrix(1,0,0,-1,239.4769,360.3094)"><tspan id="tspan262" y="0" x="0 4.0715604 5.7484274">Vin</tspan></text><path id="path266" style="fill:none;stroke:#800000;stroke-width:0.7177;stroke-linecap:round;stroke-linejoin:miter;stroke-miterlimit:10;stroke-dasharray:none;stroke-opacity:1" d="m 257.8235,362.3902 h -2.8709"></path><path id="path268" style="fill:none;stroke:#800000;stroke-width:0.2392;stroke-linecap:round;stroke-linejoin:miter;stroke-miterlimit:10;stroke-dasharray:none;stroke-opacity:1" d="m 311.0389,362.3902 c 0,1.1976 0.9719,2.1557 2.1681,2.1557 v 0 c 1.1813,0 2.1532,-0.9581 2.1532,-2.1557 0,0 0,0 0,0 v 0 c 0,-1.1975 -0.9719,-2.1556 -2.1532,-2.1556 -1.1962,0 -2.1681,0.9581 -2.1681,2.1556 z"></path><text id="text272" style="font-variant:normal;font-weight:normal;font-size:6.4669px;font-family:'Times New Roman';-inkscape-font-specification:'Times New';writing-mode:lr-tb;fill:#800000;fill-opacity:1;fill-rule:nonzero;stroke:none" transform="matrix(1,0,0,-1,316.99,360.3094)"><tspan id="tspan270" y="0" x="0 3.3530877 6.7061753 8.1431208 12.693878 17.244635">To ADC</tspan></text><path id="path274" style="fill:none;stroke:#800000;stroke-width:0.7177;stroke-linecap:round;stroke-linejoin:miter;stroke-miterlimit:10;stroke-dasharray:none;stroke-opacity:1" d="m 308.1681,362.3902 h 2.8708"></path><path id="path276" style="fill:none;stroke:#000080;stroke-width:0.7177;stroke-linecap:round;stroke-linejoin:miter;stroke-miterlimit:10;stroke-dasharray:none;stroke-opacity:1" d="m 286.5918,362.3902 h 7.1921 14.3842"></path><path id="path278" style="fill:#000080;fill-opacity:1;fill-rule:nonzero;stroke:none" d="m 292.3485,362.3902 c 0,0.7934 0.6429,1.4371 1.4354,1.4371 v 0 c 0.7925,0 1.4354,-0.6437 1.4354,-1.4371 0,0 0,0 0,0 v 0 c 0,-0.7934 -0.6429,-1.4371 -1.4354,-1.4371 -0.7925,0 -1.4354,0.6437 -1.4354,1.4371 z"></path><path id="path280" style="fill:none;stroke:#000080;stroke-width:0.2392;stroke-linecap:round;stroke-linejoin:miter;stroke-miterlimit:10;stroke-dasharray:none;stroke-opacity:1" d="m 292.3485,362.3902 c 0,0.7934 0.6429,1.4371 1.4354,1.4371 v 0 c 0.7925,0 1.4354,-0.6437 1.4354,-1.4371 0,0 0,0 0,0 v 0 c 0,-0.7934 -0.6429,-1.4371 -1.4354,-1.4371 -0.7925,0 -1.4354,0.6437 -1.4354,1.4371 z"></path><path id="path282" style="fill:none;stroke:#000080;stroke-width:0.7177;stroke-linecap:round;stroke-linejoin:miter;stroke-miterlimit:10;stroke-dasharray:none;stroke-opacity:1" d="m 293.7839,362.3902 v -3.6077"></path><path id="path284" style="fill:#000080;fill-opacity:1;fill-rule:nonzero;stroke:none" d="m 292.3485,362.3902 c 0,0.7934 0.6429,1.4371 1.4354,1.4371 v 0 c 0.7925,0 1.4354,-0.6437 1.4354,-1.4371 0,0 0,0 0,0 v 0 c 0,-0.7934 -0.6429,-1.4371 -1.4354,-1.4371 -0.7925,0 -1.4354,0.6437 -1.4354,1.4371 z"></path><path id="path286" style="fill:none;stroke:#000080;stroke-width:0.2392;stroke-linecap:round;stroke-linejoin:miter;stroke-miterlimit:10;stroke-dasharray:none;stroke-opacity:1" d="m 292.3485,362.3902 c 0,0.7934 0.6429,1.4371 1.4354,1.4371 v 0 c 0.7925,0 1.4354,-0.6437 1.4354,-1.4371 0,0 0,0 0,0 v 0 c 0,-0.7934 -0.6429,-1.4371 -1.4354,-1.4371 -0.7925,0 -1.4354,0.6437 -1.4354,1.4371 z"></path></g></g></g></g></g></g></svg>
