<?xml version="1.0" encoding="UTF-8" standalone="no"?>
<svg
   xmlns:dc="http://purl.org/dc/elements/1.1/"
   xmlns:cc="http://creativecommons.org/ns#"
   xmlns:rdf="http://www.w3.org/1999/02/22-rdf-syntax-ns#"
   xmlns:svg="http://www.w3.org/2000/svg"
   xmlns="http://www.w3.org/2000/svg"
   version="1.1"
   id="svg420"
   xml:space="preserve"
   width="131.71626"
   height="117.60962"
   viewBox="0 0 131.71626 117.60962"><metadata
     id="metadata426"><rdf:RDF><cc:Work
         rdf:about=""><dc:format>image/svg+xml</dc:format><dc:type
           rdf:resource="http://purl.org/dc/dcmitype/StillImage" /><dc:title></dc:title></cc:Work></rdf:RDF></metadata><defs
     id="defs424"><clipPath
       clipPathUnits="userSpaceOnUse"
       id="clipPath440"><path
         d="M 0,0 H 835 V 573 H 0 Z"
         id="path438" /></clipPath></defs><g
     id="g428"
     transform="matrix(1.3333333,0,0,-1.3333333,-608.55868,568.04284)"><g
       id="g430"><g
         id="g432"><g
           id="g434"
           transform="matrix(1.0024,0,0,1.0004,0,21.7591)"><g
             id="g436"
             clip-path="url(#clipPath440)"><g
               id="g442"><path
                 d="M 480.7482,362.3902 H 473.571"
                 style="fill:none;stroke:#000000;stroke-width:0.7177;stroke-linecap:round;stroke-linejoin:miter;stroke-miterlimit:10;stroke-dasharray:none;stroke-opacity:1"
                 id="path698" /><path
                 d="m 495.1323,362.3753 h 7.2071"
                 style="fill:none;stroke:#000000;stroke-width:0.7177;stroke-linecap:round;stroke-linejoin:miter;stroke-miterlimit:10;stroke-dasharray:none;stroke-opacity:1"
                 id="path700" /><path
                 d="m 480.7482,362.3902 h 2.8858"
                 style="fill:none;stroke:#0000ff;stroke-width:0.7177;stroke-linecap:round;stroke-linejoin:miter;stroke-miterlimit:10;stroke-dasharray:none;stroke-opacity:1"
                 id="path702" /><path
                 d="m 483.634,362.3902 0.7177,1.4371"
                 style="fill:none;stroke:#0000ff;stroke-width:0.7177;stroke-linecap:round;stroke-linejoin:miter;stroke-miterlimit:10;stroke-dasharray:none;stroke-opacity:1"
                 id="path704" /><path
                 d="m 484.3517,363.8273 1.4354,-2.8742"
                 style="fill:none;stroke:#0000ff;stroke-width:0.7177;stroke-linecap:round;stroke-linejoin:miter;stroke-miterlimit:10;stroke-dasharray:none;stroke-opacity:1"
                 id="path706" /><path
                 d="m 485.7871,360.9531 1.4355,2.8742"
                 style="fill:none;stroke:#0000ff;stroke-width:0.7177;stroke-linecap:round;stroke-linejoin:miter;stroke-miterlimit:10;stroke-dasharray:none;stroke-opacity:1"
                 id="path708" /><path
                 d="m 487.2226,363.8273 1.4354,-2.8742"
                 style="fill:none;stroke:#0000ff;stroke-width:0.7177;stroke-linecap:round;stroke-linejoin:miter;stroke-miterlimit:10;stroke-dasharray:none;stroke-opacity:1"
                 id="path710" /><path
                 d="m 488.6729,360.9382 1.4355,2.8742"
                 style="fill:none;stroke:#0000ff;stroke-width:0.7177;stroke-linecap:round;stroke-linejoin:miter;stroke-miterlimit:10;stroke-dasharray:none;stroke-opacity:1"
                 id="path712" /><path
                 d="m 490.1084,363.8124 1.4354,-2.8742"
                 style="fill:none;stroke:#0000ff;stroke-width:0.7177;stroke-linecap:round;stroke-linejoin:miter;stroke-miterlimit:10;stroke-dasharray:none;stroke-opacity:1"
                 id="path714" /><path
                 d="m 491.5438,360.9382 0.7177,1.4371"
                 style="fill:none;stroke:#0000ff;stroke-width:0.7177;stroke-linecap:round;stroke-linejoin:miter;stroke-miterlimit:10;stroke-dasharray:none;stroke-opacity:1"
                 id="path716" /><path
                 d="m 492.2615,362.3753 h 2.8708"
                 style="fill:none;stroke:#0000ff;stroke-width:0.7177;stroke-linecap:round;stroke-linejoin:miter;stroke-miterlimit:10;stroke-dasharray:none;stroke-opacity:1"
                 id="path718" /><text
                 transform="matrix(1,0,0,-1,484.4564,367.4949)"
                 style="font-variant:normal;font-weight:normal;font-size:6.4669px;font-family:'Times New Roman';-inkscape-font-specification:'Times New';writing-mode:lr-tb;fill:#000080;fill-opacity:1;fill-rule:nonzero;stroke:none"
                 id="text722"><tspan
                   x="0 4.2526336 7.4246478"
                   y="0"
                   id="tspan720">R**</tspan></text><path
                 d="m 509.5165,337.1961 v -7.2154"
                 style="fill:none;stroke:#000000;stroke-width:0.7177;stroke-linecap:round;stroke-linejoin:miter;stroke-miterlimit:10;stroke-dasharray:none;stroke-opacity:1"
                 id="path724" /><path
                 d="m 509.5165,351.5671 v 7.2154"
                 style="fill:none;stroke:#000000;stroke-width:0.7177;stroke-linecap:round;stroke-linejoin:miter;stroke-miterlimit:10;stroke-dasharray:none;stroke-opacity:1"
                 id="path726" /><path
                 d="m 509.5165,337.1961 v 2.8742"
                 style="fill:none;stroke:#0000ff;stroke-width:0.7177;stroke-linecap:round;stroke-linejoin:miter;stroke-miterlimit:10;stroke-dasharray:none;stroke-opacity:1"
                 id="path728" /><path
                 d="m 509.5165,340.0703 -1.4354,0.7186"
                 style="fill:none;stroke:#0000ff;stroke-width:0.7177;stroke-linecap:round;stroke-linejoin:miter;stroke-miterlimit:10;stroke-dasharray:none;stroke-opacity:1"
                 id="path730" /><path
                 d="m 508.0811,340.7889 2.8708,1.4371"
                 style="fill:none;stroke:#0000ff;stroke-width:0.7177;stroke-linecap:round;stroke-linejoin:miter;stroke-miterlimit:10;stroke-dasharray:none;stroke-opacity:1"
                 id="path732" /><path
                 d="m 510.9519,342.226 -2.8708,1.4371"
                 style="fill:none;stroke:#0000ff;stroke-width:0.7177;stroke-linecap:round;stroke-linejoin:miter;stroke-miterlimit:10;stroke-dasharray:none;stroke-opacity:1"
                 id="path734" /><path
                 d="m 508.0811,343.6631 2.8708,1.4371"
                 style="fill:none;stroke:#0000ff;stroke-width:0.7177;stroke-linecap:round;stroke-linejoin:miter;stroke-miterlimit:10;stroke-dasharray:none;stroke-opacity:1"
                 id="path736" /><path
                 d="m 510.9519,345.1002 -2.8708,1.4371"
                 style="fill:none;stroke:#0000ff;stroke-width:0.7177;stroke-linecap:round;stroke-linejoin:miter;stroke-miterlimit:10;stroke-dasharray:none;stroke-opacity:1"
                 id="path738" /><path
                 d="m 508.0811,346.5373 2.8708,1.437"
                 style="fill:none;stroke:#0000ff;stroke-width:0.7177;stroke-linecap:round;stroke-linejoin:miter;stroke-miterlimit:10;stroke-dasharray:none;stroke-opacity:1"
                 id="path740" /><path
                 d="m 510.9519,347.9743 -1.4354,0.7186"
                 style="fill:none;stroke:#0000ff;stroke-width:0.7177;stroke-linecap:round;stroke-linejoin:miter;stroke-miterlimit:10;stroke-dasharray:none;stroke-opacity:1"
                 id="path742" /><path
                 d="m 509.5165,348.6929 v 2.8742"
                 style="fill:none;stroke:#0000ff;stroke-width:0.7177;stroke-linecap:round;stroke-linejoin:miter;stroke-miterlimit:10;stroke-dasharray:none;stroke-opacity:1"
                 id="path744" /><text
                 transform="matrix(1,0,0,-1,513.1649,342.3457)"
                 style="font-variant:normal;font-weight:normal;font-size:6.4669px;font-family:'Times New Roman';-inkscape-font-specification:'Times New';writing-mode:lr-tb;fill:#000080;fill-opacity:1;fill-rule:nonzero;stroke:none"
                 id="text748"><tspan
                   x="0 4.2526336 7.4246478 10.53846"
                   y="0"
                   id="tspan746">R***</tspan></text><path
                 d="m 502.3394,322.7952 h 14.3842"
                 style="fill:none;stroke:#800000;stroke-width:0.7177;stroke-linecap:round;stroke-linejoin:miter;stroke-miterlimit:10;stroke-dasharray:none;stroke-opacity:1"
                 id="path750" /><path
                 d="m 504.4925,320.6096 h 10.0779"
                 style="fill:none;stroke:#800000;stroke-width:0.7177;stroke-linecap:round;stroke-linejoin:miter;stroke-miterlimit:10;stroke-dasharray:none;stroke-opacity:1"
                 id="path752" /><path
                 d="m 506.6457,318.454 h 5.7716"
                 style="fill:none;stroke:#800000;stroke-width:0.7177;stroke-linecap:round;stroke-linejoin:miter;stroke-miterlimit:10;stroke-dasharray:none;stroke-opacity:1"
                 id="path754" /><path
                 d="m 508.7988,316.2983 h 1.4354"
                 style="fill:none;stroke:#800000;stroke-width:0.7177;stroke-linecap:round;stroke-linejoin:miter;stroke-miterlimit:10;stroke-dasharray:none;stroke-opacity:1"
                 id="path756" /><path
                 d="m 509.5165,329.9807 v -7.1855"
                 style="fill:none;stroke:#800000;stroke-width:0.7177;stroke-linecap:round;stroke-linejoin:miter;stroke-miterlimit:10;stroke-dasharray:none;stroke-opacity:1"
                 id="path758" /><path
                 d="m 466.379,362.3902 c 0,1.1976 0.9569,2.1557 2.1531,2.1557 v 0 c 1.1962,0 2.1531,-0.9581 2.1531,-2.1557 0,0 0,0 0,0 v 0 c 0,-1.1975 -0.9569,-2.1556 -2.1531,-2.1556 -1.1962,0 -2.1531,0.9581 -2.1531,2.1556 z"
                 style="fill:none;stroke:#800000;stroke-width:0.2392;stroke-linecap:round;stroke-linejoin:miter;stroke-miterlimit:10;stroke-dasharray:none;stroke-opacity:1"
                 id="path760" /><text
                 transform="matrix(1,0,0,-1,455.2694,360.3094)"
                 style="font-variant:normal;font-weight:normal;font-size:6.4669px;font-family:'Times New Roman';-inkscape-font-specification:'Times New';writing-mode:lr-tb;fill:#800000;fill-opacity:1;fill-rule:nonzero;stroke:none"
                 id="text764"><tspan
                   x="0 4.0715604 5.7484274"
                   y="0"
                   id="tspan762">Vin</tspan></text><path
                 d="m 473.571,362.3902 h -2.8858"
                 style="fill:none;stroke:#800000;stroke-width:0.7177;stroke-linecap:round;stroke-linejoin:miter;stroke-miterlimit:10;stroke-dasharray:none;stroke-opacity:1"
                 id="path766" /><path
                 d="m 526.7715,362.3753 c 0,1.1976 0.9869,2.1556 2.1831,2.1556 v 0 c 1.1663,0 2.1531,-0.958 2.1531,-2.1556 0,0 0,0 0,0 v 0 c 0,-1.1976 -0.9868,-2.1557 -2.1531,-2.1557 -1.1962,0 -2.1831,0.9581 -2.1831,2.1557 z"
                 style="fill:none;stroke:#800000;stroke-width:0.2392;stroke-linecap:round;stroke-linejoin:miter;stroke-miterlimit:10;stroke-dasharray:none;stroke-opacity:1"
                 id="path768" /><text
                 transform="matrix(1,0,0,-1,532.5431,360.3094)"
                 style="font-variant:normal;font-weight:normal;font-size:6.4669px;font-family:'Times New Roman';-inkscape-font-specification:'Times New';writing-mode:lr-tb;fill:#800000;fill-opacity:1;fill-rule:nonzero;stroke:none"
                 id="text772"><tspan
                   x="0 3.3530877 6.7061753 8.1431208 12.693878 17.244635"
                   y="0"
                   id="tspan770">To ADC</tspan></text><path
                 d="m 523.9007,362.3753 h 2.8708"
                 style="fill:none;stroke:#800000;stroke-width:0.7177;stroke-linecap:round;stroke-linejoin:miter;stroke-miterlimit:10;stroke-dasharray:none;stroke-opacity:1"
                 id="path774" /><path
                 d="m 502.3394,362.3753 h 7.1771 14.3842"
                 style="fill:none;stroke:#000080;stroke-width:0.7177;stroke-linecap:round;stroke-linejoin:miter;stroke-miterlimit:10;stroke-dasharray:none;stroke-opacity:1"
                 id="path776" /><path
                 d="m 508.0811,362.3753 c 0,0.8083 0.6579,1.4371 1.4354,1.4371 v 0 c 0.8074,0 1.4354,-0.6288 1.4354,-1.4371 0,0 0,0 0,0 v 0 c 0,-0.7785 -0.628,-1.4371 -1.4354,-1.4371 -0.7775,0 -1.4354,0.6586 -1.4354,1.4371 z"
                 style="fill:#000080;fill-opacity:1;fill-rule:nonzero;stroke:none"
                 id="path778" /><path
                 d="m 508.0811,362.3753 c 0,0.8083 0.6579,1.4371 1.4354,1.4371 v 0 c 0.8074,0 1.4354,-0.6288 1.4354,-1.4371 0,0 0,0 0,0 v 0 c 0,-0.7785 -0.628,-1.4371 -1.4354,-1.4371 -0.7775,0 -1.4354,0.6586 -1.4354,1.4371 z"
                 style="fill:none;stroke:#000080;stroke-width:0.2392;stroke-linecap:round;stroke-linejoin:miter;stroke-miterlimit:10;stroke-dasharray:none;stroke-opacity:1"
                 id="path780" /><path
                 d="m 509.5165,362.3753 v -3.5928"
                 style="fill:none;stroke:#000080;stroke-width:0.7177;stroke-linecap:round;stroke-linejoin:miter;stroke-miterlimit:10;stroke-dasharray:none;stroke-opacity:1"
                 id="path782" /><path
                 d="m 508.0811,362.3753 c 0,0.8083 0.6579,1.4371 1.4354,1.4371 v 0 c 0.8074,0 1.4354,-0.6288 1.4354,-1.4371 0,0 0,0 0,0 v 0 c 0,-0.7785 -0.628,-1.4371 -1.4354,-1.4371 -0.7775,0 -1.4354,0.6586 -1.4354,1.4371 z"
                 style="fill:#000080;fill-opacity:1;fill-rule:nonzero;stroke:none"
                 id="path784" /><path
                 d="m 508.0811,362.3753 c 0,0.8083 0.6579,1.4371 1.4354,1.4371 v 0 c 0.8074,0 1.4354,-0.6288 1.4354,-1.4371 0,0 0,0 0,0 v 0 c 0,-0.7785 -0.628,-1.4371 -1.4354,-1.4371 -0.7775,0 -1.4354,0.6586 -1.4354,1.4371 z"
                 style="fill:none;stroke:#000080;stroke-width:0.2392;stroke-linecap:round;stroke-linejoin:miter;stroke-miterlimit:10;stroke-dasharray:none;stroke-opacity:1"
                 id="path786" /><path
                 d="m 508.0811,362.3753 c 0,0.8083 0.6579,1.4371 1.4354,1.4371 v 0 c 0.8074,0 1.4354,-0.6288 1.4354,-1.4371 0,0 0,0 0,0 v 0 c 0,-0.7785 -0.628,-1.4371 -1.4354,-1.4371 -0.7775,0 -1.4354,0.6586 -1.4354,1.4371 z"
                 style="fill:#000080;fill-opacity:1;fill-rule:nonzero;stroke:none"
                 id="path788" /><path
                 d="m 508.0811,362.3753 c 0,0.8083 0.6579,1.4371 1.4354,1.4371 v 0 c 0.8074,0 1.4354,-0.6288 1.4354,-1.4371 0,0 0,0 0,0 v 0 c 0,-0.7785 -0.628,-1.4371 -1.4354,-1.4371 -0.7775,0 -1.4354,0.6586 -1.4354,1.4371 z"
                 style="fill:none;stroke:#000080;stroke-width:0.2392;stroke-linecap:round;stroke-linejoin:miter;stroke-miterlimit:10;stroke-dasharray:none;stroke-opacity:1"
                 id="path790" /><path
                 d="m 509.5165,369.5907 v -7.2154"
                 style="fill:none;stroke:#000000;stroke-width:0.7177;stroke-linecap:round;stroke-linejoin:miter;stroke-miterlimit:10;stroke-dasharray:none;stroke-opacity:1"
                 id="path792" /><path
                 d="m 508.0811,362.3753 c 0,0.8083 0.6579,1.4371 1.4354,1.4371 v 0 c 0.8074,0 1.4354,-0.6288 1.4354,-1.4371 0,0 0,0 0,0 v 0 c 0,-0.7785 -0.628,-1.4371 -1.4354,-1.4371 -0.7775,0 -1.4354,0.6586 -1.4354,1.4371 z"
                 style="fill:#000080;fill-opacity:1;fill-rule:nonzero;stroke:none"
                 id="path794" /><path
                 d="m 508.0811,362.3753 c 0,0.8083 0.6579,1.4371 1.4354,1.4371 v 0 c 0.8074,0 1.4354,-0.6288 1.4354,-1.4371 0,0 0,0 0,0 v 0 c 0,-0.7785 -0.628,-1.4371 -1.4354,-1.4371 -0.7775,0 -1.4354,0.6586 -1.4354,1.4371 z"
                 style="fill:none;stroke:#000080;stroke-width:0.2392;stroke-linecap:round;stroke-linejoin:miter;stroke-miterlimit:10;stroke-dasharray:none;stroke-opacity:1"
                 id="path796" /><path
                 d="m 509.5165,383.9916 v 7.1855"
                 style="fill:none;stroke:#000000;stroke-width:0.7177;stroke-linecap:round;stroke-linejoin:miter;stroke-miterlimit:10;stroke-dasharray:none;stroke-opacity:1"
                 id="path798" /><path
                 d="m 509.5165,369.5907 v 2.8742"
                 style="fill:none;stroke:#0000ff;stroke-width:0.7177;stroke-linecap:round;stroke-linejoin:miter;stroke-miterlimit:10;stroke-dasharray:none;stroke-opacity:1"
                 id="path800" /><path
                 d="m 509.5165,372.4649 -1.4354,0.7185"
                 style="fill:none;stroke:#0000ff;stroke-width:0.7177;stroke-linecap:round;stroke-linejoin:miter;stroke-miterlimit:10;stroke-dasharray:none;stroke-opacity:1"
                 id="path802" /><path
                 d="m 508.0811,373.1834 2.8708,1.4371"
                 style="fill:none;stroke:#0000ff;stroke-width:0.7177;stroke-linecap:round;stroke-linejoin:miter;stroke-miterlimit:10;stroke-dasharray:none;stroke-opacity:1"
                 id="path804" /><path
                 d="m 510.9519,374.6205 -2.8708,1.4371"
                 style="fill:none;stroke:#0000ff;stroke-width:0.7177;stroke-linecap:round;stroke-linejoin:miter;stroke-miterlimit:10;stroke-dasharray:none;stroke-opacity:1"
                 id="path806" /><path
                 d="m 508.0811,376.0576 2.8708,1.4371"
                 style="fill:none;stroke:#0000ff;stroke-width:0.7177;stroke-linecap:round;stroke-linejoin:miter;stroke-miterlimit:10;stroke-dasharray:none;stroke-opacity:1"
                 id="path808" /><path
                 d="m 510.9519,377.4947 -2.8708,1.4371"
                 style="fill:none;stroke:#0000ff;stroke-width:0.7177;stroke-linecap:round;stroke-linejoin:miter;stroke-miterlimit:10;stroke-dasharray:none;stroke-opacity:1"
                 id="path810" /><path
                 d="m 508.0811,378.9318 2.8708,1.4371"
                 style="fill:none;stroke:#0000ff;stroke-width:0.7177;stroke-linecap:round;stroke-linejoin:miter;stroke-miterlimit:10;stroke-dasharray:none;stroke-opacity:1"
                 id="path812" /><path
                 d="m 510.9519,380.3689 -1.4354,0.7186"
                 style="fill:none;stroke:#0000ff;stroke-width:0.7177;stroke-linecap:round;stroke-linejoin:miter;stroke-miterlimit:10;stroke-dasharray:none;stroke-opacity:1"
                 id="path814" /><path
                 d="m 509.5165,381.0875 v 2.9041"
                 style="fill:none;stroke:#0000ff;stroke-width:0.7177;stroke-linecap:round;stroke-linejoin:miter;stroke-miterlimit:10;stroke-dasharray:none;stroke-opacity:1"
                 id="path816" /><text
                 transform="matrix(1,0,0,-1,513.1649,374.6804)"
                 style="font-variant:normal;font-weight:normal;font-size:6.4669px;font-family:'Times New Roman';-inkscape-font-specification:'Times New';writing-mode:lr-tb;fill:#000080;fill-opacity:1;fill-rule:nonzero;stroke:none"
                 id="text820"><tspan
                   x="0 4.2526336"
                   y="0"
                   id="tspan818">R*</tspan></text><path
                 d="m 505.9279,398.3925 h 7.2071"
                 style="fill:none;stroke:#800000;stroke-width:0.7177;stroke-linecap:round;stroke-linejoin:miter;stroke-miterlimit:10;stroke-dasharray:none;stroke-opacity:1"
                 id="path822" /><text
                 transform="matrix(1,0,0,-1,504.5523,399.8296)"
                 style="font-variant:normal;font-weight:normal;font-size:6.4669px;font-family:'Times New Roman';-inkscape-font-specification:'Times New';writing-mode:lr-tb;fill:#800000;fill-opacity:1;fill-rule:nonzero;stroke:none"
                 id="text826"><tspan
                   x="0 4.5507574 7.4246478"
                   y="0"
                   id="tspan824">Vcc</tspan></text><path
                 d="m 509.5165,391.1771 v 7.2154"
                 style="fill:none;stroke:#800000;stroke-width:0.7177;stroke-linecap:round;stroke-linejoin:miter;stroke-miterlimit:10;stroke-dasharray:none;stroke-opacity:1"
                 id="path828" /></g></g></g></g></g></g></svg>
