<svg viewBox="0 0 131.71626 117.60962" height="117.60962" width="131.71626" xml:space="preserve" id="svg420" version="1.1" xmlns="http://www.w3.org/2000/svg"><metadata id="metadata426">image/svg+xml</metadata><defs id="defs424"><clipPath id="clipPath440" clipPathUnits="userSpaceOnUse"><path id="path438" d="M 0,0 H 835 V 573 H 0 Z"></path></clipPath></defs><g transform="matrix(1.3333333,0,0,-1.3333333,-608.55868,568.04284)" id="g428"><g id="g430"><g id="g432"><g transform="matrix(1.0024,0,0,1.0004,0,21.7591)" id="g434"><g clip-path="url(#clipPath440)" id="g436"><g id="g442"><path id="path698" style="fill:none;stroke:#000000;stroke-width:0.7177;stroke-linecap:round;stroke-linejoin:miter;stroke-miterlimit:10;stroke-dasharray:none;stroke-opacity:1" d="M 480.7482,362.3902 H 473.571"></path><path id="path700" style="fill:none;stroke:#000000;stroke-width:0.7177;stroke-linecap:round;stroke-linejoin:miter;stroke-miterlimit:10;stroke-dasharray:none;stroke-opacity:1" d="m 495.1323,362.3753 h 7.2071"></path><path id="path702" style="fill:none;stroke:#0000ff;stroke-width:0.7177;stroke-linecap:round;stroke-linejoin:miter;stroke-miterlimit:10;stroke-dasharray:none;stroke-opacity:1" d="m 480.7482,362.3902 h 2.8858"></path><path id="path704" style="fill:none;stroke:#0000ff;stroke-width:0.7177;stroke-linecap:round;stroke-linejoin:miter;stroke-miterlimit:10;stroke-dasharray:none;stroke-opacity:1" d="m 483.634,362.3902 0.7177,1.4371"></path><path id="path706" style="fill:none;stroke:#0000ff;stroke-width:0.7177;stroke-linecap:round;stroke-linejoin:miter;stroke-miterlimit:10;stroke-dasharray:none;stroke-opacity:1" d="m 484.3517,363.8273 1.4354,-2.8742"></path><path id="path708" style="fill:none;stroke:#0000ff;stroke-width:0.7177;stroke-linecap:round;stroke-linejoin:miter;stroke-miterlimit:10;stroke-dasharray:none;stroke-opacity:1" d="m 485.7871,360.9531 1.4355,2.8742"></path><path id="path710" style="fill:none;stroke:#0000ff;stroke-width:0.7177;stroke-linecap:round;stroke-linejoin:miter;stroke-miterlimit:10;stroke-dasharray:none;stroke-opacity:1" d="m 487.2226,363.8273 1.4354,-2.8742"></path><path id="path712" style="fill:none;stroke:#0000ff;stroke-width:0.7177;stroke-linecap:round;stroke-linejoin:miter;stroke-miterlimit:10;stroke-dasharray:none;stroke-opacity:1" d="m 488.6729,360.9382 1.4355,2.8742"></path><path id="path714" style="fill:none;stroke:#0000ff;stroke-width:0.7177;stroke-linecap:round;stroke-linejoin:miter;stroke-miterlimit:10;stroke-dasharray:none;stroke-opacity:1" d="m 490.1084,363.8124 1.4354,-2.8742"></path><path id="path716" style="fill:none;stroke:#0000ff;stroke-width:0.7177;stroke-linecap:round;stroke-linejoin:miter;stroke-miterlimit:10;stroke-dasharray:none;stroke-opacity:1" d="m 491.5438,360.9382 0.7177,1.4371"></path><path id="path718" style="fill:none;stroke:#0000ff;stroke-width:0.7177;stroke-linecap:round;stroke-linejoin:miter;stroke-miterlimit:10;stroke-dasharray:none;stroke-opacity:1" d="m 492.2615,362.3753 h 2.8708"></path><text id="text722" style="font-variant:normal;font-weight:normal;font-size:6.4669px;font-family:'Times New Roman';-inkscape-font-specification:'Times New';writing-mode:lr-tb;fill:#000080;fill-opacity:1;fill-rule:nonzero;stroke:none" transform="matrix(1,0,0,-1,484.4564,367.4949)"><tspan id="tspan720" y="0" x="0 4.2526336 7.4246478">R**</tspan></text><path id="path724" style="fill:none;stroke:#000000;stroke-width:0.7177;stroke-linecap:round;stroke-linejoin:miter;stroke-miterlimit:10;stroke-dasharray:none;stroke-opacity:1" d="m 509.5165,337.1961 v -7.2154"></path><path id="path726" style="fill:none;stroke:#000000;stroke-width:0.7177;stroke-linecap:round;stroke-linejoin:miter;stroke-miterlimit:10;stroke-dasharray:none;stroke-opacity:1" d="m 509.5165,351.5671 v 7.2154"></path><path id="path728" style="fill:none;stroke:#0000ff;stroke-width:0.7177;stroke-linecap:round;stroke-linejoin:miter;stroke-miterlimit:10;stroke-dasharray:none;stroke-opacity:1" d="m 509.5165,337.1961 v 2.8742"></path><path id="path730" style="fill:none;stroke:#0000ff;stroke-width:0.7177;stroke-linecap:round;stroke-linejoin:miter;stroke-miterlimit:10;stroke-dasharray:none;stroke-opacity:1" d="m 509.5165,340.0703 -1.4354,0.7186"></path><path id="path732" style="fill:none;stroke:#0000ff;stroke-width:0.7177;stroke-linecap:round;stroke-linejoin:miter;stroke-miterlimit:10;stroke-dasharray:none;stroke-opacity:1" d="m 508.0811,340.7889 2.8708,1.4371"></path><path id="path734" style="fill:none;stroke:#0000ff;stroke-width:0.7177;stroke-linecap:round;stroke-linejoin:miter;stroke-miterlimit:10;stroke-dasharray:none;stroke-opacity:1" d="m 510.9519,342.226 -2.8708,1.4371"></path><path id="path736" style="fill:none;stroke:#0000ff;stroke-width:0.7177;stroke-linecap:round;stroke-linejoin:miter;stroke-miterlimit:10;stroke-dasharray:none;stroke-opacity:1" d="m 508.0811,343.6631 2.8708,1.4371"></path><path id="path738" style="fill:none;stroke:#0000ff;stroke-width:0.7177;stroke-linecap:round;stroke-linejoin:miter;stroke-miterlimit:10;stroke-dasharray:none;stroke-opacity:1" d="m 510.9519,345.1002 -2.8708,1.4371"></path><path id="path740" style="fill:none;stroke:#0000ff;stroke-width:0.7177;stroke-linecap:round;stroke-linejoin:miter;stroke-miterlimit:10;stroke-dasharray:none;stroke-opacity:1" d="m 508.0811,346.5373 2.8708,1.437"></path><path id="path742" style="fill:none;stroke:#0000ff;stroke-width:0.7177;stroke-linecap:round;stroke-linejoin:miter;stroke-miterlimit:10;stroke-dasharray:none;stroke-opacity:1" d="m 510.9519,347.9743 -1.4354,0.7186"></path><path id="path744" style="fill:none;stroke:#0000ff;stroke-width:0.7177;stroke-linecap:round;stroke-linejoin:miter;stroke-miterlimit:10;stroke-dasharray:none;stroke-opacity:1" d="m 509.5165,348.6929 v 2.8742"></path><text id="text748" style="font-variant:normal;font-weight:normal;font-size:6.4669px;font-family:'Times New Roman';-inkscape-font-specification:'Times New';writing-mode:lr-tb;fill:#000080;fill-opacity:1;fill-rule:nonzero;stroke:none" transform="matrix(1,0,0,-1,513.1649,342.3457)"><tspan id="tspan746" y="0" x="0 4.2526336 7.4246478 10.53846">R***</tspan></text><path id="path750" style="fill:none;stroke:#800000;stroke-width:0.7177;stroke-linecap:round;stroke-linejoin:miter;stroke-miterlimit:10;stroke-dasharray:none;stroke-opacity:1" d="m 502.3394,322.7952 h 14.3842"></path><path id="path752" style="fill:none;stroke:#800000;stroke-width:0.7177;stroke-linecap:round;stroke-linejoin:miter;stroke-miterlimit:10;stroke-dasharray:none;stroke-opacity:1" d="m 504.4925,320.6096 h 10.0779"></path><path id="path754" style="fill:none;stroke:#800000;stroke-width:0.7177;stroke-linecap:round;stroke-linejoin:miter;stroke-miterlimit:10;stroke-dasharray:none;stroke-opacity:1" d="m 506.6457,318.454 h 5.7716"></path><path id="path756" style="fill:none;stroke:#800000;stroke-width:0.7177;stroke-linecap:round;stroke-linejoin:miter;stroke-miterlimit:10;stroke-dasharray:none;stroke-opacity:1" d="m 508.7988,316.2983 h 1.4354"></path><path id="path758" style="fill:none;stroke:#800000;stroke-width:0.7177;stroke-linecap:round;stroke-linejoin:miter;stroke-miterlimit:10;stroke-dasharray:none;stroke-opacity:1" d="m 509.5165,329.9807 v -7.1855"></path><path id="path760" style="fill:none;stroke:#800000;stroke-width:0.2392;stroke-linecap:round;stroke-linejoin:miter;stroke-miterlimit:10;stroke-dasharray:none;stroke-opacity:1" d="m 466.379,362.3902 c 0,1.1976 0.9569,2.1557 2.1531,2.1557 v 0 c 1.1962,0 2.1531,-0.9581 2.1531,-2.1557 0,0 0,0 0,0 v 0 c 0,-1.1975 -0.9569,-2.1556 -2.1531,-2.1556 -1.1962,0 -2.1531,0.9581 -2.1531,2.1556 z"></path><text id="text764" style="font-variant:normal;font-weight:normal;font-size:6.4669px;font-family:'Times New Roman';-inkscape-font-specification:'Times New';writing-mode:lr-tb;fill:#800000;fill-opacity:1;fill-rule:nonzero;stroke:none" transform="matrix(1,0,0,-1,455.2694,360.3094)"><tspan id="tspan762" y="0" x="0 4.0715604 5.7484274">Vin</tspan></text><path id="path766" style="fill:none;stroke:#800000;stroke-width:0.7177;stroke-linecap:round;stroke-linejoin:miter;stroke-miterlimit:10;stroke-dasharray:none;stroke-opacity:1" d="m 473.571,362.3902 h -2.8858"></path><path id="path768" style="fill:none;stroke:#800000;stroke-width:0.2392;stroke-linecap:round;stroke-linejoin:miter;stroke-miterlimit:10;stroke-dasharray:none;stroke-opacity:1" d="m 526.7715,362.3753 c 0,1.1976 0.9869,2.1556 2.1831,2.1556 v 0 c 1.1663,0 2.1531,-0.958 2.1531,-2.1556 0,0 0,0 0,0 v 0 c 0,-1.1976 -0.9868,-2.1557 -2.1531,-2.1557 -1.1962,0 -2.1831,0.9581 -2.1831,2.1557 z"></path><text id="text772" style="font-variant:normal;font-weight:normal;font-size:6.4669px;font-family:'Times New Roman';-inkscape-font-specification:'Times New';writing-mode:lr-tb;fill:#800000;fill-opacity:1;fill-rule:nonzero;stroke:none" transform="matrix(1,0,0,-1,532.5431,360.3094)"><tspan id="tspan770" y="0" x="0 3.3530877 6.7061753 8.1431208 12.693878 17.244635">To ADC</tspan></text><path id="path774" style="fill:none;stroke:#800000;stroke-width:0.7177;stroke-linecap:round;stroke-linejoin:miter;stroke-miterlimit:10;stroke-dasharray:none;stroke-opacity:1" d="m 523.9007,362.3753 h 2.8708"></path><path id="path776" style="fill:none;stroke:#000080;stroke-width:0.7177;stroke-linecap:round;stroke-linejoin:miter;stroke-miterlimit:10;stroke-dasharray:none;stroke-opacity:1" d="m 502.3394,362.3753 h 7.1771 14.3842"></path><path id="path778" style="fill:#000080;fill-opacity:1;fill-rule:nonzero;stroke:none" d="m 508.0811,362.3753 c 0,0.8083 0.6579,1.4371 1.4354,1.4371 v 0 c 0.8074,0 1.4354,-0.6288 1.4354,-1.4371 0,0 0,0 0,0 v 0 c 0,-0.7785 -0.628,-1.4371 -1.4354,-1.4371 -0.7775,0 -1.4354,0.6586 -1.4354,1.4371 z"></path><path id="path780" style="fill:none;stroke:#000080;stroke-width:0.2392;stroke-linecap:round;stroke-linejoin:miter;stroke-miterlimit:10;stroke-dasharray:none;stroke-opacity:1" d="m 508.0811,362.3753 c 0,0.8083 0.6579,1.4371 1.4354,1.4371 v 0 c 0.8074,0 1.4354,-0.6288 1.4354,-1.4371 0,0 0,0 0,0 v 0 c 0,-0.7785 -0.628,-1.4371 -1.4354,-1.4371 -0.7775,0 -1.4354,0.6586 -1.4354,1.4371 z"></path><path id="path782" style="fill:none;stroke:#000080;stroke-width:0.7177;stroke-linecap:round;stroke-linejoin:miter;stroke-miterlimit:10;stroke-dasharray:none;stroke-opacity:1" d="m 509.5165,362.3753 v -3.5928"></path><path id="path784" style="fill:#000080;fill-opacity:1;fill-rule:nonzero;stroke:none" d="m 508.0811,362.3753 c 0,0.8083 0.6579,1.4371 1.4354,1.4371 v 0 c 0.8074,0 1.4354,-0.6288 1.4354,-1.4371 0,0 0,0 0,0 v 0 c 0,-0.7785 -0.628,-1.4371 -1.4354,-1.4371 -0.7775,0 -1.4354,0.6586 -1.4354,1.4371 z"></path><path id="path786" style="fill:none;stroke:#000080;stroke-width:0.2392;stroke-linecap:round;stroke-linejoin:miter;stroke-miterlimit:10;stroke-dasharray:none;stroke-opacity:1" d="m 508.0811,362.3753 c 0,0.8083 0.6579,1.4371 1.4354,1.4371 v 0 c 0.8074,0 1.4354,-0.6288 1.4354,-1.4371 0,0 0,0 0,0 v 0 c 0,-0.7785 -0.628,-1.4371 -1.4354,-1.4371 -0.7775,0 -1.4354,0.6586 -1.4354,1.4371 z"></path><path id="path788" style="fill:#000080;fill-opacity:1;fill-rule:nonzero;stroke:none" d="m 508.0811,362.3753 c 0,0.8083 0.6579,1.4371 1.4354,1.4371 v 0 c 0.8074,0 1.4354,-0.6288 1.4354,-1.4371 0,0 0,0 0,0 v 0 c 0,-0.7785 -0.628,-1.4371 -1.4354,-1.4371 -0.7775,0 -1.4354,0.6586 -1.4354,1.4371 z"></path><path id="path790" style="fill:none;stroke:#000080;stroke-width:0.2392;stroke-linecap:round;stroke-linejoin:miter;stroke-miterlimit:10;stroke-dasharray:none;stroke-opacity:1" d="m 508.0811,362.3753 c 0,0.8083 0.6579,1.4371 1.4354,1.4371 v 0 c 0.8074,0 1.4354,-0.6288 1.4354,-1.4371 0,0 0,0 0,0 v 0 c 0,-0.7785 -0.628,-1.4371 -1.4354,-1.4371 -0.7775,0 -1.4354,0.6586 -1.4354,1.4371 z"></path><path id="path792" style="fill:none;stroke:#000000;stroke-width:0.7177;stroke-linecap:round;stroke-linejoin:miter;stroke-miterlimit:10;stroke-dasharray:none;stroke-opacity:1" d="m 509.5165,369.5907 v -7.2154"></path><path id="path794" style="fill:#000080;fill-opacity:1;fill-rule:nonzero;stroke:none" d="m 508.0811,362.3753 c 0,0.8083 0.6579,1.4371 1.4354,1.4371 v 0 c 0.8074,0 1.4354,-0.6288 1.4354,-1.4371 0,0 0,0 0,0 v 0 c 0,-0.7785 -0.628,-1.4371 -1.4354,-1.4371 -0.7775,0 -1.4354,0.6586 -1.4354,1.4371 z"></path><path id="path796" style="fill:none;stroke:#000080;stroke-width:0.2392;stroke-linecap:round;stroke-linejoin:miter;stroke-miterlimit:10;stroke-dasharray:none;stroke-opacity:1" d="m 508.0811,362.3753 c 0,0.8083 0.6579,1.4371 1.4354,1.4371 v 0 c 0.8074,0 1.4354,-0.6288 1.4354,-1.4371 0,0 0,0 0,0 v 0 c 0,-0.7785 -0.628,-1.4371 -1.4354,-1.4371 -0.7775,0 -1.4354,0.6586 -1.4354,1.4371 z"></path><path id="path798" style="fill:none;stroke:#000000;stroke-width:0.7177;stroke-linecap:round;stroke-linejoin:miter;stroke-miterlimit:10;stroke-dasharray:none;stroke-opacity:1" d="m 509.5165,383.9916 v 7.1855"></path><path id="path800" style="fill:none;stroke:#0000ff;stroke-width:0.7177;stroke-linecap:round;stroke-linejoin:miter;stroke-miterlimit:10;stroke-dasharray:none;stroke-opacity:1" d="m 509.5165,369.5907 v 2.8742"></path><path id="path802" style="fill:none;stroke:#0000ff;stroke-width:0.7177;stroke-linecap:round;stroke-linejoin:miter;stroke-miterlimit:10;stroke-dasharray:none;stroke-opacity:1" d="m 509.5165,372.4649 -1.4354,0.7185"></path><path id="path804" style="fill:none;stroke:#0000ff;stroke-width:0.7177;stroke-linecap:round;stroke-linejoin:miter;stroke-miterlimit:10;stroke-dasharray:none;stroke-opacity:1" d="m 508.0811,373.1834 2.8708,1.4371"></path><path id="path806" style="fill:none;stroke:#0000ff;stroke-width:0.7177;stroke-linecap:round;stroke-linejoin:miter;stroke-miterlimit:10;stroke-dasharray:none;stroke-opacity:1" d="m 510.9519,374.6205 -2.8708,1.4371"></path><path id="path808" style="fill:none;stroke:#0000ff;stroke-width:0.7177;stroke-linecap:round;stroke-linejoin:miter;stroke-miterlimit:10;stroke-dasharray:none;stroke-opacity:1" d="m 508.0811,376.0576 2.8708,1.4371"></path><path id="path810" style="fill:none;stroke:#0000ff;stroke-width:0.7177;stroke-linecap:round;stroke-linejoin:miter;stroke-miterlimit:10;stroke-dasharray:none;stroke-opacity:1" d="m 510.9519,377.4947 -2.8708,1.4371"></path><path id="path812" style="fill:none;stroke:#0000ff;stroke-width:0.7177;stroke-linecap:round;stroke-linejoin:miter;stroke-miterlimit:10;stroke-dasharray:none;stroke-opacity:1" d="m 508.0811,378.9318 2.8708,1.4371"></path><path id="path814" style="fill:none;stroke:#0000ff;stroke-width:0.7177;stroke-linecap:round;stroke-linejoin:miter;stroke-miterlimit:10;stroke-dasharray:none;stroke-opacity:1" d="m 510.9519,380.3689 -1.4354,0.7186"></path><path id="path816" style="fill:none;stroke:#0000ff;stroke-width:0.7177;stroke-linecap:round;stroke-linejoin:miter;stroke-miterlimit:10;stroke-dasharray:none;stroke-opacity:1" d="m 509.5165,381.0875 v 2.9041"></path><text id="text820" style="font-variant:normal;font-weight:normal;font-size:6.4669px;font-family:'Times New Roman';-inkscape-font-specification:'Times New';writing-mode:lr-tb;fill:#000080;fill-opacity:1;fill-rule:nonzero;stroke:none" transform="matrix(1,0,0,-1,513.1649,374.6804)"><tspan id="tspan818" y="0" x="0 4.2526336">R*</tspan></text><path id="path822" style="fill:none;stroke:#800000;stroke-width:0.7177;stroke-linecap:round;stroke-linejoin:miter;stroke-miterlimit:10;stroke-dasharray:none;stroke-opacity:1" d="m 505.9279,398.3925 h 7.2071"></path><text id="text826" style="font-variant:normal;font-weight:normal;font-size:6.4669px;font-family:'Times New Roman';-inkscape-font-specification:'Times New';writing-mode:lr-tb;fill:#800000;fill-opacity:1;fill-rule:nonzero;stroke:none" transform="matrix(1,0,0,-1,504.5523,399.8296)"><tspan id="tspan824" y="0" x="0 4.5507574 7.4246478">Vcc</tspan></text><path id="path828" style="fill:none;stroke:#800000;stroke-width:0.7177;stroke-linecap:round;stroke-linejoin:miter;stroke-miterlimit:10;stroke-dasharray:none;stroke-opacity:1" d="m 509.5165,391.1771 v 7.2154"></path></g></g></g></g></g></g></svg>
