<?xml version="1.0" encoding="UTF-8" standalone="no"?>
<svg
   xmlns:dc="http://purl.org/dc/elements/1.1/"
   xmlns:cc="http://creativecommons.org/ns#"
   xmlns:rdf="http://www.w3.org/1999/02/22-rdf-syntax-ns#"
   xmlns:svg="http://www.w3.org/2000/svg"
   xmlns="http://www.w3.org/2000/svg"
   viewBox="0 0 622.2293 352.12509"
   height="352.12506"
   width="622.22931"
   xml:space="preserve"
   id="svg10"
   version="1.1"><metadata
     id="metadata16"><rdf:RDF><cc:Work
         rdf:about=""><dc:format>image/svg+xml</dc:format><dc:type
           rdf:resource="http://purl.org/dc/dcmitype/StillImage" /><dc:title></dc:title></cc:Work></rdf:RDF></metadata><defs
     id="defs14"><clipPath
       id="clipPath30"
       clipPathUnits="userSpaceOnUse"><path
         id="path28"
         d="M 0,0 H 801 V 577 H 0 Z" /></clipPath></defs><g
     transform="matrix(1.3333333,0,0,-1.3333333,-406.88313,701.89728)"
     id="g18"><g
       id="g20"><g
         id="g22"><g
           transform="matrix(1.3929,0,0,1.3872,0,-1.3872)"
           id="g24"><g
             clip-path="url(#clipPath30)"
             id="g26"><g
               id="g32"><path
                 id="path186"
                 style="fill:#93c47d;fill-opacity:1;fill-rule:evenodd;stroke:none"
                 d="m 391.6439,214.7041 v 165.621 l 30.9193,-20.7027 V 235.4067 Z" /><path
                 id="path188"
                 style="fill:none;stroke:#274e13;stroke-width:0.1718;stroke-linecap:round;stroke-linejoin:miter;stroke-miterlimit:10;stroke-dasharray:none;stroke-opacity:1"
                 d="m 391.6439,214.7041 v 165.621 l 30.9193,-20.7027 V 235.4067 Z" /><text
                 id="text192"
                 style="font-variant:normal;font-weight:normal;font-size:9.31620026px;font-family:'Times New Roman';-inkscape-font-specification:'Times New';writing-mode:lr-tb;fill:#080d02;fill-opacity:1;fill-rule:nonzero;stroke:none"
                 transform="matrix(1,0,0,-1,402.4657,359.1049)"><tspan
                   id="tspan190"
                   y="0"
                   x="0">1</tspan></text>
<path
                 id="path206"
                 style="fill:none;stroke:#000000;stroke-width:2.57660007;stroke-linecap:round;stroke-linejoin:miter;stroke-miterlimit:10;stroke-dasharray:none;stroke-opacity:1"
                 d="m 314.3458,362.2103 h 72.1449" /><path
                 id="path208"
                 style="fill:#000000;fill-opacity:1;fill-rule:evenodd;stroke:none"
                 d="m 390.3556,362.2103 -14.1713,5.1756 v -10.3513 z" /><path
                 id="path210"
                 style="fill:none;stroke:#000000;stroke-width:2.57660007;stroke-linecap:round;stroke-linejoin:miter;stroke-miterlimit:10;stroke-dasharray:none;stroke-opacity:1"
                 d="m 390.3556,362.2103 -14.1713,5.1756 v -10.3513 z" /><path
                 id="path212"
                 style="fill:none;stroke:#000000;stroke-width:2.57660007;stroke-linecap:round;stroke-linejoin:miter;stroke-miterlimit:10;stroke-dasharray:none;stroke-opacity:1"
                 d="m 422.5632,300.1024 h 66.9917" /><path
                 id="path214"
                 style="fill:#000000;fill-opacity:1;fill-rule:evenodd;stroke:none"
                 d="m 493.4198,300.1024 -14.1713,5.1756 v -10.3513 z" /><path
                 id="path216"
                 style="fill:none;stroke:#000000;stroke-width:2.57660007;stroke-linecap:round;stroke-linejoin:miter;stroke-miterlimit:10;stroke-dasharray:none;stroke-opacity:1"
                 d="m 493.4198,300.1024 -14.1713,5.1756 v -10.3513 z" /><path
                 id="path326"
                 style="fill:none;stroke:#000000;stroke-width:2.57660007;stroke-linecap:round;stroke-linejoin:miter;stroke-miterlimit:10;stroke-dasharray:none;stroke-opacity:1"
                 d="m 314.3458,346.6833 h 72.1449" /><path
                 id="path328"
                 style="fill:#000000;fill-opacity:1;fill-rule:evenodd;stroke:none"
                 d="m 390.3556,346.6833 -14.1713,5.1757 v -10.3514 z" /><path
                 id="path330"
                 style="fill:none;stroke:#000000;stroke-width:2.57660007;stroke-linecap:round;stroke-linejoin:miter;stroke-miterlimit:10;stroke-dasharray:none;stroke-opacity:1"
                 d="m 390.3556,346.6833 -14.1713,5.1757 v -10.3514 z" /><path
                 id="path332"
                 style="fill:none;stroke:#000000;stroke-width:2.57660007;stroke-linecap:round;stroke-linejoin:miter;stroke-miterlimit:10;stroke-dasharray:none;stroke-opacity:1"
                 d="m 314.3458,331.1563 h 72.1449" /><path
                 id="path334"
                 style="fill:#000000;fill-opacity:1;fill-rule:evenodd;stroke:none"
                 d="m 390.3556,331.1563 -14.1713,5.1757 v -10.3513 z" /><path
                 id="path336"
                 style="fill:none;stroke:#000000;stroke-width:2.57660007;stroke-linecap:round;stroke-linejoin:miter;stroke-miterlimit:10;stroke-dasharray:none;stroke-opacity:1"
                 d="m 390.3556,331.1563 -14.1713,5.1757 v -10.3513 z" /><path
                 id="path338"
                 style="fill:none;stroke:#000000;stroke-width:2.57660007;stroke-linecap:round;stroke-linejoin:miter;stroke-miterlimit:10;stroke-dasharray:none;stroke-opacity:1"
                 d="m 314.3458,315.6294 h 72.1449" /><path
                 id="path340"
                 style="fill:#000000;fill-opacity:1;fill-rule:evenodd;stroke:none"
                 d="m 390.3556,315.6294 -14.1713,5.1756 v -10.3513 z" /><path
                 id="path342"
                 style="fill:none;stroke:#000000;stroke-width:2.57660007;stroke-linecap:round;stroke-linejoin:miter;stroke-miterlimit:10;stroke-dasharray:none;stroke-opacity:1"
                 d="m 390.3556,315.6294 -14.1713,5.1756 v -10.3513 z" /><path
                 id="path344"
                 style="fill:none;stroke:#000000;stroke-width:2.57660007;stroke-linecap:round;stroke-linejoin:miter;stroke-miterlimit:10;stroke-dasharray:none;stroke-opacity:1"
                 d="m 314.3458,284.5754 h 72.1449" /><path
                 id="path346"
                 style="fill:#000000;fill-opacity:1;fill-rule:evenodd;stroke:none"
                 d="m 390.3556,284.5754 -14.1713,5.1757 v -10.3513 z" /><path
                 id="path348"
                 style="fill:none;stroke:#000000;stroke-width:2.57660007;stroke-linecap:round;stroke-linejoin:miter;stroke-miterlimit:10;stroke-dasharray:none;stroke-opacity:1"
                 d="m 390.3556,284.5754 -14.1713,5.1757 v -10.3513 z" /><path
                 id="path350"
                 style="fill:#000000;fill-opacity:1;fill-rule:nonzero;stroke:none"
                 d="m 332.382,300.1024 c 0,1.4233 1.1595,2.5878 2.5766,2.5878 v 0 c 1.4279,0 2.5766,-1.1645 2.5766,-2.5878 0,0 0,0 0,0 v 0 c 0,-1.4341 -1.1487,-2.5878 -2.5766,-2.5878 -1.4171,0 -2.5766,1.1537 -2.5766,2.5878 z" /><path
                 id="path352"
                 style="fill:none;stroke:#000000;stroke-width:0.1718;stroke-linecap:round;stroke-linejoin:miter;stroke-miterlimit:10;stroke-dasharray:none;stroke-opacity:1"
                 d="m 332.382,300.1024 c 0,1.4233 1.1595,2.5878 2.5766,2.5878 v 0 c 1.4279,0 2.5766,-1.1645 2.5766,-2.5878 0,0 0,0 0,0 v 0 c 0,-1.4341 -1.1487,-2.5878 -2.5766,-2.5878 -1.4171,0 -2.5766,1.1537 -2.5766,2.5878 z" /><path
                 id="path354"
                 style="fill:#000000;fill-opacity:1;fill-rule:nonzero;stroke:none"
                 d="m 342.6885,300.1024 c 0,1.4233 1.1594,2.5878 2.5766,2.5878 v 0 c 1.4278,0 2.5766,-1.1645 2.5766,-2.5878 0,0 0,0 0,0 v 0 c 0,-1.4341 -1.1488,-2.5878 -2.5766,-2.5878 -1.4172,0 -2.5766,1.1537 -2.5766,2.5878 z" /><path
                 id="path356"
                 style="fill:none;stroke:#000000;stroke-width:0.1718;stroke-linecap:round;stroke-linejoin:miter;stroke-miterlimit:10;stroke-dasharray:none;stroke-opacity:1"
                 d="m 342.6885,300.1024 c 0,1.4233 1.1594,2.5878 2.5766,2.5878 v 0 c 1.4278,0 2.5766,-1.1645 2.5766,-2.5878 0,0 0,0 0,0 v 0 c 0,-1.4341 -1.1488,-2.5878 -2.5766,-2.5878 -1.4172,0 -2.5766,1.1537 -2.5766,2.5878 z" /><path
                 id="path358"
                 style="fill:#000000;fill-opacity:1;fill-rule:nonzero;stroke:none"
                 d="m 352.9949,300.1024 c 0,1.4233 1.1594,2.5878 2.5766,2.5878 v 0 c 1.4386,0 2.5766,-1.1645 2.5766,-2.5878 0,0 0,0 0,0 v 0 c 0,-1.4449 -1.138,-2.5878 -2.5766,-2.5878 -1.4172,0 -2.5766,1.1429 -2.5766,2.5878 z" /><path
                 id="path360"
                 style="fill:none;stroke:#000000;stroke-width:0.1718;stroke-linecap:round;stroke-linejoin:miter;stroke-miterlimit:10;stroke-dasharray:none;stroke-opacity:1"
                 d="m 352.9949,300.1024 c 0,1.4233 1.1594,2.5878 2.5766,2.5878 v 0 c 1.4386,0 2.5766,-1.1645 2.5766,-2.5878 0,0 0,0 0,0 v 0 c 0,-1.4449 -1.138,-2.5878 -2.5766,-2.5878 -1.4172,0 -2.5766,1.1429 -2.5766,2.5878 z" /><path
                 id="path362"
                 style="fill:none;stroke:#000000;stroke-width:2.57660007;stroke-linecap:round;stroke-linejoin:miter;stroke-miterlimit:10;stroke-dasharray:none;stroke-opacity:1"
                 d="m 314.3458,269.0485 h 72.1449" /><path
                 id="path364"
                 style="fill:#000000;fill-opacity:1;fill-rule:evenodd;stroke:none"
                 d="m 390.3556,269.0485 -14.1713,5.1756 v -10.3513 z" /><path
                 id="path366"
                 style="fill:none;stroke:#000000;stroke-width:2.57660007;stroke-linecap:round;stroke-linejoin:miter;stroke-miterlimit:10;stroke-dasharray:none;stroke-opacity:1"
                 d="m 390.3556,269.0485 -14.1713,5.1756 v -10.3513 z" /><path
                 id="path368"
                 style="fill:none;stroke:#000000;stroke-width:2.57660007;stroke-linecap:round;stroke-linejoin:miter;stroke-miterlimit:10;stroke-dasharray:none;stroke-opacity:1"
                 d="m 314.3458,253.5215 h 72.1449" /><path
                 id="path370"
                 style="fill:#000000;fill-opacity:1;fill-rule:evenodd;stroke:none"
                 d="m 390.3556,253.5215 -14.1713,5.1756 v -10.3513 z" /><path
                 id="path372"
                 style="fill:none;stroke:#000000;stroke-width:2.57660007;stroke-linecap:round;stroke-linejoin:miter;stroke-miterlimit:10;stroke-dasharray:none;stroke-opacity:1"
                 d="m 390.3556,253.5215 -14.1713,5.1756 v -10.3513 z" /><path
                 id="path374"
                 style="fill:none;stroke:#000000;stroke-width:2.57660007;stroke-linecap:round;stroke-linejoin:miter;stroke-miterlimit:10;stroke-dasharray:none;stroke-opacity:1"
                 d="m 314.3458,237.9945 h 72.1449" /><path
                 id="path376"
                 style="fill:#000000;fill-opacity:1;fill-rule:evenodd;stroke:none"
                 d="m 390.3556,237.9945 -14.1713,5.1757 v -10.3513 z" /><path
                 id="path378"
                 style="fill:none;stroke:#000000;stroke-width:2.57660007;stroke-linecap:round;stroke-linejoin:miter;stroke-miterlimit:10;stroke-dasharray:none;stroke-opacity:1"
                 d="m 390.3556,237.9945 -14.1713,5.1757 v -10.3513 z" /><text
                 id="text382"
                 style="font-variant:normal;font-weight:normal;font-size:9.31620026px;font-family:'Times New Roman';-inkscape-font-specification:'Times New Bold';writing-mode:lr-tb;fill:#080d02;fill-opacity:1;fill-rule:nonzero;stroke:none"
                 transform="matrix(1,0,0,-1,239.6243,340.9901)"><tspan
                   id="tspan380"
                   y="0"
                   x="0 5.1341577 7.678412 12.290863 17.42502 22.06542 24.637623 28.243923 30.555273 33.641731 37.609501 42.095249">Signals from</tspan></text>
<text
                 id="text386"
                 style="font-variant:normal;font-weight:normal;font-size:9.31620026px;font-family:'Times New Roman';-inkscape-font-specification:'Times New Bold';writing-mode:lr-tb;fill:#080d02;fill-opacity:1;fill-rule:nonzero;stroke:none"
                 transform="matrix(1,0,0,-1,219.0114,330.6388)"><tspan
                   id="tspan384"
                   y="0"
                   x="0 6.7113905 13.422781 18.587683 20.901827 27.613216 32.779049 36.833462 40.887871 44.937622 50.031719 53.116314 55.427662 60.589771 64.708466 69.871498 73.408859 77.980324 82.118576">ACS Current Sensors</tspan></text>
<text
                 id="text390"
                 style="font-variant:normal;font-weight:normal;font-size:9.31620026px;font-family:'Times New Roman';-inkscape-font-specification:'Times New Bold';writing-mode:lr-tb;fill:#080d02;fill-opacity:1;fill-rule:nonzero;stroke:none"
                 transform="matrix(1,0,0,-1,523.0508,294.4092)"><tspan
                   id="tspan388"
                   y="0"
                   x="0 5.3484306">To</tspan></text>
<text
                 id="text394"
                 style="font-variant:normal;font-weight:normal;font-size:9.31620026px;font-family:'Times New Roman';-inkscape-font-specification:'Times New Bold';writing-mode:lr-tb;fill:#080d02;fill-opacity:1;fill-rule:nonzero;stroke:none"
                 transform="matrix(1,0,0,-1,497.2847,284.0579)"><tspan
                   id="tspan392"
                   y="0"
                   x="0 6.6415191 11.21391 16.216709 19.23609 23.290501 27.776251 30.342863 32.648624 38.839237 43.47591 48.076252 52.154884">Control Board</tspan></text>
<text
                 id="text398"
                 style="font-variant:normal;font-weight:normal;font-size:9.31620026px;font-family:'Times New Roman';-inkscape-font-specification:'Times New';writing-mode:lr-tb;fill:#080d02;fill-opacity:1;fill-rule:nonzero;stroke:none"
                 transform="matrix(1,0,0,-1,402.4657,343.5779)"><tspan
                   id="tspan396"
                   y="0"
                   x="0">2</tspan></text>
<text
                 id="text402"
                 style="font-variant:normal;font-weight:normal;font-size:9.31620026px;font-family:'Times New Roman';-inkscape-font-specification:'Times New';writing-mode:lr-tb;fill:#080d02;fill-opacity:1;fill-rule:nonzero;stroke:none"
                 transform="matrix(1,0,0,-1,402.4657,328.0509)"><tspan
                   id="tspan400"
                   y="0"
                   x="0">3</tspan></text>
<text
                 id="text406"
                 style="font-variant:normal;font-weight:normal;font-size:9.31620026px;font-family:'Times New Roman';-inkscape-font-specification:'Times New';writing-mode:lr-tb;fill:#080d02;fill-opacity:1;fill-rule:nonzero;stroke:none"
                 transform="matrix(1,0,0,-1,402.4657,312.524)"><tspan
                   id="tspan404"
                   y="0"
                   x="0">4</tspan></text>
<text
                 id="text410"
                 style="font-variant:normal;font-weight:normal;font-size:9.31620026px;font-family:'Times New Roman';-inkscape-font-specification:'Times New';writing-mode:lr-tb;fill:#000000;fill-opacity:1;fill-rule:nonzero;stroke:none"
                 transform="matrix(1,0,0,-1,398.3431,281.47)"><tspan
                   id="tspan408"
                   y="0"
                   x="0 5.0931664 8.1088209">PI1</tspan></text>
<text
                 id="text414"
                 style="font-variant:normal;font-weight:normal;font-size:9.31620026px;font-family:'Times New Roman';-inkscape-font-specification:'Times New';writing-mode:lr-tb;fill:#000000;fill-opacity:1;fill-rule:nonzero;stroke:none"
                 transform="matrix(1,0,0,-1,398.3431,250.4161)"><tspan
                   id="tspan412"
                   y="0"
                   x="0 5.0931664 8.1088209">PI2</tspan></text>
<text
                 id="text418"
                 style="font-variant:normal;font-weight:normal;font-size:9.31620026px;font-family:'Times New Roman';-inkscape-font-specification:'Times New';writing-mode:lr-tb;fill:#000000;fill-opacity:1;fill-rule:nonzero;stroke:none"
                 transform="matrix(1,0,0,-1,396.7972,265.9431)"><tspan
                   id="tspan416"
                   y="0"
                   x="0 5.1770124 11.388123">PR1</tspan></text>
<text
                 id="text422"
                 style="font-variant:normal;font-weight:normal;font-size:9.31620026px;font-family:'Times New Roman';-inkscape-font-specification:'Times New';writing-mode:lr-tb;fill:#000000;fill-opacity:1;fill-rule:nonzero;stroke:none"
                 transform="matrix(1,0,0,-1,396.7972,234.8891)"><tspan
                   id="tspan420"
                   y="0"
                   x="0 5.1770124 11.388123">PR2</tspan></text>
<text
                 id="text426"
                 style="font-variant:normal;font-weight:normal;font-size:9.31620026px;font-family:'Times New Roman';-inkscape-font-specification:'Times New Bold';writing-mode:lr-tb;fill:#080d02;fill-opacity:1;fill-rule:nonzero;stroke:none"
                 transform="matrix(1,0,0,-1,239.6243,263.3552)"><tspan
                   id="tspan424"
                   y="0"
                   x="0 5.1341577 7.678412 12.290863 17.42502 22.06542 24.637623 28.243923 30.555273 33.641731 37.609501 42.095249">Signals from</tspan></text>
<text
                 id="text430"
                 style="font-variant:normal;font-weight:normal;font-size:9.31620026px;font-family:'Times New Roman';-inkscape-font-specification:'Times New Bold';writing-mode:lr-tb;fill:#080d02;fill-opacity:1;fill-rule:nonzero;stroke:none"
                 transform="matrix(1,0,0,-1,237.0477,253.0039)"><tspan
                   id="tspan428"
                   y="0"
                   x="0 5.6064892 10.17888 16.73469 20.789101 24.84351 27.150202 32.307652 36.421684 41.578201 45.115562 49.687019 53.825275">Power Sensors</tspan></text>
<path
                 id="path432"
                 style="fill:#000000;fill-opacity:1;fill-rule:nonzero;stroke:none"
                 d="m 403.4963,294.9267 c 0,0.5607 0.4724,1.0352 1.0307,1.0352 v 0 c 0.5797,0 1.0306,-0.4745 1.0306,-1.0352 0,0 0,0 0,0 v 0 c 0,-0.5822 -0.4509,-1.0351 -1.0306,-1.0351 -0.5583,0 -1.0307,0.4529 -1.0307,1.0351 z" /><path
                 id="path434"
                 style="fill:none;stroke:#000000;stroke-width:0.1718;stroke-linecap:round;stroke-linejoin:miter;stroke-miterlimit:10;stroke-dasharray:none;stroke-opacity:1"
                 d="m 403.4963,294.9267 c 0,0.5607 0.4724,1.0352 1.0307,1.0352 v 0 c 0.5797,0 1.0306,-0.4745 1.0306,-1.0352 0,0 0,0 0,0 v 0 c 0,-0.5822 -0.4509,-1.0351 -1.0306,-1.0351 -0.5583,0 -1.0307,0.4529 -1.0307,1.0351 z" /><path
                 id="path436"
                 style="fill:#000000;fill-opacity:1;fill-rule:nonzero;stroke:none"
                 d="m 403.4963,300.1024 c 0,0.5607 0.4724,1.0351 1.0307,1.0351 v 0 c 0.5797,0 1.0306,-0.4744 1.0306,-1.0351 0,0 0,0 0,0 v 0 c 0,-0.5823 -0.4509,-1.0351 -1.0306,-1.0351 -0.5583,0 -1.0307,0.4528 -1.0307,1.0351 z" /><path
                 id="path438"
                 style="fill:none;stroke:#000000;stroke-width:0.1718;stroke-linecap:round;stroke-linejoin:miter;stroke-miterlimit:10;stroke-dasharray:none;stroke-opacity:1"
                 d="m 403.4963,300.1024 c 0,0.5607 0.4724,1.0351 1.0307,1.0351 v 0 c 0.5797,0 1.0306,-0.4744 1.0306,-1.0351 0,0 0,0 0,0 v 0 c 0,-0.5823 -0.4509,-1.0351 -1.0306,-1.0351 -0.5583,0 -1.0307,0.4528 -1.0307,1.0351 z" /><path
                 id="path440"
                 style="fill:#000000;fill-opacity:1;fill-rule:nonzero;stroke:none"
                 d="m 403.4963,305.278 c 0,0.5607 0.4724,1.0352 1.0307,1.0352 v 0 c 0.5797,0 1.0306,-0.4745 1.0306,-1.0352 0,0 0,0 0,0 v 0 c 0,-0.5822 -0.4509,-1.0351 -1.0306,-1.0351 -0.5583,0 -1.0307,0.4529 -1.0307,1.0351 z" /><path
                 id="path442"
                 style="fill:none;stroke:#000000;stroke-width:0.1718;stroke-linecap:round;stroke-linejoin:miter;stroke-miterlimit:10;stroke-dasharray:none;stroke-opacity:1"
                 d="m 403.4963,305.278 c 0,0.5607 0.4724,1.0352 1.0307,1.0352 v 0 c 0.5797,0 1.0306,-0.4745 1.0306,-1.0352 0,0 0,0 0,0 v 0 c 0,-0.5822 -0.4509,-1.0351 -1.0306,-1.0351 -0.5583,0 -1.0307,0.4529 -1.0307,1.0351 z" /><path
                 id="path444"
                 style="fill:none;stroke:#000000;stroke-width:2.57660007;stroke-linecap:round;stroke-linejoin:miter;stroke-miterlimit:10;stroke-dasharray:none;stroke-opacity:1"
                 d="m 489.5549,281.9876 h -25.766" /><path
                 id="path446"
                 style="fill:none;stroke:#000000;stroke-width:2.57660007;stroke-linecap:round;stroke-linejoin:miter;stroke-miterlimit:10;stroke-dasharray:none;stroke-opacity:1"
                 d="m 463.7889,281.9876 v -90.574" /><path
                 id="path448"
                 style="fill:none;stroke:#000000;stroke-width:2.57660007;stroke-linecap:round;stroke-linejoin:miter;stroke-miterlimit:10;stroke-dasharray:none;stroke-opacity:1"
                 d="M 463.7889,191.4136 H 412.2568" /><path
                 id="path450"
                 style="fill:none;stroke:#000000;stroke-width:2.57660007;stroke-linecap:round;stroke-linejoin:miter;stroke-miterlimit:10;stroke-dasharray:none;stroke-opacity:1"
                 d="m 412.2568,191.4136 v 33.6418" /><path
                 id="path452"
                 style="fill:#000000;fill-opacity:1;fill-rule:evenodd;stroke:none"
                 d="m 412.2568,228.9371 -5.1532,-14.233 H 417.41 Z" /><path
                 id="path454"
                 style="fill:none;stroke:#000000;stroke-width:2.57660007;stroke-linecap:round;stroke-linejoin:miter;stroke-miterlimit:10;stroke-dasharray:none;stroke-opacity:1"
                 d="m 412.2568,228.9371 -5.1532,-14.233 H 417.41 Z" /></g></g></g></g></g></g></svg>