<?xml version="1.0" encoding="utf-8" standalone="no"?><!DOCTYPE svg PUBLIC "-//W3C//DTD SVG 1.1//EN" "http://www.w3.org/Graphics/SVG/1.1/DTD/svg11.dtd">
<svg preserveAspectRatio="xMinYMin meet" width="100%" height="100%" viewBox="0 0 525.000 393.750"  version="1.1" xmlns="http://www.w3.org/2000/svg" xmlns:xlink="http://www.w3.org/1999/xlink">
  <desc>Matlab Figure Converted by PLOT2SVG written by Juerg Schwizer</desc>
  <g id="topgroup">
  <rect x="0" y="0" width="525.000" height="393.750" fill="#ffffff" stroke="none" />
  <g id ="ID000000">
  <clipPath id="ID000001">
    <rect x="68.250" y="29.531" width="406.875" height="320.906"/>
  </clipPath>
      <polygon fill="#ffffff" fill-opacity="1.00" stroke="none" stroke-width="0.5pt" stroke-opacity="1.00" stroke-dasharray="none" points="68.250,350.438 475.125,350.438 475.125,29.531 68.250,29.531 "/>
      <polygon fill="#ffffff" fill-opacity="1.00" stroke="none" stroke-width="0.5pt" stroke-opacity="1.00" stroke-dasharray="none" points="68.250,29.531 475.125,29.531 475.125,29.531 68.250,29.531 "/>
      <polygon fill="#ffffff" fill-opacity="1.00" stroke="none" stroke-width="0.5pt" stroke-opacity="1.00" stroke-dasharray="none" points="68.250,350.438 68.250,350.437 68.250,29.531 68.250,29.531 "/>
    <g>
<g id="ID000002" clip-path="url(#ID000001)" >
      <polyline fill="none" stroke="#0000ff" stroke-width="2.0pt" stroke-dasharray="none" points="-948.928,350.438 -946.484,350.438 -944.041,350.438 -941.597,350.438 -939.153,350.438 -936.710,350.438 -934.266,350.438 -931.822,350.438 -929.379,350.438 -926.935,350.438 -924.491,350.438 -922.048,350.438 -919.604,350.438 -917.160,350.438 -914.717,350.438 -912.273,350.438 -909.829,350.438 -907.385,350.438 -904.942,350.438 -902.498,350.438 -900.054,350.438 -897.611,350.438 -895.167,350.438 -892.723,350.438 -890.280,350.438 -887.836,350.438 -885.392,350.438 -882.949,350.438 -880.505,350.438 -878.061,350.438 -875.618,350.438 -873.174,350.438 -870.730,350.438 -868.287,350.438 -865.843,350.438 -863.399,350.438 -860.956,350.438 -858.512,350.438 -856.068,350.438 -853.625,350.438 -851.181,350.438 -848.737,350.438 -846.294,350.438 -843.850,350.438 -841.406,350.438 -838.963,350.438 -836.519,350.438 -834.075,350.438 -831.632,350.438 -829.188,350.438 -826.744,350.438 -824.301,350.438 -821.857,350.438 -819.413,350.438 -816.970,350.438 -814.526,350.438 -812.082,350.438 -809.639,350.438 -807.195,350.438 -804.751,350.438 -802.307,350.438 -799.864,350.438 -797.420,350.438 -794.976,350.438 -792.533,350.438 -790.089,350.438 -787.645,350.438 -785.202,350.438 -782.758,350.438 -780.314,350.438 -777.871,350.438 -775.427,350.438 -772.983,350.438 -770.540,350.438 -768.096,350.438 -765.652,350.438 -763.209,350.438 -760.765,350.438 -758.321,350.438 -755.878,350.438 -753.434,350.438 -750.990,350.438 -748.547,350.438 -746.103,350.438 -743.659,350.438 -741.216,350.438 -738.772,350.438 -736.328,350.438 -733.885,350.438 -731.441,350.438 -728.997,350.438 -726.554,350.438 -724.110,350.438 -721.666,350.438 -719.223,350.438 -716.779,350.438 -714.335,350.438 -711.892,350.438 -709.448,350.438 -707.004,350.438 -704.561,350.438 -702.117,350.438 -699.673,350.438 -697.229,350.438 -694.786,350.438 -692.342,350.438 -689.898,350.438 -687.455,350.438 -685.011,350.438 -682.567,350.438 -680.124,350.438 -677.680,350.438 -675.236,350.438 -672.793,350.438 -670.349,350.438 -667.905,350.438 -665.462,350.438 -663.018,350.438 -660.574,350.438 -658.131,350.438 -655.687,350.438 -653.243,350.438 -650.800,350.438 -648.356,350.438 -645.912,350.438 -643.469,350.438 -641.025,350.438 -638.581,350.438 -636.138,350.438 -633.694,350.438 -631.250,350.438 -628.807,350.438 -626.363,350.438 -623.919,350.438 -621.476,350.438 -619.032,350.438 -616.588,350.438 -614.145,350.438 -611.701,350.438 -609.257,350.438 -606.814,350.438 -604.370,350.438 -601.926,350.438 -599.482,350.438 -597.039,350.438 -594.595,350.438 -592.151,350.438 -589.708,350.438 -587.264,350.438 -584.820,350.438 -582.377,350.438 -579.933,350.438 -577.489,350.438 -575.046,350.438 -572.602,350.438 -570.158,350.438 -567.715,350.438 -565.271,350.438 -562.827,350.438 -560.384,350.438 -557.940,350.438 -555.496,350.438 -553.053,350.438 -550.609,350.438 -548.165,350.438 -545.722,350.438 -543.278,350.438 -540.834,350.438 -538.391,350.438 -535.947,350.438 -533.503,350.438 -531.060,350.438 -528.616,350.438 -526.172,350.438 -523.729,350.438 -521.285,350.438 -518.841,350.438 -516.398,350.438 -513.954,350.438 -511.510,350.438 -509.067,350.438 -506.623,350.438 -504.179,350.438 -501.736,350.438 -499.292,350.438 -496.848,350.438 -494.404,350.438 -491.961,350.438 -489.517,350.438 -487.073,350.438 -484.630,350.438 -482.186,350.438 -479.742,350.438 -477.299,350.438 -474.855,350.438 -472.411,350.438 -469.968,350.438 -467.524,350.438 -465.080,350.438 -462.637,350.438 -460.193,350.438 -457.749,350.438 -455.306,350.438 -452.862,350.438 -450.418,350.438 -447.975,350.438 -445.531,350.438 -443.087,350.438 -440.644,350.438 -438.200,350.438 -435.756,350.438 -433.313,350.438 -430.869,350.438 -428.425,350.438 -425.982,350.438 -423.538,350.438 -421.094,350.438 -418.651,350.438 -416.207,350.438 -413.763,350.438 -411.320,350.438 -408.876,350.438 -406.432,350.438 -403.989,350.438 -401.545,350.438 -399.101,350.438 -396.658,350.438 -394.214,350.438 -391.770,350.438 -389.326,350.438 -386.883,350.438 -384.439,350.438 -381.995,350.438 -379.552,350.438 -377.108,350.438 -374.664,350.438 -372.221,350.438 -369.777,350.438 -367.333,350.438 -364.890,350.438 -362.446,350.438 -360.002,350.438 -357.559,350.438 -355.115,350.438 -352.671,350.438 -350.228,350.438 -347.784,350.438 -345.340,350.438 -342.897,350.438 -340.453,350.438 -338.009,350.438 -335.566,350.438 -333.122,350.438 -330.678,350.438 -328.235,350.438 -325.791,350.438 -323.347,350.438 -320.904,350.438 -318.460,350.438 -316.016,350.438 -313.573,350.438 -311.129,350.438 -308.685,350.438 -306.242,350.438 -303.798,350.438 -301.354,350.438 -298.911,350.438 -296.467,350.438 -294.023,350.438 -291.579,350.438 -289.136,350.438 -286.692,350.438 -284.248,350.438 -281.805,350.438 -279.361,350.438 -276.917,350.438 -274.474,350.438 -272.030,350.438 -269.586,350.438 -267.143,350.438 -264.699,350.438 -262.255,350.438 -259.812,350.438 -257.368,350.438 -254.924,350.438 -252.481,350.438 -250.037,350.438 -247.593,350.438 -245.150,350.438 -242.706,350.438 -240.262,350.438 -237.819,350.438 -235.375,350.438 -232.931,350.438 -230.488,350.438 -228.044,350.438 -225.600,350.438 -223.157,350.438 -220.713,350.438 -218.269,350.438 -215.826,350.438 -213.382,350.438 -210.938,350.438 -208.495,350.438 -206.051,350.438 -203.607,350.438 -201.164,350.438 -198.720,350.438 -196.276,350.438 -193.833,350.438 -191.389,350.438 -188.945,350.438 -186.501,350.438 -184.058,350.438 -181.614,350.438 -179.170,350.438 -176.727,350.438 -174.283,350.438 -171.839,350.438 -169.396,350.438 -166.952,350.438 -164.508,350.438 -162.065,350.438 -159.621,350.438 -157.177,350.438 -154.734,350.438 -152.290,350.438 -149.846,350.438 -147.403,350.438 -144.959,350.438 -142.515,350.438 -140.072,350.438 -137.628,350.438 -135.184,350.438 -132.741,350.438 -130.297,350.438 -127.853,350.438 -125.410,350.438 -122.966,350.438 -120.522,350.438 -118.079,350.438 -115.635,350.438 -113.191,350.438 -110.748,350.438 -108.304,350.438 -105.860,350.438 -103.417,350.438 -100.973,350.438 -98.529,350.438 -96.086,350.438 -93.642,350.438 -91.198,350.438 -88.755,350.438 -86.311,350.438 -83.867,350.438 -81.423,350.438 -78.980,350.438 -76.536,350.438 -74.092,350.438 -71.649,350.438 -69.205,350.438 -66.761,350.438 -64.318,350.438 -61.874,350.438 -59.430,350.438 -56.987,350.438 -54.543,350.438 -52.099,350.438 -49.656,350.438 -47.212,350.438 -44.768,350.438 -42.325,350.438 -39.881,350.438 -37.437,350.438 -34.994,350.438 -32.550,350.438 -30.106,350.438 -27.663,350.438 -25.219,350.438 -22.775,350.438 -20.332,350.438 -17.888,350.438 -15.444,350.438 -13.001,350.438 -10.557,350.438 -8.113,350.438 -5.670,350.438 -3.226,350.438 -0.782,350.438 1.661,350.438 4.105,350.438 6.549,350.438 8.992,350.438 11.436,350.438 13.880,350.438 16.324,350.438 18.767,350.438 21.211,350.438 23.655,350.438 26.098,350.438 28.542,350.438 30.986,350.438 33.429,350.438 35.873,350.438 38.317,350.438 40.760,350.438 43.204,350.438 45.648,350.438 48.091,350.438 50.535,350.438 52.979,350.438 55.422,350.438 57.866,350.438 60.310,350.438 62.753,350.438 65.197,350.438 67.641,350.438 70.084,350.438 72.528,350.438 74.972,350.438 77.415,350.438 79.859,350.438 82.303,350.438 84.746,350.438 87.190,350.438 89.634,350.438 92.077,350.438 94.521,350.438 96.965,350.438 99.408,350.438 101.852,350.438 104.296,350.438 106.739,350.438 109.183,350.438 111.627,350.438 114.070,350.438 116.514,350.438 118.958,350.438 121.402,350.438 123.845,350.438 126.289,350.438 128.733,350.438 131.176,350.438 133.620,350.438 136.064,350.438 138.507,350.438 140.951,350.438 143.395,350.438 145.838,350.438 148.282,350.438 150.726,350.438 153.169,350.438 155.613,350.438 158.057,350.438 160.500,350.438 162.944,350.438 165.388,350.438 167.831,350.438 170.275,350.438 172.719,350.438 175.162,350.438 177.606,350.438 180.050,350.438 182.493,350.438 184.937,350.438 187.381,350.438 189.824,350.438 192.268,350.437 194.712,350.437 197.155,350.437 199.599,350.437 202.043,350.437 204.486,350.437 206.930,350.437 209.374,350.437 211.817,350.437 214.261,350.437 216.705,350.437 219.148,350.437 221.592,350.437 224.036,350.437 226.480,350.436 228.923,350.431 231.367,350.418 233.811,350.377 236.254,350.264 238.698,349.975 241.142,349.286 243.585,347.763 246.029,344.640 248.473,338.716 250.916,328.333 253.360,311.568 255.804,286.710 258.247,253.038 260.691,211.686 263.135,166.230 265.578,122.562 268.022,87.803 270.466,68.465 272.909,68.467 275.353,87.843 277.797,122.720 280.240,166.581 282.684,212.246 285.128,253.755 287.571,287.483 290.015,312.290 292.459,328.928 294.902,339.154 297.346,344.931 299.790,347.938 302.233,349.382 304.677,350.023 307.121,350.286 309.564,350.386 312.008,350.421 314.452,350.433 316.895,350.436 319.339,350.437 321.783,350.437 324.227,350.437 326.670,350.437 329.114,350.437 331.558,350.437 334.001,350.437 336.445,350.437 338.889,350.437 341.332,350.437 343.776,350.437 346.220,350.437 348.663,350.437 351.107,350.438 353.551,350.438 355.994,350.438 358.438,350.438 360.882,350.438 363.325,350.438 365.769,350.438 368.213,350.438 370.656,350.438 373.100,350.438 375.544,350.438 377.987,350.438 380.431,350.438 382.875,350.438 385.318,350.438 387.762,350.438 390.206,350.438 392.649,350.438 395.093,350.438 397.537,350.438 399.980,350.438 402.424,350.438 404.868,350.438 407.311,350.438 409.755,350.438 412.199,350.438 414.642,350.438 417.086,350.438 419.530,350.438 421.973,350.438 424.417,350.438 426.861,350.438 429.305,350.438 431.748,350.438 434.192,350.438 436.636,350.438 439.079,350.438 441.523,350.438 443.967,350.438 446.410,350.438 448.854,350.438 451.298,350.438 453.741,350.438 456.185,350.438 458.629,350.438 461.072,350.438 463.516,350.438 465.960,350.438 468.403,350.438 470.847,350.438 473.291,350.438 475.734,350.438 478.178,350.438 480.622,350.438 483.065,350.438 485.509,350.438 487.953,350.438 490.396,350.438 492.840,350.438 495.284,350.438 497.727,350.438 500.171,350.438 502.615,350.438 505.058,350.438 507.502,350.438 509.946,350.438 512.389,350.438 514.833,350.438 517.277,350.438 519.720,350.438 522.164,350.438 524.608,350.438 527.051,350.438 529.495,350.438 531.939,350.438 534.383,350.438 536.826,350.438 539.270,350.438 541.714,350.438 544.157,350.438 546.601,350.438 549.045,350.438 551.488,350.438 553.932,350.438 556.376,350.438 558.819,350.438 561.263,350.438 563.707,350.438 566.150,350.438 568.594,350.438 571.038,350.438 573.481,350.438 575.925,350.438 578.369,350.438 580.812,350.438 583.256,350.438 585.700,350.438 588.143,350.438 590.587,350.438 593.031,350.438 595.474,350.438 597.918,350.438 600.362,350.438 602.805,350.438 605.249,350.438 607.693,350.438 610.136,350.438 612.580,350.438 615.024,350.438 617.467,350.438 619.911,350.438 622.355,350.438 624.798,350.438 627.242,350.438 629.686,350.438 632.130,350.438 634.573,350.438 637.017,350.438 639.461,350.438 641.904,350.438 644.348,350.438 646.792,350.438 649.235,350.438 651.679,350.438 654.123,350.438 656.566,350.438 659.010,350.438 661.454,350.438 663.897,350.438 666.341,350.438 668.785,350.438 671.228,350.438 673.672,350.438 676.116,350.438 678.559,350.438 681.003,350.438 683.447,350.438 685.890,350.438 688.334,350.438 690.778,350.438 693.221,350.438 695.665,350.438 698.109,350.438 700.552,350.438 702.996,350.438 705.440,350.438 707.883,350.438 710.327,350.438 712.771,350.438 715.214,350.438 717.658,350.438 720.102,350.438 722.545,350.438 724.989,350.438 727.433,350.438 729.876,350.438 732.320,350.438 734.764,350.438 737.208,350.438 739.651,350.438 742.095,350.438 744.539,350.438 746.982,350.438 749.426,350.438 751.870,350.438 754.313,350.438 756.757,350.438 759.201,350.438 761.644,350.438 764.088,350.438 766.532,350.438 768.975,350.438 771.419,350.438 773.863,350.438 776.306,350.438 778.750,350.438 781.194,350.438 783.637,350.438 786.081,350.438 788.525,350.438 790.968,350.438 793.412,350.438 795.856,350.438 798.299,350.438 800.743,350.438 803.187,350.438 805.630,350.438 808.074,350.438 810.518,350.438 812.961,350.438 815.405,350.438 817.849,350.438 820.292,350.438 822.736,350.438 825.180,350.438 827.623,350.438 830.067,350.438 832.511,350.438 834.954,350.438 837.398,350.438 839.842,350.438 842.286,350.438 844.729,350.438 847.173,350.438 849.617,350.438 852.060,350.438 854.504,350.438 856.948,350.438 859.391,350.438 861.835,350.438 864.279,350.438 866.722,350.438 869.166,350.438 871.610,350.438 874.053,350.438 876.497,350.438 878.941,350.438 881.384,350.438 883.828,350.438 886.272,350.438 888.715,350.438 891.159,350.438 893.603,350.438 896.046,350.438 898.490,350.438 900.934,350.438 903.377,350.438 905.821,350.438 908.265,350.438 910.708,350.438 913.152,350.438 915.596,350.438 918.039,350.438 920.483,350.438 922.927,350.438 925.370,350.438 927.814,350.438 930.258,350.438 932.701,350.438 935.145,350.438 937.589,350.438 940.033,350.438 942.476,350.438 944.920,350.438 947.364,350.438 949.807,350.438 952.251,350.438 954.695,350.438 957.138,350.438 959.582,350.438 962.026,350.438 964.469,350.438 966.913,350.438 969.357,350.438 971.800,350.438 974.244,350.438 976.688,350.438 979.131,350.438 981.575,350.438 984.019,350.438 986.462,350.438 988.906,350.438 991.350,350.438 993.793,350.438 996.237,350.438 998.681,350.438 1001.124,350.438 1003.568,350.438 1006.012,350.438 1008.455,350.438 1010.899,350.438 1013.343,350.438 1015.786,350.438 1018.230,350.438 1020.674,350.438 1023.117,350.438 1025.561,350.438 1028.005,350.438 1030.448,350.438 1032.892,350.438 1035.336,350.438 1037.779,350.438 1040.223,350.438 1042.667,350.438 1045.111,350.438 1047.554,350.438 1049.998,350.438 1052.442,350.438 1054.885,350.438 1057.329,350.438 1059.773,350.438 1062.216,350.438 1064.660,350.438 1067.104,350.438 1069.547,350.438 1071.991,350.438 1074.435,350.438 1076.878,350.438 1079.322,350.438 1081.766,350.438 1084.209,350.438 1086.653,350.438 1089.097,350.438 1091.540,350.438 1093.984,350.438 1096.428,350.438 1098.871,350.438 1101.315,350.438 1103.759,350.438 1106.202,350.438 1108.646,350.438 1111.090,350.438 1113.533,350.438 1115.977,350.438 1118.421,350.438 1120.864,350.438 1123.308,350.438 1125.752,350.438 1128.195,350.438 1130.639,350.438 1133.083,350.438 1135.526,350.438 1137.970,350.438 1140.414,350.438 1142.857,350.438 1145.301,350.438 1147.745,350.438 1150.189,350.438 1152.632,350.438 1155.076,350.438 1157.520,350.438 1159.963,350.438 1162.407,350.438 1164.851,350.438 1167.294,350.438 1169.738,350.438 1172.182,350.438 1174.625,350.438 1177.069,350.438 1179.513,350.438 1181.956,350.438 1184.400,350.438 1186.844,350.438 1189.287,350.438 1191.731,350.438 1194.175,350.438 1196.618,350.438 1199.062,350.438 1201.506,350.438 1203.949,350.438 1206.393,350.438 1208.837,350.438 1211.280,350.438 1213.724,350.438 1216.168,350.438 1218.611,350.438 1221.055,350.438 1223.499,350.438 1225.942,350.438 1228.386,350.438 1230.830,350.438 1233.273,350.438 1235.717,350.438 1238.161,350.438 1240.604,350.438 1243.048,350.438 1245.492,350.438 1247.936,350.438 1250.379,350.438 1252.823,350.438 1255.267,350.438 1257.710,350.438 1260.154,350.438 1262.598,350.438 1265.041,350.438 1267.485,350.438 1269.929,350.438 1272.372,350.438 1274.816,350.438 1277.260,350.438 1279.703,350.438 1282.147,350.438 1284.591,350.438 1287.034,350.438 1289.478,350.438 1291.922,350.438 1294.365,350.438 1296.809,350.438 1299.253,350.438 1301.696,350.438 1304.140,350.438 1306.584,350.438 1309.027,350.438 1311.471,350.438 1313.915,350.438 1316.358,350.438 1318.802,350.438 1321.246,350.438 1323.689,350.438 1326.133,350.438 1328.577,350.438 1331.020,350.438 1333.464,350.438 1335.908,350.438 1338.351,350.438 1340.795,350.438 1343.239,350.438 1345.682,350.438 1348.126,350.438 1350.570,350.438 1353.014,350.438 1355.457,350.438 1357.901,350.438 1360.345,350.438 1362.788,350.438 1365.232,350.438 1367.676,350.438 1370.119,350.438 1372.563,350.438 1375.007,350.438 1377.450,350.438 1379.894,350.438 1382.338,350.438 1384.781,350.438 1387.225,350.438 1389.669,350.438 1392.112,350.438 1394.556,350.438 1397.000,350.438 1399.443,350.438 1401.887,350.438 1404.331,350.438 1406.774,350.438 1409.218,350.438 1411.662,350.438 1414.105,350.438 1416.549,350.438 1418.993,350.438 1421.436,350.438 1423.880,350.438 1426.324,350.438 1428.767,350.438 1431.211,350.438 1433.655,350.438 1436.098,350.438 1438.542,350.438 1440.986,350.438 1443.429,350.438 1445.873,350.438 1448.317,350.438 1450.760,350.438 1453.204,350.438 1455.648,350.438 1458.092,350.438 1460.535,350.438 1462.979,350.438 1465.423,350.438 1467.866,350.438 1470.310,350.438 1472.754,350.438 1475.197,350.438 1477.641,350.438 1480.085,350.438 1482.528,350.438 1484.972,350.438 1487.416,350.438 1489.859,350.438 1492.303,350.438 "/>
<g>
</g>
</g>
<g id="ID000003" clip-path="url(#ID000001)" >
      <polyline fill="none" stroke="#00b200" stroke-width="2.0pt" stroke-dasharray="none" points="-948.928,350.438 -946.484,350.438 -944.041,350.438 -941.597,350.438 -939.153,350.438 -936.710,350.438 -934.266,350.438 -931.822,350.438 -929.379,350.438 -926.935,350.438 -924.491,350.438 -922.048,350.438 -919.604,350.438 -917.160,350.438 -914.717,350.438 -912.273,350.438 -909.829,350.438 -907.385,350.438 -904.942,350.438 -902.498,350.438 -900.054,350.438 -897.611,350.438 -895.167,350.438 -892.723,350.438 -890.280,350.438 -887.836,350.438 -885.392,350.438 -882.949,350.438 -880.505,350.438 -878.061,350.438 -875.618,350.438 -873.174,350.438 -870.730,350.438 -868.287,350.438 -865.843,350.438 -863.399,350.438 -860.956,350.438 -858.512,350.438 -856.068,350.438 -853.625,350.438 -851.181,350.438 -848.737,350.438 -846.294,350.438 -843.850,350.438 -841.406,350.438 -838.963,350.438 -836.519,350.438 -834.075,350.438 -831.632,350.438 -829.188,350.438 -826.744,350.438 -824.301,350.438 -821.857,350.438 -819.413,350.438 -816.970,350.438 -814.526,350.438 -812.082,350.438 -809.639,350.438 -807.195,350.438 -804.751,350.438 -802.307,350.438 -799.864,350.438 -797.420,350.438 -794.976,350.438 -792.533,350.438 -790.089,350.438 -787.645,350.438 -785.202,350.438 -782.758,350.438 -780.314,350.438 -777.871,350.438 -775.427,350.438 -772.983,350.438 -770.540,350.438 -768.096,350.438 -765.652,350.438 -763.209,350.438 -760.765,350.438 -758.321,350.438 -755.878,350.438 -753.434,350.438 -750.990,350.438 -748.547,350.438 -746.103,350.438 -743.659,350.438 -741.216,350.438 -738.772,350.438 -736.328,350.438 -733.885,350.438 -731.441,350.438 -728.997,350.438 -726.554,350.438 -724.110,350.438 -721.666,350.438 -719.223,350.438 -716.779,350.438 -714.335,350.438 -711.892,350.438 -709.448,350.438 -707.004,350.438 -704.561,350.438 -702.117,350.438 -699.673,350.438 -697.229,350.438 -694.786,350.438 -692.342,350.438 -689.898,350.438 -687.455,350.438 -685.011,350.438 -682.567,350.438 -680.124,350.438 -677.680,350.438 -675.236,350.438 -672.793,350.438 -670.349,350.438 -667.905,350.438 -665.462,350.438 -663.018,350.438 -660.574,350.438 -658.131,350.438 -655.687,350.438 -653.243,350.438 -650.800,350.438 -648.356,350.438 -645.912,350.438 -643.469,350.438 -641.025,350.438 -638.581,350.438 -636.138,350.438 -633.694,350.438 -631.250,350.438 -628.807,350.438 -626.363,350.438 -623.919,350.438 -621.476,350.438 -619.032,350.438 -616.588,350.438 -614.145,350.438 -611.701,350.438 -609.257,350.438 -606.814,350.438 -604.370,350.438 -601.926,350.438 -599.482,350.438 -597.039,350.438 -594.595,350.438 -592.151,350.438 -589.708,350.438 -587.264,350.438 -584.820,350.438 -582.377,350.438 -579.933,350.438 -577.489,350.438 -575.046,350.438 -572.602,350.438 -570.158,350.438 -567.715,350.438 -565.271,350.438 -562.827,350.438 -560.384,350.438 -557.940,350.438 -555.496,350.438 -553.053,350.438 -550.609,350.438 -548.165,350.438 -545.722,350.438 -543.278,350.438 -540.834,350.438 -538.391,350.438 -535.947,350.438 -533.503,350.438 -531.060,350.438 -528.616,350.438 -526.172,350.438 -523.729,350.438 -521.285,350.438 -518.841,350.438 -516.398,350.438 -513.954,350.438 -511.510,350.438 -509.067,350.438 -506.623,350.438 -504.179,350.438 -501.736,350.438 -499.292,350.438 -496.848,350.438 -494.404,350.438 -491.961,350.438 -489.517,350.438 -487.073,350.438 -484.630,350.438 -482.186,350.438 -479.742,350.438 -477.299,350.438 -474.855,350.438 -472.411,350.438 -469.968,350.438 -467.524,350.438 -465.080,350.438 -462.637,350.438 -460.193,350.438 -457.749,350.438 -455.306,350.438 -452.862,350.438 -450.418,350.438 -447.975,350.438 -445.531,350.438 -443.087,350.438 -440.644,350.438 -438.200,350.438 -435.756,350.438 -433.313,350.438 -430.869,350.438 -428.425,350.438 -425.982,350.438 -423.538,350.438 -421.094,350.438 -418.651,350.438 -416.207,350.438 -413.763,350.438 -411.320,350.438 -408.876,350.438 -406.432,350.438 -403.989,350.438 -401.545,350.438 -399.101,350.438 -396.658,350.438 -394.214,350.438 -391.770,350.438 -389.326,350.438 -386.883,350.438 -384.439,350.438 -381.995,350.438 -379.552,350.438 -377.108,350.438 -374.664,350.438 -372.221,350.438 -369.777,350.438 -367.333,350.438 -364.890,350.438 -362.446,350.438 -360.002,350.438 -357.559,350.438 -355.115,350.438 -352.671,350.438 -350.228,350.438 -347.784,350.438 -345.340,350.438 -342.897,350.438 -340.453,350.438 -338.009,350.438 -335.566,350.438 -333.122,350.438 -330.678,350.438 -328.235,350.438 -325.791,350.438 -323.347,350.438 -320.904,350.438 -318.460,350.438 -316.016,350.438 -313.573,350.438 -311.129,350.438 -308.685,350.438 -306.242,350.438 -303.798,350.438 -301.354,350.438 -298.911,350.438 -296.467,350.438 -294.023,350.438 -291.579,350.438 -289.136,350.438 -286.692,350.438 -284.248,350.438 -281.805,350.438 -279.361,350.438 -276.917,350.438 -274.474,350.438 -272.030,350.438 -269.586,350.438 -267.143,350.438 -264.699,350.438 -262.255,350.438 -259.812,350.438 -257.368,350.438 -254.924,350.438 -252.481,350.438 -250.037,350.438 -247.593,350.438 -245.150,350.438 -242.706,350.438 -240.262,350.438 -237.819,350.438 -235.375,350.438 -232.931,350.438 -230.488,350.438 -228.044,350.438 -225.600,350.438 -223.157,350.438 -220.713,350.438 -218.269,350.438 -215.826,350.438 -213.382,350.438 -210.938,350.438 -208.495,350.438 -206.051,350.438 -203.607,350.438 -201.164,350.438 -198.720,350.438 -196.276,350.438 -193.833,350.438 -191.389,350.438 -188.945,350.438 -186.501,350.438 -184.058,350.438 -181.614,350.438 -179.170,350.438 -176.727,350.438 -174.283,350.438 -171.839,350.438 -169.396,350.438 -166.952,350.438 -164.508,350.438 -162.065,350.438 -159.621,350.438 -157.177,350.438 -154.734,350.438 -152.290,350.438 -149.846,350.438 -147.403,350.438 -144.959,350.438 -142.515,350.438 -140.072,350.438 -137.628,350.438 -135.184,350.438 -132.741,350.438 -130.297,350.438 -127.853,350.438 -125.410,350.438 -122.966,350.438 -120.522,350.438 -118.079,350.438 -115.635,350.438 -113.191,350.438 -110.748,350.438 -108.304,350.438 -105.860,350.438 -103.417,350.438 -100.973,350.438 -98.529,350.438 -96.086,350.438 -93.642,350.438 -91.198,350.438 -88.755,350.438 -86.311,350.438 -83.867,350.438 -81.423,350.438 -78.980,350.438 -76.536,350.438 -74.092,350.438 -71.649,350.438 -69.205,350.438 -66.761,350.438 -64.318,350.438 -61.874,350.438 -59.430,350.438 -56.987,350.438 -54.543,350.438 -52.099,350.438 -49.656,350.438 -47.212,350.438 -44.768,350.438 -42.325,350.438 -39.881,350.438 -37.437,350.438 -34.994,350.438 -32.550,350.438 -30.106,350.438 -27.663,350.438 -25.219,350.438 -22.775,350.438 -20.332,350.438 -17.888,350.438 -15.444,350.438 -13.001,350.438 -10.557,350.438 -8.113,350.438 -5.670,350.438 -3.226,350.438 -0.782,350.438 1.661,350.438 4.105,350.438 6.549,350.438 8.992,350.438 11.436,350.438 13.880,350.438 16.324,350.438 18.767,350.438 21.211,350.438 23.655,350.438 26.098,350.438 28.542,350.438 30.986,350.438 33.429,350.438 35.873,350.438 38.317,350.438 40.760,350.438 43.204,350.438 45.648,350.438 48.091,350.438 50.535,350.438 52.979,350.438 55.422,350.438 57.866,350.438 60.310,350.438 62.753,350.438 65.197,350.438 67.641,350.438 70.084,350.438 72.528,350.437 74.972,350.437 77.415,350.437 79.859,350.437 82.303,350.437 84.746,350.437 87.190,350.437 89.634,350.437 92.077,350.437 94.521,350.437 96.965,350.437 99.408,350.437 101.852,350.437 104.296,350.437 106.739,350.437 109.183,350.437 111.627,350.437 114.070,350.437 116.514,350.437 118.958,350.437 121.402,350.437 123.845,350.437 126.289,350.437 128.733,350.436 131.176,350.434 133.620,350.431 136.064,350.425 138.507,350.416 140.951,350.401 143.395,350.378 145.838,350.341 148.282,350.285 150.726,350.203 153.169,350.086 155.613,349.923 158.057,349.701 160.500,349.406 162.944,349.022 165.388,348.533 167.831,347.923 170.275,347.179 172.719,346.289 175.162,345.243 177.606,344.036 180.050,342.668 182.493,341.144 184.937,339.473 187.381,337.671 189.824,335.755 192.268,333.749 194.712,331.677 197.155,329.568 199.599,327.448 202.043,325.344 204.486,323.283 206.930,321.288 209.374,319.380 211.817,317.576 214.261,315.890 216.705,314.333 219.148,312.910 221.592,311.625 224.036,310.478 226.480,309.466 228.923,308.585 231.367,307.827 233.811,307.183 236.254,306.645 238.698,306.202 241.142,305.843 243.585,305.559 246.029,305.338 248.473,305.171 250.916,305.049 253.360,304.963 255.804,304.905 258.247,304.869 260.691,304.848 263.135,304.837 265.578,304.832 268.022,304.831 270.466,304.830 272.909,304.830 275.353,304.831 277.797,304.832 280.240,304.837 282.684,304.848 285.128,304.869 287.571,304.906 290.015,304.964 292.459,305.051 294.902,305.174 297.346,305.343 299.790,305.566 302.233,305.854 304.677,306.217 307.121,306.667 309.564,307.214 312.008,307.868 314.452,308.639 316.895,309.536 319.339,310.567 321.783,311.736 324.227,313.045 326.670,314.496 329.114,316.085 331.558,317.803 334.001,319.642 336.445,321.586 338.889,323.616 341.332,325.712 343.776,327.847 346.220,329.995 348.663,332.128 351.107,334.216 353.551,336.232 355.994,338.149 358.438,339.946 360.882,341.602 363.325,343.105 365.769,344.444 368.213,345.618 370.656,346.626 373.100,347.477 375.544,348.180 377.987,348.750 380.431,349.201 382.875,349.551 385.318,349.815 387.762,350.011 390.206,350.152 392.649,350.251 395.093,350.319 397.537,350.364 399.980,350.393 402.424,350.412 404.868,350.423 407.311,350.429 409.755,350.433 412.199,350.435 414.642,350.436 417.086,350.437 419.530,350.437 421.973,350.437 424.417,350.437 426.861,350.437 429.305,350.437 431.748,350.437 434.192,350.437 436.636,350.437 439.079,350.437 441.523,350.437 443.967,350.437 446.410,350.437 448.854,350.437 451.298,350.437 453.741,350.437 456.185,350.437 458.629,350.437 461.072,350.437 463.516,350.437 465.960,350.437 468.403,350.438 470.847,350.438 473.291,350.438 475.734,350.438 478.178,350.438 480.622,350.438 483.065,350.438 485.509,350.438 487.953,350.438 490.396,350.438 492.840,350.438 495.284,350.438 497.727,350.438 500.171,350.438 502.615,350.438 505.058,350.438 507.502,350.438 509.946,350.438 512.389,350.438 514.833,350.438 517.277,350.438 519.720,350.438 522.164,350.438 524.608,350.438 527.051,350.438 529.495,350.438 531.939,350.438 534.383,350.438 536.826,350.438 539.270,350.438 541.714,350.438 544.157,350.438 546.601,350.438 549.045,350.438 551.488,350.438 553.932,350.438 556.376,350.438 558.819,350.438 561.263,350.438 563.707,350.438 566.150,350.438 568.594,350.438 571.038,350.438 573.481,350.438 575.925,350.438 578.369,350.438 580.812,350.438 583.256,350.438 585.700,350.438 588.143,350.438 590.587,350.438 593.031,350.438 595.474,350.438 597.918,350.438 600.362,350.438 602.805,350.438 605.249,350.438 607.693,350.438 610.136,350.438 612.580,350.438 615.024,350.438 617.467,350.438 619.911,350.438 622.355,350.438 624.798,350.438 627.242,350.438 629.686,350.438 632.130,350.438 634.573,350.438 637.017,350.438 639.461,350.438 641.904,350.438 644.348,350.438 646.792,350.438 649.235,350.438 651.679,350.438 654.123,350.438 656.566,350.438 659.010,350.438 661.454,350.438 663.897,350.438 666.341,350.438 668.785,350.438 671.228,350.438 673.672,350.438 676.116,350.438 678.559,350.438 681.003,350.438 683.447,350.438 685.890,350.438 688.334,350.438 690.778,350.438 693.221,350.438 695.665,350.438 698.109,350.438 700.552,350.438 702.996,350.438 705.440,350.438 707.883,350.438 710.327,350.438 712.771,350.438 715.214,350.438 717.658,350.438 720.102,350.438 722.545,350.438 724.989,350.438 727.433,350.438 729.876,350.438 732.320,350.438 734.764,350.438 737.208,350.438 739.651,350.438 742.095,350.438 744.539,350.438 746.982,350.438 749.426,350.438 751.870,350.438 754.313,350.438 756.757,350.438 759.201,350.438 761.644,350.438 764.088,350.438 766.532,350.438 768.975,350.438 771.419,350.438 773.863,350.438 776.306,350.438 778.750,350.438 781.194,350.438 783.637,350.438 786.081,350.438 788.525,350.438 790.968,350.438 793.412,350.438 795.856,350.438 798.299,350.438 800.743,350.438 803.187,350.438 805.630,350.438 808.074,350.438 810.518,350.438 812.961,350.438 815.405,350.438 817.849,350.438 820.292,350.438 822.736,350.438 825.180,350.438 827.623,350.438 830.067,350.438 832.511,350.438 834.954,350.438 837.398,350.438 839.842,350.438 842.286,350.438 844.729,350.438 847.173,350.438 849.617,350.438 852.060,350.438 854.504,350.438 856.948,350.438 859.391,350.438 861.835,350.438 864.279,350.438 866.722,350.438 869.166,350.438 871.610,350.438 874.053,350.438 876.497,350.438 878.941,350.438 881.384,350.438 883.828,350.438 886.272,350.438 888.715,350.438 891.159,350.438 893.603,350.438 896.046,350.438 898.490,350.438 900.934,350.438 903.377,350.438 905.821,350.438 908.265,350.438 910.708,350.438 913.152,350.438 915.596,350.438 918.039,350.438 920.483,350.438 922.927,350.438 925.370,350.438 927.814,350.438 930.258,350.438 932.701,350.438 935.145,350.438 937.589,350.438 940.033,350.438 942.476,350.438 944.920,350.438 947.364,350.438 949.807,350.438 952.251,350.438 954.695,350.438 957.138,350.438 959.582,350.438 962.026,350.438 964.469,350.438 966.913,350.438 969.357,350.438 971.800,350.438 974.244,350.438 976.688,350.438 979.131,350.438 981.575,350.438 984.019,350.438 986.462,350.438 988.906,350.438 991.350,350.438 993.793,350.438 996.237,350.438 998.681,350.438 1001.124,350.438 1003.568,350.438 1006.012,350.438 1008.455,350.438 1010.899,350.438 1013.343,350.438 1015.786,350.438 1018.230,350.438 1020.674,350.438 1023.117,350.438 1025.561,350.438 1028.005,350.438 1030.448,350.438 1032.892,350.438 1035.336,350.438 1037.779,350.438 1040.223,350.438 1042.667,350.438 1045.111,350.438 1047.554,350.438 1049.998,350.438 1052.442,350.438 1054.885,350.438 1057.329,350.438 1059.773,350.438 1062.216,350.438 1064.660,350.438 1067.104,350.438 1069.547,350.438 1071.991,350.438 1074.435,350.438 1076.878,350.438 1079.322,350.438 1081.766,350.438 1084.209,350.438 1086.653,350.438 1089.097,350.438 1091.540,350.438 1093.984,350.438 1096.428,350.438 1098.871,350.438 1101.315,350.438 1103.759,350.438 1106.202,350.438 1108.646,350.438 1111.090,350.438 1113.533,350.438 1115.977,350.438 1118.421,350.438 1120.864,350.438 1123.308,350.438 1125.752,350.438 1128.195,350.438 1130.639,350.438 1133.083,350.438 1135.526,350.438 1137.970,350.438 1140.414,350.438 1142.857,350.438 1145.301,350.438 1147.745,350.438 1150.189,350.438 1152.632,350.438 1155.076,350.438 1157.520,350.438 1159.963,350.438 1162.407,350.438 1164.851,350.438 1167.294,350.438 1169.738,350.438 1172.182,350.438 1174.625,350.438 1177.069,350.438 1179.513,350.438 1181.956,350.438 1184.400,350.438 1186.844,350.438 1189.287,350.438 1191.731,350.438 1194.175,350.438 1196.618,350.438 1199.062,350.438 1201.506,350.438 1203.949,350.438 1206.393,350.438 1208.837,350.438 1211.280,350.438 1213.724,350.438 1216.168,350.438 1218.611,350.438 1221.055,350.438 1223.499,350.438 1225.942,350.438 1228.386,350.438 1230.830,350.438 1233.273,350.438 1235.717,350.438 1238.161,350.438 1240.604,350.438 1243.048,350.438 1245.492,350.438 1247.936,350.438 1250.379,350.438 1252.823,350.438 1255.267,350.438 1257.710,350.438 1260.154,350.438 1262.598,350.438 1265.041,350.438 1267.485,350.438 1269.929,350.438 1272.372,350.438 1274.816,350.438 1277.260,350.438 1279.703,350.438 1282.147,350.438 1284.591,350.438 1287.034,350.438 1289.478,350.438 1291.922,350.438 1294.365,350.438 1296.809,350.438 1299.253,350.438 1301.696,350.438 1304.140,350.438 1306.584,350.438 1309.027,350.438 1311.471,350.438 1313.915,350.438 1316.358,350.438 1318.802,350.438 1321.246,350.438 1323.689,350.438 1326.133,350.438 1328.577,350.438 1331.020,350.438 1333.464,350.438 1335.908,350.438 1338.351,350.438 1340.795,350.438 1343.239,350.438 1345.682,350.438 1348.126,350.438 1350.570,350.438 1353.014,350.438 1355.457,350.438 1357.901,350.438 1360.345,350.438 1362.788,350.438 1365.232,350.438 1367.676,350.438 1370.119,350.438 1372.563,350.438 1375.007,350.438 1377.450,350.438 1379.894,350.438 1382.338,350.438 1384.781,350.438 1387.225,350.438 1389.669,350.438 1392.112,350.438 1394.556,350.438 1397.000,350.438 1399.443,350.438 1401.887,350.438 1404.331,350.438 1406.774,350.438 1409.218,350.438 1411.662,350.438 1414.105,350.438 1416.549,350.438 1418.993,350.438 1421.436,350.438 1423.880,350.438 1426.324,350.438 1428.767,350.438 1431.211,350.438 1433.655,350.438 1436.098,350.438 1438.542,350.438 1440.986,350.438 1443.429,350.438 1445.873,350.438 1448.317,350.438 1450.760,350.438 1453.204,350.438 1455.648,350.438 1458.092,350.438 1460.535,350.438 1462.979,350.438 1465.423,350.438 1467.866,350.438 1470.310,350.438 1472.754,350.438 1475.197,350.438 1477.641,350.438 1480.085,350.438 1482.528,350.438 1484.972,350.438 1487.416,350.438 1489.859,350.438 1492.303,350.438 "/>
<g>
</g>
</g>
<g id="ID000004" clip-path="url(#ID000001)" >
      <polyline fill="none" stroke="#ff0000" stroke-width="2.0pt" stroke-dasharray="none" points="-948.928,350.438 -946.484,350.438 -944.041,350.438 -941.597,350.438 -939.153,350.438 -936.710,350.438 -934.266,350.438 -931.822,350.438 -929.379,350.438 -926.935,350.438 -924.491,350.438 -922.048,350.438 -919.604,350.438 -917.160,350.438 -914.717,350.438 -912.273,350.438 -909.829,350.438 -907.385,350.438 -904.942,350.438 -902.498,350.438 -900.054,350.438 -897.611,350.438 -895.167,350.438 -892.723,350.438 -890.280,350.438 -887.836,350.438 -885.392,350.438 -882.949,350.438 -880.505,350.438 -878.061,350.438 -875.618,350.438 -873.174,350.438 -870.730,350.438 -868.287,350.438 -865.843,350.438 -863.399,350.438 -860.956,350.438 -858.512,350.438 -856.068,350.438 -853.625,350.438 -851.181,350.438 -848.737,350.438 -846.294,350.438 -843.850,350.438 -841.406,350.438 -838.963,350.438 -836.519,350.438 -834.075,350.438 -831.632,350.438 -829.188,350.438 -826.744,350.438 -824.301,350.438 -821.857,350.438 -819.413,350.438 -816.970,350.438 -814.526,350.438 -812.082,350.438 -809.639,350.438 -807.195,350.438 -804.751,350.438 -802.307,350.438 -799.864,350.438 -797.420,350.438 -794.976,350.438 -792.533,350.438 -790.089,350.438 -787.645,350.438 -785.202,350.438 -782.758,350.438 -780.314,350.438 -777.871,350.438 -775.427,350.438 -772.983,350.438 -770.540,350.438 -768.096,350.438 -765.652,350.438 -763.209,350.438 -760.765,350.438 -758.321,350.438 -755.878,350.438 -753.434,350.438 -750.990,350.438 -748.547,350.438 -746.103,350.438 -743.659,350.438 -741.216,350.438 -738.772,350.438 -736.328,350.438 -733.885,350.438 -731.441,350.438 -728.997,350.438 -726.554,350.438 -724.110,350.438 -721.666,350.438 -719.223,350.438 -716.779,350.438 -714.335,350.438 -711.892,350.438 -709.448,350.438 -707.004,350.438 -704.561,350.438 -702.117,350.438 -699.673,350.438 -697.229,350.438 -694.786,350.438 -692.342,350.438 -689.898,350.438 -687.455,350.438 -685.011,350.438 -682.567,350.438 -680.124,350.438 -677.680,350.438 -675.236,350.438 -672.793,350.438 -670.349,350.438 -667.905,350.438 -665.462,350.438 -663.018,350.438 -660.574,350.438 -658.131,350.438 -655.687,350.438 -653.243,350.438 -650.800,350.438 -648.356,350.438 -645.912,350.438 -643.469,350.438 -641.025,350.438 -638.581,350.438 -636.138,350.438 -633.694,350.438 -631.250,350.438 -628.807,350.438 -626.363,350.438 -623.919,350.438 -621.476,350.438 -619.032,350.438 -616.588,350.438 -614.145,350.438 -611.701,350.438 -609.257,350.438 -606.814,350.438 -604.370,350.438 -601.926,350.438 -599.482,350.438 -597.039,350.438 -594.595,350.438 -592.151,350.438 -589.708,350.438 -587.264,350.438 -584.820,350.438 -582.377,350.438 -579.933,350.438 -577.489,350.438 -575.046,350.438 -572.602,350.438 -570.158,350.438 -567.715,350.438 -565.271,350.438 -562.827,350.438 -560.384,350.438 -557.940,350.438 -555.496,350.438 -553.053,350.438 -550.609,350.438 -548.165,350.438 -545.722,350.438 -543.278,350.438 -540.834,350.438 -538.391,350.438 -535.947,350.438 -533.503,350.438 -531.060,350.438 -528.616,350.438 -526.172,350.438 -523.729,350.438 -521.285,350.438 -518.841,350.438 -516.398,350.438 -513.954,350.438 -511.510,350.438 -509.067,350.438 -506.623,350.438 -504.179,350.438 -501.736,350.438 -499.292,350.438 -496.848,350.438 -494.404,350.438 -491.961,350.438 -489.517,350.438 -487.073,350.438 -484.630,350.438 -482.186,350.438 -479.742,350.438 -477.299,350.438 -474.855,350.438 -472.411,350.438 -469.968,350.438 -467.524,350.438 -465.080,350.438 -462.637,350.438 -460.193,350.438 -457.749,350.438 -455.306,350.438 -452.862,350.438 -450.418,350.438 -447.975,350.438 -445.531,350.438 -443.087,350.438 -440.644,350.438 -438.200,350.438 -435.756,350.438 -433.313,350.438 -430.869,350.438 -428.425,350.438 -425.982,350.438 -423.538,350.438 -421.094,350.438 -418.651,350.438 -416.207,350.438 -413.763,350.438 -411.320,350.438 -408.876,350.438 -406.432,350.438 -403.989,350.438 -401.545,350.438 -399.101,350.438 -396.658,350.438 -394.214,350.438 -391.770,350.438 -389.326,350.438 -386.883,350.438 -384.439,350.438 -381.995,350.438 -379.552,350.438 -377.108,350.438 -374.664,350.438 -372.221,350.438 -369.777,350.438 -367.333,350.438 -364.890,350.438 -362.446,350.438 -360.002,350.438 -357.559,350.438 -355.115,350.438 -352.671,350.438 -350.228,350.438 -347.784,350.438 -345.340,350.438 -342.897,350.438 -340.453,350.438 -338.009,350.438 -335.566,350.438 -333.122,350.438 -330.678,350.438 -328.235,350.438 -325.791,350.438 -323.347,350.438 -320.904,350.438 -318.460,350.438 -316.016,350.438 -313.573,350.438 -311.129,350.438 -308.685,350.438 -306.242,350.438 -303.798,350.438 -301.354,350.438 -298.911,350.438 -296.467,350.438 -294.023,350.438 -291.579,350.438 -289.136,350.438 -286.692,350.438 -284.248,350.438 -281.805,350.438 -279.361,350.438 -276.917,350.438 -274.474,350.438 -272.030,350.438 -269.586,350.438 -267.143,350.438 -264.699,350.438 -262.255,350.438 -259.812,350.438 -257.368,350.438 -254.924,350.438 -252.481,350.438 -250.037,350.438 -247.593,350.438 -245.150,350.438 -242.706,350.438 -240.262,350.438 -237.819,350.438 -235.375,350.438 -232.931,350.438 -230.488,350.438 -228.044,350.438 -225.600,350.438 -223.157,350.438 -220.713,350.438 -218.269,350.438 -215.826,350.438 -213.382,350.438 -210.938,350.438 -208.495,350.438 -206.051,350.438 -203.607,350.438 -201.164,350.438 -198.720,350.438 -196.276,350.438 -193.833,350.438 -191.389,350.438 -188.945,350.438 -186.501,350.438 -184.058,350.438 -181.614,350.438 -179.170,350.438 -176.727,350.438 -174.283,350.438 -171.839,350.438 -169.396,350.438 -166.952,350.438 -164.508,350.438 -162.065,350.438 -159.621,350.438 -157.177,350.438 -154.734,350.438 -152.290,350.438 -149.846,350.438 -147.403,350.438 -144.959,350.438 -142.515,350.438 -140.072,350.438 -137.628,350.438 -135.184,350.438 -132.741,350.438 -130.297,350.438 -127.853,350.438 -125.410,350.438 -122.966,350.438 -120.522,350.438 -118.079,350.438 -115.635,350.438 -113.191,350.438 -110.748,350.438 -108.304,350.438 -105.860,350.438 -103.417,350.438 -100.973,350.438 -98.529,350.438 -96.086,350.438 -93.642,350.438 -91.198,350.438 -88.755,350.438 -86.311,350.438 -83.867,350.438 -81.423,350.438 -78.980,350.438 -76.536,350.438 -74.092,350.438 -71.649,350.438 -69.205,350.438 -66.761,350.438 -64.318,350.438 -61.874,350.438 -59.430,350.438 -56.987,350.438 -54.543,350.438 -52.099,350.438 -49.656,350.438 -47.212,350.438 -44.768,350.438 -42.325,350.438 -39.881,350.438 -37.437,350.438 -34.994,350.438 -32.550,350.438 -30.106,350.438 -27.663,350.438 -25.219,350.438 -22.775,350.438 -20.332,350.438 -17.888,350.438 -15.444,350.438 -13.001,350.438 -10.557,350.438 -8.113,350.438 -5.670,350.438 -3.226,350.438 -0.782,350.438 1.661,350.438 4.105,350.438 6.549,350.438 8.992,350.438 11.436,350.438 13.880,350.438 16.324,350.438 18.767,350.438 21.211,350.438 23.655,350.438 26.098,350.438 28.542,350.438 30.986,350.438 33.429,350.438 35.873,350.438 38.317,350.438 40.760,350.438 43.204,350.438 45.648,350.438 48.091,350.438 50.535,350.438 52.979,350.438 55.422,350.438 57.866,350.438 60.310,350.438 62.753,350.438 65.197,350.438 67.641,350.437 70.084,350.437 72.528,350.437 74.972,350.437 77.415,350.437 79.859,350.437 82.303,350.437 84.746,350.437 87.190,350.437 89.634,350.437 92.077,350.437 94.521,350.437 96.965,350.437 99.408,350.437 101.852,350.437 104.296,350.437 106.739,350.437 109.183,350.437 111.627,350.437 114.070,350.437 116.514,350.437 118.958,350.437 121.402,350.436 123.845,350.434 126.289,350.431 128.733,350.426 131.176,350.417 133.620,350.403 136.064,350.380 138.507,350.344 140.951,350.290 143.395,350.210 145.838,350.096 148.282,349.937 150.726,349.719 153.169,349.430 155.613,349.053 158.057,348.572 160.500,347.972 162.944,347.239 165.388,346.360 167.831,345.327 170.275,344.133 172.719,342.779 175.162,341.268 177.606,339.611 180.050,337.820 182.493,335.915 184.937,333.918 187.381,331.854 189.824,329.750 192.268,327.634 194.712,325.532 197.155,323.471 199.599,321.474 202.043,319.563 204.486,317.753 206.930,316.061 209.374,314.496 211.817,313.065 214.261,311.771 216.705,310.615 219.148,309.593 221.592,308.702 224.036,307.934 226.480,307.281 228.923,306.734 231.367,306.282 233.811,305.915 236.254,305.623 238.698,305.395 241.142,305.221 243.585,305.093 246.029,305.001 248.473,304.937 250.916,304.895 253.360,304.869 255.804,304.853 258.247,304.844 260.691,304.838 263.135,304.834 265.578,304.830 268.022,304.826 270.466,304.823 272.909,304.823 275.353,304.829 277.797,304.845 280.240,304.877 282.684,304.929 285.128,305.010 287.571,305.126 290.015,305.288 292.459,305.503 294.902,305.783 297.346,306.138 299.790,306.579 302.233,307.116 304.677,307.760 307.121,308.521 309.564,309.409 312.008,310.429 314.452,311.588 316.895,312.888 319.339,314.330 321.783,315.910 324.227,317.622 326.670,319.456 329.114,321.396 331.558,323.424 334.001,325.519 336.445,327.656 338.889,329.808 341.332,331.947 343.776,334.043 346.220,336.069 348.663,337.998 351.107,339.808 353.551,341.478 355.994,342.994 358.438,344.347 360.882,345.534 363.325,346.556 365.769,347.419 368.213,348.133 370.656,348.712 373.100,349.172 375.544,349.529 377.987,349.799 380.431,349.999 382.875,350.144 385.318,350.246 387.762,350.315 390.206,350.362 392.649,350.392 395.093,350.411 397.537,350.422 399.980,350.429 402.424,350.433 404.868,350.435 407.311,350.436 409.755,350.437 412.199,350.437 414.642,350.437 417.086,350.437 419.530,350.437 421.973,350.437 424.417,350.437 426.861,350.437 429.305,350.437 431.748,350.437 434.192,350.437 436.636,350.437 439.079,350.437 441.523,350.437 443.967,350.437 446.410,350.437 448.854,350.437 451.298,350.437 453.741,350.437 456.185,350.437 458.629,350.437 461.072,350.438 463.516,350.438 465.960,350.438 468.403,350.438 470.847,350.438 473.291,350.438 475.734,350.438 478.178,350.438 480.622,350.438 483.065,350.438 485.509,350.438 487.953,350.438 490.396,350.438 492.840,350.438 495.284,350.438 497.727,350.438 500.171,350.438 502.615,350.438 505.058,350.438 507.502,350.438 509.946,350.438 512.389,350.438 514.833,350.438 517.277,350.438 519.720,350.438 522.164,350.438 524.608,350.438 527.051,350.438 529.495,350.438 531.939,350.438 534.383,350.438 536.826,350.438 539.270,350.438 541.714,350.438 544.157,350.438 546.601,350.438 549.045,350.438 551.488,350.438 553.932,350.438 556.376,350.438 558.819,350.438 561.263,350.438 563.707,350.438 566.150,350.438 568.594,350.438 571.038,350.438 573.481,350.438 575.925,350.438 578.369,350.438 580.812,350.438 583.256,350.438 585.700,350.438 588.143,350.438 590.587,350.438 593.031,350.438 595.474,350.438 597.918,350.438 600.362,350.438 602.805,350.438 605.249,350.438 607.693,350.438 610.136,350.438 612.580,350.438 615.024,350.438 617.467,350.438 619.911,350.438 622.355,350.438 624.798,350.438 627.242,350.438 629.686,350.438 632.130,350.438 634.573,350.438 637.017,350.438 639.461,350.438 641.904,350.438 644.348,350.438 646.792,350.438 649.235,350.438 651.679,350.438 654.123,350.438 656.566,350.438 659.010,350.438 661.454,350.438 663.897,350.438 666.341,350.438 668.785,350.438 671.228,350.438 673.672,350.438 676.116,350.438 678.559,350.438 681.003,350.438 683.447,350.438 685.890,350.438 688.334,350.438 690.778,350.438 693.221,350.438 695.665,350.438 698.109,350.438 700.552,350.438 702.996,350.438 705.440,350.438 707.883,350.438 710.327,350.438 712.771,350.438 715.214,350.438 717.658,350.438 720.102,350.438 722.545,350.438 724.989,350.438 727.433,350.438 729.876,350.438 732.320,350.438 734.764,350.438 737.208,350.438 739.651,350.438 742.095,350.438 744.539,350.438 746.982,350.438 749.426,350.438 751.870,350.438 754.313,350.438 756.757,350.438 759.201,350.438 761.644,350.438 764.088,350.438 766.532,350.438 768.975,350.438 771.419,350.438 773.863,350.438 776.306,350.438 778.750,350.438 781.194,350.438 783.637,350.438 786.081,350.438 788.525,350.438 790.968,350.438 793.412,350.438 795.856,350.438 798.299,350.438 800.743,350.438 803.187,350.438 805.630,350.438 808.074,350.438 810.518,350.438 812.961,350.438 815.405,350.438 817.849,350.438 820.292,350.438 822.736,350.438 825.180,350.438 827.623,350.438 830.067,350.438 832.511,350.438 834.954,350.438 837.398,350.438 839.842,350.438 842.286,350.438 844.729,350.438 847.173,350.438 849.617,350.438 852.060,350.438 854.504,350.438 856.948,350.438 859.391,350.438 861.835,350.438 864.279,350.438 866.722,350.438 869.166,350.438 871.610,350.438 874.053,350.438 876.497,350.438 878.941,350.438 881.384,350.438 883.828,350.438 886.272,350.438 888.715,350.438 891.159,350.438 893.603,350.438 896.046,350.438 898.490,350.438 900.934,350.438 903.377,350.438 905.821,350.438 908.265,350.438 910.708,350.438 913.152,350.438 915.596,350.438 918.039,350.438 920.483,350.438 922.927,350.438 925.370,350.438 927.814,350.438 930.258,350.438 932.701,350.438 935.145,350.438 937.589,350.438 940.033,350.438 942.476,350.438 944.920,350.438 947.364,350.438 949.807,350.438 952.251,350.438 954.695,350.438 957.138,350.438 959.582,350.438 962.026,350.438 964.469,350.438 966.913,350.438 969.357,350.438 971.800,350.438 974.244,350.438 976.688,350.438 979.131,350.438 981.575,350.438 984.019,350.438 986.462,350.438 988.906,350.438 991.350,350.438 993.793,350.438 996.237,350.438 998.681,350.438 1001.124,350.438 1003.568,350.438 1006.012,350.438 1008.455,350.438 1010.899,350.438 1013.343,350.438 1015.786,350.438 1018.230,350.438 1020.674,350.438 1023.117,350.438 1025.561,350.438 1028.005,350.438 1030.448,350.438 1032.892,350.438 1035.336,350.438 1037.779,350.438 1040.223,350.438 1042.667,350.438 1045.111,350.438 1047.554,350.438 1049.998,350.438 1052.442,350.438 1054.885,350.438 1057.329,350.438 1059.773,350.438 1062.216,350.438 1064.660,350.438 1067.104,350.438 1069.547,350.438 1071.991,350.438 1074.435,350.438 1076.878,350.438 1079.322,350.438 1081.766,350.438 1084.209,350.438 1086.653,350.438 1089.097,350.438 1091.540,350.438 1093.984,350.438 1096.428,350.438 1098.871,350.438 1101.315,350.438 1103.759,350.438 1106.202,350.438 1108.646,350.438 1111.090,350.438 1113.533,350.438 1115.977,350.438 1118.421,350.438 1120.864,350.438 1123.308,350.438 1125.752,350.438 1128.195,350.438 1130.639,350.438 1133.083,350.438 1135.526,350.438 1137.970,350.438 1140.414,350.438 1142.857,350.438 1145.301,350.438 1147.745,350.438 1150.189,350.438 1152.632,350.438 1155.076,350.438 1157.520,350.438 1159.963,350.438 1162.407,350.438 1164.851,350.438 1167.294,350.438 1169.738,350.438 1172.182,350.438 1174.625,350.438 1177.069,350.438 1179.513,350.438 1181.956,350.438 1184.400,350.438 1186.844,350.438 1189.287,350.438 1191.731,350.438 1194.175,350.438 1196.618,350.438 1199.062,350.438 1201.506,350.438 1203.949,350.438 1206.393,350.438 1208.837,350.438 1211.280,350.438 1213.724,350.438 1216.168,350.438 1218.611,350.438 1221.055,350.438 1223.499,350.438 1225.942,350.438 1228.386,350.438 1230.830,350.438 1233.273,350.438 1235.717,350.438 1238.161,350.438 1240.604,350.438 1243.048,350.438 1245.492,350.438 1247.936,350.438 1250.379,350.438 1252.823,350.438 1255.267,350.438 1257.710,350.438 1260.154,350.438 1262.598,350.438 1265.041,350.438 1267.485,350.438 1269.929,350.438 1272.372,350.438 1274.816,350.438 1277.260,350.438 1279.703,350.438 1282.147,350.438 1284.591,350.438 1287.034,350.438 1289.478,350.438 1291.922,350.438 1294.365,350.438 1296.809,350.438 1299.253,350.438 1301.696,350.438 1304.140,350.438 1306.584,350.438 1309.027,350.438 1311.471,350.438 1313.915,350.438 1316.358,350.438 1318.802,350.438 1321.246,350.438 1323.689,350.438 1326.133,350.438 1328.577,350.438 1331.020,350.438 1333.464,350.438 1335.908,350.438 1338.351,350.438 1340.795,350.438 1343.239,350.438 1345.682,350.438 1348.126,350.438 1350.570,350.438 1353.014,350.438 1355.457,350.438 1357.901,350.438 1360.345,350.438 1362.788,350.438 1365.232,350.438 1367.676,350.438 1370.119,350.438 1372.563,350.438 1375.007,350.438 1377.450,350.438 1379.894,350.438 1382.338,350.438 1384.781,350.438 1387.225,350.438 1389.669,350.438 1392.112,350.438 1394.556,350.438 1397.000,350.438 1399.443,350.438 1401.887,350.438 1404.331,350.438 1406.774,350.438 1409.218,350.438 1411.662,350.438 1414.105,350.438 1416.549,350.438 1418.993,350.438 1421.436,350.438 1423.880,350.438 1426.324,350.438 1428.767,350.438 1431.211,350.438 1433.655,350.438 1436.098,350.438 1438.542,350.438 1440.986,350.438 1443.429,350.438 1445.873,350.438 1448.317,350.438 1450.760,350.438 1453.204,350.438 1455.648,350.438 1458.092,350.438 1460.535,350.438 1462.979,350.438 1465.423,350.438 1467.866,350.438 1470.310,350.438 1472.754,350.438 1475.197,350.438 1477.641,350.438 1480.085,350.438 1482.528,350.438 1484.972,350.438 1487.416,350.438 1489.859,350.438 1492.303,350.438 "/>
<g>
</g>
</g>
<g id="ID000005" >
  <g transform="translate(271.219,383.176)">
    <g transform="rotate(-0.0)">
      <text x="0.000" y="0.000" font-family="Helvetica" text-anchor="middle" font-size="11pt" fill="#000000" >Logitudinal Position (mm)</text>
    </g>
  </g>
</g>
<g id="ID000006" >
  <g transform="translate(32.156,191.392)">
    <g transform="rotate(-90.0)">
      <text x="0.000" y="0.000" font-family="Helvetica" text-anchor="middle" font-size="11pt" fill="#000000" >Normalized charge density (a.u.)</text>
    </g>
  </g>
</g>
<g id="ID000007" >
</g>
<g id="ID000008" >
</g>
<g id="ID000009" >
</g>
    </g>
    <g>
      <polyline fill="none" stroke="#000000" stroke-width="0.5pt" stroke-dasharray="none" points="108.938,350.438 108.938,346.369 "/>
      <polyline fill="none" stroke="#000000" stroke-width="0.5pt" stroke-dasharray="none" points="149.625,350.438 149.625,346.369 "/>
      <polyline fill="none" stroke="#000000" stroke-width="0.5pt" stroke-dasharray="none" points="190.313,350.438 190.313,346.369 "/>
      <polyline fill="none" stroke="#000000" stroke-width="0.5pt" stroke-dasharray="none" points="231.000,350.438 231.000,346.369 "/>
      <polyline fill="none" stroke="#000000" stroke-width="0.5pt" stroke-dasharray="none" points="271.688,350.438 271.688,346.369 "/>
      <polyline fill="none" stroke="#000000" stroke-width="0.5pt" stroke-dasharray="none" points="312.375,350.438 312.375,346.369 "/>
      <polyline fill="none" stroke="#000000" stroke-width="0.5pt" stroke-dasharray="none" points="353.063,350.438 353.063,346.369 "/>
      <polyline fill="none" stroke="#000000" stroke-width="0.5pt" stroke-dasharray="none" points="393.750,350.438 393.750,346.369 "/>
      <polyline fill="none" stroke="#000000" stroke-width="0.5pt" stroke-dasharray="none" points="434.438,350.438 434.438,346.369 "/>
      <polyline fill="none" stroke="#000000" stroke-width="0.5pt" stroke-dasharray="none" points="68.250,350.438 475.125,350.438 "/>
      <polyline fill="none" stroke="#000000" stroke-width="0.5pt" stroke-dasharray="none" points="108.938,29.531 108.938,33.600 "/>
      <polyline fill="none" stroke="#000000" stroke-width="0.5pt" stroke-dasharray="none" points="149.625,29.531 149.625,33.600 "/>
      <polyline fill="none" stroke="#000000" stroke-width="0.5pt" stroke-dasharray="none" points="190.313,29.531 190.313,33.600 "/>
      <polyline fill="none" stroke="#000000" stroke-width="0.5pt" stroke-dasharray="none" points="231.000,29.531 231.000,33.600 "/>
      <polyline fill="none" stroke="#000000" stroke-width="0.5pt" stroke-dasharray="none" points="271.688,29.531 271.688,33.600 "/>
      <polyline fill="none" stroke="#000000" stroke-width="0.5pt" stroke-dasharray="none" points="312.375,29.531 312.375,33.600 "/>
      <polyline fill="none" stroke="#000000" stroke-width="0.5pt" stroke-dasharray="none" points="353.063,29.531 353.063,33.600 "/>
      <polyline fill="none" stroke="#000000" stroke-width="0.5pt" stroke-dasharray="none" points="393.750,29.531 393.750,33.600 "/>
      <polyline fill="none" stroke="#000000" stroke-width="0.5pt" stroke-dasharray="none" points="434.438,29.531 434.438,33.600 "/>
      <polyline fill="none" stroke="#000000" stroke-width="0.5pt" stroke-dasharray="none" points="68.250,29.531 475.125,29.531 "/>
  <g transform="translate(68.250,363.105)">
    <g transform="rotate(-0.0)">
      <text x="0.000" y="0.000" font-family="Helvetica" text-anchor="middle" font-size="9pt" fill="#000000" >-50</text>
    </g>
  </g>
  <g transform="translate(108.938,363.105)">
    <g transform="rotate(-0.0)">
      <text x="0.000" y="0.000" font-family="Helvetica" text-anchor="middle" font-size="9pt" fill="#000000" >-40</text>
    </g>
  </g>
  <g transform="translate(149.625,363.105)">
    <g transform="rotate(-0.0)">
      <text x="0.000" y="0.000" font-family="Helvetica" text-anchor="middle" font-size="9pt" fill="#000000" >-30</text>
    </g>
  </g>
  <g transform="translate(190.313,363.105)">
    <g transform="rotate(-0.0)">
      <text x="0.000" y="0.000" font-family="Helvetica" text-anchor="middle" font-size="9pt" fill="#000000" >-20</text>
    </g>
  </g>
  <g transform="translate(231.000,363.105)">
    <g transform="rotate(-0.0)">
      <text x="0.000" y="0.000" font-family="Helvetica" text-anchor="middle" font-size="9pt" fill="#000000" >-10</text>
    </g>
  </g>
  <g transform="translate(271.688,363.105)">
    <g transform="rotate(-0.0)">
      <text x="0.000" y="0.000" font-family="Helvetica" text-anchor="middle" font-size="9pt" fill="#000000" >0</text>
    </g>
  </g>
  <g transform="translate(312.375,363.105)">
    <g transform="rotate(-0.0)">
      <text x="0.000" y="0.000" font-family="Helvetica" text-anchor="middle" font-size="9pt" fill="#000000" >10</text>
    </g>
  </g>
  <g transform="translate(353.063,363.105)">
    <g transform="rotate(-0.0)">
      <text x="0.000" y="0.000" font-family="Helvetica" text-anchor="middle" font-size="9pt" fill="#000000" >20</text>
    </g>
  </g>
  <g transform="translate(393.750,363.105)">
    <g transform="rotate(-0.0)">
      <text x="0.000" y="0.000" font-family="Helvetica" text-anchor="middle" font-size="9pt" fill="#000000" >30</text>
    </g>
  </g>
  <g transform="translate(434.438,363.105)">
    <g transform="rotate(-0.0)">
      <text x="0.000" y="0.000" font-family="Helvetica" text-anchor="middle" font-size="9pt" fill="#000000" >40</text>
    </g>
  </g>
  <g transform="translate(475.125,363.105)">
    <g transform="rotate(-0.0)">
      <text x="0.000" y="0.000" font-family="Helvetica" text-anchor="middle" font-size="9pt" fill="#000000" >50</text>
    </g>
  </g>
      <polyline fill="none" stroke="#000000" stroke-width="0.5pt" stroke-dasharray="none" points="68.250,296.953 72.319,296.953 "/>
      <polyline fill="none" stroke="#000000" stroke-width="0.5pt" stroke-dasharray="none" points="68.250,243.469 72.319,243.469 "/>
      <polyline fill="none" stroke="#000000" stroke-width="0.5pt" stroke-dasharray="none" points="68.250,189.984 72.319,189.984 "/>
      <polyline fill="none" stroke="#000000" stroke-width="0.5pt" stroke-dasharray="none" points="68.250,136.500 72.319,136.500 "/>
      <polyline fill="none" stroke="#000000" stroke-width="0.5pt" stroke-dasharray="none" points="68.250,83.016 72.319,83.016 "/>
      <polyline fill="none" stroke="#000000" stroke-width="0.5pt" stroke-dasharray="none" points="68.250,350.438 68.250,29.531 "/>
      <polyline fill="none" stroke="#000000" stroke-width="0.5pt" stroke-dasharray="none" points="475.125,296.953 471.056,296.953 "/>
      <polyline fill="none" stroke="#000000" stroke-width="0.5pt" stroke-dasharray="none" points="475.125,243.469 471.056,243.469 "/>
      <polyline fill="none" stroke="#000000" stroke-width="0.5pt" stroke-dasharray="none" points="475.125,189.984 471.056,189.984 "/>
      <polyline fill="none" stroke="#000000" stroke-width="0.5pt" stroke-dasharray="none" points="475.125,136.500 471.056,136.500 "/>
      <polyline fill="none" stroke="#000000" stroke-width="0.5pt" stroke-dasharray="none" points="475.125,83.016 471.056,83.016 "/>
      <polyline fill="none" stroke="#000000" stroke-width="0.5pt" stroke-dasharray="none" points="475.125,350.438 475.125,29.531 "/>
  <g transform="translate(66.216,354.656)">
    <g transform="rotate(-0.0)">
      <text x="0.000" y="0.000" font-family="Helvetica" text-anchor="end" font-size="9pt" fill="#000000" >0</text>
    </g>
  </g>
  <g transform="translate(66.216,301.172)">
    <g transform="rotate(-0.0)">
      <text x="0.000" y="0.000" font-family="Helvetica" text-anchor="end" font-size="9pt" fill="#000000" >0.02</text>
    </g>
  </g>
  <g transform="translate(66.216,247.688)">
    <g transform="rotate(-0.0)">
      <text x="0.000" y="0.000" font-family="Helvetica" text-anchor="end" font-size="9pt" fill="#000000" >0.04</text>
    </g>
  </g>
  <g transform="translate(66.216,194.203)">
    <g transform="rotate(-0.0)">
      <text x="0.000" y="0.000" font-family="Helvetica" text-anchor="end" font-size="9pt" fill="#000000" >0.06</text>
    </g>
  </g>
  <g transform="translate(66.216,140.719)">
    <g transform="rotate(-0.0)">
      <text x="0.000" y="0.000" font-family="Helvetica" text-anchor="end" font-size="9pt" fill="#000000" >0.08</text>
    </g>
  </g>
  <g transform="translate(66.216,87.234)">
    <g transform="rotate(-0.0)">
      <text x="0.000" y="0.000" font-family="Helvetica" text-anchor="end" font-size="9pt" fill="#000000" >0.1</text>
    </g>
  </g>
  <g transform="translate(66.216,33.750)">
    <g transform="rotate(-0.0)">
      <text x="0.000" y="0.000" font-family="Helvetica" text-anchor="end" font-size="9pt" fill="#000000" >0.12</text>
    </g>
  </g>
      <polyline fill="none" stroke="#000000" stroke-width="0.5pt" stroke-dasharray="none" points="68.250,350.438 68.250,347.228 "/>
      <polyline fill="none" stroke="#000000" stroke-width="0.5pt" stroke-dasharray="none" points="68.250,350.438 68.250,350.437 "/>
    </g>
  </g>
  <g id ="ID000010">
  <clipPath id="ID000011">
    <rect x="342.500" y="36.250" width="127.500" height="76.562"/>
  </clipPath>
      <polygon fill="#ffffff" fill-opacity="1.00" stroke="none" stroke-width="0.5pt" stroke-opacity="1.00" stroke-dasharray="none" points="342.500,112.812 470.000,112.812 470.000,36.250 342.500,36.250 "/>
      <polygon fill="#ffffff" fill-opacity="1.00" stroke="none" stroke-width="0.5pt" stroke-opacity="1.00" stroke-dasharray="none" points="342.500,36.250 470.000,36.250 470.000,36.250 342.500,36.250 "/>
      <polygon fill="#ffffff" fill-opacity="1.00" stroke="none" stroke-width="0.5pt" stroke-opacity="1.00" stroke-dasharray="none" points="342.500,112.812 342.500,112.812 342.500,36.250 342.500,36.250 "/>
    <g>
<g id="ID000012" >
  <g transform="translate(391.719,55.120)">
    <g transform="rotate(-0.0)">
      <text x="0.000" y="0.000" font-family="Helvetica" text-anchor="start" font-size="9pt" fill="#000000" ><tspan>&#963;</tspan><tspan></tspan><tspan dy="3.8pt" font-size="7pt">0</tspan><tspan dy="-3.8pt" font-size="9pt">: 7.5  (ps)</tspan></text>
    </g>
  </g>
</g>
<g id="ID000013" clip-path="url(#ID000011)" >
      <polyline fill="none" stroke="#0000ff" stroke-width="2.0pt" stroke-dasharray="none" points="350.000,50.469 387.500,50.469 "/>
<g>
</g>
</g>
<g id="ID000014" clip-path="url(#ID000011)" >
<g>
</g>
</g>
<g id="ID000015" >
  <g transform="translate(391.719,79.695)">
    <g transform="rotate(-0.0)">
      <text x="0.000" y="0.000" font-family="Helvetica" text-anchor="start" font-size="9pt" fill="#000000" ><tspan>&#963;</tspan><tspan></tspan><tspan dy="3.8pt" font-size="7pt">1</tspan><tspan dy="-3.8pt" font-size="9pt">: 37.7  (ps)</tspan></text>
    </g>
  </g>
</g>
<g id="ID000016" clip-path="url(#ID000011)" >
      <polyline fill="none" stroke="#00b200" stroke-width="2.0pt" stroke-dasharray="none" points="350.000,74.531 387.500,74.531 "/>
<g>
</g>
</g>
<g id="ID000017" clip-path="url(#ID000011)" >
<g>
</g>
</g>
<g id="ID000018" >
  <g transform="translate(391.719,104.271)">
    <g transform="rotate(-0.0)">
      <text x="0.000" y="0.000" font-family="Helvetica" text-anchor="start" font-size="9pt" fill="#000000" ><tspan>&#963;</tspan><tspan></tspan><tspan dy="3.8pt" font-size="7pt">2</tspan><tspan dy="-3.8pt" font-size="9pt">: 37.6  (ps)</tspan></text>
    </g>
  </g>
</g>
<g id="ID000019" clip-path="url(#ID000011)" >
      <polyline fill="none" stroke="#ff0000" stroke-width="2.0pt" stroke-dasharray="none" points="350.000,98.594 387.500,98.594 "/>
<g>
</g>
</g>
<g id="ID000020" clip-path="url(#ID000011)" >
<g>
</g>
</g>
<g id="ID000021" >
</g>
<g id="ID000022" >
</g>
<g id="ID000023" >
</g>
    </g>
    <g>
      <polyline fill="none" stroke="#000000" stroke-width="0.5pt" stroke-dasharray="none" points="342.500,112.812 470.000,112.812 "/>
      <polyline fill="none" stroke="#000000" stroke-width="0.5pt" stroke-dasharray="none" points="342.500,36.250 470.000,36.250 "/>
      <polyline fill="none" stroke="#000000" stroke-width="0.5pt" stroke-dasharray="none" points="342.500,112.812 342.500,36.250 "/>
      <polyline fill="none" stroke="#000000" stroke-width="0.5pt" stroke-dasharray="none" points="470.000,112.812 470.000,36.250 "/>
      <polyline fill="none" stroke="#000000" stroke-width="0.5pt" stroke-dasharray="none" points="342.500,112.812 342.500,112.047 "/>
      <polyline fill="none" stroke="#000000" stroke-width="0.5pt" stroke-dasharray="none" points="342.500,112.812 342.500,112.812 "/>
    </g>
  </g>
  <g id ="ID000024">
  <clipPath id="ID000025">
    <rect x="0.000" y="0.000" width="525.000" height="393.750"/>
  </clipPath>
    <g>
    </g>
  </g>
  </g>
</svg>
