<?xml version="1.0" encoding="utf-8" standalone="no"?><!DOCTYPE svg PUBLIC "-//W3C//DTD SVG 1.1//EN" "http://www.w3.org/Graphics/SVG/1.1/DTD/svg11.dtd">
<svg preserveAspectRatio="xMinYMin meet" width="100%" height="100%" viewBox="0 0 525.000 400.313"  version="1.1" xmlns="http://www.w3.org/2000/svg" xmlns:xlink="http://www.w3.org/1999/xlink">
  <desc>Matlab Figure Converted by PLOT2SVG written by Juerg Schwizer</desc>
  <g id="topgroup">
  <rect x="0" y="0" width="525.000" height="400.313" fill="#ffffff" stroke="none" />
  <g id ="ID000000">
  <clipPath id="ID000001">
    <rect x="68.250" y="30.023" width="406.875" height="326.255"/>
  </clipPath>
      <polygon fill="#ffffff" fill-opacity="1.00" stroke="none" stroke-width="0.5pt" stroke-opacity="1.00" stroke-dasharray="none" points="68.250,356.278 475.125,356.278 475.125,30.023 68.250,30.023 "/>
      <polygon fill="#ffffff" fill-opacity="1.00" stroke="none" stroke-width="0.5pt" stroke-opacity="1.00" stroke-dasharray="none" points="68.250,30.023 475.125,30.023 475.125,30.023 68.250,30.023 "/>
      <polygon fill="#ffffff" fill-opacity="1.00" stroke="none" stroke-width="0.5pt" stroke-opacity="1.00" stroke-dasharray="none" points="68.250,356.278 68.250,356.278 68.250,30.023 68.250,30.023 "/>
    <g>
<g id="ID000002" clip-path="url(#ID000001)" >
      <polyline fill="none" stroke="#0000ff" stroke-width="2.0pt" stroke-dasharray="none" points="103.814,193.151 104.326,192.652 104.838,192.100 105.349,191.549 105.861,190.999 106.373,190.450 106.885,189.901 107.397,189.352 107.908,188.803 108.420,188.255 108.932,187.708 109.444,187.161 109.956,186.614 110.468,186.068 110.979,185.522 111.491,184.976 112.003,184.431 112.515,183.886 113.027,183.342 113.538,182.798 114.050,182.255 114.562,181.712 115.074,181.170 115.586,180.628 116.097,180.086 116.609,179.546 117.121,179.005 117.633,178.465 118.145,177.926 118.656,177.387 119.168,176.848 119.680,176.310 120.192,175.773 120.704,175.236 121.215,174.699 121.727,174.163 122.239,173.628 122.751,173.093 123.263,172.559 123.774,172.025 124.286,171.492 124.798,170.960 125.310,170.428 125.822,169.896 126.334,169.365 126.845,168.835 127.357,168.305 127.869,167.776 128.381,167.248 128.893,166.720 129.404,166.193 129.916,165.666 130.428,165.140 130.940,164.615 131.452,164.090 131.963,163.566 132.475,163.043 132.987,162.520 133.499,161.998 134.011,161.477 134.522,160.956 135.034,160.436 135.546,159.916 136.058,159.398 136.570,158.880 137.081,158.362 137.593,157.846 138.105,157.330 138.617,156.815 139.129,156.300 139.640,155.786 140.152,155.273 140.664,154.761 141.176,154.250 141.688,153.739 142.200,153.229 142.711,152.719 143.223,152.211 143.735,151.703 144.247,151.196 144.759,150.690 145.270,150.185 145.782,149.680 146.294,149.176 146.806,148.673 147.318,148.171 147.829,147.670 148.341,147.169 148.853,146.669 149.365,146.170 149.877,145.672 150.388,145.175 150.900,144.678 151.412,144.183 151.924,143.688 152.436,143.194 152.947,142.701 153.459,142.209 153.971,141.718 154.483,141.228 154.995,140.738 155.506,140.249 156.018,139.762 156.530,139.275 157.042,138.789 157.554,138.304 158.065,137.820 158.577,137.337 159.089,136.855 159.601,136.373 160.113,135.893 160.625,135.414 161.136,134.935 161.648,134.458 162.160,133.981 162.672,133.506 163.184,133.031 163.695,132.557 164.207,132.085 164.719,131.613 165.231,131.143 165.743,130.673 166.254,130.204 166.766,129.736 167.278,129.270 167.790,128.804 168.302,128.340 168.813,127.876 169.325,127.413 169.837,126.952 170.349,126.491 170.861,126.032 171.372,125.574 171.884,125.116 172.396,124.660 172.908,124.205 173.420,123.751 173.931,123.298 174.443,122.846 174.955,122.395 175.467,121.945 175.979,121.496 176.491,121.049 177.002,120.602 177.514,120.157 178.026,119.712 178.538,119.269 179.050,118.827 179.561,118.386 180.073,117.947 180.585,117.508 181.097,117.071 181.609,116.634 182.120,116.199 182.632,115.765 183.144,115.332 183.656,114.901 184.168,114.470 184.679,114.041 185.191,113.613 185.703,113.186 186.215,112.760 186.727,112.336 187.238,111.912 187.750,111.490 188.262,111.069 188.774,110.650 189.286,110.231 189.797,109.814 190.309,109.398 190.821,108.983 191.333,108.570 191.845,108.157 192.356,107.746 192.868,107.337 193.380,106.928 193.892,106.521 194.404,106.115 194.916,105.710 195.427,105.307 195.939,104.905 196.451,104.504 196.963,104.104 197.475,103.706 197.986,103.309 198.498,102.914 199.010,102.519 199.522,102.126 200.034,101.735 200.545,101.344 201.057,100.956 201.569,100.568 202.081,100.182 202.593,99.797 203.104,99.413 203.616,99.031 204.128,98.650 204.640,98.270 205.152,97.892 205.663,97.515 206.175,97.140 206.687,96.766 207.199,96.393 207.711,96.022 208.222,95.652 208.734,95.284 209.246,94.917 209.758,94.551 210.270,94.187 210.782,93.824 211.293,93.463 211.805,93.103 212.317,92.744 212.829,92.387 213.341,92.032 213.852,91.678 214.364,91.325 214.876,90.974 215.388,90.624 215.900,90.276 216.411,89.929 216.923,89.583 217.435,89.239 217.947,88.897 218.459,88.556 218.970,88.216 219.482,87.878 219.994,87.542 220.506,87.207 221.018,86.874 221.529,86.542 222.041,86.211 222.553,85.882 223.065,85.555 223.577,85.229 224.088,84.905 224.600,84.582 225.112,84.261 225.624,83.941 226.136,83.623 226.647,83.306 227.159,82.991 227.671,82.678 228.183,82.366 228.695,82.056 229.207,81.747 229.718,81.440 230.230,81.134 230.742,80.830 231.254,80.528 231.766,80.227 232.277,79.928 232.789,79.630 233.301,79.334 233.813,79.040 234.325,78.747 234.836,78.456 235.348,78.166 235.860,77.878 236.372,77.592 236.884,77.308 237.395,77.025 237.907,76.743 238.419,76.464 238.931,76.186 239.443,75.909 239.954,75.635 240.466,75.361 240.978,75.090 241.490,74.820 242.002,74.552 242.513,74.286 243.025,74.021 243.537,73.759 244.049,73.497 244.561,73.238 245.073,72.980 245.584,72.724 246.096,72.469 246.608,72.217 247.120,71.966 247.632,71.716 248.143,71.469 248.655,71.223 249.167,70.979 249.679,70.736 250.191,70.496 250.702,70.257 251.214,70.020 251.726,69.784 252.238,69.551 252.750,69.319 253.261,69.089 253.773,68.861 254.285,68.634 254.797,68.409 255.309,68.186 255.820,67.965 256.332,67.746 256.844,67.528 257.356,67.312 257.868,67.098 258.379,66.886 258.891,66.676 259.403,66.467 259.915,66.260 260.427,66.055 260.938,65.852 261.450,65.651 261.962,65.451 262.474,65.254 262.986,65.058 263.498,64.864 264.009,64.672 264.521,64.481 265.033,64.293 265.545,64.106 266.057,63.922 266.568,63.739 267.080,63.558 267.592,63.379 268.104,63.201 268.616,63.026 269.127,62.852 269.639,62.681 270.151,62.511 270.663,62.343 271.175,62.177 271.686,62.013 272.198,61.851 272.710,61.691 273.222,61.533 273.734,61.376 274.245,61.222 274.757,61.069 275.269,60.919 275.781,60.770 276.293,60.623 276.804,60.478 277.316,60.336 277.828,60.195 278.340,60.056 278.852,59.919 279.364,59.783 279.875,59.650 280.387,59.519 280.899,59.390 281.411,59.263 281.923,59.138 282.434,59.014 282.946,58.893 283.458,58.774 283.970,58.656 284.482,58.541 284.993,58.428 285.505,58.316 286.017,58.207 286.529,58.100 287.041,57.994 287.552,57.891 288.064,57.790 288.576,57.691 289.088,57.593 289.600,57.498 290.111,57.405 290.623,57.314 291.135,57.225 291.647,57.138 292.159,57.053 292.670,56.970 293.182,56.889 293.694,56.810 294.206,56.733 294.718,56.659 295.229,56.586 295.741,56.515 296.253,56.447 296.765,56.380 297.277,56.316 297.789,56.254 298.300,56.194 298.812,56.136 299.324,56.080 299.836,56.026 300.348,55.974 300.859,55.924 301.371,55.877 301.883,55.832 302.395,55.788 302.907,55.747 303.418,55.708 303.930,55.671 304.442,55.636 304.954,55.604 305.466,55.573 305.977,55.545 306.489,55.519 307.001,55.495 307.513,55.473 308.025,55.453 308.536,55.436 309.048,55.421 309.560,55.407 310.072,55.397 310.584,55.388 311.095,55.381 311.607,55.377 312.119,55.375 312.631,55.375 313.143,55.377 313.655,55.381 314.166,55.388 314.678,55.397 315.190,55.408 315.702,55.421 316.214,55.437 316.725,55.454 317.237,55.474 317.749,55.497 318.261,55.521 318.773,55.548 319.284,55.577 319.796,55.608 320.308,55.642 320.820,55.677 321.332,55.716 321.843,55.756 322.355,55.799 322.867,55.843 323.379,55.891 323.891,55.940 324.402,55.992 324.914,56.046 325.426,56.103 325.938,56.161 326.450,56.222 326.961,56.286 327.473,56.352 327.985,56.420 328.497,56.490 329.009,56.563 329.521,56.638 330.032,56.715 330.544,56.795 331.056,56.877 331.568,56.962 332.080,57.049 332.591,57.138 333.103,57.230 333.615,57.324 334.127,57.421 334.639,57.520 335.150,57.621 335.662,57.725 336.174,57.831 336.686,57.939 337.198,58.050 337.709,58.164 338.221,58.280 338.733,58.398 339.245,58.519 339.757,58.642 340.268,58.768 340.780,58.896 341.292,59.027 341.804,59.160 342.316,59.296 342.827,59.434 343.339,59.575 343.851,59.718 344.363,59.864 344.875,60.012 345.386,60.163 345.898,60.316 346.410,60.472 346.922,60.630 347.434,60.791 347.946,60.955 348.457,61.121 348.969,61.289 349.481,61.461 349.993,61.635 350.505,61.811 351.016,61.990 351.528,62.172 352.040,62.356 352.552,62.543 353.064,62.733 353.575,62.925 354.087,63.120 354.599,63.318 355.111,63.518 355.623,63.721 356.134,63.927 356.646,64.135 357.158,64.347 357.670,64.561 358.182,64.777 358.693,64.996 359.205,65.219 359.717,65.443 360.229,65.671 360.741,65.902 361.252,66.135 361.764,66.371 362.276,66.610 362.788,66.851 363.300,67.096 363.812,67.343 364.323,67.594 364.835,67.847 365.347,68.103 365.859,68.362 366.371,68.624 366.882,68.888 367.394,69.156 367.906,69.427 368.418,69.700 368.930,69.977 369.441,70.256 369.953,70.539 370.465,70.825 370.977,71.113 371.489,71.405 372.000,71.700 372.512,71.998 373.024,72.298 373.536,72.603 374.048,72.910 374.559,73.220 375.071,73.533 375.583,73.850 376.095,74.170 376.607,74.493 377.118,74.819 377.630,75.149 378.142,75.482 378.654,75.818 379.166,76.157 379.677,76.500 380.189,76.846 380.701,77.196 381.213,77.548 381.725,77.905 382.237,78.264 382.748,78.628 383.260,78.994 383.772,79.364 384.284,79.738 384.796,80.115 385.307,80.496 385.819,80.881 386.331,81.269 386.843,81.660 387.355,82.056 387.866,82.455 388.378,82.858 388.890,83.265 389.402,83.675 389.914,84.090 390.425,84.508 390.937,84.930 391.449,85.356 391.961,85.786 392.473,86.220 392.984,86.658 393.496,87.101 394.008,87.547 394.520,87.998 395.032,88.452 395.543,88.911 396.055,89.375 396.567,89.842 397.079,90.314 397.591,90.791 398.103,91.272 398.614,91.757 399.126,92.247 399.638,92.742 400.150,93.242 400.662,93.746 401.173,94.255 401.685,94.769 402.197,95.288 402.709,95.811 403.221,96.340 403.732,96.874 404.244,97.414 404.756,97.958 405.268,98.508 405.780,99.063 406.291,99.624 406.803,100.191 407.315,100.763 407.827,101.340 408.339,101.924 408.850,102.514 409.362,103.110 409.874,103.711 410.386,104.320 410.898,104.934 411.409,105.555 411.921,106.183 412.433,106.817 412.945,107.459 413.457,108.107 413.968,108.762 414.480,109.425 414.992,110.095 415.504,110.773 416.016,111.459 416.528,112.153 417.039,112.854 417.551,113.565 418.063,114.283 418.575,115.011 419.087,115.747 419.598,116.493 420.110,117.248 420.622,118.013 421.134,118.788 421.646,119.573 422.157,120.369 422.669,121.176 423.181,121.994 423.693,122.824 424.205,123.665 424.716,124.520 425.228,125.387 425.740,126.268 426.252,127.162 426.764,128.071 427.275,128.995 427.787,129.935 428.299,130.891 428.811,131.865 429.323,132.856 429.834,133.866 430.346,134.895 430.858,135.945 431.370,137.018 431.882,138.113 432.394,139.233 432.905,140.379 433.417,141.552 433.929,142.755 434.441,143.990 434.953,145.259 435.464,146.565 435.976,147.911 436.488,149.301 437.000,150.739 437.512,152.229 438.023,153.779 438.535,155.395 439.047,157.085 439.559,158.862 440.071,160.739 440.582,162.735 441.094,164.874 441.606,167.192 442.118,169.742 442.630,172.610 443.141,175.955 443.653,180.139 444.165,186.612 444.165,199.690 443.653,206.162 443.141,210.346 442.630,213.691 442.118,216.559 441.606,219.110 441.094,221.428 440.582,223.567 440.071,225.562 439.559,227.439 439.047,229.216 438.535,230.907 438.023,232.523 437.512,234.072 437.000,235.563 436.488,237.001 435.976,238.390 435.464,239.736 434.953,241.042 434.441,242.311 433.929,243.546 433.417,244.749 432.905,245.923 432.394,247.069 431.882,248.189 431.370,249.284 430.858,250.356 430.346,251.406 429.834,252.436 429.323,253.446 428.811,254.437 428.299,255.410 427.787,256.366 427.275,257.306 426.764,258.230 426.252,259.139 425.740,260.034 425.228,260.915 424.716,261.782 424.205,262.636 423.693,263.478 423.181,264.308 422.669,265.126 422.157,265.933 421.646,266.729 421.134,267.514 420.622,268.289 420.110,269.054 419.598,269.809 419.087,270.554 418.575,271.291 418.063,272.018 417.551,272.737 417.039,273.447 416.528,274.149 416.016,274.843 415.504,275.528 414.992,276.206 414.480,276.876 413.968,277.539 413.457,278.195 412.945,278.843 412.433,279.484 411.921,280.119 411.409,280.746 410.898,281.367 410.386,281.982 409.874,282.590 409.362,283.192 408.850,283.788 408.339,284.377 407.827,284.961 407.315,285.539 406.803,286.111 406.291,286.677 405.780,287.238 405.268,287.794 404.756,288.343 404.244,288.888 403.732,289.427 403.221,289.961 402.709,290.490 402.197,291.014 401.685,291.533 401.173,292.047 400.662,292.556 400.150,293.060 399.638,293.559 399.126,294.054 398.614,294.544 398.103,295.030 397.591,295.511 397.079,295.987 396.567,296.459 396.055,296.927 395.543,297.390 395.032,297.849 394.520,298.304 394.008,298.755 393.496,299.201 392.984,299.643 392.473,300.081 391.961,300.515 391.449,300.946 390.937,301.372 390.425,301.794 389.914,302.212 389.402,302.626 388.890,303.037 388.378,303.444 387.866,303.847 387.355,304.246 386.843,304.641 386.331,305.033 385.819,305.421 385.307,305.805 384.796,306.186 384.284,306.564 383.772,306.937 383.260,307.307 382.748,307.674 382.237,308.037 381.725,308.397 381.213,308.753 380.701,309.106 380.189,309.455 379.677,309.802 379.166,310.144 378.654,310.484 378.142,310.820 377.630,311.153 377.118,311.482 376.607,311.809 376.095,312.132 375.583,312.451 375.071,312.768 374.559,313.082 374.048,313.392 373.536,313.699 373.024,314.003 372.512,314.304 372.000,314.602 371.489,314.897 370.977,315.188 370.465,315.477 369.953,315.763 369.441,316.045 368.930,316.325 368.418,316.601 367.906,316.875 367.394,317.146 366.882,317.413 366.371,317.678 365.859,317.940 365.347,318.199 364.835,318.455 364.323,318.708 363.812,318.958 363.300,319.206 362.788,319.450 362.276,319.692 361.764,319.931 361.252,320.167 360.741,320.400 360.229,320.630 359.717,320.858 359.205,321.083 358.693,321.305 358.182,321.524 357.670,321.741 357.158,321.955 356.646,322.166 356.134,322.374 355.623,322.580 355.111,322.783 354.599,322.984 354.087,323.181 353.575,323.376 353.064,323.569 352.552,323.758 352.040,323.945 351.528,324.130 351.016,324.311 350.505,324.490 349.993,324.667 349.481,324.841 348.969,325.012 348.457,325.181 347.946,325.347 347.434,325.510 346.922,325.671 346.410,325.830 345.898,325.986 345.386,326.139 344.875,326.290 344.363,326.438 343.851,326.584 343.339,326.727 342.827,326.868 342.316,327.006 341.804,327.141 341.292,327.275 340.780,327.405 340.268,327.534 339.757,327.659 339.245,327.783 338.733,327.903 338.221,328.022 337.709,328.138 337.198,328.251 336.686,328.362 336.174,328.471 335.662,328.577 335.150,328.681 334.639,328.782 334.127,328.881 333.615,328.977 333.103,329.071 332.591,329.163 332.080,329.253 331.568,329.339 331.056,329.424 330.544,329.506 330.032,329.586 329.521,329.664 329.009,329.739 328.497,329.811 327.985,329.882 327.473,329.950 326.961,330.016 326.450,330.079 325.938,330.140 325.426,330.199 324.914,330.255 324.402,330.310 323.891,330.361 323.379,330.411 322.867,330.458 322.355,330.503 321.843,330.546 321.332,330.586 320.820,330.624 320.308,330.660 319.796,330.693 319.284,330.725 318.773,330.754 318.261,330.780 317.749,330.805 317.237,330.827 316.725,330.847 316.214,330.865 315.702,330.881 315.190,330.894 314.678,330.905 314.166,330.914 313.655,330.920 313.143,330.925 312.631,330.927 312.119,330.927 311.607,330.925 311.095,330.920 310.584,330.914 310.072,330.905 309.560,330.894 309.048,330.881 308.536,330.866 308.025,330.848 307.513,330.828 307.001,330.807 306.489,330.783 305.977,330.756 305.466,330.728 304.954,330.698 304.442,330.665 303.930,330.630 303.418,330.593 302.907,330.554 302.395,330.513 301.883,330.470 301.371,330.425 300.859,330.377 300.348,330.327 299.836,330.276 299.324,330.222 298.812,330.166 298.300,330.108 297.789,330.048 297.277,329.985 296.765,329.921 296.253,329.855 295.741,329.786 295.229,329.716 294.718,329.643 294.206,329.568 293.694,329.492 293.182,329.413 292.670,329.332 292.159,329.249 291.647,329.164 291.135,329.077 290.623,328.988 290.111,328.897 289.600,328.803 289.088,328.708 288.576,328.611 288.064,328.512 287.552,328.410 287.041,328.307 286.529,328.202 286.017,328.095 285.505,327.985 284.993,327.874 284.482,327.761 283.970,327.645 283.458,327.528 282.946,327.409 282.434,327.287 281.923,327.164 281.411,327.039 280.899,326.912 280.387,326.782 279.875,326.651 279.364,326.518 278.852,326.383 278.340,326.246 277.828,326.107 277.316,325.966 276.804,325.823 276.293,325.678 275.781,325.532 275.269,325.383 274.757,325.232 274.245,325.080 273.734,324.925 273.222,324.769 272.710,324.611 272.198,324.450 271.686,324.288 271.175,324.124 270.663,323.958 270.151,323.790 269.639,323.621 269.127,323.449 268.616,323.276 268.104,323.100 267.592,322.923 267.080,322.744 266.568,322.563 266.057,322.380 265.545,322.195 265.033,322.009 264.521,321.820 264.009,321.630 263.498,321.438 262.986,321.244 262.474,321.048 261.962,320.850 261.450,320.651 260.938,320.450 260.427,320.246 259.915,320.041 259.403,319.835 258.891,319.626 258.379,319.416 257.868,319.203 257.356,318.989 256.844,318.774 256.332,318.556 255.820,318.336 255.309,318.115 254.797,317.892 254.285,317.668 253.773,317.441 253.261,317.213 252.750,316.983 252.238,316.751 251.726,316.517 251.214,316.282 250.702,316.045 250.191,315.806 249.679,315.565 249.167,315.323 248.655,315.079 248.143,314.833 247.632,314.585 247.120,314.336 246.608,314.085 246.096,313.832 245.584,313.578 245.073,313.322 244.561,313.064 244.049,312.804 243.537,312.543 243.025,312.280 242.513,312.015 242.002,311.749 241.490,311.481 240.978,311.211 240.466,310.940 239.954,310.667 239.443,310.392 238.931,310.116 238.419,309.838 237.907,309.558 237.395,309.277 236.884,308.994 236.372,308.709 235.860,308.423 235.348,308.135 234.836,307.846 234.325,307.555 233.813,307.262 233.301,306.967 232.789,306.671 232.277,306.374 231.766,306.075 231.254,305.774 230.742,305.471 230.230,305.167 229.718,304.862 229.207,304.555 228.695,304.246 228.183,303.936 227.671,303.624 227.159,303.310 226.647,302.995 226.136,302.679 225.624,302.361 225.112,302.041 224.600,301.720 224.088,301.397 223.577,301.072 223.065,300.747 222.553,300.419 222.041,300.090 221.529,299.760 221.018,299.428 220.506,299.095 219.994,298.760 219.482,298.423 218.970,298.085 218.459,297.746 217.947,297.405 217.435,297.062 216.923,296.718 216.411,296.373 215.900,296.026 215.388,295.678 214.876,295.328 214.364,294.977 213.852,294.624 213.341,294.270 212.829,293.914 212.317,293.557 211.805,293.199 211.293,292.839 210.782,292.477 210.270,292.115 209.758,291.750 209.246,291.385 208.734,291.018 208.222,290.649 207.711,290.279 207.199,289.908 206.687,289.536 206.175,289.162 205.663,288.786 205.152,288.409 204.640,288.031 204.128,287.652 203.616,287.271 203.104,286.889 202.593,286.505 202.081,286.120 201.569,285.734 201.057,285.346 200.545,284.957 200.034,284.567 199.522,284.175 199.010,283.782 198.498,283.388 197.986,282.992 197.475,282.595 196.963,282.197 196.451,281.798 195.939,281.397 195.427,280.995 194.916,280.591 194.404,280.187 193.892,279.781 193.380,279.373 192.868,278.965 192.356,278.555 191.845,278.144 191.333,277.732 190.821,277.318 190.309,276.904 189.797,276.488 189.286,276.070 188.774,275.652 188.262,275.232 187.750,274.811 187.238,274.389 186.727,273.966 186.215,273.541 185.703,273.116 185.191,272.689 184.679,272.261 184.168,271.831 183.656,271.401 183.144,270.969 182.632,270.536 182.120,270.102 181.609,269.667 181.097,269.231 180.585,268.794 180.073,268.355 179.561,267.915 179.050,267.474 178.538,267.032 178.026,266.589 177.514,266.145 177.002,265.699 176.491,265.253 175.979,264.805 175.467,264.357 174.955,263.907 174.443,263.456 173.931,263.004 173.420,262.551 172.908,262.097 172.396,261.642 171.884,261.185 171.372,260.728 170.861,260.270 170.349,259.810 169.837,259.350 169.325,258.888 168.813,258.426 168.302,257.962 167.790,257.497 167.278,257.032 166.766,256.565 166.254,256.097 165.743,255.629 165.231,255.159 164.719,254.688 164.207,254.217 163.695,253.744 163.184,253.270 162.672,252.796 162.160,252.320 161.648,251.844 161.136,251.366 160.625,250.888 160.113,250.408 159.601,249.928 159.089,249.447 158.577,248.965 158.065,248.481 157.554,247.997 157.042,247.512 156.530,247.027 156.018,246.540 155.506,246.052 154.995,245.563 154.483,245.074 153.971,244.584 153.459,244.092 152.947,243.600 152.436,243.107 151.924,242.613 151.412,242.119 150.900,241.623 150.388,241.127 149.877,240.629 149.365,240.131 148.853,239.632 148.341,239.133 147.829,238.632 147.318,238.131 146.806,237.628 146.294,237.125 145.782,236.622 145.270,236.117 144.759,235.612 144.247,235.105 143.735,234.598 143.223,234.091 142.711,233.582 142.200,233.073 141.688,232.563 141.176,232.052 140.664,231.541 140.152,231.028 139.640,230.515 139.129,230.001 138.617,229.487 138.105,228.972 137.593,228.456 137.081,227.939 136.570,227.422 136.058,226.904 135.546,226.385 135.034,225.866 134.522,225.346 134.011,224.825 133.499,224.304 132.987,223.782 132.475,223.259 131.963,222.735 131.452,222.211 130.940,221.687 130.428,221.161 129.916,220.635 129.404,220.109 128.893,219.582 128.381,219.054 127.869,218.525 127.357,217.996 126.845,217.467 126.334,216.936 125.822,216.405 125.310,215.874 124.798,215.342 124.286,214.809 123.774,214.276 123.263,213.743 122.751,213.208 122.239,212.674 121.727,212.138 121.215,211.602 120.704,211.066 120.192,210.529 119.680,209.992 119.168,209.454 118.656,208.915 118.145,208.376 117.633,207.837 117.121,207.297 116.609,206.756 116.097,206.215 115.586,205.674 115.074,205.132 114.562,204.589 114.050,204.046 113.538,203.503 113.027,202.959 112.515,202.415 112.003,201.871 111.491,201.325 110.979,200.780 110.468,200.234 109.956,199.688 109.444,199.141 108.932,198.594 108.420,198.046 107.908,197.498 107.397,196.950 106.885,196.401 106.373,195.852 105.861,195.302 105.349,194.752 104.838,194.202 104.326,193.650 103.814,193.151 "/>
<g>
</g>
</g>
<g id="ID000003" clip-path="url(#ID000001)" >
      <polyline fill="none" stroke="#00ff00" stroke-width="2.0pt" stroke-dasharray="none" points="125.310,193.151 125.822,192.733 126.334,191.986 126.845,191.266 127.357,190.549 127.869,189.833 128.381,189.116 128.893,188.399 129.404,187.681 129.916,186.963 130.428,186.243 130.940,185.522 131.452,184.801 131.963,184.078 132.475,183.355 132.987,182.631 133.499,181.907 134.011,181.181 134.522,180.455 135.034,179.729 135.546,179.001 136.058,178.273 136.570,177.545 137.081,176.816 137.593,176.087 138.105,175.357 138.617,174.626 139.129,173.896 139.640,173.165 140.152,172.434 140.664,171.702 141.176,170.971 141.688,170.239 142.200,169.507 142.711,168.775 143.223,168.043 143.735,167.311 144.247,166.578 144.759,165.847 145.270,165.115 145.782,164.383 146.294,163.651 146.806,162.920 147.318,162.189 147.829,161.458 148.341,160.728 148.853,159.998 149.365,159.268 149.877,158.539 150.388,157.811 150.900,157.082 151.412,156.355 151.924,155.628 152.436,154.902 152.947,154.176 153.459,153.452 153.971,152.728 154.483,152.005 154.995,151.282 155.506,150.561 156.018,149.840 156.530,149.121 157.042,148.402 157.554,147.685 158.065,146.969 158.577,146.254 159.089,145.540 159.601,144.827 160.113,144.115 160.625,143.405 161.136,142.696 161.648,141.988 162.160,141.282 162.672,140.578 163.184,139.874 163.695,139.173 164.207,138.472 164.719,137.774 165.231,137.077 165.743,136.382 166.254,135.688 166.766,134.996 167.278,134.306 167.790,133.618 168.302,132.931 168.813,132.247 169.325,131.564 169.837,130.883 170.349,130.205 170.861,129.528 171.372,128.853 171.884,128.181 172.396,127.511 172.908,126.842 173.420,126.176 173.931,125.513 174.443,124.851 174.955,124.192 175.467,123.535 175.979,122.880 176.491,122.228 177.002,121.579 177.514,120.931 178.026,120.287 178.538,119.645 179.050,119.005 179.561,118.368 180.073,117.733 180.585,117.102 181.097,116.473 181.609,115.846 182.120,115.223 182.632,114.602 183.144,113.984 183.656,113.368 184.168,112.756 184.679,112.146 185.191,111.540 185.703,110.936 186.215,110.335 186.727,109.738 187.238,109.143 187.750,108.551 188.262,107.963 188.774,107.377 189.286,106.795 189.797,106.216 190.309,105.640 190.821,105.067 191.333,104.497 191.845,103.931 192.356,103.368 192.868,102.808 193.380,102.252 193.892,101.699 194.404,101.149 194.916,100.602 195.427,100.059 195.939,99.520 196.451,98.983 196.963,98.451 197.475,97.922 197.986,97.396 198.498,96.873 199.010,96.355 199.522,95.840 200.034,95.328 200.545,94.820 201.057,94.316 201.569,93.815 202.081,93.318 202.593,92.824 203.104,92.334 203.616,91.848 204.128,91.365 204.640,90.886 205.152,90.411 205.663,89.940 206.175,89.472 206.687,89.008 207.199,88.548 207.711,88.092 208.222,87.639 208.734,87.190 209.246,86.745 209.758,86.304 210.270,85.867 210.782,85.433 211.293,85.003 211.805,84.577 212.317,84.155 212.829,83.737 213.341,83.323 213.852,82.912 214.364,82.506 214.876,82.103 215.388,81.704 215.900,81.309 216.411,80.918 216.923,80.531 217.435,80.147 217.947,79.768 218.459,79.392 218.970,79.020 219.482,78.652 219.994,78.289 220.506,77.928 221.018,77.572 221.529,77.220 222.041,76.872 222.553,76.527 223.065,76.186 223.577,75.849 224.088,75.517 224.600,75.187 225.112,74.862 225.624,74.541 226.136,74.223 226.647,73.910 227.159,73.600 227.671,73.294 228.183,72.991 228.695,72.693 229.207,72.398 229.718,72.107 230.230,71.820 230.742,71.537 231.254,71.257 231.766,70.982 232.277,70.709 232.789,70.441 233.301,70.176 233.813,69.915 234.325,69.658 234.836,69.404 235.348,69.154 235.860,68.908 236.372,68.665 236.884,68.426 237.395,68.191 237.907,67.959 238.419,67.730 238.931,67.506 239.443,67.284 239.954,67.066 240.466,66.852 240.978,66.641 241.490,66.434 242.002,66.230 242.513,66.029 243.025,65.832 243.537,65.638 244.049,65.447 244.561,65.260 245.073,65.076 245.584,64.896 246.096,64.718 246.608,64.544 247.120,64.373 247.632,64.205 248.143,64.041 248.655,63.879 249.167,63.721 249.679,63.565 250.191,63.413 250.702,63.264 251.214,63.118 251.726,62.974 252.238,62.834 252.750,62.697 253.261,62.562 253.773,62.430 254.285,62.302 254.797,62.176 255.309,62.052 255.820,61.932 256.332,61.814 256.844,61.699 257.356,61.587 257.868,61.477 258.379,61.369 258.891,61.265 259.403,61.163 259.915,61.063 260.427,60.966 260.938,60.871 261.450,60.779 261.962,60.689 262.474,60.602 262.986,60.516 263.498,60.433 264.009,60.353 264.521,60.274 265.033,60.198 265.545,60.124 266.057,60.052 266.568,59.982 267.080,59.914 267.592,59.848 268.104,59.784 268.616,59.722 269.127,59.662 269.639,59.604 270.151,59.548 270.663,59.493 271.175,59.440 271.686,59.389 272.198,59.340 272.710,59.293 273.222,59.247 273.734,59.202 274.245,59.160 274.757,59.119 275.269,59.079 275.781,59.041 276.293,59.004 276.804,58.969 277.316,58.935 277.828,58.902 278.340,58.871 278.852,58.841 279.364,58.813 279.875,58.785 280.387,58.759 280.899,58.734 281.411,58.710 281.923,58.687 282.434,58.665 282.946,58.644 283.458,58.624 283.970,58.606 284.482,58.588 284.993,58.571 285.505,58.555 286.017,58.539 286.529,58.525 287.041,58.511 287.552,58.499 288.064,58.486 288.576,58.475 289.088,58.464 289.600,58.454 290.111,58.445 290.623,58.436 291.135,58.428 291.647,58.420 292.159,58.413 292.670,58.407 293.182,58.400 293.694,58.395 294.206,58.389 294.718,58.385 295.229,58.380 295.741,58.376 296.253,58.372 296.765,58.369 297.277,58.366 297.789,58.363 298.300,58.361 298.812,58.359 299.324,58.356 299.836,58.355 300.348,58.353 300.859,58.352 301.371,58.351 301.883,58.349 302.395,58.349 302.907,58.348 303.418,58.347 303.930,58.346 304.442,58.346 304.954,58.346 305.466,58.345 305.977,58.345 306.489,58.345 307.001,58.345 307.513,58.345 308.025,58.344 308.536,58.344 309.048,58.344 309.560,58.344 310.072,58.344 310.584,58.344 311.095,58.344 311.607,58.344 312.119,58.344 312.631,58.344 313.143,58.344 313.655,58.344 314.166,58.344 314.678,58.344 315.190,58.344 315.702,58.344 316.214,58.344 316.725,58.344 317.237,58.345 317.749,58.345 318.261,58.345 318.773,58.345 319.284,58.345 319.796,58.346 320.308,58.346 320.820,58.347 321.332,58.347 321.843,58.348 322.355,58.349 322.867,58.350 323.379,58.351 323.891,58.352 324.402,58.353 324.914,58.355 325.426,58.357 325.938,58.359 326.450,58.361 326.961,58.364 327.473,58.367 327.985,58.370 328.497,58.373 329.009,58.377 329.521,58.381 330.032,58.386 330.544,58.391 331.056,58.396 331.568,58.402 332.080,58.409 332.591,58.416 333.103,58.423 333.615,58.431 334.127,58.440 334.639,58.449 335.150,58.459 335.662,58.469 336.174,58.480 336.686,58.492 337.198,58.505 337.709,58.519 338.221,58.533 338.733,58.548 339.245,58.564 339.757,58.581 340.268,58.599 340.780,58.618 341.292,58.638 341.804,58.659 342.316,58.682 342.827,58.705 343.339,58.729 343.851,58.755 344.363,58.782 344.875,58.810 345.386,58.839 345.898,58.870 346.410,58.903 346.922,58.936 347.434,58.971 347.946,59.008 348.457,59.046 348.969,59.086 349.481,59.127 349.993,59.170 350.505,59.215 351.016,59.261 351.528,59.309 352.040,59.359 352.552,59.411 353.064,59.465 353.575,59.521 354.087,59.578 354.599,59.638 355.111,59.700 355.623,59.764 356.134,59.830 356.646,59.898 357.158,59.969 357.670,60.042 358.182,60.117 358.693,60.194 359.205,60.274 359.717,60.357 360.229,60.442 360.741,60.529 361.252,60.619 361.764,60.712 362.276,60.807 362.788,60.905 363.300,61.006 363.812,61.110 364.323,61.216 364.835,61.325 365.347,61.438 365.859,61.553 366.371,61.672 366.882,61.793 367.394,61.918 367.906,62.045 368.418,62.176 368.930,62.310 369.441,62.448 369.953,62.589 370.465,62.733 370.977,62.881 371.489,63.032 372.000,63.187 372.512,63.345 373.024,63.507 373.536,63.672 374.048,63.842 374.559,64.015 375.071,64.191 375.583,64.372 376.095,64.557 376.607,64.745 377.118,64.937 377.630,65.134 378.142,65.334 378.654,65.539 379.166,65.748 379.677,65.961 380.189,66.178 380.701,66.400 381.213,66.626 381.725,66.856 382.237,67.091 382.748,67.330 383.260,67.574 383.772,67.822 384.284,68.075 384.796,68.332 385.307,68.595 385.819,68.862 386.331,69.133 386.843,69.410 387.355,69.692 387.866,69.978 388.378,70.270 388.890,70.566 389.402,70.868 389.914,71.174 390.425,71.486 390.937,71.803 391.449,72.126 391.961,72.453 392.473,72.786 392.984,73.125 393.496,73.469 394.008,73.818 394.520,74.173 395.032,74.534 395.543,74.900 396.055,75.272 396.567,75.650 397.079,76.034 397.591,76.423 398.103,76.819 398.614,77.220 399.126,77.627 399.638,78.041 400.150,78.461 400.662,78.887 401.173,79.319 401.685,79.757 402.197,80.202 402.709,80.653 403.221,81.111 403.732,81.576 404.244,82.047 404.756,82.525 405.268,83.009 405.780,83.500 406.291,83.999 406.803,84.504 407.315,85.016 407.827,85.536 408.339,86.062 408.850,86.596 409.362,87.137 409.874,87.686 410.386,88.242 410.898,88.806 411.409,89.378 411.921,89.957 412.433,90.544 412.945,91.140 413.457,91.743 413.968,92.355 414.480,92.974 414.992,93.603 415.504,94.239 416.016,94.885 416.528,95.539 417.039,96.202 417.551,96.874 418.063,97.555 418.575,98.246 419.087,98.946 419.598,99.656 420.110,100.375 420.622,101.105 421.134,101.845 421.646,102.595 422.157,103.355 422.669,104.126 423.181,104.908 423.693,105.702 424.205,106.507 424.716,107.323 425.228,108.151 425.740,108.992 426.252,109.845 426.764,110.711 427.275,111.590 427.787,112.482 428.299,113.389 428.811,114.309 429.323,115.245 429.834,116.195 430.346,117.161 430.858,118.143 431.370,119.142 431.882,120.158 432.394,121.192 432.905,122.244 433.417,123.316 433.929,124.408 434.441,125.521 434.953,126.656 435.464,127.813 435.976,128.995 436.488,130.202 437.000,131.436 437.512,132.698 438.023,133.990 438.535,135.314 439.047,136.671 439.559,138.065 440.071,139.498 440.582,140.972 441.094,142.492 441.606,144.062 442.118,145.685 442.630,147.369 443.141,149.119 443.653,150.944 444.165,152.854 444.677,154.861 445.189,156.981 445.700,159.235 446.212,161.651 446.724,164.271 447.236,167.155 447.748,170.403 448.259,174.200 448.771,178.983 449.283,186.646 449.283,199.656 448.771,207.319 448.259,212.101 447.748,215.899 447.236,219.147 446.724,222.031 446.212,224.650 445.700,227.067 445.189,229.321 444.677,231.441 444.165,233.447 443.653,235.357 443.141,237.182 442.630,238.932 442.118,240.616 441.606,242.240 441.094,243.810 440.582,245.330 440.071,246.804 439.559,248.237 439.047,249.630 438.535,250.988 438.023,252.311 437.512,253.603 437.000,254.865 436.488,256.099 435.976,257.306 435.464,258.488 434.953,259.646 434.441,260.781 433.929,261.894 433.417,262.985 432.905,264.057 432.394,265.110 431.882,266.144 431.370,267.160 430.858,268.158 430.346,269.141 429.834,270.107 429.323,271.057 428.811,271.992 428.299,272.913 427.787,273.819 427.275,274.712 426.764,275.591 426.252,276.457 425.740,277.310 425.228,278.150 424.716,278.979 424.205,279.795 423.693,280.600 423.181,281.393 422.669,282.175 422.157,282.947 421.646,283.707 421.134,284.457 420.622,285.197 420.110,285.926 419.598,286.646 419.087,287.355 418.575,288.055 418.063,288.746 417.551,289.427 417.039,290.100 416.528,290.763 416.016,291.417 415.504,292.062 414.992,292.699 414.480,293.327 413.968,293.947 413.457,294.559 412.945,295.162 412.433,295.757 411.921,296.344 411.409,296.924 410.898,297.495 410.386,298.059 409.874,298.615 409.362,299.164 408.850,299.705 408.339,300.239 407.827,300.766 407.315,301.285 406.803,301.798 406.291,302.303 405.780,302.801 405.268,303.292 404.756,303.777 404.244,304.255 403.732,304.726 403.221,305.190 402.709,305.648 402.197,306.099 401.685,306.544 401.173,306.983 400.662,307.415 400.150,307.841 399.638,308.261 399.126,308.674 398.614,309.082 398.103,309.483 397.591,309.878 397.079,310.268 396.567,310.652 396.055,311.029 395.543,311.401 395.032,311.768 394.520,312.128 394.008,312.483 393.496,312.833 392.984,313.177 392.473,313.515 391.961,313.848 391.449,314.176 390.937,314.498 390.425,314.815 389.914,315.127 389.402,315.434 388.890,315.736 388.378,316.032 387.866,316.324 387.355,316.610 386.843,316.892 386.331,317.168 385.819,317.440 385.307,317.707 384.796,317.969 384.284,318.227 383.772,318.480 383.260,318.728 382.748,318.972 382.237,319.211 381.725,319.446 381.213,319.676 380.701,319.902 380.189,320.123 379.677,320.341 379.166,320.554 378.654,320.762 378.142,320.967 377.630,321.168 377.118,321.364 376.607,321.557 376.095,321.745 375.583,321.930 375.071,322.110 374.559,322.287 374.048,322.460 373.536,322.629 373.024,322.795 372.512,322.957 372.000,323.115 371.489,323.270 370.977,323.421 370.465,323.569 369.953,323.713 369.441,323.854 368.930,323.991 368.418,324.125 367.906,324.256 367.394,324.384 366.882,324.509 366.371,324.630 365.859,324.748 365.347,324.864 364.835,324.976 364.323,325.086 363.812,325.192 363.300,325.296 362.788,325.396 362.276,325.495 361.764,325.590 361.252,325.683 360.741,325.773 360.229,325.860 359.717,325.945 359.205,326.027 358.693,326.107 358.182,326.185 357.670,326.260 357.158,326.333 356.646,326.403 356.134,326.472 355.623,326.538 355.111,326.602 354.599,326.663 354.087,326.723 353.575,326.781 353.064,326.837 352.552,326.890 352.040,326.942 351.528,326.992 351.016,327.041 350.505,327.087 349.993,327.132 349.481,327.175 348.969,327.216 348.457,327.256 347.946,327.294 347.434,327.330 346.922,327.365 346.410,327.399 345.898,327.431 345.386,327.462 344.875,327.492 344.363,327.520 343.851,327.547 343.339,327.572 342.827,327.597 342.316,327.620 341.804,327.642 341.292,327.663 340.780,327.683 340.268,327.702 339.757,327.720 339.245,327.737 338.733,327.753 338.221,327.769 337.709,327.783 337.198,327.796 336.686,327.809 336.174,327.821 335.662,327.832 335.150,327.843 334.639,327.853 334.127,327.862 333.615,327.871 333.103,327.879 332.591,327.886 332.080,327.893 331.568,327.899 331.056,327.905 330.544,327.911 330.032,327.916 329.521,327.920 329.009,327.924 328.497,327.928 327.985,327.932 327.473,327.935 326.961,327.938 326.450,327.940 325.938,327.943 325.426,327.945 324.914,327.947 324.402,327.948 323.891,327.950 323.379,327.951 322.867,327.952 322.355,327.953 321.843,327.954 321.332,327.954 320.820,327.955 320.308,327.956 319.796,327.956 319.284,327.956 318.773,327.957 318.261,327.957 317.749,327.957 317.237,327.957 316.725,327.957 316.214,327.957 315.702,327.957 315.190,327.957 314.678,327.957 314.166,327.957 313.655,327.957 313.143,327.957 312.631,327.957 312.119,327.957 311.607,327.957 311.095,327.957 310.584,327.957 310.072,327.957 309.560,327.957 309.048,327.957 308.536,327.957 308.025,327.957 307.513,327.957 307.001,327.957 306.489,327.957 305.977,327.957 305.466,327.956 304.954,327.956 304.442,327.956 303.930,327.955 303.418,327.955 302.907,327.954 302.395,327.953 301.883,327.952 301.371,327.951 300.859,327.950 300.348,327.948 299.836,327.947 299.324,327.945 298.812,327.943 298.300,327.941 297.789,327.938 297.277,327.936 296.765,327.932 296.253,327.929 295.741,327.925 295.229,327.921 294.718,327.917 294.206,327.912 293.694,327.907 293.182,327.901 292.670,327.895 292.159,327.888 291.647,327.881 291.135,327.874 290.623,327.865 290.111,327.857 289.600,327.847 289.088,327.837 288.576,327.826 288.064,327.815 287.552,327.803 287.041,327.790 286.529,327.777 286.017,327.762 285.505,327.747 284.993,327.731 284.482,327.714 283.970,327.696 283.458,327.677 282.946,327.657 282.434,327.637 281.923,327.615 281.411,327.592 280.899,327.568 280.387,327.543 279.875,327.517 279.364,327.489 278.852,327.460 278.340,327.430 277.828,327.399 277.316,327.367 276.804,327.333 276.293,327.297 275.781,327.261 275.269,327.223 274.757,327.183 274.245,327.142 273.734,327.099 273.222,327.055 272.710,327.009 272.198,326.961 271.686,326.912 271.175,326.861 270.663,326.809 270.151,326.754 269.639,326.698 269.127,326.640 268.616,326.580 268.104,326.518 267.592,326.454 267.080,326.388 266.568,326.320 266.057,326.250 265.545,326.178 265.033,326.104 264.521,326.027 264.009,325.949 263.498,325.868 262.986,325.785 262.474,325.700 261.962,325.612 261.450,325.523 260.938,325.430 260.427,325.336 259.915,325.238 259.403,325.139 258.891,325.037 258.379,324.932 257.868,324.825 257.356,324.715 256.844,324.603 256.332,324.488 255.820,324.370 255.309,324.249 254.797,324.126 254.285,324.000 253.773,323.871 253.261,323.739 252.750,323.605 252.238,323.468 251.726,323.327 251.214,323.184 250.702,323.038 250.191,322.888 249.679,322.736 249.167,322.581 248.655,322.422 248.143,322.261 247.632,322.096 247.120,321.929 246.608,321.758 246.096,321.583 245.584,321.406 245.073,321.225 244.561,321.041 244.049,320.854 243.537,320.664 243.025,320.470 242.513,320.273 242.002,320.072 241.490,319.868 240.978,319.660 240.466,319.450 239.954,319.235 239.443,319.017 238.931,318.796 238.419,318.571 237.907,318.343 237.395,318.111 236.884,317.875 236.372,317.636 235.860,317.393 235.348,317.147 234.836,316.897 234.325,316.643 233.813,316.386 233.301,316.125 232.789,315.861 232.277,315.592 231.766,315.320 231.254,315.044 230.742,314.765 230.230,314.481 229.718,314.194 229.207,313.903 228.695,313.609 228.183,313.310 227.671,313.008 227.159,312.702 226.647,312.392 226.136,312.078 225.624,311.761 225.112,311.439 224.600,311.114 224.088,310.785 223.577,310.452 223.065,310.115 222.553,309.775 222.041,309.430 221.529,309.082 221.018,308.729 220.506,308.373 219.994,308.013 219.482,307.649 218.970,307.281 218.459,306.910 217.947,306.534 217.435,306.154 216.923,305.771 216.411,305.384 215.900,304.993 215.388,304.598 214.876,304.199 214.364,303.796 213.852,303.389 213.341,302.979 212.829,302.564 212.317,302.146 211.805,301.724 211.293,301.298 210.782,300.868 210.270,300.435 209.758,299.997 209.246,299.556 208.734,299.111 208.222,298.662 207.711,298.210 207.199,297.753 206.687,297.293 206.175,296.829 205.663,296.362 205.152,295.890 204.640,295.415 204.128,294.936 203.616,294.454 203.104,293.967 202.593,293.478 202.081,292.984 201.569,292.487 201.057,291.986 200.545,291.482 200.034,290.974 199.522,290.462 199.010,289.947 198.498,289.428 197.986,288.906 197.475,288.380 196.963,287.851 196.451,287.318 195.939,286.782 195.427,286.242 194.916,285.699 194.404,285.153 193.892,284.603 193.380,284.050 192.868,283.493 192.356,282.934 191.845,282.370 191.333,281.804 190.821,281.234 190.309,280.662 189.797,280.086 189.286,279.506 188.774,278.924 188.262,278.339 187.750,277.750 187.238,277.158 186.727,276.564 186.215,275.966 185.703,275.365 185.191,274.762 184.679,274.155 184.168,273.546 183.656,272.933 183.144,272.318 182.632,271.700 182.120,271.079 181.609,270.455 181.097,269.829 180.585,269.200 180.073,268.568 179.561,267.934 179.050,267.297 178.538,266.657 178.026,266.015 177.514,265.370 177.002,264.723 176.491,264.073 175.979,263.421 175.467,262.767 174.955,262.110 174.443,261.450 173.931,260.789 173.420,260.125 172.908,259.459 172.396,258.791 171.884,258.121 171.372,257.448 170.861,256.773 170.349,256.097 169.837,255.418 169.325,254.737 168.813,254.055 168.302,253.370 167.790,252.684 167.278,251.996 166.766,251.306 166.254,250.614 165.743,249.920 165.231,249.225 164.719,248.528 164.207,247.829 163.695,247.129 163.184,246.427 162.672,245.724 162.160,245.019 161.648,244.313 161.136,243.606 160.625,242.897 160.113,242.186 159.601,241.475 159.089,240.762 158.577,240.048 158.065,239.333 157.554,238.616 157.042,237.899 156.530,237.181 156.018,236.461 155.506,235.741 154.995,235.019 154.483,234.297 153.971,233.574 153.459,232.850 152.947,232.125 152.436,231.400 151.924,230.673 151.412,229.947 150.900,229.219 150.388,228.491 149.877,227.762 149.365,227.033 148.853,226.304 148.341,225.574 147.829,224.843 147.318,224.113 146.806,223.382 146.294,222.650 145.782,221.919 145.270,221.187 144.759,220.455 144.247,219.723 143.735,218.991 143.223,218.259 142.711,217.527 142.200,216.795 141.688,216.063 141.176,215.331 140.664,214.599 140.152,213.868 139.640,213.137 139.129,212.406 138.617,211.675 138.105,210.945 137.593,210.215 137.081,209.486 136.570,208.757 136.058,208.028 135.546,207.300 135.034,206.573 134.522,205.846 134.011,205.120 133.499,204.395 132.987,203.670 132.475,202.946 131.963,202.223 131.452,201.501 130.940,200.779 130.428,200.059 129.916,199.339 129.404,198.620 128.893,197.902 128.381,197.185 127.869,196.469 127.357,195.752 126.845,195.036 126.334,194.316 125.822,193.568 125.310,193.151 "/>
<g>
</g>
</g>
<g id="ID000004" clip-path="url(#ID000001)" >
      <polyline fill="none" stroke="#ff0000" stroke-width="2.0pt" stroke-dasharray="none" points="122.239,193.151 122.751,192.784 123.263,192.020 123.774,191.298 124.286,190.580 124.798,189.863 125.310,189.146 125.822,188.429 126.334,187.711 126.845,186.992 127.357,186.272 127.869,185.551 128.381,184.830 128.893,184.107 129.404,183.384 129.916,182.660 130.428,181.936 130.940,181.210 131.452,180.484 131.963,179.757 132.475,179.030 132.987,178.302 133.499,177.574 134.011,176.845 134.522,176.115 135.034,175.385 135.546,174.655 136.058,173.924 136.570,173.194 137.081,172.462 137.593,171.731 138.105,170.999 138.617,170.267 139.129,169.535 139.640,168.803 140.152,168.071 140.664,167.339 141.176,166.607 141.688,165.875 142.200,165.143 142.711,164.411 143.223,163.680 143.735,162.948 144.247,162.217 144.759,161.487 145.270,160.756 145.782,160.026 146.294,159.297 146.806,158.567 147.318,157.839 147.829,157.111 148.341,156.383 148.853,155.656 149.365,154.930 149.877,154.204 150.388,153.480 150.900,152.756 151.412,152.032 151.924,151.310 152.436,150.589 152.947,149.868 153.459,149.149 153.971,148.430 154.483,147.713 154.995,146.996 155.506,146.281 156.018,145.567 156.530,144.854 157.042,144.143 157.554,143.432 158.065,142.723 158.577,142.016 159.089,141.309 159.601,140.605 160.113,139.901 160.625,139.200 161.136,138.499 161.648,137.801 162.160,137.104 162.672,136.408 163.184,135.715 163.695,135.023 164.207,134.332 164.719,133.644 165.231,132.958 165.743,132.273 166.254,131.590 166.766,130.910 167.278,130.231 167.790,129.554 168.302,128.879 168.813,128.207 169.325,127.536 169.837,126.868 170.349,126.202 170.861,125.538 171.372,124.876 171.884,124.217 172.396,123.560 172.908,122.906 173.420,122.253 173.931,121.604 174.443,120.956 174.955,120.312 175.467,119.669 175.979,119.029 176.491,118.392 177.002,117.758 177.514,117.126 178.026,116.497 178.538,115.870 179.050,115.246 179.561,114.626 180.073,114.007 180.585,113.392 181.097,112.779 181.609,112.170 182.120,111.563 182.632,110.959 183.144,110.359 183.656,109.761 184.168,109.166 184.679,108.574 185.191,107.986 185.703,107.400 186.215,106.818 186.727,106.238 187.238,105.662 187.750,105.089 188.262,104.519 188.774,103.953 189.286,103.390 189.797,102.830 190.309,102.273 190.821,101.720 191.333,101.170 191.845,100.623 192.356,100.080 192.868,99.541 193.380,99.004 193.892,98.471 194.404,97.942 194.916,97.416 195.427,96.894 195.939,96.375 196.451,95.860 196.963,95.348 197.475,94.840 197.986,94.335 198.498,93.834 199.010,93.337 199.522,92.843 200.034,92.353 200.545,91.867 201.057,91.384 201.569,90.905 202.081,90.430 202.593,89.958 203.104,89.491 203.616,89.027 204.128,88.566 204.640,88.110 205.152,87.657 205.663,87.208 206.175,86.763 206.687,86.321 207.199,85.884 207.711,85.450 208.222,85.020 208.734,84.594 209.246,84.172 209.758,83.754 210.270,83.339 210.782,82.929 211.293,82.522 211.805,82.119 212.317,81.720 212.829,81.325 213.341,80.933 213.852,80.546 214.364,80.162 214.876,79.783 215.388,79.407 215.900,79.035 216.411,78.667 216.923,78.303 217.435,77.943 217.947,77.587 218.459,77.234 218.970,76.885 219.482,76.541 219.994,76.200 220.506,75.863 221.018,75.530 221.529,75.201 222.041,74.875 222.553,74.554 223.065,74.236 223.577,73.922 224.088,73.612 224.600,73.306 225.112,73.004 225.624,72.705 226.136,72.410 226.647,72.119 227.159,71.832 227.671,71.549 228.183,71.269 228.695,70.993 229.207,70.721 229.718,70.452 230.230,70.187 230.742,69.926 231.254,69.669 231.766,69.415 232.277,69.165 232.789,68.918 233.301,68.676 233.813,68.436 234.325,68.201 234.836,67.969 235.348,67.740 235.860,67.515 236.372,67.294 236.884,67.076 237.395,66.861 237.907,66.650 238.419,66.442 238.931,66.238 239.443,66.038 239.954,65.840 240.466,65.646 240.978,65.456 241.490,65.268 242.002,65.084 242.513,64.903 243.025,64.726 243.537,64.552 244.049,64.380 244.561,64.213 245.073,64.048 245.584,63.886 246.096,63.728 246.608,63.572 247.120,63.420 247.632,63.270 248.143,63.124 248.655,62.981 249.167,62.840 249.679,62.703 250.191,62.568 250.702,62.436 251.214,62.307 251.726,62.181 252.238,62.058 252.750,61.937 253.261,61.819 253.773,61.704 254.285,61.592 254.797,61.482 255.309,61.375 255.820,61.270 256.332,61.168 256.844,61.068 257.356,60.971 257.868,60.876 258.379,60.783 258.891,60.693 259.403,60.606 259.915,60.520 260.427,60.437 260.938,60.357 261.450,60.278 261.962,60.202 262.474,60.127 262.986,60.055 263.498,59.985 264.009,59.917 264.521,59.851 265.033,59.787 265.545,59.725 266.057,59.665 266.568,59.607 267.080,59.550 267.592,59.496 268.104,59.443 268.616,59.392 269.127,59.343 269.639,59.295 270.151,59.249 270.663,59.205 271.175,59.162 271.686,59.121 272.198,59.081 272.710,59.043 273.222,59.006 273.734,58.971 274.245,58.937 274.757,58.904 275.269,58.873 275.781,58.843 276.293,58.814 276.804,58.787 277.316,58.760 277.828,58.735 278.340,58.711 278.852,58.688 279.364,58.666 279.875,58.645 280.387,58.626 280.899,58.607 281.411,58.589 281.923,58.572 282.434,58.556 282.946,58.540 283.458,58.526 283.970,58.512 284.482,58.499 284.993,58.487 285.505,58.476 286.017,58.465 286.529,58.455 287.041,58.446 287.552,58.437 288.064,58.428 288.576,58.421 289.088,58.414 289.600,58.407 290.111,58.401 290.623,58.395 291.135,58.390 291.647,58.385 292.159,58.380 292.670,58.376 293.182,58.373 293.694,58.369 294.206,58.366 294.718,58.363 295.229,58.361 295.741,58.359 296.253,58.357 296.765,58.355 297.277,58.353 297.789,58.352 298.300,58.350 298.812,58.349 299.324,58.348 299.836,58.348 300.348,58.347 300.859,58.346 301.371,58.346 301.883,58.345 302.395,58.345 302.907,58.345 303.418,58.344 303.930,58.344 304.442,58.344 304.954,58.344 305.466,58.344 305.977,58.344 306.489,58.344 307.001,58.344 307.513,58.344 308.025,58.344 308.536,58.344 309.048,58.344 309.560,58.344 310.072,58.344 310.584,58.344 311.095,58.344 311.607,58.344 312.119,58.344 312.631,58.344 313.143,58.344 313.655,58.344 314.166,58.344 314.678,58.344 315.190,58.344 315.702,58.344 316.214,58.344 316.725,58.345 317.237,58.345 317.749,58.345 318.261,58.346 318.773,58.347 319.284,58.347 319.796,58.348 320.308,58.349 320.820,58.351 321.332,58.352 321.843,58.354 322.355,58.355 322.867,58.357 323.379,58.360 323.891,58.362 324.402,58.365 324.914,58.368 325.426,58.372 325.938,58.375 326.450,58.380 326.961,58.384 327.473,58.389 327.985,58.395 328.497,58.400 329.009,58.407 329.521,58.414 330.032,58.421 330.544,58.429 331.056,58.438 331.568,58.447 332.080,58.456 332.591,58.467 333.103,58.478 333.615,58.490 334.127,58.503 334.639,58.516 335.150,58.531 335.662,58.546 336.174,58.562 336.686,58.579 337.198,58.597 337.709,58.616 338.221,58.636 338.733,58.657 339.245,58.679 339.757,58.702 340.268,58.726 340.780,58.752 341.292,58.779 341.804,58.807 342.316,58.836 342.827,58.867 343.339,58.899 343.851,58.933 344.363,58.968 344.875,59.004 345.386,59.042 345.898,59.082 346.410,59.123 346.922,59.166 347.434,59.211 347.946,59.257 348.457,59.305 348.969,59.355 349.481,59.407 349.993,59.460 350.505,59.516 351.016,59.574 351.528,59.633 352.040,59.695 352.552,59.759 353.064,59.825 353.575,59.893 354.087,59.964 354.599,60.036 355.111,60.111 355.623,60.189 356.134,60.268 356.646,60.351 357.158,60.436 357.670,60.523 358.182,60.613 358.693,60.705 359.205,60.801 359.717,60.899 360.229,60.999 360.741,61.103 361.252,61.209 361.764,61.318 362.276,61.431 362.788,61.546 363.300,61.664 363.812,61.785 364.323,61.910 364.835,62.037 365.347,62.168 365.859,62.302 366.371,62.440 366.882,62.580 367.394,62.724 367.906,62.872 368.418,63.023 368.930,63.178 369.441,63.336 369.953,63.497 370.465,63.663 370.977,63.832 371.489,64.005 372.000,64.181 372.512,64.362 373.024,64.546 373.536,64.735 374.048,64.927 374.559,65.123 375.071,65.324 375.583,65.528 376.095,65.737 376.607,65.950 377.118,66.167 377.630,66.388 378.142,66.614 378.654,66.844 379.166,67.078 379.677,67.317 380.189,67.561 380.701,67.809 381.213,68.062 381.725,68.319 382.237,68.581 382.748,68.848 383.260,69.120 383.772,69.396 384.284,69.677 384.796,69.964 385.307,70.255 385.819,70.551 386.331,70.853 386.843,71.159 387.355,71.471 387.866,71.788 388.378,72.110 388.890,72.437 389.402,72.770 389.914,73.108 390.425,73.452 390.937,73.801 391.449,74.156 391.961,74.517 392.473,74.883 392.984,75.254 393.496,75.632 394.008,76.015 394.520,76.405 395.032,76.800 395.543,77.201 396.055,77.608 396.567,78.021 397.079,78.441 397.591,78.867 398.103,79.299 398.614,79.737 399.126,80.181 399.638,80.632 400.150,81.090 400.662,81.554 401.173,82.025 401.685,82.502 402.197,82.987 402.709,83.478 403.221,83.976 403.732,84.481 404.244,84.993 404.756,85.512 405.268,86.038 405.780,86.572 406.291,87.113 406.803,87.661 407.315,88.217 407.827,88.781 408.339,89.352 408.850,89.931 409.362,90.518 409.874,91.113 410.386,91.716 410.898,92.327 411.409,92.946 411.921,93.574 412.433,94.211 412.945,94.856 413.457,95.510 413.968,96.172 414.480,96.844 414.992,97.525 415.504,98.215 416.016,98.915 416.528,99.624 417.039,100.343 417.551,101.072 418.063,101.812 418.575,102.561 419.087,103.321 419.598,104.092 420.110,104.874 420.622,105.667 421.134,106.471 421.646,107.287 422.157,108.115 422.669,108.955 423.181,109.807 423.693,110.673 424.205,111.551 424.716,112.443 425.228,113.349 425.740,114.269 426.252,115.203 426.764,116.153 427.275,117.118 427.787,118.100 428.299,119.098 428.811,120.113 429.323,121.146 429.834,122.198 430.346,123.269 430.858,124.360 431.370,125.472 431.882,126.606 432.394,127.763 432.905,128.943 433.417,130.149 433.929,131.382 434.441,132.643 434.953,133.933 435.464,135.255 435.976,136.611 436.488,138.003 437.000,139.434 437.512,140.907 438.023,142.425 438.535,143.992 439.047,145.614 439.559,147.295 440.071,149.042 440.582,150.863 441.094,152.769 441.606,154.771 442.118,156.886 442.630,159.134 443.141,161.542 443.653,164.152 444.165,167.023 444.677,170.252 445.189,174.019 445.700,178.741 446.212,186.135 446.212,200.166 445.700,207.560 445.189,212.282 444.677,216.050 444.165,219.279 443.653,222.150 443.141,224.759 442.630,227.168 442.118,229.416 441.606,231.530 441.094,233.532 440.582,235.438 440.071,237.260 439.559,239.007 439.047,240.688 438.535,242.309 438.023,243.877 437.512,245.395 437.000,246.867 436.488,248.298 435.976,249.690 435.464,251.046 434.953,252.368 434.441,253.659 433.929,254.920 433.417,256.152 432.905,257.358 432.394,258.539 431.882,259.696 431.370,260.830 430.858,261.942 430.346,263.033 429.834,264.104 429.323,265.155 428.811,266.188 428.299,267.204 427.787,268.202 427.275,269.183 426.764,270.149 426.252,271.098 425.740,272.033 425.228,272.953 424.716,273.859 424.205,274.751 423.693,275.629 423.181,276.494 422.669,277.347 422.157,278.187 421.646,279.015 421.134,279.831 420.622,280.635 420.110,281.428 419.598,282.210 419.087,282.980 418.575,283.740 418.063,284.490 417.551,285.229 417.039,285.958 416.528,286.677 416.016,287.387 415.504,288.086 414.992,288.777 414.480,289.457 413.968,290.129 413.457,290.792 412.945,291.446 412.433,292.091 411.921,292.727 411.409,293.355 410.898,293.975 410.386,294.586 409.874,295.189 409.362,295.784 408.850,296.371 408.339,296.950 407.827,297.521 407.315,298.084 406.803,298.640 406.291,299.189 405.780,299.730 405.268,300.263 404.756,300.790 404.244,301.309 403.732,301.821 403.221,302.326 402.709,302.824 402.197,303.315 401.685,303.799 401.173,304.277 400.662,304.747 400.150,305.212 399.638,305.669 399.126,306.120 398.614,306.565 398.103,307.003 397.591,307.435 397.079,307.861 396.567,308.280 396.055,308.693 395.543,309.101 395.032,309.502 394.520,309.897 394.008,310.286 393.496,310.670 392.984,311.047 392.473,311.419 391.961,311.785 391.449,312.145 390.937,312.500 390.425,312.849 389.914,313.193 389.402,313.531 388.890,313.864 388.378,314.192 387.866,314.514 387.355,314.831 386.843,315.142 386.331,315.449 385.819,315.750 385.307,316.047 384.796,316.338 384.284,316.624 383.772,316.906 383.260,317.182 382.748,317.454 382.237,317.720 381.725,317.982 381.213,318.240 380.701,318.493 380.189,318.741 379.677,318.984 379.166,319.223 378.654,319.458 378.142,319.688 377.630,319.914 377.118,320.135 376.607,320.352 376.095,320.565 375.583,320.774 375.071,320.978 374.559,321.178 374.048,321.375 373.536,321.567 373.024,321.755 372.512,321.940 372.000,322.120 371.489,322.297 370.977,322.470 370.465,322.639 369.953,322.804 369.441,322.966 368.930,323.124 368.418,323.279 367.906,323.430 367.394,323.577 366.882,323.721 366.371,323.862 365.859,323.999 365.347,324.133 364.835,324.264 364.323,324.392 363.812,324.516 363.300,324.638 362.788,324.756 362.276,324.871 361.764,324.983 361.252,325.092 360.741,325.199 360.229,325.302 359.717,325.403 359.205,325.501 358.693,325.596 358.182,325.689 357.670,325.779 357.158,325.866 356.646,325.951 356.134,326.033 355.623,326.113 355.111,326.190 354.599,326.265 354.087,326.338 353.575,326.408 353.064,326.477 352.552,326.543 352.040,326.607 351.528,326.668 351.016,326.728 350.505,326.786 349.993,326.841 349.481,326.895 348.969,326.947 348.457,326.997 347.946,327.045 347.434,327.091 346.922,327.136 346.410,327.179 345.898,327.220 345.386,327.259 344.875,327.297 344.363,327.334 343.851,327.369 343.339,327.403 342.827,327.435 342.316,327.465 341.804,327.495 341.292,327.523 340.780,327.550 340.268,327.575 339.757,327.600 339.245,327.623 338.733,327.645 338.221,327.666 337.709,327.686 337.198,327.705 336.686,327.723 336.174,327.740 335.662,327.756 335.150,327.771 334.639,327.785 334.127,327.799 333.615,327.811 333.103,327.823 332.591,327.835 332.080,327.845 331.568,327.855 331.056,327.864 330.544,327.873 330.032,327.881 329.521,327.888 329.009,327.895 328.497,327.901 327.985,327.907 327.473,327.912 326.961,327.917 326.450,327.922 325.938,327.926 325.426,327.930 324.914,327.933 324.402,327.936 323.891,327.939 323.379,327.942 322.867,327.944 322.355,327.946 321.843,327.948 321.332,327.950 320.820,327.951 320.308,327.952 319.796,327.953 319.284,327.954 318.773,327.955 318.261,327.956 317.749,327.956 317.237,327.957 316.725,327.957 316.214,327.957 315.702,327.958 315.190,327.958 314.678,327.958 314.166,327.958 313.655,327.958 313.143,327.958 312.631,327.958 312.119,327.958 311.607,327.958 311.095,327.958 310.584,327.958 310.072,327.958 309.560,327.958 309.048,327.958 308.536,327.958 308.025,327.958 307.513,327.958 307.001,327.958 306.489,327.958 305.977,327.958 305.466,327.958 304.954,327.958 304.442,327.957 303.930,327.957 303.418,327.957 302.907,327.957 302.395,327.957 301.883,327.956 301.371,327.956 300.859,327.955 300.348,327.955 299.836,327.954 299.324,327.953 298.812,327.952 298.300,327.951 297.789,327.950 297.277,327.948 296.765,327.947 296.253,327.945 295.741,327.943 295.229,327.941 294.718,327.938 294.206,327.935 293.694,327.932 293.182,327.929 292.670,327.925 292.159,327.921 291.647,327.917 291.135,327.912 290.623,327.906 290.111,327.901 289.600,327.895 289.088,327.888 288.576,327.881 288.064,327.873 287.552,327.865 287.041,327.856 286.529,327.847 286.017,327.836 285.505,327.826 284.993,327.814 284.482,327.802 283.970,327.789 283.458,327.776 282.946,327.761 282.434,327.746 281.923,327.730 281.411,327.713 280.899,327.695 280.387,327.676 279.875,327.656 279.364,327.635 278.852,327.613 278.340,327.590 277.828,327.566 277.316,327.541 276.804,327.515 276.293,327.487 275.781,327.459 275.269,327.429 274.757,327.397 274.245,327.365 273.734,327.331 273.222,327.295 272.710,327.259 272.198,327.220 271.686,327.181 271.175,327.139 270.663,327.097 270.151,327.052 269.639,327.006 269.127,326.959 268.616,326.909 268.104,326.858 267.592,326.806 267.080,326.751 266.568,326.695 266.057,326.636 265.545,326.576 265.033,326.514 264.521,326.450 264.009,326.384 263.498,326.316 262.986,326.246 262.474,326.174 261.962,326.100 261.450,326.024 260.938,325.945 260.427,325.864 259.915,325.781 259.403,325.696 258.891,325.608 258.379,325.518 257.868,325.426 257.356,325.331 256.844,325.234 256.332,325.134 255.820,325.032 255.309,324.927 254.797,324.820 254.285,324.710 253.773,324.597 253.261,324.482 252.750,324.364 252.238,324.244 251.726,324.120 251.214,323.994 250.702,323.865 250.191,323.733 249.679,323.599 249.167,323.461 248.655,323.321 248.143,323.177 247.632,323.031 247.120,322.882 246.608,322.729 246.096,322.574 245.584,322.415 245.073,322.254 244.561,322.089 244.049,321.921 243.537,321.750 243.025,321.576 242.513,321.398 242.002,321.217 241.490,321.033 240.978,320.846 240.466,320.655 239.954,320.461 239.443,320.264 238.931,320.063 238.419,319.859 237.907,319.651 237.395,319.440 236.884,319.226 236.372,319.008 235.860,318.787 235.348,318.562 234.836,318.333 234.325,318.101 233.813,317.865 233.301,317.626 232.789,317.383 232.277,317.137 231.766,316.887 231.254,316.633 230.742,316.375 230.230,316.114 229.718,315.849 229.207,315.581 228.695,315.309 228.183,315.033 227.671,314.753 227.159,314.470 226.647,314.182 226.136,313.891 225.624,313.597 225.112,313.298 224.600,312.996 224.088,312.689 223.577,312.379 223.065,312.065 222.553,311.748 222.041,311.426 221.529,311.101 221.018,310.772 220.506,310.439 219.994,310.102 219.482,309.761 218.970,309.416 218.459,309.068 217.947,308.715 217.435,308.359 216.923,307.999 216.411,307.634 215.900,307.266 215.388,306.895 214.876,306.519 214.364,306.139 213.852,305.756 213.341,305.368 212.829,304.977 212.317,304.582 211.805,304.183 211.293,303.780 210.782,303.373 210.270,302.962 209.758,302.548 209.246,302.130 208.734,301.707 208.222,301.281 207.711,300.851 207.199,300.418 206.687,299.980 206.175,299.539 205.663,299.094 205.152,298.645 204.640,298.192 204.128,297.735 203.616,297.275 203.104,296.811 202.593,296.343 202.081,295.872 201.569,295.396 201.057,294.917 200.545,294.435 200.034,293.948 199.522,293.458 199.010,292.965 198.498,292.467 197.986,291.966 197.475,291.462 196.963,290.954 196.451,290.442 195.939,289.927 195.427,289.408 194.916,288.885 194.404,288.360 193.892,287.830 193.380,287.297 192.868,286.761 192.356,286.221 191.845,285.678 191.333,285.132 190.821,284.582 190.309,284.028 189.797,283.472 189.286,282.912 188.774,282.349 188.262,281.782 187.750,281.212 187.238,280.639 186.727,280.063 186.215,279.484 185.703,278.902 185.191,278.316 184.679,277.727 184.168,277.136 183.656,276.541 183.144,275.943 182.632,275.342 182.120,274.738 181.609,274.132 181.097,273.522 180.585,272.910 180.073,272.294 179.561,271.676 179.050,271.055 178.538,270.431 178.026,269.805 177.514,269.176 177.002,268.544 176.491,267.909 175.979,267.272 175.467,266.632 174.955,265.990 174.443,265.345 173.931,264.698 173.420,264.048 172.908,263.396 172.396,262.741 171.884,262.084 171.372,261.425 170.861,260.763 170.349,260.100 169.837,259.434 169.325,258.765 168.813,258.095 168.302,257.422 167.790,256.748 167.278,256.071 166.766,255.392 166.254,254.711 165.743,254.029 165.231,253.344 164.719,252.657 164.207,251.969 163.695,251.279 163.184,250.587 162.672,249.893 162.160,249.198 161.648,248.501 161.136,247.802 160.625,247.102 160.113,246.400 159.601,245.697 159.089,244.992 158.577,244.286 158.065,243.578 157.554,242.869 157.042,242.159 156.530,241.447 156.018,240.735 155.506,240.020 154.995,239.305 154.483,238.589 153.971,237.871 153.459,237.153 152.947,236.433 152.436,235.713 151.924,234.991 151.412,234.269 150.900,233.546 150.388,232.822 149.877,232.097 149.365,231.372 148.853,230.645 148.341,229.918 147.829,229.191 147.318,228.463 146.806,227.734 146.294,227.005 145.782,226.275 145.270,225.545 144.759,224.815 144.247,224.084 143.735,223.353 143.223,222.622 142.711,221.890 142.200,221.158 141.688,220.427 141.176,219.695 140.664,218.962 140.152,218.230 139.640,217.498 139.129,216.766 138.617,216.034 138.105,215.302 137.593,214.571 137.081,213.839 136.570,213.108 136.058,212.377 135.546,211.646 135.034,210.916 134.522,210.186 134.011,209.457 133.499,208.728 132.987,207.999 132.475,207.272 131.963,206.544 131.452,205.817 130.940,205.091 130.428,204.366 129.916,203.641 129.404,202.917 128.893,202.194 128.381,201.472 127.869,200.750 127.357,200.030 126.845,199.310 126.334,198.591 125.822,197.873 125.310,197.155 124.798,196.438 124.286,195.722 123.774,195.004 123.263,194.281 122.751,193.518 122.239,193.151 "/>
<g>
</g>
</g>
<g id="ID000005" >
  <g transform="translate(271.219,389.384)">
    <g transform="rotate(-0.0)">
      <text x="0.000" y="0.000" font-family="Helvetica" text-anchor="middle" font-size="11pt" fill="#000000" >Phase (rad)</text>
    </g>
  </g>
</g>
<g id="ID000006" >
  <g transform="translate(28.406,194.582)">
    <g transform="rotate(-90.0)">
      <text x="0.000" y="0.000" font-family="Helvetica" text-anchor="middle" font-size="11pt" fill="#000000" >DE/E</text>
    </g>
  </g>
</g>
<g id="ID000007" >
</g>
<g id="ID000008" >
</g>
<g id="ID000009" >
</g>
<g id="ID000010" clip-path="url(#ID000001)" >
      <polyline fill="none" stroke="#000000" stroke-width="0.5pt" stroke-dasharray="8.0,2.0" points="312.375,356.278 312.375,30.023 "/>
<g>
</g>
</g>
<g id="ID000011" clip-path="url(#ID000001)" >
      <polyline fill="none" stroke="#000000" stroke-width="0.5pt" stroke-dasharray="8.0,2.0" points="68.250,193.151 475.125,193.151 "/>
<g>
</g>
</g>
    </g>
    <g>
      <polyline fill="none" stroke="#000000" stroke-width="0.5pt" stroke-dasharray="none" points="108.938,356.278 108.938,352.209 "/>
      <polyline fill="none" stroke="#000000" stroke-width="0.5pt" stroke-dasharray="none" points="149.625,356.278 149.625,352.209 "/>
      <polyline fill="none" stroke="#000000" stroke-width="0.5pt" stroke-dasharray="none" points="190.313,356.278 190.313,352.209 "/>
      <polyline fill="none" stroke="#000000" stroke-width="0.5pt" stroke-dasharray="none" points="231.000,356.278 231.000,352.209 "/>
      <polyline fill="none" stroke="#000000" stroke-width="0.5pt" stroke-dasharray="none" points="271.688,356.278 271.688,352.209 "/>
      <polyline fill="none" stroke="#000000" stroke-width="0.5pt" stroke-dasharray="none" points="312.375,356.278 312.375,352.209 "/>
      <polyline fill="none" stroke="#000000" stroke-width="0.5pt" stroke-dasharray="none" points="353.063,356.278 353.063,352.209 "/>
      <polyline fill="none" stroke="#000000" stroke-width="0.5pt" stroke-dasharray="none" points="393.750,356.278 393.750,352.209 "/>
      <polyline fill="none" stroke="#000000" stroke-width="0.5pt" stroke-dasharray="none" points="434.438,356.278 434.438,352.209 "/>
      <polyline fill="none" stroke="#000000" stroke-width="0.5pt" stroke-dasharray="none" points="68.250,356.278 475.125,356.278 "/>
      <polyline fill="none" stroke="#000000" stroke-width="0.5pt" stroke-dasharray="none" points="108.938,30.023 108.938,34.092 "/>
      <polyline fill="none" stroke="#000000" stroke-width="0.5pt" stroke-dasharray="none" points="149.625,30.023 149.625,34.092 "/>
      <polyline fill="none" stroke="#000000" stroke-width="0.5pt" stroke-dasharray="none" points="190.313,30.023 190.313,34.092 "/>
      <polyline fill="none" stroke="#000000" stroke-width="0.5pt" stroke-dasharray="none" points="231.000,30.023 231.000,34.092 "/>
      <polyline fill="none" stroke="#000000" stroke-width="0.5pt" stroke-dasharray="none" points="271.688,30.023 271.688,34.092 "/>
      <polyline fill="none" stroke="#000000" stroke-width="0.5pt" stroke-dasharray="none" points="312.375,30.023 312.375,34.092 "/>
      <polyline fill="none" stroke="#000000" stroke-width="0.5pt" stroke-dasharray="none" points="353.063,30.023 353.063,34.092 "/>
      <polyline fill="none" stroke="#000000" stroke-width="0.5pt" stroke-dasharray="none" points="393.750,30.023 393.750,34.092 "/>
      <polyline fill="none" stroke="#000000" stroke-width="0.5pt" stroke-dasharray="none" points="434.438,30.023 434.438,34.092 "/>
      <polyline fill="none" stroke="#000000" stroke-width="0.5pt" stroke-dasharray="none" points="68.250,30.023 475.125,30.023 "/>
  <g transform="translate(68.250,368.972)">
    <g transform="rotate(-0.0)">
      <text x="0.000" y="0.000" font-family="Helvetica" text-anchor="middle" font-size="9pt" fill="#000000" >-3</text>
    </g>
  </g>
  <g transform="translate(108.938,368.972)">
    <g transform="rotate(-0.0)">
      <text x="0.000" y="0.000" font-family="Helvetica" text-anchor="middle" font-size="9pt" fill="#000000" >-2.5</text>
    </g>
  </g>
  <g transform="translate(149.625,368.972)">
    <g transform="rotate(-0.0)">
      <text x="0.000" y="0.000" font-family="Helvetica" text-anchor="middle" font-size="9pt" fill="#000000" >-2</text>
    </g>
  </g>
  <g transform="translate(190.313,368.972)">
    <g transform="rotate(-0.0)">
      <text x="0.000" y="0.000" font-family="Helvetica" text-anchor="middle" font-size="9pt" fill="#000000" >-1.5</text>
    </g>
  </g>
  <g transform="translate(231.000,368.972)">
    <g transform="rotate(-0.0)">
      <text x="0.000" y="0.000" font-family="Helvetica" text-anchor="middle" font-size="9pt" fill="#000000" >-1</text>
    </g>
  </g>
  <g transform="translate(271.688,368.972)">
    <g transform="rotate(-0.0)">
      <text x="0.000" y="0.000" font-family="Helvetica" text-anchor="middle" font-size="9pt" fill="#000000" >-0.5</text>
    </g>
  </g>
  <g transform="translate(312.375,368.972)">
    <g transform="rotate(-0.0)">
      <text x="0.000" y="0.000" font-family="Helvetica" text-anchor="middle" font-size="9pt" fill="#000000" >0</text>
    </g>
  </g>
  <g transform="translate(353.063,368.972)">
    <g transform="rotate(-0.0)">
      <text x="0.000" y="0.000" font-family="Helvetica" text-anchor="middle" font-size="9pt" fill="#000000" >0.5</text>
    </g>
  </g>
  <g transform="translate(393.750,368.972)">
    <g transform="rotate(-0.0)">
      <text x="0.000" y="0.000" font-family="Helvetica" text-anchor="middle" font-size="9pt" fill="#000000" >1</text>
    </g>
  </g>
  <g transform="translate(434.438,368.972)">
    <g transform="rotate(-0.0)">
      <text x="0.000" y="0.000" font-family="Helvetica" text-anchor="middle" font-size="9pt" fill="#000000" >1.5</text>
    </g>
  </g>
  <g transform="translate(475.125,368.972)">
    <g transform="rotate(-0.0)">
      <text x="0.000" y="0.000" font-family="Helvetica" text-anchor="middle" font-size="9pt" fill="#000000" >2</text>
    </g>
  </g>
      <polyline fill="none" stroke="#000000" stroke-width="0.5pt" stroke-dasharray="none" points="68.250,301.902 72.319,301.902 "/>
      <polyline fill="none" stroke="#000000" stroke-width="0.5pt" stroke-dasharray="none" points="68.250,247.527 72.319,247.527 "/>
      <polyline fill="none" stroke="#000000" stroke-width="0.5pt" stroke-dasharray="none" points="68.250,193.151 72.319,193.151 "/>
      <polyline fill="none" stroke="#000000" stroke-width="0.5pt" stroke-dasharray="none" points="68.250,138.775 72.319,138.775 "/>
      <polyline fill="none" stroke="#000000" stroke-width="0.5pt" stroke-dasharray="none" points="68.250,84.399 72.319,84.399 "/>
      <polyline fill="none" stroke="#000000" stroke-width="0.5pt" stroke-dasharray="none" points="68.250,356.278 68.250,30.023 "/>
      <polyline fill="none" stroke="#000000" stroke-width="0.5pt" stroke-dasharray="none" points="475.125,301.902 471.056,301.902 "/>
      <polyline fill="none" stroke="#000000" stroke-width="0.5pt" stroke-dasharray="none" points="475.125,247.527 471.056,247.527 "/>
      <polyline fill="none" stroke="#000000" stroke-width="0.5pt" stroke-dasharray="none" points="475.125,193.151 471.056,193.151 "/>
      <polyline fill="none" stroke="#000000" stroke-width="0.5pt" stroke-dasharray="none" points="475.125,138.775 471.056,138.775 "/>
      <polyline fill="none" stroke="#000000" stroke-width="0.5pt" stroke-dasharray="none" points="475.125,84.399 471.056,84.399 "/>
      <polyline fill="none" stroke="#000000" stroke-width="0.5pt" stroke-dasharray="none" points="475.125,356.278 475.125,30.023 "/>
  <g transform="translate(66.216,360.497)">
    <g transform="rotate(-0.0)">
      <text x="0.000" y="0.000" font-family="Helvetica" text-anchor="end" font-size="9pt" fill="#000000" >-0.06</text>
    </g>
  </g>
  <g transform="translate(66.216,306.121)">
    <g transform="rotate(-0.0)">
      <text x="0.000" y="0.000" font-family="Helvetica" text-anchor="end" font-size="9pt" fill="#000000" >-0.04</text>
    </g>
  </g>
  <g transform="translate(66.216,251.745)">
    <g transform="rotate(-0.0)">
      <text x="0.000" y="0.000" font-family="Helvetica" text-anchor="end" font-size="9pt" fill="#000000" >-0.02</text>
    </g>
  </g>
  <g transform="translate(66.216,197.370)">
    <g transform="rotate(-0.0)">
      <text x="0.000" y="0.000" font-family="Helvetica" text-anchor="end" font-size="9pt" fill="#000000" >0</text>
    </g>
  </g>
  <g transform="translate(66.216,142.994)">
    <g transform="rotate(-0.0)">
      <text x="0.000" y="0.000" font-family="Helvetica" text-anchor="end" font-size="9pt" fill="#000000" >0.02</text>
    </g>
  </g>
  <g transform="translate(66.216,88.618)">
    <g transform="rotate(-0.0)">
      <text x="0.000" y="0.000" font-family="Helvetica" text-anchor="end" font-size="9pt" fill="#000000" >0.04</text>
    </g>
  </g>
  <g transform="translate(66.216,34.242)">
    <g transform="rotate(-0.0)">
      <text x="0.000" y="0.000" font-family="Helvetica" text-anchor="end" font-size="9pt" fill="#000000" >0.06</text>
    </g>
  </g>
      <polyline fill="none" stroke="#000000" stroke-width="0.5pt" stroke-dasharray="none" points="68.250,356.278 68.250,353.016 "/>
      <polyline fill="none" stroke="#000000" stroke-width="0.5pt" stroke-dasharray="none" points="68.250,356.278 68.250,356.278 "/>
    </g>
  </g>
  <g id ="ID000012">
  <clipPath id="ID000013">
    <rect x="70.290" y="31.927" width="131.250" height="56.875"/>
  </clipPath>
      <polygon fill="#ffffff" fill-opacity="1.00" stroke="none" stroke-width="0.5pt" stroke-opacity="1.00" stroke-dasharray="none" points="70.290,88.802 201.540,88.802 201.540,31.927 70.290,31.927 "/>
      <polygon fill="#ffffff" fill-opacity="1.00" stroke="none" stroke-width="0.5pt" stroke-opacity="1.00" stroke-dasharray="none" points="70.290,31.927 201.540,31.927 201.540,31.927 70.290,31.927 "/>
      <polygon fill="#ffffff" fill-opacity="1.00" stroke="none" stroke-width="0.5pt" stroke-opacity="1.00" stroke-dasharray="none" points="70.290,88.802 70.290,88.802 70.290,31.927 70.290,31.927 "/>
    <g>
<g id="ID000014" >
</g>
<g id="ID000015" >
</g>
<g id="ID000016" >
</g>
<g id="ID000017" >
  <g transform="translate(119.509,47.800)">
    <g transform="rotate(-0.0)">
      <text x="0.000" y="0.000" font-family="Helvetica" text-anchor="start" font-size="9pt" fill="#000000" >without HC</text>
    </g>
  </g>
</g>
<g id="ID000018" clip-path="url(#ID000013)" >
      <polyline fill="none" stroke="#0000ff" stroke-width="2.0pt" stroke-dasharray="none" points="77.790,42.864 115.290,42.864 "/>
<g>
</g>
</g>
<g id="ID000019" clip-path="url(#ID000013)" >
<g>
</g>
</g>
<g id="ID000020" >
  <g transform="translate(119.509,65.516)">
    <g transform="rotate(-0.0)">
      <text x="0.000" y="0.000" font-family="Helvetica" text-anchor="start" font-size="9pt" fill="#000000" >Optimum 3HC</text>
    </g>
  </g>
</g>
<g id="ID000021" clip-path="url(#ID000013)" >
      <polyline fill="none" stroke="#00ff00" stroke-width="2.0pt" stroke-dasharray="none" points="77.790,60.364 115.290,60.364 "/>
<g>
</g>
</g>
<g id="ID000022" clip-path="url(#ID000013)" >
<g>
</g>
</g>
<g id="ID000023" >
  <g transform="translate(119.509,83.231)">
    <g transform="rotate(-0.0)">
      <text x="0.000" y="0.000" font-family="Helvetica" text-anchor="start" font-size="9pt" fill="#000000" >NSLS-2 3HC</text>
    </g>
  </g>
</g>
<g id="ID000024" clip-path="url(#ID000013)" >
      <polyline fill="none" stroke="#ff0000" stroke-width="2.0pt" stroke-dasharray="none" points="77.790,77.864 115.290,77.864 "/>
<g>
</g>
</g>
<g id="ID000025" clip-path="url(#ID000013)" >
<g>
</g>
</g>
    </g>
    <g>
      <polyline fill="none" stroke="#000000" stroke-width="0.5pt" stroke-dasharray="none" points="70.290,88.802 201.540,88.802 "/>
      <polyline fill="none" stroke="#000000" stroke-width="0.5pt" stroke-dasharray="none" points="70.290,31.927 201.540,31.927 "/>
      <polyline fill="none" stroke="#000000" stroke-width="0.5pt" stroke-dasharray="none" points="70.290,88.802 70.290,31.927 "/>
      <polyline fill="none" stroke="#000000" stroke-width="0.5pt" stroke-dasharray="none" points="201.540,88.802 201.540,31.927 "/>
      <polyline fill="none" stroke="#000000" stroke-width="0.5pt" stroke-dasharray="none" points="70.290,88.802 70.290,88.233 "/>
      <polyline fill="none" stroke="#000000" stroke-width="0.5pt" stroke-dasharray="none" points="70.290,88.802 70.290,88.802 "/>
    </g>
  </g>
  <g id ="ID000026">
  <clipPath id="ID000027">
    <rect x="0.000" y="0.000" width="525.000" height="400.313"/>
  </clipPath>
    <g>
<g id="ID000028" clip-path="url(#ID000027)" >
      <polyline fill="none" stroke="#000000" stroke-width="0.0pt" stroke-dasharray="none" points="262.500,4.688 "/>
<g>
      <polygon fill="#000000" fill-opacity="1.00" stroke="#ffffff" stroke-width="0.0pt" stroke-opacity="1.00" stroke-dasharray="none" points="258.500,0.688 258.500,8.688 266.500,8.688 266.500,0.688 258.500,0.688 "/>
</g>
</g>
<g id="ID000029" clip-path="url(#ID000027)" >
      <polyline fill="none" stroke="#000000" stroke-width="0.0pt" stroke-dasharray="none" points="520.313,200.156 "/>
<g>
      <polygon fill="#000000" fill-opacity="1.00" stroke="#ffffff" stroke-width="0.0pt" stroke-opacity="1.00" stroke-dasharray="none" points="516.313,196.156 516.313,204.156 524.313,204.156 524.313,196.156 516.313,196.156 "/>
</g>
</g>
<g id="ID000030" clip-path="url(#ID000027)" >
      <polyline fill="none" stroke="#000000" stroke-width="0.0pt" stroke-dasharray="none" points="262.500,395.625 "/>
<g>
      <polygon fill="#000000" fill-opacity="1.00" stroke="#ffffff" stroke-width="0.0pt" stroke-opacity="1.00" stroke-dasharray="none" points="258.500,391.625 258.500,399.625 266.500,399.625 266.500,391.625 258.500,391.625 "/>
</g>
</g>
<g id="ID000031" clip-path="url(#ID000027)" >
      <polyline fill="none" stroke="#000000" stroke-width="0.0pt" stroke-dasharray="none" points="4.688,200.156 "/>
<g>
      <polygon fill="#000000" fill-opacity="1.00" stroke="#ffffff" stroke-width="0.0pt" stroke-opacity="1.00" stroke-dasharray="none" points="0.688,196.156 0.688,204.156 8.688,204.156 8.688,196.156 0.688,196.156 "/>
</g>
</g>
<g id="ID000032" clip-path="url(#ID000027)" >
      <polyline fill="none" stroke="#000000" stroke-width="0.0pt" stroke-dasharray="none" points="4.688,4.688 "/>
<g>
      <polygon fill="#000000" fill-opacity="1.00" stroke="#ffffff" stroke-width="0.0pt" stroke-opacity="1.00" stroke-dasharray="none" points="0.688,0.688 0.688,8.688 8.688,8.688 8.688,0.688 0.688,0.688 "/>
</g>
</g>
<g id="ID000033" clip-path="url(#ID000027)" >
      <polyline fill="none" stroke="#000000" stroke-width="0.0pt" stroke-dasharray="none" points="520.313,395.625 "/>
<g>
      <polygon fill="#000000" fill-opacity="1.00" stroke="#ffffff" stroke-width="0.0pt" stroke-opacity="1.00" stroke-dasharray="none" points="516.313,391.625 516.313,399.625 524.313,399.625 524.313,391.625 516.313,391.625 "/>
</g>
</g>
<g id="ID000034" clip-path="url(#ID000027)" >
      <polyline fill="none" stroke="#000000" stroke-width="0.0pt" stroke-dasharray="none" points="520.313,4.688 "/>
<g>
      <polygon fill="#000000" fill-opacity="1.00" stroke="#ffffff" stroke-width="0.0pt" stroke-opacity="1.00" stroke-dasharray="none" points="516.313,0.688 516.313,8.688 524.313,8.688 524.313,0.688 516.313,0.688 "/>
</g>
</g>
<g id="ID000035" clip-path="url(#ID000027)" >
      <polyline fill="none" stroke="#000000" stroke-width="0.0pt" stroke-dasharray="none" points="4.688,395.625 "/>
<g>
      <polygon fill="#000000" fill-opacity="1.00" stroke="#ffffff" stroke-width="0.0pt" stroke-opacity="1.00" stroke-dasharray="none" points="0.688,391.625 0.688,399.625 8.688,399.625 8.688,391.625 0.688,391.625 "/>
</g>
</g>
    </g>
  </g>
  </g>
</svg>
